INSERT INTO notes (mp3_id, notes)
VALUES
 (1000, '[{
            "start": 0.8571399999999999,
            "end": 1.2624957916666666,
            "pitch": 58,
            "velocity": 64
        },
        {
            "start": 1.28571,
            "end": 1.6910657916666665,
            "pitch": 56,
            "velocity": 64
        },
        {
            "start": 1.7142799999999998,
            "end": 2.1196357916666666,
            "pitch": 58,
            "velocity": 64
        },
        {
            "start": 2.1428499999999997,
            "end": 2.3446350416666664,
            "pitch": 59,
            "velocity": 64
        },
        {
            "start": 2.357135,
            "end": 2.9660615416666665,
            "pitch": 61,
            "velocity": 64
        },
        {
            "start": 2.9999899999999995,
            "end": 3.4053457916666665,
            "pitch": 61,
            "velocity": 64
        },
        {
            "start": 3.4285599999999996,
            "end": 3.6303450416666663,
            "pitch": 59,
            "velocity": 64
        },
        {
            "start": 3.6428449999999994,
            "end": 3.844630041666666,
            "pitch": 58,
            "velocity": 64
        },
        {
            "start": 3.8571299999999997,
            "end": 5.483910291666666,
            "pitch": 56,
            "velocity": 64
        },
        {
            "start": 5.999979999999999,
            "end": 6.4053357916666664,
            "pitch": 61,
            "velocity": 64
        },
        {
            "start": 6.4285499999999995,
            "end": 6.833905791666666,
            "pitch": 61,
            "velocity": 64
        },
        {
            "start": 6.857119999999999,
            "end": 7.058905041666666,
            "pitch": 59,
            "velocity": 64
        },
        {
            "start": 7.0714049999999995,
            "end": 7.273190041666666,
            "pitch": 58,
            "velocity": 64
        },
        {
            "start": 7.285689999999999,
            "end": 8.912470291666665,
            "pitch": 56,
            "velocity": 64
        },
        {
            "start": 9.42854,
            "end": 9.833895791666666,
            "pitch": 56,
            "velocity": 64
        },
        {
            "start": 9.857109999999999,
            "end": 10.262465791666665,
            "pitch": 54,
            "velocity": 64
        },
        {
            "start": 10.28568,
            "end": 10.691035791666666,
            "pitch": 56,
            "velocity": 64
        },
        {
            "start": 10.71425,
            "end": 11.119605791666666,
            "pitch": 56,
            "velocity": 64
        },
        {
            "start": 11.142819999999999,
            "end": 11.548175791666665,
            "pitch": 56,
            "velocity": 64
        },
        {
            "start": 11.57139,
            "end": 11.976745791666666,
            "pitch": 58,
            "velocity": 64
        },
        {
            "start": 11.999959999999998,
            "end": 12.812457291666666,
            "pitch": 59,
            "velocity": 64
        },
        {
            "start": 12.857099999999999,
            "end": 13.466026541666665,
            "pitch": 61,
            "velocity": 64
        },
        {
            "start": 13.499954999999998,
            "end": 14.516023041666665,
            "pitch": 58,
            "velocity": 64
        },
        {
            "start": 14.571379999999998,
            "end": 14.976735791666664,
            "pitch": 58,
            "velocity": 64
        },
        {
            "start": 14.999949999999998,
            "end": 15.405305791666665,
            "pitch": 56,
            "velocity": 64
        },
        {
            "start": 15.428519999999999,
            "end": 15.833875791666665,
            "pitch": 58,
            "velocity": 64
        },
        {
            "start": 15.857089999999998,
            "end": 16.058875041666663,
            "pitch": 59,
            "velocity": 64
        },
        {
            "start": 16.071375,
            "end": 16.680301541666665,
            "pitch": 61,
            "velocity": 64
        },
        {
            "start": 16.714229999999997,
            "end": 17.119585791666665,
            "pitch": 61,
            "velocity": 64
        },
        {
            "start": 17.142799999999998,
            "end": 17.344585041666665,
            "pitch": 59,
            "velocity": 64
        },
        {
            "start": 17.357084999999998,
            "end": 17.558870041666665,
            "pitch": 58,
            "velocity": 64
        },
        {
            "start": 17.571369999999998,
            "end": 19.198150291666664,
            "pitch": 56,
            "velocity": 64
        },
        {
            "start": 19.714219999999997,
            "end": 20.119575791666666,
            "pitch": 61,
            "velocity": 64
        },
        {
            "start": 20.142789999999998,
            "end": 20.548145791666666,
            "pitch": 61,
            "velocity": 64
        },
        {
            "start": 20.57136,
            "end": 20.773145041666666,
            "pitch": 59,
            "velocity": 64
        },
        {
            "start": 20.785645,
            "end": 20.987430041666666,
            "pitch": 58,
            "velocity": 64
        },
        {
            "start": 20.99993,
            "end": 22.626710291666665,
            "pitch": 56,
            "velocity": 64
        },
        {
            "start": 23.14278,
            "end": 23.548135791666663,
            "pitch": 56,
            "velocity": 64
        },
        {
            "start": 23.57135,
            "end": 23.976705791666664,
            "pitch": 54,
            "velocity": 64
        },
        {
            "start": 23.999919999999996,
            "end": 24.405275791666664,
            "pitch": 56,
            "velocity": 64
        },
        {
            "start": 24.428489999999996,
            "end": 24.833845791666665,
            "pitch": 56,
            "velocity": 64
        },
        {
            "start": 24.857059999999997,
            "end": 25.262415791666665,
            "pitch": 56,
            "velocity": 64
        },
        {
            "start": 25.285629999999998,
            "end": 25.487415041666665,
            "pitch": 58,
            "velocity": 64
        },
        {
            "start": 25.499914999999998,
            "end": 26.108841541666663,
            "pitch": 59,
            "velocity": 64
        },
        {
            "start": 26.571339999999996,
            "end": 26.773125041666663,
            "pitch": 56,
            "velocity": 64
        },
        {
            "start": 26.785624999999996,
            "end": 27.394551541666665,
            "pitch": 54,
            "velocity": 64
        },
        {
            "start": 27.428479999999997,
            "end": 27.833835791666665,
            "pitch": 56,
            "velocity": 64
        },
        {
            "start": 27.857049999999997,
            "end": 28.058835041666665,
            "pitch": 54,
            "velocity": 64
        },
        {
            "start": 28.071334999999998,
            "end": 28.680261541666663,
            "pitch": 56,
            "velocity": 64
        },
        {
            "start": 28.71419,
            "end": 28.915975041666663,
            "pitch": 58,
            "velocity": 64
        },
        {
            "start": 28.928475,
            "end": 29.740972291666665,
            "pitch": 59,
            "velocity": 64
        },
        {
            "start": 29.785614999999996,
            "end": 29.987400041666664,
            "pitch": 53,
            "velocity": 96
        },
        {
            "start": 29.999899999999997,
            "end": 30.405255791666665,
            "pitch": 61,
            "velocity": 96
        },
        {
            "start": 29.999899999999997,
            "end": 30.405255791666665,
            "pitch": 73,
            "velocity": 96
        },
        {
            "start": 30.428469999999997,
            "end": 30.833825791666662,
            "pitch": 60,
            "velocity": 96
        },
        {
            "start": 30.428469999999997,
            "end": 30.833825791666662,
            "pitch": 72,
            "velocity": 96
        },
        {
            "start": 30.857039999999998,
            "end": 31.669537291666664,
            "pitch": 58,
            "velocity": 96
        },
        {
            "start": 30.857039999999998,
            "end": 31.669537291666664,
            "pitch": 61,
            "velocity": 96
        },
        {
            "start": 30.857039999999998,
            "end": 31.669537291666664,
            "pitch": 65,
            "velocity": 96
        },
        {
            "start": 30.857039999999998,
            "end": 31.669537291666664,
            "pitch": 70,
            "velocity": 96
        },
        {
            "start": 31.714179999999995,
            "end": 31.915965041666663,
            "pitch": 70,
            "velocity": 96
        },
        {
            "start": 31.928464999999996,
            "end": 32.13025004166666,
            "pitch": 70,
            "velocity": 96
        },
        {
            "start": 31.928464999999996,
            "end": 32.526677291666665,
            "pitch": 58,
            "velocity": 96
        },
        {
            "start": 32.14275,
            "end": 32.548105791666664,
            "pitch": 60,
            "velocity": 96
        },
        {
            "start": 32.14275,
            "end": 32.548105791666664,
            "pitch": 72,
            "velocity": 96
        },
        {
            "start": 32.57132,
            "end": 32.976675791666665,
            "pitch": 61,
            "velocity": 96
        },
        {
            "start": 32.57132,
            "end": 32.976675791666665,
            "pitch": 73,
            "velocity": 96
        },
        {
            "start": 32.99988999999999,
            "end": 33.405245791666665,
            "pitch": 60,
            "velocity": 96
        },
        {
            "start": 32.99988999999999,
            "end": 33.405245791666665,
            "pitch": 72,
            "velocity": 96
        },
        {
            "start": 33.428459999999994,
            "end": 33.833815791666666,
            "pitch": 58,
            "velocity": 96
        },
        {
            "start": 33.428459999999994,
            "end": 33.833815791666666,
            "pitch": 70,
            "velocity": 96
        },
        {
            "start": 33.857029999999995,
            "end": 34.05881504166666,
            "pitch": 56,
            "velocity": 96
        },
        {
            "start": 33.857029999999995,
            "end": 34.05881504166666,
            "pitch": 68,
            "velocity": 96
        },
        {
            "start": 34.071315,
            "end": 35.08738304166666,
            "pitch": 56,
            "velocity": 96
        },
        {
            "start": 34.071315,
            "end": 35.08738304166666,
            "pitch": 61,
            "velocity": 96
        },
        {
            "start": 34.071315,
            "end": 35.08738304166666,
            "pitch": 65,
            "velocity": 96
        },
        {
            "start": 34.071315,
            "end": 35.08738304166666,
            "pitch": 68,
            "velocity": 96
        },
        {
            "start": 35.142739999999996,
            "end": 35.344525041666664,
            "pitch": 68,
            "velocity": 96
        },
        {
            "start": 35.35702499999999,
            "end": 35.55881004166666,
            "pitch": 68,
            "velocity": 96
        },
        {
            "start": 35.35702499999999,
            "end": 35.95523729166666,
            "pitch": 56,
            "velocity": 96
        },
        {
            "start": 35.57131,
            "end": 35.97666579166666,
            "pitch": 60,
            "velocity": 96
        },
        {
            "start": 35.57131,
            "end": 35.97666579166666,
            "pitch": 72,
            "velocity": 96
        },
        {
            "start": 35.99988,
            "end": 36.40523579166666,
            "pitch": 73,
            "velocity": 96
        },
        {
            "start": 36.42845,
            "end": 36.630235041666666,
            "pitch": 60,
            "velocity": 96
        },
        {
            "start": 36.42845,
            "end": 36.630235041666666,
            "pitch": 72,
            "velocity": 96
        },
        {
            "start": 36.642734999999995,
            "end": 37.251661541666664,
            "pitch": 58,
            "velocity": 96
        },
        {
            "start": 36.642734999999995,
            "end": 37.251661541666664,
            "pitch": 70,
            "velocity": 96
        },
        {
            "start": 37.28559,
            "end": 37.48737504166666,
            "pitch": 56,
            "velocity": 96
        },
        {
            "start": 37.28559,
            "end": 37.48737504166666,
            "pitch": 68,
            "velocity": 96
        },
        {
            "start": 37.499874999999996,
            "end": 38.108801541666665,
            "pitch": 56,
            "velocity": 96
        },
        {
            "start": 37.499874999999996,
            "end": 38.108801541666665,
            "pitch": 68,
            "velocity": 96
        },
        {
            "start": 38.14272999999999,
            "end": 38.34451504166666,
            "pitch": 60,
            "velocity": 96
        },
        {
            "start": 38.14272999999999,
            "end": 38.34451504166666,
            "pitch": 63,
            "velocity": 96
        },
        {
            "start": 38.357015,
            "end": 38.965941541666666,
            "pitch": 60,
            "velocity": 96
        },
        {
            "start": 38.357015,
            "end": 38.965941541666666,
            "pitch": 63,
            "velocity": 96
        },
        {
            "start": 38.999869999999994,
            "end": 39.20165504166666,
            "pitch": 56,
            "velocity": 96
        },
        {
            "start": 38.999869999999994,
            "end": 39.20165504166666,
            "pitch": 68,
            "velocity": 96
        },
        {
            "start": 39.214155,
            "end": 39.82308154166666,
            "pitch": 58,
            "velocity": 96
        },
        {
            "start": 39.214155,
            "end": 39.82308154166666,
            "pitch": 61,
            "velocity": 96
        },
        {
            "start": 39.214155,
            "end": 39.82308154166666,
            "pitch": 66,
            "velocity": 96
        },
        {
            "start": 39.214155,
            "end": 39.82308154166666,
            "pitch": 70,
            "velocity": 96
        },
        {
            "start": 39.857009999999995,
            "end": 40.26236579166666,
            "pitch": 58,
            "velocity": 96
        },
        {
            "start": 39.857009999999995,
            "end": 40.26236579166666,
            "pitch": 61,
            "velocity": 96
        },
        {
            "start": 40.285579999999996,
            "end": 40.69093579166666,
            "pitch": 61,
            "velocity": 96
        },
        {
            "start": 40.71415,
            "end": 41.11950579166666,
            "pitch": 60,
            "velocity": 96
        },
        {
            "start": 41.14272,
            "end": 41.75164654166666,
            "pitch": 61,
            "velocity": 96
        },
        {
            "start": 41.785574999999994,
            "end": 41.98736004166666,
            "pitch": 63,
            "velocity": 96
        },
        {
            "start": 41.99986,
            "end": 42.40521579166666,
            "pitch": 53,
            "velocity": 96
        },
        {
            "start": 41.99986,
            "end": 42.40521579166666,
            "pitch": 56,
            "velocity": 96
        },
        {
            "start": 41.99986,
            "end": 42.40521579166666,
            "pitch": 61,
            "velocity": 96
        },
        {
            "start": 41.99986,
            "end": 42.40521579166666,
            "pitch": 65,
            "velocity": 96
        },
        {
            "start": 42.42843,
            "end": 43.03735654166666,
            "pitch": 53,
            "velocity": 96
        },
        {
            "start": 42.42843,
            "end": 43.03735654166666,
            "pitch": 56,
            "velocity": 96
        },
        {
            "start": 42.42843,
            "end": 43.03735654166666,
            "pitch": 61,
            "velocity": 96
        },
        {
            "start": 42.42843,
            "end": 43.03735654166666,
            "pitch": 65,
            "velocity": 96
        },
        {
            "start": 43.071284999999996,
            "end": 43.273070041666664,
            "pitch": 53,
            "velocity": 96
        },
        {
            "start": 43.071284999999996,
            "end": 43.273070041666664,
            "pitch": 56,
            "velocity": 96
        },
        {
            "start": 43.071284999999996,
            "end": 43.273070041666664,
            "pitch": 61,
            "velocity": 96
        },
        {
            "start": 43.071284999999996,
            "end": 43.273070041666664,
            "pitch": 65,
            "velocity": 96
        },
        {
            "start": 43.28556999999999,
            "end": 43.690925791666665,
            "pitch": 53,
            "velocity": 96
        },
        {
            "start": 43.28556999999999,
            "end": 43.690925791666665,
            "pitch": 56,
            "velocity": 96
        },
        {
            "start": 43.28556999999999,
            "end": 43.690925791666665,
            "pitch": 61,
            "velocity": 96
        },
        {
            "start": 43.28556999999999,
            "end": 43.690925791666665,
            "pitch": 65,
            "velocity": 96
        },
        {
            "start": 43.71413999999999,
            "end": 44.119495791666665,
            "pitch": 61,
            "velocity": 96
        },
        {
            "start": 43.71413999999999,
            "end": 44.119495791666665,
            "pitch": 73,
            "velocity": 96
        },
        {
            "start": 44.142709999999994,
            "end": 44.548065791666666,
            "pitch": 60,
            "velocity": 96
        },
        {
            "start": 44.142709999999994,
            "end": 44.548065791666666,
            "pitch": 72,
            "velocity": 96
        },
        {
            "start": 44.571279999999994,
            "end": 45.38377729166666,
            "pitch": 58,
            "velocity": 96
        },
        {
            "start": 44.571279999999994,
            "end": 45.38377729166666,
            "pitch": 61,
            "velocity": 96
        },
        {
            "start": 44.571279999999994,
            "end": 45.38377729166666,
            "pitch": 65,
            "velocity": 96
        },
        {
            "start": 44.571279999999994,
            "end": 45.38377729166666,
            "pitch": 70,
            "velocity": 96
        },
        {
            "start": 45.428419999999996,
            "end": 45.63020504166666,
            "pitch": 70,
            "velocity": 96
        },
        {
            "start": 45.64270499999999,
            "end": 45.84449004166666,
            "pitch": 70,
            "velocity": 96
        },
        {
            "start": 45.64270499999999,
            "end": 46.24091729166666,
            "pitch": 58,
            "velocity": 96
        },
        {
            "start": 45.856989999999996,
            "end": 46.26234579166666,
            "pitch": 60,
            "velocity": 96
        },
        {
            "start": 45.856989999999996,
            "end": 46.26234579166666,
            "pitch": 72,
            "velocity": 96
        },
        {
            "start": 46.28556,
            "end": 46.69091579166666,
            "pitch": 61,
            "velocity": 96
        },
        {
            "start": 46.28556,
            "end": 46.69091579166666,
            "pitch": 73,
            "velocity": 96
        },
        {
            "start": 46.71413,
            "end": 47.11948579166666,
            "pitch": 60,
            "velocity": 96
        },
        {
            "start": 46.71413,
            "end": 47.11948579166666,
            "pitch": 72,
            "velocity": 96
        },
        {
            "start": 47.1427,
            "end": 47.54805579166666,
            "pitch": 58,
            "velocity": 96
        },
        {
            "start": 47.1427,
            "end": 47.54805579166666,
            "pitch": 70,
            "velocity": 96
        },
        {
            "start": 47.57127,
            "end": 47.77305504166666,
            "pitch": 56,
            "velocity": 96
        },
        {
            "start": 47.57127,
            "end": 47.77305504166666,
            "pitch": 68,
            "velocity": 96
        },
        {
            "start": 47.785554999999995,
            "end": 48.80162304166666,
            "pitch": 56,
            "velocity": 96
        },
        {
            "start": 47.785554999999995,
            "end": 48.80162304166666,
            "pitch": 61,
            "velocity": 96
        },
        {
            "start": 47.785554999999995,
            "end": 48.80162304166666,
            "pitch": 65,
            "velocity": 96
        },
        {
            "start": 47.785554999999995,
            "end": 48.80162304166666,
            "pitch": 68,
            "velocity": 96
        },
        {
            "start": 48.85697999999999,
            "end": 49.05876504166666,
            "pitch": 68,
            "velocity": 96
        },
        {
            "start": 49.071265,
            "end": 49.273050041666664,
            "pitch": 68,
            "velocity": 96
        },
        {
            "start": 49.071265,
            "end": 49.66947729166666,
            "pitch": 56,
            "velocity": 96
        },
        {
            "start": 49.28554999999999,
            "end": 49.69090579166666,
            "pitch": 60,
            "velocity": 96
        },
        {
            "start": 49.28554999999999,
            "end": 49.69090579166666,
            "pitch": 72,
            "velocity": 96
        },
        {
            "start": 49.714119999999994,
            "end": 50.11947579166666,
            "pitch": 73,
            "velocity": 96
        },
        {
            "start": 50.142689999999995,
            "end": 50.34447504166666,
            "pitch": 60,
            "velocity": 96
        },
        {
            "start": 50.142689999999995,
            "end": 50.34447504166666,
            "pitch": 72,
            "velocity": 96
        },
        {
            "start": 50.356975,
            "end": 50.96590154166666,
            "pitch": 58,
            "velocity": 96
        },
        {
            "start": 50.356975,
            "end": 50.96590154166666,
            "pitch": 70,
            "velocity": 96
        },
        {
            "start": 50.999829999999996,
            "end": 51.20161504166666,
            "pitch": 63,
            "velocity": 96
        },
        {
            "start": 50.999829999999996,
            "end": 51.20161504166666,
            "pitch": 75,
            "velocity": 96
        },
        {
            "start": 51.21411499999999,
            "end": 51.82304154166666,
            "pitch": 63,
            "velocity": 96
        },
        {
            "start": 51.21411499999999,
            "end": 51.82304154166666,
            "pitch": 75,
            "velocity": 96
        },
        {
            "start": 51.85697,
            "end": 52.058755041666664,
            "pitch": 60,
            "velocity": 96
        },
        {
            "start": 51.85697,
            "end": 52.058755041666664,
            "pitch": 63,
            "velocity": 96
        },
        {
            "start": 51.85697,
            "end": 52.058755041666664,
            "pitch": 68,
            "velocity": 96
        },
        {
            "start": 51.85697,
            "end": 52.058755041666664,
            "pitch": 72,
            "velocity": 96
        },
        {
            "start": 52.071254999999994,
            "end": 52.68018154166666,
            "pitch": 60,
            "velocity": 96
        },
        {
            "start": 52.071254999999994,
            "end": 52.68018154166666,
            "pitch": 63,
            "velocity": 96
        },
        {
            "start": 52.071254999999994,
            "end": 52.68018154166666,
            "pitch": 68,
            "velocity": 96
        },
        {
            "start": 52.071254999999994,
            "end": 52.68018154166666,
            "pitch": 72,
            "velocity": 96
        },
        {
            "start": 52.71411,
            "end": 52.91589504166666,
            "pitch": 61,
            "velocity": 96
        },
        {
            "start": 52.71411,
            "end": 52.91589504166666,
            "pitch": 66,
            "velocity": 96
        },
        {
            "start": 52.71411,
            "end": 52.91589504166666,
            "pitch": 70,
            "velocity": 96
        },
        {
            "start": 52.71411,
            "end": 52.91589504166666,
            "pitch": 73,
            "velocity": 96
        },
        {
            "start": 52.928394999999995,
            "end": 53.537321541666664,
            "pitch": 61,
            "velocity": 96
        },
        {
            "start": 52.928394999999995,
            "end": 53.537321541666664,
            "pitch": 66,
            "velocity": 96
        },
        {
            "start": 52.928394999999995,
            "end": 53.537321541666664,
            "pitch": 70,
            "velocity": 96
        },
        {
            "start": 52.928394999999995,
            "end": 53.537321541666664,
            "pitch": 73,
            "velocity": 96
        },
        {
            "start": 53.57124999999999,
            "end": 53.77303504166666,
            "pitch": 60,
            "velocity": 96
        },
        {
            "start": 53.57124999999999,
            "end": 53.77303504166666,
            "pitch": 72,
            "velocity": 96
        },
        {
            "start": 53.785534999999996,
            "end": 54.39446154166666,
            "pitch": 56,
            "velocity": 96
        },
        {
            "start": 53.785534999999996,
            "end": 54.39446154166666,
            "pitch": 68,
            "velocity": 96
        },
        {
            "start": 54.42838999999999,
            "end": 54.83374579166666,
            "pitch": 61,
            "velocity": 96
        },
        {
            "start": 54.856959999999994,
            "end": 55.05874504166666,
            "pitch": 61,
            "velocity": 96
        },
        {
            "start": 55.071245,
            "end": 55.27303004166666,
            "pitch": 63,
            "velocity": 96
        },
        {
            "start": 55.285529999999994,
            "end": 55.69088579166666,
            "pitch": 65,
            "velocity": 96
        },
        {
            "start": 55.714099999999995,
            "end": 56.11945579166666,
            "pitch": 53,
            "velocity": 96
        },
        {
            "start": 55.714099999999995,
            "end": 56.11945579166666,
            "pitch": 56,
            "velocity": 96
        },
        {
            "start": 55.714099999999995,
            "end": 56.11945579166666,
            "pitch": 61,
            "velocity": 96
        },
        {
            "start": 55.714099999999995,
            "end": 56.11945579166666,
            "pitch": 65,
            "velocity": 96
        },
        {
            "start": 56.142669999999995,
            "end": 57.36230879166666,
            "pitch": 53,
            "velocity": 96
        },
        {
            "start": 56.142669999999995,
            "end": 57.36230879166666,
            "pitch": 56,
            "velocity": 96
        },
        {
            "start": 56.142669999999995,
            "end": 57.36230879166666,
            "pitch": 61,
            "velocity": 96
        },
        {
            "start": 56.142669999999995,
            "end": 57.36230879166666,
            "pitch": 65,
            "velocity": 96
        },
        {
            "start": 57.42838,
            "end": 57.83373579166666,
            "pitch": 61,
            "velocity": 96
        },
        {
            "start": 57.42838,
            "end": 57.83373579166666,
            "pitch": 73,
            "velocity": 96
        },
        {
            "start": 57.85695,
            "end": 58.26230579166666,
            "pitch": 56,
            "velocity": 96
        },
        {
            "start": 57.85695,
            "end": 58.26230579166666,
            "pitch": 68,
            "velocity": 96
        }
    ]'),

(9111, '[{"start": 7.171200000000001, "end": 8.914200000000001, "pitch": 61, "velocity": 76}, {"start": 8.964, "end": 9.549150000000001, "pitch": 59, "velocity": 70}, {"start": 9.5616, "end": 11.198775000000001, "pitch": 62, "velocity": 72}, {"start": 11.3544, "end": 11.478900000000001, "pitch": 61, "velocity": 72}, {"start": 11.503800000000002, "end": 11.609625000000001, "pitch": 59, "velocity": 76}, {"start": 11.802600000000002, "end": 11.914650000000002, "pitch": 57, "velocity": 66}, {"start": 11.952000000000002, "end": 12.362850000000002, "pitch": 59, "velocity": 76}, {"start": 12.400200000000002, "end": 12.711450000000001, "pitch": 61, "velocity": 62}, {"start": 12.848400000000002, "end": 16.402875, "pitch": 61, "velocity": 60}, {"start": 16.7328, "end": 18.506925000000003, "pitch": 61, "velocity": 66}, {"start": 18.5256, "end": 19.073400000000003, "pitch": 59, "velocity": 72}, {"start": 19.1232, "end": 20.87865, "pitch": 62, "velocity": 74}, {"start": 20.916, "end": 21.052950000000003, "pitch": 61, "velocity": 72}, {"start": 21.0654, "end": 21.165000000000003, "pitch": 59, "velocity": 68}, {"start": 21.3642, "end": 21.47625, "pitch": 57, "velocity": 52}, {"start": 21.5136, "end": 21.930675, "pitch": 59, "velocity": 76}, {"start": 21.9618, "end": 22.2606, "pitch": 61, "velocity": 60}, {"start": 22.41, "end": 23.854200000000002, "pitch": 61, "velocity": 64}, {"start": 23.904000000000003, "end": 26.026725000000003, "pitch": 57, "velocity": 64}, {"start": 26.294400000000003, "end": 26.742600000000003, "pitch": 64, "velocity": 78}, {"start": 26.892000000000003, "end": 27.078750000000003, "pitch": 64, "velocity": 82}, {"start": 27.190800000000003, "end": 28.429575000000003, "pitch": 64, "velocity": 78}, {"start": 28.684800000000003, "end": 29.0832, "pitch": 65, "velocity": 86}, {"start": 29.282400000000003, "end": 29.562525, "pitch": 65, "velocity": 70}, {"start": 29.581200000000003, "end": 30.98805, "pitch": 65, "velocity": 74}, {"start": 31.075200000000002, "end": 31.498500000000003, "pitch": 69, "velocity": 82}, {"start": 31.523400000000002, "end": 31.896900000000002, "pitch": 71, "velocity": 78}, {"start": 31.971600000000002, "end": 32.220600000000005, "pitch": 68, "velocity": 82}, {"start": 32.2704, "end": 32.681250000000006, "pitch": 69, "velocity": 90}, {"start": 32.7186, "end": 33.1419, "pitch": 71, "velocity": 76}, {"start": 33.1668, "end": 33.4407, "pitch": 68, "velocity": 66}, {"start": 33.4656, "end": 33.60255, "pitch": 69, "velocity": 74}, {"start": 33.615, "end": 33.75195, "pitch": 68, "velocity": 82}, {"start": 33.7644, "end": 34.604775000000004, "pitch": 66, "velocity": 70}, {"start": 34.6608, "end": 34.928475000000006, "pitch": 73, "velocity": 90}, {"start": 34.9596, "end": 35.090325, "pitch": 71, "velocity": 66}, {"start": 35.109, "end": 35.252175, "pitch": 73, "velocity": 72}, {"start": 35.2584, "end": 35.389125, "pitch": 71, "velocity": 64}, {"start": 35.4078, "end": 35.700375, "pitch": 69, "velocity": 86}, {"start": 35.856, "end": 36.223275, "pitch": 64, "velocity": 82}, {"start": 36.3042, "end": 36.509625, "pitch": 64, "velocity": 102}, {"start": 36.7524, "end": 38.003625, "pitch": 64, "velocity": 90}, {"start": 38.2464, "end": 38.582550000000005, "pitch": 64, "velocity": 90}, {"start": 38.6946, "end": 38.949825000000004, "pitch": 64, "velocity": 82}, {"start": 39.1428, "end": 39.858675000000005, "pitch": 64, "velocity": 82}, {"start": 40.0392, "end": 40.169925000000006, "pitch": 64, "velocity": 82}, {"start": 40.1886, "end": 40.306875000000005, "pitch": 62, "velocity": 82}, {"start": 40.4874, "end": 40.555875, "pitch": 62, "velocity": 94}, {"start": 40.6368, "end": 41.053875000000005, "pitch": 62, "velocity": 94}, {"start": 41.085, "end": 41.253075, "pitch": 61, "velocity": 86}, {"start": 41.5332, "end": 42.971175, "pitch": 61, "velocity": 86}, {"start": 43.0272, "end": 45.069, "pitch": 62, "velocity": 66}, {"start": 76.4928, "end": 78.59685, "pitch": 66, "velocity": 64}, {"start": 92.03040000000001, "end": 92.29807500000001, "pitch": 62, "velocity": 90}, {"start": 92.47860000000001, "end": 92.69025, "pitch": 62, "velocity": 90}, {"start": 92.92680000000001, "end": 93.07620000000001, "pitch": 62, "velocity": 76}, {"start": 93.22560000000001, "end": 93.49950000000001, "pitch": 62, "velocity": 90}, {"start": 93.67380000000001, "end": 93.841875, "pitch": 61, "velocity": 90}, {"start": 94.12200000000001, "end": 95.385675, "pitch": 61, "velocity": 72}, {"start": 95.61600000000001, "end": 95.9397, "pitch": 62, "velocity": 78}, {"start": 96.06420000000001, "end": 96.20115000000001, "pitch": 62, "velocity": 94}, {"start": 96.51240000000001, "end": 97.05397500000001, "pitch": 62, "velocity": 90}, {"start": 97.11000000000001, "end": 97.55197500000001, "pitch": 62, "velocity": 90}, {"start": 97.70760000000001, "end": 97.81342500000001, "pitch": 62, "velocity": 82}, {"start": 98.00640000000001, "end": 98.28030000000001, "pitch": 62, "velocity": 82}, {"start": 98.45460000000001, "end": 98.660025, "pitch": 61, "velocity": 72}, {"start": 98.90280000000001, "end": 100.35322500000001, "pitch": 61, "velocity": 74}, {"start": 100.39680000000001, "end": 102.57555, "pitch": 62, "velocity": 74}, {"start": 102.78720000000001, "end": 103.129575, "pitch": 62, "velocity": 82}, {"start": 103.23540000000001, "end": 103.40970000000002, "pitch": 61, "velocity": 68}, {"start": 103.68360000000001, "end": 104.94105, "pitch": 61, "velocity": 76}, {"start": 105.17760000000001, "end": 105.5262, "pitch": 62, "velocity": 90}, {"start": 105.62580000000001, "end": 105.89970000000001, "pitch": 62, "velocity": 72}, {"start": 106.07400000000001, "end": 106.572, "pitch": 62, "velocity": 78}, {"start": 106.67160000000001, "end": 107.200725, "pitch": 62, "velocity": 76}, {"start": 107.26920000000001, "end": 107.54310000000001, "pitch": 59, "velocity": 66}, {"start": 107.56800000000001, "end": 107.910375, "pitch": 64, "velocity": 82}, {"start": 107.56800000000001, "end": 107.935275, "pitch": 68, "velocity": 78}, {"start": 108.01620000000001, "end": 108.26520000000001, "pitch": 69, "velocity": 82}, {"start": 108.01620000000001, "end": 108.26520000000001, "pitch": 64, "velocity": 78}, {"start": 108.46440000000001, "end": 109.21762500000001, "pitch": 64, "velocity": 76}, {"start": 108.46440000000001, "end": 109.35457500000001, "pitch": 69, "velocity": 78}, {"start": 109.36080000000001, "end": 112.32390000000001, "pitch": 64, "velocity": 86}, {"start": 112.34880000000001, "end": 112.84057500000002, "pitch": 68, "velocity": 86}, {"start": 112.94640000000001, "end": 113.08957500000001, "pitch": 68, "velocity": 74}, {"start": 113.24520000000001, "end": 114.48397500000002, "pitch": 68, "velocity": 82}, {"start": 114.73920000000001, "end": 115.16250000000001, "pitch": 68, "velocity": 90}, {"start": 115.33680000000001, "end": 115.46752500000001, "pitch": 68, "velocity": 70}, {"start": 115.63560000000001, "end": 116.25810000000001, "pitch": 68, "velocity": 98}, {"start": 116.23320000000001, "end": 116.98642500000001, "pitch": 69, "velocity": 82}, {"start": 117.12960000000001, "end": 117.57157500000001, "pitch": 69, "velocity": 76}, {"start": 117.57780000000001, "end": 118.01355000000001, "pitch": 71, "velocity": 86}, {"start": 118.02600000000001, "end": 118.31857500000001, "pitch": 68, "velocity": 74}, {"start": 118.32480000000001, "end": 118.716975, "pitch": 69, "velocity": 82}, {"start": 118.77300000000001, "end": 119.18385, "pitch": 71, "velocity": 82}, {"start": 119.22120000000001, "end": 119.4702, "pitch": 68, "velocity": 72}, {"start": 119.52000000000001, "end": 119.66317500000001, "pitch": 69, "velocity": 72}, {"start": 119.66940000000001, "end": 119.80635000000001, "pitch": 68, "velocity": 86}, {"start": 119.81880000000001, "end": 120.60937500000001, "pitch": 66, "velocity": 72}, {"start": 120.71520000000001, "end": 120.97665, "pitch": 73, "velocity": 90}, {"start": 121.01400000000001, "end": 121.16340000000001, "pitch": 71, "velocity": 68}, {"start": 121.16340000000001, "end": 121.32525000000001, "pitch": 73, "velocity": 86}, {"start": 121.31280000000001, "end": 121.42485, "pitch": 71, "velocity": 68}, {"start": 121.46220000000001, "end": 121.89795000000001, "pitch": 69, "velocity": 72}, {"start": 121.91040000000001, "end": 122.26522500000002, "pitch": 64, "velocity": 78}, {"start": 122.35860000000001, "end": 122.476875, "pitch": 64, "velocity": 74}, {"start": 122.80680000000001, "end": 124.06425000000002, "pitch": 64, "velocity": 64}, {"start": 124.30080000000001, "end": 124.62450000000001, "pitch": 64, "velocity": 78}, {"start": 124.74900000000001, "end": 124.86105, "pitch": 64, "velocity": 76}, {"start": 125.19720000000001, "end": 125.95665000000001, "pitch": 64, "velocity": 76}, {"start": 126.09360000000001, "end": 126.22432500000001, "pitch": 64, "velocity": 76}, {"start": 126.24300000000001, "end": 126.37372500000001, "pitch": 62, "velocity": 86}, {"start": 126.54180000000001, "end": 126.59782500000001, "pitch": 62, "velocity": 62}, {"start": 126.69120000000001, "end": 127.095825, "pitch": 62, "velocity": 76}, {"start": 127.13940000000001, "end": 127.33237500000001, "pitch": 61, "velocity": 72}, {"start": 127.58760000000001, "end": 129.01935, "pitch": 61, "velocity": 72}, {"start": 129.0816, "end": 131.40975, "pitch": 62, "velocity": 62}, {"start": 148.2048, "end": 150.28395, "pitch": 66, "velocity": 76}, {"start": 163.7424, "end": 164.0412, "pitch": 62, "velocity": 74}, {"start": 164.19060000000002, "end": 164.42715, "pitch": 62, "velocity": 82}, {"start": 164.6388, "end": 164.732175, "pitch": 62, "velocity": 78}, {"start": 164.9376, "end": 165.24885, "pitch": 62, "velocity": 78}, {"start": 165.38580000000002, "end": 165.541425, "pitch": 61, "velocity": 86}, {"start": 165.834, "end": 167.035425, "pitch": 61, "velocity": 74}, {"start": 167.328, "end": 167.608125, "pitch": 62, "velocity": 78}, {"start": 167.77620000000002, "end": 167.88825, "pitch": 62, "velocity": 78}, {"start": 168.2244, "end": 168.74107500000002, "pitch": 62, "velocity": 74}, {"start": 168.822, "end": 169.26397500000002, "pitch": 62, "velocity": 64}, {"start": 169.4196, "end": 169.525425, "pitch": 62, "velocity": 66}, {"start": 169.7184, "end": 170.0172, "pitch": 62, "velocity": 74}, {"start": 170.16660000000002, "end": 170.32845, "pitch": 61, "velocity": 70}, {"start": 170.6148, "end": 172.07145000000003, "pitch": 61, "velocity": 68}, {"start": 172.1088, "end": 174.281325, "pitch": 62, "velocity": 64}, {"start": 174.4992, "end": 174.81045, "pitch": 62, "velocity": 74}, {"start": 174.94740000000002, "end": 175.1217, "pitch": 61, "velocity": 74}, {"start": 175.3956, "end": 176.67795, "pitch": 61, "velocity": 76}, {"start": 176.8896, "end": 177.231975, "pitch": 62, "velocity": 74}, {"start": 177.33780000000002, "end": 177.52455, "pitch": 62, "velocity": 74}, {"start": 177.786, "end": 178.28400000000002, "pitch": 62, "velocity": 74}, {"start": 178.3836, "end": 178.90027500000002, "pitch": 62, "velocity": 78}, {"start": 178.9812, "end": 179.25510000000003, "pitch": 59, "velocity": 72}, {"start": 179.28, "end": 179.647275, "pitch": 64, "velocity": 78}, {"start": 179.28, "end": 179.659725, "pitch": 68, "velocity": 68}, {"start": 179.72820000000002, "end": 179.908725, "pitch": 69, "velocity": 76}, {"start": 179.72820000000002, "end": 179.93985, "pitch": 64, "velocity": 82}, {"start": 180.1764, "end": 180.98565000000002, "pitch": 64, "velocity": 76}, {"start": 180.1764, "end": 181.02922500000003, "pitch": 69, "velocity": 76}, {"start": 181.0728, "end": 181.61437500000002, "pitch": 64, "velocity": 78}, {"start": 181.0728, "end": 181.64550000000003, "pitch": 68, "velocity": 90}, {"start": 184.04835000000003, "end": 184.465425, "pitch": 68, "velocity": 72}, {"start": 184.65840000000003, "end": 184.751775, "pitch": 68, "velocity": 82}, {"start": 184.95720000000003, "end": 186.183525, "pitch": 68, "velocity": 90}, {"start": 186.45120000000003, "end": 186.8496, "pitch": 68, "velocity": 82}, {"start": 187.04880000000003, "end": 187.1733, "pitch": 68, "velocity": 74}, {"start": 187.34760000000003, "end": 187.93275000000003, "pitch": 68, "velocity": 94}, {"start": 187.94520000000003, "end": 188.62995, "pitch": 69, "velocity": 72}, {"start": 188.84160000000003, "end": 189.2649, "pitch": 69, "velocity": 76}, {"start": 189.2898, "end": 189.67575000000002, "pitch": 71, "velocity": 72}, {"start": 189.73800000000003, "end": 190.03057500000003, "pitch": 68, "velocity": 78}, {"start": 190.03680000000003, "end": 190.466325, "pitch": 69, "velocity": 76}, {"start": 190.485, "end": 190.92697500000003, "pitch": 71, "velocity": 76}, {"start": 190.93320000000003, "end": 191.20710000000003, "pitch": 68, "velocity": 64}, {"start": 191.23200000000003, "end": 191.375175, "pitch": 69, "velocity": 72}, {"start": 191.3814, "end": 191.52457500000003, "pitch": 68, "velocity": 66}, {"start": 191.53080000000003, "end": 192.39607500000002, "pitch": 66, "velocity": 56}, {"start": 192.42720000000003, "end": 192.70110000000003, "pitch": 73, "velocity": 78}, {"start": 192.72600000000003, "end": 192.8754, "pitch": 71, "velocity": 68}, {"start": 192.8754, "end": 193.01857500000003, "pitch": 73, "velocity": 74}, {"start": 193.02480000000003, "end": 193.143075, "pitch": 71, "velocity": 66}, {"start": 193.1742, "end": 193.4481, "pitch": 69, "velocity": 74}, {"start": 193.62240000000003, "end": 194.002125, "pitch": 64, "velocity": 76}, {"start": 194.0706, "end": 194.20132500000003, "pitch": 64, "velocity": 78}, {"start": 194.51880000000003, "end": 195.82605, "pitch": 64, "velocity": 76}, {"start": 196.01280000000003, "end": 196.392525, "pitch": 64, "velocity": 78}, {"start": 196.461, "end": 196.56060000000002, "pitch": 64, "velocity": 86}, {"start": 196.90920000000003, "end": 197.6562, "pitch": 64, "velocity": 82}, {"start": 197.80560000000003, "end": 197.948775, "pitch": 64, "velocity": 78}, {"start": 197.955, "end": 198.07327500000002, "pitch": 62, "velocity": 74}, {"start": 198.2538, "end": 198.31605000000002, "pitch": 62, "velocity": 78}, {"start": 198.40320000000003, "end": 198.76425, "pitch": 62, "velocity": 70}, {"start": 198.8514, "end": 199.00702500000003, "pitch": 61, "velocity": 90}, {"start": 199.29960000000003, "end": 200.74380000000002, "pitch": 61, "velocity": 76}, {"start": 200.79360000000003, "end": 203.12175000000002, "pitch": 62, "velocity": 66}, {"start": 203.18400000000003, "end": 203.61975, "pitch": 61, "velocity": 50}, {"start": 207.36720000000003, "end": 207.4917, "pitch": 62, "velocity": 78}, {"start": 207.5166, "end": 207.65977500000002, "pitch": 62, "velocity": 76}, {"start": 207.8154, "end": 207.87765000000002, "pitch": 62, "velocity": 72}, {"start": 207.96480000000003, "end": 208.26360000000003, "pitch": 62, "velocity": 76}, {"start": 208.413, "end": 208.630875, "pitch": 61, "velocity": 86}, {"start": 208.86120000000003, "end": 210.32407500000002, "pitch": 61, "velocity": 74}, {"start": 210.35520000000002, "end": 212.72070000000002, "pitch": 62, "velocity": 72}, {"start": 212.74560000000002, "end": 215.10487500000002, "pitch": 61, "velocity": 64}, {"start": 215.13600000000002, "end": 217.14045000000002, "pitch": 62, "velocity": 66}]'),
(11194, '[{"start": 3.0656919999999994, "end": 3.4397794166666658, "pitch": 70, "velocity": 97}, {"start": 3.503647999999999, "end": 4.059304674999999, "pitch": 72, "velocity": 103}, {"start": 4.160581999999999, "end": 4.815691183333333, "pitch": 72, "velocity": 101}, {"start": 4.817515999999999, "end": 5.2536471833333325, "pitch": 77, "velocity": 103}, {"start": 5.255471999999999, "end": 5.910581183333332, "pitch": 75, "velocity": 99}, {"start": 5.912405999999999, "end": 6.568427591666665, "pitch": 73, "velocity": 108}, {"start": 6.569339999999999, "end": 7.005471183333332, "pitch": 72, "velocity": 96}, {"start": 7.007295999999998, "end": 7.5693395333333315, "pitch": 70, "velocity": 108}, {"start": 7.664229999999998, "end": 8.319339183333332, "pitch": 70, "velocity": 107}, {"start": 8.321163999999998, "end": 8.757295183333332, "pitch": 72, "velocity": 101}, {"start": 8.759119999999998, "end": 10.047440566666664, "pitch": 68, "velocity": 106}, {"start": 10.072987999999997, "end": 10.50911918333333, "pitch": 70, "velocity": 91}, {"start": 10.510943999999999, "end": 11.060213816666664, "pitch": 72, "velocity": 95}, {"start": 11.167877999999998, "end": 11.82298718333333, "pitch": 72, "velocity": 93}, {"start": 11.824811999999998, "end": 12.26094318333333, "pitch": 77, "velocity": 107}, {"start": 12.262767999999998, "end": 12.91787718333333, "pitch": 75, "velocity": 110}, {"start": 12.919701999999997, "end": 13.53922725833333, "pitch": 73, "velocity": 104}, {"start": 13.576635999999997, "end": 14.014591999999997, "pitch": 72, "velocity": 100}, {"start": 14.014591999999997, "end": 15.81386123333333, "pitch": 70, "velocity": 103}, {"start": 17.080283999999995, "end": 17.50272905833333, "pitch": 79, "velocity": 102}, {"start": 17.518239999999995, "end": 18.106743374999997, "pitch": 80, "velocity": 94}, {"start": 18.175173999999995, "end": 18.83028318333333, "pitch": 79, "velocity": 97}, {"start": 18.832107999999995, "end": 19.146888874999995, "pitch": 77, "velocity": 106}, {"start": 19.270063999999994, "end": 19.87042868333333, "pitch": 75, "velocity": 92}, {"start": 19.926997999999994, "end": 20.582107183333328, "pitch": 73, "velocity": 90}, {"start": 20.583931999999994, "end": 20.97900480833333, "pitch": 72, "velocity": 109}, {"start": 21.021887999999997, "end": 21.50272719166666, "pitch": 70, "velocity": 110}, {"start": 21.678821999999997, "end": 22.333931183333327, "pitch": 70, "velocity": 98}, {"start": 22.335755999999996, "end": 22.771887183333327, "pitch": 72, "velocity": 105}, {"start": 22.773711999999996, "end": 23.617689708333327, "pitch": 68, "velocity": 101}, {"start": 24.087579999999996, "end": 24.52371118333333, "pitch": 79, "velocity": 106}, {"start": 24.525535999999995, "end": 25.155097749999996, "pitch": 80, "velocity": 99}, {"start": 25.182469999999995, "end": 25.83757918333333, "pitch": 79, "velocity": 104}, {"start": 25.839403999999995, "end": 26.27553518333333, "pitch": 77, "velocity": 91}, {"start": 26.277359999999994, "end": 26.934293999999994, "pitch": 75, "velocity": 109}, {"start": 26.934293999999994, "end": 27.361301099999995, "pitch": 80, "velocity": 100}, {"start": 27.591227999999994, "end": 28.179731374999992, "pitch": 82, "velocity": 91}, {"start": 28.248161999999994, "end": 29.81294229166666, "pitch": 82, "velocity": 106}, {"start": 30.437941999999993, "end": 30.51367189166666, "pitch": 80, "velocity": 103}, {"start": 30.656919999999992, "end": 30.74633601666666, "pitch": 80, "velocity": 103}, {"start": 30.875897999999992, "end": 30.945241033333325, "pitch": 79, "velocity": 92}, {"start": 31.094875999999992, "end": 31.19250369166666, "pitch": 79, "velocity": 95}, {"start": 31.313853999999992, "end": 31.406919649999992, "pitch": 77, "velocity": 90}, {"start": 31.532831999999992, "end": 31.93702889166666, "pitch": 77, "velocity": 101}, {"start": 32.40874399999999, "end": 32.847612408333326, "pitch": 79, "velocity": 104}, {"start": 33.06567799999999, "end": 33.50180918333333, "pitch": 79, "velocity": 109}, {"start": 33.50363399999999, "end": 33.82388932499999, "pitch": 80, "velocity": 102}, {"start": 33.94158999999999, "end": 34.02096952499999, "pitch": 80, "velocity": 105}, {"start": 34.16056799999999, "end": 34.378633591666656, "pitch": 80, "velocity": 106}, {"start": 34.37954599999999, "end": 34.50728316666666, "pitch": 79, "velocity": 92}, {"start": 34.59852399999999, "end": 34.78830493333333, "pitch": 79, "velocity": 107}, {"start": 34.81750199999999, "end": 34.909655241666655, "pitch": 77, "velocity": 95}, {"start": 35.03647999999999, "end": 35.36403459166666, "pitch": 77, "velocity": 110}, {"start": 35.47443599999999, "end": 35.68885195833332, "pitch": 80, "velocity": 99}, {"start": 35.69341399999999, "end": 36.12954518333333, "pitch": 82, "velocity": 90}, {"start": 36.13136999999999, "end": 36.322063341666656, "pitch": 80, "velocity": 108}, {"start": 36.35034799999999, "end": 36.55928950833332, "pitch": 79, "velocity": 103}, {"start": 36.56932599999999, "end": 36.663304058333324, "pitch": 80, "velocity": 98}, {"start": 36.67881499999999, "end": 36.78647918333333, "pitch": 79, "velocity": 100}, {"start": 36.78830399999999, "end": 37.40417962499999, "pitch": 77, "velocity": 106}, {"start": 37.44523799999999, "end": 37.486296374999995, "pitch": 80, "velocity": 100}, {"start": 37.66421599999999, "end": 37.85034729999999, "pitch": 80, "velocity": 109}, {"start": 37.88319399999999, "end": 37.988120958333326, "pitch": 79, "velocity": 106}, {"start": 38.10217199999999, "end": 38.28191644166666, "pitch": 79, "velocity": 109}, {"start": 38.32114999999999, "end": 38.42333973333332, "pitch": 77, "velocity": 93}, {"start": 38.54012799999999, "end": 38.96348546666666, "pitch": 77, "velocity": 90}, {"start": 38.97808399999999, "end": 39.35673345833332, "pitch": 80, "velocity": 106}, {"start": 39.41603999999999, "end": 39.927901074999994, "pitch": 75, "velocity": 107}, {"start": 40.07297399999999, "end": 40.25363084999999, "pitch": 80, "velocity": 102}, {"start": 40.29195199999999, "end": 40.509105183333325, "pitch": 79, "velocity": 98}, {"start": 40.51092999999999, "end": 40.728083183333325, "pitch": 77, "velocity": 97}, {"start": 40.72990799999999, "end": 40.947061183333325, "pitch": 79, "velocity": 97}, {"start": 40.94888599999999, "end": 41.89231621666666, "pitch": 80, "velocity": 106}, {"start": 42.043775999999994, "end": 42.425162683333326, "pitch": 80, "velocity": 92}, {"start": 42.481731999999994, "end": 42.617680841666655, "pitch": 75, "velocity": 91}, {"start": 42.700709999999994, "end": 43.12041783333332, "pitch": 75, "velocity": 106}, {"start": 43.13866599999999, "end": 43.52917676666666, "pitch": 72, "velocity": 100}, {"start": 43.57662199999999, "end": 44.21165819999999, "pitch": 75, "velocity": 104}, {"start": 44.45253399999999, "end": 44.528263891666654, "pitch": 80, "velocity": 103}, {"start": 44.67151199999999, "end": 44.760928016666654, "pitch": 80, "velocity": 103}, {"start": 44.89048999999999, "end": 44.959833033333325, "pitch": 79, "velocity": 92}, {"start": 45.10946799999999, "end": 45.20709569166666, "pitch": 79, "velocity": 95}, {"start": 45.32844599999999, "end": 45.42151164999999, "pitch": 77, "velocity": 90}, {"start": 45.54742399999999, "end": 45.95162089166666, "pitch": 77, "velocity": 101}, {"start": 46.42333599999999, "end": 46.86220440833332, "pitch": 79, "velocity": 104}, {"start": 47.08026999999999, "end": 47.51640118333332, "pitch": 79, "velocity": 109}, {"start": 47.51822599999999, "end": 47.83848132499999, "pitch": 80, "velocity": 102}, {"start": 47.95618199999999, "end": 48.03556152499999, "pitch": 80, "velocity": 105}, {"start": 48.17515999999999, "end": 48.393225591666656, "pitch": 80, "velocity": 106}, {"start": 48.39413799999999, "end": 48.52187516666665, "pitch": 79, "velocity": 92}, {"start": 48.61311599999999, "end": 48.80289693333332, "pitch": 79, "velocity": 107}, {"start": 48.83209399999999, "end": 48.924247241666656, "pitch": 77, "velocity": 95}, {"start": 49.05107199999999, "end": 49.37862659166665, "pitch": 77, "velocity": 110}, {"start": 49.48902799999999, "end": 49.703443958333324, "pitch": 80, "velocity": 99}, {"start": 49.70800599999999, "end": 50.14413718333332, "pitch": 82, "velocity": 90}, {"start": 50.14596199999999, "end": 50.336655341666656, "pitch": 80, "velocity": 108}, {"start": 50.36493999999999, "end": 50.57388150833332, "pitch": 79, "velocity": 103}, {"start": 50.58391799999999, "end": 50.677896058333324, "pitch": 80, "velocity": 98}, {"start": 50.693406999999986, "end": 50.80107118333332, "pitch": 79, "velocity": 100}, {"start": 50.80289599999999, "end": 51.41877162499999, "pitch": 77, "velocity": 106}, {"start": 51.45982999999999, "end": 51.50088837499999, "pitch": 80, "velocity": 100}, {"start": 51.67880799999999, "end": 51.86493929999999, "pitch": 80, "velocity": 109}, {"start": 51.89778599999999, "end": 52.00271295833332, "pitch": 79, "velocity": 106}, {"start": 52.11676399999999, "end": 52.29650844166665, "pitch": 79, "velocity": 109}, {"start": 52.33574199999999, "end": 52.43793173333332, "pitch": 77, "velocity": 93}, {"start": 52.55471999999999, "end": 52.978077466666655, "pitch": 77, "velocity": 90}, {"start": 52.99267599999999, "end": 53.371325458333324, "pitch": 80, "velocity": 106}, {"start": 53.43063199999999, "end": 53.94249307499999, "pitch": 75, "velocity": 107}, {"start": 54.08756599999999, "end": 54.26822284999999, "pitch": 80, "velocity": 102}, {"start": 54.30654399999999, "end": 54.52369718333332, "pitch": 79, "velocity": 98}, {"start": 54.52552199999999, "end": 54.74267518333332, "pitch": 77, "velocity": 97}, {"start": 54.74449999999999, "end": 54.96165318333332, "pitch": 79, "velocity": 97}, {"start": 54.96347799999999, "end": 55.90690821666666, "pitch": 80, "velocity": 106}, {"start": 56.05836799999999, "end": 56.43975468333332, "pitch": 80, "velocity": 92}, {"start": 56.49632399999999, "end": 56.632272841666655, "pitch": 75, "velocity": 91}, {"start": 56.71530199999999, "end": 57.13500983333332, "pitch": 75, "velocity": 106}, {"start": 57.15325799999999, "end": 57.54376876666665, "pitch": 72, "velocity": 100}, {"start": 57.59121399999999, "end": 58.686103999999986, "pitch": 75, "velocity": 104}, {"start": 102.91965999999998, "end": 103.29374741666665, "pitch": 70, "velocity": 97}, {"start": 103.35761599999998, "end": 103.91327267499997, "pitch": 72, "velocity": 103}, {"start": 104.01454999999997, "end": 104.66965918333331, "pitch": 72, "velocity": 101}, {"start": 104.67148399999998, "end": 105.10761518333331, "pitch": 77, "velocity": 103}, {"start": 105.10943999999998, "end": 105.76454918333332, "pitch": 75, "velocity": 99}, {"start": 105.76637399999997, "end": 106.42239559166664, "pitch": 73, "velocity": 108}, {"start": 106.42330799999998, "end": 106.85943918333331, "pitch": 72, "velocity": 96}, {"start": 106.86126399999998, "end": 107.42330753333331, "pitch": 70, "velocity": 108}, {"start": 107.51819799999997, "end": 108.1733071833333, "pitch": 70, "velocity": 107}, {"start": 108.17513199999998, "end": 108.6112631833333, "pitch": 72, "velocity": 101}, {"start": 108.61308799999998, "end": 109.90140856666665, "pitch": 68, "velocity": 106}, {"start": 109.92695599999998, "end": 110.3630871833333, "pitch": 70, "velocity": 91}, {"start": 110.36491199999998, "end": 110.91418181666664, "pitch": 72, "velocity": 95}, {"start": 111.02184599999997, "end": 111.6769551833333, "pitch": 72, "velocity": 93}, {"start": 111.67877999999997, "end": 112.1149111833333, "pitch": 77, "velocity": 107}, {"start": 112.11673599999997, "end": 112.77184518333331, "pitch": 75, "velocity": 110}, {"start": 112.77366999999998, "end": 113.39319525833331, "pitch": 73, "velocity": 104}, {"start": 113.43060399999997, "end": 113.86855999999997, "pitch": 72, "velocity": 100}, {"start": 113.86855999999997, "end": 115.66782923333331, "pitch": 70, "velocity": 103}, {"start": 116.93425199999997, "end": 117.35669705833331, "pitch": 79, "velocity": 102}, {"start": 117.37220799999997, "end": 117.96071137499997, "pitch": 80, "velocity": 94}, {"start": 118.02914199999998, "end": 118.6842511833333, "pitch": 79, "velocity": 97}, {"start": 118.68607599999997, "end": 119.00085687499997, "pitch": 77, "velocity": 106}, {"start": 119.12403199999997, "end": 119.72439668333331, "pitch": 75, "velocity": 92}, {"start": 119.78096599999998, "end": 120.4360751833333, "pitch": 73, "velocity": 90}, {"start": 120.43789999999997, "end": 120.83297280833331, "pitch": 72, "velocity": 109}, {"start": 120.87585599999997, "end": 121.35669519166665, "pitch": 70, "velocity": 110}, {"start": 121.53278999999998, "end": 122.1878991833333, "pitch": 70, "velocity": 98}, {"start": 122.18972399999997, "end": 122.6258551833333, "pitch": 72, "velocity": 105}, {"start": 122.62767999999997, "end": 123.47165770833331, "pitch": 68, "velocity": 101}, {"start": 123.94154799999997, "end": 124.3776791833333, "pitch": 79, "velocity": 106}, {"start": 124.37950399999997, "end": 125.00906574999998, "pitch": 80, "velocity": 99}, {"start": 125.03643799999998, "end": 125.6915471833333, "pitch": 79, "velocity": 104}, {"start": 125.69337199999997, "end": 126.1295031833333, "pitch": 77, "velocity": 91}, {"start": 126.13132799999997, "end": 126.78826199999997, "pitch": 75, "velocity": 109}, {"start": 126.78826199999997, "end": 127.21526909999997, "pitch": 80, "velocity": 100}, {"start": 127.44519599999997, "end": 128.03369937499997, "pitch": 82, "velocity": 91}, {"start": 128.10212999999996, "end": 129.66691029166662, "pitch": 82, "velocity": 106}, {"start": 130.29190999999997, "end": 130.36763989166664, "pitch": 80, "velocity": 103}, {"start": 130.51088799999997, "end": 130.60030401666663, "pitch": 80, "velocity": 103}, {"start": 130.72986599999996, "end": 130.7992090333333, "pitch": 79, "velocity": 92}, {"start": 130.94884399999998, "end": 131.04647169166662, "pitch": 79, "velocity": 95}, {"start": 131.16782199999997, "end": 131.26088764999997, "pitch": 77, "velocity": 90}, {"start": 131.38679999999997, "end": 131.79099689166662, "pitch": 77, "velocity": 101}, {"start": 132.26271199999996, "end": 132.7015804083333, "pitch": 79, "velocity": 104}, {"start": 132.91964599999997, "end": 133.35577718333332, "pitch": 79, "velocity": 109}, {"start": 133.35760199999996, "end": 133.67785732499996, "pitch": 80, "velocity": 102}, {"start": 133.79555799999997, "end": 133.87493752499998, "pitch": 80, "velocity": 105}, {"start": 134.01453599999996, "end": 134.23260159166662, "pitch": 80, "velocity": 106}, {"start": 134.23351399999996, "end": 134.36125116666665, "pitch": 79, "velocity": 92}, {"start": 134.45249199999998, "end": 134.64227293333332, "pitch": 79, "velocity": 107}, {"start": 134.67146999999997, "end": 134.76362324166664, "pitch": 77, "velocity": 95}, {"start": 134.89044799999996, "end": 135.21800259166665, "pitch": 77, "velocity": 110}, {"start": 135.32840399999998, "end": 135.5428199583333, "pitch": 80, "velocity": 99}, {"start": 135.54738199999997, "end": 135.98351318333332, "pitch": 82, "velocity": 90}, {"start": 135.98533799999996, "end": 136.17603134166663, "pitch": 80, "velocity": 108}, {"start": 136.20431599999998, "end": 136.41325750833332, "pitch": 79, "velocity": 103}, {"start": 136.42329399999997, "end": 136.5172720583333, "pitch": 80, "velocity": 98}, {"start": 136.53278299999997, "end": 136.6404471833333, "pitch": 79, "velocity": 100}, {"start": 136.64227199999996, "end": 137.25814762499996, "pitch": 77, "velocity": 106}, {"start": 137.29920599999997, "end": 137.34026437499998, "pitch": 80, "velocity": 100}, {"start": 137.51818399999996, "end": 137.70431529999996, "pitch": 80, "velocity": 109}, {"start": 137.73716199999996, "end": 137.8420889583333, "pitch": 79, "velocity": 106}, {"start": 137.95613999999998, "end": 138.13588444166663, "pitch": 79, "velocity": 109}, {"start": 138.17511799999997, "end": 138.27730773333332, "pitch": 77, "velocity": 93}, {"start": 138.39409599999996, "end": 138.81745346666665, "pitch": 77, "velocity": 90}, {"start": 138.83205199999998, "end": 139.2107014583333, "pitch": 80, "velocity": 106}, {"start": 139.27000799999996, "end": 139.78186907499997, "pitch": 75, "velocity": 107}, {"start": 139.92694199999997, "end": 140.10759884999996, "pitch": 80, "velocity": 102}, {"start": 140.14591999999996, "end": 140.3630731833333, "pitch": 79, "velocity": 98}, {"start": 140.36489799999998, "end": 140.5820511833333, "pitch": 77, "velocity": 97}, {"start": 140.58387599999998, "end": 140.8010291833333, "pitch": 79, "velocity": 97}, {"start": 140.80285399999997, "end": 141.74628421666662, "pitch": 80, "velocity": 106}, {"start": 141.89774399999996, "end": 142.2791306833333, "pitch": 80, "velocity": 92}, {"start": 142.33569999999997, "end": 142.47164884166662, "pitch": 75, "velocity": 91}, {"start": 142.55467799999997, "end": 142.97438583333332, "pitch": 75, "velocity": 106}, {"start": 142.99263399999998, "end": 143.38314476666665, "pitch": 72, "velocity": 100}, {"start": 143.43058999999997, "end": 144.06562619999997, "pitch": 75, "velocity": 104}, {"start": 144.30650199999997, "end": 144.38223189166663, "pitch": 80, "velocity": 103}, {"start": 144.52547999999996, "end": 144.61489601666662, "pitch": 80, "velocity": 103}, {"start": 144.74445799999998, "end": 144.8138010333333, "pitch": 79, "velocity": 92}, {"start": 144.96343599999997, "end": 145.06106369166665, "pitch": 79, "velocity": 95}, {"start": 145.18241399999997, "end": 145.27547964999997, "pitch": 77, "velocity": 90}, {"start": 145.40139199999996, "end": 145.80558889166664, "pitch": 77, "velocity": 101}, {"start": 146.27730399999996, "end": 146.7161724083333, "pitch": 79, "velocity": 104}, {"start": 146.93423799999997, "end": 147.3703691833333, "pitch": 79, "velocity": 109}, {"start": 147.37219399999998, "end": 147.69244932499996, "pitch": 80, "velocity": 102}, {"start": 147.81014999999996, "end": 147.88952952499997, "pitch": 80, "velocity": 105}, {"start": 148.02912799999996, "end": 148.24719359166664, "pitch": 80, "velocity": 106}, {"start": 148.24810599999998, "end": 148.37584316666664, "pitch": 79, "velocity": 92}, {"start": 148.46708399999997, "end": 148.6568649333333, "pitch": 79, "velocity": 107}, {"start": 148.68606199999996, "end": 148.77821524166663, "pitch": 77, "velocity": 95}, {"start": 148.90503999999996, "end": 149.23259459166664, "pitch": 77, "velocity": 110}, {"start": 149.34299599999997, "end": 149.5574119583333, "pitch": 80, "velocity": 99}, {"start": 149.56197399999996, "end": 149.9981051833333, "pitch": 82, "velocity": 90}, {"start": 149.99992999999998, "end": 150.19062334166662, "pitch": 80, "velocity": 108}, {"start": 150.21890799999997, "end": 150.4278495083333, "pitch": 79, "velocity": 103}, {"start": 150.43788599999996, "end": 150.5318640583333, "pitch": 80, "velocity": 98}, {"start": 150.54737499999996, "end": 150.6550391833333, "pitch": 79, "velocity": 100}, {"start": 150.65686399999996, "end": 151.27273962499996, "pitch": 77, "velocity": 106}, {"start": 151.31379799999996, "end": 151.35485637499997, "pitch": 80, "velocity": 100}, {"start": 151.53277599999996, "end": 151.71890729999996, "pitch": 80, "velocity": 109}, {"start": 151.75175399999998, "end": 151.8566809583333, "pitch": 79, "velocity": 106}, {"start": 151.97073199999997, "end": 152.15047644166663, "pitch": 79, "velocity": 109}, {"start": 152.18970999999996, "end": 152.2918997333333, "pitch": 77, "velocity": 93}, {"start": 152.40868799999996, "end": 152.83204546666664, "pitch": 77, "velocity": 90}, {"start": 152.84664399999997, "end": 153.2252934583333, "pitch": 80, "velocity": 106}, {"start": 153.28459999999995, "end": 153.79646107499997, "pitch": 75, "velocity": 107}, {"start": 153.94153399999996, "end": 154.12219084999995, "pitch": 80, "velocity": 102}, {"start": 154.16051199999995, "end": 154.3776651833333, "pitch": 79, "velocity": 98}, {"start": 154.37948999999998, "end": 154.5966431833333, "pitch": 77, "velocity": 97}, {"start": 154.59846799999997, "end": 154.8156211833333, "pitch": 79, "velocity": 97}, {"start": 154.81744599999996, "end": 155.76087621666665, "pitch": 80, "velocity": 106}, {"start": 155.91233599999995, "end": 156.2937226833333, "pitch": 80, "velocity": 92}, {"start": 156.35029199999997, "end": 156.48624084166664, "pitch": 75, "velocity": 91}, {"start": 156.56926999999996, "end": 156.9889778333333, "pitch": 75, "velocity": 106}, {"start": 157.00722599999997, "end": 157.39773676666664, "pitch": 72, "velocity": 100}, {"start": 157.44518199999996, "end": 158.54007199999995, "pitch": 75, "velocity": 104}, {"start": 186.35027799999995, "end": 186.42600789166661, "pitch": 80, "velocity": 103}, {"start": 186.56925599999997, "end": 186.65867201666663, "pitch": 80, "velocity": 103}, {"start": 186.78823399999996, "end": 186.85757703333329, "pitch": 79, "velocity": 92}, {"start": 187.00721199999995, "end": 187.10483969166663, "pitch": 79, "velocity": 95}, {"start": 187.22618999999995, "end": 187.31925564999995, "pitch": 77, "velocity": 90}, {"start": 187.44516799999997, "end": 187.84936489166662, "pitch": 77, "velocity": 101}, {"start": 188.32107999999997, "end": 188.7599484083333, "pitch": 79, "velocity": 104}, {"start": 188.97801399999994, "end": 189.4141451833333, "pitch": 79, "velocity": 109}, {"start": 189.41596999999996, "end": 189.73622532499996, "pitch": 80, "velocity": 102}, {"start": 189.85392599999994, "end": 189.93330552499995, "pitch": 80, "velocity": 105}, {"start": 190.07290399999997, "end": 190.29096959166662, "pitch": 80, "velocity": 106}, {"start": 190.29188199999996, "end": 190.41961916666662, "pitch": 79, "velocity": 92}, {"start": 190.51085999999995, "end": 190.7006409333333, "pitch": 79, "velocity": 107}, {"start": 190.72983799999994, "end": 190.82199124166664, "pitch": 77, "velocity": 95}, {"start": 190.94881599999997, "end": 191.27637059166662, "pitch": 77, "velocity": 110}, {"start": 191.38677199999995, "end": 191.6011879583333, "pitch": 80, "velocity": 99}, {"start": 191.60574999999994, "end": 192.0418811833333, "pitch": 82, "velocity": 90}, {"start": 192.04370599999996, "end": 192.23439934166663, "pitch": 80, "velocity": 108}, {"start": 192.26268399999995, "end": 192.4716255083333, "pitch": 79, "velocity": 103}, {"start": 192.48166199999994, "end": 192.57564005833328, "pitch": 80, "velocity": 98}, {"start": 192.59115099999997, "end": 192.6988151833333, "pitch": 79, "velocity": 100}, {"start": 192.70063999999996, "end": 193.31651562499997, "pitch": 77, "velocity": 106}, {"start": 193.35757399999994, "end": 193.39863237499995, "pitch": 80, "velocity": 100}, {"start": 193.57655199999996, "end": 193.76268329999996, "pitch": 80, "velocity": 109}, {"start": 193.79552999999996, "end": 193.90045695833328, "pitch": 79, "velocity": 106}, {"start": 194.01450799999995, "end": 194.19425244166663, "pitch": 79, "velocity": 109}, {"start": 194.23348599999994, "end": 194.3356757333333, "pitch": 77, "velocity": 93}, {"start": 194.45246399999996, "end": 194.87582146666662, "pitch": 77, "velocity": 90}, {"start": 194.89041999999995, "end": 195.2690694583333, "pitch": 80, "velocity": 106}, {"start": 195.32837599999996, "end": 195.84023707499995, "pitch": 75, "velocity": 107}, {"start": 195.98530999999994, "end": 196.16596684999996, "pitch": 80, "velocity": 102}, {"start": 196.20428799999996, "end": 196.4214411833333, "pitch": 79, "velocity": 98}, {"start": 196.42326599999996, "end": 196.64041918333328, "pitch": 77, "velocity": 97}, {"start": 196.64224399999995, "end": 196.8593971833333, "pitch": 79, "velocity": 97}, {"start": 196.86122199999997, "end": 197.80465221666663, "pitch": 80, "velocity": 106}, {"start": 197.95611199999996, "end": 198.33749868333328, "pitch": 80, "velocity": 92}, {"start": 198.39406799999995, "end": 198.53001684166662, "pitch": 75, "velocity": 91}, {"start": 198.61304599999997, "end": 199.0327538333333, "pitch": 75, "velocity": 106}, {"start": 199.05100199999995, "end": 199.44151276666662, "pitch": 72, "velocity": 100}, {"start": 199.48895799999997, "end": 200.12399419999994, "pitch": 75, "velocity": 104}]'),
(7704, '[{"start": 3.3112976354166666, "end": 3.485576458333333, "pitch": 67, "velocity": 113}, {"start": 3.521634145833333, "end": 3.647836052083333, "pitch": 62, "velocity": 86}, {"start": 3.647836052083333, "end": 3.831129296875, "pitch": 55, "velocity": 102}, {"start": 3.84014371875, "end": 3.945311973958333, "pitch": 55, "velocity": 99}, {"start": 3.936297552083333, "end": 4.119590796874999, "pitch": 67, "velocity": 89}, {"start": 4.12860521875, "end": 4.263821546875, "pitch": 64, "velocity": 96}, {"start": 4.263821546875, "end": 4.4471147916666665, "pitch": 55, "velocity": 92}, {"start": 4.465143635416666, "end": 4.561297468749999, "pitch": 55, "velocity": 95}, {"start": 4.552283046875, "end": 4.738581098958333, "pitch": 67, "velocity": 92}, {"start": 4.762619557291666, "end": 4.879807041666666, "pitch": 66, "velocity": 92}, {"start": 4.879807041666666, "end": 5.072114708333333, "pitch": 55, "velocity": 106}, {"start": 5.090143552083333, "end": 5.171273348958333, "pitch": 55, "velocity": 97}, {"start": 5.171273348958333, "end": 5.348556979166666, "pitch": 67, "velocity": 92}, {"start": 5.378605052083333, "end": 5.4927877291666665, "pitch": 64, "velocity": 99}, {"start": 5.49879734375, "end": 5.691105010416666, "pitch": 55, "velocity": 94}, {"start": 5.706129046875, "end": 5.802282880208333, "pitch": 55, "velocity": 101}, {"start": 5.802282880208333, "end": 5.979566510416666, "pitch": 67, "velocity": 113}, {"start": 5.997595354166666, "end": 6.117787645833333, "pitch": 62, "velocity": 86}, {"start": 6.117787645833333, "end": 6.301080890624999, "pitch": 55, "velocity": 102}, {"start": 6.3311289635416665, "end": 6.421273182291666, "pitch": 55, "velocity": 99}, {"start": 6.412258760416666, "end": 6.595552005208333, "pitch": 67, "velocity": 89}, {"start": 6.613580848958333, "end": 6.739782755208333, "pitch": 64, "velocity": 96}, {"start": 6.739782755208333, "end": 6.9320904218749995, "pitch": 55, "velocity": 92}, {"start": 6.94110484375, "end": 7.037258677083333, "pitch": 55, "velocity": 95}, {"start": 7.028244255208333, "end": 7.2115374999999995, "pitch": 67, "velocity": 92}, {"start": 7.238580765625, "end": 7.35576825, "pitch": 66, "velocity": 92}, {"start": 7.35576825, "end": 7.551080723958333, "pitch": 55, "velocity": 106}, {"start": 7.572114375, "end": 7.668268208333333, "pitch": 55, "velocity": 97}, {"start": 7.656248979166667, "end": 7.8245181875, "pitch": 67, "velocity": 92}, {"start": 7.860575874999999, "end": 7.983772973958333, "pitch": 64, "velocity": 99}, {"start": 7.983772973958333, "end": 8.16706621875, "pitch": 55, "velocity": 94}, {"start": 8.182090255208333, "end": 8.281248895833333, "pitch": 55, "velocity": 101}, {"start": 8.272234473958333, "end": 8.45552771875, "pitch": 67, "velocity": 113}, {"start": 8.473556562499999, "end": 8.59975846875, "pitch": 62, "velocity": 86}, {"start": 8.59975846875, "end": 8.783051713541665, "pitch": 55, "velocity": 102}, {"start": 8.801080557291666, "end": 8.897234390625, "pitch": 55, "velocity": 99}, {"start": 8.888219968749999, "end": 9.071513213541666, "pitch": 67, "velocity": 89}, {"start": 9.098556479166666, "end": 9.215743963541666, "pitch": 64, "velocity": 96}, {"start": 9.215743963541666, "end": 9.408051630208332, "pitch": 55, "velocity": 92}, {"start": 9.426080473958333, "end": 9.513219885416666, "pitch": 55, "velocity": 95}, {"start": 9.504205463541666, "end": 9.687498708333333, "pitch": 67, "velocity": 92}, {"start": 9.714541973958333, "end": 9.831729458333333, "pitch": 66, "velocity": 92}, {"start": 9.831729458333333, "end": 10.024037125, "pitch": 55, "velocity": 106}, {"start": 10.04206596875, "end": 10.138219802083333, "pitch": 55, "velocity": 97}, {"start": 10.129205380208333, "end": 10.315503432291665, "pitch": 67, "velocity": 92}, {"start": 10.336537083333333, "end": 10.459734182291665, "pitch": 64, "velocity": 99}, {"start": 10.459734182291665, "end": 10.643027427083332, "pitch": 55, "velocity": 94}, {"start": 10.661056270833333, "end": 10.757210104166665, "pitch": 55, "velocity": 101}, {"start": 10.748195682291666, "end": 10.931488927083333, "pitch": 67, "velocity": 107}, {"start": 10.949517770833333, "end": 11.066705255208333, "pitch": 62, "velocity": 99}, {"start": 11.05168121875, "end": 11.237979270833332, "pitch": 55, "velocity": 106}, {"start": 11.358171562499999, "end": 11.97115225, "pitch": 67, "velocity": 104}, {"start": 11.26802734375, "end": 11.97115225, "pitch": 55, "velocity": 108}, {"start": 11.998195515625, "end": 12.436897380208332, "pitch": 62, "velocity": 102}, {"start": 12.503003140625, "end": 12.797474255208332, "pitch": 67, "velocity": 106}, {"start": 12.917666546875, "end": 13.158051130208333, "pitch": 71, "velocity": 99}, {"start": 13.224156890624998, "end": 14.2427865625, "pitch": 55, "velocity": 105}, {"start": 13.224156890624998, "end": 14.2427865625, "pitch": 67, "velocity": 100}, {"start": 13.224156890624998, "end": 14.2427865625, "pitch": 74, "velocity": 100}, {"start": 14.378002890625, "end": 14.450118265625, "pitch": 60, "velocity": 108}, {"start": 14.465142302083333, "end": 14.651440354166665, "pitch": 62, "velocity": 105}, {"start": 14.672474005208333, "end": 14.795671104166665, "pitch": 67, "velocity": 102}, {"start": 14.795671104166665, "end": 14.978964348958332, "pitch": 71, "velocity": 105}, {"start": 14.999998, "end": 15.540863312499999, "pitch": 74, "velocity": 107}, {"start": 15.700118098958333, "end": 16.526440104166667, "pitch": 60, "velocity": 107}, {"start": 15.700118098958333, "end": 16.526440104166667, "pitch": 67, "velocity": 105}, {"start": 15.700118098958333, "end": 16.526440104166667, "pitch": 72, "velocity": 100}, {"start": 16.646632395833333, "end": 16.89903620833333, "pitch": 72, "velocity": 105}, {"start": 16.941103510416667, "end": 17.262617890625, "pitch": 69, "velocity": 104}, {"start": 17.2716323125, "end": 17.445911135416665, "pitch": 69, "velocity": 102}, {"start": 17.475959208333332, "end": 17.965742796875, "pitch": 67, "velocity": 108}, {"start": 18.100959125, "end": 18.176079307291666, "pitch": 55, "velocity": 114}, {"start": 18.182088921875, "end": 18.365382166666667, "pitch": 67, "velocity": 113}, {"start": 18.389420625, "end": 18.50360330208333, "pitch": 62, "velocity": 86}, {"start": 18.50360330208333, "end": 18.69591096875, "pitch": 55, "velocity": 102}, {"start": 18.713939812499998, "end": 18.810093645833334, "pitch": 55, "velocity": 99}, {"start": 18.801079223958332, "end": 18.978362854166665, "pitch": 67, "velocity": 89}, {"start": 19.008410927083332, "end": 19.134612833333332, "pitch": 64, "velocity": 96}, {"start": 19.134612833333332, "end": 19.31490127083333, "pitch": 55, "velocity": 92}, {"start": 19.335934921874998, "end": 19.432088755208333, "pitch": 55, "velocity": 95}, {"start": 19.423074333333332, "end": 19.603362770833332, "pitch": 67, "velocity": 92}, {"start": 19.618386807291664, "end": 19.74759352083333, "pitch": 66, "velocity": 92}, {"start": 19.74759352083333, "end": 19.93689638020833, "pitch": 55, "velocity": 106}, {"start": 19.951920416666667, "end": 20.03605502083333, "pitch": 55, "velocity": 97}, {"start": 20.03605502083333, "end": 20.459732848958332, "pitch": 67, "velocity": 92}, {"start": 20.579925140624997, "end": 20.676078973958333, "pitch": 60, "velocity": 101}, {"start": 20.661054937499998, "end": 20.835333760416667, "pitch": 67, "velocity": 105}, {"start": 20.87439625520833, "end": 21.04567027083333, "pitch": 62, "velocity": 103}, {"start": 21.066703921875, "end": 21.277040432291667, "pitch": 48, "velocity": 69}, {"start": 21.277040432291667, "end": 21.706727875, "pitch": 67, "velocity": 107}, {"start": 21.811896130208332, "end": 21.899035541666667, "pitch": 50, "velocity": 74}, {"start": 21.899035541666667, "end": 22.415862395833333, "pitch": 67, "velocity": 106}, {"start": 22.436896046875, "end": 22.512016229166665, "pitch": 50, "velocity": 77}, {"start": 22.512016229166665, "end": 23.124996916666664, "pitch": 69, "velocity": 109}, {"start": 23.137016145833332, "end": 23.951318921875, "pitch": 55, "velocity": 115}, {"start": 23.137016145833332, "end": 23.951318921875, "pitch": 67, "velocity": 109}, {"start": 23.137016145833332, "end": 23.951318921875, "pitch": 74, "velocity": 104}, {"start": 23.960333343749998, "end": 24.086535249999997, "pitch": 62, "velocity": 112}, {"start": 24.086535249999997, "end": 24.278842916666665, "pitch": 67, "velocity": 111}, {"start": 24.287857338541667, "end": 24.374996749999998, "pitch": 71, "velocity": 107}, {"start": 24.374996749999998, "end": 24.555285187499997, "pitch": 74, "velocity": 109}, {"start": 24.585333260416665, "end": 24.690501515624998, "pitch": 76, "velocity": 105}, {"start": 24.681487093749997, "end": 24.864780338541664, "pitch": 78, "velocity": 109}, {"start": 24.891823604166664, "end": 25.456727375, "pitch": 86, "velocity": 95}, {"start": 25.612977354166667, "end": 25.796270598958333, "pitch": 60, "velocity": 105}, {"start": 25.81730425, "end": 25.93148692708333, "pitch": 67, "velocity": 107}, {"start": 25.922472505208333, "end": 26.108770557291663, "pitch": 69, "velocity": 107}, {"start": 26.129804208333333, "end": 26.388217635416666, "pitch": 74, "velocity": 95}, {"start": 26.445308973958333, "end": 26.77283296875, "pitch": 76, "velocity": 88}, {"start": 26.850957958333332, "end": 27.06129446875, "pitch": 69, "velocity": 107}, {"start": 27.06129446875, "end": 27.3677848125, "pitch": 71, "velocity": 102}, {"start": 27.3677848125, "end": 27.854563593749997, "pitch": 67, "velocity": 114}, {"start": 27.989779921874998, "end": 28.103962598958333, "pitch": 55, "velocity": 102}, {"start": 28.09494817708333, "end": 28.278241421875, "pitch": 67, "velocity": 100}, {"start": 28.296270265624997, "end": 28.422472171874997, "pitch": 62, "velocity": 103}, {"start": 28.422472171874997, "end": 28.614779838541665, "pitch": 55, "velocity": 108}, {"start": 28.623794260416666, "end": 28.71994809375, "pitch": 55, "velocity": 109}, {"start": 28.710933671874997, "end": 28.894226916666664, "pitch": 67, "velocity": 109}, {"start": 28.921270182291664, "end": 29.038457666666666, "pitch": 64, "velocity": 101}, {"start": 29.038457666666666, "end": 29.23076533333333, "pitch": 55, "velocity": 108}, {"start": 29.248794177083333, "end": 29.344948010416665, "pitch": 55, "velocity": 110}, {"start": 29.335933588541664, "end": 29.507207604166666, "pitch": 67, "velocity": 108}, {"start": 29.53725567708333, "end": 29.666462390624996, "pitch": 66, "velocity": 106}, {"start": 29.666462390624996, "end": 29.843746020833333, "pitch": 55, "velocity": 113}, {"start": 29.867784479166666, "end": 29.96093350520833, "pitch": 55, "velocity": 111}, {"start": 29.95191908333333, "end": 30.435693057291665, "pitch": 67, "velocity": 106}, {"start": 30.576918999999997, "end": 31.814899604166666, "pitch": 60, "velocity": 99}, {"start": 30.576918999999997, "end": 31.814899604166666, "pitch": 55, "velocity": 103}, {"start": 30.576918999999997, "end": 31.814899604166666, "pitch": 48, "velocity": 107}, {"start": 31.814899604166666, "end": 32.638216802083335, "pitch": 50, "velocity": 104}, {"start": 31.814899604166666, "end": 32.638216802083335, "pitch": 57, "velocity": 100}, {"start": 31.814899604166666, "end": 32.638216802083335, "pitch": 62, "velocity": 105}, {"start": 32.638216802083335, "end": 32.74038025, "pitch": 64, "velocity": 103}, {"start": 32.76441870833333, "end": 32.956726374999995, "pitch": 62, "velocity": 107}, {"start": 32.956726374999995, "end": 33.040860979166666, "pitch": 64, "velocity": 107}, {"start": 33.040860979166666, "end": 33.230163838541664, "pitch": 72, "velocity": 102}, {"start": 33.263216718749995, "end": 33.37739939583333, "pitch": 64, "velocity": 115}, {"start": 33.37739939583333, "end": 33.560692640625, "pitch": 69, "velocity": 104}, {"start": 33.59074071354166, "end": 33.677880124999994, "pitch": 72, "velocity": 104}, {"start": 33.677880124999994, "end": 33.84614933333333, "pitch": 71, "velocity": 100}, {"start": 33.87920221354167, "end": 34.002399312499996, "pitch": 62, "velocity": 105}, {"start": 34.002399312499996, "end": 34.191702171875, "pitch": 67, "velocity": 103}, {"start": 34.20672620833333, "end": 34.296870427083334, "pitch": 71, "velocity": 104}, {"start": 34.2908608125, "end": 34.471149249999996, "pitch": 69, "velocity": 103}, {"start": 34.48917809375, "end": 34.624394421874996, "pitch": 62, "velocity": 107}, {"start": 34.624394421874996, "end": 34.7956684375, "pitch": 66, "velocity": 103}, {"start": 34.82571651041666, "end": 34.912855921875, "pitch": 69, "velocity": 100}, {"start": 34.912855921875, "end": 35.08112513020833, "pitch": 62, "velocity": 111}, {"start": 35.12319243229167, "end": 35.24037991666666, "pitch": 66, "velocity": 102}, {"start": 35.24037991666666, "end": 35.43268758333333, "pitch": 67, "velocity": 107}, {"start": 35.45071642708333, "end": 35.53184622395833, "pitch": 69, "velocity": 101}, {"start": 35.528841416666666, "end": 35.70912985416666, "pitch": 71, "velocity": 97}, {"start": 35.73917792708333, "end": 35.85336060416667, "pitch": 62, "velocity": 107}, {"start": 35.85336060416667, "end": 36.04566827083333, "pitch": 67, "velocity": 103}, {"start": 36.066701921874994, "end": 36.15384133333333, "pitch": 71, "velocity": 99}, {"start": 36.15384133333333, "end": 36.33112496354166, "pitch": 69, "velocity": 99}, {"start": 36.355163421875, "end": 36.48437013541666, "pitch": 62, "velocity": 112}, {"start": 36.48437013541666, "end": 36.733769140625, "pitch": 66, "velocity": 101}, {"start": 36.76682202083333, "end": 36.95612488020833, "pitch": 67, "velocity": 103}, {"start": 36.97415372395833, "end": 37.094346015625, "pitch": 66, "velocity": 104}, {"start": 37.094346015625, "end": 37.292663296875, "pitch": 64, "velocity": 102}, {"start": 37.30167771875, "end": 37.39783155208333, "pitch": 62, "velocity": 113}, {"start": 37.37980270833333, "end": 37.869586296875, "pitch": 59, "velocity": 108}, {"start": 38.013817046875, "end": 38.18208625520833, "pitch": 72, "velocity": 102}, {"start": 38.21513913541666, "end": 38.34134104166667, "pitch": 64, "velocity": 115}, {"start": 38.34134104166667, "end": 38.52162947916666, "pitch": 69, "velocity": 104}, {"start": 38.54266313020833, "end": 38.62980254166666, "pitch": 72, "velocity": 104}, {"start": 38.62980254166666, "end": 38.81610059375, "pitch": 71, "velocity": 100}, {"start": 38.834129437499996, "end": 38.954321729166665, "pitch": 62, "velocity": 105}, {"start": 38.96033134375, "end": 39.14362458854166, "pitch": 67, "velocity": 103}, {"start": 39.152639010416664, "end": 39.248792843749996, "pitch": 71, "velocity": 104}, {"start": 39.248792843749996, "end": 39.432086088541666, "pitch": 69, "velocity": 103}, {"start": 39.45912935416666, "end": 39.576316838541665, "pitch": 62, "velocity": 107}, {"start": 39.576316838541665, "end": 39.76862450520833, "pitch": 66, "velocity": 103}, {"start": 39.78665334895833, "end": 39.86477833854166, "pitch": 69, "velocity": 100}, {"start": 39.86477833854166, "end": 40.04807158333333, "pitch": 74, "velocity": 111}, {"start": 40.07511484895833, "end": 40.19230233333333, "pitch": 62, "velocity": 102}, {"start": 40.19230233333333, "end": 40.384609999999995, "pitch": 66, "velocity": 107}, {"start": 40.40263884375, "end": 40.492783062499996, "pitch": 69, "velocity": 101}, {"start": 40.48977825520833, "end": 40.6730715, "pitch": 71, "velocity": 97}, {"start": 40.691100343749994, "end": 40.81730225, "pitch": 62, "velocity": 107}, {"start": 40.81730225, "end": 40.994585880208334, "pitch": 67, "velocity": 103}, {"start": 41.01862433854166, "end": 41.10876855729166, "pitch": 71, "velocity": 99}, {"start": 41.10876855729166, "end": 41.29206180208333, "pitch": 69, "velocity": 99}, {"start": 41.310090645833334, "end": 41.430282937499996, "pitch": 62, "velocity": 112}, {"start": 41.430282937499996, "end": 41.68569155729166, "pitch": 66, "velocity": 101}, {"start": 41.724754052083334, "end": 41.908047296875, "pitch": 67, "velocity": 105}, {"start": 41.935090562499994, "end": 42.052278046874996, "pitch": 66, "velocity": 111}, {"start": 42.052278046874996, "end": 42.24458571354167, "pitch": 64, "velocity": 106}, {"start": 42.26261455729166, "end": 42.75239814583333, "pitch": 76, "velocity": 84}, {"start": 42.95972984895833, "end": 43.152037515625, "pitch": 72, "velocity": 102}, {"start": 43.173071166666666, "end": 43.29326345833333, "pitch": 64, "velocity": 115}, {"start": 43.29326345833333, "end": 43.479561510416666, "pitch": 69, "velocity": 104}, {"start": 43.49759035416666, "end": 43.5937441875, "pitch": 72, "velocity": 104}, {"start": 43.584729765625, "end": 43.76201339583333, "pitch": 71, "velocity": 100}, {"start": 43.79807108333333, "end": 43.91225376041666, "pitch": 62, "velocity": 105}, {"start": 43.91225376041666, "end": 44.10456142708333, "pitch": 67, "velocity": 103}, {"start": 44.12259027083333, "end": 44.200715260416665, "pitch": 71, "velocity": 104}, {"start": 44.200715260416665, "end": 44.387013312499995, "pitch": 69, "velocity": 103}, {"start": 44.41105177083333, "end": 44.528239255208334, "pitch": 62, "velocity": 107}, {"start": 44.528239255208334, "end": 44.720546921875, "pitch": 66, "velocity": 103}, {"start": 44.738575765625, "end": 44.83472959895833, "pitch": 69, "velocity": 100}, {"start": 44.82571517708333, "end": 45.009008421874995, "pitch": 62, "velocity": 111}, {"start": 45.027037265625, "end": 45.153239171875, "pitch": 66, "velocity": 102}, {"start": 45.153239171875, "end": 45.336532416666664, "pitch": 67, "velocity": 107}, {"start": 45.354561260416666, "end": 45.441700671875, "pitch": 69, "velocity": 101}, {"start": 45.441700671875, "end": 45.62499391666666, "pitch": 71, "velocity": 97}, {"start": 45.649032375, "end": 45.769224666666666, "pitch": 62, "velocity": 107}, {"start": 45.769224666666666, "end": 45.96153233333333, "pitch": 67, "velocity": 103}, {"start": 45.9735515625, "end": 46.06970539583333, "pitch": 71, "velocity": 99}, {"start": 46.06069097395833, "end": 46.24398421875, "pitch": 69, "velocity": 99}, {"start": 46.274032291666664, "end": 46.38821496875, "pitch": 62, "velocity": 112}, {"start": 46.38821496875, "end": 46.56249379166666, "pitch": 66, "velocity": 101}, {"start": 46.58052263541666, "end": 46.685690890625, "pitch": 69, "velocity": 99}, {"start": 46.685690890625, "end": 46.859969713541666, "pitch": 67, "velocity": 103}, {"start": 46.88701297916666, "end": 47.013214885416666, "pitch": 66, "velocity": 104}, {"start": 47.013214885416666, "end": 47.19650813020833, "pitch": 64, "velocity": 102}, {"start": 47.21453697395833, "end": 47.310690807291664, "pitch": 62, "velocity": 113}, {"start": 47.30167638541666, "end": 47.71934459895833, "pitch": 59, "velocity": 108}, {"start": 47.81549843229166, "end": 47.932685916666664, "pitch": 57, "velocity": 59}, {"start": 47.920666687499995, "end": 48.100955125, "pitch": 72, "velocity": 102}, {"start": 48.13400800520833, "end": 48.248190682291664, "pitch": 64, "velocity": 115}, {"start": 48.248190682291664, "end": 48.44049834895833, "pitch": 69, "velocity": 104}, {"start": 48.461532, "end": 48.54566660416666, "pitch": 72, "velocity": 104}, {"start": 48.53665218229166, "end": 48.71994542708333, "pitch": 71, "velocity": 100}, {"start": 48.749993499999995, "end": 48.86417617708333, "pitch": 62, "velocity": 105}, {"start": 48.86417617708333, "end": 49.056483843749994, "pitch": 67, "velocity": 103}, {"start": 49.0745126875, "end": 49.17066652083333, "pitch": 71, "velocity": 104}, {"start": 49.16165209895833, "end": 49.34494534375, "pitch": 69, "velocity": 103}, {"start": 49.362974187499994, "end": 49.48917609375, "pitch": 62, "velocity": 107}, {"start": 49.48917609375, "end": 49.67246933854166, "pitch": 66, "velocity": 103}, {"start": 49.69049818229166, "end": 49.786652015624995, "pitch": 69, "velocity": 100}, {"start": 49.77763759374999, "end": 49.96393564583333, "pitch": 74, "velocity": 111}, {"start": 49.98496929687499, "end": 50.10516158854166, "pitch": 62, "velocity": 102}, {"start": 50.10516158854166, "end": 50.29746925520833, "pitch": 66, "velocity": 107}, {"start": 50.31249329166666, "end": 50.40263751041666, "pitch": 69, "velocity": 101}, {"start": 50.39662789583333, "end": 50.579921140625, "pitch": 71, "velocity": 97}, {"start": 50.60996921354166, "end": 50.724151890624995, "pitch": 62, "velocity": 107}, {"start": 50.724151890624995, "end": 50.91645955729167, "pitch": 67, "velocity": 103}, {"start": 50.93749320833333, "end": 51.03364704166666, "pitch": 71, "velocity": 99}, {"start": 51.0216278125, "end": 51.19590663541666, "pitch": 69, "velocity": 99}, {"start": 51.22595470833333, "end": 51.34915180729166, "pitch": 62, "velocity": 112}, {"start": 51.34915180729166, "end": 51.589536390625, "pitch": 66, "velocity": 101}, {"start": 51.637613307291666, "end": 51.82090655208333, "pitch": 67, "velocity": 105}, {"start": 51.83893539583333, "end": 51.96513730208333, "pitch": 66, "velocity": 104}, {"start": 51.96513730208333, "end": 52.151435354166665, "pitch": 64, "velocity": 106}, {"start": 52.17246900520833, "end": 52.26862283854167, "pitch": 59, "velocity": 109}, {"start": 52.259608416666666, "end": 52.436892046874995, "pitch": 57, "velocity": 111}, {"start": 52.46994492708333, "end": 52.58412760416666, "pitch": 57, "velocity": 108}, {"start": 52.58412760416666, "end": 52.77643527083333, "pitch": 62, "velocity": 106}, {"start": 52.797468921874994, "end": 52.872589104166664, "pitch": 66, "velocity": 99}, {"start": 52.872589104166664, "end": 53.05588234895833, "pitch": 67, "velocity": 113}, {"start": 53.085930421875, "end": 53.20011309895833, "pitch": 62, "velocity": 86}, {"start": 53.20011309895833, "end": 53.392420765625, "pitch": 55, "velocity": 102}, {"start": 53.41345441666666, "end": 53.50960825, "pitch": 55, "velocity": 99}, {"start": 53.49758902083333, "end": 53.680882265624994, "pitch": 67, "velocity": 89}, {"start": 53.701915916666664, "end": 53.825113015625, "pitch": 64, "velocity": 96}, {"start": 53.825113015625, "end": 54.00840626041666, "pitch": 55, "velocity": 92}, {"start": 54.026435104166666, "end": 54.1225889375, "pitch": 55, "velocity": 95}, {"start": 54.113574515625, "end": 54.29686776041666, "pitch": 67, "velocity": 92}, {"start": 54.31489660416666, "end": 54.441098510416666, "pitch": 66, "velocity": 92}, {"start": 54.447108125, "end": 54.63340617708333, "pitch": 55, "velocity": 106}, {"start": 54.648430213541666, "end": 54.738574432291664, "pitch": 55, "velocity": 97}, {"start": 54.735569625, "end": 55.216338791666665, "pitch": 67, "velocity": 92}, {"start": 55.36056954166666, "end": 55.772228140624996, "pitch": 78, "velocity": 111}, {"start": 55.889415625, "end": 56.13881463020833, "pitch": 81, "velocity": 104}, {"start": 56.18088193229166, "end": 56.30107422395833, "pitch": 62, "velocity": 117}, {"start": 56.30107422395833, "end": 56.62859821875, "pitch": 76, "velocity": 105}, {"start": 56.700713593749995, "end": 56.74278089583333, "pitch": 74, "velocity": 106}, {"start": 56.74278089583333, "end": 56.80588184895833, "pitch": 72, "velocity": 110}, {"start": 56.80588184895833, "end": 57.37379042708333, "pitch": 69, "velocity": 108}, {"start": 57.53605002083333, "end": 57.62318943229166, "pitch": 71, "velocity": 107}, {"start": 57.62318943229166, "end": 57.74939133854166, "pitch": 69, "velocity": 107}, {"start": 57.74939133854166, "end": 57.836530749999994, "pitch": 67, "velocity": 111}, {"start": 57.836530749999994, "end": 58.25720377083333, "pitch": 62, "velocity": 115}, {"start": 58.36537683333333, "end": 58.440497015625, "pitch": 55, "velocity": 107}, {"start": 58.44951143749999, "end": 58.65684314062499, "pitch": 67, "velocity": 109}, {"start": 58.65684314062499, "end": 58.77703543229166, "pitch": 64, "velocity": 112}, {"start": 58.77703543229166, "end": 58.969343098958326, "pitch": 55, "velocity": 110}, {"start": 58.98436713541666, "end": 59.07451135416666, "pitch": 55, "velocity": 112}, {"start": 59.065496932291666, "end": 59.25479979166666, "pitch": 67, "velocity": 100}, {"start": 59.27883825, "end": 59.39903054166666, "pitch": 66, "velocity": 103}, {"start": 59.39903054166666, "end": 59.591338208333326, "pitch": 55, "velocity": 108}, {"start": 59.60936705208333, "end": 59.687492041666665, "pitch": 55, "velocity": 109}, {"start": 59.69650646354166, "end": 60.1081650625, "pitch": 67, "velocity": 110}, {"start": 60.225352546874994, "end": 60.32150638020833, "pitch": 62, "velocity": 119}, {"start": 60.31249195833333, "end": 60.49278039583333, "pitch": 69, "velocity": 111}, {"start": 60.513814046875, "end": 60.63701114583333, "pitch": 74, "velocity": 108}, {"start": 60.64302076041666, "end": 60.82631400520833, "pitch": 78, "velocity": 110}, {"start": 60.84133804166666, "end": 61.39422258333333, "pitch": 79, "velocity": 113}, {"start": 61.54746775520833, "end": 62.067299416666664, "pitch": 62, "velocity": 107}, {"start": 62.08532826041666, "end": 62.478958015625, "pitch": 67, "velocity": 107}, {"start": 62.49999166666666, "end": 62.767419515624994, "pitch": 71, "velocity": 107}, {"start": 62.78845316666666, "end": 63.59975113541666, "pitch": 55, "velocity": 115}, {"start": 62.78845316666666, "end": 63.59975113541666, "pitch": 67, "velocity": 109}, {"start": 62.78845316666666, "end": 63.59975113541666, "pitch": 74, "velocity": 104}, {"start": 63.614775171874996, "end": 63.92727513020833, "pitch": 62, "velocity": 112}, {"start": 63.94530397395833, "end": 64.04145780729166, "pitch": 67, "velocity": 107}, {"start": 64.03244338541666, "end": 64.20672220833333, "pitch": 71, "velocity": 109}, {"start": 64.23376547395833, "end": 64.35996738020833, "pitch": 74, "velocity": 105}, {"start": 64.35996738020833, "end": 64.543260625, "pitch": 76, "velocity": 109}, {"start": 64.56128946874999, "end": 64.65744330208332, "pitch": 78, "velocity": 95}, {"start": 64.64842888020833, "end": 65.12919804687499, "pitch": 74, "velocity": 111}, {"start": 65.264414375, "end": 65.59494317708332, "pitch": 60, "velocity": 105}, {"start": 65.59494317708332, "end": 65.78725084375, "pitch": 67, "velocity": 107}, {"start": 65.80527968749999, "end": 66.04566427083333, "pitch": 74, "velocity": 107}, {"start": 66.09073638020833, "end": 66.36417384375, "pitch": 76, "velocity": 95}, {"start": 66.42126518229166, "end": 66.517419015625, "pitch": 67, "velocity": 88}, {"start": 66.50840459375, "end": 66.8148949375, "pitch": 69, "velocity": 106}, {"start": 66.83592858854166, "end": 67.01922183333333, "pitch": 69, "velocity": 108}, {"start": 67.03725067708334, "end": 67.52703426562499, "pitch": 67, "velocity": 109}, {"start": 67.65624097916667, "end": 67.74939000520833, "pitch": 55, "velocity": 99}, {"start": 67.74037558333333, "end": 67.92667363541666, "pitch": 67, "velocity": 113}, {"start": 67.95672170833333, "end": 68.06489477083333, "pitch": 62, "velocity": 86}, {"start": 68.07090438541667, "end": 68.26321205208333, "pitch": 55, "velocity": 102}, {"start": 68.27823608854166, "end": 68.37739472916667, "pitch": 55, "velocity": 99}, {"start": 68.36838030729166, "end": 68.54265913020834, "pitch": 67, "velocity": 89}, {"start": 68.56970239583333, "end": 68.69590430208333, "pitch": 64, "velocity": 96}, {"start": 68.69590430208333, "end": 68.87919754687499, "pitch": 55, "velocity": 92}, {"start": 68.897226390625, "end": 68.99338022395833, "pitch": 55, "velocity": 95}, {"start": 68.98436580208333, "end": 69.167659046875, "pitch": 67, "velocity": 92}, {"start": 69.18568789062499, "end": 69.311889796875, "pitch": 66, "velocity": 92}, {"start": 69.311889796875, "end": 69.49518304166666, "pitch": 55, "velocity": 106}, {"start": 69.51321188541667, "end": 69.762610890625, "pitch": 67, "velocity": 97}, {"start": 69.81068780729166, "end": 69.93088009895833, "pitch": 64, "velocity": 99}, {"start": 69.93088009895833, "end": 70.12018295833333, "pitch": 67, "velocity": 94}, {"start": 70.14422141666667, "end": 70.22535121354166, "pitch": 71, "velocity": 101}, {"start": 70.21934159895832, "end": 70.40263484375, "pitch": 74, "velocity": 107}, {"start": 70.42667330208333, "end": 70.54686559375, "pitch": 72, "velocity": 106}, {"start": 70.54686559375, "end": 70.73316364583333, "pitch": 62, "velocity": 107}, {"start": 70.75720210416667, "end": 70.8533559375, "pitch": 72, "velocity": 103}, {"start": 70.84133670833333, "end": 71.02763476041666, "pitch": 71, "velocity": 105}, {"start": 71.04566360416666, "end": 71.17186551041667, "pitch": 67, "velocity": 106}, {"start": 71.17186551041667, "end": 71.35515875520832, "pitch": 64, "velocity": 109}, {"start": 71.37318759895832, "end": 71.46934143229166, "pitch": 62, "velocity": 115}, {"start": 71.46032701041666, "end": 71.88400483854166, "pitch": 67, "velocity": 105}, {"start": 71.98917309375, "end": 72.08532692708333, "pitch": 62, "velocity": 108}, {"start": 72.07631250520834, "end": 72.26261055729167, "pitch": 69, "velocity": 106}, {"start": 72.286649015625, "end": 72.4038365, "pitch": 74, "velocity": 109}, {"start": 72.4038365, "end": 72.59914897395834, "pitch": 76, "velocity": 106}, {"start": 72.61417301041666, "end": 72.95071142708333, "pitch": 78, "velocity": 107}, {"start": 73.03184122395832, "end": 73.21513446875, "pitch": 76, "velocity": 107}, {"start": 73.2331633125, "end": 73.48556712499999, "pitch": 74, "velocity": 103}, {"start": 73.5216248125, "end": 73.64782671875, "pitch": 76, "velocity": 107}, {"start": 73.64782671875, "end": 73.82210554166666, "pitch": 78, "velocity": 102}, {"start": 73.83111996354167, "end": 74.11056704166666, "pitch": 81, "velocity": 102}, {"start": 74.16164876562499, "end": 74.25479779166666, "pitch": 78, "velocity": 105}, {"start": 74.24277856249999, "end": 74.42607180729166, "pitch": 76, "velocity": 111}, {"start": 74.45611988020833, "end": 74.72955734374999, "pitch": 74, "velocity": 102}, {"start": 74.78664868229166, "end": 74.882802515625, "pitch": 76, "velocity": 106}, {"start": 74.86777847916666, "end": 75.12318709895833, "pitch": 79, "velocity": 105}, {"start": 75.17727363020833, "end": 75.45071109375, "pitch": 83, "velocity": 94}, {"start": 75.50780243229167, "end": 75.69109567708333, "pitch": 81, "velocity": 94}, {"start": 75.70912452083333, "end": 76.20191291666666, "pitch": 79, "velocity": 104}, {"start": 76.325110015625, "end": 76.42126384895833, "pitch": 67, "velocity": 97}, {"start": 76.41224942708332, "end": 76.74277822916666, "pitch": 69, "velocity": 104}, {"start": 76.74277822916666, "end": 76.91705705208332, "pitch": 69, "velocity": 102}, {"start": 76.956119546875, "end": 77.44590313541666, "pitch": 67, "velocity": 100}, {"start": 77.57210504166666, "end": 77.64722522395833, "pitch": 55, "velocity": 113}, {"start": 77.65623964583332, "end": 77.839532890625, "pitch": 67, "velocity": 113}, {"start": 77.86056654166666, "end": 77.93568672395833, "pitch": 62, "velocity": 86}, {"start": 77.983763640625, "end": 78.16705688541666, "pitch": 55, "velocity": 102}, {"start": 78.18508572916666, "end": 78.28123956249999, "pitch": 55, "velocity": 99}, {"start": 78.272225140625, "end": 78.45551838541667, "pitch": 67, "velocity": 89}, {"start": 78.48556645833332, "end": 78.60575874999999, "pitch": 64, "velocity": 96}, {"start": 78.60575874999999, "end": 78.79205680208332, "pitch": 55, "velocity": 92}, {"start": 78.81609526041666, "end": 78.89722505729166, "pitch": 55, "velocity": 95}, {"start": 78.88821063541666, "end": 79.0745086875, "pitch": 67, "velocity": 92}, {"start": 79.09854714583332, "end": 79.21873943749999, "pitch": 66, "velocity": 92}, {"start": 79.21873943749999, "end": 79.408042296875, "pitch": 55, "velocity": 106}, {"start": 79.43208075520833, "end": 79.52222497395833, "pitch": 55, "velocity": 97}, {"start": 79.51922016666666, "end": 79.99998933333333, "pitch": 67, "velocity": 92}, {"start": 80.13220085416665, "end": 81.27402762499999, "pitch": 60, "velocity": 107}, {"start": 80.13220085416665, "end": 81.27402762499999, "pitch": 67, "velocity": 103}, {"start": 80.13220085416665, "end": 81.27402762499999, "pitch": 72, "velocity": 99}, {"start": 81.37919588020833, "end": 82.19650346354166, "pitch": 50, "velocity": 103}, {"start": 81.37919588020833, "end": 82.19650346354166, "pitch": 57, "velocity": 107}, {"start": 81.37919588020833, "end": 82.19650346354166, "pitch": 62, "velocity": 99}, {"start": 82.19650346354166, "end": 82.31970056249999, "pitch": 64, "velocity": 103}, {"start": 82.31970056249999, "end": 82.50299380729166, "pitch": 62, "velocity": 107}, {"start": 82.52402745833332, "end": 82.62018129166667, "pitch": 64, "velocity": 107}, {"start": 82.6081620625, "end": 82.79145530729166, "pitch": 72, "velocity": 102}, {"start": 82.82150338020833, "end": 82.93568605729166, "pitch": 64, "velocity": 115}, {"start": 82.93568605729166, "end": 83.12799372395833, "pitch": 69, "velocity": 104}, {"start": 83.15203218229166, "end": 83.23316197916667, "pitch": 72, "velocity": 104}, {"start": 83.22414755729166, "end": 83.40744080208333, "pitch": 71, "velocity": 100}, {"start": 83.437488875, "end": 83.55167155208333, "pitch": 62, "velocity": 105}, {"start": 83.55167155208333, "end": 83.74397921875, "pitch": 67, "velocity": 103}, {"start": 83.7620080625, "end": 83.85816189583333, "pitch": 71, "velocity": 104}, {"start": 83.84914747395833, "end": 84.03845033333333, "pitch": 69, "velocity": 103}, {"start": 84.05647917708333, "end": 84.17667146875, "pitch": 62, "velocity": 107}, {"start": 84.17667146875, "end": 84.36296952083333, "pitch": 66, "velocity": 103}, {"start": 84.384003171875, "end": 84.48015700520833, "pitch": 69, "velocity": 100}, {"start": 84.47114258333333, "end": 84.65143102083333, "pitch": 62, "velocity": 111}, {"start": 84.67246467187499, "end": 84.79566177083333, "pitch": 66, "velocity": 102}, {"start": 84.79566177083333, "end": 84.99397905208333, "pitch": 67, "velocity": 107}, {"start": 84.99998866666667, "end": 85.0961425, "pitch": 69, "velocity": 101}, {"start": 85.08412327083333, "end": 85.27342613020832, "pitch": 71, "velocity": 97}, {"start": 85.30046939583333, "end": 85.41164726562499, "pitch": 62, "velocity": 107}, {"start": 85.41164726562499, "end": 85.60996454687499, "pitch": 67, "velocity": 103}, {"start": 85.62498858333333, "end": 85.72414722395833, "pitch": 71, "velocity": 99}, {"start": 85.71513280208333, "end": 85.88340201041666, "pitch": 69, "velocity": 99}, {"start": 85.91645489062499, "end": 86.042656796875, "pitch": 62, "velocity": 112}, {"start": 86.042656796875, "end": 86.28304138020833, "pitch": 66, "velocity": 101}, {"start": 86.33111829687499, "end": 86.51441154166666, "pitch": 67, "velocity": 103}, {"start": 86.53244038541666, "end": 86.65864229166667, "pitch": 66, "velocity": 104}, {"start": 86.65864229166667, "end": 86.83893072916666, "pitch": 64, "velocity": 102}, {"start": 86.85996438020832, "end": 86.95611821354166, "pitch": 62, "velocity": 113}, {"start": 86.94710379166666, "end": 87.35876239062499, "pitch": 59, "velocity": 108}, {"start": 87.46393064583333, "end": 87.57510851562499, "pitch": 57, "velocity": 108}, {"start": 87.57210370833333, "end": 87.74938733854167, "pitch": 72, "velocity": 102}, {"start": 87.78244021875, "end": 87.89361808854166, "pitch": 64, "velocity": 115}, {"start": 87.89361808854166, "end": 88.0889305625, "pitch": 69, "velocity": 104}, {"start": 88.11296902083333, "end": 88.197103625, "pitch": 72, "velocity": 104}, {"start": 88.197103625, "end": 88.37438725520833, "pitch": 71, "velocity": 100}, {"start": 88.39241609895832, "end": 88.51861800520832, "pitch": 62, "velocity": 105}, {"start": 88.51861800520832, "end": 88.71092567187499, "pitch": 67, "velocity": 103}, {"start": 88.72895451562499, "end": 88.81609392708333, "pitch": 71, "velocity": 104}, {"start": 88.81609392708333, "end": 88.99337755729167, "pitch": 69, "velocity": 103}, {"start": 89.01441120833333, "end": 89.13760830729166, "pitch": 62, "velocity": 107}, {"start": 89.13760830729166, "end": 89.32991597395832, "pitch": 66, "velocity": 103}, {"start": 89.33893039583333, "end": 89.43508422916666, "pitch": 69, "velocity": 100}, {"start": 89.42606980729165, "end": 89.60936305208332, "pitch": 74, "velocity": 111}, {"start": 89.639411125, "end": 89.75359380208333, "pitch": 62, "velocity": 102}, {"start": 89.75359380208333, "end": 89.94590146875, "pitch": 66, "velocity": 107}, {"start": 89.9639303125, "end": 90.06008414583333, "pitch": 69, "velocity": 101}, {"start": 90.05106972395832, "end": 90.22835335416666, "pitch": 62, "velocity": 120}, {"start": 90.2523918125, "end": 90.37859371875, "pitch": 69, "velocity": 106}, {"start": 90.37859371875, "end": 90.56489177083333, "pitch": 74, "velocity": 104}, {"start": 90.57991580729166, "end": 90.68207925520832, "pitch": 78, "velocity": 109}, {"start": 90.67306483333333, "end": 90.94049268229166, "pitch": 79, "velocity": 110}, {"start": 90.99758402083333, "end": 91.09373785416666, "pitch": 59, "velocity": 111}, {"start": 91.08472343229167, "end": 91.20191091666666, "pitch": 62, "velocity": 118}, {"start": 91.20191091666666, "end": 91.29806475, "pitch": 64, "velocity": 113}, {"start": 91.28604552083333, "end": 91.41224742708333, "pitch": 67, "velocity": 108}, {"start": 91.41224742708333, "end": 91.50840126041666, "pitch": 71, "velocity": 104}, {"start": 91.49938683854167, "end": 91.61356951562499, "pitch": 74, "velocity": 103}, {"start": 91.61356951562499, "end": 91.70972334895833, "pitch": 76, "velocity": 106}, {"start": 91.70070892708333, "end": 91.82691083333333, "pitch": 79, "velocity": 104}, {"start": 91.82691083333333, "end": 91.9110454375, "pitch": 83, "velocity": 102}, {"start": 91.90804063020833, "end": 92.38280018229166, "pitch": 88, "velocity": 86}, {"start": 92.533040546875, "end": 92.71633379166666, "pitch": 72, "velocity": 102}, {"start": 92.73436263541666, "end": 92.86056454166666, "pitch": 64, "velocity": 115}, {"start": 92.86056454166666, "end": 93.04085297916666, "pitch": 69, "velocity": 104}, {"start": 93.06188663020832, "end": 93.15804046354167, "pitch": 72, "velocity": 104}, {"start": 93.14902604166666, "end": 93.32931447916665, "pitch": 71, "velocity": 100}, {"start": 93.35034813020833, "end": 93.47354522916666, "pitch": 62, "velocity": 105}, {"start": 93.47354522916666, "end": 93.66585289583332, "pitch": 67, "velocity": 103}, {"start": 93.677872125, "end": 93.77402595833333, "pitch": 71, "velocity": 104}, {"start": 93.76200672916666, "end": 93.94529997395833, "pitch": 69, "velocity": 103}, {"start": 93.975348046875, "end": 94.08953072395833, "pitch": 62, "velocity": 107}, {"start": 94.08953072395833, "end": 94.281838390625, "pitch": 66, "velocity": 103}, {"start": 94.30287204166666, "end": 94.39902587499999, "pitch": 69, "velocity": 100}, {"start": 94.38700664583332, "end": 94.56729508333332, "pitch": 62, "velocity": 111}, {"start": 94.59133354166666, "end": 94.714530640625, "pitch": 66, "velocity": 102}, {"start": 94.714530640625, "end": 94.89782388541666, "pitch": 67, "velocity": 107}, {"start": 94.91585272916666, "end": 95.01801617708333, "pitch": 69, "velocity": 101}, {"start": 95.00900175520833, "end": 95.19229499999999, "pitch": 71, "velocity": 97}, {"start": 95.21032384374999, "end": 95.33652574999999, "pitch": 62, "velocity": 107}, {"start": 95.33652574999999, "end": 95.51681418749999, "pitch": 67, "velocity": 103}, {"start": 95.53784783854167, "end": 95.634001671875, "pitch": 71, "velocity": 99}, {"start": 95.62498724999999, "end": 95.8052756875, "pitch": 69, "velocity": 99}, {"start": 95.83532376041666, "end": 95.94950643749999, "pitch": 62, "velocity": 112}, {"start": 95.94950643749999, "end": 96.20191025, "pitch": 66, "velocity": 101}, {"start": 96.24397755208332, "end": 96.42126118229166, "pitch": 67, "velocity": 103}, {"start": 96.45130925520833, "end": 96.571501546875, "pitch": 66, "velocity": 104}, {"start": 96.571501546875, "end": 96.76380921354166, "pitch": 64, "velocity": 102}, {"start": 96.77883324999999, "end": 96.877991890625, "pitch": 62, "velocity": 113}, {"start": 96.86897746874999, "end": 97.28364087499999, "pitch": 59, "velocity": 108}, {"start": 97.37979470833332, "end": 97.49397738541666, "pitch": 57, "velocity": 57}, {"start": 97.48496296354166, "end": 97.66825620833333, "pitch": 72, "velocity": 102}, {"start": 97.68628505208332, "end": 97.81248695833332, "pitch": 64, "velocity": 115}, {"start": 97.81248695833332, "end": 98.00479462499999, "pitch": 69, "velocity": 104}, {"start": 98.013809046875, "end": 98.10996288020833, "pitch": 72, "velocity": 104}, {"start": 98.10094845833332, "end": 98.28123689583333, "pitch": 71, "velocity": 100}, {"start": 98.31128496874999, "end": 98.42546764583332, "pitch": 62, "velocity": 105}, {"start": 98.42546764583332, "end": 98.61777531249999, "pitch": 67, "velocity": 103}, {"start": 98.63880896354166, "end": 98.734962796875, "pitch": 71, "velocity": 104}, {"start": 98.72594837499999, "end": 98.90323200520832, "pitch": 69, "velocity": 103}, {"start": 98.92727046354166, "end": 99.05046756249999, "pitch": 62, "velocity": 107}, {"start": 99.05046756249999, "end": 99.239770421875, "pitch": 66, "velocity": 103}, {"start": 99.25479445833332, "end": 99.35094829166665, "pitch": 69, "velocity": 100}, {"start": 99.3389290625, "end": 99.52823192187499, "pitch": 74, "velocity": 111}, {"start": 99.546260765625, "end": 99.672462671875, "pitch": 62, "velocity": 102}, {"start": 99.672462671875, "end": 99.85575591666667, "pitch": 66, "velocity": 107}, {"start": 99.87378476041665, "end": 99.96993859374999, "pitch": 69, "velocity": 101}, {"start": 99.96092417187499, "end": 100.14421741666666, "pitch": 71, "velocity": 97}, {"start": 100.17126068229166, "end": 100.28844816666665, "pitch": 62, "velocity": 107}, {"start": 100.28844816666665, "end": 100.48075583333333, "pitch": 67, "velocity": 103}, {"start": 100.49878467708332, "end": 100.58592408854166, "pitch": 71, "velocity": 99}, {"start": 100.57991447395833, "end": 100.75719810416666, "pitch": 69, "velocity": 99}, {"start": 100.78724617708333, "end": 100.90743846874999, "pitch": 62, "velocity": 112}, {"start": 100.90743846874999, "end": 101.15383266666666, "pitch": 66, "velocity": 101}, {"start": 101.20491439062499, "end": 101.38219802083333, "pitch": 67, "velocity": 103}, {"start": 101.40623647916667, "end": 101.53243838541665, "pitch": 66, "velocity": 104}, {"start": 101.53243838541665, "end": 101.71573163020832, "pitch": 64, "velocity": 102}, {"start": 101.73376047395833, "end": 101.82991430729166, "pitch": 59, "velocity": 113}, {"start": 101.82089988541667, "end": 102.00419313020832, "pitch": 57, "velocity": 108}, {"start": 102.02222197395832, "end": 102.11837580729166, "pitch": 57, "velocity": 108}, {"start": 102.12739022916666, "end": 102.31068347395832, "pitch": 62, "velocity": 108}, {"start": 102.34073154687499, "end": 102.42787095833333, "pitch": 66, "velocity": 108}, {"start": 102.43688538020832, "end": 102.764409375, "pitch": 67, "velocity": 101}, {"start": 102.43688538020832, "end": 102.84854397916666, "pitch": 62, "velocity": 106}, {"start": 102.43688538020832, "end": 102.95671704166666, "pitch": 55, "velocity": 100}, {"start": 102.764409375, "end": 103.17606797395833, "pitch": 67, "velocity": 103}, {"start": 102.97474588541667, "end": 103.31729391666666, "pitch": 60, "velocity": 103}, {"start": 103.59073138020833, "end": 103.67787079166666, "pitch": 60, "velocity": 107}, {"start": 103.38940929166667, "end": 103.79806308333333, "pitch": 67, "velocity": 103}, {"start": 103.67787079166666, "end": 104.09553900520832, "pitch": 62, "velocity": 108}, {"start": 103.8821976875, "end": 104.423063, "pitch": 55, "velocity": 98}, {"start": 104.00839959375, "end": 104.50719760416666, "pitch": 67, "velocity": 100}, {"start": 104.20972168229166, "end": 104.54626009895833, "pitch": 60, "velocity": 103}, {"start": 104.62438508854166, "end": 104.90383216666666, "pitch": 60, "velocity": 104}, {"start": 104.91585139583333, "end": 105.24337539062499, "pitch": 67, "velocity": 101}, {"start": 104.91585139583333, "end": 105.33051480208333, "pitch": 62, "velocity": 106}, {"start": 104.91585139583333, "end": 105.43568305729166, "pitch": 55, "velocity": 100}, {"start": 105.24337539062499, "end": 105.65803879687499, "pitch": 67, "velocity": 103}, {"start": 105.45070709375, "end": 105.79325512499999, "pitch": 60, "velocity": 103}, {"start": 106.06969739583333, "end": 106.15683680729165, "pitch": 60, "velocity": 107}, {"start": 105.86837530729166, "end": 106.28303871354166, "pitch": 67, "velocity": 103}, {"start": 106.15683680729165, "end": 106.34013005208332, "pitch": 62, "velocity": 108}, {"start": 106.48436080208333, "end": 106.67666846875, "pitch": 67, "velocity": 100}, {"start": 106.35815889583333, "end": 106.89902420833333, "pitch": 55, "velocity": 98}, {"start": 106.68568289062499, "end": 107.02222130729166, "pitch": 60, "velocity": 103}, {"start": 107.10034629687499, "end": 107.34373568749999, "pitch": 60, "velocity": 104}, {"start": 107.39782221875, "end": 107.51200489583333, "pitch": 78, "velocity": 100}, {"start": 107.51200489583333, "end": 107.60815872916666, "pitch": 81, "velocity": 100}, {"start": 107.59914430729167, "end": 107.72534621354166, "pitch": 76, "velocity": 96}, {"start": 107.72534621354166, "end": 107.812485625, "pitch": 74, "velocity": 93}, {"start": 107.80647601041666, "end": 107.92666830208333, "pitch": 71, "velocity": 92}, {"start": 107.92666830208333, "end": 108.02282213541666, "pitch": 69, "velocity": 97}, {"start": 108.01681252083333, "end": 108.200105765625, "pitch": 74, "velocity": 92}, {"start": 108.22113941666666, "end": 108.34133170833333, "pitch": 71, "velocity": 93}, {"start": 108.34133170833333, "end": 108.44049034895832, "pitch": 69, "velocity": 98}, {"start": 108.43147592708333, "end": 108.54565860416666, "pitch": 66, "velocity": 100}, {"start": 108.54565860416666, "end": 108.6418124375, "pitch": 71, "velocity": 97}, {"start": 108.632798015625, "end": 108.75899992187499, "pitch": 69, "velocity": 99}, {"start": 108.75899992187499, "end": 108.85515375520832, "pitch": 66, "velocity": 100}, {"start": 108.84613933333333, "end": 108.96032201041666, "pitch": 64, "velocity": 101}, {"start": 108.94229316666666, "end": 109.02642777083332, "pitch": 62, "velocity": 103}, {"start": 109.01741334895833, "end": 109.10455276041667, "pitch": 59, "velocity": 104}, {"start": 109.09553833854166, "end": 109.18267775, "pitch": 66, "velocity": 100}, {"start": 109.17065852083333, "end": 109.25779793229167, "pitch": 64, "velocity": 110}, {"start": 109.25479312499999, "end": 109.37498541666666, "pitch": 62, "velocity": 101}, {"start": 109.37498541666666, "end": 109.47113925, "pitch": 59, "velocity": 105}, {"start": 109.46512963541666, "end": 109.5793123125, "pitch": 57, "velocity": 109}, {"start": 109.5793123125, "end": 109.67546614583333, "pitch": 54, "velocity": 110}, {"start": 109.66645172395833, "end": 109.78664401562499, "pitch": 52, "velocity": 114}, {"start": 109.78664401562499, "end": 109.87979304166666, "pitch": 50, "velocity": 111}, {"start": 109.87979304166666, "end": 109.88880746354165, "pitch": 50, "velocity": 118}, {"start": 109.87979304166666, "end": 110.20431222916666, "pitch": 55, "velocity": 106}, {"start": 110.20431222916666, "end": 110.61897563541666, "pitch": 67, "velocity": 103}, {"start": 110.408639125, "end": 110.82029772395833, "pitch": 60, "velocity": 107}, {"start": 110.82029772395833, "end": 111.23496113020833, "pitch": 67, "velocity": 107}, {"start": 111.02161981249999, "end": 111.274023625, "pitch": 60, "velocity": 106}, {"start": 111.32210054166666, "end": 111.43628321874999, "pitch": 55, "velocity": 107}, {"start": 111.43628321874999, "end": 111.85094662499999, "pitch": 67, "velocity": 106}, {"start": 111.64661972916666, "end": 111.98315814583333, "pitch": 60, "velocity": 103}, {"start": 112.06128313541666, "end": 112.35575424999999, "pitch": 60, "velocity": 104}, {"start": 112.35575424999999, "end": 112.55707633854166, "pitch": 62, "velocity": 104}, {"start": 112.55707633854166, "end": 112.68027343749999, "pitch": 62, "velocity": 104}, {"start": 112.68027343749999, "end": 112.86356668229166, "pitch": 64, "velocity": 106}, {"start": 112.88460033333332, "end": 113.09493684374999, "pitch": 67, "velocity": 105}, {"start": 113.18207625520833, "end": 113.50960024999999, "pitch": 69, "velocity": 103}, {"start": 113.50960024999999, "end": 113.71092233854166, "pitch": 69, "velocity": 97}, {"start": 113.79806174999999, "end": 114.12258093749999, "pitch": 67, "velocity": 101}, {"start": 114.12859055208332, "end": 114.329912640625, "pitch": 69, "velocity": 101}, {"start": 114.41104243749999, "end": 114.82570584374999, "pitch": 71, "velocity": 105}, {"start": 114.82570584374999, "end": 115.15623464583332, "pitch": 55, "velocity": 100}, {"start": 114.82570584374999, "end": 115.15623464583332, "pitch": 67, "velocity": 103}, {"start": 114.82570584374999, "end": 115.15623464583332, "pitch": 74, "velocity": 101}, {"start": 114.82570584374999, "end": 115.55286920833332, "pitch": 50, "velocity": 106}, {"start": 115.15623464583332, "end": 115.57089805208332, "pitch": 67, "velocity": 103}, {"start": 115.36056154166666, "end": 115.772220140625, "pitch": 60, "velocity": 103}, {"start": 115.98556145833332, "end": 116.06969606249999, "pitch": 60, "velocity": 107}, {"start": 115.772220140625, "end": 116.186883546875, "pitch": 67, "velocity": 103}, {"start": 116.06969606249999, "end": 116.59854214583332, "pitch": 62, "velocity": 108}, {"start": 116.39722005729166, "end": 116.80587384895833, "pitch": 67, "velocity": 100}, {"start": 116.59854214583332, "end": 117.01320555208332, "pitch": 60, "velocity": 103}, {"start": 117.01320555208332, "end": 117.30767666666667, "pitch": 60, "velocity": 104}, {"start": 117.30767666666667, "end": 117.51801317708333, "pitch": 62, "velocity": 99}, {"start": 117.51801317708333, "end": 117.63219585416665, "pitch": 62, "velocity": 99}, {"start": 117.63219585416665, "end": 117.82450352083333, "pitch": 64, "velocity": 99}, {"start": 117.845537171875, "end": 118.04685926041665, "pitch": 67, "velocity": 103}, {"start": 118.13399867187499, "end": 118.31729191666666, "pitch": 69, "velocity": 104}, {"start": 118.33532076041666, "end": 118.42246017187499, "pitch": 72, "velocity": 98}, {"start": 118.41344575, "end": 118.49758035416666, "pitch": 76, "velocity": 87}, {"start": 118.48856593229166, "end": 118.846138, "pitch": 74, "velocity": 89}, {"start": 118.93027260416666, "end": 119.017412015625, "pitch": 72, "velocity": 96}, {"start": 119.00839759374999, "end": 119.09854181249999, "pitch": 71, "velocity": 100}, {"start": 119.089527390625, "end": 119.36897446875, "pitch": 67, "velocity": 105}, {"start": 119.49517637499999, "end": 119.70551288541665, "pitch": 64, "velocity": 115}, {"start": 119.70551288541665, "end": 119.79265229687499, "pitch": 62, "velocity": 114}, {"start": 119.79265229687499, "end": 120.26741184895833, "pitch": 67, "velocity": 105}, {"start": 120.41765221354166, "end": 120.89842138020832, "pitch": 55, "velocity": 110}, {"start": 120.73315697916667, "end": 120.92245983854166, "pitch": 67, "velocity": 107}, {"start": 120.41765221354166, "end": 120.94649829687499, "pitch": 60, "velocity": 98}, {"start": 120.94649829687499, "end": 121.02762809375, "pitch": 60, "velocity": 104}, {"start": 121.02762809375, "end": 121.21993576041666, "pitch": 62, "velocity": 104}, {"start": 121.23495979687499, "end": 121.35515208854166, "pitch": 60, "velocity": 103}, {"start": 121.35515208854166, "end": 121.53844533333333, "pitch": 67, "velocity": 103}, {"start": 121.55647417708333, "end": 121.89902220833332, "pitch": 60, "velocity": 107}, {"start": 121.98015200520832, "end": 122.22955101041666, "pitch": 60, "velocity": 108}, {"start": 122.26861350520832, "end": 122.43988752083332, "pitch": 62, "velocity": 111}, {"start": 122.47895001562499, "end": 122.5961375, "pitch": 62, "velocity": 107}, {"start": 122.5961375, "end": 122.78844516666666, "pitch": 64, "velocity": 114}, {"start": 122.80647401041666, "end": 123.055873015625, "pitch": 67, "velocity": 109}, {"start": 123.09493551041666, "end": 123.36837297395833, "pitch": 69, "velocity": 110}, {"start": 123.4254643125, "end": 123.66584889583332, "pitch": 69, "velocity": 105}, {"start": 123.70491139062499, "end": 123.98435846874999, "pitch": 67, "velocity": 109}, {"start": 124.04144980729166, "end": 124.29084881249999, "pitch": 69, "velocity": 106}, {"start": 124.32991130729165, "end": 124.48315647916665, "pitch": 71, "velocity": 103}, {"start": 124.75358913541666, "end": 124.95491122395832, "pitch": 67, "velocity": 103}, {"start": 124.75358913541666, "end": 125.264406375, "pitch": 50, "velocity": 106}, {"start": 124.75358913541666, "end": 125.264406375, "pitch": 55, "velocity": 100}, {"start": 124.75358913541666, "end": 125.264406375, "pitch": 74, "velocity": 101}, {"start": 125.07209870833333, "end": 125.264406375, "pitch": 67, "velocity": 103}, {"start": 125.28243521875, "end": 125.60995921354166, "pitch": 60, "velocity": 103}, {"start": 125.69108901041666, "end": 125.87438225520833, "pitch": 67, "velocity": 103}, {"start": 125.89241109895832, "end": 125.98856493229165, "pitch": 60, "velocity": 107}, {"start": 125.98856493229165, "end": 126.16284375520833, "pitch": 62, "velocity": 108}, {"start": 126.20190625, "end": 126.31608892708333, "pitch": 55, "velocity": 98}, {"start": 126.31608892708333, "end": 126.50839659374999, "pitch": 67, "velocity": 100}, {"start": 126.5264254375, "end": 126.850944625, "pitch": 60, "velocity": 103}, {"start": 126.92305999999999, "end": 127.17245900520832, "pitch": 60, "velocity": 104}, {"start": 127.22955034374999, "end": 127.43087243229166, "pitch": 67, "velocity": 101}, {"start": 127.22955034374999, "end": 127.73435796874999, "pitch": 62, "velocity": 106}, {"start": 127.22955034374999, "end": 127.73435796874999, "pitch": 55, "velocity": 100}, {"start": 127.56007914583333, "end": 127.73435796874999, "pitch": 67, "velocity": 103}, {"start": 127.76440604166666, "end": 128.10094445833332, "pitch": 60, "velocity": 103}, {"start": 128.176064640625, "end": 128.3653675, "pitch": 67, "velocity": 103}, {"start": 128.36837230729165, "end": 128.71392514583331, "pitch": 60, "velocity": 107}, {"start": 128.79205013541664, "end": 128.98435780208334, "pitch": 71, "velocity": 107}, {"start": 129.00238664583333, "end": 129.09854047916667, "pitch": 70, "velocity": 98}, {"start": 129.08051163541666, "end": 129.257795265625, "pitch": 69, "velocity": 101}, {"start": 129.29084814583334, "end": 129.4170500520833, "pitch": 67, "velocity": 104}, {"start": 129.4170500520833, "end": 129.600343296875, "pitch": 64, "velocity": 102}, {"start": 129.60935771875, "end": 129.70551155208332, "pitch": 67, "velocity": 104}, {"start": 129.90382883333334, "end": 130.033035546875, "pitch": 55, "velocity": 113}, {"start": 130.033035546875, "end": 130.21933359895831, "pitch": 69, "velocity": 103}, {"start": 130.24036725, "end": 130.483756640625, "pitch": 60, "velocity": 103}, {"start": 130.53784317187498, "end": 130.65202584895832, "pitch": 60, "velocity": 109}, {"start": 130.65202584895832, "end": 130.84433351562498, "pitch": 69, "velocity": 104}, {"start": 130.86536716666666, "end": 130.94048734895833, "pitch": 62, "velocity": 101}, {"start": 131.15382866666667, "end": 131.27402095833332, "pitch": 60, "velocity": 109}, {"start": 131.27402095833332, "end": 131.46031901041667, "pitch": 71, "velocity": 106}, {"start": 131.47834785416666, "end": 131.565487265625, "pitch": 70, "velocity": 98}, {"start": 131.565487265625, "end": 131.74277089583333, "pitch": 69, "velocity": 101}, {"start": 131.76680935416667, "end": 131.89301126041667, "pitch": 67, "velocity": 104}, {"start": 131.899020875, "end": 132.06729008333332, "pitch": 64, "velocity": 102}, {"start": 132.10034296354166, "end": 132.18147276041665, "pitch": 67, "velocity": 104}, {"start": 132.38279484895833, "end": 132.5120015625, "pitch": 55, "velocity": 113}, {"start": 132.5120015625, "end": 132.701304421875, "pitch": 69, "velocity": 103}, {"start": 132.71632845833332, "end": 132.95671304166666, "pitch": 60, "velocity": 103}, {"start": 133.0138043802083, "end": 133.12498225, "pitch": 60, "velocity": 109}, {"start": 133.12498225, "end": 133.3202947239583, "pitch": 69, "velocity": 104}, {"start": 133.341328375, "end": 133.43748220833334, "pitch": 62, "velocity": 101}, {"start": 133.629789875, "end": 133.75298697395831, "pitch": 60, "velocity": 109}, {"start": 133.75298697395831, "end": 133.93628021875, "pitch": 71, "velocity": 106}, {"start": 133.9543090625, "end": 134.04745808854165, "pitch": 70, "velocity": 98}, {"start": 134.04745808854165, "end": 134.21873210416666, "pitch": 69, "velocity": 101}, {"start": 134.2427705625, "end": 134.57930897916665, "pitch": 67, "velocity": 104}, {"start": 134.66344358333333, "end": 134.84373202083333, "pitch": 57, "velocity": 108}, {"start": 134.66344358333333, "end": 134.84373202083333, "pitch": 62, "velocity": 95}, {"start": 134.87378009374999, "end": 134.98796277083332, "pitch": 69, "velocity": 105}, {"start": 134.98796277083332, "end": 135.18027043749998, "pitch": 71, "velocity": 105}, {"start": 135.20130408854166, "end": 135.4687319375, "pitch": 60, "velocity": 107}, {"start": 135.20130408854166, "end": 135.4687319375, "pitch": 67, "velocity": 103}, {"start": 135.20130408854166, "end": 135.4687319375, "pitch": 72, "velocity": 102}, {"start": 135.48976558854164, "end": 135.60394826562498, "pitch": 69, "velocity": 107}, {"start": 135.60394826562498, "end": 135.79625593229167, "pitch": 71, "velocity": 107}, {"start": 135.81728958333332, "end": 136.08471743229165, "pitch": 67, "velocity": 102}, {"start": 135.81728958333332, "end": 136.08471743229165, "pitch": 60, "velocity": 104}, {"start": 135.81728958333332, "end": 136.090727046875, "pitch": 72, "velocity": 105}, {"start": 136.10575108333333, "end": 136.22894818229165, "pitch": 71, "velocity": 103}, {"start": 136.22894818229165, "end": 136.40322700520832, "pitch": 69, "velocity": 108}, {"start": 136.43027027083332, "end": 136.9831548125, "pitch": 67, "velocity": 101}, {"start": 136.43027027083332, "end": 136.9831548125, "pitch": 60, "velocity": 110}, {"start": 137.13339517708332, "end": 138.15803446354167, "pitch": 50, "velocity": 102}, {"start": 137.13339517708332, "end": 138.15803446354167, "pitch": 62, "velocity": 112}, {"start": 137.13339517708332, "end": 138.15803446354167, "pitch": 67, "velocity": 96}, {"start": 138.37738539583333, "end": 139.30587084895834, "pitch": 69, "velocity": 93}, {"start": 138.37738539583333, "end": 139.30587084895834, "pitch": 62, "velocity": 95}, {"start": 138.37738539583333, "end": 139.30587084895834, "pitch": 50, "velocity": 98}, {"start": 139.32690449999998, "end": 139.51921216666665, "pitch": 57, "velocity": 105}, {"start": 139.53724101041666, "end": 139.61837080729165, "pitch": 64, "velocity": 100}, {"start": 139.615366, "end": 140.54685626041666, "pitch": 69, "velocity": 109}, {"start": 140.56488510416665, "end": 140.74817834895833, "pitch": 64, "velocity": 99}, {"start": 140.76921199999998, "end": 140.86536583333333, "pitch": 67, "velocity": 107}, {"start": 140.85334660416666, "end": 141.13279368229166, "pitch": 71, "velocity": 107}, {"start": 141.18087059895834, "end": 141.373178265625, "pitch": 69, "velocity": 107}, {"start": 141.38219268749998, "end": 141.72474071874998, "pitch": 67, "velocity": 110}, {"start": 141.79685609375, "end": 141.99517337499998, "pitch": 64, "velocity": 114}, {"start": 142.00719260416665, "end": 142.07930797916666, "pitch": 74, "velocity": 114}, {"start": 142.10034163020833, "end": 142.58111079687498, "pitch": 76, "velocity": 111}, {"start": 142.716327125, "end": 142.86055787499998, "pitch": 74, "velocity": 109}, {"start": 142.869572296875, "end": 142.95671170833333, "pitch": 76, "velocity": 105}, {"start": 142.94469247916666, "end": 143.031831890625, "pitch": 74, "velocity": 110}, {"start": 143.02281746875, "end": 143.1129616875, "pitch": 71, "velocity": 107}, {"start": 143.10394726562498, "end": 143.1850770625, "pitch": 69, "velocity": 104}, {"start": 143.176062640625, "end": 143.26320205208333, "pitch": 74, "velocity": 106}, {"start": 143.25719243749998, "end": 143.34132704166666, "pitch": 71, "velocity": 104}, {"start": 143.3353174270833, "end": 143.45550971875, "pitch": 69, "velocity": 105}, {"start": 143.45550971875, "end": 143.55767316666666, "pitch": 67, "velocity": 106}, {"start": 143.5456539375, "end": 143.662841421875, "pitch": 64, "velocity": 101}, {"start": 143.662841421875, "end": 144.05647117708332, "pitch": 67, "velocity": 109}, {"start": 144.16163943229165, "end": 144.27882691666665, "pitch": 64, "velocity": 112}, {"start": 144.27882691666665, "end": 144.47113458333334, "pitch": 69, "velocity": 112}, {"start": 144.48916342708333, "end": 144.73856243229164, "pitch": 72, "velocity": 105}, {"start": 144.77762492708334, "end": 144.9038268333333, "pitch": 74, "velocity": 107}, {"start": 144.9038268333333, "end": 144.9879614375, "pitch": 76, "velocity": 107}, {"start": 144.9879614375, "end": 144.99998066666666, "pitch": 76, "velocity": 85}, {"start": 145.19228833333332, "end": 145.37858638541667, "pitch": 79, "velocity": 111}, {"start": 145.393610421875, "end": 145.57690366666665, "pitch": 78, "velocity": 109}, {"start": 145.60394693229165, "end": 145.78724017708333, "pitch": 79, "velocity": 107}, {"start": 145.80526902083332, "end": 145.99457188020833, "pitch": 78, "velocity": 107}, {"start": 146.01861033854166, "end": 146.20490839062498, "pitch": 62, "velocity": 124}, {"start": 146.21993242708334, "end": 146.40623047916665, "pitch": 72, "velocity": 117}, {"start": 146.43627855208334, "end": 146.60454776041666, "pitch": 78, "velocity": 114}, {"start": 146.63459583333332, "end": 146.82089388541667, "pitch": 81, "velocity": 108}, {"start": 146.835917921875, "end": 147.01921116666665, "pitch": 79, "velocity": 115}, {"start": 147.04625443229165, "end": 147.68026877083332, "pitch": 79, "velocity": 118}, {"start": 147.8725764375, "end": 147.98976392187498, "pitch": 78, "velocity": 111}, {"start": 147.98976392187498, "end": 148.54264846354167, "pitch": 76, "velocity": 113}, {"start": 148.69589363541667, "end": 148.82209554166667, "pitch": 50, "velocity": 122}, {"start": 148.82209554166667, "end": 149.31187913020833, "pitch": 52, "velocity": 126}, {"start": 149.43507622916667, "end": 149.5312300625, "pitch": 50, "velocity": 122}, {"start": 149.52221564062498, "end": 149.59132620833333, "pitch": 55, "velocity": 106}, {"start": 149.57029255729165, "end": 150.20430689583333, "pitch": 57, "velocity": 98}, {"start": 150.35454726041667, "end": 150.531830890625, "pitch": 59, "velocity": 105}, {"start": 150.5558693489583, "end": 150.73315297916665, "pitch": 60, "velocity": 110}, {"start": 150.76921066666665, "end": 151.18086926562498, "pitch": 67, "velocity": 112}, {"start": 151.30707117187498, "end": 151.39721539062498, "pitch": 62, "velocity": 115}, {"start": 151.39421058333332, "end": 151.81488360416665, "pitch": 69, "velocity": 104}, {"start": 151.92305666666667, "end": 152.01921049999999, "pitch": 64, "velocity": 114}, {"start": 152.00418646354166, "end": 152.1874797083333, "pitch": 71, "velocity": 106}, {"start": 152.2145229739583, "end": 152.334715265625, "pitch": 64, "velocity": 109}, {"start": 152.334715265625, "end": 152.524018125, "pitch": 71, "velocity": 116}, {"start": 152.54805658333333, "end": 152.62918638020832, "pitch": 72, "velocity": 111}, {"start": 152.62918638020832, "end": 152.90863345833333, "pitch": 74, "velocity": 110}, {"start": 152.94469114583333, "end": 153.05286420833332, "pitch": 74, "velocity": 115}, {"start": 153.03183055729167, "end": 153.22413822395833, "pitch": 76, "velocity": 112}, {"start": 153.24517187499998, "end": 153.52161414583333, "pitch": 74, "velocity": 113}, {"start": 153.58171029166667, "end": 153.758993921875, "pitch": 69, "velocity": 117}, {"start": 153.77401795833333, "end": 153.84012371875, "pitch": 67, "velocity": 108}, {"start": 153.86416217708333, "end": 154.13759964062498, "pitch": 67, "velocity": 113}, {"start": 154.19469097916667, "end": 154.44108517708332, "pitch": 71, "velocity": 111}, {"start": 154.480147671875, "end": 154.76259955729165, "pitch": 69, "velocity": 109}, {"start": 154.80767166666666, "end": 154.99997933333333, "pitch": 64, "velocity": 116}, {"start": 155.01800817708332, "end": 155.36356101562498, "pitch": 60, "velocity": 117}, {"start": 155.43267158333333, "end": 155.68207058854165, "pitch": 55, "velocity": 122}, {"start": 155.7211330833333, "end": 155.91344074999998, "pitch": 54, "velocity": 113}, {"start": 155.93146959375, "end": 156.10574841666664, "pitch": 62, "velocity": 106}, {"start": 156.14180610416665, "end": 156.31608492708332, "pitch": 69, "velocity": 100}, {"start": 156.3341137708333, "end": 156.82089255208334, "pitch": 74, "velocity": 113}, {"start": 156.95610888020832, "end": 157.14841654687498, "pitch": 62, "velocity": 114}, {"start": 157.166445390625, "end": 157.283632875, "pitch": 64, "velocity": 105}, {"start": 157.283632875, "end": 157.47594054166666, "pitch": 71, "velocity": 102}, {"start": 157.49396938541665, "end": 158.04084431249998, "pitch": 78, "velocity": 117}, {"start": 158.20009909895833, "end": 158.3293058125, "pitch": 64, "velocity": 116}, {"start": 158.3293058125, "end": 158.41344041666665, "pitch": 67, "velocity": 116}, {"start": 158.41344041666665, "end": 158.52762309374998, "pitch": 71, "velocity": 107}, {"start": 158.52762309374998, "end": 158.62377692708333, "pitch": 74, "velocity": 108}, {"start": 158.62377692708333, "end": 158.72894518229165, "pitch": 76, "velocity": 113}, {"start": 158.72894518229165, "end": 158.825099015625, "pitch": 79, "velocity": 111}, {"start": 158.825099015625, "end": 159.09853647916665, "pitch": 83, "velocity": 107}, {"start": 159.15262301041665, "end": 159.32089221875, "pitch": 79, "velocity": 113}, {"start": 159.3449306770833, "end": 159.4080316302083, "pitch": 83, "velocity": 104}, {"start": 159.39300759374999, "end": 159.45009893229167, "pitch": 79, "velocity": 109}, {"start": 159.45009893229167, "end": 159.56728641666666, "pitch": 81, "velocity": 104}, {"start": 159.56728641666666, "end": 159.6514210208333, "pitch": 79, "velocity": 106}, {"start": 159.6514210208333, "end": 159.7776229270833, "pitch": 76, "velocity": 112}, {"start": 159.7776229270833, "end": 159.85574791666664, "pitch": 74, "velocity": 111}, {"start": 159.85574791666664, "end": 159.978945015625, "pitch": 72, "velocity": 115}, {"start": 159.978945015625, "end": 160.06608442708333, "pitch": 76, "velocity": 113}, {"start": 160.06608442708333, "end": 160.18026710416666, "pitch": 74, "velocity": 112}, {"start": 160.18026710416666, "end": 160.27642093749998, "pitch": 72, "velocity": 114}, {"start": 160.25839209375, "end": 160.393608421875, "pitch": 69, "velocity": 110}, {"start": 160.393608421875, "end": 160.48976225520832, "pitch": 67, "velocity": 127}, {"start": 160.46872860416664, "end": 160.58591608854167, "pitch": 64, "velocity": 127}, {"start": 160.57089205208334, "end": 160.61295935416666, "pitch": 62, "velocity": 118}, {"start": 160.6339930052083, "end": 160.65803146354165, "pitch": 76, "velocity": 106}, {"start": 160.6730555, "end": 160.87437758854165, "pitch": 74, "velocity": 105}, {"start": 160.89240643229166, "end": 160.92245450520832, "pitch": 74, "velocity": 104}, {"start": 160.9404833489583, "end": 160.98555545833332, "pitch": 76, "velocity": 104}, {"start": 161.0035843020833, "end": 161.07569967708332, "pitch": 79, "velocity": 104}, {"start": 161.0937285208333, "end": 161.20190158333332, "pitch": 74, "velocity": 109}, {"start": 161.2199304270833, "end": 161.2860361875, "pitch": 71, "velocity": 113}, {"start": 161.29204580208332, "end": 161.403223671875, "pitch": 69, "velocity": 122}, {"start": 161.42125251562499, "end": 161.493367890625, "pitch": 67, "velocity": 126}, {"start": 161.51440154166664, "end": 161.53243038541666, "pitch": 71, "velocity": 115}, {"start": 161.56247845833332, "end": 161.61356018229165, "pitch": 69, "velocity": 121}, {"start": 161.619569796875, "end": 161.70670920833334, "pitch": 67, "velocity": 125}, {"start": 161.70670920833334, "end": 161.853944765625, "pitch": 64, "velocity": 123}, {"start": 161.86896880208332, "end": 161.90803129687498, "pitch": 79, "velocity": 115}, {"start": 161.926060140625, "end": 162.02221397395832, "pitch": 78, "velocity": 111}, {"start": 162.043247625, "end": 162.10935338541665, "pitch": 74, "velocity": 113}, {"start": 162.12738222916667, "end": 162.23555529166666, "pitch": 69, "velocity": 125}, {"start": 162.25358413541665, "end": 162.31968989583333, "pitch": 67, "velocity": 122}, {"start": 162.34072354687498, "end": 162.42786295833332, "pitch": 64, "velocity": 127}, {"start": 162.45490622395832, "end": 162.52401679166667, "pitch": 62, "velocity": 127}, {"start": 162.54204563541666, "end": 162.59012255208333, "pitch": 66, "velocity": 111}, {"start": 162.620170625, "end": 162.66824754166666, "pitch": 64, "velocity": 115}, {"start": 162.69529080729166, "end": 162.74937733854165, "pitch": 64, "velocity": 119}, {"start": 162.77341579687499, "end": 162.83050713541667, "pitch": 62, "velocity": 127}, {"start": 162.84853597916666, "end": 162.908632125, "pitch": 59, "velocity": 127}, {"start": 162.92666096874999, "end": 162.98375230729167, "pitch": 57, "velocity": 127}, {"start": 163.00478595833331, "end": 163.07089171874998, "pitch": 59, "velocity": 123}, {"start": 163.07690133333332, "end": 163.14901670833333, "pitch": 57, "velocity": 119}, {"start": 163.14901670833333, "end": 163.269209, "pitch": 55, "velocity": 123}, {"start": 163.28122822916666, "end": 163.35033879687498, "pitch": 52, "velocity": 127}, {"start": 163.37437725520832, "end": 163.47053108854166, "pitch": 50, "velocity": 127}, {"start": 163.48855993229165, "end": 163.68086759895832, "pitch": 47, "velocity": 118}, {"start": 163.70190125, "end": 164.3839925052083, "pitch": 40, "velocity": 115}, {"start": 164.40202134895833, "end": 164.5372376770833, "pitch": 76, "velocity": 110}, {"start": 164.594329015625, "end": 164.72954534374998, "pitch": 74, "velocity": 110}, {"start": 164.72954534374998, "end": 164.91283858854166, "pitch": 71, "velocity": 111}, {"start": 164.93086743229165, "end": 165.48375197395833, "pitch": 72, "velocity": 110}, {"start": 165.63699714583333, "end": 165.820290390625, "pitch": 74, "velocity": 107}, {"start": 165.84432884895833, "end": 165.96452114062498, "pitch": 72, "velocity": 112}, {"start": 165.96452114062498, "end": 166.15682880729165, "pitch": 71, "velocity": 113}, {"start": 166.17185284375, "end": 166.42726146354167, "pitch": 69, "velocity": 111}, {"start": 166.46632395833333, "end": 166.802862375, "pitch": 69, "velocity": 110}, {"start": 166.67666046875, "end": 166.8389200625, "pitch": 71, "velocity": 111}, {"start": 166.87798255729166, "end": 167.06127580208332, "pitch": 71, "velocity": 106}, {"start": 167.08531426041665, "end": 167.262597890625, "pitch": 72, "velocity": 107}, {"start": 167.29264596354164, "end": 167.47593920833333, "pitch": 72, "velocity": 107}, {"start": 167.49997766666667, "end": 167.677261296875, "pitch": 74, "velocity": 107}, {"start": 167.71031417708332, "end": 167.88759780729166, "pitch": 74, "velocity": 113}, {"start": 167.911636265625, "end": 168.08891989583333, "pitch": 76, "velocity": 107}, {"start": 168.12497758333333, "end": 168.29324679166666, "pitch": 76, "velocity": 105}, {"start": 168.32629967187498, "end": 168.44949677083332, "pitch": 78, "velocity": 111}, {"start": 168.44949677083332, "end": 168.62978520833332, "pitch": 79, "velocity": 114}, {"start": 168.65382366666665, "end": 168.9903620833333, "pitch": 83, "velocity": 104}, {"start": 169.06548226562498, "end": 169.31488127083333, "pitch": 79, "velocity": 110}, {"start": 169.353943765625, "end": 169.63339084375, "pitch": 78, "velocity": 108}, {"start": 169.687477375, "end": 169.93687638020833, "pitch": 79, "velocity": 107}, {"start": 169.975938875, "end": 170.2523811458333, "pitch": 79, "velocity": 107}, {"start": 170.30045806249998, "end": 170.49276572916665, "pitch": 78, "velocity": 112}, {"start": 170.50778976562498, "end": 170.60093879166666, "pitch": 79, "velocity": 111}, {"start": 170.60093879166666, "end": 170.71512146875, "pitch": 74, "velocity": 111}, {"start": 170.71512146875, "end": 170.81127530208332, "pitch": 79, "velocity": 110}, {"start": 170.8022608802083, "end": 170.92545797916665, "pitch": 69, "velocity": 121}, {"start": 170.92545797916665, "end": 171.0216118125, "pitch": 79, "velocity": 111}, {"start": 171.012597390625, "end": 171.12978487499998, "pitch": 67, "velocity": 126}, {"start": 171.12978487499998, "end": 171.22593870833333, "pitch": 79, "velocity": 113}, {"start": 171.21391947916666, "end": 171.34012138541667, "pitch": 72, "velocity": 119}, {"start": 171.34012138541667, "end": 171.418246375, "pitch": 79, "velocity": 115}, {"start": 171.418246375, "end": 171.5414434739583, "pitch": 76, "velocity": 114}, {"start": 171.5414434739583, "end": 171.63759730729166, "pitch": 79, "velocity": 114}, {"start": 171.62858288541665, "end": 171.74877517708333, "pitch": 78, "velocity": 114}, {"start": 171.74877517708333, "end": 171.83891939583333, "pitch": 79, "velocity": 121}, {"start": 171.82990497395832, "end": 171.95911168749998, "pitch": 74, "velocity": 117}, {"start": 171.95911168749998, "end": 172.05526552083333, "pitch": 79, "velocity": 117}, {"start": 172.04625109895832, "end": 172.16343858333332, "pitch": 72, "velocity": 117}, {"start": 172.16343858333332, "end": 172.25959241666666, "pitch": 79, "velocity": 120}, {"start": 172.24456838020834, "end": 172.37377509375, "pitch": 76, "velocity": 116}, {"start": 172.37377509375, "end": 172.46992892708332, "pitch": 79, "velocity": 115}, {"start": 172.46091450520834, "end": 172.62918371354166, "pitch": 78, "velocity": 119}, {"start": 172.65622697916666, "end": 172.84552983854167, "pitch": 79, "velocity": 122}, {"start": 172.860553875, "end": 173.0468519270833, "pitch": 78, "velocity": 116}, {"start": 173.0769, "end": 173.2571884375, "pitch": 81, "velocity": 114}, {"start": 173.27221247395832, "end": 173.40141918749998, "pitch": 83, "velocity": 110}, {"start": 173.40141918749998, "end": 173.58471243229167, "pitch": 84, "velocity": 114}, {"start": 173.60574608333332, "end": 174.095529671875, "pitch": 83, "velocity": 111}, {"start": 174.23074599999998, "end": 174.311875796875, "pitch": 59, "velocity": 112}, {"start": 174.311875796875, "end": 174.49516904166666, "pitch": 60, "velocity": 118}, {"start": 174.5192075, "end": 174.63939979166665, "pitch": 64, "velocity": 116}, {"start": 174.63939979166665, "end": 174.8317074583333, "pitch": 67, "velocity": 125}, {"start": 174.84372668749998, "end": 174.94589013541665, "pitch": 71, "velocity": 114}, {"start": 174.92786129166666, "end": 175.12016895833332, "pitch": 74, "velocity": 126}, {"start": 175.1381978020833, "end": 175.41764488020831, "pitch": 76, "velocity": 118}, {"start": 175.465721796875, "end": 175.56187563020833, "pitch": 63, "velocity": 122}, {"start": 175.55286120833333, "end": 175.73314964583332, "pitch": 66, "velocity": 118}, {"start": 175.754183296875, "end": 175.88339001041666, "pitch": 69, "velocity": 113}, {"start": 175.88339001041666, "end": 176.06968806249998, "pitch": 72, "velocity": 115}, {"start": 176.08471209895833, "end": 176.18086593229165, "pitch": 75, "velocity": 124}, {"start": 176.16584189583332, "end": 176.35514475520833, "pitch": 76, "velocity": 121}, {"start": 176.37918321354167, "end": 176.49937550520832, "pitch": 80, "velocity": 111}, {"start": 176.49937550520832, "end": 176.74276489583332, "pitch": 81, "velocity": 117}, {"start": 176.7908418125, "end": 177.719327265625, "pitch": 83, "velocity": 105}, {"start": 177.74036091666665, "end": 178.00778876562498, "pitch": 84, "velocity": 110}, {"start": 178.02882241666666, "end": 178.83411077083332, "pitch": 86, "velocity": 96}, {"start": 178.855144421875, "end": 178.97533671354165, "pitch": 64, "velocity": 114}, {"start": 178.97533671354165, "end": 179.16764438020832, "pitch": 62, "velocity": 115}, {"start": 179.18266841666664, "end": 179.26379821354166, "pitch": 64, "velocity": 115}, {"start": 179.27281263541664, "end": 179.45610588020833, "pitch": 72, "velocity": 102}, {"start": 179.47413472395831, "end": 179.60033663020832, "pitch": 64, "velocity": 115}, {"start": 179.60033663020832, "end": 179.783629875, "pitch": 69, "velocity": 104}, {"start": 179.80165871875, "end": 179.8978125520833, "pitch": 72, "velocity": 104}, {"start": 179.88879813020833, "end": 180.07209137499999, "pitch": 71, "velocity": 100}, {"start": 180.09012021875, "end": 180.21632212499998, "pitch": 62, "velocity": 105}, {"start": 180.21632212499998, "end": 180.40862979166667, "pitch": 67, "velocity": 103}, {"start": 180.4206490208333, "end": 180.513798046875, "pitch": 71, "velocity": 104}, {"start": 180.504783625, "end": 180.68507206249998, "pitch": 69, "velocity": 103}, {"start": 180.71512013541667, "end": 180.83531242708332, "pitch": 62, "velocity": 107}, {"start": 180.83531242708332, "end": 181.02161047916667, "pitch": 66, "velocity": 103}, {"start": 181.04564893749998, "end": 181.14180277083332, "pitch": 69, "velocity": 100}, {"start": 181.12978354166665, "end": 181.30105755729164, "pitch": 62, "velocity": 111}, {"start": 181.33110563020833, "end": 181.46031234375, "pitch": 66, "velocity": 102}, {"start": 181.46031234375, "end": 181.64360558854165, "pitch": 67, "velocity": 107}, {"start": 181.66163443229166, "end": 181.75478345833332, "pitch": 69, "velocity": 101}, {"start": 181.74276422916665, "end": 181.93206708854166, "pitch": 71, "velocity": 97}, {"start": 181.95009593229165, "end": 182.07629783854165, "pitch": 62, "velocity": 107}, {"start": 182.07629783854165, "end": 182.25959108333333, "pitch": 67, "velocity": 103}, {"start": 182.27761992708332, "end": 182.37377376041667, "pitch": 71, "velocity": 99}, {"start": 182.36475933854166, "end": 182.55105739062498, "pitch": 69, "velocity": 99}, {"start": 182.5750958489583, "end": 182.69228333333334, "pitch": 62, "velocity": 112}, {"start": 182.69228333333334, "end": 182.94168233854165, "pitch": 66, "velocity": 101}, {"start": 182.98074483333332, "end": 183.16704288541666, "pitch": 67, "velocity": 103}, {"start": 183.19108134375, "end": 183.31127363541665, "pitch": 66, "velocity": 104}, {"start": 183.31127363541665, "end": 183.50358130208332, "pitch": 64, "velocity": 102}, {"start": 183.51860533854165, "end": 183.614759171875, "pitch": 62, "velocity": 113}, {"start": 183.60874955729165, "end": 184.08951872395832, "pitch": 59, "velocity": 108}, {"start": 184.22473505208333, "end": 184.408028296875, "pitch": 72, "velocity": 102}, {"start": 184.42605714062498, "end": 184.55225904687498, "pitch": 64, "velocity": 115}, {"start": 184.55225904687498, "end": 184.74456671354164, "pitch": 69, "velocity": 104}, {"start": 184.75358113541665, "end": 184.84973496875, "pitch": 72, "velocity": 104}, {"start": 184.840720546875, "end": 185.02401379166665, "pitch": 71, "velocity": 100}, {"start": 185.05105705729164, "end": 185.16824454166667, "pitch": 62, "velocity": 105}, {"start": 185.16824454166667, "end": 185.36055220833333, "pitch": 67, "velocity": 103}, {"start": 185.37858105208332, "end": 185.47473488541667, "pitch": 71, "velocity": 104}, {"start": 185.46572046354166, "end": 185.63699447916665, "pitch": 69, "velocity": 102}, {"start": 185.66704255208333, "end": 185.796249265625, "pitch": 62, "velocity": 110}, {"start": 185.796249265625, "end": 186.27701843229167, "pitch": 76, "velocity": 110}, {"start": 186.41223476041665, "end": 186.5955280052083, "pitch": 76, "velocity": 107}, {"start": 186.61055204166666, "end": 186.805864515625, "pitch": 76, "velocity": 109}, {"start": 186.82689816666667, "end": 186.89300392708333, "pitch": 70, "velocity": 109}, {"start": 186.91103277083332, "end": 187.08531159375, "pitch": 69, "velocity": 111}, {"start": 187.11535966666665, "end": 187.22052792187498, "pitch": 67, "velocity": 101}, {"start": 187.238556765625, "end": 187.32569617708333, "pitch": 67, "velocity": 85}, {"start": 187.31668175520832, "end": 187.51199422916665, "pitch": 71, "velocity": 111}, {"start": 187.52701826562497, "end": 187.64420575, "pitch": 71, "velocity": 110}, {"start": 187.64420575, "end": 187.83651341666666, "pitch": 74, "velocity": 106}, {"start": 187.85454226041665, "end": 187.92665763541666, "pitch": 76, "velocity": 104}, {"start": 187.94468647916665, "end": 188.12797972395833, "pitch": 76, "velocity": 111}, {"start": 188.14901337499998, "end": 188.27221047395832, "pitch": 78, "velocity": 115}, {"start": 188.27221047395832, "end": 188.45550371874998, "pitch": 79, "velocity": 111}, {"start": 188.4735325625, "end": 188.56968639583332, "pitch": 81, "velocity": 109}, {"start": 188.56067197395834, "end": 189.04144114062498, "pitch": 83, "velocity": 107}, {"start": 189.17665746875, "end": 189.35995071354165, "pitch": 84, "velocity": 102}, {"start": 189.38699397916665, "end": 189.50418146354164, "pitch": 76, "velocity": 115}, {"start": 189.50418146354164, "end": 189.69648913020833, "pitch": 81, "velocity": 104}, {"start": 189.71451797395832, "end": 189.81067180729164, "pitch": 84, "velocity": 104}, {"start": 189.80165738541666, "end": 189.9759362083333, "pitch": 83, "velocity": 100}, {"start": 190.00297947395833, "end": 190.1291813802083, "pitch": 74, "velocity": 105}, {"start": 190.1291813802083, "end": 190.312474625, "pitch": 79, "velocity": 103}, {"start": 190.33050346874998, "end": 190.42665730208333, "pitch": 83, "velocity": 104}, {"start": 190.41764288020832, "end": 190.60093612499998, "pitch": 81, "velocity": 103}, {"start": 190.6249745833333, "end": 190.745166875, "pitch": 74, "velocity": 107}, {"start": 190.745166875, "end": 190.9314649270833, "pitch": 78, "velocity": 103}, {"start": 190.94648896354167, "end": 191.04564760416665, "pitch": 81, "velocity": 100}, {"start": 191.03663318229167, "end": 191.21992642708332, "pitch": 74, "velocity": 111}, {"start": 191.24997449999998, "end": 191.3641571770833, "pitch": 78, "velocity": 102}, {"start": 191.3641571770833, "end": 191.55646484374998, "pitch": 79, "velocity": 107}, {"start": 191.5744936875, "end": 191.66163309895833, "pitch": 81, "velocity": 101}, {"start": 191.65862829166664, "end": 191.83591192187498, "pitch": 83, "velocity": 97}, {"start": 191.86295518749998, "end": 191.980142671875, "pitch": 74, "velocity": 107}, {"start": 191.980142671875, "end": 192.17245033854167, "pitch": 79, "velocity": 103}, {"start": 192.19047918229165, "end": 192.286633015625, "pitch": 83, "velocity": 99}, {"start": 192.27761859375, "end": 192.4639166458333, "pitch": 81, "velocity": 99}, {"start": 192.48495029687498, "end": 192.60814739583333, "pitch": 74, "velocity": 112}, {"start": 192.60814739583333, "end": 192.85454159374999, "pitch": 78, "velocity": 101}, {"start": 192.8966088958333, "end": 193.07689733333333, "pitch": 79, "velocity": 103}, {"start": 193.10093579166664, "end": 193.224132890625, "pitch": 78, "velocity": 104}, {"start": 193.224132890625, "end": 193.41644055729165, "pitch": 76, "velocity": 102}, {"start": 193.42545497916666, "end": 193.52160881249998, "pitch": 74, "velocity": 113}, {"start": 193.512594390625, "end": 193.99336355729164, "pitch": 71, "velocity": 108}, {"start": 194.13759430729166, "end": 194.3118731302083, "pitch": 72, "velocity": 102}, {"start": 194.3389163958333, "end": 194.4651183020833, "pitch": 64, "velocity": 115}, {"start": 194.4651183020833, "end": 194.648411546875, "pitch": 69, "velocity": 104}, {"start": 194.66644039062498, "end": 194.76259422395833, "pitch": 72, "velocity": 104}, {"start": 194.75357980208332, "end": 194.93987785416667, "pitch": 71, "velocity": 100}, {"start": 194.96091150520832, "end": 195.081103796875, "pitch": 62, "velocity": 105}, {"start": 195.08410860416666, "end": 195.26740184895831, "pitch": 67, "velocity": 103}, {"start": 195.37257010416664, "end": 195.45970951562498, "pitch": 78, "velocity": 105}, {"start": 195.45069509375, "end": 195.5378345052083, "pitch": 81, "velocity": 98}, {"start": 195.52882008333333, "end": 195.61295468749998, "pitch": 78, "velocity": 102}, {"start": 195.603940265625, "end": 195.6910796770833, "pitch": 74, "velocity": 103}, {"start": 195.68206525520833, "end": 195.748171015625, "pitch": 69, "velocity": 107}, {"start": 195.72112775, "end": 195.94949310416666, "pitch": 50, "velocity": 116}, {"start": 195.99456521354165, "end": 196.46932476562498, "pitch": 50, "velocity": 109}, {"start": 196.613555515625, "end": 196.79684876041665, "pitch": 71, "velocity": 113}, {"start": 196.82088721875, "end": 196.947089125, "pitch": 62, "velocity": 86}, {"start": 196.947089125, "end": 197.1273775625, "pitch": 67, "velocity": 102}, {"start": 197.14841121354166, "end": 197.24456504687498, "pitch": 71, "velocity": 99}, {"start": 197.23555062499997, "end": 197.4158390625, "pitch": 69, "velocity": 89}, {"start": 197.43687271354165, "end": 197.5600698125, "pitch": 62, "velocity": 96}, {"start": 197.5600698125, "end": 197.75237747916665, "pitch": 66, "velocity": 92}, {"start": 197.76439670833332, "end": 197.86055054166664, "pitch": 69, "velocity": 95}, {"start": 197.8485313125, "end": 198.03182455729166, "pitch": 67, "velocity": 92}, {"start": 198.0618726302083, "end": 198.17605530729165, "pitch": 66, "velocity": 92}, {"start": 198.17605530729165, "end": 198.3683629739583, "pitch": 64, "velocity": 106}, {"start": 198.389396625, "end": 198.4855504583333, "pitch": 59, "velocity": 97}, {"start": 198.47353122916667, "end": 198.64781005208332, "pitch": 57, "velocity": 92}, {"start": 198.677858125, "end": 198.80105522395831, "pitch": 57, "velocity": 99}, {"start": 198.80105522395831, "end": 198.98434846875, "pitch": 62, "velocity": 94}, {"start": 199.0023773125, "end": 199.09853114583333, "pitch": 66, "velocity": 101}, {"start": 199.09552633854165, "end": 199.27881958333333, "pitch": 67, "velocity": 113}, {"start": 199.2908388125, "end": 199.41704071874997, "pitch": 62, "velocity": 86}, {"start": 199.41704071874997, "end": 199.60333877083332, "pitch": 55, "velocity": 102}, {"start": 199.61836280729165, "end": 199.714516640625, "pitch": 55, "velocity": 99}, {"start": 199.71151183333333, "end": 199.89180027083333, "pitch": 67, "velocity": 89}, {"start": 199.92184834374999, "end": 200.03603102083332, "pitch": 64, "velocity": 96}, {"start": 200.03603102083332, "end": 200.22833868749998, "pitch": 55, "velocity": 92}, {"start": 200.24937233854166, "end": 200.33651175, "pitch": 55, "velocity": 95}, {"start": 200.32449252083333, "end": 200.507785765625, "pitch": 67, "velocity": 92}, {"start": 200.53783383854164, "end": 200.65201651562498, "pitch": 66, "velocity": 92}, {"start": 200.65201651562498, "end": 200.84432418229164, "pitch": 55, "velocity": 106}, {"start": 200.86535783333332, "end": 200.96151166666667, "pitch": 55, "velocity": 97}, {"start": 200.95550205208332, "end": 201.13278568229165, "pitch": 67, "velocity": 92}, {"start": 201.156824140625, "end": 201.27701643229165, "pitch": 64, "velocity": 99}, {"start": 201.27701643229165, "end": 201.46631929166665, "pitch": 55, "velocity": 94}, {"start": 201.48434813541667, "end": 201.58050196874999, "pitch": 55, "velocity": 101}, {"start": 201.57148754687498, "end": 201.7487711770833, "pitch": 67, "velocity": 113}, {"start": 201.77280963541665, "end": 201.89901154166665, "pitch": 62, "velocity": 86}, {"start": 201.89901154166665, "end": 202.09131920833332, "pitch": 55, "velocity": 102}, {"start": 202.10033363020833, "end": 202.19648746354164, "pitch": 55, "velocity": 99}, {"start": 202.18747304166666, "end": 202.6081460625, "pitch": 67, "velocity": 89}, {"start": 202.725333546875, "end": 202.8214873802083, "pitch": 62, "velocity": 95}, {"start": 202.81247295833333, "end": 202.98374697395832, "pitch": 72, "velocity": 104}, {"start": 203.01379504687498, "end": 203.13699214583332, "pitch": 72, "velocity": 104}, {"start": 203.13699214583332, "end": 203.32028539062497, "pitch": 71, "velocity": 103}, {"start": 203.34131904166665, "end": 203.437472875, "pitch": 69, "velocity": 104}, {"start": 203.42545364583333, "end": 203.84913147395832, "pitch": 74, "velocity": 96}, {"start": 203.96631895833332, "end": 204.0504535625, "pitch": 55, "velocity": 109}, {"start": 204.0504535625, "end": 204.230742, "pitch": 67, "velocity": 92}, {"start": 204.2637948802083, "end": 204.37797755729164, "pitch": 62, "velocity": 92}, {"start": 204.37797755729164, "end": 204.5702852239583, "pitch": 55, "velocity": 106}, {"start": 204.59131887499998, "end": 204.67545347916666, "pitch": 55, "velocity": 97}, {"start": 204.66643905729165, "end": 204.8497323020833, "pitch": 67, "velocity": 92}, {"start": 204.879780375, "end": 204.99396305208333, "pitch": 64, "velocity": 99}, {"start": 204.99396305208333, "end": 205.18627071875, "pitch": 55, "velocity": 94}, {"start": 205.20429956249998, "end": 205.30045339583333, "pitch": 55, "velocity": 101}, {"start": 205.29143897395832, "end": 205.47473221874998, "pitch": 67, "velocity": 113}, {"start": 205.4927610625, "end": 205.61896296875, "pitch": 66, "velocity": 86}, {"start": 205.61896296875, "end": 205.80225621354165, "pitch": 55, "velocity": 102}, {"start": 205.82028505729164, "end": 205.916438890625, "pitch": 55, "velocity": 99}, {"start": 205.90742446874998, "end": 206.51740034895832, "pitch": 67, "velocity": 89}, {"start": 206.52641477083333, "end": 207.10333777083332, "pitch": 79, "velocity": 107}, {"start": 207.124371421875, "end": 207.18146276041665, "pitch": 79, "velocity": 100}, {"start": 207.19949160416667, "end": 207.25958774999998, "pitch": 74, "velocity": 105}, {"start": 207.27761659375, "end": 207.33470793229165, "pitch": 76, "velocity": 107}, {"start": 207.35574158333333, "end": 207.41283292187498, "pitch": 79, "velocity": 111}, {"start": 207.430861765625, "end": 207.48795310416665, "pitch": 84, "velocity": 103}, {"start": 207.50898675520833, "end": 207.56607809374998, "pitch": 83, "velocity": 105}, {"start": 207.5841069375, "end": 207.6442030833333, "pitch": 79, "velocity": 109}, {"start": 207.66824154166665, "end": 207.74937133854166, "pitch": 76, "velocity": 111}, {"start": 207.76740018229165, "end": 207.82449152083333, "pitch": 81, "velocity": 108}, {"start": 207.84552517187498, "end": 207.90261651041666, "pitch": 79, "velocity": 108}, {"start": 207.92064535416665, "end": 207.98374630729165, "pitch": 76, "velocity": 109}, {"start": 207.99877034374998, "end": 208.05586168229166, "pitch": 79, "velocity": 108}, {"start": 208.079900140625, "end": 208.133986671875, "pitch": 78, "velocity": 101}, {"start": 208.15201551562498, "end": 208.21511646874998, "pitch": 76, "velocity": 101}, {"start": 208.2301405052083, "end": 208.2932414583333, "pitch": 74, "velocity": 108}, {"start": 208.31127030208333, "end": 208.36836164062498, "pitch": 72, "velocity": 106}, {"start": 208.38939529166666, "end": 208.4464866302083, "pitch": 79, "velocity": 112}, {"start": 208.46151066666664, "end": 208.52160681249998, "pitch": 78, "velocity": 107}, {"start": 208.54264046354166, "end": 208.60874622395832, "pitch": 74, "velocity": 118}, {"start": 208.61776064583333, "end": 208.68086159895833, "pitch": 72, "velocity": 124}, {"start": 208.69588563541666, "end": 208.76199139583332, "pitch": 76, "velocity": 127}, {"start": 208.76800101041664, "end": 208.84011638541665, "pitch": 74, "velocity": 115}, {"start": 208.84913080729166, "end": 208.91824137499998, "pitch": 76, "velocity": 127}, {"start": 208.927255796875, "end": 208.99336155729165, "pitch": 74, "velocity": 117}, {"start": 209.00237597916666, "end": 209.07148654687498, "pitch": 72, "velocity": 108}, {"start": 209.089515390625, "end": 209.14660672916665, "pitch": 71, "velocity": 109}, {"start": 209.16764038020833, "end": 209.22473171874998, "pitch": 69, "velocity": 108}, {"start": 209.2427605625, "end": 209.3028567083333, "pitch": 67, "velocity": 101}, {"start": 209.32088555208333, "end": 209.4561018802083, "pitch": 66, "velocity": 101}, {"start": 209.47413072395833, "end": 209.9158373958333, "pitch": 71, "velocity": 116}, {"start": 209.93687104687498, "end": 209.99997199999999, "pitch": 71, "velocity": 124}, {"start": 210.01199122916665, "end": 210.072087375, "pitch": 74, "velocity": 127}, {"start": 210.09612583333333, "end": 210.14720755729167, "pitch": 76, "velocity": 115}, {"start": 210.1682412083333, "end": 210.225332546875, "pitch": 71, "velocity": 127}, {"start": 210.24336139062498, "end": 210.32449118749997, "pitch": 69, "velocity": 124}, {"start": 210.32449118749997, "end": 210.40261617708333, "pitch": 67, "velocity": 127}, {"start": 210.40261617708333, "end": 210.4747315520833, "pitch": 64, "velocity": 115}, {"start": 210.4747315520833, "end": 210.55285654166664, "pitch": 62, "velocity": 127}, {"start": 210.55285654166664, "end": 210.58891422916665, "pitch": 59, "velocity": 124}, {"start": 210.58891422916665, "end": 210.70910652083333, "pitch": 57, "velocity": 127}, {"start": 210.70910652083333, "end": 210.8653565, "pitch": 55, "velocity": 115}, {"start": 210.8653565, "end": 212.70129375520833, "pitch": 67, "velocity": 127}, {"start": 210.8653565, "end": 212.70129375520833, "pitch": 62, "velocity": 127}, {"start": 210.8653565, "end": 212.70129375520833, "pitch": 55, "velocity": 127}, {"start": 212.72533221354166, "end": 212.91163026562498, "pitch": 62, "velocity": 127}, {"start": 212.72533221354166, "end": 212.91763988020833, "pitch": 67, "velocity": 127}, {"start": 212.72533221354166, "end": 212.91763988020833, "pitch": 55, "velocity": 127}]'),
(26498, '[{"start": 23.68422, "end": 23.90351833333333, "pitch": 58, "velocity": 124}, {"start": 23.947378, "end": 24.007685041666665, "pitch": 60, "velocity": 120}, {"start": 24.210535999999998, "end": 24.4325755625, "pitch": 61, "velocity": 127}, {"start": 24.473694, "end": 24.616237916666666, "pitch": 61, "velocity": 114}, {"start": 24.736852, "end": 24.8437599375, "pitch": 63, "velocity": 127}, {"start": 25.00001, "end": 25.32621627083333, "pitch": 60, "velocity": 127}, {"start": 25.394747, "end": 25.4605365, "pitch": 58, "velocity": 110}, {"start": 25.526325999999997, "end": 26.280164020833332, "pitch": 56, "velocity": 127}, {"start": 27.63159, "end": 27.831699729166665, "pitch": 58, "velocity": 127}, {"start": 27.894748, "end": 28.111305104166664, "pitch": 58, "velocity": 117}, {"start": 28.157906, "end": 28.3634981875, "pitch": 60, "velocity": 123}, {"start": 28.421063999999998, "end": 28.6266561875, "pitch": 61, "velocity": 123}, {"start": 28.684222, "end": 28.777423791666667, "pitch": 58, "velocity": 112}, {"start": 29.210538, "end": 29.325669625, "pitch": 56, "velocity": 127}, {"start": 29.473696, "end": 29.756042604166666, "pitch": 68, "velocity": 127}, {"start": 30.000011999999998, "end": 30.186415583333332, "pitch": 68, "velocity": 127}, {"start": 30.26317, "end": 31.052643999999997, "pitch": 63, "velocity": 127}, {"start": 31.842118, "end": 31.92983733333333, "pitch": 58, "velocity": 119}, {"start": 32.105275999999996, "end": 32.30812695833333, "pitch": 58, "velocity": 127}, {"start": 32.368434, "end": 32.425999812499995, "pitch": 60, "velocity": 111}, {"start": 32.631592, "end": 32.864596479166664, "pitch": 61, "velocity": 125}, {"start": 32.89475, "end": 32.9852105625, "pitch": 58, "velocity": 117}, {"start": 33.157908, "end": 33.382688791666666, "pitch": 61, "velocity": 127}, {"start": 33.421065999999996, "end": 33.4950791875, "pitch": 63, "velocity": 120}, {"start": 33.947382, "end": 34.172162791666665, "pitch": 60, "velocity": 123}, {"start": 34.21054, "end": 34.402426041666665, "pitch": 58, "velocity": 119}, {"start": 34.473698, "end": 34.542228729166666, "pitch": 60, "velocity": 117}, {"start": 34.605277, "end": 34.662842812499996, "pitch": 58, "velocity": 109}, {"start": 34.736855999999996, "end": 35.26865445833333, "pitch": 56, "velocity": 127}, {"start": 36.052645999999996, "end": 36.233567125, "pitch": 58, "velocity": 127}, {"start": 36.315804, "end": 36.521396187499995, "pitch": 58, "velocity": 127}, {"start": 36.578962, "end": 36.705058541666666, "pitch": 60, "velocity": 121}, {"start": 36.84212, "end": 37.05867710416666, "pitch": 61, "velocity": 127}, {"start": 37.105278, "end": 37.20670347916666, "pitch": 58, "velocity": 115}, {"start": 37.368435999999996, "end": 37.7220545625, "pitch": 56, "velocity": 127}, {"start": 37.894752, "end": 38.10582664583333, "pitch": 63, "velocity": 123}, {"start": 38.15791, "end": 38.3470548125, "pitch": 63, "velocity": 127}, {"start": 38.421068, "end": 38.615695270833335, "pitch": 63, "velocity": 125}, {"start": 38.684225999999995, "end": 38.8733708125, "pitch": 65, "velocity": 123}, {"start": 38.947384, "end": 39.501112291666665, "pitch": 63, "velocity": 127}, {"start": 40.000015999999995, "end": 41.129402416666665, "pitch": 61, "velocity": 127}, {"start": 41.315805999999995, "end": 41.41449025, "pitch": 63, "velocity": 127}, {"start": 41.578964, "end": 41.78729741666667, "pitch": 65, "velocity": 127}, {"start": 41.842121999999996, "end": 42.27523620833333, "pitch": 63, "velocity": 127}, {"start": 42.368438, "end": 42.45615733333333, "pitch": 63, "velocity": 123}, {"start": 42.631595999999995, "end": 42.83444695833333, "pitch": 63, "velocity": 127}, {"start": 42.894754, "end": 43.07841635416666, "pitch": 65, "velocity": 127}, {"start": 43.157911999999996, "end": 43.374469104166664, "pitch": 63, "velocity": 127}, {"start": 43.42107, "end": 43.5937674375, "pitch": 56, "velocity": 115}, {"start": 43.684228, "end": 44.100894833333335, "pitch": 56, "velocity": 127}, {"start": 45.000018, "end": 45.1069259375, "pitch": 56, "velocity": 127}, {"start": 45.263176, "end": 45.4687681875, "pitch": 58, "velocity": 127}, {"start": 45.526334, "end": 45.646948083333335, "pitch": 60, "velocity": 127}, {"start": 45.789491999999996, "end": 46.0115315625, "pitch": 61, "velocity": 127}, {"start": 46.05265, "end": 46.16229916666666, "pitch": 58, "velocity": 110}, {"start": 46.578966, "end": 46.78729941666666, "pitch": 63, "velocity": 127}, {"start": 46.842124, "end": 47.01208020833333, "pitch": 65, "velocity": 127}, {"start": 47.105281999999995, "end": 47.63708045833333, "pitch": 63, "velocity": 127}, {"start": 47.894756, "end": 47.97151041666667, "pitch": 56, "velocity": 127}, {"start": 48.026334999999996, "end": 48.0839008125, "pitch": 58, "velocity": 121}, {"start": 48.157914, "end": 48.23740964583333, "pitch": 61, "velocity": 125}, {"start": 48.289493, "end": 48.34157635416666, "pitch": 58, "velocity": 115}, {"start": 48.421071999999995, "end": 48.70615983333333, "pitch": 65, "velocity": 127}, {"start": 48.815808999999994, "end": 49.09267314583333, "pitch": 65, "velocity": 127}, {"start": 49.210546, "end": 49.64914266666666, "pitch": 63, "velocity": 127}, {"start": 50.00002, "end": 50.0740331875, "pitch": 56, "velocity": 127}, {"start": 50.131599, "end": 50.18368235416666, "pitch": 58, "velocity": 123}, {"start": 50.263177999999996, "end": 50.345414874999996, "pitch": 61, "velocity": 124}, {"start": 50.394757, "end": 50.44684035416667, "pitch": 58, "velocity": 121}, {"start": 50.526336, "end": 50.838836125, "pitch": 63, "velocity": 127}, {"start": 50.921073, "end": 51.200678374999995, "pitch": 63, "velocity": 127}, {"start": 51.31581, "end": 51.61460397916667, "pitch": 61, "velocity": 127}, {"start": 51.710547, "end": 51.787301416666665, "pitch": 60, "velocity": 105}, {"start": 51.842126, "end": 52.05868310416666, "pitch": 58, "velocity": 120}, {"start": 52.105284, "end": 52.1710735, "pitch": 56, "velocity": 119}, {"start": 52.236863, "end": 52.29168758333333, "pitch": 58, "velocity": 127}, {"start": 52.368441999999995, "end": 52.44519641666666, "pitch": 61, "velocity": 127}, {"start": 52.500021, "end": 52.549363125, "pitch": 58, "velocity": 121}, {"start": 52.6316, "end": 53.051008062499996, "pitch": 61, "velocity": 127}, {"start": 53.157916, "end": 53.27030639583333, "pitch": 63, "velocity": 119}, {"start": 53.421074, "end": 53.75550395833333, "pitch": 60, "velocity": 127}, {"start": 53.815811, "end": 53.876118041666665, "pitch": 58, "velocity": 102}, {"start": 53.94739, "end": 54.36131560416666, "pitch": 56, "velocity": 127}, {"start": 54.473706, "end": 54.59432008333333, "pitch": 56, "velocity": 127}, {"start": 54.736864, "end": 54.97260970833333, "pitch": 63, "velocity": 127}, {"start": 55.000021999999994, "end": 55.19464927083333, "pitch": 61, "velocity": 113}, {"start": 55.26318, "end": 55.74563633333333, "pitch": 61, "velocity": 124}, {"start": 56.315812, "end": 56.38434272916666, "pitch": 56, "velocity": 124}, {"start": 56.447390999999996, "end": 56.5049568125, "pitch": 58, "velocity": 125}, {"start": 56.57897, "end": 56.661206875, "pitch": 61, "velocity": 123}, {"start": 56.710549, "end": 56.76263235416666, "pitch": 58, "velocity": 120}, {"start": 56.842127999999995, "end": 57.280724666666664, "pitch": 65, "velocity": 127}, {"start": 57.368444, "end": 57.54662389583333, "pitch": 65, "velocity": 127}, {"start": 57.631602, "end": 58.12228202083333, "pitch": 63, "velocity": 127}, {"start": 58.421076, "end": 58.48960672916667, "pitch": 56, "velocity": 111}, {"start": 58.552654999999994, "end": 58.601997125, "pitch": 58, "velocity": 121}, {"start": 58.684234, "end": 58.76921210416666, "pitch": 61, "velocity": 119}, {"start": 58.815813, "end": 58.840484062499996, "pitch": 58, "velocity": 99}, {"start": 58.947392, "end": 59.40243604166666, "pitch": 68, "velocity": 127}, {"start": 59.473707999999995, "end": 59.561427333333334, "pitch": 61, "velocity": 127}, {"start": 59.736866, "end": 60.11241439583333, "pitch": 61, "velocity": 127}, {"start": 60.131603, "end": 60.1973925, "pitch": 60, "velocity": 105}, {"start": 60.263182, "end": 60.476997874999995, "pitch": 58, "velocity": 124}, {"start": 60.52634, "end": 60.5921295, "pitch": 56, "velocity": 114}, {"start": 60.657919, "end": 60.699037437499996, "pitch": 58, "velocity": 116}, {"start": 60.789497999999995, "end": 60.88544102083333, "pitch": 61, "velocity": 121}, {"start": 60.921077, "end": 60.9621954375, "pitch": 58, "velocity": 105}, {"start": 61.052656, "end": 61.5049588125, "pitch": 61, "velocity": 127}, {"start": 61.578972, "end": 61.672173791666665, "pitch": 63, "velocity": 120}, {"start": 61.84213, "end": 61.95452039583333, "pitch": 58, "velocity": 124}, {"start": 61.84213, "end": 62.20123102083333, "pitch": 60, "velocity": 116}, {"start": 62.236867, "end": 62.2944328125, "pitch": 58, "velocity": 108}, {"start": 62.368446, "end": 62.79333652083333, "pitch": 56, "velocity": 127}, {"start": 62.894762, "end": 63.004411166666664, "pitch": 56, "velocity": 127}, {"start": 63.15792, "end": 63.604740354166665, "pitch": 63, "velocity": 127}, {"start": 63.684236, "end": 64.259894125, "pitch": 61, "velocity": 127}, {"start": 65.526342, "end": 65.60309641666666, "pitch": 61, "velocity": 119}, {"start": 65.7895, "end": 66.04991677083333, "pitch": 61, "velocity": 123}, {"start": 66.052658, "end": 66.30759231249999, "pitch": 58, "velocity": 109}, {"start": 66.315816, "end": 66.57623277083333, "pitch": 61, "velocity": 121}, {"start": 66.578974, "end": 67.236869, "pitch": 63, "velocity": 123}, {"start": 67.6398296875, "end": 67.94684735416666, "pitch": 60, "velocity": 107}, {"start": 67.91395260416667, "end": 68.174369375, "pitch": 58, "velocity": 121}, {"start": 68.16340445833333, "end": 69.24344875, "pitch": 56, "velocity": 121}, {"start": 69.73687, "end": 69.819106875, "pitch": 58, "velocity": 109}, {"start": 70.000028, "end": 70.27689214583333, "pitch": 58, "velocity": 123}, {"start": 70.26318599999999, "end": 70.5016729375, "pitch": 60, "velocity": 117}, {"start": 70.526344, "end": 70.7648309375, "pitch": 61, "velocity": 119}, {"start": 70.789502, "end": 71.07184860416666, "pitch": 58, "velocity": 121}, {"start": 71.05266, "end": 71.365160125, "pitch": 56, "velocity": 123}, {"start": 71.842134, "end": 71.93533579166666, "pitch": 68, "velocity": 111}, {"start": 72.10529199999999, "end": 72.33007279166667, "pitch": 68, "velocity": 117}, {"start": 72.36845, "end": 72.81801158333333, "pitch": 63, "velocity": 125}, {"start": 72.89476599999999, "end": 73.04005114583333, "pitch": 65, "velocity": 111}, {"start": 73.157924, "end": 73.3964109375, "pitch": 63, "velocity": 125}, {"start": 73.421082, "end": 73.65408647916666, "pitch": 61, "velocity": 125}, {"start": 73.94739799999999, "end": 74.03511733333333, "pitch": 58, "velocity": 119}, {"start": 74.210556, "end": 74.41340695833333, "pitch": 58, "velocity": 127}, {"start": 74.473714, "end": 74.5312798125, "pitch": 60, "velocity": 111}, {"start": 74.73687199999999, "end": 74.96987647916666, "pitch": 61, "velocity": 125}, {"start": 75.00003, "end": 75.0904905625, "pitch": 58, "velocity": 117}, {"start": 75.263188, "end": 75.48796879166666, "pitch": 61, "velocity": 127}, {"start": 75.526346, "end": 75.60035918749999, "pitch": 63, "velocity": 120}, {"start": 76.052662, "end": 76.27744279166666, "pitch": 60, "velocity": 123}, {"start": 76.31582, "end": 76.50770604166667, "pitch": 58, "velocity": 119}, {"start": 76.57897799999999, "end": 76.64750872916666, "pitch": 60, "velocity": 117}, {"start": 76.710557, "end": 76.7681228125, "pitch": 58, "velocity": 109}, {"start": 76.842136, "end": 77.37393445833332, "pitch": 56, "velocity": 127}, {"start": 78.157926, "end": 78.338847125, "pitch": 58, "velocity": 127}, {"start": 78.421084, "end": 78.6266761875, "pitch": 58, "velocity": 127}, {"start": 78.684242, "end": 78.81033854166667, "pitch": 60, "velocity": 121}, {"start": 78.9474, "end": 79.16395710416667, "pitch": 61, "velocity": 127}, {"start": 79.21055799999999, "end": 79.31198347916667, "pitch": 58, "velocity": 115}, {"start": 79.473716, "end": 79.8273345625, "pitch": 56, "velocity": 127}, {"start": 80.26319, "end": 80.542795375, "pitch": 63, "velocity": 123}, {"start": 80.526348, "end": 80.63599716666667, "pitch": 65, "velocity": 113}, {"start": 80.789506, "end": 81.31033954166666, "pitch": 65, "velocity": 117}, {"start": 81.315822, "end": 82.00935297916666, "pitch": 63, "velocity": 121}, {"start": 82.105296, "end": 83.23468241666666, "pitch": 61, "velocity": 127}, {"start": 83.421086, "end": 83.51977025, "pitch": 63, "velocity": 127}, {"start": 83.68424399999999, "end": 83.89257741666667, "pitch": 65, "velocity": 127}, {"start": 83.947402, "end": 84.38051620833333, "pitch": 63, "velocity": 127}, {"start": 84.47371799999999, "end": 84.56143733333333, "pitch": 63, "velocity": 123}, {"start": 84.736876, "end": 84.93972695833332, "pitch": 63, "velocity": 127}, {"start": 85.000034, "end": 85.18369635416666, "pitch": 65, "velocity": 127}, {"start": 85.26319199999999, "end": 85.47974910416666, "pitch": 63, "velocity": 127}, {"start": 85.52635, "end": 85.6990474375, "pitch": 56, "velocity": 115}, {"start": 85.789508, "end": 86.20617483333334, "pitch": 56, "velocity": 127}, {"start": 87.10529799999999, "end": 87.2122059375, "pitch": 56, "velocity": 127}, {"start": 87.368456, "end": 87.5740481875, "pitch": 58, "velocity": 127}, {"start": 87.631614, "end": 87.75222808333334, "pitch": 60, "velocity": 127}, {"start": 87.894772, "end": 88.11681156249999, "pitch": 61, "velocity": 127}, {"start": 88.15793, "end": 88.26757916666666, "pitch": 58, "velocity": 110}, {"start": 88.684246, "end": 88.89257941666666, "pitch": 63, "velocity": 127}, {"start": 88.94740399999999, "end": 89.11736020833332, "pitch": 65, "velocity": 127}, {"start": 89.210562, "end": 89.74236045833332, "pitch": 63, "velocity": 127}, {"start": 90.000036, "end": 90.07679041666667, "pitch": 56, "velocity": 127}, {"start": 90.131615, "end": 90.1891808125, "pitch": 58, "velocity": 121}, {"start": 90.263194, "end": 90.34268964583333, "pitch": 61, "velocity": 125}, {"start": 90.394773, "end": 90.44685635416667, "pitch": 58, "velocity": 115}, {"start": 90.526352, "end": 90.81143983333332, "pitch": 65, "velocity": 127}, {"start": 90.921089, "end": 91.19795314583332, "pitch": 65, "velocity": 127}, {"start": 91.315826, "end": 91.75442266666666, "pitch": 63, "velocity": 127}, {"start": 92.1053, "end": 92.1793131875, "pitch": 56, "velocity": 127}, {"start": 92.236879, "end": 92.28896235416666, "pitch": 58, "velocity": 123}, {"start": 92.36845799999999, "end": 92.450694875, "pitch": 61, "velocity": 124}, {"start": 92.50003699999999, "end": 92.55212035416666, "pitch": 58, "velocity": 121}, {"start": 92.631616, "end": 92.944116125, "pitch": 63, "velocity": 127}, {"start": 93.026353, "end": 93.305958375, "pitch": 63, "velocity": 127}, {"start": 93.42108999999999, "end": 93.71988397916667, "pitch": 61, "velocity": 127}, {"start": 93.815827, "end": 93.89258141666666, "pitch": 60, "velocity": 105}, {"start": 93.947406, "end": 94.16396310416667, "pitch": 58, "velocity": 120}, {"start": 94.21056399999999, "end": 94.2763535, "pitch": 56, "velocity": 119}, {"start": 94.342143, "end": 94.39696758333334, "pitch": 58, "velocity": 127}, {"start": 94.473722, "end": 94.55047641666667, "pitch": 61, "velocity": 127}, {"start": 94.605301, "end": 94.65464312499999, "pitch": 58, "velocity": 121}, {"start": 94.73688, "end": 95.1562880625, "pitch": 61, "velocity": 127}, {"start": 95.263196, "end": 95.37558639583332, "pitch": 63, "velocity": 119}, {"start": 95.526354, "end": 95.86078395833333, "pitch": 60, "velocity": 127}, {"start": 95.92109099999999, "end": 95.98139804166667, "pitch": 58, "velocity": 102}, {"start": 96.05266999999999, "end": 96.46659560416666, "pitch": 56, "velocity": 127}, {"start": 96.578986, "end": 96.69960008333332, "pitch": 56, "velocity": 127}, {"start": 96.84214399999999, "end": 97.07788970833333, "pitch": 63, "velocity": 127}, {"start": 97.105302, "end": 97.29992927083333, "pitch": 61, "velocity": 113}, {"start": 97.36846, "end": 97.85091633333333, "pitch": 61, "velocity": 124}, {"start": 98.421092, "end": 98.48962272916667, "pitch": 56, "velocity": 124}, {"start": 98.55267099999999, "end": 98.61023681249999, "pitch": 58, "velocity": 125}, {"start": 98.68424999999999, "end": 98.766486875, "pitch": 61, "velocity": 123}, {"start": 98.815829, "end": 98.86791235416666, "pitch": 58, "velocity": 120}, {"start": 98.947408, "end": 99.38600466666666, "pitch": 65, "velocity": 127}, {"start": 99.47372399999999, "end": 99.65190389583333, "pitch": 65, "velocity": 127}, {"start": 99.736882, "end": 100.22756202083333, "pitch": 63, "velocity": 127}, {"start": 100.52635599999999, "end": 100.59488672916666, "pitch": 56, "velocity": 111}, {"start": 100.657935, "end": 100.70727712499999, "pitch": 58, "velocity": 121}, {"start": 100.789514, "end": 100.87449210416666, "pitch": 61, "velocity": 119}, {"start": 100.921093, "end": 100.94576406249999, "pitch": 58, "velocity": 99}, {"start": 101.052672, "end": 101.50771604166667, "pitch": 68, "velocity": 127}, {"start": 101.578988, "end": 101.66670733333333, "pitch": 61, "velocity": 127}, {"start": 101.842146, "end": 102.21769439583333, "pitch": 61, "velocity": 127}, {"start": 102.23688299999999, "end": 102.3026725, "pitch": 60, "velocity": 105}, {"start": 102.368462, "end": 102.582277875, "pitch": 58, "velocity": 124}, {"start": 102.63162, "end": 102.69740949999999, "pitch": 56, "velocity": 114}, {"start": 102.763199, "end": 102.80431743749999, "pitch": 58, "velocity": 116}, {"start": 102.894778, "end": 102.99072102083333, "pitch": 61, "velocity": 121}, {"start": 103.02635699999999, "end": 103.0674754375, "pitch": 58, "velocity": 105}, {"start": 103.15793599999999, "end": 103.6102388125, "pitch": 61, "velocity": 127}, {"start": 103.684252, "end": 103.77745379166666, "pitch": 63, "velocity": 120}, {"start": 103.94740999999999, "end": 104.05980039583334, "pitch": 58, "velocity": 124}, {"start": 103.94740999999999, "end": 104.30651102083333, "pitch": 60, "velocity": 116}, {"start": 104.342147, "end": 104.3997128125, "pitch": 58, "velocity": 108}, {"start": 104.473726, "end": 104.89861652083333, "pitch": 56, "velocity": 127}, {"start": 105.000042, "end": 105.10969116666666, "pitch": 56, "velocity": 127}, {"start": 105.2632, "end": 105.71002035416666, "pitch": 63, "velocity": 127}, {"start": 105.78951599999999, "end": 106.365174125, "pitch": 61, "velocity": 127}, {"start": 106.842148, "end": 106.90245504166666, "pitch": 56, "velocity": 119}, {"start": 106.973727, "end": 107.03403404166666, "pitch": 58, "velocity": 124}, {"start": 107.105306, "end": 107.1793191875, "pitch": 61, "velocity": 127}, {"start": 107.236885, "end": 107.30815695833333, "pitch": 58, "velocity": 127}, {"start": 107.36846399999999, "end": 107.65355183333332, "pitch": 65, "velocity": 127}, {"start": 107.763201, "end": 108.04006514583332, "pitch": 65, "velocity": 127}, {"start": 108.157938, "end": 108.59653466666666, "pitch": 63, "velocity": 127}, {"start": 108.947412, "end": 109.0214251875, "pitch": 56, "velocity": 127}, {"start": 109.078991, "end": 109.13107435416666, "pitch": 58, "velocity": 123}, {"start": 109.21056999999999, "end": 109.292806875, "pitch": 61, "velocity": 124}, {"start": 109.34214899999999, "end": 109.39423235416666, "pitch": 58, "velocity": 121}, {"start": 109.473728, "end": 109.786228125, "pitch": 63, "velocity": 127}, {"start": 109.868465, "end": 110.14807037499999, "pitch": 63, "velocity": 127}, {"start": 110.26320199999999, "end": 110.56199597916667, "pitch": 61, "velocity": 127}, {"start": 110.657939, "end": 110.73469341666666, "pitch": 60, "velocity": 105}, {"start": 110.789518, "end": 111.00607510416667, "pitch": 58, "velocity": 120}, {"start": 111.05267599999999, "end": 111.1184655, "pitch": 56, "velocity": 119}, {"start": 111.184255, "end": 111.23907958333334, "pitch": 58, "velocity": 127}, {"start": 111.315834, "end": 111.39258841666667, "pitch": 61, "velocity": 127}, {"start": 111.447413, "end": 111.49675512499999, "pitch": 58, "velocity": 121}, {"start": 111.578992, "end": 111.9984000625, "pitch": 61, "velocity": 127}, {"start": 112.105308, "end": 112.21769839583332, "pitch": 63, "velocity": 119}, {"start": 112.368466, "end": 112.70289595833333, "pitch": 60, "velocity": 127}, {"start": 112.76320299999999, "end": 112.82351004166667, "pitch": 58, "velocity": 102}, {"start": 112.89478199999999, "end": 113.30870760416666, "pitch": 56, "velocity": 127}, {"start": 113.421098, "end": 113.54171208333332, "pitch": 56, "velocity": 127}, {"start": 113.68425599999999, "end": 113.92000170833333, "pitch": 63, "velocity": 127}, {"start": 113.947414, "end": 114.14204127083333, "pitch": 61, "velocity": 113}, {"start": 114.210572, "end": 114.69302833333333, "pitch": 61, "velocity": 124}, {"start": 115.263204, "end": 115.33173472916666, "pitch": 56, "velocity": 124}, {"start": 115.39478299999999, "end": 115.45234881249999, "pitch": 58, "velocity": 125}, {"start": 115.52636199999999, "end": 115.608598875, "pitch": 61, "velocity": 123}, {"start": 115.657941, "end": 115.71002435416666, "pitch": 58, "velocity": 120}, {"start": 115.78952, "end": 116.22811666666666, "pitch": 65, "velocity": 127}, {"start": 116.31583599999999, "end": 116.49401589583333, "pitch": 65, "velocity": 127}, {"start": 116.578994, "end": 117.06967402083333, "pitch": 63, "velocity": 127}, {"start": 117.368468, "end": 117.43699872916666, "pitch": 56, "velocity": 111}, {"start": 117.500047, "end": 117.54938912499999, "pitch": 58, "velocity": 121}, {"start": 117.631626, "end": 117.71660410416666, "pitch": 61, "velocity": 119}, {"start": 117.763205, "end": 117.78787606249999, "pitch": 58, "velocity": 99}, {"start": 117.894784, "end": 118.34982804166667, "pitch": 68, "velocity": 127}, {"start": 118.4211, "end": 118.50881933333334, "pitch": 61, "velocity": 127}, {"start": 118.684258, "end": 119.05980639583333, "pitch": 61, "velocity": 127}, {"start": 119.07899499999999, "end": 119.1447845, "pitch": 60, "velocity": 105}, {"start": 119.210574, "end": 119.42438987499999, "pitch": 58, "velocity": 124}, {"start": 119.473732, "end": 119.53952149999999, "pitch": 56, "velocity": 114}, {"start": 119.605311, "end": 119.64642943749999, "pitch": 58, "velocity": 116}, {"start": 119.73688999999999, "end": 119.83283302083333, "pitch": 61, "velocity": 121}, {"start": 119.86846899999999, "end": 119.9095874375, "pitch": 58, "velocity": 105}, {"start": 120.00004799999999, "end": 120.4523508125, "pitch": 61, "velocity": 127}, {"start": 120.526364, "end": 120.61956579166666, "pitch": 63, "velocity": 120}, {"start": 120.78952199999999, "end": 120.90191239583334, "pitch": 58, "velocity": 124}, {"start": 120.78952199999999, "end": 121.14862302083333, "pitch": 60, "velocity": 116}, {"start": 121.184259, "end": 121.2418248125, "pitch": 58, "velocity": 108}, {"start": 121.315838, "end": 121.74072852083333, "pitch": 56, "velocity": 127}, {"start": 121.842154, "end": 121.95180316666666, "pitch": 56, "velocity": 127}, {"start": 122.105312, "end": 122.55213235416666, "pitch": 63, "velocity": 127}, {"start": 122.63162799999999, "end": 123.207286125, "pitch": 61, "velocity": 127}, {"start": 123.68426, "end": 123.74456704166666, "pitch": 56, "velocity": 119}, {"start": 123.815839, "end": 123.87614604166666, "pitch": 58, "velocity": 124}, {"start": 123.947418, "end": 124.0214311875, "pitch": 61, "velocity": 127}, {"start": 124.078997, "end": 124.15026895833333, "pitch": 58, "velocity": 127}, {"start": 158.42111599999998, "end": 158.64041433333333, "pitch": 58, "velocity": 124}, {"start": 158.684274, "end": 158.74458104166666, "pitch": 60, "velocity": 120}, {"start": 158.684274, "end": 158.90357233333333, "pitch": 58, "velocity": 106}, {"start": 158.947432, "end": 159.00773904166667, "pitch": 60, "velocity": 102}, {"start": 158.947432, "end": 159.1694715625, "pitch": 61, "velocity": 127}, {"start": 159.21059, "end": 159.35313391666665, "pitch": 61, "velocity": 109}, {"start": 159.21059, "end": 159.35313391666665, "pitch": 61, "velocity": 114}, {"start": 159.473748, "end": 159.58065593749998, "pitch": 63, "velocity": 127}, {"start": 159.473748, "end": 159.61629191666665, "pitch": 61, "velocity": 96}, {"start": 159.736906, "end": 159.8438139375, "pitch": 63, "velocity": 109}, {"start": 159.736906, "end": 160.06311227083333, "pitch": 60, "velocity": 127}, {"start": 160.00006399999998, "end": 160.06311227083333, "pitch": 60, "velocity": 109}, {"start": 160.131643, "end": 160.1974325, "pitch": 58, "velocity": 110}, {"start": 160.394801, "end": 160.4605905, "pitch": 58, "velocity": 92}, {"start": 160.26322199999998, "end": 161.01706002083333, "pitch": 56, "velocity": 127}, {"start": 160.52638, "end": 161.01706002083333, "pitch": 56, "velocity": 109}, {"start": 162.368486, "end": 162.56859572916667, "pitch": 58, "velocity": 127}, {"start": 162.631644, "end": 162.83175372916665, "pitch": 58, "velocity": 109}, {"start": 162.631644, "end": 162.83175372916665, "pitch": 58, "velocity": 117}, {"start": 162.894802, "end": 163.1003941875, "pitch": 60, "velocity": 123}, {"start": 162.894802, "end": 163.11135910416667, "pitch": 58, "velocity": 99}, {"start": 163.15796, "end": 163.3635521875, "pitch": 61, "velocity": 123}, {"start": 163.15796, "end": 163.3635521875, "pitch": 60, "velocity": 105}, {"start": 163.421118, "end": 163.51431979166665, "pitch": 58, "velocity": 112}, {"start": 163.421118, "end": 163.62671018749998, "pitch": 61, "velocity": 105}, {"start": 163.68427599999998, "end": 163.77747779166666, "pitch": 58, "velocity": 94}, {"start": 163.947434, "end": 164.062565625, "pitch": 56, "velocity": 127}, {"start": 164.210592, "end": 164.325723625, "pitch": 56, "velocity": 109}, {"start": 164.210592, "end": 164.49293860416665, "pitch": 68, "velocity": 127}, {"start": 164.47375, "end": 164.49293860416665, "pitch": 68, "velocity": 109}, {"start": 164.736908, "end": 164.75609660416666, "pitch": 68, "velocity": 127}, {"start": 165.000066, "end": 165.18646958333332, "pitch": 68, "velocity": 109}, {"start": 165.000066, "end": 165.78954, "pitch": 63, "velocity": 127}, {"start": 165.26322399999998, "end": 165.78954, "pitch": 63, "velocity": 109}, {"start": 166.579014, "end": 166.66673333333333, "pitch": 58, "velocity": 119}, {"start": 166.842172, "end": 166.92989133333333, "pitch": 58, "velocity": 101}, {"start": 166.842172, "end": 166.92989133333333, "pitch": 58, "velocity": 127}, {"start": 167.10532999999998, "end": 167.16289581249998, "pitch": 60, "velocity": 111}, {"start": 167.10532999999998, "end": 167.30818095833334, "pitch": 58, "velocity": 109}, {"start": 167.36848799999999, "end": 167.4260538125, "pitch": 60, "velocity": 93}, {"start": 167.36848799999999, "end": 167.60149247916667, "pitch": 61, "velocity": 125}, {"start": 167.631646, "end": 167.7221065625, "pitch": 58, "velocity": 117}, {"start": 167.631646, "end": 167.86465047916667, "pitch": 61, "velocity": 107}, {"start": 167.894804, "end": 167.9852645625, "pitch": 58, "velocity": 99}, {"start": 167.894804, "end": 168.11958479166665, "pitch": 61, "velocity": 127}, {"start": 168.157962, "end": 168.23197518749998, "pitch": 63, "velocity": 120}, {"start": 168.157962, "end": 168.38274279166666, "pitch": 61, "velocity": 109}, {"start": 168.42112, "end": 168.4951331875, "pitch": 63, "velocity": 102}, {"start": 168.684278, "end": 168.90905879166667, "pitch": 60, "velocity": 123}, {"start": 168.94743599999998, "end": 169.13932204166667, "pitch": 58, "velocity": 119}, {"start": 168.94743599999998, "end": 169.17221679166667, "pitch": 60, "velocity": 105}, {"start": 169.210594, "end": 169.27912472916665, "pitch": 60, "velocity": 117}, {"start": 169.210594, "end": 169.3997388125, "pitch": 58, "velocity": 101}, {"start": 169.342173, "end": 169.3997388125, "pitch": 58, "velocity": 109}, {"start": 169.473752, "end": 169.54228272916666, "pitch": 60, "velocity": 99}, {"start": 169.605331, "end": 169.66289681249998, "pitch": 58, "velocity": 91}, {"start": 169.473752, "end": 170.00555045833332, "pitch": 56, "velocity": 127}, {"start": 169.73691, "end": 170.00555045833332, "pitch": 56, "velocity": 109}, {"start": 170.78954199999998, "end": 170.97046312499998, "pitch": 58, "velocity": 127}, {"start": 171.0527, "end": 171.23362112499998, "pitch": 58, "velocity": 109}, {"start": 171.0527, "end": 171.23362112499998, "pitch": 58, "velocity": 127}, {"start": 171.315858, "end": 171.44195454166666, "pitch": 60, "velocity": 121}, {"start": 171.315858, "end": 171.5214501875, "pitch": 58, "velocity": 109}, {"start": 171.579016, "end": 171.70511254166667, "pitch": 60, "velocity": 103}, {"start": 171.579016, "end": 171.79557310416666, "pitch": 61, "velocity": 127}, {"start": 171.842174, "end": 171.94359947916666, "pitch": 58, "velocity": 115}, {"start": 171.842174, "end": 172.05873110416667, "pitch": 61, "velocity": 109}, {"start": 172.105332, "end": 172.20675747916667, "pitch": 58, "velocity": 97}, {"start": 172.105332, "end": 172.45895056249998, "pitch": 56, "velocity": 127}, {"start": 172.36848999999998, "end": 172.45895056249998, "pitch": 56, "velocity": 109}, {"start": 172.63164799999998, "end": 172.84272264583333, "pitch": 63, "velocity": 123}, {"start": 172.894806, "end": 173.0839508125, "pitch": 63, "velocity": 105}, {"start": 172.894806, "end": 173.0839508125, "pitch": 63, "velocity": 127}, {"start": 173.157964, "end": 173.34710881249998, "pitch": 63, "velocity": 109}, {"start": 173.157964, "end": 173.34710881249998, "pitch": 63, "velocity": 125}, {"start": 173.421122, "end": 173.6102668125, "pitch": 65, "velocity": 123}, {"start": 173.421122, "end": 173.61574927083333, "pitch": 63, "velocity": 107}, {"start": 173.68428, "end": 173.8734248125, "pitch": 65, "velocity": 105}, {"start": 173.68428, "end": 174.23800829166666, "pitch": 63, "velocity": 127}, {"start": 173.947438, "end": 174.23800829166666, "pitch": 63, "velocity": 109}, {"start": 174.736912, "end": 175.86629841666667, "pitch": 61, "velocity": 127}, {"start": 176.05270199999998, "end": 176.15138625, "pitch": 63, "velocity": 127}, {"start": 176.31586, "end": 176.52419341666666, "pitch": 65, "velocity": 127}, {"start": 176.579018, "end": 177.01213220833333, "pitch": 63, "velocity": 127}, {"start": 177.105334, "end": 177.19305333333332, "pitch": 63, "velocity": 123}, {"start": 177.368492, "end": 177.57134295833333, "pitch": 63, "velocity": 127}, {"start": 177.63164999999998, "end": 177.81531235416665, "pitch": 65, "velocity": 127}, {"start": 177.89480799999998, "end": 178.11136510416665, "pitch": 63, "velocity": 127}, {"start": 178.157966, "end": 178.3306634375, "pitch": 56, "velocity": 115}, {"start": 178.421124, "end": 178.83779083333332, "pitch": 56, "velocity": 127}, {"start": 179.73691399999998, "end": 179.8438219375, "pitch": 56, "velocity": 127}, {"start": 180.000072, "end": 180.2056641875, "pitch": 58, "velocity": 127}, {"start": 180.26323, "end": 180.38384408333332, "pitch": 60, "velocity": 127}, {"start": 180.526388, "end": 180.74842756249998, "pitch": 61, "velocity": 127}, {"start": 180.789546, "end": 180.89919516666666, "pitch": 58, "velocity": 110}, {"start": 181.31586199999998, "end": 181.52419541666666, "pitch": 63, "velocity": 127}, {"start": 181.57901999999999, "end": 181.74897620833332, "pitch": 65, "velocity": 127}, {"start": 181.842178, "end": 182.37397645833332, "pitch": 63, "velocity": 127}, {"start": 182.631652, "end": 182.70840641666666, "pitch": 56, "velocity": 127}, {"start": 182.763231, "end": 182.8207968125, "pitch": 58, "velocity": 121}, {"start": 182.89480999999998, "end": 182.97430564583334, "pitch": 61, "velocity": 125}, {"start": 183.026389, "end": 183.07847235416665, "pitch": 58, "velocity": 115}, {"start": 183.15796799999998, "end": 183.44305583333332, "pitch": 65, "velocity": 127}, {"start": 183.552705, "end": 183.82956914583332, "pitch": 65, "velocity": 127}, {"start": 183.947442, "end": 184.38603866666665, "pitch": 63, "velocity": 127}, {"start": 184.73691599999998, "end": 184.8109291875, "pitch": 56, "velocity": 127}, {"start": 184.868495, "end": 184.92057835416665, "pitch": 58, "velocity": 123}, {"start": 185.00007399999998, "end": 185.082310875, "pitch": 61, "velocity": 124}, {"start": 185.131653, "end": 185.18373635416665, "pitch": 58, "velocity": 121}, {"start": 185.263232, "end": 185.575732125, "pitch": 63, "velocity": 127}, {"start": 185.65796899999998, "end": 185.937574375, "pitch": 63, "velocity": 127}, {"start": 186.052706, "end": 186.35149997916665, "pitch": 61, "velocity": 127}, {"start": 186.447443, "end": 186.52419741666665, "pitch": 60, "velocity": 105}, {"start": 186.57902199999998, "end": 186.79557910416665, "pitch": 58, "velocity": 120}, {"start": 186.84217999999998, "end": 186.90796949999998, "pitch": 56, "velocity": 119}, {"start": 186.973759, "end": 187.02858358333333, "pitch": 58, "velocity": 127}, {"start": 187.105338, "end": 187.18209241666665, "pitch": 61, "velocity": 127}, {"start": 187.236917, "end": 187.286259125, "pitch": 58, "velocity": 121}, {"start": 187.368496, "end": 187.7879040625, "pitch": 61, "velocity": 127}, {"start": 187.894812, "end": 188.00720239583333, "pitch": 63, "velocity": 119}, {"start": 188.15797, "end": 188.49239995833332, "pitch": 60, "velocity": 127}, {"start": 188.552707, "end": 188.61301404166664, "pitch": 58, "velocity": 102}, {"start": 188.684286, "end": 189.09821160416666, "pitch": 56, "velocity": 127}, {"start": 189.210602, "end": 189.33121608333332, "pitch": 56, "velocity": 127}, {"start": 189.47376, "end": 189.70950570833332, "pitch": 63, "velocity": 127}, {"start": 189.736918, "end": 189.93154527083334, "pitch": 61, "velocity": 113}, {"start": 190.00007599999998, "end": 190.48253233333332, "pitch": 61, "velocity": 124}, {"start": 191.052708, "end": 191.12123872916666, "pitch": 56, "velocity": 124}, {"start": 191.18428699999998, "end": 191.24185281249999, "pitch": 58, "velocity": 125}, {"start": 191.315866, "end": 191.39810287499998, "pitch": 61, "velocity": 123}, {"start": 191.447445, "end": 191.49952835416667, "pitch": 58, "velocity": 120}, {"start": 191.579024, "end": 192.01762066666666, "pitch": 65, "velocity": 127}, {"start": 192.10533999999998, "end": 192.28351989583334, "pitch": 65, "velocity": 127}, {"start": 192.368498, "end": 192.85917802083333, "pitch": 63, "velocity": 127}, {"start": 193.157972, "end": 193.22650272916667, "pitch": 56, "velocity": 111}, {"start": 193.289551, "end": 193.338893125, "pitch": 58, "velocity": 121}, {"start": 193.42113, "end": 193.50610810416666, "pitch": 61, "velocity": 119}, {"start": 193.552709, "end": 193.5773800625, "pitch": 58, "velocity": 99}, {"start": 193.68428799999998, "end": 194.13933204166665, "pitch": 68, "velocity": 127}, {"start": 194.210604, "end": 194.29832333333331, "pitch": 61, "velocity": 127}, {"start": 194.473762, "end": 194.84931039583333, "pitch": 61, "velocity": 127}, {"start": 194.86849899999999, "end": 194.93428849999998, "pitch": 60, "velocity": 105}, {"start": 195.000078, "end": 195.213893875, "pitch": 58, "velocity": 124}, {"start": 195.26323599999998, "end": 195.3290255, "pitch": 56, "velocity": 114}, {"start": 195.394815, "end": 195.43593343749998, "pitch": 58, "velocity": 116}, {"start": 195.52639399999998, "end": 195.62233702083333, "pitch": 61, "velocity": 121}, {"start": 195.657973, "end": 195.6990914375, "pitch": 58, "velocity": 105}, {"start": 195.789552, "end": 196.24185481249998, "pitch": 61, "velocity": 127}, {"start": 196.315868, "end": 196.40906979166667, "pitch": 63, "velocity": 120}, {"start": 196.579026, "end": 196.69141639583333, "pitch": 58, "velocity": 124}, {"start": 196.579026, "end": 196.93812702083332, "pitch": 60, "velocity": 116}, {"start": 196.973763, "end": 197.0313288125, "pitch": 58, "velocity": 108}, {"start": 197.10534199999998, "end": 197.53023252083332, "pitch": 56, "velocity": 127}, {"start": 197.631658, "end": 197.74130716666667, "pitch": 56, "velocity": 127}, {"start": 197.894816, "end": 198.34163635416667, "pitch": 63, "velocity": 127}, {"start": 198.421132, "end": 198.996790125, "pitch": 61, "velocity": 127}, {"start": 200.00008, "end": 200.28516783333333, "pitch": 65, "velocity": 127}, {"start": 200.394817, "end": 200.67168114583333, "pitch": 65, "velocity": 127}, {"start": 200.78955399999998, "end": 201.22815066666666, "pitch": 63, "velocity": 127}, {"start": 201.579028, "end": 201.65304118749998, "pitch": 56, "velocity": 127}, {"start": 201.71060699999998, "end": 201.76269035416666, "pitch": 58, "velocity": 123}, {"start": 201.842186, "end": 201.924422875, "pitch": 61, "velocity": 124}, {"start": 201.973765, "end": 202.02584835416667, "pitch": 58, "velocity": 121}, {"start": 202.105344, "end": 202.417844125, "pitch": 63, "velocity": 127}, {"start": 202.500081, "end": 202.77968637499998, "pitch": 63, "velocity": 127}, {"start": 202.894818, "end": 203.19361197916666, "pitch": 61, "velocity": 127}, {"start": 203.28955499999998, "end": 203.36630941666667, "pitch": 60, "velocity": 105}, {"start": 203.421134, "end": 203.63769110416666, "pitch": 58, "velocity": 120}, {"start": 203.684292, "end": 203.7500815, "pitch": 56, "velocity": 119}, {"start": 203.815871, "end": 203.87069558333332, "pitch": 58, "velocity": 127}, {"start": 203.94745, "end": 204.02420441666666, "pitch": 61, "velocity": 127}, {"start": 204.079029, "end": 204.128371125, "pitch": 58, "velocity": 121}, {"start": 204.21060799999998, "end": 204.6300160625, "pitch": 61, "velocity": 127}, {"start": 204.736924, "end": 204.84931439583332, "pitch": 63, "velocity": 119}, {"start": 205.000082, "end": 205.33451195833334, "pitch": 60, "velocity": 127}, {"start": 205.39481899999998, "end": 205.45512604166666, "pitch": 58, "velocity": 102}, {"start": 205.526398, "end": 205.94032360416665, "pitch": 56, "velocity": 127}, {"start": 206.05271399999998, "end": 206.17332808333333, "pitch": 56, "velocity": 127}, {"start": 206.31587199999998, "end": 206.55161770833334, "pitch": 63, "velocity": 127}, {"start": 206.57903, "end": 206.77365727083333, "pitch": 61, "velocity": 113}, {"start": 206.842188, "end": 207.32464433333334, "pitch": 61, "velocity": 124}, {"start": 207.89481999999998, "end": 207.96335072916665, "pitch": 56, "velocity": 124}, {"start": 208.026399, "end": 208.0839648125, "pitch": 58, "velocity": 125}, {"start": 208.15797799999999, "end": 208.240214875, "pitch": 61, "velocity": 123}, {"start": 208.289557, "end": 208.34164035416666, "pitch": 58, "velocity": 120}, {"start": 208.421136, "end": 208.85973266666664, "pitch": 65, "velocity": 127}, {"start": 208.947452, "end": 209.12563189583332, "pitch": 65, "velocity": 127}, {"start": 209.21061, "end": 209.7012900208333, "pitch": 63, "velocity": 127}, {"start": 210.000084, "end": 210.06861472916665, "pitch": 56, "velocity": 111}, {"start": 210.131663, "end": 210.18100512499998, "pitch": 58, "velocity": 121}, {"start": 210.263242, "end": 210.34822010416667, "pitch": 61, "velocity": 119}, {"start": 210.39482099999998, "end": 210.41949206249998, "pitch": 58, "velocity": 99}, {"start": 210.5264, "end": 210.98144404166666, "pitch": 68, "velocity": 127}, {"start": 211.052716, "end": 211.14043533333333, "pitch": 61, "velocity": 127}, {"start": 211.31587399999998, "end": 211.6914223958333, "pitch": 61, "velocity": 127}, {"start": 211.710611, "end": 211.7764005, "pitch": 60, "velocity": 105}, {"start": 211.84219, "end": 212.05600587499998, "pitch": 58, "velocity": 124}, {"start": 212.105348, "end": 212.1711375, "pitch": 56, "velocity": 114}, {"start": 212.23692699999998, "end": 212.2780454375, "pitch": 58, "velocity": 116}, {"start": 212.368506, "end": 212.4644490208333, "pitch": 61, "velocity": 121}, {"start": 212.50008499999998, "end": 212.5412034375, "pitch": 58, "velocity": 105}, {"start": 212.631664, "end": 213.0839668125, "pitch": 61, "velocity": 127}, {"start": 213.15797999999998, "end": 213.25118179166665, "pitch": 63, "velocity": 120}, {"start": 213.42113799999998, "end": 213.53352839583332, "pitch": 58, "velocity": 124}, {"start": 213.42113799999998, "end": 213.78023902083333, "pitch": 60, "velocity": 116}, {"start": 213.81587499999998, "end": 213.87344081249998, "pitch": 58, "velocity": 108}, {"start": 213.947454, "end": 214.37234452083334, "pitch": 56, "velocity": 127}, {"start": 214.47377, "end": 214.58341916666666, "pitch": 56, "velocity": 127}, {"start": 214.73692799999998, "end": 215.18374835416665, "pitch": 63, "velocity": 127}, {"start": 215.263244, "end": 215.838902125, "pitch": 61, "velocity": 127}, {"start": 216.315876, "end": 216.37618304166665, "pitch": 56, "velocity": 119}, {"start": 216.447455, "end": 216.50776204166667, "pitch": 58, "velocity": 124}, {"start": 216.57903399999998, "end": 216.6530471875, "pitch": 61, "velocity": 127}, {"start": 216.710613, "end": 216.78188495833334, "pitch": 58, "velocity": 127}]'),
(12549, '[{"start": 12.91665375, "end": 12.999987, "pitch": 72, "velocity": 113}, {"start": 13.0555425, "end": 13.09373690625, "pitch": 72, "velocity": 106}, {"start": 13.194431250000001, "end": 13.296283, "pitch": 72, "velocity": 106}, {"start": 13.33332, "end": 14.09836553125, "pitch": 77, "velocity": 104}, {"start": 15.236095875, "end": 15.51966040625, "pitch": 79, "velocity": 107}, {"start": 15.5671140625, "end": 16.3217429375, "pitch": 77, "velocity": 104}, {"start": 16.9444275, "end": 17.14697359375, "pitch": 77, "velocity": 107}, {"start": 17.222205, "end": 17.43401034375, "pitch": 77, "velocity": 107}, {"start": 17.4999825, "end": 17.7708155625, "pitch": 77, "velocity": 108}, {"start": 17.77776, "end": 18.2615558125, "pitch": 76, "velocity": 104}, {"start": 18.6110925, "end": 18.76502753125, "pitch": 76, "velocity": 109}, {"start": 18.88887, "end": 19.0763698125, "pitch": 76, "velocity": 108}, {"start": 19.1666475, "end": 19.33910103125, "pitch": 76, "velocity": 108}, {"start": 19.444425, "end": 20.2476649375, "pitch": 76, "velocity": 106}, {"start": 20.2777575, "end": 20.45715546875, "pitch": 77, "velocity": 106}, {"start": 21.9444225, "end": 21.98261690625, "pitch": 72, "velocity": 106}, {"start": 22.08331125, "end": 22.185163, "pitch": 72, "velocity": 106}, {"start": 22.2222, "end": 22.98724553125, "pitch": 77, "velocity": 104}, {"start": 23.74997625, "end": 23.835624312500002, "pitch": 72, "velocity": 109}, {"start": 23.888865, "end": 23.97798528125, "pitch": 72, "velocity": 111}, {"start": 24.02775375, "end": 24.11687403125, "pitch": 72, "velocity": 111}, {"start": 24.166642500000002, "end": 24.4606236875, "pitch": 79, "velocity": 106}, {"start": 24.45020703125, "end": 24.671271625, "pitch": 77, "velocity": 108}, {"start": 24.7152530625, "end": 24.81363259375, "pitch": 74, "velocity": 97}, {"start": 24.837938125, "end": 24.96641021875, "pitch": 72, "velocity": 101}, {"start": 24.9791416875, "end": 25.5856225625, "pitch": 74, "velocity": 104}, {"start": 25.8333075, "end": 26.03585359375, "pitch": 77, "velocity": 107}, {"start": 26.111085, "end": 26.32289034375, "pitch": 77, "velocity": 107}, {"start": 26.388862500000002, "end": 26.56826046875, "pitch": 77, "velocity": 108}, {"start": 26.6828436875, "end": 26.7754361875, "pitch": 76, "velocity": 106}, {"start": 26.9374730625, "end": 27.03353778125, "pitch": 76, "velocity": 106}, {"start": 27.21293575, "end": 27.39812075, "pitch": 76, "velocity": 111}, {"start": 28.03585159375, "end": 28.22798103125, "pitch": 72, "velocity": 109}, {"start": 28.33446240625, "end": 28.4629345, "pitch": 72, "velocity": 107}, {"start": 28.6041380625, "end": 29.05668390625, "pitch": 72, "velocity": 107}, {"start": 29.1504338125, "end": 29.35297990625, "pitch": 74, "velocity": 108}, {"start": 30.81594140625, "end": 31.0717281875, "pitch": 72, "velocity": 106}, {"start": 31.08330225, "end": 32.19094003125, "pitch": 77, "velocity": 103}, {"start": 33.041633625, "end": 33.29047596875, "pitch": 79, "velocity": 106}, {"start": 33.3333, "end": 34.15737325, "pitch": 77, "velocity": 104}, {"start": 34.69556715625, "end": 35.17010371875, "pitch": 77, "velocity": 106}, {"start": 35.25343696875, "end": 35.45251084375, "pitch": 76, "velocity": 106}, {"start": 35.550890375, "end": 36.32403775, "pitch": 76, "velocity": 106}, {"start": 36.374963625, "end": 36.48954684375, "pitch": 72, "velocity": 106}, {"start": 36.66663, "end": 36.886537187500004, "pitch": 72, "velocity": 106}, {"start": 36.9444075, "end": 37.2152405625, "pitch": 74, "velocity": 107}, {"start": 37.222185, "end": 37.3541293125, "pitch": 74, "velocity": 111}, {"start": 37.36107375, "end": 37.4930180625, "pitch": 72, "velocity": 100}, {"start": 37.4999625, "end": 37.7707955625, "pitch": 69, "velocity": 102}, {"start": 37.77774, "end": 38.60991509375, "pitch": 74, "velocity": 104}, {"start": 39.70945103125, "end": 39.828663875000004, "pitch": 72, "velocity": 107}, {"start": 39.991858156250004, "end": 40.967551625, "pitch": 77, "velocity": 106}, {"start": 41.3888475, "end": 41.4744955625, "pitch": 77, "velocity": 107}, {"start": 41.527736250000004, "end": 41.6133843125, "pitch": 77, "velocity": 107}, {"start": 41.666625, "end": 41.9374580625, "pitch": 79, "velocity": 107}, {"start": 41.9444025, "end": 42.624957375, "pitch": 77, "velocity": 100}, {"start": 43.63074340625, "end": 43.8217154375, "pitch": 77, "velocity": 108}, {"start": 43.88305796875, "end": 44.09139109375, "pitch": 77, "velocity": 108}, {"start": 44.14926140625, "end": 45.20250109375, "pitch": 76, "velocity": 108}, {"start": 45.27888990625, "end": 45.35527871875, "pitch": 76, "velocity": 111}, {"start": 45.5485655625, "end": 45.78699125, "pitch": 76, "velocity": 108}, {"start": 45.856435625, "end": 45.9930095625, "pitch": 77, "velocity": 106}, {"start": 46.11685203125, "end": 47.186295406250004, "pitch": 77, "velocity": 106}, {"start": 48.0393038125, "end": 48.263840625, "pitch": 74, "velocity": 102}, {"start": 48.324025750000004, "end": 48.52772925, "pitch": 74, "velocity": 107}, {"start": 48.5763403125, "end": 48.78814565625, "pitch": 74, "velocity": 108}, {"start": 48.88884, "end": 49.467543125, "pitch": 74, "velocity": 109}, {"start": 49.71175584375, "end": 49.958283375, "pitch": 76, "velocity": 111}, {"start": 49.99995, "end": 50.48721803125, "pitch": 74, "velocity": 100}, {"start": 50.555505000000004, "end": 50.776569593750004, "pitch": 74, "velocity": 108}, {"start": 50.8332825, "end": 51.041615625, "pitch": 76, "velocity": 104}, {"start": 51.11106, "end": 51.3633745625, "pitch": 77, "velocity": 111}, {"start": 51.3888375, "end": 51.5740225, "pitch": 76, "velocity": 104}, {"start": 51.666615, "end": 51.86916109375, "pitch": 74, "velocity": 101}, {"start": 51.9443925, "end": 52.1596700625, "pitch": 77, "velocity": 109}, {"start": 52.22217, "end": 52.4559660625, "pitch": 76, "velocity": 106}, {"start": 52.4999475, "end": 52.681660281250004, "pitch": 74, "velocity": 104}, {"start": 52.777725000000004, "end": 52.94554890625, "pitch": 74, "velocity": 112}, {"start": 53.0555025, "end": 53.226798625, "pitch": 74, "velocity": 104}, {"start": 53.33328, "end": 53.857585031250004, "pitch": 74, "velocity": 106}, {"start": 54.155038437500004, "end": 54.370316, "pitch": 76, "velocity": 106}, {"start": 54.4559640625, "end": 54.86684328125, "pitch": 74, "velocity": 108}, {"start": 54.999945000000004, "end": 55.22100959375, "pitch": 74, "velocity": 108}, {"start": 55.2777225, "end": 55.486055625, "pitch": 76, "velocity": 104}, {"start": 55.5555, "end": 55.8078145625, "pitch": 77, "velocity": 111}, {"start": 55.8332775, "end": 56.0184625, "pitch": 76, "velocity": 104}, {"start": 56.111055, "end": 56.31360109375, "pitch": 74, "velocity": 101}, {"start": 56.3888325, "end": 56.6041100625, "pitch": 77, "velocity": 109}, {"start": 56.66661, "end": 56.900406062500004, "pitch": 76, "velocity": 106}, {"start": 56.9443875, "end": 57.126100281250004, "pitch": 74, "velocity": 104}, {"start": 57.222165000000004, "end": 57.389988906250004, "pitch": 74, "velocity": 112}, {"start": 57.4999425, "end": 57.671238625, "pitch": 74, "velocity": 104}, {"start": 57.77772, "end": 58.302025031250004, "pitch": 74, "velocity": 106}, {"start": 58.599478437500004, "end": 58.814756, "pitch": 76, "velocity": 106}, {"start": 58.9004040625, "end": 59.31128328125, "pitch": 74, "velocity": 108}, {"start": 59.444385000000004, "end": 59.66544959375, "pitch": 74, "velocity": 108}, {"start": 59.7221625, "end": 59.930495625, "pitch": 76, "velocity": 104}, {"start": 59.99994, "end": 60.2522545625, "pitch": 77, "velocity": 111}, {"start": 60.2777175, "end": 60.4629025, "pitch": 76, "velocity": 104}, {"start": 60.555495, "end": 60.75804109375, "pitch": 74, "velocity": 101}, {"start": 60.8332725, "end": 61.0485500625, "pitch": 77, "velocity": 109}, {"start": 61.11105, "end": 61.344846062500004, "pitch": 76, "velocity": 106}, {"start": 61.3888275, "end": 62.82053903125, "pitch": 76, "velocity": 104}, {"start": 63.0554925, "end": 63.24183490625, "pitch": 77, "velocity": 109}, {"start": 63.33327, "end": 63.85294540625, "pitch": 77, "velocity": 109}, {"start": 63.888825000000004, "end": 64.40387078125, "pitch": 79, "velocity": 109}, {"start": 64.44438, "end": 64.9929905625, "pitch": 81, "velocity": 109}, {"start": 64.99993500000001, "end": 65.5485455625, "pitch": 79, "velocity": 109}, {"start": 65.55549, "end": 65.83442490625, "pitch": 77, "velocity": 109}, {"start": 66.3888225, "end": 66.45479465625, "pitch": 81, "velocity": 112}, {"start": 66.52771125, "end": 66.61220190625001, "pitch": 79, "velocity": 112}, {"start": 66.6666, "end": 67.68164528125, "pitch": 81, "velocity": 111}, {"start": 68.0554875, "end": 68.245302125, "pitch": 84, "velocity": 112}, {"start": 68.333265, "end": 68.6040980625, "pitch": 77, "velocity": 108}, {"start": 68.6110425, "end": 69.7152080625, "pitch": 79, "velocity": 111}, {"start": 69.7221525, "end": 69.9929855625, "pitch": 77, "velocity": 108}, {"start": 70.2777075, "end": 70.41659625, "pitch": 84, "velocity": 111}, {"start": 70.555485, "end": 70.773077375, "pitch": 84, "velocity": 111}, {"start": 70.8332625, "end": 71.31590090625001, "pitch": 79, "velocity": 108}, {"start": 71.3888175, "end": 71.629558, "pitch": 81, "velocity": 111}, {"start": 72.4999275, "end": 72.7707605625, "pitch": 81, "velocity": 109}, {"start": 72.777705, "end": 73.0485380625, "pitch": 74, "velocity": 108}, {"start": 73.0554825, "end": 73.58904678125, "pitch": 77, "velocity": 108}, {"start": 73.6110375, "end": 73.80895396875, "pitch": 74, "velocity": 107}, {"start": 73.888815, "end": 74.148074, "pitch": 74, "velocity": 108}, {"start": 74.16659250000001, "end": 74.67469384375, "pitch": 77, "velocity": 106}, {"start": 74.7221475, "end": 74.91774915625, "pitch": 74, "velocity": 108}, {"start": 74.999925, "end": 75.2522395625, "pitch": 74, "velocity": 103}, {"start": 75.2777025, "end": 75.754553875, "pitch": 77, "velocity": 106}, {"start": 75.8332575, "end": 76.01728509375, "pitch": 74, "velocity": 106}, {"start": 76.111035, "end": 76.35293290625, "pitch": 74, "velocity": 104}, {"start": 76.3888125, "end": 76.92237678125, "pitch": 77, "velocity": 106}, {"start": 76.9443675, "end": 77.21288575, "pitch": 74, "velocity": 108}, {"start": 77.263811625, "end": 77.504552125, "pitch": 74, "velocity": 106}, {"start": 77.51265396875, "end": 77.74992225, "pitch": 77, "velocity": 108}, {"start": 77.7985333125, "end": 78.8216804375, "pitch": 74, "velocity": 109}, {"start": 79.444365, "end": 79.71519806250001, "pitch": 77, "velocity": 108}, {"start": 79.7221425, "end": 79.8540868125, "pitch": 74, "velocity": 107}, {"start": 79.86103125, "end": 79.9929755625, "pitch": 72, "velocity": 113}, {"start": 79.99992, "end": 80.2707530625, "pitch": 74, "velocity": 109}, {"start": 80.2776975, "end": 80.8263080625, "pitch": 77, "velocity": 107}, {"start": 80.8332525, "end": 81.67005721875, "pitch": 79, "velocity": 107}, {"start": 81.9443625, "end": 82.20014928125, "pitch": 72, "velocity": 106}, {"start": 82.22214, "end": 83.32977778125, "pitch": 77, "velocity": 103}, {"start": 84.1665825, "end": 84.41542484375, "pitch": 79, "velocity": 106}, {"start": 84.44436, "end": 85.26843325, "pitch": 77, "velocity": 104}, {"start": 85.8332475, "end": 86.1040805625, "pitch": 77, "velocity": 106}, {"start": 86.111025, "end": 86.3818580625, "pitch": 79, "velocity": 106}, {"start": 86.3888025, "end": 87.143431375, "pitch": 76, "velocity": 106}, {"start": 87.49991250000001, "end": 87.7707455625, "pitch": 76, "velocity": 106}, {"start": 88.58671696875, "end": 89.15384603125, "pitch": 72, "velocity": 108}, {"start": 89.1735219375, "end": 89.63995665625, "pitch": 74, "velocity": 108}, {"start": 89.74643803125, "end": 90.1920394375, "pitch": 74, "velocity": 108}, {"start": 90.2568541875, "end": 90.33903003125, "pitch": 72, "velocity": 112}, {"start": 90.407317, "end": 90.52884465625, "pitch": 72, "velocity": 106}, {"start": 90.555465, "end": 90.8262980625, "pitch": 72, "velocity": 106}, {"start": 90.8332425, "end": 91.1040755625, "pitch": 77, "velocity": 108}, {"start": 91.11102, "end": 91.3818530625, "pitch": 76, "velocity": 104}, {"start": 91.3887975, "end": 91.6596305625, "pitch": 74, "velocity": 106}, {"start": 91.666575, "end": 92.39458353125, "pitch": 72, "velocity": 106}, {"start": 92.773055375, "end": 92.948981125, "pitch": 79, "velocity": 109}, {"start": 93.050832875, "end": 93.60754528125, "pitch": 79, "velocity": 109}, {"start": 93.6272211875, "end": 94.32513715625001, "pitch": 81, "velocity": 106}, {"start": 94.7522200625, "end": 94.9374050625, "pitch": 79, "velocity": 112}, {"start": 95.0114790625, "end": 95.11217340625001, "pitch": 79, "velocity": 111}, {"start": 95.263793625, "end": 95.72328390625, "pitch": 79, "velocity": 112}, {"start": 95.78346903125001, "end": 95.888793, "pitch": 77, "velocity": 102}, {"start": 96.050829875, "end": 96.34018143750001, "pitch": 77, "velocity": 111}, {"start": 96.3679591875, "end": 96.48022759375, "pitch": 76, "velocity": 106}, {"start": 96.65383853125, "end": 96.7568476875, "pitch": 76, "velocity": 108}, {"start": 96.9188845625, "end": 97.0207363125, "pitch": 76, "velocity": 108}, {"start": 97.20707871875, "end": 97.30082862500001, "pitch": 76, "velocity": 109}, {"start": 97.4698099375, "end": 98.01031865625, "pitch": 76, "velocity": 109}, {"start": 98.0670315625, "end": 98.300827625, "pitch": 77, "velocity": 112}, {"start": 99.1503638125, "end": 99.374900625, "pitch": 74, "velocity": 102}, {"start": 99.43508575, "end": 99.63878925, "pitch": 74, "velocity": 107}, {"start": 99.6874003125, "end": 99.89920565625, "pitch": 74, "velocity": 108}, {"start": 99.9999, "end": 100.578603125, "pitch": 74, "velocity": 109}, {"start": 100.82281584375, "end": 101.069343375, "pitch": 76, "velocity": 111}, {"start": 101.11101000000001, "end": 101.59827803125, "pitch": 74, "velocity": 100}, {"start": 101.666565, "end": 101.88762959375, "pitch": 74, "velocity": 108}, {"start": 101.9443425, "end": 102.152675625, "pitch": 76, "velocity": 104}, {"start": 102.22212, "end": 102.47443456250001, "pitch": 77, "velocity": 111}, {"start": 102.4998975, "end": 102.68508250000001, "pitch": 76, "velocity": 104}, {"start": 102.777675, "end": 102.98022109375, "pitch": 74, "velocity": 101}, {"start": 103.0554525, "end": 103.27073006250001, "pitch": 77, "velocity": 109}, {"start": 103.33323, "end": 103.5670260625, "pitch": 76, "velocity": 106}, {"start": 103.6110075, "end": 103.79272028125, "pitch": 74, "velocity": 104}, {"start": 103.888785, "end": 104.05660890625, "pitch": 74, "velocity": 112}, {"start": 104.1665625, "end": 104.337858625, "pitch": 74, "velocity": 104}, {"start": 104.44434, "end": 104.96864503125, "pitch": 74, "velocity": 106}, {"start": 105.2660984375, "end": 105.481376, "pitch": 76, "velocity": 106}, {"start": 105.5670240625, "end": 105.97790328125001, "pitch": 74, "velocity": 108}, {"start": 106.111005, "end": 106.33206959375, "pitch": 74, "velocity": 108}, {"start": 106.3887825, "end": 106.597115625, "pitch": 76, "velocity": 104}, {"start": 106.66656, "end": 106.91887456250001, "pitch": 77, "velocity": 111}, {"start": 106.9443375, "end": 107.12952250000001, "pitch": 76, "velocity": 104}, {"start": 107.222115, "end": 107.42466109375, "pitch": 74, "velocity": 101}, {"start": 107.4998925, "end": 107.71517006250001, "pitch": 77, "velocity": 109}, {"start": 107.77767, "end": 108.0114660625, "pitch": 76, "velocity": 106}, {"start": 108.0554475, "end": 108.23716028125, "pitch": 74, "velocity": 104}, {"start": 108.333225, "end": 108.50104890625, "pitch": 74, "velocity": 112}, {"start": 108.6110025, "end": 108.782298625, "pitch": 74, "velocity": 104}, {"start": 108.88878, "end": 109.41308503125, "pitch": 74, "velocity": 106}, {"start": 109.7105384375, "end": 109.925816, "pitch": 76, "velocity": 106}, {"start": 110.0114640625, "end": 110.42234328125001, "pitch": 74, "velocity": 108}, {"start": 110.555445, "end": 110.77650959375, "pitch": 74, "velocity": 108}, {"start": 110.8332225, "end": 111.041555625, "pitch": 76, "velocity": 104}, {"start": 111.111, "end": 111.36331456250001, "pitch": 77, "velocity": 111}, {"start": 111.3887775, "end": 111.57396250000001, "pitch": 76, "velocity": 104}, {"start": 111.666555, "end": 111.86910109375, "pitch": 74, "velocity": 101}, {"start": 111.9443325, "end": 112.15961006250001, "pitch": 77, "velocity": 109}, {"start": 112.22211, "end": 112.4559060625, "pitch": 76, "velocity": 106}, {"start": 112.4998875, "end": 113.93159903125, "pitch": 76, "velocity": 104}, {"start": 114.1665525, "end": 114.35289490625, "pitch": 77, "velocity": 109}, {"start": 114.44433000000001, "end": 114.96400540625, "pitch": 77, "velocity": 109}, {"start": 114.999885, "end": 115.51493078125, "pitch": 79, "velocity": 109}, {"start": 115.55544, "end": 116.1040505625, "pitch": 81, "velocity": 109}, {"start": 116.110995, "end": 116.6596055625, "pitch": 79, "velocity": 109}, {"start": 116.66655, "end": 116.94548490625, "pitch": 77, "velocity": 109}, {"start": 117.4998825, "end": 117.56585465625, "pitch": 81, "velocity": 112}, {"start": 117.63877125, "end": 117.72326190625, "pitch": 79, "velocity": 112}, {"start": 117.77766, "end": 118.79270528125001, "pitch": 81, "velocity": 111}, {"start": 119.16654750000001, "end": 119.356362125, "pitch": 84, "velocity": 112}, {"start": 119.444325, "end": 119.7151580625, "pitch": 77, "velocity": 108}, {"start": 119.7221025, "end": 120.8262680625, "pitch": 79, "velocity": 111}, {"start": 120.8332125, "end": 121.1040455625, "pitch": 77, "velocity": 108}, {"start": 121.3887675, "end": 121.52765625, "pitch": 84, "velocity": 111}, {"start": 121.666545, "end": 121.884137375, "pitch": 84, "velocity": 111}, {"start": 121.9443225, "end": 122.42696090625, "pitch": 79, "velocity": 108}, {"start": 122.4998775, "end": 122.740618, "pitch": 81, "velocity": 111}, {"start": 123.61098750000001, "end": 123.8818205625, "pitch": 81, "velocity": 109}, {"start": 123.888765, "end": 124.1595980625, "pitch": 74, "velocity": 108}, {"start": 124.1665425, "end": 124.70010678125, "pitch": 77, "velocity": 108}, {"start": 124.7220975, "end": 124.92001396875, "pitch": 74, "velocity": 107}, {"start": 124.999875, "end": 125.259134, "pitch": 74, "velocity": 108}, {"start": 125.2776525, "end": 125.78575384375, "pitch": 77, "velocity": 106}, {"start": 125.8332075, "end": 126.02880915625, "pitch": 74, "velocity": 108}, {"start": 126.110985, "end": 126.3632995625, "pitch": 74, "velocity": 103}, {"start": 126.3887625, "end": 126.86561387500001, "pitch": 77, "velocity": 106}, {"start": 126.9443175, "end": 127.12834509375, "pitch": 74, "velocity": 106}, {"start": 127.222095, "end": 127.46399290625, "pitch": 74, "velocity": 104}, {"start": 127.4998725, "end": 128.03343678125, "pitch": 77, "velocity": 106}, {"start": 128.0554275, "end": 128.32394575, "pitch": 74, "velocity": 108}, {"start": 128.374871625, "end": 128.615612125, "pitch": 74, "velocity": 106}, {"start": 128.62371396875, "end": 128.86098225, "pitch": 77, "velocity": 108}, {"start": 128.9095933125, "end": 129.9327404375, "pitch": 74, "velocity": 109}, {"start": 130.555425, "end": 130.8262580625, "pitch": 77, "velocity": 108}, {"start": 130.8332025, "end": 130.9651468125, "pitch": 74, "velocity": 107}, {"start": 130.97209125, "end": 131.1040355625, "pitch": 72, "velocity": 113}, {"start": 131.11098, "end": 131.38181306250002, "pitch": 74, "velocity": 109}, {"start": 131.3887575, "end": 131.9373680625, "pitch": 77, "velocity": 107}, {"start": 132.22209, "end": 132.74176540625, "pitch": 81, "velocity": 109}, {"start": 132.777645, "end": 133.29269078125, "pitch": 81, "velocity": 109}, {"start": 133.3332, "end": 133.8818105625, "pitch": 81, "velocity": 109}, {"start": 133.888755, "end": 134.4373655625, "pitch": 79, "velocity": 109}, {"start": 134.44431, "end": 134.72324490625, "pitch": 77, "velocity": 109}, {"start": 135.2776425, "end": 135.34361465625, "pitch": 81, "velocity": 112}, {"start": 135.41653125, "end": 135.50102190625, "pitch": 79, "velocity": 112}, {"start": 135.55542, "end": 136.57046528125, "pitch": 81, "velocity": 111}, {"start": 136.9443075, "end": 137.134122125, "pitch": 79, "velocity": 112}, {"start": 137.222085, "end": 137.4929180625, "pitch": 79, "velocity": 108}, {"start": 137.4998625, "end": 138.0484730625, "pitch": 84, "velocity": 111}, {"start": 138.0554175, "end": 138.1919914375, "pitch": 79, "velocity": 111}, {"start": 138.19430625, "end": 138.33088018750001, "pitch": 77, "velocity": 111}, {"start": 138.333195, "end": 138.6086576875, "pitch": 76, "velocity": 108}, {"start": 138.88875000000002, "end": 139.02763875, "pitch": 84, "velocity": 111}, {"start": 139.1665275, "end": 139.30541625, "pitch": 84, "velocity": 111}, {"start": 139.444305, "end": 139.661897375, "pitch": 84, "velocity": 111}, {"start": 139.7220825, "end": 140.20472090625, "pitch": 79, "velocity": 108}, {"start": 140.2776375, "end": 140.518378, "pitch": 81, "velocity": 111}, {"start": 141.3887475, "end": 141.6595805625, "pitch": 81, "velocity": 109}, {"start": 141.666525, "end": 141.9373580625, "pitch": 74, "velocity": 108}, {"start": 141.9443025, "end": 142.47786678125001, "pitch": 77, "velocity": 108}, {"start": 142.4998575, "end": 142.69777396875, "pitch": 74, "velocity": 107}, {"start": 142.777635, "end": 143.036894, "pitch": 74, "velocity": 108}, {"start": 143.0554125, "end": 143.56351384375, "pitch": 77, "velocity": 106}, {"start": 143.61096750000002, "end": 143.80656915625, "pitch": 74, "velocity": 108}, {"start": 143.888745, "end": 144.1410595625, "pitch": 74, "velocity": 103}, {"start": 144.1665225, "end": 144.643373875, "pitch": 77, "velocity": 106}, {"start": 144.7220775, "end": 144.90610509375, "pitch": 74, "velocity": 106}, {"start": 144.999855, "end": 145.24175290625, "pitch": 74, "velocity": 104}, {"start": 145.2776325, "end": 145.81119678125, "pitch": 77, "velocity": 106}, {"start": 145.8331875, "end": 146.10170575, "pitch": 74, "velocity": 108}, {"start": 146.152631625, "end": 146.393372125, "pitch": 74, "velocity": 106}, {"start": 146.40147396875, "end": 146.63874225, "pitch": 77, "velocity": 108}, {"start": 146.6873533125, "end": 147.7105004375, "pitch": 74, "velocity": 109}, {"start": 148.33318500000001, "end": 148.6040180625, "pitch": 77, "velocity": 108}, {"start": 148.6109625, "end": 148.7429068125, "pitch": 74, "velocity": 107}, {"start": 148.74985125, "end": 148.8817955625, "pitch": 72, "velocity": 113}, {"start": 148.88874, "end": 149.15957306250002, "pitch": 74, "velocity": 109}, {"start": 149.1665175, "end": 149.7151280625, "pitch": 77, "velocity": 107}, {"start": 149.7220725, "end": 150.2706830625, "pitch": 79, "velocity": 107}, {"start": 150.2776275, "end": 150.5160531875, "pitch": 81, "velocity": 109}, {"start": 150.555405, "end": 150.71165484375, "pitch": 79, "velocity": 111}, {"start": 150.8331825, "end": 151.62369096875, "pitch": 79, "velocity": 109}, {"start": 151.666515, "end": 152.1503108125, "pitch": 77, "velocity": 108}, {"start": 152.22207, "end": 152.402625375, "pitch": 77, "velocity": 104}, {"start": 152.49984750000002, "end": 152.73132875, "pitch": 77, "velocity": 106}, {"start": 152.777625, "end": 152.95702296875, "pitch": 79, "velocity": 106}, {"start": 153.0554025, "end": 153.6040130625, "pitch": 79, "velocity": 106}, {"start": 153.6109575, "end": 154.2984568125, "pitch": 81, "velocity": 106}, {"start": 154.71396565625, "end": 154.9141969375, "pitch": 76, "velocity": 109}, {"start": 154.999845, "end": 155.21396515625, "pitch": 76, "velocity": 111}, {"start": 155.2776225, "end": 155.4628075, "pitch": 76, "velocity": 109}, {"start": 155.5554, "end": 156.04729765625, "pitch": 76, "velocity": 108}, {"start": 156.110955, "end": 156.310028875, "pitch": 76, "velocity": 108}, {"start": 156.3887325, "end": 156.5739175, "pitch": 76, "velocity": 107}, {"start": 156.66651, "end": 157.12368546875, "pitch": 76, "velocity": 108}, {"start": 157.22206500000001, "end": 157.34822228125, "pitch": 76, "velocity": 107}, {"start": 157.4998425, "end": 158.04845306250002, "pitch": 76, "velocity": 107}, {"start": 158.0553975, "end": 158.569285875, "pitch": 77, "velocity": 111}, {"start": 158.6109525, "end": 158.95470215625, "pitch": 79, "velocity": 109}, {"start": 159.1665075, "end": 159.4049331875, "pitch": 81, "velocity": 109}, {"start": 159.444285, "end": 159.60053484375, "pitch": 79, "velocity": 111}, {"start": 159.7220625, "end": 160.51257096875, "pitch": 79, "velocity": 109}, {"start": 160.555395, "end": 160.8262280625, "pitch": 77, "velocity": 108}, {"start": 160.8331725, "end": 161.1040055625, "pitch": 74, "velocity": 108}, {"start": 161.11095, "end": 161.3817830625, "pitch": 77, "velocity": 104}, {"start": 161.38872750000002, "end": 161.62020875, "pitch": 77, "velocity": 106}, {"start": 161.666505, "end": 161.84590296875, "pitch": 79, "velocity": 106}, {"start": 161.9442825, "end": 162.4928930625, "pitch": 79, "velocity": 106}, {"start": 162.4998375, "end": 163.1873368125, "pitch": 81, "velocity": 106}, {"start": 163.60284565625, "end": 163.8030769375, "pitch": 76, "velocity": 109}, {"start": 163.888725, "end": 164.10284515625, "pitch": 76, "velocity": 111}, {"start": 164.1665025, "end": 164.7151130625, "pitch": 76, "velocity": 109}, {"start": 164.7220575, "end": 164.92113137500002, "pitch": 76, "velocity": 108}, {"start": 164.999835, "end": 165.198908875, "pitch": 76, "velocity": 108}, {"start": 165.2776125, "end": 165.4627975, "pitch": 76, "velocity": 107}, {"start": 165.55539, "end": 166.01256546875, "pitch": 76, "velocity": 108}, {"start": 166.11094500000002, "end": 166.23710228125, "pitch": 76, "velocity": 107}, {"start": 166.3887225, "end": 166.9373330625, "pitch": 76, "velocity": 107}, {"start": 166.9442775, "end": 167.458165875, "pitch": 77, "velocity": 111}, {"start": 167.4998325, "end": 167.84358215625, "pitch": 79, "velocity": 109}, {"start": 168.0553875, "end": 168.3262205625, "pitch": 81, "velocity": 109}, {"start": 168.333165, "end": 168.84821078125, "pitch": 81, "velocity": 109}, {"start": 168.88872, "end": 169.4373305625, "pitch": 81, "velocity": 109}, {"start": 169.444275, "end": 169.9928855625, "pitch": 79, "velocity": 109}, {"start": 169.99983, "end": 170.27876490625, "pitch": 77, "velocity": 109}, {"start": 170.83316250000001, "end": 170.89913465625, "pitch": 81, "velocity": 112}, {"start": 170.97205125, "end": 171.05654190625, "pitch": 79, "velocity": 112}, {"start": 171.11094, "end": 172.12598528125, "pitch": 81, "velocity": 111}, {"start": 172.4998275, "end": 172.689642125, "pitch": 84, "velocity": 112}, {"start": 172.777605, "end": 173.0484380625, "pitch": 77, "velocity": 108}, {"start": 173.0553825, "end": 174.1595480625, "pitch": 79, "velocity": 111}, {"start": 174.1664925, "end": 174.4373255625, "pitch": 77, "velocity": 108}, {"start": 174.7220475, "end": 174.86093625, "pitch": 84, "velocity": 111}, {"start": 174.99982500000002, "end": 175.217417375, "pitch": 84, "velocity": 111}, {"start": 175.2776025, "end": 175.76024090625, "pitch": 79, "velocity": 108}, {"start": 175.8331575, "end": 176.073898, "pitch": 81, "velocity": 111}, {"start": 176.9442675, "end": 177.2151005625, "pitch": 81, "velocity": 109}, {"start": 177.222045, "end": 177.4928780625, "pitch": 74, "velocity": 108}, {"start": 177.4998225, "end": 178.03338678125002, "pitch": 77, "velocity": 108}, {"start": 178.0553775, "end": 178.25329396875, "pitch": 74, "velocity": 107}, {"start": 178.333155, "end": 178.592414, "pitch": 74, "velocity": 108}, {"start": 178.6109325, "end": 179.11903384375, "pitch": 77, "velocity": 106}, {"start": 179.1664875, "end": 179.36208915625, "pitch": 74, "velocity": 108}, {"start": 179.444265, "end": 179.6965795625, "pitch": 74, "velocity": 103}, {"start": 179.72204250000001, "end": 180.198893875, "pitch": 77, "velocity": 106}, {"start": 180.2775975, "end": 180.46162509375, "pitch": 74, "velocity": 106}, {"start": 180.555375, "end": 180.79727290625002, "pitch": 74, "velocity": 104}, {"start": 180.8331525, "end": 181.36671678125, "pitch": 77, "velocity": 106}, {"start": 181.3887075, "end": 181.65722575, "pitch": 74, "velocity": 108}, {"start": 181.708151625, "end": 181.94889212500001, "pitch": 74, "velocity": 106}, {"start": 181.95699396875, "end": 182.19426225, "pitch": 77, "velocity": 108}, {"start": 182.2428733125, "end": 183.2660204375, "pitch": 74, "velocity": 109}, {"start": 183.88870500000002, "end": 184.1595380625, "pitch": 77, "velocity": 108}, {"start": 184.1664825, "end": 184.2984268125, "pitch": 74, "velocity": 107}, {"start": 184.30537125, "end": 184.4373155625, "pitch": 72, "velocity": 113}, {"start": 184.44426, "end": 184.7150930625, "pitch": 74, "velocity": 109}, {"start": 184.7220375, "end": 185.27064806250002, "pitch": 77, "velocity": 107}, {"start": 185.55537, "end": 186.07504540625, "pitch": 81, "velocity": 109}, {"start": 186.110925, "end": 186.62597078125, "pitch": 81, "velocity": 109}, {"start": 186.66648, "end": 187.2150905625, "pitch": 81, "velocity": 109}, {"start": 187.222035, "end": 187.7706455625, "pitch": 79, "velocity": 109}, {"start": 187.77759, "end": 188.05652490625, "pitch": 77, "velocity": 109}, {"start": 188.61092250000002, "end": 188.67689465625, "pitch": 81, "velocity": 112}, {"start": 188.74981125, "end": 188.83430190625, "pitch": 79, "velocity": 112}, {"start": 188.8887, "end": 189.90374528125, "pitch": 81, "velocity": 111}, {"start": 190.2775875, "end": 190.467402125, "pitch": 79, "velocity": 112}, {"start": 190.555365, "end": 190.8261980625, "pitch": 79, "velocity": 108}, {"start": 190.8331425, "end": 191.3817530625, "pitch": 84, "velocity": 111}, {"start": 191.3886975, "end": 191.5206418125, "pitch": 79, "velocity": 111}, {"start": 191.52758625, "end": 191.6595305625, "pitch": 77, "velocity": 111}, {"start": 191.666475, "end": 191.9373080625, "pitch": 76, "velocity": 108}, {"start": 192.22203, "end": 192.36091875, "pitch": 84, "velocity": 111}, {"start": 192.4998075, "end": 192.63869625, "pitch": 84, "velocity": 111}, {"start": 192.77758500000002, "end": 192.995177375, "pitch": 84, "velocity": 111}, {"start": 193.0553625, "end": 193.53800090625, "pitch": 79, "velocity": 108}, {"start": 193.6109175, "end": 193.85165800000001, "pitch": 81, "velocity": 111}, {"start": 194.7220275, "end": 194.9928605625, "pitch": 81, "velocity": 109}, {"start": 194.999805, "end": 195.2706380625, "pitch": 74, "velocity": 108}, {"start": 195.2775825, "end": 195.81114678125002, "pitch": 77, "velocity": 108}, {"start": 195.8331375, "end": 196.03105396875, "pitch": 74, "velocity": 107}, {"start": 196.110915, "end": 196.370174, "pitch": 74, "velocity": 108}, {"start": 196.3886925, "end": 196.89679384375, "pitch": 77, "velocity": 106}, {"start": 196.9442475, "end": 197.13984915625, "pitch": 74, "velocity": 108}, {"start": 197.222025, "end": 197.4743395625, "pitch": 74, "velocity": 103}, {"start": 197.49980250000002, "end": 197.976653875, "pitch": 77, "velocity": 106}, {"start": 198.0553575, "end": 198.23938509375, "pitch": 74, "velocity": 106}, {"start": 198.333135, "end": 198.57503290625002, "pitch": 74, "velocity": 104}, {"start": 198.6109125, "end": 199.14447678125, "pitch": 77, "velocity": 106}, {"start": 199.1664675, "end": 199.43498575, "pitch": 74, "velocity": 108}, {"start": 199.485911625, "end": 199.72665212500002, "pitch": 74, "velocity": 106}, {"start": 199.73475396875, "end": 199.97202225, "pitch": 77, "velocity": 108}, {"start": 200.0206333125, "end": 201.0437804375, "pitch": 74, "velocity": 109}, {"start": 201.3886875, "end": 201.6595205625, "pitch": 74, "velocity": 108}, {"start": 201.66646500000002, "end": 201.9372980625, "pitch": 77, "velocity": 108}, {"start": 201.9442425, "end": 202.0761868125, "pitch": 74, "velocity": 107}, {"start": 202.08313125, "end": 202.2150755625, "pitch": 72, "velocity": 113}, {"start": 202.22202000000001, "end": 202.4928530625, "pitch": 74, "velocity": 109}, {"start": 202.4997975, "end": 203.04840806250002, "pitch": 77, "velocity": 107}, {"start": 203.33313, "end": 206.1039605625, "pitch": 79, "velocity": 111}, {"start": 206.110905, "end": 206.2428493125, "pitch": 77, "velocity": 109}, {"start": 206.24979375, "end": 206.5206268125, "pitch": 74, "velocity": 109}, {"start": 208.07849562500002, "end": 208.31113428125, "pitch": 79, "velocity": 91}, {"start": 208.34585646875001, "end": 208.5298840625, "pitch": 77, "velocity": 87}, {"start": 208.6109025, "end": 209.16761490625, "pitch": 79, "velocity": 95}, {"start": 209.18844821875, "end": 209.430346125, "pitch": 81, "velocity": 105}, {"start": 209.45349425, "end": 209.70465140625, "pitch": 79, "velocity": 100}, {"start": 209.726642125, "end": 209.97316965625, "pitch": 77, "velocity": 80}, {"start": 210.00904925, "end": 210.73242815625, "pitch": 79, "velocity": 91}, {"start": 210.851641, "end": 211.837751125, "pitch": 81, "velocity": 91}, {"start": 212.2289544375, "end": 212.36089875, "pitch": 81, "velocity": 100}, {"start": 212.5113615625, "end": 212.7335835625, "pitch": 81, "velocity": 100}, {"start": 212.7659909375, "end": 213.53798090625, "pitch": 84, "velocity": 95}, {"start": 213.7960825, "end": 213.91298053125, "pitch": 79, "velocity": 110}, {"start": 213.94307309375, "end": 214.0993229375, "pitch": 77, "velocity": 100}, {"start": 214.10048034375, "end": 214.22316540625, "pitch": 74, "velocity": 48}, {"start": 214.23936909375, "end": 214.3585819375, "pitch": 72, "velocity": 105}, {"start": 214.39330412500001, "end": 214.68149828125001, "pitch": 74, "velocity": 95}, {"start": 214.717377875, "end": 215.38983090625, "pitch": 77, "velocity": 91}, {"start": 216.37941325, "end": 217.40140296875, "pitch": 81, "velocity": 105}, {"start": 217.444227, "end": 217.67686565625002, "pitch": 79, "velocity": 95}, {"start": 217.73705078125, "end": 217.88519878125, "pitch": 77, "velocity": 95}, {"start": 217.90140246875, "end": 218.00904125, "pitch": 79, "velocity": 100}, {"start": 218.04029121875, "end": 219.3909843125, "pitch": 77, "velocity": 95}, {"start": 219.6965395625, "end": 219.80880796875002, "pitch": 76, "velocity": 100}, {"start": 219.81575240625, "end": 219.94538190625, "pitch": 77, "velocity": 105}, {"start": 219.967372625, "end": 220.70695521875, "pitch": 76, "velocity": 91}, {"start": 221.10278815625, "end": 221.20001028125, "pitch": 81, "velocity": 95}, {"start": 221.37593603125, "end": 221.6039450625, "pitch": 81, "velocity": 100}, {"start": 221.63866725, "end": 221.893296625, "pitch": 84, "velocity": 100}, {"start": 221.92686140625, "end": 222.0622779375, "pitch": 81, "velocity": 95}, {"start": 222.07500940625, "end": 222.19075003125, "pitch": 79, "velocity": 87}, {"start": 222.21621296875, "end": 224.346997875, "pitch": 77, "velocity": 95}, {"start": 224.44422, "end": 226.606254875, "pitch": 81, "velocity": 100}, {"start": 226.64907890625, "end": 228.9187525625, "pitch": 84, "velocity": 95}, {"start": 229.99977, "end": 230.2104179375, "pitch": 86, "velocity": 110}, {"start": 230.27060306250002, "end": 230.52754725, "pitch": 84, "velocity": 95}, {"start": 230.56574165625, "end": 230.7983803125, "pitch": 86, "velocity": 100}, {"start": 230.82847287500002, "end": 230.97314865625, "pitch": 81, "velocity": 100}, {"start": 230.98472271875, "end": 231.0946763125, "pitch": 79, "velocity": 95}, {"start": 231.1270836875, "end": 233.1131928125, "pitch": 77, "velocity": 75}, {"start": 233.05416509375002, "end": 234.17453434375, "pitch": 74, "velocity": 95}, {"start": 234.7150430625, "end": 234.94768171875, "pitch": 72, "velocity": 95}, {"start": 234.9789316875, "end": 235.26018140625, "pitch": 74, "velocity": 91}, {"start": 235.28332953125, "end": 237.77638259375001, "pitch": 77, "velocity": 100}, {"start": 237.78332703125, "end": 240.08193584375002, "pitch": 79, "velocity": 100}]'),
(1047, '[{"start": 2.43243, "end": 3.24324, "pitch": 72, "velocity": 79}, {"start": 3.24324, "end": 5.270265, "pitch": 69, "velocity": 79}, {"start": 5.270265, "end": 5.67567, "pitch": 69, "velocity": 79}, {"start": 5.67567, "end": 6.081075, "pitch": 72, "velocity": 79}, {"start": 6.081075, "end": 6.48648, "pitch": 74, "velocity": 79}, {"start": 6.48648, "end": 8.1081, "pitch": 67, "velocity": 79}, {"start": 8.91891, "end": 9.324315, "pitch": 67, "velocity": 79}, {"start": 9.324315, "end": 9.72972, "pitch": 69, "velocity": 79}, {"start": 9.72972, "end": 10.27026, "pitch": 70, "velocity": 79}, {"start": 10.54053, "end": 11.62161, "pitch": 77, "velocity": 79}, {"start": 11.756745, "end": 12.027015, "pitch": 77, "velocity": 79}, {"start": 12.16215, "end": 12.43242, "pitch": 76, "velocity": 79}, {"start": 12.567555, "end": 12.837825, "pitch": 72, "velocity": 79}, {"start": 12.97296, "end": 13.24323, "pitch": 74, "velocity": 79}, {"start": 13.378365, "end": 13.5810675, "pitch": 72, "velocity": 79}, {"start": 13.5810675, "end": 13.78377, "pitch": 70, "velocity": 79}, {"start": 13.78377, "end": 15.13512, "pitch": 69, "velocity": 79}, {"start": 15.810795, "end": 16.081065000000002, "pitch": 72, "velocity": 79}, {"start": 16.2162, "end": 16.48647, "pitch": 74, "velocity": 79}, {"start": 16.621605000000002, "end": 17.29728, "pitch": 74, "velocity": 79}, {"start": 17.432415, "end": 17.702685000000002, "pitch": 74, "velocity": 79}, {"start": 17.83782, "end": 17.972955, "pitch": 79, "velocity": 79}, {"start": 18.0405225, "end": 18.3107925, "pitch": 77, "velocity": 79}, {"start": 18.4459275, "end": 18.783765000000002, "pitch": 76, "velocity": 79}, {"start": 18.8513325, "end": 18.9864675, "pitch": 77, "velocity": 79}, {"start": 19.054035, "end": 19.324305000000003, "pitch": 74, "velocity": 79}, {"start": 19.45944, "end": 20.523628125000002, "pitch": 72, "velocity": 79}, {"start": 21.08106, "end": 21.35133, "pitch": 65, "velocity": 79}, {"start": 21.486465000000003, "end": 21.756735, "pitch": 67, "velocity": 79}, {"start": 21.89187, "end": 22.16214, "pitch": 69, "velocity": 79}, {"start": 22.297275, "end": 22.70268, "pitch": 74, "velocity": 79}, {"start": 22.70268, "end": 23.51349, "pitch": 72, "velocity": 79}, {"start": 23.918895, "end": 24.189165000000003, "pitch": 72, "velocity": 79}, {"start": 24.3243, "end": 24.59457, "pitch": 70, "velocity": 79}, {"start": 24.729705000000003, "end": 25.13511, "pitch": 69, "velocity": 79}, {"start": 25.13511, "end": 25.40538, "pitch": 64, "velocity": 79}, {"start": 25.540515, "end": 25.810785000000003, "pitch": 65, "velocity": 79}, {"start": 25.94592, "end": 27.010108125000002, "pitch": 65, "velocity": 79}, {"start": 28.37835, "end": 28.91889, "pitch": 72, "velocity": 79}, {"start": 29.18916, "end": 31.08105, "pitch": 69, "velocity": 79}, {"start": 31.216185000000003, "end": 31.486455, "pitch": 69, "velocity": 79}, {"start": 31.62159, "end": 31.89186, "pitch": 72, "velocity": 79}, {"start": 32.026995, "end": 32.297265, "pitch": 74, "velocity": 79}, {"start": 32.4324, "end": 34.037128125, "pitch": 67, "velocity": 79}, {"start": 34.86483, "end": 35.1351, "pitch": 67, "velocity": 79}, {"start": 35.270235, "end": 35.540505, "pitch": 69, "velocity": 79}, {"start": 35.67564, "end": 36.21618, "pitch": 70, "velocity": 79}, {"start": 36.486450000000005, "end": 37.567530000000005, "pitch": 77, "velocity": 79}, {"start": 37.702665, "end": 37.972935, "pitch": 77, "velocity": 79}, {"start": 38.10807, "end": 38.37834, "pitch": 76, "velocity": 79}, {"start": 38.513475, "end": 38.783745, "pitch": 72, "velocity": 79}, {"start": 38.91888, "end": 39.18915, "pitch": 74, "velocity": 79}, {"start": 39.324285, "end": 39.526987500000004, "pitch": 72, "velocity": 79}, {"start": 39.526987500000004, "end": 39.729690000000005, "pitch": 70, "velocity": 79}, {"start": 39.729690000000005, "end": 41.08104, "pitch": 69, "velocity": 79}, {"start": 41.756715, "end": 42.026985, "pitch": 72, "velocity": 79}, {"start": 42.16212, "end": 42.297255, "pitch": 74, "velocity": 79}, {"start": 42.3648225, "end": 42.4999575, "pitch": 74, "velocity": 79}, {"start": 43.378335, "end": 43.648605, "pitch": 74, "velocity": 79}, {"start": 43.78374, "end": 43.918875, "pitch": 79, "velocity": 79}, {"start": 43.9864425, "end": 44.2567125, "pitch": 77, "velocity": 79}, {"start": 44.391847500000004, "end": 44.729685, "pitch": 76, "velocity": 79}, {"start": 44.7972525, "end": 44.932387500000004, "pitch": 77, "velocity": 79}, {"start": 44.999955, "end": 45.270225, "pitch": 74, "velocity": 79}, {"start": 45.40536, "end": 46.469548125, "pitch": 72, "velocity": 79}, {"start": 47.02698, "end": 47.297250000000005, "pitch": 65, "velocity": 79}, {"start": 47.432385000000004, "end": 47.702655, "pitch": 67, "velocity": 79}, {"start": 47.83779, "end": 48.10806, "pitch": 69, "velocity": 79}, {"start": 48.243195, "end": 48.6486, "pitch": 74, "velocity": 79}, {"start": 48.6486, "end": 49.459410000000005, "pitch": 72, "velocity": 79}, {"start": 49.864815, "end": 50.135085000000004, "pitch": 72, "velocity": 79}, {"start": 50.27022, "end": 50.540490000000005, "pitch": 70, "velocity": 79}, {"start": 50.675625000000004, "end": 51.08103, "pitch": 69, "velocity": 79}, {"start": 51.08103, "end": 51.3513, "pitch": 64, "velocity": 79}, {"start": 51.486435, "end": 51.756705000000004, "pitch": 65, "velocity": 79}, {"start": 51.89184, "end": 52.956028125, "pitch": 65, "velocity": 79}, {"start": 55.743187500000005, "end": 55.8783225, "pitch": 65, "velocity": 79}, {"start": 55.945890000000006, "end": 56.081025000000004, "pitch": 77, "velocity": 79}, {"start": 56.1485925, "end": 56.4188625, "pitch": 74, "velocity": 79}, {"start": 56.5539975, "end": 57.026970000000006, "pitch": 74, "velocity": 79}, {"start": 57.162105000000004, "end": 57.432375, "pitch": 72, "velocity": 79}, {"start": 57.56751, "end": 57.83778, "pitch": 72, "velocity": 79}, {"start": 57.972915, "end": 58.108050000000006, "pitch": 70, "velocity": 79}, {"start": 58.1756175, "end": 58.91886, "pitch": 74, "velocity": 79}, {"start": 59.189130000000006, "end": 59.4594, "pitch": 77, "velocity": 79}, {"start": 59.594535, "end": 60.54048, "pitch": 74, "velocity": 79}, {"start": 60.81075, "end": 61.08102, "pitch": 77, "velocity": 79}, {"start": 61.216155, "end": 62.432370000000006, "pitch": 70, "velocity": 79}, {"start": 62.432370000000006, "end": 62.70264, "pitch": 77, "velocity": 79}, {"start": 62.837775, "end": 63.108045000000004, "pitch": 74, "velocity": 79}, {"start": 63.24318, "end": 63.513450000000006, "pitch": 74, "velocity": 79}, {"start": 63.648585000000004, "end": 63.918855, "pitch": 72, "velocity": 79}, {"start": 64.05399, "end": 64.32426000000001, "pitch": 70, "velocity": 79}, {"start": 64.459395, "end": 65.40534, "pitch": 72, "velocity": 79}, {"start": 65.67561, "end": 65.94588, "pitch": 74, "velocity": 79}, {"start": 66.08101500000001, "end": 67.02696, "pitch": 72, "velocity": 79}, {"start": 67.29723, "end": 67.5675, "pitch": 70, "velocity": 79}, {"start": 67.702635, "end": 68.37831, "pitch": 69, "velocity": 79}, {"start": 68.513445, "end": 68.91885, "pitch": 67, "velocity": 79}, {"start": 68.91885, "end": 70.2702, "pitch": 65, "velocity": 79}, {"start": 71.9593875, "end": 72.0945225, "pitch": 65, "velocity": 79}, {"start": 72.16209, "end": 72.43236, "pitch": 77, "velocity": 79}, {"start": 72.56749500000001, "end": 72.70263, "pitch": 74, "velocity": 79}, {"start": 72.77019750000001, "end": 73.24317, "pitch": 74, "velocity": 79}, {"start": 73.378305, "end": 73.64857500000001, "pitch": 72, "velocity": 79}, {"start": 73.78371, "end": 74.05398, "pitch": 72, "velocity": 79}, {"start": 74.189115, "end": 74.32425, "pitch": 70, "velocity": 79}, {"start": 74.3918175, "end": 75.13506000000001, "pitch": 74, "velocity": 79}, {"start": 75.40533, "end": 75.6756, "pitch": 77, "velocity": 79}, {"start": 75.81073500000001, "end": 76.75668, "pitch": 74, "velocity": 79}, {"start": 77.02695, "end": 77.29722000000001, "pitch": 77, "velocity": 79}, {"start": 77.432355, "end": 78.64857, "pitch": 70, "velocity": 79}, {"start": 78.64857, "end": 78.91884, "pitch": 77, "velocity": 79}, {"start": 79.05397500000001, "end": 79.72965, "pitch": 74, "velocity": 79}, {"start": 79.864785, "end": 80.13505500000001, "pitch": 72, "velocity": 79}, {"start": 80.27019, "end": 80.54046, "pitch": 70, "velocity": 79}, {"start": 80.675595, "end": 81.62154000000001, "pitch": 72, "velocity": 79}, {"start": 81.89181, "end": 82.16208, "pitch": 74, "velocity": 79}, {"start": 82.29721500000001, "end": 82.97289, "pitch": 72, "velocity": 79}, {"start": 83.108025, "end": 83.78370000000001, "pitch": 70, "velocity": 79}, {"start": 83.918835, "end": 84.9323475, "pitch": 69, "velocity": 79}, {"start": 84.9323475, "end": 85.0674825, "pitch": 67, "velocity": 79}, {"start": 85.13505, "end": 86.21613, "pitch": 65, "velocity": 79}, {"start": 86.351265, "end": 86.62153500000001, "pitch": 65, "velocity": 79}, {"start": 86.75667, "end": 87.02694, "pitch": 72, "velocity": 79}, {"start": 87.162075, "end": 87.432345, "pitch": 74, "velocity": 79}, {"start": 87.56748, "end": 88.1755875, "pitch": 75, "velocity": 79}, {"start": 88.1755875, "end": 88.3107225, "pitch": 74, "velocity": 79}, {"start": 88.37829, "end": 88.91883, "pitch": 75, "velocity": 79}, {"start": 89.1891, "end": 89.45937, "pitch": 76, "velocity": 79}, {"start": 89.594505, "end": 89.86477500000001, "pitch": 77, "velocity": 79}, {"start": 89.99991, "end": 90.54045, "pitch": 79, "velocity": 79}, {"start": 90.81072, "end": 91.874908125, "pitch": 79, "velocity": 79}, {"start": 94.86477000000001, "end": 95.06747250000001, "pitch": 72, "velocity": 79}, {"start": 95.06747250000001, "end": 95.47287750000001, "pitch": 74, "velocity": 79}, {"start": 95.67558, "end": 97.56747, "pitch": 69, "velocity": 79}, {"start": 97.702605, "end": 97.972875, "pitch": 69, "velocity": 79}, {"start": 98.10801000000001, "end": 98.37828, "pitch": 72, "velocity": 79}, {"start": 98.51341500000001, "end": 98.783685, "pitch": 74, "velocity": 79}, {"start": 98.91882000000001, "end": 100.523548125, "pitch": 67, "velocity": 79}, {"start": 101.35125000000001, "end": 101.62152, "pitch": 67, "velocity": 79}, {"start": 101.75665500000001, "end": 102.026925, "pitch": 69, "velocity": 79}, {"start": 102.16206, "end": 102.7026, "pitch": 70, "velocity": 79}, {"start": 102.97287, "end": 104.05395, "pitch": 77, "velocity": 79}, {"start": 104.189085, "end": 104.459355, "pitch": 77, "velocity": 79}, {"start": 104.59449000000001, "end": 104.86476, "pitch": 76, "velocity": 79}, {"start": 104.99989500000001, "end": 105.270165, "pitch": 72, "velocity": 79}, {"start": 105.40530000000001, "end": 105.67557000000001, "pitch": 74, "velocity": 79}, {"start": 105.810705, "end": 106.0134075, "pitch": 72, "velocity": 79}, {"start": 106.0134075, "end": 106.21611, "pitch": 70, "velocity": 79}, {"start": 106.21611, "end": 107.56746000000001, "pitch": 69, "velocity": 79}, {"start": 108.24313500000001, "end": 108.513405, "pitch": 72, "velocity": 79}, {"start": 108.64854, "end": 108.783675, "pitch": 74, "velocity": 79}, {"start": 108.8512425, "end": 108.9863775, "pitch": 74, "velocity": 79}, {"start": 109.864755, "end": 110.135025, "pitch": 74, "velocity": 79}, {"start": 110.27016, "end": 110.40529500000001, "pitch": 79, "velocity": 79}, {"start": 110.4728625, "end": 110.7431325, "pitch": 77, "velocity": 79}, {"start": 110.8782675, "end": 111.216105, "pitch": 76, "velocity": 79}, {"start": 111.28367250000001, "end": 111.4188075, "pitch": 77, "velocity": 79}, {"start": 111.48637500000001, "end": 111.756645, "pitch": 74, "velocity": 79}, {"start": 111.89178000000001, "end": 112.955968125, "pitch": 72, "velocity": 79}, {"start": 113.5134, "end": 113.78367, "pitch": 65, "velocity": 79}, {"start": 113.918805, "end": 114.189075, "pitch": 67, "velocity": 79}, {"start": 114.32421000000001, "end": 114.59448, "pitch": 69, "velocity": 79}, {"start": 114.72961500000001, "end": 115.13502, "pitch": 74, "velocity": 79}, {"start": 115.13502, "end": 115.94583, "pitch": 72, "velocity": 79}, {"start": 116.351235, "end": 116.621505, "pitch": 72, "velocity": 79}, {"start": 116.75664, "end": 117.02691, "pitch": 70, "velocity": 79}, {"start": 117.162045, "end": 117.56745000000001, "pitch": 69, "velocity": 79}, {"start": 117.56745000000001, "end": 117.83772, "pitch": 64, "velocity": 79}, {"start": 117.97285500000001, "end": 118.243125, "pitch": 65, "velocity": 79}, {"start": 118.37826000000001, "end": 119.442448125, "pitch": 65, "velocity": 79}, {"start": 122.2296075, "end": 122.3647425, "pitch": 65, "velocity": 79}, {"start": 122.43231, "end": 122.567445, "pitch": 77, "velocity": 79}, {"start": 122.6350125, "end": 122.9052825, "pitch": 74, "velocity": 79}, {"start": 123.0404175, "end": 123.51339, "pitch": 74, "velocity": 79}, {"start": 123.648525, "end": 123.918795, "pitch": 72, "velocity": 79}, {"start": 124.05393000000001, "end": 124.3242, "pitch": 72, "velocity": 79}, {"start": 124.45933500000001, "end": 124.59447, "pitch": 70, "velocity": 79}, {"start": 124.66203750000001, "end": 125.40528, "pitch": 74, "velocity": 79}, {"start": 125.67555, "end": 125.94582, "pitch": 77, "velocity": 79}, {"start": 126.080955, "end": 127.02690000000001, "pitch": 74, "velocity": 79}, {"start": 127.29717000000001, "end": 127.56744, "pitch": 77, "velocity": 79}, {"start": 127.70257500000001, "end": 128.91879, "pitch": 70, "velocity": 79}, {"start": 128.91879, "end": 129.18906, "pitch": 77, "velocity": 79}, {"start": 129.324195, "end": 129.594465, "pitch": 74, "velocity": 79}, {"start": 129.7296, "end": 129.99987000000002, "pitch": 74, "velocity": 79}, {"start": 130.135005, "end": 130.40527500000002, "pitch": 72, "velocity": 79}, {"start": 130.54041, "end": 130.81068, "pitch": 70, "velocity": 79}, {"start": 130.945815, "end": 131.89176, "pitch": 72, "velocity": 79}, {"start": 132.16203000000002, "end": 132.4323, "pitch": 74, "velocity": 79}, {"start": 132.56743500000002, "end": 133.51338, "pitch": 72, "velocity": 79}, {"start": 133.78365, "end": 134.05392, "pitch": 70, "velocity": 79}, {"start": 134.189055, "end": 134.86473, "pitch": 69, "velocity": 79}, {"start": 134.999865, "end": 135.40527, "pitch": 67, "velocity": 79}, {"start": 135.40527, "end": 136.75662, "pitch": 65, "velocity": 79}, {"start": 138.4458075, "end": 138.5809425, "pitch": 65, "velocity": 79}, {"start": 138.64851000000002, "end": 138.91878, "pitch": 77, "velocity": 79}, {"start": 139.05391500000002, "end": 139.18905, "pitch": 79, "velocity": 79}, {"start": 139.2566175, "end": 139.72959, "pitch": 82, "velocity": 79}, {"start": 139.864725, "end": 140.134995, "pitch": 77, "velocity": 79}, {"start": 140.27013, "end": 140.5404, "pitch": 79, "velocity": 79}, {"start": 140.675535, "end": 140.81067000000002, "pitch": 79, "velocity": 79}, {"start": 140.8782375, "end": 141.2836425, "pitch": 77, "velocity": 79}, {"start": 141.2836425, "end": 141.68904750000002, "pitch": 74, "velocity": 79}, {"start": 141.89175, "end": 142.16202, "pitch": 77, "velocity": 79}, {"start": 142.297155, "end": 143.2431, "pitch": 74, "velocity": 79}, {"start": 143.51337, "end": 143.78364, "pitch": 79, "velocity": 79}, {"start": 143.918775, "end": 144.1214775, "pitch": 74, "velocity": 79}, {"start": 144.1214775, "end": 144.32418, "pitch": 72, "velocity": 79}, {"start": 144.32418, "end": 145.13499000000002, "pitch": 70, "velocity": 79}, {"start": 145.13499000000002, "end": 145.40526, "pitch": 77, "velocity": 79}, {"start": 145.54039500000002, "end": 146.21607, "pitch": 74, "velocity": 79}, {"start": 146.351205, "end": 146.621475, "pitch": 72, "velocity": 79}, {"start": 146.75661, "end": 147.02688, "pitch": 70, "velocity": 79}, {"start": 147.162015, "end": 148.10796, "pitch": 72, "velocity": 79}, {"start": 148.37823, "end": 148.6485, "pitch": 74, "velocity": 79}, {"start": 148.783635, "end": 149.45931000000002, "pitch": 72, "velocity": 79}, {"start": 149.594445, "end": 150.27012000000002, "pitch": 70, "velocity": 79}, {"start": 150.405255, "end": 151.4187675, "pitch": 69, "velocity": 79}, {"start": 151.4187675, "end": 151.5539025, "pitch": 67, "velocity": 79}, {"start": 151.62147000000002, "end": 152.70255, "pitch": 65, "velocity": 79}, {"start": 152.837685, "end": 153.107955, "pitch": 65, "velocity": 79}, {"start": 153.24309, "end": 153.51336, "pitch": 72, "velocity": 79}, {"start": 153.648495, "end": 153.918765, "pitch": 74, "velocity": 79}, {"start": 154.0539, "end": 154.66200750000002, "pitch": 75, "velocity": 79}, {"start": 154.66200750000002, "end": 154.7971425, "pitch": 74, "velocity": 79}, {"start": 154.86471, "end": 155.40525, "pitch": 75, "velocity": 79}, {"start": 155.67552, "end": 155.94579000000002, "pitch": 76, "velocity": 79}, {"start": 156.080925, "end": 156.35119500000002, "pitch": 77, "velocity": 79}, {"start": 156.48633, "end": 157.02687, "pitch": 79, "velocity": 79}, {"start": 157.29714, "end": 158.361328125, "pitch": 79, "velocity": 79}, {"start": 161.35119, "end": 161.55389250000002, "pitch": 72, "velocity": 79}, {"start": 161.55389250000002, "end": 161.8241625, "pitch": 74, "velocity": 79}, {"start": 161.95929750000002, "end": 162.162, "pitch": 77, "velocity": 79}, {"start": 162.162, "end": 162.3647025, "pitch": 72, "velocity": 79}, {"start": 162.3647025, "end": 162.567405, "pitch": 74, "velocity": 79}, {"start": 162.567405, "end": 162.7701075, "pitch": 72, "velocity": 79}, {"start": 162.7701075, "end": 162.97281, "pitch": 67, "velocity": 79}, {"start": 162.97281, "end": 164.18902500000002, "pitch": 69, "velocity": 79}, {"start": 164.18902500000002, "end": 164.59443000000002, "pitch": 69, "velocity": 79}, {"start": 164.59443000000002, "end": 164.99983500000002, "pitch": 72, "velocity": 79}, {"start": 164.99983500000002, "end": 165.40524, "pitch": 74, "velocity": 79}, {"start": 165.40524, "end": 167.02686, "pitch": 67, "velocity": 79}, {"start": 167.83767, "end": 168.243075, "pitch": 67, "velocity": 79}, {"start": 168.243075, "end": 168.64848, "pitch": 69, "velocity": 79}, {"start": 168.64848, "end": 169.18902, "pitch": 70, "velocity": 79}, {"start": 169.45929, "end": 170.54037, "pitch": 77, "velocity": 79}, {"start": 170.67550500000002, "end": 170.945775, "pitch": 77, "velocity": 79}, {"start": 171.08091000000002, "end": 171.35118, "pitch": 76, "velocity": 79}, {"start": 171.48631500000002, "end": 171.756585, "pitch": 72, "velocity": 79}, {"start": 171.89172000000002, "end": 172.16199, "pitch": 74, "velocity": 79}, {"start": 172.297125, "end": 172.4998275, "pitch": 72, "velocity": 79}, {"start": 172.4998275, "end": 172.70253, "pitch": 70, "velocity": 79}, {"start": 172.70253, "end": 174.05388, "pitch": 69, "velocity": 79}, {"start": 174.729555, "end": 174.99982500000002, "pitch": 72, "velocity": 79}, {"start": 175.13496, "end": 175.40523000000002, "pitch": 74, "velocity": 79}, {"start": 175.540365, "end": 176.21604000000002, "pitch": 74, "velocity": 79}, {"start": 176.351175, "end": 176.621445, "pitch": 74, "velocity": 79}, {"start": 176.75658, "end": 176.891715, "pitch": 79, "velocity": 79}, {"start": 176.9592825, "end": 177.2295525, "pitch": 77, "velocity": 79}, {"start": 177.3646875, "end": 177.702525, "pitch": 76, "velocity": 79}, {"start": 177.7700925, "end": 177.9052275, "pitch": 77, "velocity": 79}, {"start": 177.97279500000002, "end": 178.243065, "pitch": 74, "velocity": 79}, {"start": 178.3782, "end": 179.442388125, "pitch": 72, "velocity": 79}, {"start": 179.99982, "end": 180.27009, "pitch": 65, "velocity": 79}, {"start": 180.405225, "end": 180.675495, "pitch": 67, "velocity": 79}, {"start": 180.81063, "end": 181.0809, "pitch": 69, "velocity": 79}, {"start": 181.216035, "end": 181.62144, "pitch": 74, "velocity": 79}, {"start": 181.62144, "end": 182.16198, "pitch": 72, "velocity": 79}, {"start": 182.837655, "end": 183.107925, "pitch": 72, "velocity": 79}, {"start": 183.24306, "end": 183.51333, "pitch": 70, "velocity": 79}, {"start": 183.64846500000002, "end": 184.32414, "pitch": 69, "velocity": 79}, {"start": 184.45927500000002, "end": 185.13495, "pitch": 64, "velocity": 79}, {"start": 185.270085, "end": 185.540355, "pitch": 65, "velocity": 79}, {"start": 185.67549, "end": 185.94576, "pitch": 68, "velocity": 79}, {"start": 186.080895, "end": 186.351165, "pitch": 69, "velocity": 79}, {"start": 186.4863, "end": 186.75657, "pitch": 71, "velocity": 79}, {"start": 186.891705, "end": 187.161975, "pitch": 72, "velocity": 79}, {"start": 187.29711, "end": 187.56738, "pitch": 76, "velocity": 79}, {"start": 187.702515, "end": 187.97278500000002, "pitch": 77, "velocity": 79}, {"start": 188.10792, "end": 188.37819000000002, "pitch": 80, "velocity": 79}, {"start": 188.513325, "end": 188.78359500000002, "pitch": 81, "velocity": 79}, {"start": 188.91873, "end": 189.18900000000002, "pitch": 83, "velocity": 79}, {"start": 189.324135, "end": 189.594405, "pitch": 84, "velocity": 79}, {"start": 189.72954000000001, "end": 190.793728125, "pitch": 89, "velocity": 79}, {"start": 191.35116, "end": 192.415348125, "pitch": 65, "velocity": 79}, {"start": 192.97278, "end": 193.51332000000002, "pitch": 69, "velocity": 79}, {"start": 193.78359, "end": 194.32413, "pitch": 72, "velocity": 79}, {"start": 194.5944, "end": 194.729535, "pitch": 79, "velocity": 79}, {"start": 194.7971025, "end": 194.9322375, "pitch": 77, "velocity": 79}, {"start": 194.999805, "end": 195.27007500000002, "pitch": 79, "velocity": 79}, {"start": 195.40521, "end": 197.280208125, "pitch": 77, "velocity": 79}, {"start": 197.83764000000002, "end": 197.972775, "pitch": 79, "velocity": 79}, {"start": 198.0403425, "end": 198.1754775, "pitch": 77, "velocity": 79}, {"start": 198.243045, "end": 198.513315, "pitch": 79, "velocity": 79}, {"start": 198.64845, "end": 199.9998, "pitch": 77, "velocity": 79}, {"start": 200.27007, "end": 200.675475, "pitch": 75, "velocity": 79}, {"start": 200.675475, "end": 200.94574500000002, "pitch": 74, "velocity": 79}, {"start": 201.08088, "end": 203.226148125, "pitch": 72, "velocity": 79}, {"start": 204.32412, "end": 205.388308125, "pitch": 65, "velocity": 79}, {"start": 205.94574, "end": 206.48628000000002, "pitch": 69, "velocity": 79}, {"start": 206.75655, "end": 207.29709, "pitch": 72, "velocity": 79}, {"start": 207.56736, "end": 207.702495, "pitch": 79, "velocity": 79}, {"start": 207.7700625, "end": 207.9051975, "pitch": 77, "velocity": 79}, {"start": 207.972765, "end": 208.24303500000002, "pitch": 79, "velocity": 79}, {"start": 208.37817, "end": 210.253168125, "pitch": 77, "velocity": 79}, {"start": 210.81060000000002, "end": 210.945735, "pitch": 79, "velocity": 79}, {"start": 211.0133025, "end": 211.1484375, "pitch": 77, "velocity": 79}, {"start": 211.216005, "end": 211.486275, "pitch": 79, "velocity": 79}, {"start": 211.62141, "end": 212.97276, "pitch": 77, "velocity": 79}, {"start": 213.24303, "end": 213.648435, "pitch": 75, "velocity": 79}, {"start": 213.648435, "end": 213.91870500000002, "pitch": 74, "velocity": 79}, {"start": 214.05384, "end": 216.199108125, "pitch": 72, "velocity": 79}, {"start": 217.29708, "end": 218.361268125, "pitch": 65, "velocity": 79}, {"start": 218.9187, "end": 219.45924000000002, "pitch": 69, "velocity": 79}, {"start": 219.72951, "end": 220.27005, "pitch": 72, "velocity": 79}, {"start": 220.54032, "end": 220.675455, "pitch": 79, "velocity": 79}, {"start": 220.7430225, "end": 220.87815750000001, "pitch": 77, "velocity": 79}, {"start": 220.945725, "end": 221.21599500000002, "pitch": 79, "velocity": 79}, {"start": 221.35113, "end": 223.226128125, "pitch": 77, "velocity": 79}, {"start": 223.78356000000002, "end": 223.918695, "pitch": 79, "velocity": 79}, {"start": 223.9862625, "end": 224.1213975, "pitch": 77, "velocity": 79}, {"start": 224.188965, "end": 224.459235, "pitch": 79, "velocity": 79}, {"start": 224.59437, "end": 225.94572, "pitch": 77, "velocity": 79}, {"start": 226.21599, "end": 226.621395, "pitch": 75, "velocity": 79}, {"start": 226.621395, "end": 226.89166500000002, "pitch": 74, "velocity": 79}, {"start": 227.0268, "end": 229.172068125, "pitch": 72, "velocity": 79}, {"start": 230.27004, "end": 231.334228125, "pitch": 65, "velocity": 79}, {"start": 231.89166, "end": 232.43220000000002, "pitch": 69, "velocity": 79}, {"start": 232.70247, "end": 233.24301, "pitch": 72, "velocity": 79}, {"start": 233.51328, "end": 233.648415, "pitch": 79, "velocity": 79}, {"start": 233.7159825, "end": 233.85111750000002, "pitch": 77, "velocity": 79}, {"start": 233.918685, "end": 234.18895500000002, "pitch": 79, "velocity": 79}, {"start": 234.32409, "end": 236.199088125, "pitch": 77, "velocity": 79}, {"start": 236.75652000000002, "end": 236.89165500000001, "pitch": 79, "velocity": 79}, {"start": 236.9592225, "end": 237.0943575, "pitch": 77, "velocity": 79}, {"start": 237.161925, "end": 237.432195, "pitch": 79, "velocity": 79}, {"start": 237.56733, "end": 238.91868, "pitch": 77, "velocity": 79}, {"start": 239.18895, "end": 239.594355, "pitch": 75, "velocity": 79}, {"start": 239.594355, "end": 239.86462500000002, "pitch": 74, "velocity": 79}, {"start": 239.99976, "end": 242.145028125, "pitch": 72, "velocity": 79}, {"start": 243.243, "end": 244.307188125, "pitch": 65, "velocity": 79}, {"start": 244.86462, "end": 245.40516000000002, "pitch": 69, "velocity": 79}, {"start": 245.67543, "end": 246.21597, "pitch": 72, "velocity": 79}, {"start": 246.48624, "end": 246.621375, "pitch": 79, "velocity": 79}, {"start": 246.6889425, "end": 246.82407750000002, "pitch": 77, "velocity": 79}, {"start": 246.891645, "end": 247.16191500000002, "pitch": 79, "velocity": 79}, {"start": 247.29705, "end": 249.172048125, "pitch": 77, "velocity": 79}, {"start": 249.72948000000002, "end": 249.86461500000001, "pitch": 79, "velocity": 79}, {"start": 249.9321825, "end": 250.0673175, "pitch": 77, "velocity": 79}, {"start": 250.134885, "end": 250.405155, "pitch": 79, "velocity": 79}, {"start": 250.54029, "end": 251.89164, "pitch": 77, "velocity": 79}, {"start": 252.16191, "end": 252.567315, "pitch": 75, "velocity": 79}, {"start": 252.567315, "end": 252.83758500000002, "pitch": 74, "velocity": 79}, {"start": 252.97272, "end": 255.117988125, "pitch": 72, "velocity": 79}, {"start": 256.21596, "end": 257.280148125, "pitch": 65, "velocity": 79}, {"start": 257.83758, "end": 258.37812, "pitch": 69, "velocity": 79}, {"start": 258.64839, "end": 259.18893, "pitch": 72, "velocity": 79}, {"start": 259.4592, "end": 259.594335, "pitch": 79, "velocity": 79}, {"start": 259.6619025, "end": 259.7970375, "pitch": 77, "velocity": 79}, {"start": 259.864605, "end": 260.134875, "pitch": 79, "velocity": 79}, {"start": 260.27001, "end": 262.145008125, "pitch": 77, "velocity": 79}, {"start": 262.70244, "end": 262.837575, "pitch": 79, "velocity": 79}, {"start": 262.9051425, "end": 263.0402775, "pitch": 77, "velocity": 79}, {"start": 263.107845, "end": 263.37811500000004, "pitch": 79, "velocity": 79}, {"start": 263.51325, "end": 264.8646, "pitch": 77, "velocity": 79}, {"start": 265.13487000000003, "end": 265.540275, "pitch": 75, "velocity": 79}, {"start": 265.540275, "end": 265.810545, "pitch": 74, "velocity": 79}, {"start": 265.94568000000004, "end": 268.090948125, "pitch": 72, "velocity": 79}]'),
(1564, '[{"start": 1.666665, "end": 1.9999980000000002, "pitch": 71, "velocity": 100}, {"start": 1.9999980000000002, "end": 2.4999975, "pitch": 76, "velocity": 100}, {"start": 2.4999975, "end": 2.666664, "pitch": 79, "velocity": 100}, {"start": 2.666664, "end": 2.999997, "pitch": 78, "velocity": 100}, {"start": 2.999997, "end": 3.6666630000000002, "pitch": 76, "velocity": 100}, {"start": 3.6666630000000002, "end": 3.9999960000000003, "pitch": 83, "velocity": 100}, {"start": 3.9999960000000003, "end": 4.999995, "pitch": 81, "velocity": 100}, {"start": 4.999995, "end": 5.999994, "pitch": 78, "velocity": 100}, {"start": 5.999994, "end": 6.4999935, "pitch": 76, "velocity": 100}, {"start": 6.4999935, "end": 6.66666, "pitch": 79, "velocity": 100}, {"start": 6.66666, "end": 6.999993, "pitch": 78, "velocity": 100}, {"start": 6.999993, "end": 7.666659, "pitch": 74, "velocity": 100}, {"start": 7.666659, "end": 7.999992000000001, "pitch": 77, "velocity": 100}, {"start": 7.999992000000001, "end": 9.666657, "pitch": 71, "velocity": 100}, {"start": 9.666657, "end": 9.99999, "pitch": 71, "velocity": 100}, {"start": 9.99999, "end": 10.4999895, "pitch": 76, "velocity": 100}, {"start": 10.4999895, "end": 10.666656, "pitch": 79, "velocity": 100}, {"start": 10.666656, "end": 10.999989000000001, "pitch": 78, "velocity": 100}, {"start": 10.999989000000001, "end": 11.666655, "pitch": 76, "velocity": 100}, {"start": 11.666655, "end": 11.999988, "pitch": 83, "velocity": 100}, {"start": 11.999988, "end": 12.666654000000001, "pitch": 86, "velocity": 100}, {"start": 12.666654000000001, "end": 12.999987, "pitch": 85, "velocity": 100}, {"start": 12.999987, "end": 13.666653, "pitch": 84, "velocity": 100}, {"start": 13.666653, "end": 13.999986, "pitch": 80, "velocity": 100}, {"start": 13.999986, "end": 14.499985500000001, "pitch": 84, "velocity": 100}, {"start": 14.499985500000001, "end": 14.666652000000001, "pitch": 83, "velocity": 100}, {"start": 14.666652000000001, "end": 14.999985, "pitch": 82, "velocity": 100}, {"start": 14.999985, "end": 15.666651, "pitch": 78, "velocity": 100}, {"start": 15.666651, "end": 15.999984000000001, "pitch": 79, "velocity": 100}, {"start": 15.999984000000001, "end": 17.666649, "pitch": 76, "velocity": 100}, {"start": 17.666649, "end": 17.999982, "pitch": 79, "velocity": 100}, {"start": 17.999982, "end": 18.666648000000002, "pitch": 83, "velocity": 100}, {"start": 18.666648000000002, "end": 18.999981000000002, "pitch": 79, "velocity": 100}, {"start": 18.999981000000002, "end": 19.666647, "pitch": 83, "velocity": 100}, {"start": 19.666647, "end": 19.99998, "pitch": 79, "velocity": 100}, {"start": 19.99998, "end": 20.666646, "pitch": 84, "velocity": 100}, {"start": 20.666646, "end": 20.999979, "pitch": 83, "velocity": 100}, {"start": 20.999979, "end": 21.666645000000003, "pitch": 82, "velocity": 100}, {"start": 21.666645000000003, "end": 21.999978000000002, "pitch": 78, "velocity": 100}, {"start": 21.999978000000002, "end": 22.4999775, "pitch": 79, "velocity": 100}, {"start": 22.4999775, "end": 22.666644, "pitch": 83, "velocity": 100}, {"start": 22.666644, "end": 22.999977, "pitch": 82, "velocity": 100}, {"start": 22.999977, "end": 23.666643, "pitch": 70, "velocity": 100}, {"start": 23.666643, "end": 23.999976, "pitch": 71, "velocity": 100}, {"start": 23.999976, "end": 25.666641000000002, "pitch": 83, "velocity": 100}, {"start": 25.666641000000002, "end": 25.999974, "pitch": 79, "velocity": 100}, {"start": 25.999974, "end": 26.66664, "pitch": 83, "velocity": 100}, {"start": 26.66664, "end": 26.999973, "pitch": 79, "velocity": 100}, {"start": 26.999973, "end": 27.666639, "pitch": 83, "velocity": 100}, {"start": 27.666639, "end": 27.999972, "pitch": 79, "velocity": 100}, {"start": 27.999972, "end": 28.666638000000003, "pitch": 86, "velocity": 100}, {"start": 28.666638000000003, "end": 28.999971000000002, "pitch": 85, "velocity": 100}, {"start": 28.999971000000002, "end": 29.666637, "pitch": 84, "velocity": 100}, {"start": 29.666637, "end": 29.99997, "pitch": 80, "velocity": 100}, {"start": 29.99997, "end": 30.499969500000002, "pitch": 84, "velocity": 100}, {"start": 30.499969500000002, "end": 30.666636, "pitch": 83, "velocity": 100}, {"start": 30.666636, "end": 30.999969, "pitch": 82, "velocity": 100}, {"start": 30.999969, "end": 31.666635000000003, "pitch": 78, "velocity": 100}, {"start": 31.666635000000003, "end": 31.999968000000003, "pitch": 79, "velocity": 100}, {"start": 31.999968000000003, "end": 33.666633000000004, "pitch": 76, "velocity": 100}]'),
(849, '[{"start": 0.222222, "end": 0.7555548, "pitch": 60, "velocity": 80}, {"start": 0.888888, "end": 1.2444431999999999, "pitch": 72, "velocity": 80}, {"start": 1.333332, "end": 1.5111096, "pitch": 71, "velocity": 80}, {"start": 1.5555539999999999, "end": 2.1333311999999998, "pitch": 72, "velocity": 80}, {"start": 2.444442, "end": 2.6222195999999998, "pitch": 65, "velocity": 80}, {"start": 2.666664, "end": 3.0222192, "pitch": 71, "velocity": 80}, {"start": 3.1111079999999998, "end": 3.2888856, "pitch": 70, "velocity": 80}, {"start": 3.3333299999999997, "end": 3.5999963999999998, "pitch": 71, "velocity": 80}, {"start": 4.222218, "end": 4.3999956, "pitch": 65, "velocity": 80}, {"start": 4.44444, "end": 4.6222176, "pitch": 70, "velocity": 80}, {"start": 4.666662, "end": 4.844439599999999, "pitch": 69, "velocity": 80}, {"start": 4.888884, "end": 5.0666616, "pitch": 70, "velocity": 80}, {"start": 5.1111059999999995, "end": 5.2888836, "pitch": 69, "velocity": 80}, {"start": 5.333328, "end": 5.5111056, "pitch": 70, "velocity": 80}, {"start": 5.55555, "end": 5.9111052, "pitch": 72, "velocity": 80}, {"start": 5.999994, "end": 6.1777716, "pitch": 67, "velocity": 80}, {"start": 6.2222159999999995, "end": 6.4888824, "pitch": 69, "velocity": 80}, {"start": 6.555549, "end": 6.8222154, "pitch": 69, "velocity": 80}, {"start": 6.888882, "end": 7.0666595999999995, "pitch": 69, "velocity": 80}, {"start": 7.111104, "end": 7.4666592, "pitch": 69, "velocity": 80}, {"start": 7.777769999999999, "end": 7.9555476, "pitch": 65, "velocity": 80}, {"start": 7.999992, "end": 8.1777696, "pitch": 67, "velocity": 80}, {"start": 8.222214, "end": 8.3999916, "pitch": 67, "velocity": 80}, {"start": 8.444436, "end": 8.7999912, "pitch": 65, "velocity": 80}, {"start": 8.88888, "end": 9.2444352, "pitch": 68, "velocity": 80}, {"start": 9.333324, "end": 9.688879199999999, "pitch": 65, "velocity": 80}, {"start": 9.777768, "end": 10.0444344, "pitch": 69, "velocity": 80}, {"start": 10.111101, "end": 10.3777674, "pitch": 69, "velocity": 80}, {"start": 10.444434, "end": 10.7111004, "pitch": 70, "velocity": 80}, {"start": 10.888878, "end": 11.2444332, "pitch": 69, "velocity": 80}, {"start": 11.777766, "end": 11.9555436, "pitch": 67, "velocity": 80}, {"start": 11.999988, "end": 12.177765599999999, "pitch": 69, "velocity": 80}, {"start": 12.22221, "end": 12.3999876, "pitch": 74, "velocity": 80}, {"start": 12.444431999999999, "end": 12.6222096, "pitch": 69, "velocity": 80}, {"start": 12.666654, "end": 12.8444316, "pitch": 65, "velocity": 80}, {"start": 12.888876, "end": 13.0666536, "pitch": 62, "velocity": 80}, {"start": 13.111098, "end": 14.7555408, "pitch": 72, "velocity": 80}, {"start": 15.111096, "end": 15.288873599999999, "pitch": 74, "velocity": 80}, {"start": 15.333318, "end": 15.511095599999999, "pitch": 73, "velocity": 80}, {"start": 15.555539999999999, "end": 15.7333176, "pitch": 74, "velocity": 80}, {"start": 15.777762, "end": 15.9555396, "pitch": 76, "velocity": 80}, {"start": 15.999984, "end": 16.1777616, "pitch": 77, "velocity": 80}, {"start": 16.222206, "end": 16.3999836, "pitch": 76, "velocity": 80}, {"start": 16.444428, "end": 16.6222056, "pitch": 74, "velocity": 80}, {"start": 16.66665, "end": 17.9555376, "pitch": 72, "velocity": 80}, {"start": 18.666648, "end": 18.8444256, "pitch": 70, "velocity": 80}, {"start": 18.88887, "end": 19.0666476, "pitch": 69, "velocity": 80}, {"start": 19.111092, "end": 19.288869599999998, "pitch": 70, "velocity": 80}, {"start": 19.333313999999998, "end": 19.5110916, "pitch": 69, "velocity": 80}, {"start": 19.555536, "end": 19.7333136, "pitch": 70, "velocity": 80}, {"start": 19.777758, "end": 20.3110908, "pitch": 72, "velocity": 80}, {"start": 20.444423999999998, "end": 20.6222016, "pitch": 69, "velocity": 80}, {"start": 20.666646, "end": 20.8444236, "pitch": 68, "velocity": 80}, {"start": 20.888868, "end": 21.066645599999998, "pitch": 69, "velocity": 80}, {"start": 21.11109, "end": 21.2888676, "pitch": 68, "velocity": 80}, {"start": 21.333312, "end": 21.5110896, "pitch": 69, "velocity": 80}, {"start": 21.555533999999998, "end": 22.088866799999998, "pitch": 70, "velocity": 80}, {"start": 22.2222, "end": 22.3999776, "pitch": 67, "velocity": 80}, {"start": 22.444422, "end": 22.6221996, "pitch": 66, "velocity": 80}, {"start": 22.666643999999998, "end": 22.8444216, "pitch": 67, "velocity": 80}, {"start": 22.888866, "end": 23.0666436, "pitch": 66, "velocity": 80}, {"start": 23.111088, "end": 23.288865599999998, "pitch": 67, "velocity": 80}, {"start": 23.33331, "end": 23.866642799999997, "pitch": 69, "velocity": 80}, {"start": 23.999976, "end": 24.1777536, "pitch": 65, "velocity": 80}, {"start": 24.222198, "end": 24.5777532, "pitch": 69, "velocity": 80}, {"start": 24.666642, "end": 25.1999748, "pitch": 74, "velocity": 80}, {"start": 25.777752, "end": 25.9555296, "pitch": 72, "velocity": 80}, {"start": 26.666639999999997, "end": 26.8444176, "pitch": 73, "velocity": 80}, {"start": 27.555528, "end": 27.733305599999998, "pitch": 74, "velocity": 80}, {"start": 28.444416, "end": 28.6221936, "pitch": 76, "velocity": 80}, {"start": 29.333304, "end": 30.7555248, "pitch": 77, "velocity": 80}]'),
(2933, '[{"start": 20.0, "end": 20.466666666666665, "pitch": 67, "velocity": 79}, {"start": 20.5, "end": 20.78333333333333, "pitch": 69, "velocity": 77}, {"start": 20.75, "end": 21.508333333333333, "pitch": 70, "velocity": 78}, {"start": 21.5, "end": 21.758333333333333, "pitch": 72, "velocity": 71}, {"start": 21.75, "end": 22.333333333333332, "pitch": 70, "velocity": 75}, {"start": 22.25, "end": 23.383333333333333, "pitch": 65, "velocity": 61}, {"start": 24.0, "end": 24.483333333333334, "pitch": 67, "velocity": 76}, {"start": 24.5, "end": 24.78333333333333, "pitch": 69, "velocity": 76}, {"start": 24.75, "end": 25.53333333333333, "pitch": 70, "velocity": 82}, {"start": 25.5, "end": 25.775, "pitch": 72, "velocity": 79}, {"start": 25.75, "end": 27.0, "pitch": 70, "velocity": 83}, {"start": 28.0, "end": 28.491666666666667, "pitch": 67, "velocity": 79}, {"start": 28.5, "end": 28.741666666666667, "pitch": 69, "velocity": 77}, {"start": 28.75, "end": 29.4, "pitch": 70, "velocity": 84}, {"start": 29.5, "end": 29.7, "pitch": 70, "velocity": 82}, {"start": 29.75, "end": 29.983333333333334, "pitch": 72, "velocity": 60}, {"start": 30.0, "end": 30.525, "pitch": 70, "velocity": 84}, {"start": 30.5, "end": 30.775, "pitch": 65, "velocity": 80}, {"start": 30.75, "end": 31.866666666666667, "pitch": 74, "velocity": 94}, {"start": 32.0, "end": 32.45, "pitch": 75, "velocity": 99}, {"start": 32.5, "end": 32.75833333333333, "pitch": 74, "velocity": 94}, {"start": 32.75, "end": 33.49166666666667, "pitch": 72, "velocity": 99}, {"start": 33.5, "end": 33.75, "pitch": 74, "velocity": 79}, {"start": 33.75, "end": 34.041666666666664, "pitch": 70, "velocity": 84}, {"start": 34.0, "end": 35.641666666666666, "pitch": 72, "velocity": 101}, {"start": 36.0, "end": 36.458333333333336, "pitch": 67, "velocity": 75}, {"start": 36.5, "end": 36.69166666666666, "pitch": 69, "velocity": 77}, {"start": 36.75, "end": 37.61666666666667, "pitch": 70, "velocity": 88}, {"start": 37.5, "end": 37.733333333333334, "pitch": 72, "velocity": 76}, {"start": 37.75, "end": 38.25833333333333, "pitch": 70, "velocity": 78}, {"start": 38.25, "end": 38.94166666666666, "pitch": 65, "velocity": 84}, {"start": 40.0, "end": 40.44166666666666, "pitch": 67, "velocity": 93}, {"start": 40.5, "end": 40.775, "pitch": 69, "velocity": 83}, {"start": 40.75, "end": 41.50833333333333, "pitch": 70, "velocity": 90}, {"start": 41.5, "end": 41.75833333333333, "pitch": 72, "velocity": 82}, {"start": 41.75, "end": 42.983333333333334, "pitch": 70, "velocity": 105}, {"start": 44.0, "end": 44.416666666666664, "pitch": 67, "velocity": 91}, {"start": 44.5, "end": 44.74166666666667, "pitch": 69, "velocity": 85}, {"start": 44.75, "end": 45.483333333333334, "pitch": 70, "velocity": 103}, {"start": 45.5, "end": 45.6, "pitch": 65, "velocity": 86}, {"start": 45.75, "end": 46.06666666666666, "pitch": 65, "velocity": 81}, {"start": 46.0, "end": 46.53333333333333, "pitch": 77, "velocity": 91}, {"start": 46.5, "end": 46.775, "pitch": 74, "velocity": 85}, {"start": 46.75, "end": 47.2, "pitch": 72, "velocity": 96}, {"start": 47.25, "end": 47.96666666666667, "pitch": 70, "velocity": 105}, {"start": 48.0, "end": 48.53333333333333, "pitch": 75, "velocity": 97}, {"start": 48.5, "end": 48.68333333333333, "pitch": 74, "velocity": 91}, {"start": 48.75, "end": 49.53333333333333, "pitch": 72, "velocity": 93}, {"start": 49.5, "end": 49.75833333333333, "pitch": 74, "velocity": 91}, {"start": 49.75, "end": 50.96666666666667, "pitch": 72, "velocity": 88}, {"start": 51.75, "end": 51.925, "pitch": 65, "velocity": 110}, {"start": 52.0, "end": 53.49166666666667, "pitch": 77, "velocity": 115}, {"start": 53.5, "end": 53.74166666666667, "pitch": 74, "velocity": 83}, {"start": 53.75, "end": 54.74166666666667, "pitch": 72, "velocity": 85}, {"start": 55.0, "end": 55.49166666666667, "pitch": 77, "velocity": 96}, {"start": 55.5, "end": 56.99166666666667, "pitch": 74, "velocity": 108}, {"start": 57.0, "end": 57.24166666666667, "pitch": 70, "velocity": 87}, {"start": 57.25, "end": 59.99166666666667, "pitch": 67, "velocity": 88}, {"start": 61.0, "end": 61.24166666666667, "pitch": 65, "velocity": 80}, {"start": 61.25, "end": 61.49166666666667, "pitch": 70, "velocity": 73}, {"start": 61.5, "end": 62.99166666666667, "pitch": 75, "velocity": 103}, {"start": 63.0, "end": 63.49166666666667, "pitch": 74, "velocity": 101}, {"start": 63.5, "end": 67.99166666666666, "pitch": 72, "velocity": 96}, {"start": 69.0, "end": 69.24166666666666, "pitch": 67, "velocity": 104}, {"start": 69.25, "end": 69.49166666666666, "pitch": 69, "velocity": 80}, {"start": 69.5, "end": 71.49166666666666, "pitch": 70, "velocity": 108}, {"start": 71.5, "end": 71.74166666666666, "pitch": 65, "velocity": 86}, {"start": 71.75, "end": 72.0, "pitch": 65, "velocity": 100}, {"start": 72.0, "end": 72.49166666666666, "pitch": 77, "velocity": 94}, {"start": 72.5, "end": 72.74166666666666, "pitch": 72, "velocity": 93}, {"start": 73.0, "end": 73.49166666666666, "pitch": 74, "velocity": 91}, {"start": 73.5, "end": 73.74166666666666, "pitch": 70, "velocity": 101}, {"start": 74.0, "end": 74.24166666666666, "pitch": 70, "velocity": 99}, {"start": 74.25, "end": 74.49166666666666, "pitch": 70, "velocity": 93}, {"start": 74.5, "end": 75.74166666666666, "pitch": 67, "velocity": 93}, {"start": 76.0, "end": 76.99166666666666, "pitch": 75, "velocity": 108}, {"start": 77.0, "end": 77.99166666666666, "pitch": 74, "velocity": 102}, {"start": 78.0, "end": 78.99166666666666, "pitch": 72, "velocity": 101}, {"start": 79.0, "end": 79.49166666666666, "pitch": 74, "velocity": 110}, {"start": 79.5, "end": 82.74166666666666, "pitch": 72, "velocity": 97}, {"start": 83.75, "end": 83.99166666666666, "pitch": 65, "velocity": 90}, {"start": 84.0, "end": 85.49166666666666, "pitch": 77, "velocity": 102}, {"start": 85.5, "end": 85.74166666666666, "pitch": 74, "velocity": 91}, {"start": 85.75, "end": 86.99166666666666, "pitch": 72, "velocity": 101}, {"start": 87.0, "end": 87.49166666666666, "pitch": 77, "velocity": 96}, {"start": 87.5, "end": 88.99166666666666, "pitch": 74, "velocity": 97}, {"start": 89.0, "end": 89.24166666666666, "pitch": 70, "velocity": 87}, {"start": 89.25, "end": 89.49166666666666, "pitch": 67, "velocity": 83}, {"start": 89.5, "end": 89.99166666666666, "pitch": 65, "velocity": 60}, {"start": 90.0, "end": 91.24166666666666, "pitch": 63, "velocity": 70}, {"start": 93.0, "end": 93.24166666666666, "pitch": 65, "velocity": 72}, {"start": 93.25, "end": 93.49166666666666, "pitch": 70, "velocity": 67}, {"start": 93.5, "end": 94.99166666666666, "pitch": 75, "velocity": 95}, {"start": 95.0, "end": 95.49166666666666, "pitch": 74, "velocity": 93}, {"start": 95.5, "end": 99.99166666666666, "pitch": 72, "velocity": 97}, {"start": 101.0, "end": 101.24166666666666, "pitch": 67, "velocity": 96}, {"start": 101.25, "end": 101.49166666666666, "pitch": 69, "velocity": 91}, {"start": 101.5, "end": 103.24166666666666, "pitch": 70, "velocity": 103}, {"start": 103.0, "end": 103.24166666666666, "pitch": 65, "velocity": 70}, {"start": 103.5, "end": 103.99166666666666, "pitch": 65, "velocity": 91}, {"start": 104.0, "end": 104.49166666666666, "pitch": 77, "velocity": 96}, {"start": 104.5, "end": 104.74166666666666, "pitch": 72, "velocity": 70}, {"start": 105.0, "end": 105.49166666666666, "pitch": 74, "velocity": 89}, {"start": 105.5, "end": 105.99166666666666, "pitch": 70, "velocity": 84}, {"start": 106.0, "end": 106.24166666666666, "pitch": 70, "velocity": 87}, {"start": 106.25, "end": 106.49166666666666, "pitch": 70, "velocity": 77}, {"start": 106.5, "end": 107.74166666666666, "pitch": 67, "velocity": 94}, {"start": 107.75, "end": 107.99166666666666, "pitch": 65, "velocity": 90}, {"start": 108.0, "end": 108.99166666666666, "pitch": 75, "velocity": 93}, {"start": 109.0, "end": 109.99166666666666, "pitch": 74, "velocity": 101}, {"start": 110.0, "end": 110.99166666666666, "pitch": 72, "velocity": 94}, {"start": 111.0, "end": 111.49166666666666, "pitch": 70, "velocity": 84}, {"start": 111.5, "end": 115.74166666666666, "pitch": 70, "velocity": 108}, {"start": 132.0, "end": 132.49166666666667, "pitch": 67, "velocity": 73}, {"start": 132.5, "end": 132.74166666666667, "pitch": 69, "velocity": 82}, {"start": 132.75, "end": 133.49166666666667, "pitch": 70, "velocity": 90}, {"start": 133.5, "end": 133.74166666666667, "pitch": 72, "velocity": 85}, {"start": 133.75, "end": 134.49166666666667, "pitch": 70, "velocity": 101}, {"start": 134.25, "end": 134.99166666666667, "pitch": 65, "velocity": 97}, {"start": 136.0, "end": 136.49166666666667, "pitch": 67, "velocity": 88}, {"start": 136.5, "end": 136.74166666666667, "pitch": 69, "velocity": 84}, {"start": 136.75, "end": 137.49166666666667, "pitch": 70, "velocity": 82}, {"start": 137.5, "end": 137.74166666666667, "pitch": 72, "velocity": 83}, {"start": 137.75, "end": 139.24166666666667, "pitch": 70, "velocity": 88}, {"start": 140.0, "end": 140.49166666666667, "pitch": 67, "velocity": 85}, {"start": 140.5, "end": 140.74166666666667, "pitch": 69, "velocity": 76}, {"start": 140.75, "end": 141.49166666666667, "pitch": 70, "velocity": 83}, {"start": 141.5, "end": 141.74166666666667, "pitch": 70, "velocity": 82}, {"start": 141.75, "end": 141.99166666666667, "pitch": 72, "velocity": 81}, {"start": 142.0, "end": 142.49166666666667, "pitch": 70, "velocity": 84}, {"start": 142.5, "end": 142.74166666666667, "pitch": 65, "velocity": 77}, {"start": 142.75, "end": 143.74166666666667, "pitch": 74, "velocity": 90}, {"start": 144.0, "end": 144.49166666666667, "pitch": 75, "velocity": 80}, {"start": 144.5, "end": 144.74166666666667, "pitch": 74, "velocity": 84}, {"start": 144.75, "end": 145.49166666666667, "pitch": 72, "velocity": 90}, {"start": 145.5, "end": 145.74166666666667, "pitch": 74, "velocity": 88}, {"start": 145.75, "end": 145.99166666666667, "pitch": 70, "velocity": 74}, {"start": 146.0, "end": 147.24166666666667, "pitch": 72, "velocity": 90}, {"start": 148.0, "end": 148.49166666666667, "pitch": 67, "velocity": 91}, {"start": 148.5, "end": 148.74166666666667, "pitch": 69, "velocity": 85}, {"start": 148.75, "end": 149.49166666666667, "pitch": 70, "velocity": 93}, {"start": 149.5, "end": 149.74166666666667, "pitch": 72, "velocity": 86}, {"start": 149.75, "end": 150.24166666666667, "pitch": 70, "velocity": 87}, {"start": 150.25, "end": 151.24166666666667, "pitch": 65, "velocity": 79}, {"start": 151.0, "end": 151.24166666666667, "pitch": 65, "velocity": 58}, {"start": 151.25, "end": 151.49166666666667, "pitch": 70, "velocity": 61}, {"start": 151.5, "end": 151.74166666666667, "pitch": 72, "velocity": 59}, {"start": 151.75, "end": 151.99166666666667, "pitch": 77, "velocity": 76}, {"start": 152.0, "end": 152.49166666666667, "pitch": 67, "velocity": 88}, {"start": 152.5, "end": 152.74166666666667, "pitch": 69, "velocity": 77}, {"start": 152.75, "end": 153.49166666666667, "pitch": 70, "velocity": 95}, {"start": 153.5, "end": 153.74166666666667, "pitch": 72, "velocity": 76}, {"start": 153.75, "end": 155.24166666666667, "pitch": 70, "velocity": 93}, {"start": 155.0, "end": 155.24166666666667, "pitch": 77, "velocity": 89}, {"start": 155.25, "end": 155.49166666666667, "pitch": 82, "velocity": 88}, {"start": 155.5, "end": 155.74166666666667, "pitch": 84, "velocity": 80}, {"start": 156.0, "end": 156.49166666666667, "pitch": 67, "velocity": 85}, {"start": 156.5, "end": 156.74166666666667, "pitch": 69, "velocity": 77}, {"start": 156.75, "end": 157.49166666666667, "pitch": 70, "velocity": 80}, {"start": 157.5, "end": 157.74166666666667, "pitch": 65, "velocity": 76}, {"start": 157.75, "end": 157.99166666666667, "pitch": 65, "velocity": 73}, {"start": 155.75, "end": 157.99166666666667, "pitch": 89, "velocity": 97}, {"start": 158.0, "end": 158.49166666666667, "pitch": 77, "velocity": 85}, {"start": 158.5, "end": 158.99166666666667, "pitch": 74, "velocity": 75}, {"start": 159.0, "end": 159.24166666666667, "pitch": 72, "velocity": 78}, {"start": 159.25, "end": 159.49166666666667, "pitch": 67, "velocity": 72}, {"start": 159.5, "end": 159.99166666666667, "pitch": 67, "velocity": 82}, {"start": 160.0, "end": 160.49166666666667, "pitch": 75, "velocity": 92}, {"start": 160.5, "end": 160.74166666666667, "pitch": 74, "velocity": 88}, {"start": 160.75, "end": 161.49166666666667, "pitch": 72, "velocity": 89}, {"start": 161.5, "end": 161.74166666666667, "pitch": 74, "velocity": 85}, {"start": 161.75, "end": 162.99166666666667, "pitch": 72, "velocity": 88}, {"start": 165.5, "end": 166.0, "pitch": 65, "velocity": 100}, {"start": 166.0, "end": 167.49166666666667, "pitch": 77, "velocity": 115}, {"start": 167.5, "end": 167.74166666666667, "pitch": 74, "velocity": 83}, {"start": 167.75, "end": 168.74166666666667, "pitch": 72, "velocity": 85}, {"start": 169.0, "end": 169.49166666666667, "pitch": 77, "velocity": 96}, {"start": 169.5, "end": 170.99166666666667, "pitch": 74, "velocity": 108}, {"start": 171.0, "end": 171.24166666666667, "pitch": 70, "velocity": 87}, {"start": 171.25, "end": 173.99166666666667, "pitch": 67, "velocity": 88}, {"start": 175.0, "end": 175.24166666666667, "pitch": 65, "velocity": 80}, {"start": 175.25, "end": 175.49166666666667, "pitch": 70, "velocity": 73}, {"start": 175.5, "end": 176.99166666666667, "pitch": 75, "velocity": 103}, {"start": 177.0, "end": 177.49166666666667, "pitch": 74, "velocity": 101}, {"start": 177.5, "end": 181.99166666666667, "pitch": 72, "velocity": 96}, {"start": 183.0, "end": 183.24166666666667, "pitch": 67, "velocity": 104}, {"start": 183.25, "end": 183.49166666666667, "pitch": 69, "velocity": 80}, {"start": 183.5, "end": 185.49166666666667, "pitch": 70, "velocity": 108}, {"start": 185.5, "end": 185.74166666666667, "pitch": 65, "velocity": 86}, {"start": 185.75, "end": 186.0, "pitch": 65, "velocity": 100}, {"start": 186.0, "end": 186.49166666666667, "pitch": 77, "velocity": 94}, {"start": 186.5, "end": 186.74166666666667, "pitch": 72, "velocity": 93}, {"start": 187.0, "end": 187.49166666666667, "pitch": 74, "velocity": 91}, {"start": 187.5, "end": 187.74166666666667, "pitch": 70, "velocity": 101}, {"start": 188.0, "end": 188.24166666666667, "pitch": 70, "velocity": 99}, {"start": 188.25, "end": 188.49166666666667, "pitch": 70, "velocity": 93}, {"start": 188.5, "end": 189.74166666666667, "pitch": 67, "velocity": 93}, {"start": 190.0, "end": 190.99166666666667, "pitch": 75, "velocity": 108}, {"start": 191.0, "end": 191.99166666666667, "pitch": 74, "velocity": 102}, {"start": 192.0, "end": 192.99166666666667, "pitch": 72, "velocity": 101}, {"start": 193.0, "end": 193.49166666666667, "pitch": 74, "velocity": 110}, {"start": 193.5, "end": 196.74166666666667, "pitch": 72, "velocity": 97}, {"start": 197.75, "end": 197.99166666666667, "pitch": 65, "velocity": 90}, {"start": 198.0, "end": 198.99166666666667, "pitch": 77, "velocity": 102}, {"start": 199.0, "end": 199.24166666666667, "pitch": 77, "velocity": 31}, {"start": 199.5, "end": 199.74166666666667, "pitch": 74, "velocity": 91}, {"start": 199.75, "end": 200.99166666666667, "pitch": 72, "velocity": 101}, {"start": 201.0, "end": 201.49166666666667, "pitch": 77, "velocity": 96}, {"start": 201.5, "end": 202.99166666666667, "pitch": 74, "velocity": 97}, {"start": 203.0, "end": 203.24166666666667, "pitch": 70, "velocity": 87}, {"start": 203.25, "end": 203.49166666666667, "pitch": 67, "velocity": 83}, {"start": 203.5, "end": 203.99166666666667, "pitch": 65, "velocity": 60}, {"start": 204.0, "end": 205.24166666666667, "pitch": 63, "velocity": 70}, {"start": 207.0, "end": 207.24166666666667, "pitch": 65, "velocity": 72}, {"start": 207.25, "end": 207.49166666666667, "pitch": 70, "velocity": 67}, {"start": 207.5, "end": 208.99166666666667, "pitch": 75, "velocity": 95}, {"start": 209.0, "end": 209.49166666666667, "pitch": 74, "velocity": 93}, {"start": 209.5, "end": 213.99166666666667, "pitch": 72, "velocity": 97}, {"start": 215.0, "end": 215.24166666666667, "pitch": 67, "velocity": 96}, {"start": 215.25, "end": 215.49166666666667, "pitch": 69, "velocity": 91}, {"start": 215.5, "end": 217.24166666666667, "pitch": 70, "velocity": 103}, {"start": 217.5, "end": 217.74166666666667, "pitch": 65, "velocity": 91}, {"start": 217.75, "end": 217.99166666666667, "pitch": 65, "velocity": 70}, {"start": 218.0, "end": 218.49166666666667, "pitch": 77, "velocity": 96}, {"start": 218.5, "end": 218.74166666666667, "pitch": 72, "velocity": 70}, {"start": 219.0, "end": 219.49166666666667, "pitch": 74, "velocity": 89}, {"start": 219.5, "end": 219.99166666666667, "pitch": 70, "velocity": 84}, {"start": 220.0, "end": 220.24166666666667, "pitch": 70, "velocity": 87}, {"start": 220.25, "end": 220.49166666666667, "pitch": 70, "velocity": 77}, {"start": 220.5, "end": 221.74166666666667, "pitch": 67, "velocity": 94}, {"start": 221.75, "end": 221.99166666666667, "pitch": 65, "velocity": 90}, {"start": 222.0, "end": 222.99166666666667, "pitch": 75, "velocity": 93}, {"start": 223.0, "end": 223.99166666666667, "pitch": 74, "velocity": 101}, {"start": 224.0, "end": 224.99166666666667, "pitch": 72, "velocity": 94}, {"start": 225.0, "end": 225.49166666666667, "pitch": 70, "velocity": 84}, {"start": 225.5, "end": 229.74166666666667, "pitch": 70, "velocity": 108}, {"start": 231.0, "end": 231.24166666666667, "pitch": 67, "velocity": 79}, {"start": 231.25, "end": 231.49166666666667, "pitch": 69, "velocity": 89}, {"start": 231.5, "end": 233.49166666666667, "pitch": 70, "velocity": 90}, {"start": 233.5, "end": 233.74166666666667, "pitch": 65, "velocity": 78}, {"start": 233.75, "end": 233.99166666666667, "pitch": 65, "velocity": 86}, {"start": 234.0, "end": 234.49166666666667, "pitch": 77, "velocity": 83}, {"start": 234.5, "end": 234.99166666666667, "pitch": 72, "velocity": 83}, {"start": 235.0, "end": 235.49166666666667, "pitch": 74, "velocity": 79}, {"start": 235.5, "end": 235.99166666666667, "pitch": 70, "velocity": 79}, {"start": 236.0, "end": 236.24166666666667, "pitch": 70, "velocity": 84}, {"start": 236.25, "end": 236.49166666666667, "pitch": 70, "velocity": 75}, {"start": 236.5, "end": 237.49166666666667, "pitch": 67, "velocity": 88}, {"start": 237.5, "end": 237.99166666666667, "pitch": 65, "velocity": 80}, {"start": 238.0, "end": 239.0084745083333, "pitch": 75, "velocity": 101}, {"start": 239.01709519999997, "end": 240.07019959166664, "pitch": 74, "velocity": 96}, {"start": 240.07920859999996, "end": 241.1810760416666, "pitch": 72, "velocity": 85}, {"start": 241.19050999999996, "end": 241.7566467583333, "pitch": 70, "velocity": 90}, {"start": 241.76635549999995, "end": 244.74577839999992, "pitch": 70, "velocity": 88}]'),
(3140, '[{"start": 14.836369999999999, "end": 15.238766864583331, "pitch": 69, "velocity": 127}, {"start": 15.247328499999998, "end": 15.444246114583333, "pitch": 69, "velocity": 127}, {"start": 15.452807749999998, "end": 16.077929437499996, "pitch": 69, "velocity": 127}, {"start": 16.086858, "end": 16.506500437499998, "pitch": 69, "velocity": 127}, {"start": 16.515428999999997, "end": 17.00501233333333, "pitch": 69, "velocity": 127}, {"start": 17.015428999999997, "end": 17.276792614583332, "pitch": 73, "velocity": 127}, {"start": 17.288156249999997, "end": 20.935745749999995, "pitch": 73, "velocity": 127}, {"start": 22.388661499999998, "end": 22.585579114583332, "pitch": 69, "velocity": 127}, {"start": 22.594140749999998, "end": 23.219262437499996, "pitch": 69, "velocity": 127}, {"start": 23.228191, "end": 23.647833437499997, "pitch": 69, "velocity": 127}, {"start": 23.656761999999997, "end": 24.14634533333333, "pitch": 69, "velocity": 127}, {"start": 24.156761999999997, "end": 24.69085286458333, "pitch": 69, "velocity": 127}, {"start": 25.113175, "end": 25.515571864583332, "pitch": 73, "velocity": 127}, {"start": 25.524133499999998, "end": 26.1580614375, "pitch": 73, "velocity": 127}, {"start": 26.16699, "end": 26.372346937499998, "pitch": 73, "velocity": 127}, {"start": 26.381275499999997, "end": 26.602429124999997, "pitch": 73, "velocity": 75}, {"start": 26.612044499999996, "end": 26.833198125, "pitch": 71, "velocity": 75}, {"start": 26.8428135, "end": 27.637684833333328, "pitch": 69, "velocity": 92}, {"start": 28.734420999999998, "end": 28.918715687499997, "pitch": 76, "velocity": 92}, {"start": 28.926728499999996, "end": 29.1110231875, "pitch": 76, "velocity": 92}, {"start": 29.119035999999998, "end": 29.521432864583332, "pitch": 76, "velocity": 92}, {"start": 29.529994499999997, "end": 29.72691211458333, "pitch": 74, "velocity": 92}, {"start": 29.735473749999997, "end": 31.570822249999996, "pitch": 73, "velocity": 92}, {"start": 32.254508, "end": 32.65690486458333, "pitch": 76, "velocity": 92}, {"start": 32.6654665, "end": 33.0851089375, "pitch": 76, "velocity": 92}, {"start": 33.0940375, "end": 33.5136799375, "pitch": 74, "velocity": 92}, {"start": 33.522608500000004, "end": 33.974531125000006, "pitch": 73, "velocity": 92}, {"start": 33.9841465, "end": 34.205300125, "pitch": 71, "velocity": 92}, {"start": 34.214915500000004, "end": 34.436069125, "pitch": 73, "velocity": 92}, {"start": 34.695684500000006, "end": 35.47977536458334, "pitch": 73, "velocity": 92}, {"start": 35.6834465, "end": 35.8677411875, "pitch": 69, "velocity": 92}, {"start": 35.875754, "end": 36.06004868750001, "pitch": 76, "velocity": 92}, {"start": 36.068061500000006, "end": 36.252356187500006, "pitch": 76, "velocity": 92}, {"start": 36.260369000000004, "end": 36.52577969791667, "pitch": 76, "velocity": 92}, {"start": 36.53434133333334, "end": 36.79975203125, "pitch": 76, "velocity": 92}, {"start": 36.80831366666667, "end": 37.073724364583335, "pitch": 76, "velocity": 92}, {"start": 37.082286, "end": 37.394785687500004, "pitch": 76, "velocity": 92}, {"start": 37.40371425, "end": 37.60907118750001, "pitch": 73, "velocity": 92}, {"start": 37.61799975, "end": 38.39776133333334, "pitch": 76, "velocity": 92}, {"start": 39.395841000000004, "end": 39.59275861458334, "pitch": 76, "velocity": 92}, {"start": 39.60132025000001, "end": 40.0121564375, "pitch": 76, "velocity": 92}, {"start": 40.02108500000001, "end": 40.4407274375, "pitch": 76, "velocity": 92}, {"start": 40.449656000000004, "end": 41.202402500000005, "pitch": 76, "velocity": 92}, {"start": 41.58701750000001, "end": 41.98941436458334, "pitch": 80, "velocity": 92}, {"start": 41.99797600000001, "end": 42.19489361458334, "pitch": 81, "velocity": 92}, {"start": 42.20345525000001, "end": 43.04995950000001, "pitch": 81, "velocity": 92}, {"start": 43.562779500000005, "end": 43.93938168750001, "pitch": 80, "velocity": 92}, {"start": 43.94739450000001, "end": 44.323996687500006, "pitch": 80, "velocity": 92}, {"start": 44.332009500000005, "end": 44.70861168750001, "pitch": 80, "velocity": 92}, {"start": 44.71662450000001, "end": 45.09322668750001, "pitch": 80, "velocity": 92}, {"start": 45.101239500000005, "end": 45.285534187500005, "pitch": 81, "velocity": 92}, {"start": 45.29354700000001, "end": 46.12687950000001, "pitch": 81, "velocity": 92}, {"start": 46.639699500000006, "end": 47.016301687500004, "pitch": 80, "velocity": 92}, {"start": 47.02431450000001, "end": 47.40091668750001, "pitch": 80, "velocity": 92}, {"start": 47.408929500000006, "end": 47.78553168750001, "pitch": 80, "velocity": 92}, {"start": 47.79354450000001, "end": 48.17014668750001, "pitch": 80, "velocity": 92}, {"start": 48.17815950000001, "end": 48.362454187500006, "pitch": 81, "velocity": 92}, {"start": 48.370467000000005, "end": 49.20379950000001, "pitch": 81, "velocity": 92}, {"start": 49.71661950000001, "end": 50.093221687500005, "pitch": 80, "velocity": 92}, {"start": 50.101234500000004, "end": 50.47783668750001, "pitch": 80, "velocity": 92}, {"start": 50.48584950000001, "end": 50.862451687500005, "pitch": 80, "velocity": 92}, {"start": 50.87046450000001, "end": 51.24706668750001, "pitch": 80, "velocity": 92}, {"start": 51.25507950000001, "end": 51.631681687500006, "pitch": 80, "velocity": 92}, {"start": 51.639694500000004, "end": 52.280719500000004, "pitch": 80, "velocity": 92}, {"start": 52.408924500000005, "end": 52.78552668750001, "pitch": 80, "velocity": 92}, {"start": 52.79353950000001, "end": 53.43456450000001, "pitch": 81, "velocity": 92}, {"start": 53.56276950000001, "end": 54.20379450000001, "pitch": 83, "velocity": 92}, {"start": 54.33199950000001, "end": 54.900909187500005, "pitch": 81, "velocity": 92}, {"start": 55.29353700000001, "end": 55.47783168750001, "pitch": 78, "velocity": 92}, {"start": 55.485844500000006, "end": 55.862446687500004, "pitch": 81, "velocity": 92}, {"start": 55.87045950000001, "end": 56.51148450000001, "pitch": 80, "velocity": 92}, {"start": 56.6396895, "end": 57.665329500000006, "pitch": 81, "velocity": 92}, {"start": 57.79353450000001, "end": 58.170136687500005, "pitch": 83, "velocity": 92}, {"start": 58.1781495, "end": 58.5547516875, "pitch": 83, "velocity": 92}, {"start": 58.56276450000001, "end": 58.939366687500005, "pitch": 81, "velocity": 92}, {"start": 58.94737950000001, "end": 59.58840450000001, "pitch": 80, "velocity": 92}, {"start": 59.716609500000004, "end": 60.0932116875, "pitch": 81, "velocity": 92}, {"start": 60.1012245, "end": 60.477826687500006, "pitch": 80, "velocity": 92}, {"start": 60.485839500000004, "end": 60.86244168750001, "pitch": 78, "velocity": 92}, {"start": 61.447377, "end": 61.6316716875, "pitch": 73, "velocity": 92}, {"start": 61.6396845, "end": 62.016286687500006, "pitch": 81, "velocity": 92}, {"start": 62.024299500000005, "end": 62.665324500000004, "pitch": 80, "velocity": 92}, {"start": 62.793529500000005, "end": 63.8191695, "pitch": 81, "velocity": 92}, {"start": 63.94737450000001, "end": 64.32397668750001, "pitch": 83, "velocity": 92}, {"start": 64.3319895, "end": 64.7085916875, "pitch": 83, "velocity": 92}, {"start": 64.7166045, "end": 65.0932066875, "pitch": 81, "velocity": 92}, {"start": 65.10121950000001, "end": 65.7422445, "pitch": 80, "velocity": 92}, {"start": 65.8704495, "end": 66.2470516875, "pitch": 81, "velocity": 92}, {"start": 66.2550645, "end": 66.4393591875, "pitch": 80, "velocity": 92}, {"start": 66.447372, "end": 67.0162816875, "pitch": 78, "velocity": 92}, {"start": 67.601217, "end": 67.7855116875, "pitch": 73, "velocity": 92}, {"start": 67.7935245, "end": 68.1701266875, "pitch": 81, "velocity": 92}, {"start": 68.1781395, "end": 68.8191645, "pitch": 80, "velocity": 92}, {"start": 68.94736950000001, "end": 69.9730095, "pitch": 81, "velocity": 92}, {"start": 70.1012145, "end": 70.74223950000001, "pitch": 83, "velocity": 92}, {"start": 70.8704445, "end": 71.2470466875, "pitch": 81, "velocity": 92}, {"start": 71.2550595, "end": 71.8960845, "pitch": 80, "velocity": 92}, {"start": 72.02428950000001, "end": 72.4008916875, "pitch": 81, "velocity": 92}, {"start": 72.4089045, "end": 72.7855066875, "pitch": 80, "velocity": 92}, {"start": 72.7935195, "end": 73.1701216875, "pitch": 81, "velocity": 92}, {"start": 73.75505700000001, "end": 73.93935168750001, "pitch": 73, "velocity": 92}, {"start": 73.9473645, "end": 74.3239666875, "pitch": 81, "velocity": 92}, {"start": 74.3319795, "end": 74.9730045, "pitch": 80, "velocity": 92}, {"start": 75.10120950000001, "end": 76.1268495, "pitch": 81, "velocity": 92}, {"start": 76.2550545, "end": 76.4393491875, "pitch": 81, "velocity": 92}, {"start": 76.447362, "end": 79.139667, "pitch": 80, "velocity": 92}, {"start": 80.8704345, "end": 82.216587, "pitch": 80, "velocity": 92}, {"start": 84.0000415, "end": 85.62991075, "pitch": 57, "velocity": 60}, {"start": 82.4088945, "end": 85.62991075, "pitch": 81, "velocity": 92}, {"start": 85.902638, "end": 89.27750024999999, "pitch": 56, "velocity": 60}, {"start": 89.55022749999999, "end": 92.723551, "pitch": 57, "velocity": 60}, {"start": 92.9508235, "end": 96.24526549999999, "pitch": 56, "velocity": 60}, {"start": 97.24526449999999, "end": 97.64766136458333, "pitch": 69, "velocity": 127}, {"start": 97.656223, "end": 97.85314061458332, "pitch": 69, "velocity": 127}, {"start": 97.86170225, "end": 98.48682393749999, "pitch": 69, "velocity": 127}, {"start": 98.4957525, "end": 98.9153949375, "pitch": 69, "velocity": 127}, {"start": 98.92432349999999, "end": 99.41390683333331, "pitch": 69, "velocity": 127}, {"start": 99.42432349999999, "end": 99.68568711458332, "pitch": 73, "velocity": 127}, {"start": 99.69705074999999, "end": 103.34464024999998, "pitch": 73, "velocity": 127}, {"start": 104.79755599999999, "end": 104.99447361458331, "pitch": 69, "velocity": 127}, {"start": 105.00303524999998, "end": 105.62815693749998, "pitch": 69, "velocity": 127}, {"start": 105.63708549999998, "end": 105.84244243749998, "pitch": 69, "velocity": 127}, {"start": 105.85137099999997, "end": 106.3052398333333, "pitch": 69, "velocity": 127}, {"start": 106.31565649999997, "end": 106.5552398333333, "pitch": 69, "velocity": 127}, {"start": 106.56565649999997, "end": 107.09974736458331, "pitch": 68, "velocity": 127}, {"start": 107.52206949999999, "end": 107.92446636458331, "pitch": 73, "velocity": 127}, {"start": 107.93302799999998, "end": 108.56695593749998, "pitch": 73, "velocity": 127}, {"start": 108.57588449999997, "end": 108.78124143749997, "pitch": 73, "velocity": 127}, {"start": 108.79016999999997, "end": 109.24209262499997, "pitch": 73, "velocity": 75}, {"start": 109.25170799999998, "end": 109.47286162499998, "pitch": 71, "velocity": 75}, {"start": 109.48247699999997, "end": 109.9528293333333, "pitch": 73, "velocity": 75}, {"start": 109.96324599999997, "end": 110.2028293333333, "pitch": 74, "velocity": 75}, {"start": 110.21324599999997, "end": 110.7473368645833, "pitch": 73, "velocity": 75}, {"start": 111.33562299999997, "end": 111.51991768749997, "pitch": 69, "velocity": 127}, {"start": 111.52793049999997, "end": 112.1358066145833, "pitch": 69, "velocity": 127}, {"start": 112.14436824999997, "end": 112.3412858645833, "pitch": 69, "velocity": 127}, {"start": 112.34984749999997, "end": 112.98377543749997, "pitch": 69, "velocity": 127}, {"start": 112.99270399999996, "end": 113.19806093749997, "pitch": 69, "velocity": 127}, {"start": 113.20698949999996, "end": 113.9683531145833, "pitch": 69, "velocity": 127}, {"start": 113.97971674999997, "end": 114.6548408645833, "pitch": 73, "velocity": 127}, {"start": 114.66340249999998, "end": 115.0657993645833, "pitch": 73, "velocity": 127}, {"start": 115.07436099999997, "end": 115.49400343749997, "pitch": 73, "velocity": 127}, {"start": 115.50293199999997, "end": 115.70828893749997, "pitch": 76, "velocity": 127}, {"start": 115.71721749999996, "end": 116.15265662499996, "pitch": 73, "velocity": 127}, {"start": 116.16227199999996, "end": 116.38342562499996, "pitch": 71, "velocity": 127}, {"start": 116.39304099999997, "end": 117.5395098333333, "pitch": 69, "velocity": 127}, {"start": 118.06111099999995, "end": 118.43771318749995, "pitch": 76, "velocity": 127}, {"start": 118.44572599999995, "end": 118.84812286458329, "pitch": 76, "velocity": 127}, {"start": 118.85668449999996, "end": 119.05360211458328, "pitch": 74, "velocity": 127}, {"start": 119.06216374999995, "end": 120.62478499999995, "pitch": 73, "velocity": 127}, {"start": 121.58119799999996, "end": 122.19751343749995, "pitch": 76, "velocity": 127}, {"start": 122.20644199999995, "end": 122.62608443749996, "pitch": 74, "velocity": 127}, {"start": 122.63501299999994, "end": 123.30122112499994, "pitch": 73, "velocity": 127}, {"start": 123.31083649999995, "end": 123.53199012499995, "pitch": 71, "velocity": 127}, {"start": 123.54160549999995, "end": 123.96929211458327, "pitch": 73, "velocity": 127}, {"start": 123.97785374999994, "end": 124.17477136458328, "pitch": 74, "velocity": 127}, {"start": 124.18333299999995, "end": 124.58572986458327, "pitch": 73, "velocity": 127}, {"start": 124.97890649999994, "end": 125.35550868749993, "pitch": 76, "velocity": 127}, {"start": 125.36352149999993, "end": 125.76591836458327, "pitch": 76, "velocity": 127}, {"start": 125.77447999999994, "end": 125.97139761458327, "pitch": 74, "velocity": 127}, {"start": 125.97995924999994, "end": 126.60508093749993, "pitch": 73, "velocity": 127}, {"start": 126.61400949999994, "end": 126.81936643749994, "pitch": 71, "velocity": 127}, {"start": 126.82829499999993, "end": 127.63348958333326, "pitch": 73, "velocity": 127}, {"start": 128.49899349999993, "end": 128.90139036458328, "pitch": 76, "velocity": 127}, {"start": 128.90995199999995, "end": 129.32959443749994, "pitch": 76, "velocity": 127}, {"start": 129.33852299999995, "end": 129.75816543749994, "pitch": 76, "velocity": 127}, {"start": 129.76709399999996, "end": 130.44978562499995, "pitch": 76, "velocity": 127}, {"start": 130.45940099999996, "end": 130.68055462499996, "pitch": 76, "velocity": 127}, {"start": 130.69016999999997, "end": 131.0925668645833, "pitch": 80, "velocity": 127}, {"start": 131.10112849999996, "end": 131.5035253645833, "pitch": 81, "velocity": 127}, {"start": 131.51208699999998, "end": 132.153112, "pitch": 81, "velocity": 127}, {"start": 132.66593199999997, "end": 133.04253418749997, "pitch": 80, "velocity": 127}, {"start": 133.05054699999997, "end": 133.4271491875, "pitch": 80, "velocity": 127}, {"start": 133.435162, "end": 133.8117641875, "pitch": 80, "velocity": 127}, {"start": 133.819777, "end": 134.19637918749999, "pitch": 80, "velocity": 127}, {"start": 134.20439199999998, "end": 134.38868668749998, "pitch": 81, "velocity": 127}, {"start": 134.39669949999998, "end": 135.23003199999997, "pitch": 81, "velocity": 127}, {"start": 135.74285199999997, "end": 136.11945418749997, "pitch": 80, "velocity": 127}, {"start": 136.12746699999997, "end": 136.50406918749997, "pitch": 80, "velocity": 127}, {"start": 136.512082, "end": 136.8886841875, "pitch": 80, "velocity": 127}, {"start": 136.896697, "end": 137.2732991875, "pitch": 80, "velocity": 127}, {"start": 137.28131199999999, "end": 137.46560668749999, "pitch": 81, "velocity": 127}, {"start": 137.47361949999998, "end": 138.30695199999997, "pitch": 81, "velocity": 127}, {"start": 138.81977199999997, "end": 139.19637418749997, "pitch": 80, "velocity": 127}, {"start": 139.20438699999997, "end": 139.58098918749997, "pitch": 80, "velocity": 127}, {"start": 139.589002, "end": 139.9656041875, "pitch": 80, "velocity": 127}, {"start": 139.973617, "end": 140.3502191875, "pitch": 80, "velocity": 127}, {"start": 140.358232, "end": 140.73483418749998, "pitch": 80, "velocity": 127}, {"start": 140.74284699999998, "end": 141.38387199999997, "pitch": 76, "velocity": 127}, {"start": 140.74284699999998, "end": 141.38387199999997, "pitch": 80, "velocity": 127}, {"start": 141.51207699999998, "end": 141.88867918749997, "pitch": 76, "velocity": 127}, {"start": 141.51207699999998, "end": 141.88867918749997, "pitch": 80, "velocity": 127}, {"start": 141.89669199999997, "end": 142.537717, "pitch": 78, "velocity": 127}, {"start": 141.89669199999997, "end": 142.537717, "pitch": 81, "velocity": 127}, {"start": 142.66592199999997, "end": 143.30694699999998, "pitch": 80, "velocity": 127}, {"start": 142.66592199999997, "end": 143.30694699999998, "pitch": 83, "velocity": 127}, {"start": 143.435152, "end": 143.8117541875, "pitch": 78, "velocity": 127}, {"start": 143.435152, "end": 144.00406168749998, "pitch": 81, "velocity": 127}, {"start": 144.39668949999998, "end": 144.58098418749998, "pitch": 78, "velocity": 127}, {"start": 144.58899699999998, "end": 144.96559918749998, "pitch": 81, "velocity": 127}, {"start": 144.97361199999997, "end": 145.614637, "pitch": 80, "velocity": 127}, {"start": 145.74284199999997, "end": 146.76848199999998, "pitch": 81, "velocity": 127}, {"start": 146.896687, "end": 147.27328918749998, "pitch": 83, "velocity": 127}, {"start": 147.28130199999998, "end": 147.65790418749998, "pitch": 83, "velocity": 127}, {"start": 147.66591699999998, "end": 148.04251918749998, "pitch": 81, "velocity": 127}, {"start": 148.05053199999998, "end": 148.691557, "pitch": 80, "velocity": 127}, {"start": 148.81976199999997, "end": 149.19636418749997, "pitch": 81, "velocity": 127}, {"start": 149.20437699999997, "end": 149.58097918749996, "pitch": 80, "velocity": 127}, {"start": 149.58899199999996, "end": 149.9655941875, "pitch": 78, "velocity": 127}, {"start": 150.55052949999998, "end": 150.73482418749998, "pitch": 73, "velocity": 127}, {"start": 150.74283699999998, "end": 151.11943918749998, "pitch": 81, "velocity": 127}, {"start": 151.12745199999998, "end": 151.76847699999996, "pitch": 80, "velocity": 127}, {"start": 151.89668199999997, "end": 152.92232199999998, "pitch": 81, "velocity": 127}, {"start": 153.050527, "end": 153.4271291875, "pitch": 83, "velocity": 127}, {"start": 153.43514199999998, "end": 153.81174418749998, "pitch": 83, "velocity": 127}, {"start": 153.81975699999998, "end": 154.19635918749998, "pitch": 81, "velocity": 127}, {"start": 154.20437199999998, "end": 154.845397, "pitch": 80, "velocity": 127}, {"start": 154.97360199999997, "end": 155.35020418749997, "pitch": 81, "velocity": 127}, {"start": 155.35821699999997, "end": 155.54251168749997, "pitch": 80, "velocity": 127}, {"start": 155.55052449999997, "end": 156.11943418749996, "pitch": 78, "velocity": 127}, {"start": 156.70436949999998, "end": 156.88866418749998, "pitch": 73, "velocity": 127}, {"start": 156.89667699999998, "end": 157.27327918749998, "pitch": 81, "velocity": 127}, {"start": 157.28129199999998, "end": 157.92231699999996, "pitch": 80, "velocity": 127}, {"start": 158.05052199999997, "end": 159.07616199999998, "pitch": 81, "velocity": 127}, {"start": 159.204367, "end": 159.84539199999998, "pitch": 83, "velocity": 127}, {"start": 159.97359699999998, "end": 160.35019918749998, "pitch": 81, "velocity": 127}, {"start": 160.35821199999998, "end": 160.99923699999997, "pitch": 80, "velocity": 127}, {"start": 161.12744199999997, "end": 161.50404418749997, "pitch": 81, "velocity": 127}, {"start": 161.51205699999997, "end": 161.88865918749997, "pitch": 80, "velocity": 127}, {"start": 161.89667199999997, "end": 162.27327418749996, "pitch": 81, "velocity": 127}, {"start": 162.8582095, "end": 163.0425041875, "pitch": 73, "velocity": 127}, {"start": 163.05051699999999, "end": 163.42711918749998, "pitch": 81, "velocity": 127}, {"start": 163.43513199999998, "end": 164.07615699999997, "pitch": 80, "velocity": 127}, {"start": 164.20436199999997, "end": 165.23000199999998, "pitch": 81, "velocity": 127}, {"start": 165.358207, "end": 165.54250168749996, "pitch": 81, "velocity": 127}, {"start": 165.55051449999996, "end": 168.24281949999997, "pitch": 80, "velocity": 127}, {"start": 169.97358699999998, "end": 171.31973949999997, "pitch": 80, "velocity": 127}, {"start": 171.51204699999997, "end": 172.6578791875, "pitch": 74, "velocity": 127}, {"start": 172.66589199999999, "end": 173.69153199999997, "pitch": 76, "velocity": 127}, {"start": 171.51204699999997, "end": 174.39665949999997, "pitch": 81, "velocity": 127}, {"start": 173.81973699999998, "end": 174.460762, "pitch": 78, "velocity": 127}, {"start": 174.58896699999997, "end": 175.22999199999998, "pitch": 80, "velocity": 127}, {"start": 175.35819699999996, "end": 175.73479918749996, "pitch": 81, "velocity": 127}, {"start": 175.74281199999996, "end": 176.76845199999997, "pitch": 81, "velocity": 127}, {"start": 176.89665699999998, "end": 177.53768199999996, "pitch": 83, "velocity": 127}, {"start": 177.66588699999997, "end": 178.69152699999998, "pitch": 83, "velocity": 127}, {"start": 178.819732, "end": 179.84537199999997, "pitch": 81, "velocity": 127}, {"start": 179.97357699999998, "end": 180.614602, "pitch": 80, "velocity": 127}, {"start": 180.74280699999997, "end": 181.11940918749997, "pitch": 80, "velocity": 127}, {"start": 181.12742199999997, "end": 183.24280449999998, "pitch": 78, "velocity": 127}, {"start": 183.43511199999998, "end": 183.81171418749997, "pitch": 80, "velocity": 127}, {"start": 183.81972699999997, "end": 184.84536699999998, "pitch": 81, "velocity": 127}, {"start": 184.973572, "end": 185.99921199999997, "pitch": 81, "velocity": 127}, {"start": 186.12741699999998, "end": 186.76844199999996, "pitch": 85, "velocity": 127}, {"start": 186.89664699999997, "end": 187.92228699999998, "pitch": 83, "velocity": 127}, {"start": 188.05049199999996, "end": 188.2347866875, "pitch": 83, "velocity": 127}, {"start": 188.2427995, "end": 189.78125949999998, "pitch": 81, "velocity": 127}, {"start": 189.97356699999997, "end": 190.99920699999996, "pitch": 80, "velocity": 127}, {"start": 191.12741199999996, "end": 192.15305199999997, "pitch": 81, "velocity": 127}, {"start": 192.28125699999998, "end": 192.85016668749998, "pitch": 83, "velocity": 127}, {"start": 192.85817949999998, "end": 193.04247418749998, "pitch": 81, "velocity": 127}, {"start": 193.05048699999998, "end": 194.0730000833333, "pitch": 85, "velocity": 127}, {"start": 194.19495124999997, "end": 195.1705605833333, "pitch": 83, "velocity": 127}, {"start": 195.29251174999996, "end": 195.6507433020833, "pitch": 81, "velocity": 127}, {"start": 195.65836524999997, "end": 197.27421749999996, "pitch": 81, "velocity": 127}, {"start": 208.48410674999994, "end": 208.85129424999994, "pitch": 81, "velocity": 127}, {"start": 208.85910674999994, "end": 209.48410674999994, "pitch": 80, "velocity": 127}, {"start": 209.60910674999994, "end": 210.60910674999994, "pitch": 81, "velocity": 127}, {"start": 210.73410674999994, "end": 211.10129424999994, "pitch": 83, "velocity": 127}, {"start": 211.10910674999994, "end": 211.47629424999994, "pitch": 83, "velocity": 127}, {"start": 211.48410674999994, "end": 211.85129424999994, "pitch": 81, "velocity": 127}, {"start": 211.85910674999994, "end": 212.48410674999994, "pitch": 80, "velocity": 127}, {"start": 212.60910674999994, "end": 212.97629424999994, "pitch": 81, "velocity": 127}, {"start": 212.98410674999994, "end": 213.35129424999994, "pitch": 80, "velocity": 127}, {"start": 213.35910674999994, "end": 213.72629424999994, "pitch": 78, "velocity": 127}, {"start": 214.29660674999994, "end": 214.47629424999994, "pitch": 73, "velocity": 127}, {"start": 214.48410674999994, "end": 214.85129424999994, "pitch": 81, "velocity": 127}, {"start": 214.85910674999994, "end": 215.48410674999994, "pitch": 80, "velocity": 127}, {"start": 215.60910674999994, "end": 216.60910674999994, "pitch": 81, "velocity": 127}, {"start": 216.73410674999994, "end": 217.10129424999994, "pitch": 83, "velocity": 127}, {"start": 217.10910674999994, "end": 217.47629424999994, "pitch": 83, "velocity": 127}, {"start": 217.48410674999994, "end": 217.85129424999994, "pitch": 81, "velocity": 127}, {"start": 217.85910674999994, "end": 218.48410674999994, "pitch": 80, "velocity": 127}, {"start": 218.60910674999994, "end": 218.97629424999994, "pitch": 81, "velocity": 127}, {"start": 218.98410674999994, "end": 219.16379424999994, "pitch": 80, "velocity": 127}, {"start": 219.17160674999994, "end": 219.72629424999994, "pitch": 78, "velocity": 127}, {"start": 220.29660674999994, "end": 220.47629424999994, "pitch": 73, "velocity": 127}, {"start": 220.48410674999994, "end": 220.85129424999994, "pitch": 81, "velocity": 127}, {"start": 220.85910674999994, "end": 221.48410674999994, "pitch": 80, "velocity": 127}, {"start": 221.60910674999994, "end": 222.60910674999994, "pitch": 81, "velocity": 127}, {"start": 222.73410674999994, "end": 223.35910674999994, "pitch": 83, "velocity": 127}, {"start": 223.48410674999994, "end": 223.85129424999994, "pitch": 81, "velocity": 127}, {"start": 223.85910674999994, "end": 224.48410674999994, "pitch": 80, "velocity": 127}, {"start": 224.60910674999994, "end": 224.97629424999994, "pitch": 81, "velocity": 127}, {"start": 224.98410674999994, "end": 225.35129424999994, "pitch": 80, "velocity": 127}, {"start": 225.35910674999994, "end": 225.72629424999994, "pitch": 81, "velocity": 127}, {"start": 226.29660674999994, "end": 226.47629424999994, "pitch": 73, "velocity": 127}, {"start": 226.48410674999994, "end": 226.85129424999994, "pitch": 81, "velocity": 127}, {"start": 226.85910674999994, "end": 227.48410674999994, "pitch": 80, "velocity": 127}, {"start": 227.60910674999994, "end": 228.60910674999994, "pitch": 81, "velocity": 127}, {"start": 228.73410674999994, "end": 228.91379424999994, "pitch": 81, "velocity": 127}, {"start": 228.92160674999994, "end": 231.54660674999994, "pitch": 80, "velocity": 127}, {"start": 233.27256674999992, "end": 234.61871924999994, "pitch": 80, "velocity": 127}, {"start": 234.81102674999994, "end": 239.1115873645833, "pitch": 81, "velocity": 92}, {"start": 239.12295099999997, "end": 239.3843146145833, "pitch": 80, "velocity": 92}, {"start": 239.39567824999997, "end": 242.75917686458334, "pitch": 80, "velocity": 75}, {"start": 242.7705405, "end": 243.03190411458334, "pitch": 76, "velocity": 60}, {"start": 243.04326775, "end": 246.20712156250002, "pitch": 81, "velocity": 75}, {"start": 246.21659125000002, "end": 246.43439406250002, "pitch": 80, "velocity": 75}, {"start": 246.44386375000002, "end": 249.73830575000005, "pitch": 80, "velocity": 75}, {"start": 249.96907475000003, "end": 253.14239825000004, "pitch": 81, "velocity": 75}, {"start": 253.36967075000004, "end": 256.6641127500001, "pitch": 80, "velocity": 75}, {"start": 256.8948817500001, "end": 260.06820525000006, "pitch": 81, "velocity": 45}, {"start": 260.29547775000003, "end": 263.791334, "pitch": 80, "velocity": 30}, {"start": 264.07435275, "end": 268.319634, "pitch": 81, "velocity": 30}]'),
(11459, '[{"start": 7.340427, "end": 7.6595759999999995, "pitch": 55, "velocity": 100}, {"start": 7.6595759999999995, "end": 8.297874, "pitch": 67, "velocity": 100}, {"start": 8.297874, "end": 8.617023, "pitch": 67, "velocity": 100}, {"start": 8.617023, "end": 9.255321, "pitch": 67, "velocity": 100}, {"start": 9.255321, "end": 9.57447, "pitch": 67, "velocity": 100}, {"start": 9.57447, "end": 9.893619, "pitch": 69, "velocity": 100}, {"start": 9.893619, "end": 10.212768, "pitch": 69, "velocity": 100}, {"start": 10.212768, "end": 10.851066, "pitch": 69, "velocity": 100}, {"start": 11.170215, "end": 11.489364, "pitch": 64, "velocity": 100}, {"start": 11.489364, "end": 11.808513, "pitch": 67, "velocity": 100}, {"start": 11.808513, "end": 12.127661999999999, "pitch": 67, "velocity": 100}, {"start": 12.127661999999999, "end": 12.72872595, "pitch": 67, "velocity": 100}, {"start": 12.76596, "end": 13.085109, "pitch": 67, "velocity": 100}, {"start": 13.085109, "end": 13.404258, "pitch": 67, "velocity": 100}, {"start": 13.404258, "end": 14.005321949999999, "pitch": 69, "velocity": 100}, {"start": 14.042556, "end": 14.361705, "pitch": 69, "velocity": 100}, {"start": 14.361705, "end": 14.680854, "pitch": 69, "velocity": 100}, {"start": 14.680854, "end": 15.000003, "pitch": 67, "velocity": 80}, {"start": 15.000003, "end": 15.319151999999999, "pitch": 67, "velocity": 100}, {"start": 15.319151999999999, "end": 15.638301, "pitch": 69, "velocity": 100}, {"start": 15.638301, "end": 16.595748, "pitch": 69, "velocity": 100}, {"start": 16.595748, "end": 16.914897, "pitch": 69, "velocity": 100}, {"start": 16.914897, "end": 17.234046, "pitch": 69, "velocity": 100}, {"start": 17.234046, "end": 17.83510995, "pitch": 69, "velocity": 100}, {"start": 17.872344, "end": 18.191493, "pitch": 67, "velocity": 100}, {"start": 18.191493, "end": 18.510642, "pitch": 67, "velocity": 100}, {"start": 18.510642, "end": 18.829791, "pitch": 65, "velocity": 100}, {"start": 18.829791, "end": 19.14894, "pitch": 67, "velocity": 80}, {"start": 19.14894, "end": 19.468089, "pitch": 67, "velocity": 100}, {"start": 19.468089, "end": 21.063834, "pitch": 67, "velocity": 100}, {"start": 22.659579, "end": 22.978728, "pitch": 55, "velocity": 100}, {"start": 22.978728, "end": 23.57979195, "pitch": 67, "velocity": 100}, {"start": 23.617026, "end": 23.936175, "pitch": 67, "velocity": 100}, {"start": 23.936175, "end": 24.53723895, "pitch": 67, "velocity": 100}, {"start": 24.574473, "end": 24.893622, "pitch": 67, "velocity": 100}, {"start": 24.893622, "end": 25.49468595, "pitch": 69, "velocity": 100}, {"start": 25.53192, "end": 25.851069, "pitch": 69, "velocity": 100}, {"start": 25.851069, "end": 26.45213295, "pitch": 71, "velocity": 100}, {"start": 26.489366999999998, "end": 26.808516, "pitch": 67, "velocity": 100}, {"start": 26.808516, "end": 27.127665, "pitch": 72, "velocity": 100}, {"start": 27.127665, "end": 27.446814, "pitch": 72, "velocity": 100}, {"start": 27.446814, "end": 28.38830355, "pitch": 72, "velocity": 100}, {"start": 28.404260999999998, "end": 28.72341, "pitch": 69, "velocity": 100}, {"start": 28.72341, "end": 29.042559, "pitch": 72, "velocity": 100}, {"start": 29.042559, "end": 29.361708, "pitch": 72, "velocity": 100}, {"start": 29.361708, "end": 29.96277195, "pitch": 74, "velocity": 100}, {"start": 30.319155, "end": 30.638303999999998, "pitch": 72, "velocity": 100}, {"start": 30.638303999999998, "end": 30.957453, "pitch": 74, "velocity": 100}, {"start": 30.957453, "end": 31.276602, "pitch": 74, "velocity": 100}, {"start": 31.276602, "end": 32.19681495, "pitch": 74, "velocity": 100}, {"start": 32.234049, "end": 32.553198, "pitch": 74, "velocity": 100}, {"start": 32.553198, "end": 33.15426195, "pitch": 76, "velocity": 100}, {"start": 33.191496, "end": 33.79255995, "pitch": 76, "velocity": 100}, {"start": 33.829794, "end": 34.148943, "pitch": 76, "velocity": 100}, {"start": 34.148943, "end": 34.468092, "pitch": 74, "velocity": 100}, {"start": 34.468092, "end": 34.787241, "pitch": 74, "velocity": 100}, {"start": 34.787241, "end": 35.10639, "pitch": 72, "velocity": 80}, {"start": 35.10639, "end": 37.021284, "pitch": 72, "velocity": 100}, {"start": 37.340433, "end": 37.94149695, "pitch": 64, "velocity": 100}, {"start": 37.978730999999996, "end": 38.29788, "pitch": 67, "velocity": 100}, {"start": 38.29788, "end": 39.21809295, "pitch": 69, "velocity": 99}, {"start": 39.255327, "end": 40.81383795, "pitch": 69, "velocity": 99}, {"start": 41.170221, "end": 41.77128495, "pitch": 69, "velocity": 100}, {"start": 41.808519, "end": 42.127668, "pitch": 67, "velocity": 100}, {"start": 42.127668, "end": 43.04788095, "pitch": 64, "velocity": 99}, {"start": 43.085115, "end": 44.64362595, "pitch": 64, "velocity": 99}, {"start": 45.000009, "end": 45.60107295, "pitch": 64, "velocity": 100}, {"start": 45.638307, "end": 45.957456, "pitch": 67, "velocity": 100}, {"start": 45.957456, "end": 46.87766895, "pitch": 69, "velocity": 99}, {"start": 46.914903, "end": 48.47341395, "pitch": 69, "velocity": 99}, {"start": 48.829797, "end": 49.430860949999996, "pitch": 69, "velocity": 100}, {"start": 49.468095, "end": 49.787244, "pitch": 67, "velocity": 100}, {"start": 49.787244, "end": 51.04788255, "pitch": 64, "velocity": 100}, {"start": 51.06384, "end": 51.382989, "pitch": 65, "velocity": 100}, {"start": 51.382989, "end": 51.702138, "pitch": 64, "velocity": 100}, {"start": 51.702138, "end": 53.26064895, "pitch": 62, "velocity": 100}, {"start": 53.297883, "end": 53.617032, "pitch": 60, "velocity": 100}, {"start": 53.617032, "end": 55.531926, "pitch": 60, "velocity": 100}, {"start": 59.042564999999996, "end": 59.361714, "pitch": 55, "velocity": 100}, {"start": 59.361714, "end": 60.000012, "pitch": 67, "velocity": 100}, {"start": 60.000012, "end": 60.319161, "pitch": 67, "velocity": 100}, {"start": 60.319161, "end": 60.957459, "pitch": 67, "velocity": 100}, {"start": 60.957459, "end": 61.276607999999996, "pitch": 67, "velocity": 100}, {"start": 61.276607999999996, "end": 61.595757, "pitch": 69, "velocity": 100}, {"start": 61.595757, "end": 61.914906, "pitch": 69, "velocity": 100}, {"start": 61.914906, "end": 62.553204, "pitch": 69, "velocity": 100}, {"start": 62.872353, "end": 63.191502, "pitch": 64, "velocity": 100}, {"start": 63.191502, "end": 63.510650999999996, "pitch": 67, "velocity": 100}, {"start": 63.510650999999996, "end": 63.8298, "pitch": 67, "velocity": 100}, {"start": 63.8298, "end": 64.43086395, "pitch": 67, "velocity": 100}, {"start": 64.468098, "end": 64.787247, "pitch": 67, "velocity": 100}, {"start": 64.787247, "end": 65.106396, "pitch": 67, "velocity": 100}, {"start": 65.106396, "end": 65.70745995, "pitch": 69, "velocity": 100}, {"start": 65.744694, "end": 66.063843, "pitch": 69, "velocity": 100}, {"start": 66.063843, "end": 66.382992, "pitch": 69, "velocity": 100}, {"start": 66.382992, "end": 66.702141, "pitch": 67, "velocity": 80}, {"start": 66.702141, "end": 67.02129, "pitch": 67, "velocity": 100}, {"start": 67.02129, "end": 67.340439, "pitch": 69, "velocity": 100}, {"start": 67.340439, "end": 68.297886, "pitch": 69, "velocity": 100}, {"start": 68.297886, "end": 68.617035, "pitch": 69, "velocity": 100}, {"start": 68.617035, "end": 68.936184, "pitch": 69, "velocity": 100}, {"start": 68.936184, "end": 69.53724795, "pitch": 69, "velocity": 100}, {"start": 69.574482, "end": 69.893631, "pitch": 67, "velocity": 100}, {"start": 69.893631, "end": 70.21278, "pitch": 67, "velocity": 100}, {"start": 70.21278, "end": 70.531929, "pitch": 65, "velocity": 100}, {"start": 70.531929, "end": 70.851078, "pitch": 67, "velocity": 80}, {"start": 70.851078, "end": 71.170227, "pitch": 67, "velocity": 100}, {"start": 71.170227, "end": 72.765972, "pitch": 67, "velocity": 100}, {"start": 74.361717, "end": 74.680866, "pitch": 55, "velocity": 100}, {"start": 74.680866, "end": 75.28192995, "pitch": 67, "velocity": 100}, {"start": 75.319164, "end": 75.638313, "pitch": 67, "velocity": 100}, {"start": 75.638313, "end": 76.23937695, "pitch": 67, "velocity": 100}, {"start": 76.276611, "end": 76.59576, "pitch": 67, "velocity": 100}, {"start": 76.59576, "end": 77.19682395, "pitch": 69, "velocity": 100}, {"start": 77.234058, "end": 77.553207, "pitch": 69, "velocity": 100}, {"start": 77.553207, "end": 78.15427095, "pitch": 71, "velocity": 100}, {"start": 78.19150499999999, "end": 78.510654, "pitch": 67, "velocity": 100}, {"start": 78.510654, "end": 78.829803, "pitch": 72, "velocity": 100}, {"start": 78.829803, "end": 79.148952, "pitch": 72, "velocity": 100}, {"start": 79.148952, "end": 80.09044155, "pitch": 72, "velocity": 100}, {"start": 80.106399, "end": 80.42554799999999, "pitch": 69, "velocity": 100}, {"start": 80.42554799999999, "end": 80.744697, "pitch": 72, "velocity": 100}, {"start": 80.744697, "end": 81.063846, "pitch": 72, "velocity": 100}, {"start": 81.063846, "end": 81.66490995, "pitch": 74, "velocity": 100}, {"start": 82.021293, "end": 82.340442, "pitch": 72, "velocity": 100}, {"start": 82.340442, "end": 82.65959099999999, "pitch": 74, "velocity": 100}, {"start": 82.65959099999999, "end": 82.97874, "pitch": 74, "velocity": 100}, {"start": 82.97874, "end": 83.89895295, "pitch": 74, "velocity": 100}, {"start": 83.936187, "end": 84.255336, "pitch": 74, "velocity": 100}, {"start": 84.255336, "end": 84.85639995, "pitch": 76, "velocity": 100}, {"start": 84.893634, "end": 85.49469795, "pitch": 76, "velocity": 100}, {"start": 85.531932, "end": 85.851081, "pitch": 76, "velocity": 100}, {"start": 85.851081, "end": 86.17023, "pitch": 74, "velocity": 100}, {"start": 86.17023, "end": 86.489379, "pitch": 74, "velocity": 100}, {"start": 86.489379, "end": 86.808528, "pitch": 72, "velocity": 80}, {"start": 86.808528, "end": 88.723422, "pitch": 72, "velocity": 100}, {"start": 89.042571, "end": 89.64363494999999, "pitch": 64, "velocity": 100}, {"start": 89.680869, "end": 90.000018, "pitch": 67, "velocity": 100}, {"start": 90.000018, "end": 90.92023095, "pitch": 69, "velocity": 99}, {"start": 90.957465, "end": 92.51597595, "pitch": 69, "velocity": 99}, {"start": 92.872359, "end": 93.47342295, "pitch": 69, "velocity": 100}, {"start": 93.510657, "end": 93.829806, "pitch": 67, "velocity": 100}, {"start": 93.829806, "end": 94.75001895, "pitch": 64, "velocity": 99}, {"start": 94.78725299999999, "end": 96.34576395, "pitch": 64, "velocity": 99}, {"start": 96.702147, "end": 97.30321095, "pitch": 64, "velocity": 100}, {"start": 97.340445, "end": 97.659594, "pitch": 67, "velocity": 100}, {"start": 97.659594, "end": 98.57980695, "pitch": 69, "velocity": 99}, {"start": 98.617041, "end": 100.17555195, "pitch": 69, "velocity": 99}, {"start": 100.531935, "end": 101.13299895, "pitch": 69, "velocity": 100}, {"start": 101.170233, "end": 101.48938199999999, "pitch": 67, "velocity": 100}, {"start": 101.48938199999999, "end": 102.75002055, "pitch": 64, "velocity": 100}, {"start": 102.765978, "end": 103.085127, "pitch": 65, "velocity": 100}, {"start": 103.085127, "end": 103.404276, "pitch": 64, "velocity": 100}, {"start": 103.404276, "end": 104.96278695, "pitch": 62, "velocity": 100}, {"start": 105.000021, "end": 105.31917, "pitch": 60, "velocity": 100}, {"start": 105.31917, "end": 107.234064, "pitch": 60, "velocity": 100}, {"start": 110.744703, "end": 111.063852, "pitch": 55, "velocity": 100}, {"start": 111.063852, "end": 111.70215, "pitch": 67, "velocity": 100}, {"start": 111.70215, "end": 112.021299, "pitch": 67, "velocity": 100}, {"start": 112.021299, "end": 112.659597, "pitch": 67, "velocity": 100}, {"start": 112.659597, "end": 112.978746, "pitch": 67, "velocity": 100}, {"start": 112.978746, "end": 113.297895, "pitch": 69, "velocity": 100}, {"start": 113.297895, "end": 113.61704399999999, "pitch": 69, "velocity": 100}, {"start": 113.61704399999999, "end": 114.255342, "pitch": 69, "velocity": 100}, {"start": 114.574491, "end": 114.89364, "pitch": 64, "velocity": 100}, {"start": 114.89364, "end": 115.212789, "pitch": 67, "velocity": 100}, {"start": 115.212789, "end": 115.531938, "pitch": 67, "velocity": 100}, {"start": 115.531938, "end": 116.13300195, "pitch": 67, "velocity": 100}, {"start": 116.170236, "end": 116.489385, "pitch": 67, "velocity": 100}, {"start": 116.489385, "end": 116.808534, "pitch": 67, "velocity": 100}, {"start": 116.808534, "end": 117.40959794999999, "pitch": 69, "velocity": 100}, {"start": 117.446832, "end": 117.765981, "pitch": 69, "velocity": 100}, {"start": 117.765981, "end": 118.08512999999999, "pitch": 69, "velocity": 100}, {"start": 118.08512999999999, "end": 118.404279, "pitch": 67, "velocity": 80}, {"start": 118.404279, "end": 118.723428, "pitch": 67, "velocity": 100}, {"start": 118.723428, "end": 119.042577, "pitch": 69, "velocity": 100}, {"start": 119.042577, "end": 120.000024, "pitch": 69, "velocity": 100}, {"start": 120.000024, "end": 120.31917299999999, "pitch": 69, "velocity": 100}, {"start": 120.31917299999999, "end": 120.638322, "pitch": 69, "velocity": 100}, {"start": 120.638322, "end": 121.23938595, "pitch": 69, "velocity": 100}, {"start": 121.27662, "end": 121.595769, "pitch": 67, "velocity": 100}, {"start": 121.595769, "end": 121.914918, "pitch": 67, "velocity": 100}, {"start": 121.914918, "end": 122.234067, "pitch": 65, "velocity": 100}, {"start": 122.234067, "end": 122.55321599999999, "pitch": 67, "velocity": 80}, {"start": 122.55321599999999, "end": 122.872365, "pitch": 67, "velocity": 100}, {"start": 122.872365, "end": 124.46811, "pitch": 67, "velocity": 100}, {"start": 126.063855, "end": 126.383004, "pitch": 55, "velocity": 100}, {"start": 126.383004, "end": 126.98406795, "pitch": 67, "velocity": 100}, {"start": 127.02130199999999, "end": 127.340451, "pitch": 67, "velocity": 100}, {"start": 127.340451, "end": 127.94151495, "pitch": 67, "velocity": 100}, {"start": 127.978749, "end": 128.297898, "pitch": 67, "velocity": 100}, {"start": 128.297898, "end": 128.89896195, "pitch": 69, "velocity": 100}, {"start": 128.936196, "end": 129.255345, "pitch": 69, "velocity": 100}, {"start": 129.255345, "end": 129.85640895, "pitch": 71, "velocity": 100}, {"start": 129.893643, "end": 130.212792, "pitch": 67, "velocity": 100}, {"start": 130.212792, "end": 130.531941, "pitch": 72, "velocity": 100}, {"start": 130.531941, "end": 130.85109, "pitch": 72, "velocity": 100}, {"start": 130.85109, "end": 131.79257955, "pitch": 72, "velocity": 100}, {"start": 131.808537, "end": 132.127686, "pitch": 69, "velocity": 100}, {"start": 132.127686, "end": 132.446835, "pitch": 72, "velocity": 100}, {"start": 132.446835, "end": 132.765984, "pitch": 72, "velocity": 100}, {"start": 132.765984, "end": 133.36704795, "pitch": 74, "velocity": 100}, {"start": 133.723431, "end": 134.04258, "pitch": 72, "velocity": 100}, {"start": 134.04258, "end": 134.361729, "pitch": 74, "velocity": 100}, {"start": 134.361729, "end": 134.680878, "pitch": 74, "velocity": 100}, {"start": 134.680878, "end": 135.60109094999999, "pitch": 74, "velocity": 100}, {"start": 135.638325, "end": 135.957474, "pitch": 74, "velocity": 100}, {"start": 135.957474, "end": 136.55853795, "pitch": 76, "velocity": 100}, {"start": 136.595772, "end": 137.19683595, "pitch": 76, "velocity": 100}, {"start": 137.23407, "end": 137.55321899999998, "pitch": 76, "velocity": 100}, {"start": 137.55321899999998, "end": 137.872368, "pitch": 74, "velocity": 100}, {"start": 137.872368, "end": 138.191517, "pitch": 74, "velocity": 100}, {"start": 138.191517, "end": 138.510666, "pitch": 72, "velocity": 80}, {"start": 138.510666, "end": 140.42556, "pitch": 72, "velocity": 100}, {"start": 140.744709, "end": 141.34577295, "pitch": 64, "velocity": 100}, {"start": 141.383007, "end": 141.702156, "pitch": 67, "velocity": 100}, {"start": 141.702156, "end": 142.62236895, "pitch": 69, "velocity": 99}, {"start": 142.659603, "end": 144.21811395, "pitch": 69, "velocity": 99}, {"start": 144.574497, "end": 145.17556095, "pitch": 69, "velocity": 100}, {"start": 145.212795, "end": 145.531944, "pitch": 67, "velocity": 100}, {"start": 145.531944, "end": 146.45215695, "pitch": 64, "velocity": 99}, {"start": 146.489391, "end": 148.04790195, "pitch": 64, "velocity": 99}, {"start": 148.404285, "end": 149.00534894999998, "pitch": 64, "velocity": 100}, {"start": 149.042583, "end": 149.361732, "pitch": 67, "velocity": 100}, {"start": 149.361732, "end": 150.28194495, "pitch": 69, "velocity": 99}, {"start": 150.319179, "end": 151.87768995, "pitch": 69, "velocity": 99}, {"start": 152.234073, "end": 152.83513695, "pitch": 69, "velocity": 100}, {"start": 152.872371, "end": 153.19152, "pitch": 67, "velocity": 100}, {"start": 153.19152, "end": 154.45215855, "pitch": 64, "velocity": 100}, {"start": 154.468116, "end": 154.787265, "pitch": 65, "velocity": 100}, {"start": 154.787265, "end": 155.106414, "pitch": 64, "velocity": 100}, {"start": 155.106414, "end": 156.66492495, "pitch": 62, "velocity": 100}, {"start": 156.702159, "end": 157.021308, "pitch": 60, "velocity": 100}, {"start": 157.021308, "end": 158.936202, "pitch": 60, "velocity": 100}, {"start": 162.446841, "end": 162.76599, "pitch": 55, "velocity": 100}, {"start": 162.76599, "end": 163.404288, "pitch": 67, "velocity": 100}, {"start": 163.404288, "end": 163.723437, "pitch": 67, "velocity": 100}, {"start": 163.723437, "end": 164.361735, "pitch": 67, "velocity": 100}, {"start": 164.361735, "end": 164.680884, "pitch": 67, "velocity": 100}, {"start": 164.680884, "end": 165.000033, "pitch": 69, "velocity": 100}, {"start": 165.000033, "end": 165.31918199999998, "pitch": 69, "velocity": 100}, {"start": 165.31918199999998, "end": 165.95748, "pitch": 69, "velocity": 100}, {"start": 166.27662899999999, "end": 166.595778, "pitch": 64, "velocity": 100}, {"start": 166.595778, "end": 166.914927, "pitch": 67, "velocity": 100}, {"start": 166.914927, "end": 167.234076, "pitch": 67, "velocity": 100}, {"start": 167.234076, "end": 167.83513994999998, "pitch": 67, "velocity": 100}, {"start": 167.872374, "end": 168.191523, "pitch": 67, "velocity": 100}, {"start": 168.191523, "end": 168.510672, "pitch": 67, "velocity": 100}, {"start": 168.510672, "end": 169.11173595, "pitch": 69, "velocity": 100}, {"start": 169.14897, "end": 169.468119, "pitch": 69, "velocity": 100}, {"start": 169.468119, "end": 169.787268, "pitch": 69, "velocity": 100}, {"start": 169.787268, "end": 170.106417, "pitch": 67, "velocity": 80}, {"start": 170.106417, "end": 170.425566, "pitch": 67, "velocity": 100}, {"start": 170.425566, "end": 170.74471499999999, "pitch": 69, "velocity": 100}, {"start": 170.74471499999999, "end": 171.702162, "pitch": 69, "velocity": 100}, {"start": 171.702162, "end": 172.021311, "pitch": 69, "velocity": 100}, {"start": 172.021311, "end": 172.34046, "pitch": 69, "velocity": 100}, {"start": 172.34046, "end": 172.94152395, "pitch": 69, "velocity": 100}, {"start": 172.978758, "end": 173.297907, "pitch": 67, "velocity": 100}, {"start": 173.297907, "end": 173.617056, "pitch": 67, "velocity": 100}, {"start": 173.617056, "end": 173.936205, "pitch": 65, "velocity": 100}, {"start": 173.936205, "end": 174.255354, "pitch": 67, "velocity": 80}, {"start": 174.255354, "end": 174.574503, "pitch": 67, "velocity": 100}, {"start": 174.574503, "end": 176.170248, "pitch": 67, "velocity": 100}, {"start": 177.765993, "end": 178.085142, "pitch": 55, "velocity": 100}, {"start": 178.085142, "end": 178.68620595, "pitch": 67, "velocity": 100}, {"start": 178.72344, "end": 179.042589, "pitch": 67, "velocity": 100}, {"start": 179.042589, "end": 179.64365295, "pitch": 67, "velocity": 100}, {"start": 179.68088699999998, "end": 180.000036, "pitch": 67, "velocity": 100}, {"start": 180.000036, "end": 180.60109995, "pitch": 69, "velocity": 100}, {"start": 180.638334, "end": 180.957483, "pitch": 69, "velocity": 100}, {"start": 180.957483, "end": 181.55854695, "pitch": 71, "velocity": 100}, {"start": 181.595781, "end": 181.91493, "pitch": 67, "velocity": 100}, {"start": 181.91493, "end": 182.234079, "pitch": 72, "velocity": 100}, {"start": 182.234079, "end": 182.553228, "pitch": 72, "velocity": 100}, {"start": 182.553228, "end": 183.49471755, "pitch": 72, "velocity": 100}, {"start": 183.510675, "end": 183.829824, "pitch": 69, "velocity": 100}, {"start": 183.829824, "end": 184.14897299999998, "pitch": 72, "velocity": 100}, {"start": 184.14897299999998, "end": 184.468122, "pitch": 72, "velocity": 100}, {"start": 184.468122, "end": 185.06918595, "pitch": 74, "velocity": 100}, {"start": 185.425569, "end": 185.744718, "pitch": 72, "velocity": 100}, {"start": 185.744718, "end": 186.063867, "pitch": 74, "velocity": 100}, {"start": 186.063867, "end": 186.383016, "pitch": 74, "velocity": 100}, {"start": 186.383016, "end": 187.30322895, "pitch": 74, "velocity": 100}, {"start": 187.340463, "end": 187.659612, "pitch": 74, "velocity": 100}, {"start": 187.659612, "end": 188.26067595, "pitch": 76, "velocity": 100}, {"start": 188.29791, "end": 188.89897395, "pitch": 76, "velocity": 100}, {"start": 188.936208, "end": 189.255357, "pitch": 76, "velocity": 100}, {"start": 189.255357, "end": 189.57450599999999, "pitch": 74, "velocity": 100}, {"start": 189.57450599999999, "end": 189.893655, "pitch": 74, "velocity": 100}, {"start": 189.893655, "end": 190.212804, "pitch": 72, "velocity": 80}, {"start": 190.212804, "end": 192.127698, "pitch": 72, "velocity": 100}, {"start": 192.446847, "end": 193.04791095, "pitch": 64, "velocity": 100}, {"start": 193.08514499999998, "end": 193.404294, "pitch": 67, "velocity": 100}, {"start": 193.404294, "end": 194.32450695, "pitch": 69, "velocity": 99}, {"start": 194.361741, "end": 195.92025195, "pitch": 69, "velocity": 99}, {"start": 196.276635, "end": 196.87769895, "pitch": 69, "velocity": 100}, {"start": 196.914933, "end": 197.234082, "pitch": 67, "velocity": 100}, {"start": 197.234082, "end": 198.15429495, "pitch": 64, "velocity": 99}, {"start": 198.191529, "end": 199.75003995, "pitch": 64, "velocity": 99}, {"start": 200.106423, "end": 200.70748695, "pitch": 64, "velocity": 100}, {"start": 200.744721, "end": 201.06387, "pitch": 67, "velocity": 100}, {"start": 201.06387, "end": 201.98408295, "pitch": 69, "velocity": 99}, {"start": 202.021317, "end": 203.57982795, "pitch": 69, "velocity": 99}, {"start": 203.936211, "end": 204.53727494999998, "pitch": 69, "velocity": 100}, {"start": 204.574509, "end": 204.893658, "pitch": 67, "velocity": 100}, {"start": 204.893658, "end": 206.15429655, "pitch": 64, "velocity": 100}, {"start": 206.170254, "end": 206.489403, "pitch": 65, "velocity": 100}, {"start": 206.489403, "end": 206.808552, "pitch": 64, "velocity": 100}, {"start": 206.808552, "end": 208.36706295, "pitch": 62, "velocity": 100}, {"start": 208.40429699999999, "end": 208.723446, "pitch": 60, "velocity": 100}, {"start": 208.723446, "end": 210.63834, "pitch": 60, "velocity": 100}, {"start": 214.148979, "end": 214.468128, "pitch": 55, "velocity": 100}, {"start": 214.468128, "end": 215.106426, "pitch": 67, "velocity": 100}, {"start": 215.106426, "end": 215.425575, "pitch": 67, "velocity": 100}, {"start": 215.425575, "end": 216.063873, "pitch": 67, "velocity": 100}, {"start": 216.063873, "end": 216.38302199999998, "pitch": 67, "velocity": 100}, {"start": 216.38302199999998, "end": 216.702171, "pitch": 69, "velocity": 100}, {"start": 216.702171, "end": 217.02132, "pitch": 69, "velocity": 100}, {"start": 217.02132, "end": 217.659618, "pitch": 69, "velocity": 100}, {"start": 217.978767, "end": 218.297916, "pitch": 64, "velocity": 100}, {"start": 218.297916, "end": 218.617065, "pitch": 67, "velocity": 100}, {"start": 218.617065, "end": 218.936214, "pitch": 67, "velocity": 100}, {"start": 218.936214, "end": 219.53727795, "pitch": 67, "velocity": 100}, {"start": 219.574512, "end": 219.893661, "pitch": 67, "velocity": 100}, {"start": 219.893661, "end": 220.21281, "pitch": 67, "velocity": 100}, {"start": 220.21281, "end": 220.81387395, "pitch": 69, "velocity": 100}, {"start": 220.851108, "end": 221.170257, "pitch": 69, "velocity": 100}, {"start": 221.170257, "end": 221.489406, "pitch": 69, "velocity": 100}, {"start": 221.489406, "end": 221.80855499999998, "pitch": 67, "velocity": 80}, {"start": 221.80855499999998, "end": 222.127704, "pitch": 67, "velocity": 100}, {"start": 222.127704, "end": 222.446853, "pitch": 69, "velocity": 100}, {"start": 222.446853, "end": 223.4043, "pitch": 69, "velocity": 100}, {"start": 223.4043, "end": 223.723449, "pitch": 69, "velocity": 100}, {"start": 223.723449, "end": 224.042598, "pitch": 69, "velocity": 100}, {"start": 224.042598, "end": 224.64366195, "pitch": 69, "velocity": 100}, {"start": 224.680896, "end": 225.000045, "pitch": 67, "velocity": 100}, {"start": 225.000045, "end": 225.319194, "pitch": 67, "velocity": 100}, {"start": 225.319194, "end": 225.638343, "pitch": 65, "velocity": 100}, {"start": 225.638343, "end": 225.957492, "pitch": 67, "velocity": 80}, {"start": 225.957492, "end": 226.27664099999998, "pitch": 67, "velocity": 100}, {"start": 226.27664099999998, "end": 227.872386, "pitch": 67, "velocity": 100}, {"start": 229.468131, "end": 229.78728, "pitch": 55, "velocity": 100}, {"start": 229.78728, "end": 230.38834395, "pitch": 67, "velocity": 100}, {"start": 230.425578, "end": 230.74472699999998, "pitch": 67, "velocity": 100}, {"start": 230.74472699999998, "end": 231.34579095, "pitch": 67, "velocity": 100}, {"start": 231.383025, "end": 231.70217399999999, "pitch": 67, "velocity": 100}, {"start": 231.70217399999999, "end": 232.30323795, "pitch": 69, "velocity": 100}, {"start": 232.340472, "end": 232.659621, "pitch": 69, "velocity": 100}, {"start": 232.659621, "end": 233.26068494999998, "pitch": 71, "velocity": 100}, {"start": 233.297919, "end": 233.617068, "pitch": 67, "velocity": 100}, {"start": 233.617068, "end": 233.936217, "pitch": 72, "velocity": 100}, {"start": 233.936217, "end": 234.255366, "pitch": 72, "velocity": 100}, {"start": 234.255366, "end": 235.19685555, "pitch": 72, "velocity": 100}, {"start": 235.21281299999998, "end": 235.531962, "pitch": 69, "velocity": 100}, {"start": 235.531962, "end": 235.851111, "pitch": 72, "velocity": 100}, {"start": 235.851111, "end": 236.17025999999998, "pitch": 72, "velocity": 100}, {"start": 236.17025999999998, "end": 236.77132395, "pitch": 74, "velocity": 100}, {"start": 237.127707, "end": 237.446856, "pitch": 72, "velocity": 100}, {"start": 237.446856, "end": 237.766005, "pitch": 74, "velocity": 100}, {"start": 237.766005, "end": 238.085154, "pitch": 74, "velocity": 100}, {"start": 238.085154, "end": 239.00536695, "pitch": 74, "velocity": 100}, {"start": 239.042601, "end": 239.36175, "pitch": 74, "velocity": 100}, {"start": 239.36175, "end": 239.96281395, "pitch": 76, "velocity": 100}, {"start": 240.000048, "end": 240.60111195, "pitch": 76, "velocity": 100}, {"start": 240.63834599999998, "end": 240.957495, "pitch": 76, "velocity": 100}, {"start": 240.957495, "end": 241.276644, "pitch": 74, "velocity": 100}, {"start": 241.276644, "end": 241.595793, "pitch": 74, "velocity": 100}, {"start": 241.595793, "end": 241.914942, "pitch": 72, "velocity": 80}, {"start": 241.914942, "end": 243.829836, "pitch": 72, "velocity": 100}, {"start": 244.148985, "end": 244.75004895, "pitch": 64, "velocity": 100}, {"start": 244.787283, "end": 245.10643199999998, "pitch": 67, "velocity": 100}, {"start": 245.10643199999998, "end": 246.02664495, "pitch": 69, "velocity": 99}, {"start": 246.063879, "end": 247.62238994999998, "pitch": 69, "velocity": 99}, {"start": 247.978773, "end": 248.57983695, "pitch": 69, "velocity": 100}, {"start": 248.617071, "end": 248.93622, "pitch": 67, "velocity": 100}, {"start": 248.93622, "end": 249.85643295, "pitch": 64, "velocity": 99}, {"start": 249.893667, "end": 251.45217795, "pitch": 64, "velocity": 99}, {"start": 251.808561, "end": 252.40962495, "pitch": 64, "velocity": 100}, {"start": 252.446859, "end": 252.766008, "pitch": 67, "velocity": 100}, {"start": 252.766008, "end": 253.68622095, "pitch": 69, "velocity": 99}, {"start": 253.723455, "end": 255.28196595, "pitch": 69, "velocity": 99}, {"start": 255.638349, "end": 256.23941295, "pitch": 69, "velocity": 100}, {"start": 256.27664699999997, "end": 256.595796, "pitch": 67, "velocity": 100}, {"start": 256.595796, "end": 257.85643455, "pitch": 64, "velocity": 100}, {"start": 257.872392, "end": 258.191541, "pitch": 65, "velocity": 100}, {"start": 258.191541, "end": 258.51069, "pitch": 64, "velocity": 100}, {"start": 258.51069, "end": 260.06920095, "pitch": 62, "velocity": 100}, {"start": 260.106435, "end": 260.425584, "pitch": 60, "velocity": 100}, {"start": 260.425584, "end": 262.340478, "pitch": 60, "velocity": 100}]'),
(16807, '[{"start": 19.142871500000002, "end": 19.40001455, "pitch": 58, "velocity": 76}, {"start": 19.428586000000003, "end": 19.942872100000002, "pitch": 58, "velocity": 76}, {"start": 20.000015, "end": 20.5143011, "pitch": 59, "velocity": 76}, {"start": 20.571444, "end": 21.342873150000003, "pitch": 58, "velocity": 76}, {"start": 28.571450000000002, "end": 29.085736100000002, "pitch": 58, "velocity": 76}, {"start": 29.142879, "end": 29.6571651, "pitch": 59, "velocity": 76}, {"start": 29.714308000000003, "end": 30.485737150000002, "pitch": 58, "velocity": 76}, {"start": 37.428599500000004, "end": 37.68574255, "pitch": 58, "velocity": 76}, {"start": 37.714314, "end": 38.2286001, "pitch": 58, "velocity": 76}, {"start": 38.285743000000004, "end": 38.8000291, "pitch": 59, "velocity": 76}, {"start": 38.857172000000006, "end": 39.62860115, "pitch": 58, "velocity": 76}, {"start": 46.857178000000005, "end": 47.371464100000004, "pitch": 66, "velocity": 76}, {"start": 47.428607, "end": 47.942893100000006, "pitch": 68, "velocity": 76}, {"start": 48.000036, "end": 54.857184000000004, "pitch": 70, "velocity": 76}, {"start": 55.7143275, "end": 55.97147055000001, "pitch": 61, "velocity": 80}, {"start": 56.000042, "end": 56.5143281, "pitch": 61, "velocity": 80}, {"start": 56.571471, "end": 57.0857571, "pitch": 63, "velocity": 80}, {"start": 57.142900000000004, "end": 57.91432915, "pitch": 65, "velocity": 80}, {"start": 58.000043500000004, "end": 58.25718655, "pitch": 65, "velocity": 80}, {"start": 58.285758, "end": 58.671472575, "pitch": 65, "velocity": 80}, {"start": 58.714329750000005, "end": 59.100044325000006, "pitch": 61, "velocity": 80}, {"start": 59.1429015, "end": 60.828617050000005, "pitch": 61, "velocity": 80}, {"start": 60.85718850000001, "end": 60.985760025000005, "pitch": 61, "velocity": 80}, {"start": 61.000045750000005, "end": 61.2571888, "pitch": 61, "velocity": 80}, {"start": 61.28576025, "end": 61.542903300000006, "pitch": 63, "velocity": 80}, {"start": 61.57147475, "end": 62.48576115, "pitch": 65, "velocity": 80}, {"start": 62.571475500000005, "end": 62.82861855, "pitch": 63, "velocity": 80}, {"start": 62.85719, "end": 62.985761525, "pitch": 65, "velocity": 80}, {"start": 63.00004725, "end": 63.12861877500001, "pitch": 63, "velocity": 80}, {"start": 63.14290450000001, "end": 63.400047550000004, "pitch": 65, "velocity": 80}, {"start": 63.428619000000005, "end": 63.68576205, "pitch": 66, "velocity": 80}, {"start": 63.7143335, "end": 64.27147677500001, "pitch": 65, "velocity": 80}, {"start": 64.2857625, "end": 64.80004860000001, "pitch": 63, "velocity": 80}, {"start": 64.8571915, "end": 65.11433455000001, "pitch": 58, "velocity": 80}, {"start": 65.14290600000001, "end": 65.6571921, "pitch": 61, "velocity": 80}, {"start": 65.714335, "end": 66.2286211, "pitch": 63, "velocity": 80}, {"start": 66.285764, "end": 67.05719315, "pitch": 65, "velocity": 80}, {"start": 67.1429075, "end": 67.40005055, "pitch": 65, "velocity": 80}, {"start": 67.428622, "end": 67.814336575, "pitch": 65, "velocity": 80}, {"start": 67.85719375000001, "end": 68.242908325, "pitch": 61, "velocity": 80}, {"start": 68.28576550000001, "end": 69.97148105000001, "pitch": 61, "velocity": 80}, {"start": 70.00005250000001, "end": 70.12862402500001, "pitch": 61, "velocity": 80}, {"start": 70.14290975, "end": 70.4000528, "pitch": 61, "velocity": 80}, {"start": 70.42862425, "end": 70.68576730000001, "pitch": 63, "velocity": 80}, {"start": 70.71433875000001, "end": 71.62862515, "pitch": 65, "velocity": 80}, {"start": 71.71433950000001, "end": 71.97148255, "pitch": 63, "velocity": 80}, {"start": 72.000054, "end": 72.128625525, "pitch": 65, "velocity": 80}, {"start": 72.14291125, "end": 72.27148277500001, "pitch": 63, "velocity": 80}, {"start": 72.2857685, "end": 72.54291155, "pitch": 65, "velocity": 80}, {"start": 72.571483, "end": 72.82862605000001, "pitch": 63, "velocity": 80}, {"start": 72.8571975, "end": 73.40005505, "pitch": 66, "velocity": 80}, {"start": 73.42862650000001, "end": 73.68576955, "pitch": 65, "velocity": 80}, {"start": 73.714341, "end": 73.97148405, "pitch": 63, "velocity": 80}, {"start": 74.0000555, "end": 74.55957972916667, "pitch": 61, "velocity": 80}, {"start": 74.57148450000001, "end": 74.71196079583333, "pitch": 63, "velocity": 80}, {"start": 74.71434175, "end": 74.85481804583334, "pitch": 61, "velocity": 80}, {"start": 74.85719900000001, "end": 75.3714851, "pitch": 58, "velocity": 80}, {"start": 83.1429195, "end": 83.40006255, "pitch": 58, "velocity": 76}, {"start": 83.428634, "end": 83.94292010000001, "pitch": 58, "velocity": 76}, {"start": 84.00006300000001, "end": 84.5143491, "pitch": 59, "velocity": 76}, {"start": 84.571492, "end": 85.34292115000001, "pitch": 58, "velocity": 76}, {"start": 92.571498, "end": 93.08578410000001, "pitch": 58, "velocity": 76}, {"start": 93.142927, "end": 93.6572131, "pitch": 59, "velocity": 76}, {"start": 93.71435600000001, "end": 94.48578515000001, "pitch": 58, "velocity": 76}, {"start": 101.71436200000001, "end": 102.2286481, "pitch": 66, "velocity": 76}, {"start": 102.285791, "end": 102.80007710000001, "pitch": 68, "velocity": 76}, {"start": 102.85722000000001, "end": 109.48579640000001, "pitch": 70, "velocity": 76}, {"start": 110.5715115, "end": 110.82865455000001, "pitch": 61, "velocity": 80}, {"start": 110.85722600000001, "end": 111.3715121, "pitch": 61, "velocity": 80}, {"start": 111.428655, "end": 111.94294110000001, "pitch": 63, "velocity": 80}, {"start": 112.000084, "end": 112.77151315, "pitch": 65, "velocity": 80}, {"start": 112.85722750000001, "end": 113.11437055, "pitch": 65, "velocity": 80}, {"start": 113.142942, "end": 113.52865657500001, "pitch": 65, "velocity": 80}, {"start": 113.57151375000001, "end": 113.957228325, "pitch": 61, "velocity": 80}, {"start": 114.00008550000001, "end": 115.68580105000001, "pitch": 61, "velocity": 80}, {"start": 115.71437250000001, "end": 115.84294402500001, "pitch": 61, "velocity": 80}, {"start": 115.85722975, "end": 116.11437280000001, "pitch": 61, "velocity": 80}, {"start": 116.14294425000001, "end": 116.40008730000001, "pitch": 63, "velocity": 80}, {"start": 116.42865875000001, "end": 117.34294515, "pitch": 65, "velocity": 80}, {"start": 117.42865950000001, "end": 117.68580255, "pitch": 63, "velocity": 80}, {"start": 117.714374, "end": 117.842945525, "pitch": 65, "velocity": 80}, {"start": 117.85723125000001, "end": 117.98580277500001, "pitch": 63, "velocity": 80}, {"start": 118.0000885, "end": 118.25723155, "pitch": 65, "velocity": 80}, {"start": 118.285803, "end": 118.54294605000001, "pitch": 66, "velocity": 80}, {"start": 118.57151750000001, "end": 119.128660775, "pitch": 65, "velocity": 80}, {"start": 119.14294650000001, "end": 119.6572326, "pitch": 63, "velocity": 80}, {"start": 119.7143755, "end": 119.97151855000001, "pitch": 58, "velocity": 80}, {"start": 120.00009, "end": 120.5143761, "pitch": 61, "velocity": 80}, {"start": 120.57151900000001, "end": 121.0858051, "pitch": 63, "velocity": 80}, {"start": 121.142948, "end": 121.91437715, "pitch": 65, "velocity": 80}, {"start": 122.00009150000001, "end": 122.25723455, "pitch": 65, "velocity": 80}, {"start": 122.28580600000001, "end": 122.671520575, "pitch": 65, "velocity": 80}, {"start": 122.71437775000001, "end": 123.100092325, "pitch": 61, "velocity": 80}, {"start": 123.1429495, "end": 124.82866505000001, "pitch": 61, "velocity": 80}, {"start": 124.85723650000001, "end": 124.98580802500001, "pitch": 61, "velocity": 80}, {"start": 125.00009375, "end": 125.2572368, "pitch": 61, "velocity": 80}, {"start": 125.28580825, "end": 125.54295130000001, "pitch": 63, "velocity": 80}, {"start": 125.57152275000001, "end": 126.48580915000001, "pitch": 65, "velocity": 80}, {"start": 126.57152350000001, "end": 126.82866655000001, "pitch": 63, "velocity": 80}, {"start": 126.85723800000001, "end": 126.98580952500001, "pitch": 65, "velocity": 80}, {"start": 127.00009525, "end": 127.12866677500001, "pitch": 63, "velocity": 80}, {"start": 127.1429525, "end": 127.40009555, "pitch": 65, "velocity": 80}, {"start": 127.428667, "end": 127.68581005, "pitch": 63, "velocity": 80}, {"start": 127.7143815, "end": 128.25723905, "pitch": 66, "velocity": 80}, {"start": 128.2858105, "end": 128.54295355000002, "pitch": 65, "velocity": 80}, {"start": 128.571525, "end": 128.82866805, "pitch": 63, "velocity": 80}, {"start": 128.85723950000002, "end": 129.3715256, "pitch": 61, "velocity": 80}, {"start": 129.42866850000001, "end": 129.557240025, "pitch": 63, "velocity": 80}, {"start": 129.57152575, "end": 129.70009727500002, "pitch": 61, "velocity": 80}, {"start": 129.714383, "end": 130.8000981, "pitch": 58, "velocity": 80}, {"start": 131.1429555, "end": 131.40009855, "pitch": 58, "velocity": 76}, {"start": 131.42867, "end": 131.69771782083333, "pitch": 61, "velocity": 76}, {"start": 131.7143845, "end": 132.2500991875, "pitch": 61, "velocity": 76}, {"start": 132.28581350000002, "end": 133.37629050833334, "pitch": 61, "velocity": 76}, {"start": 133.71438600000002, "end": 134.55486282083334, "pitch": 54, "velocity": 76}, {"start": 134.5715295, "end": 135.13819659166668, "pitch": 56, "velocity": 76}, {"start": 135.14295850000002, "end": 135.70248272916666, "pitch": 58, "velocity": 76}, {"start": 136.000102, "end": 136.25724505, "pitch": 61, "velocity": 76}, {"start": 136.2858165, "end": 136.8001026, "pitch": 61, "velocity": 76}, {"start": 136.8572455, "end": 137.40010305, "pitch": 61, "velocity": 76}, {"start": 137.4286745, "end": 137.94296060000002, "pitch": 54, "velocity": 76}, {"start": 138.0001035, "end": 138.51438960000002, "pitch": 54, "velocity": 76}, {"start": 138.57153250000002, "end": 139.0858186, "pitch": 58, "velocity": 76}, {"start": 139.1429615, "end": 140.23343850833334, "pitch": 56, "velocity": 76}, {"start": 140.571534, "end": 140.82867705, "pitch": 61, "velocity": 76}, {"start": 140.8572485, "end": 141.37153460000002, "pitch": 61, "velocity": 76}, {"start": 141.42867750000002, "end": 142.51915450833334, "pitch": 61, "velocity": 76}, {"start": 142.5715355, "end": 142.82867855, "pitch": 54, "velocity": 76}, {"start": 142.85725000000002, "end": 143.11439305000002, "pitch": 54, "velocity": 76}, {"start": 143.1429645, "end": 143.6572506, "pitch": 54, "velocity": 76}, {"start": 143.7143935, "end": 144.25725105, "pitch": 58, "velocity": 76}, {"start": 144.2858225, "end": 144.80010860000002, "pitch": 56, "velocity": 76}, {"start": 144.85725150000002, "end": 145.3715376, "pitch": 54, "velocity": 76}, {"start": 145.4286805, "end": 145.9429666, "pitch": 58, "velocity": 76}, {"start": 146.0001095, "end": 148.28582550000002, "pitch": 56, "velocity": 76}, {"start": 148.28582550000002, "end": 148.42868275, "pitch": 58, "velocity": 76}, {"start": 148.42868275, "end": 148.57154, "pitch": 56, "velocity": 76}, {"start": 148.57154, "end": 149.08582610000002, "pitch": 54, "velocity": 76}, {"start": 149.4286835, "end": 149.68582655, "pitch": 58, "velocity": 80}, {"start": 149.71439800000002, "end": 149.97154105, "pitch": 66, "velocity": 80}, {"start": 150.0001125, "end": 150.51439860000002, "pitch": 66, "velocity": 80}, {"start": 150.5715415, "end": 151.92868537500001, "pitch": 66, "velocity": 80}, {"start": 152.000114, "end": 152.77154315, "pitch": 63, "velocity": 80}, {"start": 152.8572575, "end": 153.94297260000002, "pitch": 65, "velocity": 80}, {"start": 154.28583, "end": 154.54297305, "pitch": 66, "velocity": 80}, {"start": 154.57154450000002, "end": 155.0858306, "pitch": 66, "velocity": 80}, {"start": 155.1429735, "end": 155.68583105000002, "pitch": 66, "velocity": 80}, {"start": 155.7144025, "end": 156.2286886, "pitch": 63, "velocity": 80}, {"start": 156.2858315, "end": 156.80011760000002, "pitch": 63, "velocity": 80}, {"start": 156.8572605, "end": 157.37154660000002, "pitch": 66, "velocity": 80}, {"start": 157.42868950000002, "end": 158.51916650833334, "pitch": 65, "velocity": 80}, {"start": 158.85726200000002, "end": 159.11440505000002, "pitch": 66, "velocity": 80}, {"start": 159.1429765, "end": 159.6572626, "pitch": 66, "velocity": 80}, {"start": 159.7144055, "end": 160.5144061, "pitch": 66, "velocity": 80}, {"start": 160.85726350000002, "end": 161.11440655, "pitch": 63, "velocity": 80}, {"start": 161.142978, "end": 161.40012105, "pitch": 63, "velocity": 80}, {"start": 161.4286925, "end": 161.9429786, "pitch": 63, "velocity": 80}, {"start": 162.0001215, "end": 162.54297905, "pitch": 66, "velocity": 80}, {"start": 162.5715505, "end": 163.08583660000002, "pitch": 65, "velocity": 80}, {"start": 163.1429795, "end": 163.65726560000002, "pitch": 63, "velocity": 80}, {"start": 163.71440850000002, "end": 164.2286946, "pitch": 66, "velocity": 80}, {"start": 164.2858375, "end": 166.57155350000002, "pitch": 65, "velocity": 80}, {"start": 166.57155350000002, "end": 166.71441075, "pitch": 66, "velocity": 80}, {"start": 166.71441075, "end": 166.857268, "pitch": 65, "velocity": 80}, {"start": 166.857268, "end": 167.3715541, "pitch": 63, "velocity": 80}, {"start": 167.7144115, "end": 167.97155455, "pitch": 58, "velocity": 80}, {"start": 168.00012600000002, "end": 168.51441210000002, "pitch": 61, "velocity": 80}, {"start": 168.57155500000002, "end": 169.0858411, "pitch": 63, "velocity": 80}, {"start": 169.142984, "end": 169.91441315, "pitch": 65, "velocity": 80}, {"start": 170.00012750000002, "end": 170.25727055000002, "pitch": 65, "velocity": 80}, {"start": 170.285842, "end": 170.671556575, "pitch": 65, "velocity": 80}, {"start": 170.71441375, "end": 171.10012832500001, "pitch": 61, "velocity": 80}, {"start": 171.1429855, "end": 172.82870105, "pitch": 61, "velocity": 80}, {"start": 172.85727250000002, "end": 172.985844025, "pitch": 61, "velocity": 80}, {"start": 173.00012975, "end": 173.2572728, "pitch": 61, "velocity": 80}, {"start": 173.28584425, "end": 173.54298730000002, "pitch": 63, "velocity": 80}, {"start": 173.57155875, "end": 174.48584515000002, "pitch": 65, "velocity": 80}, {"start": 174.5715595, "end": 174.82870255, "pitch": 63, "velocity": 80}, {"start": 174.85727400000002, "end": 174.985845525, "pitch": 65, "velocity": 80}, {"start": 175.00013125, "end": 175.12870277500002, "pitch": 63, "velocity": 80}, {"start": 175.1429885, "end": 175.40013155, "pitch": 65, "velocity": 80}, {"start": 175.428703, "end": 175.68584605, "pitch": 66, "velocity": 80}, {"start": 175.71441750000002, "end": 176.271560775, "pitch": 65, "velocity": 80}, {"start": 176.28584650000002, "end": 176.8001326, "pitch": 63, "velocity": 80}, {"start": 176.85727550000001, "end": 177.11441855, "pitch": 58, "velocity": 80}, {"start": 177.14299, "end": 177.65727610000002, "pitch": 61, "velocity": 80}, {"start": 177.71441900000002, "end": 178.2287051, "pitch": 63, "velocity": 80}, {"start": 178.28584800000002, "end": 179.05727715, "pitch": 65, "velocity": 80}, {"start": 179.14299150000002, "end": 179.40013455000002, "pitch": 65, "velocity": 80}, {"start": 179.428706, "end": 179.814420575, "pitch": 65, "velocity": 80}, {"start": 179.85727775, "end": 180.24299232500002, "pitch": 61, "velocity": 80}, {"start": 180.2858495, "end": 181.97156505, "pitch": 61, "velocity": 80}, {"start": 182.00013650000002, "end": 182.128708025, "pitch": 61, "velocity": 80}, {"start": 182.14299375000002, "end": 182.4001368, "pitch": 61, "velocity": 80}, {"start": 182.42870825, "end": 182.68585130000002, "pitch": 63, "velocity": 80}, {"start": 182.71442275, "end": 183.62870915000002, "pitch": 65, "velocity": 80}, {"start": 183.7144235, "end": 183.97156655, "pitch": 63, "velocity": 80}, {"start": 184.00013800000002, "end": 184.128709525, "pitch": 65, "velocity": 80}, {"start": 184.14299525, "end": 184.27156677500003, "pitch": 63, "velocity": 80}, {"start": 184.2858525, "end": 184.54299555, "pitch": 65, "velocity": 80}, {"start": 184.57156700000002, "end": 184.82871005, "pitch": 63, "velocity": 80}, {"start": 184.8572815, "end": 185.40013905, "pitch": 66, "velocity": 80}, {"start": 185.42871050000002, "end": 185.68585355000002, "pitch": 65, "velocity": 80}, {"start": 185.714425, "end": 185.97156805, "pitch": 63, "velocity": 80}, {"start": 186.00013950000002, "end": 186.5596637291667, "pitch": 61, "velocity": 80}, {"start": 186.5715685, "end": 186.71204479583335, "pitch": 63, "velocity": 80}, {"start": 186.71442575, "end": 186.85490204583334, "pitch": 61, "velocity": 80}, {"start": 186.85728300000002, "end": 187.9429981, "pitch": 58, "velocity": 80}]'),
(3634, '[{"start": 45.0, "end": 45.234375, "pitch": 80, "velocity": 111}, {"start": 45.234375, "end": 45.46875, "pitch": 80, "velocity": 111}, {"start": 46.40625, "end": 46.640625, "pitch": 78, "velocity": 111}, {"start": 46.640625, "end": 46.875, "pitch": 77, "velocity": 111}, {"start": 46.875, "end": 47.34375, "pitch": 78, "velocity": 111}, {"start": 47.34375, "end": 47.578125, "pitch": 80, "velocity": 111}, {"start": 48.28125, "end": 48.515625, "pitch": 73, "velocity": 95}, {"start": 48.515625, "end": 48.984375, "pitch": 78, "velocity": 95}, {"start": 48.984375, "end": 49.21875, "pitch": 77, "velocity": 95}, {"start": 49.21875, "end": 49.453125, "pitch": 73, "velocity": 95}, {"start": 49.453125, "end": 50.15625, "pitch": 78, "velocity": 111}, {"start": 50.15625, "end": 50.625, "pitch": 77, "velocity": 95}, {"start": 50.859375, "end": 51.09375, "pitch": 78, "velocity": 111}, {"start": 51.09375, "end": 51.328125, "pitch": 77, "velocity": 111}, {"start": 52.03125, "end": 52.265625, "pitch": 73, "velocity": 95}, {"start": 52.96875, "end": 53.203125, "pitch": 73, "velocity": 95}, {"start": 53.203125, "end": 53.671875, "pitch": 78, "velocity": 95}, {"start": 53.671875, "end": 53.90625, "pitch": 77, "velocity": 111}, {"start": 53.90625, "end": 54.140625, "pitch": 73, "velocity": 95}, {"start": 54.140625, "end": 54.609375, "pitch": 78, "velocity": 95}, {"start": 54.609375, "end": 54.84375, "pitch": 77, "velocity": 95}, {"start": 54.84375, "end": 55.078125, "pitch": 73, "velocity": 95}, {"start": 55.078125, "end": 55.3125, "pitch": 78, "velocity": 111}, {"start": 55.3125, "end": 55.546875, "pitch": 78, "velocity": 111}, {"start": 55.546875, "end": 56.015625, "pitch": 78, "velocity": 95}, {"start": 60.0, "end": 60.234375, "pitch": 80, "velocity": 111}, {"start": 60.234375, "end": 60.703125, "pitch": 80, "velocity": 111}, {"start": 61.40625, "end": 61.640625, "pitch": 78, "velocity": 111}, {"start": 61.640625, "end": 61.875, "pitch": 77, "velocity": 95}, {"start": 61.875, "end": 62.109375, "pitch": 78, "velocity": 111}, {"start": 62.109375, "end": 62.578125, "pitch": 80, "velocity": 111}, {"start": 62.578125, "end": 63.28125, "pitch": 77, "velocity": 111}, {"start": 63.28125, "end": 63.75, "pitch": 80, "velocity": 95}, {"start": 63.75, "end": 63.984375, "pitch": 78, "velocity": 111}, {"start": 63.984375, "end": 64.21875, "pitch": 77, "velocity": 111}, {"start": 64.21875, "end": 64.453125, "pitch": 73, "velocity": 111}, {"start": 64.453125, "end": 64.6875, "pitch": 78, "velocity": 111}, {"start": 64.6875, "end": 64.921875, "pitch": 78, "velocity": 111}, {"start": 64.921875, "end": 65.15625, "pitch": 77, "velocity": 95}, {"start": 65.15625, "end": 65.625, "pitch": 73, "velocity": 95}, {"start": 65.625, "end": 65.859375, "pitch": 78, "velocity": 111}, {"start": 65.859375, "end": 66.328125, "pitch": 80, "velocity": 111}, {"start": 66.328125, "end": 66.796875, "pitch": 78, "velocity": 111}, {"start": 66.796875, "end": 67.03125, "pitch": 77, "velocity": 111}, {"start": 67.03125, "end": 67.265625, "pitch": 78, "velocity": 111}, {"start": 67.265625, "end": 67.5, "pitch": 77, "velocity": 95}, {"start": 68.4375, "end": 68.90625, "pitch": 78, "velocity": 95}, {"start": 69.140625, "end": 69.375, "pitch": 73, "velocity": 95}, {"start": 69.375, "end": 69.609375, "pitch": 78, "velocity": 111}, {"start": 69.609375, "end": 69.84375, "pitch": 78, "velocity": 111}, {"start": 69.84375, "end": 70.3125, "pitch": 78, "velocity": 111}, {"start": 70.3125, "end": 70.546875, "pitch": 78, "velocity": 111}, {"start": 70.546875, "end": 71.015625, "pitch": 80, "velocity": 111}, {"start": 75.0, "end": 76.40625, "pitch": 80, "velocity": 111}, {"start": 77.34375, "end": 77.8125, "pitch": 78, "velocity": 111}, {"start": 77.8125, "end": 78.28125, "pitch": 78, "velocity": 111}, {"start": 78.28125, "end": 78.515625, "pitch": 78, "velocity": 111}, {"start": 82.5, "end": 83.203125, "pitch": 80, "velocity": 111}, {"start": 83.203125, "end": 83.671875, "pitch": 78, "velocity": 111}, {"start": 83.671875, "end": 84.140625, "pitch": 77, "velocity": 111}, {"start": 84.84375, "end": 85.3125, "pitch": 73, "velocity": 95}, {"start": 85.3125, "end": 85.78125, "pitch": 75, "velocity": 111}, {"start": 85.78125, "end": 86.015625, "pitch": 77, "velocity": 95}, {"start": 86.015625, "end": 87.65625, "pitch": 73, "velocity": 95}, {"start": 105.0, "end": 105.234375, "pitch": 80, "velocity": 111}, {"start": 105.234375, "end": 105.46875, "pitch": 80, "velocity": 111}, {"start": 106.40625, "end": 106.640625, "pitch": 78, "velocity": 111}, {"start": 106.640625, "end": 106.875, "pitch": 77, "velocity": 111}, {"start": 106.875, "end": 107.34375, "pitch": 78, "velocity": 111}, {"start": 107.34375, "end": 107.578125, "pitch": 80, "velocity": 111}, {"start": 108.28125, "end": 108.515625, "pitch": 73, "velocity": 95}, {"start": 108.515625, "end": 108.984375, "pitch": 78, "velocity": 95}, {"start": 108.984375, "end": 109.21875, "pitch": 77, "velocity": 95}, {"start": 109.21875, "end": 109.453125, "pitch": 73, "velocity": 95}, {"start": 109.453125, "end": 110.15625, "pitch": 78, "velocity": 111}, {"start": 110.15625, "end": 110.625, "pitch": 77, "velocity": 95}, {"start": 110.859375, "end": 111.09375, "pitch": 78, "velocity": 111}, {"start": 111.09375, "end": 111.328125, "pitch": 77, "velocity": 111}, {"start": 112.03125, "end": 112.265625, "pitch": 73, "velocity": 95}, {"start": 112.96875, "end": 113.203125, "pitch": 73, "velocity": 95}, {"start": 113.203125, "end": 113.671875, "pitch": 78, "velocity": 95}, {"start": 113.671875, "end": 113.90625, "pitch": 77, "velocity": 111}, {"start": 113.90625, "end": 114.140625, "pitch": 73, "velocity": 95}, {"start": 114.140625, "end": 114.609375, "pitch": 78, "velocity": 95}, {"start": 114.609375, "end": 114.84375, "pitch": 77, "velocity": 95}, {"start": 114.84375, "end": 115.078125, "pitch": 73, "velocity": 95}, {"start": 115.078125, "end": 115.3125, "pitch": 78, "velocity": 111}, {"start": 115.3125, "end": 115.546875, "pitch": 78, "velocity": 111}, {"start": 115.546875, "end": 116.015625, "pitch": 78, "velocity": 95}, {"start": 120.0, "end": 120.234375, "pitch": 80, "velocity": 111}, {"start": 120.234375, "end": 120.703125, "pitch": 80, "velocity": 111}, {"start": 121.40625, "end": 121.640625, "pitch": 78, "velocity": 111}, {"start": 121.640625, "end": 121.875, "pitch": 77, "velocity": 95}, {"start": 121.875, "end": 122.109375, "pitch": 78, "velocity": 111}, {"start": 122.109375, "end": 122.578125, "pitch": 80, "velocity": 111}, {"start": 122.578125, "end": 123.28125, "pitch": 77, "velocity": 111}, {"start": 123.28125, "end": 123.75, "pitch": 80, "velocity": 95}, {"start": 123.75, "end": 123.984375, "pitch": 78, "velocity": 111}, {"start": 123.984375, "end": 124.21875, "pitch": 77, "velocity": 111}, {"start": 124.21875, "end": 124.453125, "pitch": 73, "velocity": 111}, {"start": 124.453125, "end": 124.6875, "pitch": 78, "velocity": 111}, {"start": 124.6875, "end": 124.921875, "pitch": 78, "velocity": 111}, {"start": 124.921875, "end": 125.15625, "pitch": 77, "velocity": 95}, {"start": 125.15625, "end": 125.625, "pitch": 73, "velocity": 95}, {"start": 125.625, "end": 125.859375, "pitch": 78, "velocity": 111}, {"start": 125.859375, "end": 126.328125, "pitch": 80, "velocity": 111}, {"start": 126.328125, "end": 126.796875, "pitch": 78, "velocity": 111}, {"start": 126.796875, "end": 127.03125, "pitch": 77, "velocity": 111}, {"start": 127.03125, "end": 127.265625, "pitch": 78, "velocity": 111}, {"start": 127.265625, "end": 127.5, "pitch": 77, "velocity": 95}, {"start": 128.4375, "end": 128.90625, "pitch": 78, "velocity": 95}, {"start": 129.140625, "end": 129.375, "pitch": 73, "velocity": 95}, {"start": 129.375, "end": 129.609375, "pitch": 78, "velocity": 111}, {"start": 129.609375, "end": 129.84375, "pitch": 78, "velocity": 111}, {"start": 129.84375, "end": 130.3125, "pitch": 78, "velocity": 111}, {"start": 130.3125, "end": 130.546875, "pitch": 78, "velocity": 111}, {"start": 130.546875, "end": 131.015625, "pitch": 80, "velocity": 111}, {"start": 135.0, "end": 136.40625, "pitch": 80, "velocity": 111}, {"start": 137.34375, "end": 137.8125, "pitch": 78, "velocity": 111}, {"start": 137.8125, "end": 138.28125, "pitch": 78, "velocity": 111}, {"start": 138.28125, "end": 138.515625, "pitch": 78, "velocity": 111}, {"start": 142.5, "end": 143.203125, "pitch": 80, "velocity": 111}, {"start": 143.203125, "end": 143.671875, "pitch": 78, "velocity": 111}, {"start": 143.671875, "end": 144.140625, "pitch": 77, "velocity": 111}, {"start": 144.84375, "end": 145.3125, "pitch": 73, "velocity": 95}, {"start": 145.3125, "end": 145.78125, "pitch": 75, "velocity": 111}, {"start": 145.78125, "end": 146.015625, "pitch": 77, "velocity": 95}, {"start": 146.015625, "end": 147.65625, "pitch": 73, "velocity": 95}, {"start": 180.0, "end": 181.40625, "pitch": 80, "velocity": 111}, {"start": 182.34375, "end": 182.8125, "pitch": 78, "velocity": 111}, {"start": 182.8125, "end": 183.28125, "pitch": 78, "velocity": 111}, {"start": 183.28125, "end": 183.515625, "pitch": 78, "velocity": 111}, {"start": 187.5, "end": 188.203125, "pitch": 80, "velocity": 111}, {"start": 188.203125, "end": 188.671875, "pitch": 78, "velocity": 111}, {"start": 188.671875, "end": 189.140625, "pitch": 77, "velocity": 111}, {"start": 189.84375, "end": 190.3125, "pitch": 73, "velocity": 95}, {"start": 190.3125, "end": 190.78125, "pitch": 75, "velocity": 111}, {"start": 190.78125, "end": 191.015625, "pitch": 77, "velocity": 95}, {"start": 191.015625, "end": 192.65625, "pitch": 73, "velocity": 95}, {"start": 195.0, "end": 195.703125, "pitch": 80, "velocity": 111}, {"start": 195.703125, "end": 196.171875, "pitch": 83, "velocity": 111}, {"start": 196.171875, "end": 196.640625, "pitch": 85, "velocity": 95}, {"start": 197.34375, "end": 197.8125, "pitch": 85, "velocity": 111}, {"start": 198.28125, "end": 198.515625, "pitch": 80, "velocity": 95}, {"start": 198.515625, "end": 198.984375, "pitch": 82, "velocity": 95}, {"start": 198.984375, "end": 199.21875, "pitch": 85, "velocity": 95}, {"start": 199.21875, "end": 199.453125, "pitch": 82, "velocity": 95}, {"start": 199.453125, "end": 200.15625, "pitch": 80, "velocity": 95}, {"start": 200.625, "end": 200.859375, "pitch": 82, "velocity": 95}, {"start": 200.859375, "end": 201.09375, "pitch": 80, "velocity": 95}, {"start": 201.09375, "end": 201.328125, "pitch": 78, "velocity": 95}, {"start": 201.328125, "end": 201.796875, "pitch": 80, "velocity": 95}, {"start": 201.796875, "end": 202.5, "pitch": 82, "velocity": 95}, {"start": 202.5, "end": 203.4375, "pitch": 82, "velocity": 95}, {"start": 203.203125, "end": 203.671875, "pitch": 80, "velocity": 95}, {"start": 203.671875, "end": 204.140625, "pitch": 78, "velocity": 95}, {"start": 204.140625, "end": 204.2578125, "pitch": 77, "velocity": 95}, {"start": 204.2578125, "end": 204.609375, "pitch": 78, "velocity": 95}, {"start": 204.609375, "end": 204.84375, "pitch": 77, "velocity": 95}, {"start": 204.84375, "end": 205.3125, "pitch": 73, "velocity": 95}, {"start": 205.3125, "end": 205.78125, "pitch": 75, "velocity": 95}, {"start": 205.78125, "end": 206.015625, "pitch": 77, "velocity": 95}, {"start": 277.96875, "end": 278.4375, "pitch": 70, "velocity": 95}, {"start": 278.4375, "end": 278.90625, "pitch": 70, "velocity": 95}, {"start": 278.90625, "end": 279.375, "pitch": 68, "velocity": 95}, {"start": 279.375, "end": 279.609375, "pitch": 70, "velocity": 95}, {"start": 279.609375, "end": 279.84375, "pitch": 68, "velocity": 95}, {"start": 279.84375, "end": 280.078125, "pitch": 66, "velocity": 95}, {"start": 280.078125, "end": 280.78125, "pitch": 70, "velocity": 95}, {"start": 282.65625, "end": 283.125, "pitch": 70, "velocity": 95}, {"start": 283.125, "end": 283.359375, "pitch": 70, "velocity": 95}, {"start": 283.359375, "end": 283.59375, "pitch": 70, "velocity": 95}, {"start": 283.59375, "end": 283.828125, "pitch": 70, "velocity": 95}, {"start": 283.828125, "end": 284.296875, "pitch": 68, "velocity": 95}, {"start": 284.296875, "end": 285.0, "pitch": 63, "velocity": 95}, {"start": 286.875, "end": 287.109375, "pitch": 70, "velocity": 95}, {"start": 287.109375, "end": 287.34375, "pitch": 70, "velocity": 95}, {"start": 287.34375, "end": 287.578125, "pitch": 73, "velocity": 95}, {"start": 289.21875, "end": 289.6875, "pitch": 70, "velocity": 95}, {"start": 289.6875, "end": 290.15625, "pitch": 70, "velocity": 95}, {"start": 289.21875, "end": 290.625, "pitch": 87, "velocity": 111}, {"start": 290.625, "end": 290.859375, "pitch": 75, "velocity": 95}, {"start": 290.859375, "end": 291.09375, "pitch": 73, "velocity": 95}, {"start": 291.09375, "end": 291.328125, "pitch": 70, "velocity": 95}, {"start": 291.328125, "end": 291.796875, "pitch": 68, "velocity": 95}, {"start": 291.796875, "end": 292.5, "pitch": 66, "velocity": 95}, {"start": 294.375, "end": 294.84375, "pitch": 75, "velocity": 95}, {"start": 298.125, "end": 298.359375, "pitch": 82, "velocity": 95}, {"start": 298.359375, "end": 298.59375, "pitch": 82, "velocity": 95}, {"start": 298.59375, "end": 298.828125, "pitch": 82, "velocity": 95}, {"start": 298.828125, "end": 299.296875, "pitch": 80, "velocity": 95}, {"start": 299.296875, "end": 299.765625, "pitch": 78, "velocity": 95}, {"start": 299.765625, "end": 300.0, "pitch": 78, "velocity": 95}, {"start": 300.0, "end": 300.234375, "pitch": 82, "velocity": 95}, {"start": 300.234375, "end": 300.46875, "pitch": 85, "velocity": 95}, {"start": 300.46875, "end": 300.703125, "pitch": 82, "velocity": 95}, {"start": 300.9375, "end": 301.171875, "pitch": 80, "velocity": 95}, {"start": 301.171875, "end": 301.40625, "pitch": 78, "velocity": 95}, {"start": 301.40625, "end": 301.640625, "pitch": 80, "velocity": 95}, {"start": 301.640625, "end": 301.875, "pitch": 78, "velocity": 95}, {"start": 301.875, "end": 302.109375, "pitch": 82, "velocity": 95}, {"start": 302.109375, "end": 302.34375, "pitch": 80, "velocity": 95}, {"start": 302.34375, "end": 302.578125, "pitch": 78, "velocity": 95}, {"start": 302.578125, "end": 303.28125, "pitch": 82, "velocity": 95}, {"start": 305.625, "end": 305.859375, "pitch": 87, "velocity": 111}, {"start": 305.859375, "end": 306.09375, "pitch": 85, "velocity": 111}, {"start": 306.09375, "end": 306.328125, "pitch": 82, "velocity": 111}, {"start": 306.328125, "end": 306.5625, "pitch": 80, "velocity": 111}, {"start": 306.5625, "end": 306.796875, "pitch": 80, "velocity": 95}, {"start": 306.796875, "end": 307.5, "pitch": 78, "velocity": 111}, {"start": 309.375, "end": 309.609375, "pitch": 82, "velocity": 95}, {"start": 309.609375, "end": 309.84375, "pitch": 82, "velocity": 95}, {"start": 309.84375, "end": 310.078125, "pitch": 85, "velocity": 111}, {"start": 310.078125, "end": 310.546875, "pitch": 82, "velocity": 95}, {"start": 310.546875, "end": 310.78125, "pitch": 85, "velocity": 95}, {"start": 310.78125, "end": 311.015625, "pitch": 82, "velocity": 95}, {"start": 311.015625, "end": 311.25, "pitch": 85, "velocity": 95}, {"start": 311.25, "end": 311.484375, "pitch": 82, "velocity": 111}, {"start": 312.1875, "end": 312.421875, "pitch": 80, "velocity": 95}, {"start": 312.421875, "end": 312.65625, "pitch": 78, "velocity": 95}, {"start": 312.65625, "end": 312.890625, "pitch": 80, "velocity": 95}, {"start": 312.890625, "end": 313.125, "pitch": 78, "velocity": 95}, {"start": 313.125, "end": 313.359375, "pitch": 82, "velocity": 95}, {"start": 313.359375, "end": 313.59375, "pitch": 82, "velocity": 95}, {"start": 313.59375, "end": 313.828125, "pitch": 82, "velocity": 95}, {"start": 314.296875, "end": 315.0, "pitch": 75, "velocity": 95}, {"start": 316.875, "end": 317.109375, "pitch": 82, "velocity": 95}, {"start": 317.109375, "end": 317.34375, "pitch": 80, "velocity": 95}, {"start": 317.34375, "end": 317.578125, "pitch": 78, "velocity": 95}, {"start": 320.625, "end": 320.859375, "pitch": 82, "velocity": 95}, {"start": 320.859375, "end": 321.09375, "pitch": 82, "velocity": 95}, {"start": 321.09375, "end": 321.328125, "pitch": 85, "velocity": 111}, {"start": 321.796875, "end": 322.5, "pitch": 78, "velocity": 111}, {"start": 322.5, "end": 322.8125, "pitch": 87, "velocity": 95}, {"start": 322.8125, "end": 323.125, "pitch": 85, "velocity": 95}, {"start": 323.125, "end": 323.4375, "pitch": 82, "velocity": 95}, {"start": 323.4375, "end": 323.75, "pitch": 81, "velocity": 95}, {"start": 323.75, "end": 324.0625, "pitch": 80, "velocity": 95}, {"start": 324.0625, "end": 324.375, "pitch": 78, "velocity": 95}, {"start": 324.375, "end": 324.84375, "pitch": 75, "velocity": 111}, {"start": 325.546875, "end": 326.015625, "pitch": 82, "velocity": 95}, {"start": 327.421875, "end": 327.65625, "pitch": 82, "velocity": 95}, {"start": 328.125, "end": 328.359375, "pitch": 82, "velocity": 95}, {"start": 328.359375, "end": 328.59375, "pitch": 85, "velocity": 95}, {"start": 328.59375, "end": 328.828125, "pitch": 82, "velocity": 95}, {"start": 328.828125, "end": 329.0625, "pitch": 85, "velocity": 95}, {"start": 329.0625, "end": 329.296875, "pitch": 82, "velocity": 95}, {"start": 329.53125, "end": 329.765625, "pitch": 80, "velocity": 95}, {"start": 329.765625, "end": 330.0, "pitch": 78, "velocity": 95}, {"start": 330.0, "end": 330.234375, "pitch": 82, "velocity": 95}, {"start": 330.234375, "end": 330.46875, "pitch": 85, "velocity": 95}, {"start": 330.46875, "end": 330.703125, "pitch": 82, "velocity": 95}, {"start": 330.703125, "end": 330.9375, "pitch": 85, "velocity": 95}, {"start": 330.9375, "end": 331.171875, "pitch": 87, "velocity": 95}, {"start": 331.171875, "end": 331.40625, "pitch": 85, "velocity": 95}, {"start": 331.40625, "end": 331.640625, "pitch": 82, "velocity": 95}, {"start": 331.875, "end": 331.9921875, "pitch": 80, "velocity": 95}, {"start": 331.9921875, "end": 332.109375, "pitch": 78, "velocity": 95}, {"start": 332.109375, "end": 334.453125, "pitch": 75, "velocity": 95}, {"start": 334.453125, "end": 335.625, "pitch": 73, "velocity": 95}, {"start": 335.625, "end": 338.025, "pitch": 75, "velocity": 95}]'),
(9080, '[{"start": 6.272721000000001, "end": 6.545448, "pitch": 68, "velocity": 79}, {"start": 6.545448, "end": 7.363629, "pitch": 73, "velocity": 79}, {"start": 7.363629, "end": 8.18181, "pitch": 68, "velocity": 79}, {"start": 8.18181, "end": 8.727264, "pitch": 69, "velocity": 79}, {"start": 10.909080000000001, "end": 11.727261, "pitch": 73, "velocity": 79}, {"start": 11.727261, "end": 12.545442000000001, "pitch": 68, "velocity": 79}, {"start": 12.545442000000001, "end": 12.818169000000001, "pitch": 68, "velocity": 79}, {"start": 12.818169000000001, "end": 13.090896, "pitch": 66, "velocity": 79}, {"start": 15.272712000000002, "end": 16.090893, "pitch": 73, "velocity": 79}, {"start": 16.090893, "end": 16.909074, "pitch": 68, "velocity": 79}, {"start": 16.909074, "end": 17.181801, "pitch": 68, "velocity": 79}, {"start": 17.181801, "end": 17.454528, "pitch": 69, "velocity": 79}, {"start": 23.727249, "end": 23.999976, "pitch": 68, "velocity": 79}, {"start": 23.999976, "end": 24.818157000000003, "pitch": 73, "velocity": 79}, {"start": 24.818157000000003, "end": 25.636338000000002, "pitch": 68, "velocity": 79}, {"start": 25.636338000000002, "end": 26.181792, "pitch": 69, "velocity": 79}, {"start": 28.363608000000003, "end": 29.181789000000002, "pitch": 73, "velocity": 79}, {"start": 29.181789000000002, "end": 29.99997, "pitch": 68, "velocity": 79}, {"start": 29.99997, "end": 30.272697, "pitch": 68, "velocity": 79}, {"start": 30.272697, "end": 30.545424000000004, "pitch": 66, "velocity": 79}, {"start": 32.72724, "end": 33.545421000000005, "pitch": 73, "velocity": 79}, {"start": 33.545421000000005, "end": 34.363602, "pitch": 68, "velocity": 79}, {"start": 34.363602, "end": 34.636329, "pitch": 68, "velocity": 79}, {"start": 34.636329, "end": 34.909056, "pitch": 69, "velocity": 79}, {"start": 38.18178, "end": 38.727234, "pitch": 73, "velocity": 79}, {"start": 38.727234, "end": 39.272688, "pitch": 73, "velocity": 79}, {"start": 39.272688, "end": 39.818142, "pitch": 73, "velocity": 79}, {"start": 39.818142, "end": 40.363596, "pitch": 73, "velocity": 95}, {"start": 42.545412000000006, "end": 42.6817755, "pitch": 73, "velocity": 79}, {"start": 42.818139, "end": 42.954502500000004, "pitch": 73, "velocity": 79}, {"start": 43.090866000000005, "end": 43.2272295, "pitch": 73, "velocity": 79}, {"start": 43.636320000000005, "end": 44.727228000000004, "pitch": 73, "velocity": 79}, {"start": 46.909044, "end": 47.181771000000005, "pitch": 73, "velocity": 79}, {"start": 47.181771000000005, "end": 47.454498, "pitch": 73, "velocity": 79}, {"start": 47.454498, "end": 47.727225000000004, "pitch": 73, "velocity": 79}, {"start": 47.999952, "end": 48.818133, "pitch": 73, "velocity": 79}, {"start": 48.818133, "end": 49.090860000000006, "pitch": 71, "velocity": 79}, {"start": 49.636314000000006, "end": 50.181768000000005, "pitch": 69, "velocity": 79}, {"start": 50.181768000000005, "end": 50.727222000000005, "pitch": 74, "velocity": 79}, {"start": 50.727222000000005, "end": 50.999949, "pitch": 73, "velocity": 79}, {"start": 50.999949, "end": 51.54540300000001, "pitch": 71, "velocity": 79}, {"start": 51.54540300000001, "end": 51.818130000000004, "pitch": 69, "velocity": 79}, {"start": 51.818130000000004, "end": 52.363584, "pitch": 69, "velocity": 79}, {"start": 58.63630500000001, "end": 58.909032, "pitch": 68, "velocity": 79}, {"start": 58.909032, "end": 59.727213000000006, "pitch": 73, "velocity": 79}, {"start": 59.727213000000006, "end": 60.545394, "pitch": 68, "velocity": 79}, {"start": 60.545394, "end": 61.09084800000001, "pitch": 69, "velocity": 79}, {"start": 63.272664000000006, "end": 64.090845, "pitch": 73, "velocity": 79}, {"start": 64.090845, "end": 64.90902600000001, "pitch": 68, "velocity": 79}, {"start": 64.90902600000001, "end": 65.181753, "pitch": 68, "velocity": 79}, {"start": 65.181753, "end": 65.45448, "pitch": 66, "velocity": 79}, {"start": 67.636296, "end": 68.45447700000001, "pitch": 73, "velocity": 79}, {"start": 68.45447700000001, "end": 69.272658, "pitch": 68, "velocity": 79}, {"start": 69.272658, "end": 69.54538500000001, "pitch": 68, "velocity": 79}, {"start": 69.54538500000001, "end": 69.818112, "pitch": 69, "velocity": 79}, {"start": 76.090833, "end": 76.36356, "pitch": 68, "velocity": 79}, {"start": 76.36356, "end": 77.181741, "pitch": 73, "velocity": 79}, {"start": 77.181741, "end": 77.99992200000001, "pitch": 68, "velocity": 79}, {"start": 77.99992200000001, "end": 78.545376, "pitch": 69, "velocity": 79}, {"start": 80.727192, "end": 81.54537300000001, "pitch": 73, "velocity": 79}, {"start": 81.54537300000001, "end": 82.36355400000001, "pitch": 68, "velocity": 79}, {"start": 82.36355400000001, "end": 82.63628100000001, "pitch": 68, "velocity": 79}, {"start": 82.63628100000001, "end": 82.909008, "pitch": 66, "velocity": 79}, {"start": 85.09082400000001, "end": 85.90900500000001, "pitch": 73, "velocity": 79}, {"start": 85.90900500000001, "end": 86.727186, "pitch": 68, "velocity": 79}, {"start": 86.727186, "end": 86.999913, "pitch": 68, "velocity": 79}, {"start": 86.999913, "end": 87.27264000000001, "pitch": 69, "velocity": 79}, {"start": 90.545364, "end": 91.09081800000001, "pitch": 73, "velocity": 79}, {"start": 91.09081800000001, "end": 91.636272, "pitch": 73, "velocity": 79}, {"start": 91.636272, "end": 92.72718, "pitch": 73, "velocity": 79}, {"start": 94.908996, "end": 95.0453595, "pitch": 73, "velocity": 79}, {"start": 95.181723, "end": 95.3180865, "pitch": 73, "velocity": 79}, {"start": 95.45445000000001, "end": 95.59081350000001, "pitch": 73, "velocity": 79}, {"start": 95.999904, "end": 97.09081200000001, "pitch": 73, "velocity": 79}, {"start": 99.27262800000001, "end": 99.54535500000001, "pitch": 73, "velocity": 79}, {"start": 99.54535500000001, "end": 99.818082, "pitch": 73, "velocity": 79}, {"start": 99.818082, "end": 100.09080900000001, "pitch": 73, "velocity": 79}, {"start": 100.36353600000001, "end": 101.181717, "pitch": 73, "velocity": 79}, {"start": 101.181717, "end": 101.45444400000001, "pitch": 71, "velocity": 79}, {"start": 101.999898, "end": 102.54535200000001, "pitch": 69, "velocity": 79}, {"start": 102.54535200000001, "end": 103.09080600000001, "pitch": 74, "velocity": 79}, {"start": 103.09080600000001, "end": 103.363533, "pitch": 73, "velocity": 79}, {"start": 103.363533, "end": 103.90898700000001, "pitch": 71, "velocity": 79}, {"start": 103.90898700000001, "end": 104.18171400000001, "pitch": 69, "velocity": 79}, {"start": 104.18171400000001, "end": 104.727168, "pitch": 69, "velocity": 79}, {"start": 107.999892, "end": 108.54534600000001, "pitch": 73, "velocity": 79}, {"start": 108.54534600000001, "end": 109.0908, "pitch": 73, "velocity": 79}, {"start": 109.0908, "end": 110.18170800000001, "pitch": 73, "velocity": 79}, {"start": 112.36352400000001, "end": 112.49988750000001, "pitch": 73, "velocity": 79}, {"start": 112.63625100000002, "end": 112.7726145, "pitch": 73, "velocity": 79}, {"start": 112.908978, "end": 113.0453415, "pitch": 73, "velocity": 79}, {"start": 113.45443200000001, "end": 114.54534000000001, "pitch": 73, "velocity": 79}, {"start": 116.72715600000001, "end": 116.99988300000001, "pitch": 73, "velocity": 79}, {"start": 116.99988300000001, "end": 117.27261000000001, "pitch": 73, "velocity": 79}, {"start": 117.27261000000001, "end": 117.545337, "pitch": 73, "velocity": 79}, {"start": 117.818064, "end": 118.636245, "pitch": 73, "velocity": 79}, {"start": 118.636245, "end": 118.908972, "pitch": 71, "velocity": 79}, {"start": 119.45442600000001, "end": 119.99988, "pitch": 69, "velocity": 79}, {"start": 119.99988, "end": 120.54533400000001, "pitch": 74, "velocity": 79}, {"start": 120.54533400000001, "end": 120.81806100000001, "pitch": 73, "velocity": 79}, {"start": 120.81806100000001, "end": 121.363515, "pitch": 71, "velocity": 79}, {"start": 121.363515, "end": 121.63624200000001, "pitch": 69, "velocity": 79}, {"start": 121.63624200000001, "end": 122.18169600000002, "pitch": 69, "velocity": 79}, {"start": 128.454417, "end": 128.727144, "pitch": 68, "velocity": 79}, {"start": 128.727144, "end": 129.54532500000002, "pitch": 73, "velocity": 79}, {"start": 129.54532500000002, "end": 130.363506, "pitch": 68, "velocity": 79}, {"start": 130.363506, "end": 130.90896, "pitch": 69, "velocity": 79}, {"start": 133.090776, "end": 133.90895700000002, "pitch": 73, "velocity": 79}, {"start": 133.90895700000002, "end": 134.727138, "pitch": 68, "velocity": 79}, {"start": 134.727138, "end": 134.999865, "pitch": 68, "velocity": 79}, {"start": 134.999865, "end": 135.272592, "pitch": 66, "velocity": 79}, {"start": 137.454408, "end": 138.272589, "pitch": 73, "velocity": 79}, {"start": 138.272589, "end": 139.09077000000002, "pitch": 68, "velocity": 79}, {"start": 139.09077000000002, "end": 139.36349700000002, "pitch": 68, "velocity": 79}, {"start": 139.36349700000002, "end": 139.636224, "pitch": 69, "velocity": 79}, {"start": 145.90894500000002, "end": 146.18167200000002, "pitch": 68, "velocity": 79}, {"start": 146.18167200000002, "end": 146.999853, "pitch": 73, "velocity": 79}, {"start": 146.999853, "end": 147.818034, "pitch": 68, "velocity": 79}, {"start": 147.818034, "end": 148.36348800000002, "pitch": 69, "velocity": 79}, {"start": 150.54530400000002, "end": 151.36348500000003, "pitch": 73, "velocity": 79}, {"start": 151.36348500000003, "end": 152.181666, "pitch": 68, "velocity": 79}, {"start": 152.181666, "end": 152.454393, "pitch": 68, "velocity": 79}, {"start": 152.454393, "end": 152.72712, "pitch": 66, "velocity": 79}, {"start": 154.908936, "end": 155.72711700000002, "pitch": 73, "velocity": 79}, {"start": 155.72711700000002, "end": 156.545298, "pitch": 68, "velocity": 79}, {"start": 156.545298, "end": 156.818025, "pitch": 68, "velocity": 79}, {"start": 156.818025, "end": 157.090752, "pitch": 69, "velocity": 79}, {"start": 160.36347600000002, "end": 160.90893000000003, "pitch": 73, "velocity": 79}, {"start": 160.90893000000003, "end": 161.454384, "pitch": 73, "velocity": 79}, {"start": 161.454384, "end": 162.54529200000002, "pitch": 73, "velocity": 79}, {"start": 164.72710800000002, "end": 164.8634715, "pitch": 73, "velocity": 79}, {"start": 164.99983500000002, "end": 165.1361985, "pitch": 73, "velocity": 79}, {"start": 165.27256200000002, "end": 165.4089255, "pitch": 73, "velocity": 79}, {"start": 165.818016, "end": 166.908924, "pitch": 73, "velocity": 79}, {"start": 169.09074, "end": 169.363467, "pitch": 73, "velocity": 79}, {"start": 169.363467, "end": 169.63619400000002, "pitch": 73, "velocity": 79}, {"start": 169.63619400000002, "end": 169.90892100000002, "pitch": 73, "velocity": 79}, {"start": 170.18164800000002, "end": 170.999829, "pitch": 73, "velocity": 79}, {"start": 170.999829, "end": 171.272556, "pitch": 71, "velocity": 79}, {"start": 171.81801000000002, "end": 172.36346400000002, "pitch": 69, "velocity": 79}, {"start": 172.36346400000002, "end": 172.908918, "pitch": 74, "velocity": 79}, {"start": 172.908918, "end": 173.181645, "pitch": 73, "velocity": 79}, {"start": 173.181645, "end": 173.727099, "pitch": 71, "velocity": 79}, {"start": 173.727099, "end": 173.999826, "pitch": 69, "velocity": 79}, {"start": 173.999826, "end": 174.54528000000002, "pitch": 69, "velocity": 79}, {"start": 177.818004, "end": 178.363458, "pitch": 73, "velocity": 79}, {"start": 178.363458, "end": 178.90891200000002, "pitch": 73, "velocity": 79}, {"start": 178.90891200000002, "end": 179.99982000000003, "pitch": 73, "velocity": 79}, {"start": 182.18163600000003, "end": 182.3179995, "pitch": 73, "velocity": 79}, {"start": 182.454363, "end": 182.59072650000002, "pitch": 73, "velocity": 79}, {"start": 182.72709, "end": 182.86345350000002, "pitch": 73, "velocity": 79}, {"start": 183.272544, "end": 184.36345200000002, "pitch": 73, "velocity": 79}, {"start": 186.54526800000002, "end": 186.81799500000002, "pitch": 73, "velocity": 79}, {"start": 186.81799500000002, "end": 187.09072200000003, "pitch": 73, "velocity": 79}, {"start": 187.09072200000003, "end": 187.363449, "pitch": 73, "velocity": 79}, {"start": 187.636176, "end": 188.45435700000002, "pitch": 73, "velocity": 79}, {"start": 188.45435700000002, "end": 188.72708400000002, "pitch": 71, "velocity": 79}, {"start": 189.27253800000003, "end": 189.817992, "pitch": 69, "velocity": 79}, {"start": 189.817992, "end": 190.363446, "pitch": 74, "velocity": 79}, {"start": 190.363446, "end": 190.636173, "pitch": 73, "velocity": 79}, {"start": 190.636173, "end": 191.18162700000002, "pitch": 71, "velocity": 79}, {"start": 191.18162700000002, "end": 191.45435400000002, "pitch": 69, "velocity": 79}, {"start": 191.45435400000002, "end": 191.999808, "pitch": 69, "velocity": 79}, {"start": 195.272532, "end": 195.81798600000002, "pitch": 73, "velocity": 79}, {"start": 195.81798600000002, "end": 196.36344000000003, "pitch": 73, "velocity": 79}, {"start": 196.36344000000003, "end": 197.454348, "pitch": 73, "velocity": 79}, {"start": 199.636164, "end": 199.77252750000002, "pitch": 73, "velocity": 79}, {"start": 199.908891, "end": 200.04525450000003, "pitch": 73, "velocity": 79}, {"start": 200.18161800000001, "end": 200.3179815, "pitch": 73, "velocity": 79}, {"start": 200.72707200000002, "end": 201.81798, "pitch": 73, "velocity": 79}, {"start": 203.999796, "end": 204.272523, "pitch": 73, "velocity": 79}, {"start": 204.272523, "end": 204.54525, "pitch": 73, "velocity": 79}, {"start": 204.54525, "end": 204.817977, "pitch": 73, "velocity": 79}, {"start": 205.09070400000002, "end": 205.90888500000003, "pitch": 73, "velocity": 79}, {"start": 205.90888500000003, "end": 206.18161200000003, "pitch": 71, "velocity": 79}, {"start": 206.727066, "end": 207.27252000000001, "pitch": 69, "velocity": 79}, {"start": 207.27252000000001, "end": 207.81797400000002, "pitch": 74, "velocity": 79}, {"start": 207.81797400000002, "end": 208.09070100000002, "pitch": 73, "velocity": 79}, {"start": 208.09070100000002, "end": 208.636155, "pitch": 71, "velocity": 79}, {"start": 208.636155, "end": 208.908882, "pitch": 69, "velocity": 79}, {"start": 208.908882, "end": 209.454336, "pitch": 69, "velocity": 79}, {"start": 212.72706000000002, "end": 213.27251400000003, "pitch": 73, "velocity": 79}, {"start": 213.27251400000003, "end": 213.817968, "pitch": 73, "velocity": 79}, {"start": 213.817968, "end": 214.90887600000002, "pitch": 73, "velocity": 79}, {"start": 217.09069200000002, "end": 217.2270555, "pitch": 73, "velocity": 79}, {"start": 217.36341900000002, "end": 217.4997825, "pitch": 73, "velocity": 79}, {"start": 217.63614600000002, "end": 217.7725095, "pitch": 73, "velocity": 79}, {"start": 218.1816, "end": 219.27250800000002, "pitch": 73, "velocity": 79}, {"start": 221.454324, "end": 221.72705100000002, "pitch": 73, "velocity": 79}, {"start": 221.72705100000002, "end": 221.99977800000002, "pitch": 73, "velocity": 79}, {"start": 221.99977800000002, "end": 222.27250500000002, "pitch": 73, "velocity": 79}, {"start": 222.54523200000003, "end": 223.363413, "pitch": 73, "velocity": 79}, {"start": 223.363413, "end": 223.63614, "pitch": 71, "velocity": 79}, {"start": 224.18159400000002, "end": 224.72704800000002, "pitch": 69, "velocity": 79}, {"start": 224.72704800000002, "end": 225.27250200000003, "pitch": 74, "velocity": 79}, {"start": 225.27250200000003, "end": 225.545229, "pitch": 73, "velocity": 79}, {"start": 225.545229, "end": 226.090683, "pitch": 71, "velocity": 79}, {"start": 226.090683, "end": 226.36341000000002, "pitch": 69, "velocity": 79}, {"start": 226.36341000000002, "end": 226.90886400000002, "pitch": 69, "velocity": 79}, {"start": 230.181588, "end": 230.727042, "pitch": 73, "velocity": 79}, {"start": 230.727042, "end": 231.27249600000002, "pitch": 73, "velocity": 79}, {"start": 231.27249600000002, "end": 232.36340400000003, "pitch": 73, "velocity": 79}, {"start": 234.54522000000003, "end": 234.68158350000002, "pitch": 73, "velocity": 79}, {"start": 234.81794700000003, "end": 234.95431050000002, "pitch": 73, "velocity": 79}, {"start": 235.090674, "end": 235.22703750000002, "pitch": 73, "velocity": 79}, {"start": 235.636128, "end": 236.72703600000003, "pitch": 73, "velocity": 79}, {"start": 238.90885200000002, "end": 239.18157900000003, "pitch": 73, "velocity": 79}, {"start": 239.18157900000003, "end": 239.45430600000003, "pitch": 73, "velocity": 79}, {"start": 239.45430600000003, "end": 239.727033, "pitch": 73, "velocity": 79}, {"start": 239.99976, "end": 240.81794100000002, "pitch": 73, "velocity": 79}, {"start": 240.81794100000002, "end": 241.09066800000002, "pitch": 71, "velocity": 79}, {"start": 241.63612200000003, "end": 242.181576, "pitch": 69, "velocity": 79}, {"start": 242.181576, "end": 242.72703, "pitch": 74, "velocity": 79}, {"start": 242.72703, "end": 242.99975700000002, "pitch": 73, "velocity": 79}, {"start": 242.99975700000002, "end": 243.54521100000002, "pitch": 71, "velocity": 79}, {"start": 243.54521100000002, "end": 243.81793800000003, "pitch": 69, "velocity": 79}, {"start": 243.81793800000003, "end": 244.36339200000003, "pitch": 69, "velocity": 79}]'),
(11543, '[{"start": 11.146676937499999, "end": 11.350705546875, "pitch": 61, "velocity": 107}, {"start": 11.38944515625, "end": 11.794919734375, "pitch": 66, "velocity": 127}, {"start": 11.913721203125, "end": 12.202976953124999, "pitch": 64, "velocity": 106}, {"start": 12.169402625, "end": 12.46382365625, "pitch": 61, "velocity": 107}, {"start": 13.907519765624999, "end": 14.517022953125, "pitch": 63, "velocity": 89}, {"start": 14.671981390625, "end": 14.979315625, "pitch": 64, "velocity": 78}, {"start": 15.152352546874999, "end": 15.4235298125, "pitch": 64, "velocity": 98}, {"start": 15.4028686875, "end": 15.570740328125, "pitch": 61, "velocity": 88}, {"start": 15.674045953124999, "end": 15.921979453125, "pitch": 64, "velocity": 97}, {"start": 15.890987765624999, "end": 16.283549140625, "pitch": 61, "velocity": 82}, {"start": 20.082613499999997, "end": 20.157510078125, "pitch": 61, "velocity": 80}, {"start": 20.330547, "end": 20.544906171875, "pitch": 61, "velocity": 80}, {"start": 20.578480499999998, "end": 20.741186859375, "pitch": 63, "velocity": 84}, {"start": 20.826414, "end": 21.07951278125, "pitch": 64, "velocity": 88}, {"start": 21.0743475, "end": 21.28095875, "pitch": 66, "velocity": 92}, {"start": 21.322281, "end": 21.5805450625, "pitch": 68, "velocity": 96}, {"start": 21.5702145, "end": 21.73033821875, "pitch": 64, "velocity": 92}, {"start": 21.818147999999997, "end": 22.115151671874997, "pitch": 61, "velocity": 92}, {"start": 22.0660815, "end": 22.275275390624998, "pitch": 59, "velocity": 84}, {"start": 22.843456328124997, "end": 23.091389828125, "pitch": 61, "velocity": 93}, {"start": 23.086224546875, "end": 23.406471984375, "pitch": 59, "velocity": 78}, {"start": 24.049549499999998, "end": 24.132194, "pitch": 61, "velocity": 76}, {"start": 24.297483, "end": 24.519590093749997, "pitch": 61, "velocity": 88}, {"start": 24.545416499999998, "end": 24.666800609375, "pitch": 63, "velocity": 92}, {"start": 24.79335, "end": 25.092936312499997, "pitch": 64, "velocity": 96}, {"start": 25.0412835, "end": 25.198824578125, "pitch": 66, "velocity": 100}, {"start": 25.289216999999997, "end": 25.524237296875, "pitch": 68, "velocity": 100}, {"start": 25.5371505, "end": 25.686943656249998, "pitch": 64, "velocity": 100}, {"start": 25.785083999999998, "end": 26.053678625, "pitch": 61, "velocity": 96}, {"start": 26.0330175, "end": 26.242211390625, "pitch": 59, "velocity": 96}, {"start": 28.016485499999998, "end": 28.21793146875, "pitch": 71, "velocity": 104}, {"start": 28.264419, "end": 28.491691375, "pitch": 71, "velocity": 114}, {"start": 28.5123525, "end": 28.667310937499998, "pitch": 68, "velocity": 93}, {"start": 28.760285999999997, "end": 29.015967421874997, "pitch": 69, "velocity": 106}, {"start": 29.0082195, "end": 29.114107765624997, "pitch": 68, "velocity": 97}, {"start": 29.256152999999998, "end": 29.586730999999997, "pitch": 64, "velocity": 88}, {"start": 29.752019999999998, "end": 29.857908265625, "pitch": 71, "velocity": 104}, {"start": 29.9999535, "end": 30.265965484375, "pitch": 71, "velocity": 102}, {"start": 30.247887, "end": 30.38734959375, "pitch": 68, "velocity": 104}, {"start": 30.495820499999997, "end": 30.75924984375, "pitch": 69, "velocity": 110}, {"start": 30.743754, "end": 30.888381874999997, "pitch": 68, "velocity": 89}, {"start": 30.991687499999998, "end": 31.495302421875, "pitch": 64, "velocity": 102}, {"start": 32.001499984375, "end": 32.068648640625, "pitch": 61, "velocity": 113}, {"start": 32.252016125, "end": 32.538689234375, "pitch": 61, "velocity": 99}, {"start": 32.492201703125, "end": 32.623916375, "pitch": 63, "velocity": 68}, {"start": 32.747883125, "end": 33.0578, "pitch": 64, "velocity": 85}, {"start": 32.998399265625, "end": 33.09912225, "pitch": 66, "velocity": 104}, {"start": 33.24891540625, "end": 33.4813530625, "pitch": 68, "velocity": 110}, {"start": 33.49684890625, "end": 33.63114621875, "pitch": 64, "velocity": 81}, {"start": 33.721538640625, "end": 34.00304646875, "pitch": 61, "velocity": 91}, {"start": 33.987550625, "end": 34.310380703125, "pitch": 59, "velocity": 92}, {"start": 34.71069, "end": 34.971536703125, "pitch": 61, "velocity": 97}, {"start": 34.966371421874996, "end": 35.30469734375, "pitch": 59, "velocity": 95}, {"start": 36.21378684375, "end": 36.479798828125, "pitch": 69, "velocity": 110}, {"start": 37.2003555625, "end": 37.481863390625, "pitch": 68, "velocity": 110}, {"start": 38.202420124999996, "end": 38.40386609375, "pitch": 66, "velocity": 119}, {"start": 38.700869765625, "end": 39.005621359375, "pitch": 64, "velocity": 106}, {"start": 38.9358900625, "end": 39.124422828125, "pitch": 66, "velocity": 113}, {"start": 39.196736765625, "end": 39.302625031249995, "pitch": 68, "velocity": 113}, {"start": 39.465331390624996, "end": 39.68485584375, "pitch": 69, "velocity": 127}, {"start": 39.677107921875, "end": 39.987024796875, "pitch": 68, "velocity": 91}, {"start": 44.134745640625, "end": 44.434331953124996, "pitch": 71, "velocity": 112}, {"start": 45.131644921875, "end": 45.400239546875, "pitch": 69, "velocity": 114}, {"start": 45.640425125, "end": 45.97616840625, "pitch": 68, "velocity": 101}, {"start": 46.133709484375, "end": 46.218936625, "pitch": 68, "velocity": 104}, {"start": 46.368729781249996, "end": 46.505609734375, "pitch": 68, "velocity": 104}, {"start": 46.639907046874995, "end": 46.877509984374996, "pitch": 64, "velocity": 102}, {"start": 46.882675265625, "end": 47.045381625, "pitch": 66, "velocity": 107}, {"start": 47.107364999999994, "end": 47.228749109374995, "pitch": 64, "velocity": 97}, {"start": 47.394038109374996, "end": 47.636806328125, "pitch": 69, "velocity": 114}, {"start": 47.616145203125, "end": 47.913148875, "pitch": 68, "velocity": 82}, {"start": 51.092379484374995, "end": 51.391965796875, "pitch": 66, "velocity": 113}, {"start": 51.593411765625, "end": 51.838762624999994, "pitch": 64, "velocity": 120}, {"start": 51.810353578124996, "end": 51.98855578125, "pitch": 61, "velocity": 100}, {"start": 53.8015695, "end": 53.860970234374996, "pitch": 63, "velocity": 110}, {"start": 54.049502999999994, "end": 54.11665165625, "pitch": 63, "velocity": 112}, {"start": 54.297436499999996, "end": 54.369750437499995, "pitch": 63, "velocity": 112}, {"start": 54.54537, "end": 54.875947999999994, "pitch": 68, "velocity": 110}, {"start": 55.041236999999995, "end": 55.351153874999994, "pitch": 66, "velocity": 127}, {"start": 55.537104, "end": 55.81086390625, "pitch": 64, "velocity": 108}, {"start": 55.785037499999994, "end": 56.004561953125, "pitch": 61, "velocity": 110}, {"start": 56.27573921875, "end": 56.55466440625, "pitch": 64, "velocity": 73}, {"start": 56.536585921874995, "end": 56.616647781249995, "pitch": 68, "velocity": 82}, {"start": 56.805180546875, "end": 56.926564656249994, "pitch": 68, "velocity": 93}, {"start": 57.06086196875, "end": 57.3449524375, "pitch": 64, "velocity": 90}, {"start": 57.768505499999996, "end": 57.92862921875, "pitch": 71, "velocity": 96}, {"start": 58.016439, "end": 58.150736312499994, "pitch": 71, "velocity": 104}, {"start": 58.2643725, "end": 58.3780086875, "pitch": 69, "velocity": 104}, {"start": 58.512305999999995, "end": 58.804144390625, "pitch": 68, "velocity": 96}, {"start": 58.7602395, "end": 58.938441703124994, "pitch": 64, "velocity": 92}, {"start": 59.008173, "end": 59.276767625, "pitch": 66, "velocity": 112}, {"start": 59.504039999999996, "end": 59.896601374999996, "pitch": 64, "velocity": 104}, {"start": 61.7354415, "end": 62.086680625, "pitch": 63, "velocity": 114}, {"start": 62.2313085, "end": 62.59804346875, "pitch": 63, "velocity": 98}, {"start": 62.727175499999994, "end": 63.137815359375, "pitch": 63, "velocity": 108}, {"start": 63.47097599999999, "end": 63.724074781249996, "pitch": 64, "velocity": 102}, {"start": 63.718909499999995, "end": 63.902276984375, "pitch": 61, "velocity": 89}, {"start": 64.475623203125, "end": 64.733887265625, "pitch": 64, "velocity": 98}, {"start": 64.739052546875, "end": 64.935333234375, "pitch": 61, "velocity": 84}, {"start": 65.45960928125, "end": 65.725621265625, "pitch": 64, "velocity": 98}, {"start": 65.69721221875, "end": 65.8779970625, "pitch": 61, "velocity": 82}, {"start": 65.99679853125, "end": 66.371281421875, "pitch": 66, "velocity": 123}, {"start": 66.48750025, "end": 66.63729340625, "pitch": 66, "velocity": 113}, {"start": 66.74318167187499, "end": 66.841322015625, "pitch": 66, "velocity": 113}, {"start": 66.996280453125, "end": 67.187395859375, "pitch": 66, "velocity": 119}, {"start": 67.458573125, "end": 67.7374983125, "pitch": 64, "velocity": 102}, {"start": 67.70134134375, "end": 67.79431640624999, "pitch": 61, "velocity": 104}, {"start": 67.96477068749999, "end": 68.20237362499999, "pitch": 64, "velocity": 80}, {"start": 68.19204306249999, "end": 68.334088296875, "pitch": 61, "velocity": 65}, {"start": 68.50712521874999, "end": 68.731814953125, "pitch": 64, "velocity": 48}, {"start": 68.7292323125, "end": 68.8531990625, "pitch": 61, "velocity": 44}, {"start": 69.6693135, "end": 69.744210078125, "pitch": 61, "velocity": 80}, {"start": 69.917247, "end": 70.13160617187499, "pitch": 61, "velocity": 80}, {"start": 70.16518049999999, "end": 70.327886859375, "pitch": 63, "velocity": 84}, {"start": 70.413114, "end": 70.66621278125, "pitch": 64, "velocity": 88}, {"start": 70.6610475, "end": 70.86765874999999, "pitch": 66, "velocity": 92}, {"start": 70.908981, "end": 71.1672450625, "pitch": 68, "velocity": 96}, {"start": 71.1569145, "end": 71.31703821875, "pitch": 64, "velocity": 92}, {"start": 71.404848, "end": 71.70185167187499, "pitch": 61, "velocity": 92}, {"start": 71.6527815, "end": 71.86197539062499, "pitch": 59, "velocity": 84}, {"start": 72.430156328125, "end": 72.678089828125, "pitch": 61, "velocity": 93}, {"start": 72.672924546875, "end": 72.993171984375, "pitch": 59, "velocity": 78}, {"start": 73.63624949999999, "end": 73.71889399999999, "pitch": 61, "velocity": 76}, {"start": 73.884183, "end": 74.10629009374999, "pitch": 61, "velocity": 88}, {"start": 74.1321165, "end": 74.253500609375, "pitch": 63, "velocity": 92}, {"start": 74.38005, "end": 74.6796363125, "pitch": 64, "velocity": 96}, {"start": 74.6279835, "end": 74.78552457812499, "pitch": 66, "velocity": 100}, {"start": 74.875917, "end": 75.110937296875, "pitch": 68, "velocity": 100}, {"start": 75.1238505, "end": 75.27364365625, "pitch": 64, "velocity": 100}, {"start": 75.37178399999999, "end": 75.640378625, "pitch": 61, "velocity": 96}, {"start": 75.6197175, "end": 75.828911390625, "pitch": 59, "velocity": 96}, {"start": 77.6031855, "end": 77.80463146875, "pitch": 71, "velocity": 104}, {"start": 77.851119, "end": 78.078391375, "pitch": 71, "velocity": 114}, {"start": 78.0990525, "end": 78.2540109375, "pitch": 68, "velocity": 93}, {"start": 78.346986, "end": 78.602667421875, "pitch": 69, "velocity": 106}, {"start": 78.59491949999999, "end": 78.700807765625, "pitch": 68, "velocity": 97}, {"start": 78.84285299999999, "end": 79.173431, "pitch": 64, "velocity": 88}, {"start": 79.33872, "end": 79.44460826562499, "pitch": 71, "velocity": 104}, {"start": 79.5866535, "end": 79.852665484375, "pitch": 71, "velocity": 102}, {"start": 79.834587, "end": 79.97404959375, "pitch": 68, "velocity": 104}, {"start": 80.0825205, "end": 80.34594984374999, "pitch": 69, "velocity": 110}, {"start": 80.33045399999999, "end": 80.475081875, "pitch": 68, "velocity": 89}, {"start": 80.57838749999999, "end": 81.08200242187499, "pitch": 64, "velocity": 102}, {"start": 81.588199984375, "end": 81.655348640625, "pitch": 61, "velocity": 113}, {"start": 81.83871612499999, "end": 82.12538923437499, "pitch": 61, "velocity": 99}, {"start": 82.078901703125, "end": 82.210616375, "pitch": 63, "velocity": 68}, {"start": 82.334583125, "end": 82.6445, "pitch": 64, "velocity": 85}, {"start": 82.58509926562499, "end": 82.68582225, "pitch": 66, "velocity": 104}, {"start": 82.83561540625, "end": 83.0680530625, "pitch": 68, "velocity": 110}, {"start": 83.08354890625, "end": 83.21784621875, "pitch": 64, "velocity": 81}, {"start": 83.30823864062499, "end": 83.58974646875, "pitch": 61, "velocity": 91}, {"start": 83.57425062499999, "end": 83.897080703125, "pitch": 59, "velocity": 92}, {"start": 84.29739, "end": 84.55823670312499, "pitch": 61, "velocity": 97}, {"start": 84.55307142187499, "end": 84.89139734375, "pitch": 59, "velocity": 95}, {"start": 85.80048684375, "end": 86.06649882812499, "pitch": 69, "velocity": 110}, {"start": 86.7870555625, "end": 87.068563390625, "pitch": 68, "velocity": 110}, {"start": 87.789120125, "end": 87.99056609374999, "pitch": 66, "velocity": 119}, {"start": 88.287569765625, "end": 88.59232135937499, "pitch": 64, "velocity": 106}, {"start": 88.5225900625, "end": 88.711122828125, "pitch": 66, "velocity": 113}, {"start": 88.783436765625, "end": 88.88932503125, "pitch": 68, "velocity": 113}, {"start": 89.05203139062499, "end": 89.27155584375, "pitch": 69, "velocity": 127}, {"start": 89.263807921875, "end": 89.573724796875, "pitch": 68, "velocity": 91}, {"start": 93.72144564062499, "end": 94.02103195312499, "pitch": 71, "velocity": 112}, {"start": 94.718344921875, "end": 94.98693954687499, "pitch": 69, "velocity": 114}, {"start": 95.227125125, "end": 95.56286840624999, "pitch": 68, "velocity": 101}, {"start": 95.720409484375, "end": 95.80563662499999, "pitch": 68, "velocity": 104}, {"start": 95.95542978124999, "end": 96.092309734375, "pitch": 68, "velocity": 104}, {"start": 96.22660704687499, "end": 96.46420998437499, "pitch": 64, "velocity": 102}, {"start": 96.46937526562499, "end": 96.632081625, "pitch": 66, "velocity": 107}, {"start": 96.694065, "end": 96.815449109375, "pitch": 64, "velocity": 97}, {"start": 96.980738109375, "end": 97.223506328125, "pitch": 69, "velocity": 114}, {"start": 97.202845203125, "end": 97.499848875, "pitch": 68, "velocity": 82}, {"start": 100.679079484375, "end": 100.97866579687499, "pitch": 66, "velocity": 113}, {"start": 101.180111765625, "end": 101.425462625, "pitch": 64, "velocity": 120}, {"start": 101.397053578125, "end": 101.57525578125, "pitch": 61, "velocity": 100}, {"start": 103.38826949999999, "end": 103.447670234375, "pitch": 63, "velocity": 110}, {"start": 103.636203, "end": 103.70335165624999, "pitch": 63, "velocity": 112}, {"start": 103.8841365, "end": 103.9564504375, "pitch": 63, "velocity": 112}, {"start": 104.13207, "end": 104.462648, "pitch": 68, "velocity": 110}, {"start": 104.62793699999999, "end": 104.93785387499999, "pitch": 66, "velocity": 127}, {"start": 105.12380399999999, "end": 105.39756390625, "pitch": 64, "velocity": 108}, {"start": 105.3717375, "end": 105.591261953125, "pitch": 61, "velocity": 110}, {"start": 105.86243921875, "end": 106.14136440624999, "pitch": 64, "velocity": 73}, {"start": 106.123285921875, "end": 106.20334778124999, "pitch": 68, "velocity": 82}, {"start": 106.391880546875, "end": 106.51326465625, "pitch": 68, "velocity": 93}, {"start": 106.64756196875, "end": 106.93165243749999, "pitch": 64, "velocity": 90}, {"start": 107.3552055, "end": 107.51532921875, "pitch": 71, "velocity": 96}, {"start": 107.603139, "end": 107.7374363125, "pitch": 71, "velocity": 104}, {"start": 107.8510725, "end": 107.96470868749999, "pitch": 69, "velocity": 104}, {"start": 108.09900599999999, "end": 108.39084439062499, "pitch": 68, "velocity": 96}, {"start": 108.34693949999999, "end": 108.525141703125, "pitch": 64, "velocity": 92}, {"start": 108.59487299999999, "end": 108.863467625, "pitch": 66, "velocity": 112}, {"start": 109.09074, "end": 109.483301375, "pitch": 64, "velocity": 104}, {"start": 111.3221415, "end": 111.673380625, "pitch": 63, "velocity": 114}, {"start": 111.81800849999999, "end": 112.18474346875, "pitch": 63, "velocity": 98}, {"start": 112.3138755, "end": 112.72451535937499, "pitch": 63, "velocity": 108}, {"start": 113.057676, "end": 113.31077478124999, "pitch": 64, "velocity": 102}, {"start": 113.30560949999999, "end": 113.488976984375, "pitch": 61, "velocity": 89}, {"start": 114.06232320312499, "end": 114.320587265625, "pitch": 64, "velocity": 98}, {"start": 114.325752546875, "end": 114.52203323437499, "pitch": 61, "velocity": 84}, {"start": 115.04630928124999, "end": 115.31232126562499, "pitch": 64, "velocity": 98}, {"start": 115.28391221874999, "end": 115.4646970625, "pitch": 61, "velocity": 82}, {"start": 115.58349853125, "end": 115.95798142187499, "pitch": 66, "velocity": 123}, {"start": 116.07420024999999, "end": 116.22399340624999, "pitch": 66, "velocity": 113}, {"start": 116.329881671875, "end": 116.42802201562499, "pitch": 66, "velocity": 113}, {"start": 116.58298045312499, "end": 116.774095859375, "pitch": 66, "velocity": 119}, {"start": 117.7684125, "end": 117.83556115625, "pitch": 64, "velocity": 110}, {"start": 117.871718125, "end": 117.9337015, "pitch": 64, "velocity": 104}, {"start": 118.016346, "end": 118.0886599375, "pitch": 64, "velocity": 127}, {"start": 118.2642795, "end": 118.32884551562499, "pitch": 64, "velocity": 120}, {"start": 118.51221299999999, "end": 118.57936165625, "pitch": 64, "velocity": 120}, {"start": 118.64909295312499, "end": 118.71882425, "pitch": 64, "velocity": 102}, {"start": 118.76014649999999, "end": 118.824712515625, "pitch": 64, "velocity": 120}, {"start": 119.00807999999999, "end": 119.067480734375, "pitch": 63, "velocity": 127}, {"start": 119.2560135, "end": 119.325744796875, "pitch": 63, "velocity": 127}, {"start": 119.40064137499999, "end": 119.465207390625, "pitch": 63, "velocity": 123}, {"start": 119.503947, "end": 119.563347734375, "pitch": 63, "velocity": 127}, {"start": 119.7518805, "end": 119.81644651562499, "pitch": 63, "velocity": 127}, {"start": 119.999814, "end": 120.05921473437499, "pitch": 63, "velocity": 127}, {"start": 120.24774749999999, "end": 120.317478796875, "pitch": 63, "velocity": 127}, {"start": 120.49568099999999, "end": 120.92439934375, "pitch": 64, "velocity": 110}, {"start": 121.7353485, "end": 121.78958395312499, "pitch": 68, "velocity": 127}, {"start": 121.85931525, "end": 121.93937710937499, "pitch": 68, "velocity": 107}, {"start": 121.98328199999999, "end": 122.03751745312499, "pitch": 68, "velocity": 127}, {"start": 122.23121549999999, "end": 122.285450953125, "pitch": 68, "velocity": 127}, {"start": 122.47914899999999, "end": 122.543715015625, "pitch": 68, "velocity": 127}, {"start": 122.7270825, "end": 122.925945828125, "pitch": 68, "velocity": 127}, {"start": 122.975016, "end": 123.05249521875, "pitch": 66, "velocity": 127}, {"start": 123.09898274999999, "end": 123.14805292187499, "pitch": 66, "velocity": 127}, {"start": 123.2229495, "end": 123.29784607812499, "pitch": 66, "velocity": 123}, {"start": 123.470883, "end": 123.52511845312499, "pitch": 66, "velocity": 127}, {"start": 123.71881649999999, "end": 123.77563459375, "pitch": 66, "velocity": 127}, {"start": 123.96674999999999, "end": 124.191439734375, "pitch": 66, "velocity": 127}, {"start": 124.21468349999999, "end": 124.31540648437499, "pitch": 64, "velocity": 127}, {"start": 124.462617, "end": 124.79061235937499, "pitch": 64, "velocity": 122}, {"start": 125.70228449999999, "end": 125.75910259374999, "pitch": 64, "velocity": 112}, {"start": 125.82625125, "end": 125.90631310937499, "pitch": 64, "velocity": 97}, {"start": 125.95021799999999, "end": 126.009618734375, "pitch": 68, "velocity": 116}, {"start": 126.1981515, "end": 126.25496959374999, "pitch": 64, "velocity": 117}, {"start": 126.446085, "end": 126.49773781249999, "pitch": 64, "velocity": 108}, {"start": 126.57005174999999, "end": 126.65269624999999, "pitch": 64, "velocity": 114}, {"start": 126.6940185, "end": 126.76374979687499, "pitch": 64, "velocity": 122}, {"start": 126.94195199999999, "end": 127.01684857812499, "pitch": 63, "velocity": 123}, {"start": 127.18988549999999, "end": 127.24928623437499, "pitch": 63, "velocity": 127}, {"start": 127.31385225, "end": 127.38100090625, "pitch": 63, "velocity": 127}, {"start": 127.43781899999999, "end": 127.48688917187499, "pitch": 63, "velocity": 127}, {"start": 127.68575249999999, "end": 127.7787275625, "pitch": 64, "velocity": 120}, {"start": 127.933686, "end": 128.096392359375, "pitch": 66, "velocity": 127}, {"start": 128.18161949999998, "end": 128.2952556875, "pitch": 64, "velocity": 120}, {"start": 128.429553, "end": 128.845358140625, "pitch": 64, "velocity": 127}, {"start": 129.65630729687499, "end": 129.7208733125, "pitch": 68, "velocity": 127}, {"start": 129.754447640625, "end": 129.831926859375, "pitch": 68, "velocity": 95}, {"start": 129.8861623125, "end": 129.95589360937498, "pitch": 68, "velocity": 116}, {"start": 130.017876984375, "end": 130.10052148437498, "pitch": 68, "velocity": 91}, {"start": 130.147009015625, "end": 130.20899239062499, "pitch": 68, "velocity": 119}, {"start": 130.413021, "end": 130.482752296875, "pitch": 68, "velocity": 127}, {"start": 130.529239828125, "end": 130.598971125, "pitch": 68, "velocity": 101}, {"start": 130.66353714062498, "end": 130.76167748437499, "pitch": 68, "velocity": 127}, {"start": 130.921801203125, "end": 130.9915325, "pitch": 66, "velocity": 127}, {"start": 131.17748262499998, "end": 131.247213921875, "pitch": 66, "velocity": 127}, {"start": 131.43058140624998, "end": 131.644940578125, "pitch": 66, "velocity": 127}, {"start": 131.673349625, "end": 131.81281221875, "pitch": 64, "velocity": 108}, {"start": 131.91611784375, "end": 131.996179703125, "pitch": 66, "velocity": 127}, {"start": 132.18471246875, "end": 132.30867921875, "pitch": 64, "velocity": 106}, {"start": 132.43781124999998, "end": 132.7373975625, "pitch": 68, "velocity": 127}, {"start": 132.89752128125, "end": 133.15578534374998, "pitch": 66, "velocity": 127}, {"start": 133.1299589375, "end": 133.401136203125, "pitch": 64, "velocity": 117}, {"start": 137.6030925, "end": 137.69090228125, "pitch": 68, "velocity": 107}, {"start": 137.851026, "end": 137.95433162499998, "pitch": 68, "velocity": 116}, {"start": 138.0989595, "end": 138.318483953125, "pitch": 68, "velocity": 127}, {"start": 138.346893, "end": 138.607739703125, "pitch": 66, "velocity": 113}, {"start": 138.59482649999998, "end": 138.71879325, "pitch": 68, "velocity": 99}, {"start": 138.84276, "end": 138.9770573125, "pitch": 69, "velocity": 125}, {"start": 139.0906935, "end": 139.24048665625, "pitch": 68, "velocity": 99}, {"start": 139.338627, "end": 139.67437028125, "pitch": 68, "velocity": 123}, {"start": 139.834494, "end": 140.21155953125, "pitch": 68, "velocity": 127}, {"start": 140.33036099999998, "end": 140.59379034375, "pitch": 66, "velocity": 123}, {"start": 140.5782945, "end": 140.684182765625, "pitch": 68, "velocity": 104}, {"start": 140.826228, "end": 141.056083015625, "pitch": 66, "velocity": 123}, {"start": 141.0741615, "end": 141.48480135937498, "pitch": 64, "velocity": 120}, {"start": 145.53696449999998, "end": 145.684175015625, "pitch": 64, "velocity": 110}, {"start": 145.66093125, "end": 145.787480640625, "pitch": 66, "velocity": 119}, {"start": 145.784898, "end": 145.97343076562498, "pitch": 68, "velocity": 93}, {"start": 146.0328315, "end": 146.164546171875, "pitch": 64, "velocity": 102}, {"start": 146.280765, "end": 146.384070625, "pitch": 64, "velocity": 120}, {"start": 146.5286985, "end": 146.6939875, "pitch": 64, "velocity": 106}, {"start": 146.65266524999998, "end": 146.78696256249998, "pitch": 66, "velocity": 123}, {"start": 146.776632, "end": 146.921259875, "pitch": 68, "velocity": 97}, {"start": 147.0245655, "end": 147.14594960937498, "pitch": 64, "velocity": 112}, {"start": 147.27249899999998, "end": 147.579833234375, "pitch": 64, "velocity": 110}, {"start": 147.5204325, "end": 147.59791171875, "pitch": 61, "velocity": 127}, {"start": 147.768366, "end": 148.101526640625, "pitch": 64, "velocity": 108}, {"start": 148.264233, "end": 148.59997628124998, "pitch": 66, "velocity": 127}, {"start": 148.783343765625, "end": 149.02869462499999, "pitch": 64, "velocity": 120}, {"start": 149.000285578125, "end": 149.17848778125, "pitch": 61, "velocity": 100}, {"start": 150.9915015, "end": 151.050902234375, "pitch": 63, "velocity": 110}, {"start": 151.239435, "end": 151.30658365624998, "pitch": 63, "velocity": 112}, {"start": 151.4873685, "end": 151.5596824375, "pitch": 63, "velocity": 112}, {"start": 151.735302, "end": 152.06588, "pitch": 68, "velocity": 110}, {"start": 152.231169, "end": 152.541085875, "pitch": 66, "velocity": 127}, {"start": 152.727036, "end": 153.00079590625, "pitch": 64, "velocity": 108}, {"start": 152.9749695, "end": 153.194493953125, "pitch": 61, "velocity": 110}, {"start": 153.46567121875, "end": 153.74459640625, "pitch": 64, "velocity": 73}, {"start": 153.726517921875, "end": 153.80657978124998, "pitch": 68, "velocity": 82}, {"start": 153.995112546875, "end": 154.11649665624998, "pitch": 68, "velocity": 93}, {"start": 154.25079396875, "end": 154.53488443749998, "pitch": 64, "velocity": 90}, {"start": 154.9584375, "end": 155.11856121875, "pitch": 71, "velocity": 96}, {"start": 155.206371, "end": 155.3406683125, "pitch": 71, "velocity": 104}, {"start": 155.45430449999998, "end": 155.5679406875, "pitch": 69, "velocity": 104}, {"start": 155.702238, "end": 155.994076390625, "pitch": 68, "velocity": 96}, {"start": 155.95017149999998, "end": 156.128373703125, "pitch": 64, "velocity": 92}, {"start": 156.198105, "end": 156.466699625, "pitch": 66, "velocity": 112}, {"start": 156.71721576562499, "end": 156.962566625, "pitch": 64, "velocity": 120}, {"start": 156.934157578125, "end": 157.11235978124998, "pitch": 61, "velocity": 100}, {"start": 158.92537349999998, "end": 158.98477423437498, "pitch": 63, "velocity": 110}, {"start": 159.173307, "end": 159.24045565625, "pitch": 63, "velocity": 112}, {"start": 159.42124049999998, "end": 159.4935544375, "pitch": 63, "velocity": 112}, {"start": 159.669174, "end": 159.999752, "pitch": 68, "velocity": 110}, {"start": 160.165041, "end": 160.474957875, "pitch": 66, "velocity": 127}, {"start": 160.66090799999998, "end": 160.93466790624998, "pitch": 64, "velocity": 108}, {"start": 160.9088415, "end": 161.12836595312498, "pitch": 61, "velocity": 110}, {"start": 161.39954321874998, "end": 161.67846840625, "pitch": 64, "velocity": 73}, {"start": 161.66038992187498, "end": 161.74045178125, "pitch": 68, "velocity": 82}, {"start": 161.928984546875, "end": 162.05036865625, "pitch": 68, "velocity": 93}, {"start": 162.18466596874998, "end": 162.4687564375, "pitch": 64, "velocity": 90}, {"start": 162.89230949999998, "end": 163.05243321875, "pitch": 71, "velocity": 96}, {"start": 163.140243, "end": 163.2745403125, "pitch": 71, "velocity": 104}, {"start": 163.3881765, "end": 163.50181268749998, "pitch": 69, "velocity": 104}, {"start": 163.63611, "end": 163.927948390625, "pitch": 68, "velocity": 96}, {"start": 163.8840435, "end": 164.062245703125, "pitch": 64, "velocity": 92}, {"start": 164.13197699999998, "end": 164.400571625, "pitch": 66, "velocity": 112}, {"start": 164.62784399999998, "end": 165.020405375, "pitch": 64, "velocity": 104}, {"start": 166.8592455, "end": 167.210484625, "pitch": 63, "velocity": 114}, {"start": 167.3551125, "end": 167.72184746874998, "pitch": 63, "velocity": 98}, {"start": 167.8509795, "end": 168.261619359375, "pitch": 63, "velocity": 108}, {"start": 168.59478, "end": 168.84787878125, "pitch": 64, "velocity": 102}, {"start": 168.8427135, "end": 169.026080984375, "pitch": 61, "velocity": 89}, {"start": 169.599427203125, "end": 169.857691265625, "pitch": 64, "velocity": 98}, {"start": 169.86285654687498, "end": 170.059137234375, "pitch": 61, "velocity": 84}, {"start": 170.58341328125, "end": 170.849425265625, "pitch": 64, "velocity": 98}, {"start": 170.82101621875, "end": 171.0018010625, "pitch": 61, "velocity": 82}, {"start": 171.12060253125, "end": 171.495085421875, "pitch": 66, "velocity": 123}, {"start": 171.61130425, "end": 171.76109740625, "pitch": 66, "velocity": 113}, {"start": 171.866985671875, "end": 171.965126015625, "pitch": 66, "velocity": 113}, {"start": 172.120084453125, "end": 172.311199859375, "pitch": 66, "velocity": 119}, {"start": 180.74352149999999, "end": 180.85199240625, "pitch": 68, "velocity": 76}, {"start": 180.991455, "end": 181.283293390625, "pitch": 68, "velocity": 80}, {"start": 181.2393885, "end": 181.56738385937498, "pitch": 66, "velocity": 80}, {"start": 181.7352555, "end": 182.00126748437498, "pitch": 66, "velocity": 84}, {"start": 181.98318899999998, "end": 182.114903671875, "pitch": 64, "velocity": 84}, {"start": 182.2311225, "end": 182.471308078125, "pitch": 64, "velocity": 84}, {"start": 182.47905599999999, "end": 182.58494426562498, "pitch": 61, "velocity": 88}, {"start": 182.7269895, "end": 182.915522265625, "pitch": 61, "velocity": 92}, {"start": 182.974923, "end": 183.07048070312499, "pitch": 66, "velocity": 92}, {"start": 183.22285649999998, "end": 183.48628584374998, "pitch": 66, "velocity": 88}, {"start": 183.47079, "end": 183.5844261875, "pitch": 64, "velocity": 84}, {"start": 183.71872349999998, "end": 183.90209098437498, "pitch": 64, "velocity": 80}, {"start": 183.966657, "end": 184.24299954687498, "pitch": 63, "velocity": 80}, {"start": 184.21459049999999, "end": 184.49351568749998, "pitch": 64, "velocity": 84}, {"start": 184.462524, "end": 184.607151875, "pitch": 61, "velocity": 84}, {"start": 184.7104575, "end": 184.91706875, "pitch": 61, "velocity": 88}, {"start": 184.95839099999998, "end": 185.064279265625, "pitch": 61, "velocity": 88}, {"start": 185.2063245, "end": 185.498162890625, "pitch": 61, "velocity": 92}, {"start": 185.45425799999998, "end": 185.57822475, "pitch": 64, "velocity": 92}, {"start": 185.7021915, "end": 185.97853404687498, "pitch": 64, "velocity": 88}, {"start": 185.95012499999999, "end": 186.08958759375, "pitch": 66, "velocity": 88}, {"start": 186.1980585, "end": 186.48214896874998, "pitch": 66, "velocity": 84}, {"start": 186.445992, "end": 186.572541390625, "pitch": 68, "velocity": 84}, {"start": 186.69392549999998, "end": 186.9728506875, "pitch": 68, "velocity": 80}, {"start": 186.941859, "end": 187.04258198437498, "pitch": 66, "velocity": 80}, {"start": 187.18979249999998, "end": 187.47388296875, "pitch": 66, "velocity": 80}, {"start": 187.437726, "end": 187.5513621875, "pitch": 64, "velocity": 80}, {"start": 187.68565949999999, "end": 187.82512209375, "pitch": 64, "velocity": 80}, {"start": 187.933593, "end": 188.24867515625, "pitch": 63, "velocity": 80}, {"start": 188.1815265, "end": 188.47078224999998, "pitch": 64, "velocity": 80}, {"start": 188.42945999999998, "end": 188.574087875, "pitch": 61, "velocity": 80}, {"start": 188.6773935, "end": 188.8426825, "pitch": 61, "velocity": 84}, {"start": 188.92532699999998, "end": 189.21716539062498, "pitch": 68, "velocity": 88}, {"start": 189.1732605, "end": 189.501255859375, "pitch": 66, "velocity": 88}, {"start": 189.6691275, "end": 189.935139484375, "pitch": 66, "velocity": 84}, {"start": 189.917061, "end": 190.04877567187498, "pitch": 64, "velocity": 84}, {"start": 190.16499449999998, "end": 190.405180078125, "pitch": 64, "velocity": 88}, {"start": 190.412928, "end": 190.518816265625, "pitch": 61, "velocity": 88}, {"start": 190.66086149999998, "end": 190.849394265625, "pitch": 61, "velocity": 84}, {"start": 190.908795, "end": 191.004352703125, "pitch": 66, "velocity": 84}, {"start": 191.15672849999999, "end": 191.42015784375, "pitch": 66, "velocity": 84}, {"start": 191.404662, "end": 191.5182981875, "pitch": 64, "velocity": 84}, {"start": 191.6525955, "end": 191.835962984375, "pitch": 64, "velocity": 84}, {"start": 191.90052899999998, "end": 192.176871546875, "pitch": 63, "velocity": 84}, {"start": 192.1484625, "end": 192.4273876875, "pitch": 64, "velocity": 88}, {"start": 192.39639599999998, "end": 192.54102387499998, "pitch": 61, "velocity": 88}, {"start": 192.6443295, "end": 192.85094074999998, "pitch": 61, "velocity": 92}, {"start": 192.89226299999999, "end": 192.99815126562498, "pitch": 61, "velocity": 92}, {"start": 193.1401965, "end": 193.43203489062498, "pitch": 61, "velocity": 92}, {"start": 193.38813, "end": 193.51209674999998, "pitch": 64, "velocity": 84}, {"start": 193.63606349999998, "end": 193.912406046875, "pitch": 64, "velocity": 84}, {"start": 193.883997, "end": 194.02345959374998, "pitch": 66, "velocity": 84}, {"start": 194.13193049999998, "end": 194.41602096875, "pitch": 66, "velocity": 88}, {"start": 194.379864, "end": 194.506413390625, "pitch": 68, "velocity": 92}, {"start": 194.62779749999999, "end": 194.90672268749998, "pitch": 68, "velocity": 92}, {"start": 194.875731, "end": 194.97645398437498, "pitch": 66, "velocity": 92}, {"start": 195.1236645, "end": 195.40775496875, "pitch": 66, "velocity": 96}, {"start": 195.37159799999998, "end": 195.4852341875, "pitch": 64, "velocity": 96}, {"start": 195.6195315, "end": 195.75899409374998, "pitch": 64, "velocity": 92}, {"start": 195.86746499999998, "end": 196.18254715625, "pitch": 63, "velocity": 84}, {"start": 196.1153985, "end": 196.40465425, "pitch": 64, "velocity": 80}, {"start": 196.36333199999999, "end": 196.65258774999998, "pitch": 68, "velocity": 95}, {"start": 196.6112655, "end": 197.18719435937498, "pitch": 61, "velocity": 93}, {"start": 197.850933, "end": 198.14018875, "pitch": 61, "velocity": 80}, {"start": 198.09886649999999, "end": 198.39845281249998, "pitch": 63, "velocity": 88}, {"start": 198.3468, "end": 198.46560146874998, "pitch": 64, "velocity": 96}, {"start": 198.5947335, "end": 198.88915453125, "pitch": 64, "velocity": 96}, {"start": 198.84266699999998, "end": 198.9769643125, "pitch": 63, "velocity": 96}, {"start": 199.0906005, "end": 199.361777765625, "pitch": 63, "velocity": 96}, {"start": 199.33853399999998, "end": 199.44442226562498, "pitch": 61, "velocity": 96}, {"start": 199.5864675, "end": 199.71559953124998, "pitch": 61, "velocity": 88}, {"start": 199.83440099999999, "end": 199.94803718749998, "pitch": 59, "velocity": 84}, {"start": 200.0823345, "end": 200.25278878125, "pitch": 59, "velocity": 80}, {"start": 200.330268, "end": 200.57303621875, "pitch": 56, "velocity": 80}, {"start": 200.57820149999998, "end": 201.31683671874998, "pitch": 61, "velocity": 80}, {"start": 203.801337, "end": 204.09059274999998, "pitch": 68, "velocity": 95}, {"start": 204.297204, "end": 204.58645975, "pitch": 68, "velocity": 95}, {"start": 204.54513749999998, "end": 205.121066359375, "pitch": 61, "velocity": 93}, {"start": 205.78480499999998, "end": 206.07406075, "pitch": 61, "velocity": 80}, {"start": 206.0327385, "end": 206.3323248125, "pitch": 63, "velocity": 88}, {"start": 206.28067199999998, "end": 206.39947346875, "pitch": 64, "velocity": 96}, {"start": 206.5286055, "end": 206.82302653124998, "pitch": 64, "velocity": 96}, {"start": 206.77653899999999, "end": 206.91083631249998, "pitch": 63, "velocity": 96}, {"start": 207.0244725, "end": 207.295649765625, "pitch": 63, "velocity": 96}, {"start": 207.272406, "end": 207.378294265625, "pitch": 61, "velocity": 96}, {"start": 207.52033949999998, "end": 207.64947153125, "pitch": 61, "velocity": 88}, {"start": 207.768273, "end": 207.88190918749999, "pitch": 59, "velocity": 84}, {"start": 208.01620649999998, "end": 208.18666078125, "pitch": 59, "velocity": 80}, {"start": 208.26414, "end": 208.50690821875, "pitch": 56, "velocity": 80}, {"start": 208.51207349999999, "end": 209.25070871875, "pitch": 61, "velocity": 80}, {"start": 209.75174099999998, "end": 209.88087303125, "pitch": 56, "velocity": 97}, {"start": 209.9996745, "end": 210.09006692187498, "pitch": 56, "velocity": 99}, {"start": 210.24760799999999, "end": 210.39223587499998, "pitch": 56, "velocity": 93}, {"start": 210.4955415, "end": 210.988825859375, "pitch": 61, "velocity": 119}, {"start": 212.25431976562498, "end": 212.499670625, "pitch": 64, "velocity": 120}, {"start": 212.471261578125, "end": 212.64946378124998, "pitch": 61, "velocity": 100}, {"start": 214.46247749999998, "end": 214.52187823437498, "pitch": 63, "velocity": 110}, {"start": 214.710411, "end": 214.77755965625, "pitch": 63, "velocity": 112}, {"start": 214.95834449999998, "end": 215.0306584375, "pitch": 63, "velocity": 112}, {"start": 215.206278, "end": 215.536856, "pitch": 68, "velocity": 110}, {"start": 215.702145, "end": 216.012061875, "pitch": 66, "velocity": 127}, {"start": 216.19801199999998, "end": 216.47177190624998, "pitch": 64, "velocity": 108}, {"start": 216.4459455, "end": 216.66546995312498, "pitch": 61, "velocity": 110}, {"start": 216.93664721874998, "end": 217.21557240624998, "pitch": 64, "velocity": 73}, {"start": 217.19749392187498, "end": 217.27755578125, "pitch": 68, "velocity": 82}, {"start": 217.466088546875, "end": 217.58747265625, "pitch": 68, "velocity": 93}, {"start": 217.72176996874998, "end": 218.0058604375, "pitch": 64, "velocity": 90}, {"start": 218.42941349999998, "end": 218.58953721875, "pitch": 71, "velocity": 96}, {"start": 218.677347, "end": 218.8116443125, "pitch": 71, "velocity": 104}, {"start": 218.92528049999999, "end": 219.03891668749998, "pitch": 69, "velocity": 104}, {"start": 219.173214, "end": 219.46505239062498, "pitch": 68, "velocity": 96}, {"start": 219.4211475, "end": 219.599349703125, "pitch": 64, "velocity": 92}, {"start": 219.66908099999998, "end": 219.937675625, "pitch": 66, "velocity": 112}, {"start": 220.188191765625, "end": 220.433542625, "pitch": 64, "velocity": 120}, {"start": 220.40513357812497, "end": 220.58333578124999, "pitch": 61, "velocity": 100}, {"start": 222.39634949999999, "end": 222.455750234375, "pitch": 63, "velocity": 110}, {"start": 222.644283, "end": 222.71143165625, "pitch": 63, "velocity": 112}, {"start": 222.8922165, "end": 222.9645304375, "pitch": 63, "velocity": 112}, {"start": 223.14014999999998, "end": 223.47072799999998, "pitch": 68, "velocity": 110}, {"start": 223.63601699999998, "end": 223.94593387499998, "pitch": 66, "velocity": 127}, {"start": 224.13188399999999, "end": 224.40564390625, "pitch": 64, "velocity": 108}, {"start": 224.3798175, "end": 224.599341953125, "pitch": 61, "velocity": 110}, {"start": 224.87051921875, "end": 225.14944440624998, "pitch": 64, "velocity": 73}, {"start": 225.131365921875, "end": 225.21142778125, "pitch": 68, "velocity": 82}, {"start": 225.39996054687498, "end": 225.52134465625, "pitch": 68, "velocity": 93}, {"start": 225.65564196875, "end": 225.9397324375, "pitch": 64, "velocity": 90}, {"start": 226.3632855, "end": 226.52340921874998, "pitch": 71, "velocity": 96}, {"start": 226.61121899999998, "end": 226.7455163125, "pitch": 71, "velocity": 104}, {"start": 226.8591525, "end": 226.97278868749999, "pitch": 69, "velocity": 104}, {"start": 227.10708599999998, "end": 227.39892439062498, "pitch": 68, "velocity": 96}, {"start": 227.3550195, "end": 227.53322170312498, "pitch": 64, "velocity": 92}, {"start": 227.60295299999999, "end": 227.87154762499998, "pitch": 66, "velocity": 112}, {"start": 228.09882, "end": 228.49138137499997, "pitch": 64, "velocity": 104}, {"start": 230.3302215, "end": 230.681460625, "pitch": 63, "velocity": 114}, {"start": 230.8260885, "end": 231.19282346875, "pitch": 63, "velocity": 98}, {"start": 231.3219555, "end": 231.73259535937498, "pitch": 63, "velocity": 108}, {"start": 232.065756, "end": 232.31885478125, "pitch": 64, "velocity": 102}, {"start": 232.31368949999998, "end": 232.49705698437498, "pitch": 61, "velocity": 89}, {"start": 233.07040320312498, "end": 233.328667265625, "pitch": 64, "velocity": 98}, {"start": 233.333832546875, "end": 233.530113234375, "pitch": 61, "velocity": 84}, {"start": 234.05438928125, "end": 234.32040126562498, "pitch": 64, "velocity": 98}, {"start": 234.29199221874998, "end": 234.4727770625, "pitch": 61, "velocity": 82}, {"start": 234.59157853124998, "end": 234.966061421875, "pitch": 66, "velocity": 123}, {"start": 235.08228025, "end": 235.23207340624998, "pitch": 66, "velocity": 113}, {"start": 235.33796167187498, "end": 235.43610201562498, "pitch": 66, "velocity": 113}, {"start": 235.59106045312498, "end": 235.782175859375, "pitch": 66, "velocity": 119}, {"start": 236.053353125, "end": 236.3322783125, "pitch": 64, "velocity": 102}, {"start": 236.29612134374997, "end": 236.38909640625, "pitch": 61, "velocity": 104}, {"start": 236.55955068749998, "end": 236.797153625, "pitch": 64, "velocity": 80}, {"start": 236.7868230625, "end": 236.92886829687498, "pitch": 61, "velocity": 65}, {"start": 237.10190521874998, "end": 237.32659495312498, "pitch": 64, "velocity": 48}, {"start": 237.32401231249997, "end": 237.4479790625, "pitch": 61, "velocity": 44}, {"start": 237.59777221874998, "end": 237.82246195312499, "pitch": 64, "velocity": 32}, {"start": 237.81987931249998, "end": 237.9438460625, "pitch": 61, "velocity": 12}]'),
(5860, '[{"start": 14.634139999999999, "end": 14.810969191666665, "pitch": 62, "velocity": 101}, {"start": 14.823164308333332, "end": 14.999993499999999, "pitch": 64, "velocity": 95}, {"start": 14.999993499999999, "end": 15.176822691666665, "pitch": 64, "velocity": 101}, {"start": 15.18901780833333, "end": 15.365846999999999, "pitch": 62, "velocity": 93}, {"start": 15.37194455833333, "end": 15.548773749999999, "pitch": 64, "velocity": 109}, {"start": 15.73779805833333, "end": 15.914627249999999, "pitch": 64, "velocity": 107}, {"start": 15.92072480833333, "end": 16.097554, "pitch": 62, "velocity": 99}, {"start": 16.103651558333333, "end": 16.42682215, "pitch": 64, "velocity": 101}, {"start": 16.469505058333333, "end": 16.64633425, "pitch": 64, "velocity": 107}, {"start": 16.835358558333333, "end": 17.01218775, "pitch": 62, "velocity": 103}, {"start": 17.006090191666665, "end": 17.18291938333333, "pitch": 64, "velocity": 101}, {"start": 17.189016941666665, "end": 17.36584613333333, "pitch": 64, "velocity": 103}, {"start": 17.371943691666665, "end": 17.54877288333333, "pitch": 62, "velocity": 93}, {"start": 17.554870441666665, "end": 17.847553241666663, "pitch": 64, "velocity": 101}, {"start": 17.9268215, "end": 18.103650691666665, "pitch": 64, "velocity": 95}, {"start": 18.10974825, "end": 18.286577441666665, "pitch": 62, "velocity": 93}, {"start": 18.29877255833333, "end": 18.47560175, "pitch": 64, "velocity": 103}, {"start": 18.48169930833333, "end": 18.6585285, "pitch": 62, "velocity": 97}, {"start": 18.670723616666663, "end": 18.84755280833333, "pitch": 64, "velocity": 105}, {"start": 19.03047955833333, "end": 19.3902355, "pitch": 69, "velocity": 103}, {"start": 19.3902355, "end": 19.567064691666666, "pitch": 67, "velocity": 99}, {"start": 19.76218655833333, "end": 19.93901575, "pitch": 67, "velocity": 103}, {"start": 19.94511330833333, "end": 20.121942499999996, "pitch": 62, "velocity": 64}, {"start": 20.12804005833333, "end": 20.304869249999996, "pitch": 64, "velocity": 101}, {"start": 20.49389355833333, "end": 20.670722749999996, "pitch": 64, "velocity": 115}, {"start": 20.67682030833333, "end": 20.853649499999996, "pitch": 64, "velocity": 97}, {"start": 21.036576249999996, "end": 21.213405441666666, "pitch": 62, "velocity": 86}, {"start": 21.213405441666666, "end": 21.573161383333332, "pitch": 64, "velocity": 111}, {"start": 21.762185691666666, "end": 21.939014883333332, "pitch": 59, "velocity": 52}, {"start": 21.951209999999996, "end": 22.128039191666662, "pitch": 64, "velocity": 103}, {"start": 22.32316105833333, "end": 22.499990249999996, "pitch": 64, "velocity": 105}, {"start": 22.68901455833333, "end": 23.048770499999996, "pitch": 64, "velocity": 105}, {"start": 23.42072155833333, "end": 23.597550749999996, "pitch": 62, "velocity": 103}, {"start": 23.609745866666664, "end": 23.78657505833333, "pitch": 62, "velocity": 87}, {"start": 23.792672616666664, "end": 23.96950180833333, "pitch": 62, "velocity": 97}, {"start": 24.15242855833333, "end": 24.329257749999996, "pitch": 62, "velocity": 115}, {"start": 24.51828205833333, "end": 25.060964749999997, "pitch": 57, "velocity": 105}, {"start": 25.06706230833333, "end": 25.243891499999997, "pitch": 55, "velocity": 85}, {"start": 25.243891499999997, "end": 25.420720691666663, "pitch": 52, "velocity": 83}, {"start": 25.426818249999997, "end": 25.603647441666663, "pitch": 52, "velocity": 97}, {"start": 25.969500941666663, "end": 26.14633013333333, "pitch": 59, "velocity": 86}, {"start": 26.152427691666663, "end": 26.32925688333333, "pitch": 62, "velocity": 107}, {"start": 26.335354441666663, "end": 27.06096388333333, "pitch": 67, "velocity": 117}, {"start": 27.07925655833333, "end": 27.804865999999997, "pitch": 66, "velocity": 119}, {"start": 27.81096355833333, "end": 28.536572999999997, "pitch": 64, "velocity": 95}, {"start": 28.530475441666663, "end": 29.07315813333333, "pitch": 62, "velocity": 105}, {"start": 29.268279999999997, "end": 29.445109191666663, "pitch": 64, "velocity": 111}, {"start": 29.628035941666663, "end": 30.35364538333333, "pitch": 64, "velocity": 117}, {"start": 32.20120555833333, "end": 32.926815, "pitch": 67, "velocity": 105}, {"start": 32.92071744166666, "end": 33.64632688333333, "pitch": 66, "velocity": 115}, {"start": 33.658522, "end": 34.38413144166666, "pitch": 64, "velocity": 92}, {"start": 34.38413144166666, "end": 35.10974088333333, "pitch": 62, "velocity": 97}, {"start": 35.12803355833333, "end": 35.30486275, "pitch": 64, "velocity": 116}, {"start": 35.49388705833333, "end": 36.03656975, "pitch": 64, "velocity": 117}, {"start": 38.03656888333333, "end": 38.21339807499999, "pitch": 62, "velocity": 110}, {"start": 38.22559319166666, "end": 38.40242238333333, "pitch": 64, "velocity": 101}, {"start": 38.40851994166666, "end": 38.58534913333333, "pitch": 64, "velocity": 108}, {"start": 38.59144669166666, "end": 38.76827588333333, "pitch": 62, "velocity": 111}, {"start": 38.78656855833333, "end": 39.054861124999995, "pitch": 64, "velocity": 111}, {"start": 39.1463245, "end": 39.32315369166666, "pitch": 64, "velocity": 111}, {"start": 39.50608044166666, "end": 39.76217789166666, "pitch": 64, "velocity": 107}, {"start": 39.87193394166666, "end": 40.04876313333333, "pitch": 64, "velocity": 107}, {"start": 40.23778744166666, "end": 40.41461663333333, "pitch": 62, "velocity": 109}, {"start": 40.42071419166666, "end": 40.59754338333333, "pitch": 64, "velocity": 99}, {"start": 40.61583605833333, "end": 40.79266524999999, "pitch": 64, "velocity": 101}, {"start": 40.79876280833333, "end": 40.97559199999999, "pitch": 62, "velocity": 99}, {"start": 40.97559199999999, "end": 41.23778700833333, "pitch": 64, "velocity": 113}, {"start": 41.33534794166666, "end": 41.51217713333333, "pitch": 64, "velocity": 93}, {"start": 41.52437224999999, "end": 41.70120144166666, "pitch": 62, "velocity": 67}, {"start": 41.71339655833333, "end": 41.89022574999999, "pitch": 64, "velocity": 109}, {"start": 41.908518425, "end": 42.08534761666666, "pitch": 64, "velocity": 99}, {"start": 42.26217680833333, "end": 42.43900599999999, "pitch": 64, "velocity": 76}, {"start": 42.44510355833333, "end": 42.80485949999999, "pitch": 69, "velocity": 109}, {"start": 42.81095705833333, "end": 42.98778624999999, "pitch": 67, "velocity": 105}, {"start": 43.18290811666666, "end": 43.35973730833333, "pitch": 67, "velocity": 105}, {"start": 43.35973730833333, "end": 43.53656649999999, "pitch": 59, "velocity": 62}, {"start": 43.54266405833333, "end": 43.71949324999999, "pitch": 62, "velocity": 95}, {"start": 43.90851755833333, "end": 44.08534674999999, "pitch": 64, "velocity": 107}, {"start": 44.09754186666666, "end": 44.27437105833333, "pitch": 64, "velocity": 97}, {"start": 44.44510269166666, "end": 44.621931883333325, "pitch": 62, "velocity": 87}, {"start": 44.63412699999999, "end": 44.93900491666666, "pitch": 64, "velocity": 107}, {"start": 45.19510236666666, "end": 45.37193155833333, "pitch": 52, "velocity": 72}, {"start": 45.37802911666666, "end": 45.713394824999995, "pitch": 64, "velocity": 101}, {"start": 45.73778505833333, "end": 45.91461424999999, "pitch": 64, "velocity": 92}, {"start": 46.10363855833333, "end": 46.46339449999999, "pitch": 64, "velocity": 101}, {"start": 46.82924799999999, "end": 47.00607719166666, "pitch": 62, "velocity": 111}, {"start": 47.00607719166666, "end": 47.182906383333325, "pitch": 62, "velocity": 93}, {"start": 47.18900394166666, "end": 47.365833133333325, "pitch": 62, "velocity": 105}, {"start": 47.55485744166666, "end": 47.731686633333325, "pitch": 62, "velocity": 109}, {"start": 47.74997930833333, "end": 47.92680849999999, "pitch": 62, "velocity": 113}, {"start": 47.92071094166666, "end": 48.463393633333325, "pitch": 57, "velocity": 109}, {"start": 48.46949119166666, "end": 48.646320383333325, "pitch": 55, "velocity": 92}, {"start": 48.646320383333325, "end": 48.823149574999995, "pitch": 52, "velocity": 95}, {"start": 48.829247133333325, "end": 49.189003074999995, "pitch": 52, "velocity": 97}, {"start": 49.76217355833333, "end": 50.48778299999999, "pitch": 67, "velocity": 113}, {"start": 50.49388055833333, "end": 51.21948999999999, "pitch": 66, "velocity": 115}, {"start": 51.21339244166666, "end": 51.939001883333326, "pitch": 64, "velocity": 99}, {"start": 51.94509944166666, "end": 52.487782133333326, "pitch": 62, "velocity": 107}, {"start": 52.689001558333324, "end": 52.86583074999999, "pitch": 64, "velocity": 107}, {"start": 53.048757499999994, "end": 53.40851344166666, "pitch": 64, "velocity": 113}, {"start": 54.47558614999999, "end": 54.676805574999996, "pitch": 71, "velocity": 97}, {"start": 54.676805574999996, "end": 54.865829883333326, "pitch": 67, "velocity": 95}, {"start": 55.060951749999994, "end": 55.426805249999994, "pitch": 59, "velocity": 92}, {"start": 55.615829558333324, "end": 56.274365858333326, "pitch": 67, "velocity": 107}, {"start": 56.33534144166666, "end": 57.06095088333333, "pitch": 66, "velocity": 113}, {"start": 57.079243558333324, "end": 57.804852999999994, "pitch": 64, "velocity": 95}, {"start": 57.79875544166666, "end": 58.52436488333333, "pitch": 62, "velocity": 101}, {"start": 58.542657558333325, "end": 58.719486749999994, "pitch": 64, "velocity": 111}, {"start": 58.908511058333325, "end": 59.268266999999994, "pitch": 64, "velocity": 111}, {"start": 61.45729044166666, "end": 61.63411963333333, "pitch": 62, "velocity": 109}, {"start": 61.64021719166666, "end": 61.81704638333333, "pitch": 64, "velocity": 101}, {"start": 61.82314394166666, "end": 61.99997313333333, "pitch": 64, "velocity": 107}, {"start": 62.00607069166666, "end": 62.18289988333333, "pitch": 62, "velocity": 95}, {"start": 62.201192558333325, "end": 62.53046070833332, "pitch": 64, "velocity": 107}, {"start": 62.567046058333325, "end": 62.743875249999995, "pitch": 64, "velocity": 105}, {"start": 62.932899558333325, "end": 63.24997259166666, "pitch": 64, "velocity": 111}, {"start": 63.28655794166666, "end": 63.46338713333333, "pitch": 64, "velocity": 105}, {"start": 63.65241144166666, "end": 63.82924063333333, "pitch": 62, "velocity": 115}, {"start": 63.841435749999995, "end": 64.01826494166666, "pitch": 64, "velocity": 99}, {"start": 64.03046005833333, "end": 64.20728924999999, "pitch": 64, "velocity": 109}, {"start": 64.21338680833333, "end": 64.390216, "pitch": 62, "velocity": 97}, {"start": 64.39631355833333, "end": 64.65241100833333, "pitch": 64, "velocity": 111}, {"start": 64.76216705833333, "end": 64.93899624999999, "pitch": 64, "velocity": 97}, {"start": 64.93289869166667, "end": 65.10972788333332, "pitch": 62, "velocity": 89}, {"start": 65.12802055833332, "end": 65.30484974999999, "pitch": 64, "velocity": 105}, {"start": 65.31094730833333, "end": 65.4877765, "pitch": 62, "velocity": 95}, {"start": 65.49387405833332, "end": 65.67070324999999, "pitch": 64, "velocity": 105}, {"start": 65.85972755833332, "end": 66.2194835, "pitch": 69, "velocity": 101}, {"start": 66.22558105833332, "end": 66.40241024999999, "pitch": 67, "velocity": 107}, {"start": 66.59143455833332, "end": 66.76826374999999, "pitch": 67, "velocity": 105}, {"start": 66.78045886666666, "end": 66.95728805833332, "pitch": 59, "velocity": 81}, {"start": 66.96338561666666, "end": 67.14021480833333, "pitch": 62, "velocity": 111}, {"start": 67.317044, "end": 67.49387319166667, "pitch": 64, "velocity": 107}, {"start": 67.49997074999999, "end": 67.67679994166666, "pitch": 64, "velocity": 90}, {"start": 67.85972669166667, "end": 68.03655588333332, "pitch": 64, "velocity": 103}, {"start": 68.03655588333332, "end": 68.57923857499999, "pitch": 64, "velocity": 109}, {"start": 68.77436044166666, "end": 69.13411638333332, "pitch": 64, "velocity": 113}, {"start": 69.15850661666666, "end": 69.33533580833333, "pitch": 64, "velocity": 105}, {"start": 69.50606744166666, "end": 69.86582338333332, "pitch": 64, "velocity": 107}, {"start": 69.87192094166666, "end": 70.04875013333333, "pitch": 62, "velocity": 101}, {"start": 70.23777444166666, "end": 70.41460363333333, "pitch": 62, "velocity": 109}, {"start": 70.42070119166665, "end": 70.59753038333332, "pitch": 62, "velocity": 93}, {"start": 70.60362794166666, "end": 70.78045713333333, "pitch": 62, "velocity": 77}, {"start": 70.79874980833333, "end": 70.975579, "pitch": 62, "velocity": 99}, {"start": 70.975579, "end": 71.15240819166665, "pitch": 62, "velocity": 111}, {"start": 71.16460330833333, "end": 71.3414325, "pitch": 62, "velocity": 109}, {"start": 71.34753005833332, "end": 71.89021274999999, "pitch": 57, "velocity": 99}, {"start": 71.88411519166665, "end": 72.06094438333332, "pitch": 55, "velocity": 90}, {"start": 72.06704194166666, "end": 72.24387113333333, "pitch": 52, "velocity": 89}, {"start": 72.43289544166666, "end": 72.97557813333333, "pitch": 64, "velocity": 93}, {"start": 73.16460244166666, "end": 73.89021188333332, "pitch": 67, "velocity": 101}, {"start": 73.90850455833332, "end": 74.634114, "pitch": 66, "velocity": 115}, {"start": 74.634114, "end": 75.35972344166666, "pitch": 64, "velocity": 97}, {"start": 75.35972344166666, "end": 75.71947938333332, "pitch": 62, "velocity": 105}, {"start": 76.10362555833332, "end": 76.28045474999999, "pitch": 64, "velocity": 107}, {"start": 76.46947905833332, "end": 76.64630824999999, "pitch": 64, "velocity": 107}, {"start": 76.65240580833333, "end": 76.829235, "pitch": 62, "velocity": 76}, {"start": 76.83533255833332, "end": 77.14630803333333, "pitch": 59, "velocity": 90}, {"start": 77.37191769166665, "end": 77.54874688333332, "pitch": 69, "velocity": 95}, {"start": 77.56703955833332, "end": 77.76216142499999, "pitch": 64, "velocity": 83}, {"start": 77.74996630833333, "end": 78.10972224999999, "pitch": 59, "velocity": 69}, {"start": 79.01825844166666, "end": 79.74386788333332, "pitch": 67, "velocity": 105}, {"start": 79.74386788333332, "end": 80.46947732499999, "pitch": 66, "velocity": 103}, {"start": 80.48167244166666, "end": 81.20728188333332, "pitch": 64, "velocity": 99}, {"start": 81.21337944166666, "end": 81.75606213333333, "pitch": 62, "velocity": 97}, {"start": 81.94508644166666, "end": 82.12191563333333, "pitch": 64, "velocity": 113}, {"start": 82.31093994166666, "end": 82.67069588333332, "pitch": 64, "velocity": 111}, {"start": 84.14020744166666, "end": 84.31703663333332, "pitch": 55, "velocity": 111}, {"start": 84.33532930833333, "end": 84.51215849999998, "pitch": 57, "velocity": 78}, {"start": 84.51825605833332, "end": 84.69508524999999, "pitch": 59, "velocity": 71}, {"start": 84.70118280833333, "end": 84.87801199999998, "pitch": 62, "velocity": 109}, {"start": 84.88410955833332, "end": 85.60971899999998, "pitch": 67, "velocity": 107}, {"start": 85.60362144166666, "end": 86.32923088333332, "pitch": 66, "velocity": 111}, {"start": 86.33532844166666, "end": 87.06093788333332, "pitch": 64, "velocity": 92}, {"start": 87.06093788333332, "end": 87.78654732499999, "pitch": 62, "velocity": 89}, {"start": 87.81093755833332, "end": 87.98776674999999, "pitch": 64, "velocity": 105}, {"start": 88.17679105833332, "end": 88.53654699999998, "pitch": 64, "velocity": 99}, {"start": 89.99386344166666, "end": 90.17069263333332, "pitch": 59, "velocity": 95}, {"start": 90.18898530833333, "end": 90.36581449999998, "pitch": 62, "velocity": 111}, {"start": 90.73776555833332, "end": 91.46337499999998, "pitch": 67, "velocity": 109}, {"start": 91.45727744166666, "end": 92.18288688333332, "pitch": 66, "velocity": 111}, {"start": 92.18898444166666, "end": 92.91459388333332, "pitch": 64, "velocity": 101}, {"start": 92.92069144166666, "end": 93.46337413333332, "pitch": 62, "velocity": 97}, {"start": 93.65239844166666, "end": 94.01215438333332, "pitch": 64, "velocity": 103}, {"start": 94.01825194166666, "end": 94.37800788333332, "pitch": 64, "velocity": 109}, {"start": 96.03654374999999, "end": 96.21337294166665, "pitch": 64, "velocity": 92}, {"start": 96.21337294166665, "end": 96.39020213333332, "pitch": 64, "velocity": 97}, {"start": 96.40239724999999, "end": 96.57922644166665, "pitch": 64, "velocity": 127}]'),
(8297, '[{"start": 16.323521250000002, "end": 16.47058, "pitch": 61, "velocity": 100}, {"start": 16.47058, "end": 16.61763875, "pitch": 65, "velocity": 100}, {"start": 16.61763875, "end": 16.7646975, "pitch": 65, "velocity": 100}, {"start": 16.7646975, "end": 16.91175625, "pitch": 65, "velocity": 100}, {"start": 16.91175625, "end": 17.058815000000003, "pitch": 65, "velocity": 100}, {"start": 17.058815000000003, "end": 17.205873750000002, "pitch": 65, "velocity": 100}, {"start": 17.205873750000002, "end": 17.3529325, "pitch": 63, "velocity": 100}, {"start": 17.3529325, "end": 17.49999125, "pitch": 61, "velocity": 100}, {"start": 17.49999125, "end": 17.64705, "pitch": 63, "velocity": 100}, {"start": 17.64705, "end": 17.941167500000002, "pitch": 65, "velocity": 100}, {"start": 17.941167500000002, "end": 18.235285, "pitch": 68, "velocity": 100}, {"start": 18.235285, "end": 18.5294025, "pitch": 68, "velocity": 100}, {"start": 18.97057875, "end": 19.1176375, "pitch": 63, "velocity": 100}, {"start": 19.1176375, "end": 19.26469625, "pitch": 63, "velocity": 100}, {"start": 19.26469625, "end": 19.411755000000003, "pitch": 63, "velocity": 100}, {"start": 19.411755000000003, "end": 19.558813750000002, "pitch": 63, "velocity": 100}, {"start": 19.558813750000002, "end": 19.7058725, "pitch": 61, "velocity": 100}, {"start": 19.7058725, "end": 19.85293125, "pitch": 61, "velocity": 100}, {"start": 19.85293125, "end": 19.99999, "pitch": 63, "velocity": 100}, {"start": 19.99999, "end": 20.294107500000003, "pitch": 65, "velocity": 100}, {"start": 20.294107500000003, "end": 20.588225, "pitch": 68, "velocity": 100}, {"start": 20.588225, "end": 20.8823425, "pitch": 68, "velocity": 100}, {"start": 21.32351875, "end": 21.4705775, "pitch": 63, "velocity": 100}, {"start": 21.4705775, "end": 21.61763625, "pitch": 63, "velocity": 100}, {"start": 21.61763625, "end": 21.764695000000003, "pitch": 65, "velocity": 100}, {"start": 21.764695000000003, "end": 22.058812500000002, "pitch": 63, "velocity": 100}, {"start": 22.058812500000002, "end": 22.35293, "pitch": 61, "velocity": 100}, {"start": 22.794106250000002, "end": 22.941165, "pitch": 65, "velocity": 100}, {"start": 22.941165, "end": 23.2352825, "pitch": 63, "velocity": 100}, {"start": 23.2352825, "end": 23.529400000000003, "pitch": 61, "velocity": 100}, {"start": 23.97057625, "end": 24.117635000000003, "pitch": 65, "velocity": 100}, {"start": 24.117635000000003, "end": 24.411752500000002, "pitch": 63, "velocity": 100}, {"start": 24.55881125, "end": 24.70587, "pitch": 46, "velocity": 100}, {"start": 24.411752500000002, "end": 24.70587, "pitch": 61, "velocity": 100}, {"start": 24.70587, "end": 24.85292875, "pitch": 48, "velocity": 100}, {"start": 24.85292875, "end": 25.147046250000002, "pitch": 49, "velocity": 100}, {"start": 25.147046250000002, "end": 25.294105000000002, "pitch": 46, "velocity": 100}, {"start": 25.147046250000002, "end": 25.294105000000002, "pitch": 65, "velocity": 100}, {"start": 25.294105000000002, "end": 25.5882225, "pitch": 63, "velocity": 100}, {"start": 25.294105000000002, "end": 25.5882225, "pitch": 49, "velocity": 100}, {"start": 25.5882225, "end": 25.882340000000003, "pitch": 46, "velocity": 100}, {"start": 25.5882225, "end": 25.882340000000003, "pitch": 61, "velocity": 100}, {"start": 26.1764575, "end": 26.470575, "pitch": 65, "velocity": 100}, {"start": 26.470575, "end": 26.617633750000003, "pitch": 63, "velocity": 100}, {"start": 26.617633750000003, "end": 26.764692500000002, "pitch": 61, "velocity": 100}, {"start": 26.764692500000002, "end": 26.911751250000002, "pitch": 61, "velocity": 100}, {"start": 26.911751250000002, "end": 27.05881, "pitch": 63, "velocity": 100}, {"start": 27.05881, "end": 27.20586875, "pitch": 65, "velocity": 100}, {"start": 27.352927500000003, "end": 27.647045000000002, "pitch": 68, "velocity": 100}, {"start": 27.647045000000002, "end": 27.9411625, "pitch": 68, "velocity": 100}, {"start": 28.5293975, "end": 28.823515, "pitch": 70, "velocity": 100}, {"start": 28.823515, "end": 29.117632500000003, "pitch": 68, "velocity": 100}, {"start": 29.264691250000002, "end": 29.41175, "pitch": 65, "velocity": 100}, {"start": 29.41175, "end": 29.55880875, "pitch": 68, "velocity": 100}, {"start": 29.55880875, "end": 29.705867500000004, "pitch": 65, "velocity": 100}, {"start": 29.705867500000004, "end": 29.852926250000003, "pitch": 63, "velocity": 100}, {"start": 29.852926250000003, "end": 29.999985000000002, "pitch": 65, "velocity": 100}, {"start": 29.999985000000002, "end": 30.2941025, "pitch": 61, "velocity": 100}, {"start": 31.02939625, "end": 31.176455, "pitch": 65, "velocity": 100}, {"start": 31.176455, "end": 31.470572500000003, "pitch": 63, "velocity": 100}, {"start": 31.470572500000003, "end": 31.76469, "pitch": 61, "velocity": 100}, {"start": 32.20586625, "end": 32.352925, "pitch": 65, "velocity": 100}, {"start": 32.352925, "end": 32.499983750000006, "pitch": 66, "velocity": 100}, {"start": 32.499983750000006, "end": 32.647042500000005, "pitch": 65, "velocity": 100}, {"start": 32.647042500000005, "end": 32.94116, "pitch": 63, "velocity": 100}, {"start": 33.529395, "end": 33.8235125, "pitch": 63, "velocity": 100}, {"start": 33.8235125, "end": 33.97057125, "pitch": 63, "velocity": 100}, {"start": 33.97057125, "end": 34.117630000000005, "pitch": 63, "velocity": 100}, {"start": 34.117630000000005, "end": 34.411747500000004, "pitch": 63, "velocity": 100}, {"start": 34.411747500000004, "end": 34.55880625, "pitch": 63, "velocity": 100}, {"start": 34.55880625, "end": 34.705865, "pitch": 63, "velocity": 100}, {"start": 34.705865, "end": 34.9999825, "pitch": 63, "velocity": 100}, {"start": 34.9999825, "end": 35.2941, "pitch": 58, "velocity": 100}, {"start": 35.882335000000005, "end": 36.1764525, "pitch": 70, "velocity": 100}, {"start": 36.47057, "end": 36.61762875, "pitch": 68, "velocity": 100}, {"start": 36.7646875, "end": 36.91174625, "pitch": 70, "velocity": 100}, {"start": 36.91174625, "end": 37.058805, "pitch": 68, "velocity": 100}, {"start": 37.205863750000006, "end": 37.352922500000005, "pitch": 68, "velocity": 100}, {"start": 37.352922500000005, "end": 37.499981250000005, "pitch": 68, "velocity": 100}, {"start": 37.499981250000005, "end": 37.647040000000004, "pitch": 68, "velocity": 100}, {"start": 37.647040000000004, "end": 37.84311833333334, "pitch": 65, "velocity": 100}, {"start": 37.9411575, "end": 38.137235833333335, "pitch": 68, "velocity": 100}, {"start": 38.235275, "end": 38.5293925, "pitch": 65, "velocity": 100}, {"start": 38.5293925, "end": 38.67645125, "pitch": 65, "velocity": 100}, {"start": 38.67645125, "end": 38.823510000000006, "pitch": 65, "velocity": 100}, {"start": 38.823510000000006, "end": 38.970568750000005, "pitch": 63, "velocity": 100}, {"start": 38.970568750000005, "end": 39.117627500000005, "pitch": 63, "velocity": 100}, {"start": 39.117627500000005, "end": 39.264686250000004, "pitch": 65, "velocity": 100}, {"start": 39.264686250000004, "end": 39.411745, "pitch": 63, "velocity": 100}, {"start": 39.55880375, "end": 39.7058625, "pitch": 61, "velocity": 100}, {"start": 39.7058625, "end": 39.85292125, "pitch": 58, "velocity": 100}, {"start": 40.2940975, "end": 40.441156250000006, "pitch": 58, "velocity": 100}, {"start": 40.441156250000006, "end": 40.588215000000005, "pitch": 58, "velocity": 100}, {"start": 40.588215000000005, "end": 40.735273750000005, "pitch": 58, "velocity": 100}, {"start": 40.882332500000004, "end": 41.02939125, "pitch": 56, "velocity": 100}, {"start": 41.4705675, "end": 41.61762625, "pitch": 56, "velocity": 100}, {"start": 41.63723408333334, "end": 41.78429283333334, "pitch": 60, "velocity": 100}, {"start": 42.058802500000006, "end": 42.205861250000005, "pitch": 58, "velocity": 100}, {"start": 42.6470375, "end": 42.79409625, "pitch": 58, "velocity": 100}, {"start": 42.79409625, "end": 42.941155, "pitch": 58, "velocity": 100}, {"start": 42.941155, "end": 43.08821375, "pitch": 61, "velocity": 100}, {"start": 43.161743125, "end": 43.308801875, "pitch": 58, "velocity": 100}, {"start": 43.38233125, "end": 43.52939000000001, "pitch": 58, "velocity": 100}, {"start": 43.52939000000001, "end": 43.676448750000006, "pitch": 61, "velocity": 100}, {"start": 43.749978125000005, "end": 43.897036875000005, "pitch": 58, "velocity": 100}, {"start": 43.970566250000005, "end": 44.117625000000004, "pitch": 58, "velocity": 100}, {"start": 44.117625000000004, "end": 44.26468375, "pitch": 61, "velocity": 100}, {"start": 44.4117425, "end": 44.55880125, "pitch": 58, "velocity": 100}, {"start": 44.9999775, "end": 45.294095000000006, "pitch": 53, "velocity": 100}, {"start": 45.294095000000006, "end": 45.588212500000004, "pitch": 51, "velocity": 100}, {"start": 45.92154566666667, "end": 46.117624000000006, "pitch": 51, "velocity": 100}, {"start": 46.11272204166667, "end": 46.308800375000004, "pitch": 49, "velocity": 100}, {"start": 46.27448666666667, "end": 46.470565, "pitch": 51, "velocity": 100}, {"start": 46.470565, "end": 46.66664333333334, "pitch": 51, "velocity": 100}, {"start": 46.66664333333334, "end": 46.86272166666667, "pitch": 49, "velocity": 100}, {"start": 46.86272166666667, "end": 47.058800000000005, "pitch": 51, "velocity": 100}, {"start": 47.058800000000005, "end": 47.352917500000004, "pitch": 51, "velocity": 100}, {"start": 47.352917500000004, "end": 47.647035, "pitch": 46, "velocity": 100}, {"start": 47.867623125, "end": 48.161740625, "pitch": 44, "velocity": 100}, {"start": 48.03919166666667, "end": 48.161740625, "pitch": 44, "velocity": 100}, {"start": 48.23527000000001, "end": 48.33330916666667, "pitch": 44, "velocity": 100}, {"start": 48.43134833333334, "end": 48.62742666666667, "pitch": 46, "velocity": 100}, {"start": 48.62742666666667, "end": 48.823505000000004, "pitch": 49, "velocity": 100}, {"start": 48.823505000000004, "end": 49.01958333333334, "pitch": 51, "velocity": 100}, {"start": 49.1176225, "end": 49.338210625, "pitch": 49, "velocity": 100}, {"start": 49.7058575, "end": 49.999975000000006, "pitch": 53, "velocity": 100}, {"start": 49.999975000000006, "end": 50.294092500000005, "pitch": 51, "velocity": 100}, {"start": 50.62742566666667, "end": 50.82350400000001, "pitch": 51, "velocity": 100}, {"start": 50.81860204166667, "end": 51.014680375000005, "pitch": 49, "velocity": 100}, {"start": 50.98036666666667, "end": 51.176445, "pitch": 51, "velocity": 100}, {"start": 51.176445, "end": 51.37252333333333, "pitch": 51, "velocity": 100}, {"start": 51.37252333333333, "end": 51.56860166666667, "pitch": 49, "velocity": 100}, {"start": 51.56860166666667, "end": 51.764680000000006, "pitch": 51, "velocity": 100}, {"start": 51.764680000000006, "end": 52.058797500000004, "pitch": 51, "velocity": 100}, {"start": 52.058797500000004, "end": 52.352915, "pitch": 46, "velocity": 100}, {"start": 52.573503125, "end": 52.867620625, "pitch": 44, "velocity": 100}, {"start": 52.74507166666667, "end": 52.867620625, "pitch": 44, "velocity": 100}, {"start": 52.94115, "end": 53.039189166666674, "pitch": 44, "velocity": 100}, {"start": 53.13722833333334, "end": 53.33330666666667, "pitch": 46, "velocity": 100}, {"start": 53.33330666666667, "end": 53.529385000000005, "pitch": 49, "velocity": 100}, {"start": 53.529385000000005, "end": 53.72546333333334, "pitch": 51, "velocity": 100}, {"start": 53.823502500000004, "end": 54.044090625, "pitch": 49, "velocity": 100}, {"start": 54.26467875, "end": 54.4117375, "pitch": 53, "velocity": 100}, {"start": 54.4117375, "end": 54.55879625000001, "pitch": 53, "velocity": 100}, {"start": 54.55879625000001, "end": 54.70585500000001, "pitch": 53, "velocity": 100}, {"start": 54.70585500000001, "end": 54.852913750000006, "pitch": 56, "velocity": 100}, {"start": 54.852913750000006, "end": 54.999972500000005, "pitch": 53, "velocity": 100}, {"start": 54.999972500000005, "end": 55.147031250000005, "pitch": 51, "velocity": 100}, {"start": 55.147031250000005, "end": 55.294090000000004, "pitch": 49, "velocity": 100}, {"start": 55.294090000000004, "end": 55.44114875, "pitch": 51, "velocity": 100}, {"start": 55.73526625, "end": 55.882325, "pitch": 51, "velocity": 100}, {"start": 55.882325, "end": 56.02938375, "pitch": 53, "velocity": 100}, {"start": 56.02938375, "end": 56.17644250000001, "pitch": 51, "velocity": 100}, {"start": 56.17644250000001, "end": 56.32350125000001, "pitch": 49, "velocity": 100}, {"start": 56.32350125000001, "end": 56.470560000000006, "pitch": 48, "velocity": 100}, {"start": 56.470560000000006, "end": 56.617618750000005, "pitch": 46, "velocity": 100}, {"start": 56.691148125000005, "end": 56.838206875000004, "pitch": 53, "velocity": 100}, {"start": 56.911736250000004, "end": 57.20585375, "pitch": 53, "velocity": 100}, {"start": 57.49997125, "end": 57.64703, "pitch": 49, "velocity": 100}, {"start": 57.64703, "end": 57.79408875000001, "pitch": 49, "velocity": 100}, {"start": 57.79408875000001, "end": 57.94114750000001, "pitch": 48, "velocity": 100}, {"start": 57.94114750000001, "end": 58.088206250000006, "pitch": 46, "velocity": 100}, {"start": 58.088206250000006, "end": 58.235265000000005, "pitch": 48, "velocity": 100}, {"start": 58.235265000000005, "end": 58.382323750000005, "pitch": 49, "velocity": 100}, {"start": 58.382323750000005, "end": 58.529382500000004, "pitch": 48, "velocity": 100}, {"start": 58.529382500000004, "end": 58.67644125, "pitch": 46, "velocity": 100}, {"start": 58.97055875, "end": 59.1176175, "pitch": 53, "velocity": 100}, {"start": 59.1176175, "end": 59.26467625, "pitch": 53, "velocity": 100}, {"start": 59.26467625, "end": 59.41173500000001, "pitch": 53, "velocity": 100}, {"start": 59.41173500000001, "end": 59.55879375000001, "pitch": 56, "velocity": 100}, {"start": 59.55879375000001, "end": 59.705852500000006, "pitch": 53, "velocity": 100}, {"start": 59.705852500000006, "end": 59.852911250000005, "pitch": 51, "velocity": 100}, {"start": 59.852911250000005, "end": 59.999970000000005, "pitch": 49, "velocity": 100}, {"start": 59.999970000000005, "end": 60.147028750000004, "pitch": 51, "velocity": 100}, {"start": 60.2940875, "end": 60.44114625, "pitch": 51, "velocity": 100}, {"start": 60.44114625, "end": 60.588205, "pitch": 51, "velocity": 100}, {"start": 60.588205, "end": 60.73526375, "pitch": 49, "velocity": 100}, {"start": 60.73526375, "end": 60.88232250000001, "pitch": 48, "velocity": 100}, {"start": 60.88232250000001, "end": 61.02938125000001, "pitch": 46, "velocity": 100}, {"start": 61.02938125000001, "end": 61.17644000000001, "pitch": 48, "velocity": 100}, {"start": 61.17644000000001, "end": 61.323498750000006, "pitch": 49, "velocity": 100}, {"start": 61.323498750000006, "end": 61.470557500000005, "pitch": 48, "velocity": 100}, {"start": 61.470557500000005, "end": 61.617616250000005, "pitch": 46, "velocity": 100}, {"start": 62.20585125, "end": 62.35291, "pitch": 46, "velocity": 100}, {"start": 62.35291, "end": 62.49996875000001, "pitch": 49, "velocity": 100}, {"start": 62.49996875000001, "end": 62.64702750000001, "pitch": 48, "velocity": 100}, {"start": 62.64702750000001, "end": 62.79408625000001, "pitch": 46, "velocity": 100}, {"start": 62.79408625000001, "end": 62.941145000000006, "pitch": 48, "velocity": 100}, {"start": 62.941145000000006, "end": 63.088203750000005, "pitch": 49, "velocity": 100}, {"start": 63.088203750000005, "end": 63.235262500000005, "pitch": 48, "velocity": 100}, {"start": 63.235262500000005, "end": 63.382321250000004, "pitch": 46, "velocity": 100}, {"start": 63.382321250000004, "end": 63.52938, "pitch": 58, "velocity": 100}, {"start": 63.52938, "end": 63.67643875, "pitch": 65, "velocity": 100}, {"start": 63.67643875, "end": 63.8234975, "pitch": 65, "velocity": 100}, {"start": 63.8234975, "end": 63.97055625, "pitch": 65, "velocity": 100}, {"start": 63.97055625, "end": 64.117615, "pitch": 65, "velocity": 100}, {"start": 64.117615, "end": 64.26467375, "pitch": 65, "velocity": 100}, {"start": 64.26467375, "end": 64.4117325, "pitch": 63, "velocity": 100}, {"start": 64.4117325, "end": 64.55879125, "pitch": 61, "velocity": 100}, {"start": 64.55879125, "end": 64.70585, "pitch": 63, "velocity": 100}, {"start": 64.70585, "end": 64.99996750000001, "pitch": 65, "velocity": 100}, {"start": 64.99996750000001, "end": 65.29408500000001, "pitch": 68, "velocity": 100}, {"start": 65.29408500000001, "end": 65.58820250000001, "pitch": 68, "velocity": 100}, {"start": 66.02937875, "end": 66.1764375, "pitch": 63, "velocity": 100}, {"start": 66.1764375, "end": 66.32349625, "pitch": 63, "velocity": 100}, {"start": 66.32349625, "end": 66.470555, "pitch": 63, "velocity": 100}, {"start": 66.470555, "end": 66.61761375, "pitch": 63, "velocity": 100}, {"start": 66.61761375, "end": 66.7646725, "pitch": 61, "velocity": 100}, {"start": 66.7646725, "end": 66.91173125, "pitch": 61, "velocity": 100}, {"start": 66.91173125, "end": 67.05879, "pitch": 63, "velocity": 100}, {"start": 67.05879, "end": 67.3529075, "pitch": 65, "velocity": 100}, {"start": 67.3529075, "end": 67.647025, "pitch": 68, "velocity": 100}, {"start": 67.647025, "end": 67.9411425, "pitch": 68, "velocity": 100}, {"start": 68.38231875000001, "end": 68.52937750000001, "pitch": 63, "velocity": 100}, {"start": 68.52937750000001, "end": 68.67643625000001, "pitch": 63, "velocity": 100}, {"start": 68.67643625000001, "end": 68.82349500000001, "pitch": 65, "velocity": 100}, {"start": 68.82349500000001, "end": 69.1176125, "pitch": 63, "velocity": 100}, {"start": 69.1176125, "end": 69.41173, "pitch": 61, "velocity": 100}, {"start": 69.85290625, "end": 69.999965, "pitch": 65, "velocity": 100}, {"start": 69.999965, "end": 70.2940825, "pitch": 63, "velocity": 100}, {"start": 70.2940825, "end": 70.5882, "pitch": 61, "velocity": 100}, {"start": 71.02937625, "end": 71.17643500000001, "pitch": 65, "velocity": 100}, {"start": 71.17643500000001, "end": 71.47055250000001, "pitch": 63, "velocity": 100}, {"start": 71.61761125000001, "end": 71.76467000000001, "pitch": 46, "velocity": 100}, {"start": 71.47055250000001, "end": 71.76467000000001, "pitch": 61, "velocity": 100}, {"start": 71.76467000000001, "end": 71.91172875000001, "pitch": 48, "velocity": 100}, {"start": 71.91172875000001, "end": 72.20584625000001, "pitch": 49, "velocity": 100}, {"start": 72.20584625000001, "end": 72.352905, "pitch": 46, "velocity": 100}, {"start": 72.20584625000001, "end": 72.352905, "pitch": 65, "velocity": 100}, {"start": 72.352905, "end": 72.6470225, "pitch": 49, "velocity": 100}, {"start": 72.352905, "end": 72.6470225, "pitch": 63, "velocity": 100}, {"start": 72.6470225, "end": 72.94114, "pitch": 61, "velocity": 100}, {"start": 72.6470225, "end": 72.94114, "pitch": 46, "velocity": 100}, {"start": 73.2352575, "end": 73.529375, "pitch": 65, "velocity": 100}, {"start": 73.529375, "end": 73.67643375, "pitch": 63, "velocity": 100}, {"start": 73.67643375, "end": 73.8234925, "pitch": 61, "velocity": 100}, {"start": 73.8234925, "end": 73.97055125, "pitch": 61, "velocity": 100}, {"start": 73.97055125, "end": 74.11761, "pitch": 63, "velocity": 100}, {"start": 74.11761, "end": 74.26466875, "pitch": 65, "velocity": 100}, {"start": 74.41172750000001, "end": 74.70584500000001, "pitch": 68, "velocity": 100}, {"start": 74.70584500000001, "end": 74.99996250000001, "pitch": 68, "velocity": 100}, {"start": 75.5881975, "end": 75.882315, "pitch": 70, "velocity": 100}, {"start": 75.882315, "end": 76.1764325, "pitch": 68, "velocity": 100}, {"start": 76.32349125, "end": 76.47055, "pitch": 65, "velocity": 100}, {"start": 76.47055, "end": 76.61760875, "pitch": 68, "velocity": 100}, {"start": 76.61760875, "end": 76.7646675, "pitch": 65, "velocity": 100}, {"start": 76.7646675, "end": 76.91172625, "pitch": 63, "velocity": 100}, {"start": 76.91172625, "end": 77.058785, "pitch": 65, "velocity": 100}, {"start": 77.058785, "end": 77.3529025, "pitch": 61, "velocity": 100}, {"start": 78.08819625000001, "end": 78.23525500000001, "pitch": 65, "velocity": 100}, {"start": 78.23525500000001, "end": 78.52937250000001, "pitch": 63, "velocity": 100}, {"start": 78.52937250000001, "end": 78.82349, "pitch": 61, "velocity": 100}, {"start": 79.26466625, "end": 79.411725, "pitch": 65, "velocity": 100}, {"start": 79.411725, "end": 79.55878375, "pitch": 66, "velocity": 100}, {"start": 79.55878375, "end": 79.7058425, "pitch": 65, "velocity": 100}, {"start": 79.7058425, "end": 79.99996, "pitch": 63, "velocity": 100}, {"start": 80.588195, "end": 80.88231250000001, "pitch": 63, "velocity": 100}, {"start": 80.88231250000001, "end": 81.02937125000001, "pitch": 63, "velocity": 100}, {"start": 81.02937125000001, "end": 81.17643000000001, "pitch": 63, "velocity": 100}, {"start": 81.17643000000001, "end": 81.47054750000001, "pitch": 63, "velocity": 100}, {"start": 81.47054750000001, "end": 81.61760625000001, "pitch": 63, "velocity": 100}, {"start": 81.61760625000001, "end": 81.76466500000001, "pitch": 63, "velocity": 100}, {"start": 81.76466500000001, "end": 82.0587825, "pitch": 63, "velocity": 100}, {"start": 82.0587825, "end": 82.3529, "pitch": 58, "velocity": 100}, {"start": 82.941135, "end": 83.2352525, "pitch": 70, "velocity": 100}, {"start": 83.52937, "end": 83.67642875, "pitch": 68, "velocity": 100}, {"start": 83.82348750000001, "end": 83.97054625000001, "pitch": 70, "velocity": 100}, {"start": 83.97054625000001, "end": 84.11760500000001, "pitch": 68, "velocity": 100}, {"start": 84.26466375000001, "end": 84.41172250000001, "pitch": 68, "velocity": 100}, {"start": 84.41172250000001, "end": 84.55878125000001, "pitch": 68, "velocity": 100}, {"start": 84.55878125000001, "end": 84.70584000000001, "pitch": 68, "velocity": 100}, {"start": 84.70584000000001, "end": 84.90191833333334, "pitch": 65, "velocity": 100}, {"start": 84.99995750000001, "end": 85.19603583333334, "pitch": 68, "velocity": 100}, {"start": 85.294075, "end": 85.5881925, "pitch": 65, "velocity": 100}, {"start": 85.5881925, "end": 85.73525125, "pitch": 65, "velocity": 100}, {"start": 85.73525125, "end": 85.88231, "pitch": 65, "velocity": 100}, {"start": 85.88231, "end": 86.02936875, "pitch": 63, "velocity": 100}, {"start": 86.02936875, "end": 86.1764275, "pitch": 63, "velocity": 100}, {"start": 86.1764275, "end": 86.32348625, "pitch": 65, "velocity": 100}, {"start": 86.32348625, "end": 86.470545, "pitch": 63, "velocity": 100}, {"start": 86.61760375, "end": 86.7646625, "pitch": 61, "velocity": 100}, {"start": 86.7646625, "end": 86.91172125, "pitch": 58, "velocity": 100}, {"start": 87.35289750000001, "end": 87.49995625000001, "pitch": 58, "velocity": 100}, {"start": 87.49995625000001, "end": 87.64701500000001, "pitch": 58, "velocity": 100}, {"start": 87.64701500000001, "end": 87.79407375000001, "pitch": 58, "velocity": 100}, {"start": 87.94113250000001, "end": 88.08819125000001, "pitch": 56, "velocity": 100}, {"start": 88.5293675, "end": 88.67642625, "pitch": 56, "velocity": 100}, {"start": 88.69603408333334, "end": 88.84309283333334, "pitch": 60, "velocity": 100}, {"start": 89.1176025, "end": 89.26466125, "pitch": 58, "velocity": 100}, {"start": 89.7058375, "end": 89.85289625, "pitch": 58, "velocity": 100}, {"start": 89.85289625, "end": 89.999955, "pitch": 58, "velocity": 100}, {"start": 89.999955, "end": 90.14701375000001, "pitch": 61, "velocity": 100}, {"start": 90.220543125, "end": 90.367601875, "pitch": 58, "velocity": 100}, {"start": 90.44113125000001, "end": 90.58819000000001, "pitch": 58, "velocity": 100}, {"start": 90.58819000000001, "end": 90.73524875000001, "pitch": 61, "velocity": 100}, {"start": 90.808778125, "end": 90.955836875, "pitch": 58, "velocity": 100}, {"start": 91.02936625000001, "end": 91.17642500000001, "pitch": 58, "velocity": 100}, {"start": 91.17642500000001, "end": 91.32348375000001, "pitch": 61, "velocity": 100}, {"start": 91.47054250000001, "end": 91.61760125, "pitch": 58, "velocity": 100}, {"start": 92.49995375, "end": 92.6470125, "pitch": 70, "velocity": 100}, {"start": 92.6470125, "end": 92.79407125, "pitch": 70, "velocity": 100}, {"start": 92.79407125, "end": 92.94113, "pitch": 70, "velocity": 100}, {"start": 92.94113, "end": 93.08818875, "pitch": 68, "velocity": 100}, {"start": 93.2352475, "end": 93.38230625000001, "pitch": 70, "velocity": 100}, {"start": 93.38230625000001, "end": 93.52936500000001, "pitch": 68, "velocity": 100}, {"start": 93.97054125000001, "end": 94.11760000000001, "pitch": 68, "velocity": 100}, {"start": 94.11760000000001, "end": 94.31367833333334, "pitch": 65, "velocity": 100}, {"start": 94.41171750000001, "end": 94.60779583333334, "pitch": 68, "velocity": 100}, {"start": 94.70583500000001, "end": 94.9999525, "pitch": 65, "velocity": 100}, {"start": 94.9999525, "end": 95.14701125, "pitch": 65, "velocity": 100}, {"start": 95.14701125, "end": 95.29407, "pitch": 65, "velocity": 100}, {"start": 95.29407, "end": 95.44112875, "pitch": 63, "velocity": 100}, {"start": 95.44112875, "end": 95.5881875, "pitch": 63, "velocity": 100}, {"start": 95.5881875, "end": 95.73524625, "pitch": 65, "velocity": 100}, {"start": 95.73524625, "end": 95.882305, "pitch": 63, "velocity": 100}, {"start": 96.02936375, "end": 96.1764225, "pitch": 61, "velocity": 100}, {"start": 96.1764225, "end": 96.32348125, "pitch": 58, "velocity": 100}, {"start": 96.76465750000001, "end": 96.91171625000001, "pitch": 58, "velocity": 100}, {"start": 96.91171625000001, "end": 97.05877500000001, "pitch": 58, "velocity": 100}, {"start": 97.05877500000001, "end": 97.20583375000001, "pitch": 58, "velocity": 100}, {"start": 97.35289250000001, "end": 97.49995125000001, "pitch": 56, "velocity": 100}, {"start": 97.94112750000001, "end": 98.08818625, "pitch": 56, "velocity": 100}, {"start": 98.10779408333335, "end": 98.25485283333335, "pitch": 60, "velocity": 100}, {"start": 98.5293625, "end": 98.67642125, "pitch": 58, "velocity": 100}, {"start": 99.1175975, "end": 99.26465625, "pitch": 58, "velocity": 100}, {"start": 99.26465625, "end": 99.411715, "pitch": 58, "velocity": 100}, {"start": 99.411715, "end": 99.55877375, "pitch": 61, "velocity": 100}, {"start": 99.632303125, "end": 99.779361875, "pitch": 58, "velocity": 100}, {"start": 99.85289125000001, "end": 99.99995000000001, "pitch": 58, "velocity": 100}, {"start": 99.99995000000001, "end": 100.14700875000001, "pitch": 61, "velocity": 100}, {"start": 100.220538125, "end": 100.367596875, "pitch": 58, "velocity": 100}, {"start": 100.44112625000001, "end": 100.58818500000001, "pitch": 58, "velocity": 100}, {"start": 100.58818500000001, "end": 100.73524375000001, "pitch": 61, "velocity": 100}, {"start": 100.88230250000001, "end": 101.02936125000001, "pitch": 58, "velocity": 100}, {"start": 101.4705375, "end": 101.764655, "pitch": 65, "velocity": 100}, {"start": 101.764655, "end": 102.0587725, "pitch": 63, "velocity": 100}, {"start": 102.35289, "end": 102.54896833333333, "pitch": 63, "velocity": 100}, {"start": 102.54896833333333, "end": 102.74504666666667, "pitch": 61, "velocity": 100}, {"start": 102.74504666666667, "end": 102.94112500000001, "pitch": 63, "velocity": 100}, {"start": 102.94112500000001, "end": 103.13720333333335, "pitch": 63, "velocity": 100}, {"start": 103.13720333333335, "end": 103.33328166666668, "pitch": 61, "velocity": 100}, {"start": 103.33328166666668, "end": 103.52936000000001, "pitch": 63, "velocity": 100}, {"start": 103.52936000000001, "end": 103.92151666666668, "pitch": 63, "velocity": 100}, {"start": 103.97053625000001, "end": 104.26465375000001, "pitch": 58, "velocity": 100}, {"start": 104.41171250000001, "end": 104.60779083333334, "pitch": 56, "velocity": 100}, {"start": 104.70583, "end": 104.9999475, "pitch": 56, "velocity": 100}, {"start": 104.9999475, "end": 105.14700625, "pitch": 61, "velocity": 100}, {"start": 105.14700625, "end": 105.44112375, "pitch": 58, "velocity": 100}, {"start": 105.73524125, "end": 105.8823, "pitch": 61, "velocity": 100}, {"start": 105.5881825, "end": 105.8823, "pitch": 63, "velocity": 100}, {"start": 106.17641750000001, "end": 106.47053500000001, "pitch": 65, "velocity": 100}, {"start": 106.47053500000001, "end": 106.76465250000001, "pitch": 63, "velocity": 100}, {"start": 107.05877000000001, "end": 107.25484833333334, "pitch": 63, "velocity": 100}, {"start": 107.25484833333334, "end": 107.45092666666667, "pitch": 61, "velocity": 100}, {"start": 107.45092666666667, "end": 107.64700500000001, "pitch": 63, "velocity": 100}, {"start": 107.64700500000001, "end": 107.84308333333334, "pitch": 63, "velocity": 100}, {"start": 107.84308333333334, "end": 108.03916166666667, "pitch": 61, "velocity": 100}, {"start": 108.03916166666667, "end": 108.23524, "pitch": 63, "velocity": 100}, {"start": 108.23524, "end": 108.72543583333334, "pitch": 63, "velocity": 100}, {"start": 108.67641625, "end": 108.97053375, "pitch": 58, "velocity": 100}, {"start": 109.11759250000001, "end": 109.26465125000001, "pitch": 56, "velocity": 100}, {"start": 109.26465125000001, "end": 109.41171000000001, "pitch": 56, "velocity": 100}, {"start": 109.41171000000001, "end": 109.55876875000001, "pitch": 56, "velocity": 100}, {"start": 109.55876875000001, "end": 109.70582750000001, "pitch": 58, "velocity": 100}, {"start": 109.70582750000001, "end": 109.85288625000001, "pitch": 61, "velocity": 100}, {"start": 109.85288625000001, "end": 110.14700375000001, "pitch": 58, "velocity": 100}, {"start": 110.29406250000001, "end": 110.44112125000001, "pitch": 63, "velocity": 100}, {"start": 110.44112125000001, "end": 110.58818000000001, "pitch": 61, "velocity": 100}, {"start": 110.73523875000001, "end": 111.10288562500001, "pitch": 68, "velocity": 100}, {"start": 111.02935625, "end": 111.176415, "pitch": 70, "velocity": 100}, {"start": 111.176415, "end": 111.54406187500001, "pitch": 65, "velocity": 100}, {"start": 111.61759125, "end": 111.76465, "pitch": 66, "velocity": 100}, {"start": 111.76465, "end": 112.0587675, "pitch": 68, "velocity": 100}, {"start": 112.0587675, "end": 112.35288500000001, "pitch": 68, "velocity": 100}, {"start": 112.35288500000001, "end": 112.49994375000001, "pitch": 65, "velocity": 100}, {"start": 112.49994375000001, "end": 112.64700250000001, "pitch": 63, "velocity": 100}, {"start": 112.64700250000001, "end": 112.79406125000001, "pitch": 61, "velocity": 100}, {"start": 113.08817875000001, "end": 113.308766875, "pitch": 65, "velocity": 100}, {"start": 113.38229625000001, "end": 113.52935500000001, "pitch": 65, "velocity": 100}, {"start": 113.52935500000001, "end": 113.82347250000001, "pitch": 60, "velocity": 100}, {"start": 113.97053125000001, "end": 114.11759, "pitch": 60, "velocity": 100}, {"start": 114.11759, "end": 114.26464875, "pitch": 61, "velocity": 100}, {"start": 114.26464875, "end": 114.4117075, "pitch": 60, "velocity": 100}, {"start": 114.4117075, "end": 114.55876625, "pitch": 58, "velocity": 100}, {"start": 114.705825, "end": 114.85288375, "pitch": 61, "velocity": 100}, {"start": 114.85288375, "end": 114.9999425, "pitch": 60, "velocity": 100}, {"start": 114.9999425, "end": 115.14700125, "pitch": 58, "velocity": 100}, {"start": 115.44111875000002, "end": 115.66170687500001, "pitch": 65, "velocity": 100}, {"start": 115.44111875000002, "end": 115.66170687500001, "pitch": 58, "velocity": 100}, {"start": 115.73523625000001, "end": 115.88229500000001, "pitch": 65, "velocity": 100}, {"start": 115.73523625000001, "end": 115.88229500000001, "pitch": 58, "velocity": 100}, {"start": 115.88229500000001, "end": 116.02935375000001, "pitch": 68, "velocity": 100}, {"start": 115.88229500000001, "end": 116.02935375000001, "pitch": 58, "velocity": 100}, {"start": 116.02935375000001, "end": 116.17641250000001, "pitch": 58, "velocity": 100}, {"start": 116.02935375000001, "end": 116.17641250000001, "pitch": 65, "velocity": 100}, {"start": 116.17641250000001, "end": 116.32347125000001, "pitch": 58, "velocity": 100}, {"start": 116.17641250000001, "end": 116.32347125000001, "pitch": 63, "velocity": 100}, {"start": 116.32347125000001, "end": 116.47053000000001, "pitch": 58, "velocity": 100}, {"start": 116.32347125000001, "end": 116.47053000000001, "pitch": 61, "velocity": 100}, {"start": 116.47053000000001, "end": 116.76464750000001, "pitch": 63, "velocity": 100}, {"start": 116.47053000000001, "end": 116.76464750000001, "pitch": 60, "velocity": 100}, {"start": 116.76464750000001, "end": 116.91170625000001, "pitch": 60, "velocity": 100}, {"start": 116.76464750000001, "end": 116.91170625000001, "pitch": 63, "velocity": 100}, {"start": 116.91170625000001, "end": 117.05876500000001, "pitch": 60, "velocity": 100}, {"start": 116.91170625000001, "end": 117.05876500000001, "pitch": 63, "velocity": 100}, {"start": 117.05876500000001, "end": 117.3528825, "pitch": 63, "velocity": 100}, {"start": 117.05876500000001, "end": 117.3528825, "pitch": 60, "velocity": 100}, {"start": 117.3528825, "end": 117.49994125, "pitch": 61, "velocity": 100}, {"start": 117.49994125, "end": 117.647, "pitch": 60, "velocity": 100}, {"start": 117.647, "end": 117.79405875, "pitch": 58, "velocity": 100}, {"start": 117.79405875, "end": 118.01464687500001, "pitch": 65, "velocity": 100}, {"start": 118.08817625, "end": 118.235235, "pitch": 65, "velocity": 100}, {"start": 118.235235, "end": 118.38229375, "pitch": 61, "velocity": 100}, {"start": 118.5293525, "end": 118.74994062500001, "pitch": 61, "velocity": 100}, {"start": 118.82347000000001, "end": 118.97052875000001, "pitch": 61, "velocity": 100}, {"start": 119.11758750000001, "end": 119.26464625000001, "pitch": 63, "velocity": 100}, {"start": 119.41170500000001, "end": 119.70582250000001, "pitch": 63, "velocity": 100}, {"start": 129.4117, "end": 129.55875875, "pitch": 65, "velocity": 100}, {"start": 129.55875875, "end": 129.70581750000002, "pitch": 65, "velocity": 100}, {"start": 129.70581750000002, "end": 129.85287625, "pitch": 65, "velocity": 100}, {"start": 129.85287625, "end": 129.99993500000002, "pitch": 65, "velocity": 100}, {"start": 129.99993500000002, "end": 130.14699375, "pitch": 65, "velocity": 100}, {"start": 130.14699375, "end": 130.29405250000002, "pitch": 63, "velocity": 100}, {"start": 130.29405250000002, "end": 130.44111125, "pitch": 61, "velocity": 100}, {"start": 130.44111125, "end": 130.58817000000002, "pitch": 63, "velocity": 100}, {"start": 130.58817000000002, "end": 130.88228750000002, "pitch": 65, "velocity": 100}, {"start": 130.88228750000002, "end": 131.17640500000002, "pitch": 68, "velocity": 100}, {"start": 131.17640500000002, "end": 131.47052250000002, "pitch": 68, "velocity": 100}, {"start": 131.91169875, "end": 132.0587575, "pitch": 63, "velocity": 100}, {"start": 132.0587575, "end": 132.20581625, "pitch": 63, "velocity": 100}, {"start": 132.20581625, "end": 132.352875, "pitch": 63, "velocity": 100}, {"start": 132.352875, "end": 132.49993375, "pitch": 63, "velocity": 100}, {"start": 132.49993375, "end": 132.6469925, "pitch": 61, "velocity": 100}, {"start": 132.6469925, "end": 132.79405125, "pitch": 61, "velocity": 100}, {"start": 132.79405125, "end": 132.94111, "pitch": 63, "velocity": 100}, {"start": 132.94111, "end": 133.2352275, "pitch": 65, "velocity": 100}, {"start": 133.2352275, "end": 133.529345, "pitch": 68, "velocity": 100}, {"start": 133.529345, "end": 133.8234625, "pitch": 68, "velocity": 100}, {"start": 134.26463875000002, "end": 134.4116975, "pitch": 63, "velocity": 100}, {"start": 134.4116975, "end": 134.55875625000002, "pitch": 63, "velocity": 100}, {"start": 134.55875625000002, "end": 134.705815, "pitch": 65, "velocity": 100}, {"start": 134.705815, "end": 134.9999325, "pitch": 63, "velocity": 100}, {"start": 134.9999325, "end": 135.29405, "pitch": 61, "velocity": 100}, {"start": 135.73522625, "end": 135.882285, "pitch": 65, "velocity": 100}, {"start": 135.882285, "end": 136.17640250000002, "pitch": 63, "velocity": 100}, {"start": 136.17640250000002, "end": 136.47052000000002, "pitch": 61, "velocity": 100}, {"start": 136.91169625, "end": 137.05875500000002, "pitch": 65, "velocity": 100}, {"start": 137.05875500000002, "end": 137.35287250000002, "pitch": 63, "velocity": 100}, {"start": 137.49993125, "end": 137.64699000000002, "pitch": 46, "velocity": 100}, {"start": 137.35287250000002, "end": 137.64699000000002, "pitch": 61, "velocity": 100}, {"start": 137.64699000000002, "end": 137.79404875, "pitch": 48, "velocity": 100}, {"start": 137.79404875, "end": 138.08816625, "pitch": 49, "velocity": 100}, {"start": 138.08816625, "end": 138.235225, "pitch": 46, "velocity": 100}, {"start": 138.08816625, "end": 138.235225, "pitch": 65, "velocity": 100}, {"start": 138.235225, "end": 138.5293425, "pitch": 49, "velocity": 100}, {"start": 138.235225, "end": 138.5293425, "pitch": 63, "velocity": 100}, {"start": 138.5293425, "end": 138.82346, "pitch": 46, "velocity": 100}, {"start": 138.5293425, "end": 138.82346, "pitch": 61, "velocity": 100}, {"start": 139.1175775, "end": 139.411695, "pitch": 65, "velocity": 100}, {"start": 139.411695, "end": 139.55875375000002, "pitch": 63, "velocity": 100}, {"start": 139.55875375000002, "end": 139.7058125, "pitch": 61, "velocity": 100}, {"start": 139.7058125, "end": 139.85287125000002, "pitch": 61, "velocity": 100}, {"start": 139.85287125000002, "end": 139.99993, "pitch": 63, "velocity": 100}, {"start": 139.99993, "end": 140.14698875000002, "pitch": 65, "velocity": 100}, {"start": 140.2940475, "end": 140.588165, "pitch": 68, "velocity": 100}, {"start": 140.588165, "end": 140.8822825, "pitch": 68, "velocity": 100}, {"start": 141.4705175, "end": 141.764635, "pitch": 70, "velocity": 100}, {"start": 141.764635, "end": 142.0587525, "pitch": 68, "velocity": 100}, {"start": 142.20581125, "end": 142.35287000000002, "pitch": 65, "velocity": 100}, {"start": 142.35287000000002, "end": 142.49992875, "pitch": 68, "velocity": 100}, {"start": 142.49992875, "end": 142.64698750000002, "pitch": 65, "velocity": 100}, {"start": 142.64698750000002, "end": 142.79404625, "pitch": 63, "velocity": 100}, {"start": 142.79404625, "end": 142.94110500000002, "pitch": 65, "velocity": 100}, {"start": 142.94110500000002, "end": 143.23522250000002, "pitch": 61, "velocity": 100}, {"start": 143.97051625, "end": 144.11757500000002, "pitch": 65, "velocity": 100}, {"start": 144.11757500000002, "end": 144.41169250000002, "pitch": 63, "velocity": 100}, {"start": 144.41169250000002, "end": 144.70581, "pitch": 61, "velocity": 100}, {"start": 145.14698625, "end": 145.294045, "pitch": 65, "velocity": 100}, {"start": 145.294045, "end": 145.44110375, "pitch": 66, "velocity": 100}, {"start": 145.44110375, "end": 145.5881625, "pitch": 65, "velocity": 100}, {"start": 145.5881625, "end": 145.88228, "pitch": 63, "velocity": 100}, {"start": 146.470515, "end": 146.7646325, "pitch": 63, "velocity": 100}, {"start": 146.7646325, "end": 146.91169125000002, "pitch": 63, "velocity": 100}, {"start": 146.91169125000002, "end": 147.05875, "pitch": 63, "velocity": 100}, {"start": 147.05875, "end": 147.3528675, "pitch": 63, "velocity": 100}, {"start": 147.3528675, "end": 147.49992625000002, "pitch": 63, "velocity": 100}, {"start": 147.49992625000002, "end": 147.646985, "pitch": 63, "velocity": 100}, {"start": 147.646985, "end": 147.9411025, "pitch": 63, "velocity": 100}, {"start": 147.9411025, "end": 148.23522, "pitch": 58, "velocity": 100}, {"start": 148.38227875, "end": 148.5293375, "pitch": 61, "velocity": 100}, {"start": 148.38227875, "end": 148.5293375, "pitch": 49, "velocity": 100}, {"start": 148.67639625, "end": 148.82345500000002, "pitch": 65, "velocity": 100}, {"start": 148.67639625, "end": 148.82345500000002, "pitch": 53, "velocity": 100}, {"start": 148.82345500000002, "end": 149.044043125, "pitch": 51, "velocity": 100}, {"start": 148.82345500000002, "end": 149.06855291666668, "pitch": 63, "velocity": 100}, {"start": 149.11757250000002, "end": 149.26463125, "pitch": 49, "velocity": 100}, {"start": 149.11757250000002, "end": 149.26463125, "pitch": 61, "velocity": 100}, {"start": 149.55874875, "end": 149.70580750000002, "pitch": 61, "velocity": 100}, {"start": 149.55874875, "end": 149.70580750000002, "pitch": 49, "velocity": 100}, {"start": 149.85286625, "end": 149.99992500000002, "pitch": 65, "velocity": 100}, {"start": 149.85286625, "end": 149.99992500000002, "pitch": 53, "velocity": 100}, {"start": 149.99992500000002, "end": 150.22051312500002, "pitch": 51, "velocity": 100}, {"start": 149.99992500000002, "end": 150.24502291666667, "pitch": 63, "velocity": 100}, {"start": 150.29404250000002, "end": 150.44110125, "pitch": 61, "velocity": 100}, {"start": 150.29404250000002, "end": 150.44110125, "pitch": 49, "velocity": 100}, {"start": 150.58816000000002, "end": 150.73521875, "pitch": 49, "velocity": 100}, {"start": 150.58816000000002, "end": 150.73521875, "pitch": 61, "velocity": 100}, {"start": 150.73521875, "end": 150.88227750000001, "pitch": 61, "velocity": 100}, {"start": 150.73521875, "end": 150.88227750000001, "pitch": 49, "velocity": 100}, {"start": 150.88227750000001, "end": 151.02933625, "pitch": 49, "velocity": 100}, {"start": 150.88227750000001, "end": 151.02933625, "pitch": 61, "velocity": 100}, {"start": 151.02933625, "end": 151.176395, "pitch": 53, "velocity": 100}, {"start": 151.02933625, "end": 151.176395, "pitch": 65, "velocity": 100}, {"start": 151.176395, "end": 151.39698312500002, "pitch": 51, "velocity": 100}, {"start": 151.176395, "end": 151.42149291666666, "pitch": 63, "velocity": 100}, {"start": 151.4705125, "end": 151.61757125, "pitch": 61, "velocity": 100}, {"start": 151.4705125, "end": 151.61757125, "pitch": 49, "velocity": 100}, {"start": 151.61757125, "end": 151.76463, "pitch": 61, "velocity": 100}, {"start": 151.61757125, "end": 151.76463, "pitch": 49, "velocity": 100}, {"start": 151.76463, "end": 151.91168875000002, "pitch": 61, "velocity": 100}, {"start": 151.76463, "end": 151.91168875000002, "pitch": 49, "velocity": 100}, {"start": 152.0587475, "end": 152.20580625000002, "pitch": 61, "velocity": 100}, {"start": 152.0587475, "end": 152.20580625000002, "pitch": 49, "velocity": 100}, {"start": 152.20580625000002, "end": 152.352865, "pitch": 53, "velocity": 100}, {"start": 152.20580625000002, "end": 152.352865, "pitch": 65, "velocity": 100}, {"start": 152.352865, "end": 152.57345312500001, "pitch": 51, "velocity": 100}, {"start": 152.352865, "end": 152.5979629166667, "pitch": 63, "velocity": 100}, {"start": 152.6469825, "end": 152.79404125000002, "pitch": 49, "velocity": 100}, {"start": 152.6469825, "end": 152.79404125000002, "pitch": 61, "velocity": 100}, {"start": 165.294035, "end": 165.5881525, "pitch": 70, "velocity": 100}, {"start": 165.88227, "end": 166.02932875000002, "pitch": 68, "velocity": 100}, {"start": 166.1763875, "end": 166.32344625000002, "pitch": 70, "velocity": 100}, {"start": 166.32344625000002, "end": 166.470505, "pitch": 68, "velocity": 100}, {"start": 166.61756375000002, "end": 166.7646225, "pitch": 68, "velocity": 100}, {"start": 166.7646225, "end": 166.91168125000002, "pitch": 68, "velocity": 100}, {"start": 166.91168125000002, "end": 167.05874, "pitch": 68, "velocity": 100}, {"start": 167.05874, "end": 167.25481833333333, "pitch": 65, "velocity": 100}, {"start": 167.3528575, "end": 167.54893583333333, "pitch": 68, "velocity": 100}, {"start": 167.64697500000003, "end": 167.94109250000002, "pitch": 65, "velocity": 100}, {"start": 167.94109250000002, "end": 168.08815125, "pitch": 65, "velocity": 100}, {"start": 168.08815125, "end": 168.23521000000002, "pitch": 65, "velocity": 100}, {"start": 168.23521000000002, "end": 168.38226875, "pitch": 63, "velocity": 100}, {"start": 168.38226875, "end": 168.52932750000002, "pitch": 63, "velocity": 100}, {"start": 168.52932750000002, "end": 168.67638625, "pitch": 65, "velocity": 100}, {"start": 168.67638625, "end": 168.82344500000002, "pitch": 63, "velocity": 100}, {"start": 168.97050375, "end": 169.11756250000002, "pitch": 61, "velocity": 100}, {"start": 169.11756250000002, "end": 169.26462125, "pitch": 58, "velocity": 100}, {"start": 169.70579750000002, "end": 169.85285625, "pitch": 58, "velocity": 100}, {"start": 169.85285625, "end": 169.99991500000002, "pitch": 58, "velocity": 100}, {"start": 169.99991500000002, "end": 170.14697375, "pitch": 58, "velocity": 100}, {"start": 170.29403250000001, "end": 170.44109125, "pitch": 56, "velocity": 100}, {"start": 170.8822675, "end": 171.02932625000003, "pitch": 56, "velocity": 100}, {"start": 171.04893408333334, "end": 171.19599283333335, "pitch": 60, "velocity": 100}, {"start": 171.4705025, "end": 171.61756125000002, "pitch": 58, "velocity": 100}, {"start": 172.0587375, "end": 172.20579625000002, "pitch": 58, "velocity": 100}, {"start": 172.20579625000002, "end": 172.352855, "pitch": 58, "velocity": 100}, {"start": 172.352855, "end": 172.49991375000002, "pitch": 61, "velocity": 100}, {"start": 172.573443125, "end": 172.72050187500002, "pitch": 58, "velocity": 100}, {"start": 172.79403125000002, "end": 172.94109, "pitch": 58, "velocity": 100}, {"start": 172.94109, "end": 173.08814875000002, "pitch": 61, "velocity": 100}, {"start": 173.161678125, "end": 173.30873687500002, "pitch": 58, "velocity": 100}, {"start": 173.38226625000001, "end": 173.529325, "pitch": 58, "velocity": 100}, {"start": 173.529325, "end": 173.67638375, "pitch": 61, "velocity": 100}, {"start": 173.8234425, "end": 173.97050125, "pitch": 58, "velocity": 100}, {"start": 174.85285375, "end": 174.99991250000002, "pitch": 70, "velocity": 100}, {"start": 174.99991250000002, "end": 175.14697125, "pitch": 70, "velocity": 100}, {"start": 175.14697125, "end": 175.29403000000002, "pitch": 70, "velocity": 100}, {"start": 175.29403000000002, "end": 175.44108875, "pitch": 68, "velocity": 100}, {"start": 175.58814750000002, "end": 175.73520625, "pitch": 70, "velocity": 100}, {"start": 175.73520625, "end": 175.88226500000002, "pitch": 68, "velocity": 100}, {"start": 176.32344125, "end": 176.47050000000002, "pitch": 68, "velocity": 100}, {"start": 176.47050000000002, "end": 176.66657833333335, "pitch": 65, "velocity": 100}, {"start": 176.7646175, "end": 176.96069583333335, "pitch": 68, "velocity": 100}, {"start": 177.058735, "end": 177.3528525, "pitch": 65, "velocity": 100}, {"start": 177.3528525, "end": 177.49991125000003, "pitch": 65, "velocity": 100}, {"start": 177.49991125000003, "end": 177.64697, "pitch": 65, "velocity": 100}, {"start": 177.64697, "end": 177.79402875000002, "pitch": 63, "velocity": 100}, {"start": 177.79402875000002, "end": 177.9410875, "pitch": 63, "velocity": 100}, {"start": 177.9410875, "end": 178.08814625000002, "pitch": 65, "velocity": 100}, {"start": 178.08814625000002, "end": 178.235205, "pitch": 63, "velocity": 100}, {"start": 178.38226375000002, "end": 178.5293225, "pitch": 61, "velocity": 100}, {"start": 178.5293225, "end": 178.67638125000002, "pitch": 58, "velocity": 100}, {"start": 179.1175575, "end": 179.26461625000002, "pitch": 58, "velocity": 100}, {"start": 179.26461625000002, "end": 179.411675, "pitch": 58, "velocity": 100}, {"start": 179.411675, "end": 179.55873375000002, "pitch": 58, "velocity": 100}, {"start": 179.7057925, "end": 179.85285125000001, "pitch": 56, "velocity": 100}, {"start": 180.29402750000003, "end": 180.44108625, "pitch": 56, "velocity": 100}, {"start": 180.46069408333335, "end": 180.60775283333334, "pitch": 60, "velocity": 100}, {"start": 180.88226250000002, "end": 181.02932125, "pitch": 58, "velocity": 100}, {"start": 181.47049750000002, "end": 181.61755625, "pitch": 58, "velocity": 100}, {"start": 181.61755625, "end": 181.76461500000002, "pitch": 58, "velocity": 100}, {"start": 181.76461500000002, "end": 181.91167375, "pitch": 61, "velocity": 100}, {"start": 181.98520312500003, "end": 182.132261875, "pitch": 58, "velocity": 100}, {"start": 182.20579125, "end": 182.35285000000002, "pitch": 58, "velocity": 100}, {"start": 182.35285000000002, "end": 182.49990875, "pitch": 61, "velocity": 100}, {"start": 182.57343812500002, "end": 182.720496875, "pitch": 58, "velocity": 100}, {"start": 182.79402625, "end": 182.94108500000002, "pitch": 58, "velocity": 100}, {"start": 182.94108500000002, "end": 183.08814375, "pitch": 61, "velocity": 100}, {"start": 183.2352025, "end": 183.38226125, "pitch": 58, "velocity": 100}]'),
(2896, '[{"start": 52.297245000000004, "end": 52.493190750000004, "pitch": 66, "velocity": 100}, {"start": 52.499947500000005, "end": 52.695893250000005, "pitch": 66, "velocity": 100}, {"start": 52.702650000000006, "end": 53.101298250000006, "pitch": 66, "velocity": 100}, {"start": 53.10805500000001, "end": 53.30400075000001, "pitch": 64, "velocity": 100}, {"start": 53.31075750000001, "end": 53.50670325000001, "pitch": 62, "velocity": 100}, {"start": 53.51346, "end": 53.91210825, "pitch": 62, "velocity": 100}, {"start": 53.918865000000004, "end": 54.722918250000006, "pitch": 66, "velocity": 100}, {"start": 55.540485000000004, "end": 55.939133250000005, "pitch": 66, "velocity": 100}, {"start": 55.945890000000006, "end": 56.20940325000001, "pitch": 66, "velocity": 100}, {"start": 56.21616, "end": 56.479673250000005, "pitch": 64, "velocity": 100}, {"start": 56.486430000000006, "end": 56.74994325000001, "pitch": 62, "velocity": 100}, {"start": 56.7567, "end": 57.560753250000005, "pitch": 66, "velocity": 100}, {"start": 58.783725000000004, "end": 59.182373250000005, "pitch": 64, "velocity": 100}, {"start": 59.189130000000006, "end": 59.45264325000001, "pitch": 64, "velocity": 100}, {"start": 59.4594, "end": 59.722913250000005, "pitch": 64, "velocity": 100}, {"start": 59.729670000000006, "end": 59.99318325000001, "pitch": 64, "velocity": 100}, {"start": 59.99994, "end": 60.39858825, "pitch": 64, "velocity": 100}, {"start": 60.405345000000004, "end": 61.20939825000001, "pitch": 66, "velocity": 100}, {"start": 62.026965000000004, "end": 62.222910750000004, "pitch": 66, "velocity": 100}, {"start": 62.229667500000005, "end": 62.425613250000005, "pitch": 66, "velocity": 100}, {"start": 62.432370000000006, "end": 62.69588325000001, "pitch": 66, "velocity": 100}, {"start": 62.70264, "end": 62.966153250000005, "pitch": 64, "velocity": 100}, {"start": 62.972910000000006, "end": 63.23642325000001, "pitch": 64, "velocity": 100}, {"start": 63.24318, "end": 63.43912575, "pitch": 64, "velocity": 100}, {"start": 63.4458825, "end": 63.64182825, "pitch": 62, "velocity": 100}, {"start": 63.648585000000004, "end": 64.45263825, "pitch": 59, "velocity": 100}, {"start": 65.270205, "end": 65.46615075000001, "pitch": 66, "velocity": 100}, {"start": 65.4729075, "end": 65.66885325000001, "pitch": 66, "velocity": 100}, {"start": 65.67561, "end": 66.07425825, "pitch": 66, "velocity": 100}, {"start": 66.08101500000001, "end": 66.27696075, "pitch": 64, "velocity": 100}, {"start": 66.28371750000001, "end": 66.47966325, "pitch": 62, "velocity": 100}, {"start": 66.48642000000001, "end": 66.88506825, "pitch": 62, "velocity": 100}, {"start": 66.89182500000001, "end": 67.69587825, "pitch": 66, "velocity": 100}, {"start": 68.3107425, "end": 68.50668825000001, "pitch": 57, "velocity": 100}, {"start": 68.513445, "end": 68.70939075000001, "pitch": 57, "velocity": 100}, {"start": 68.7161475, "end": 68.91209325000001, "pitch": 57, "velocity": 100}, {"start": 68.91885, "end": 69.18236325000001, "pitch": 66, "velocity": 100}, {"start": 69.18912, "end": 69.45263325, "pitch": 64, "velocity": 100}, {"start": 69.45939000000001, "end": 69.72290325, "pitch": 62, "velocity": 100}, {"start": 69.72966000000001, "end": 70.53371325, "pitch": 62, "velocity": 100}, {"start": 71.5539825, "end": 71.74992825000001, "pitch": 57, "velocity": 100}, {"start": 71.756685, "end": 71.95263075000001, "pitch": 64, "velocity": 100}, {"start": 71.9593875, "end": 72.15533325000001, "pitch": 64, "velocity": 100}, {"start": 72.16209, "end": 72.35803575000001, "pitch": 64, "velocity": 100}, {"start": 72.36479250000001, "end": 72.56073825, "pitch": 64, "velocity": 100}, {"start": 72.56749500000001, "end": 72.76344075, "pitch": 64, "velocity": 100}, {"start": 72.77019750000001, "end": 72.96614325, "pitch": 64, "velocity": 100}, {"start": 72.97290000000001, "end": 73.16884575, "pitch": 64, "velocity": 100}, {"start": 73.17560250000001, "end": 73.57425075, "pitch": 62, "velocity": 100}, {"start": 73.58100750000001, "end": 74.38506075000001, "pitch": 66, "velocity": 100}, {"start": 74.7972225, "end": 74.99316825000001, "pitch": 57, "velocity": 100}, {"start": 74.999925, "end": 75.19587075000001, "pitch": 66, "velocity": 100}, {"start": 75.2026275, "end": 75.39857325000001, "pitch": 66, "velocity": 100}, {"start": 75.40533, "end": 75.80397825, "pitch": 66, "velocity": 100}, {"start": 75.81073500000001, "end": 76.00668075, "pitch": 64, "velocity": 100}, {"start": 76.01343750000001, "end": 76.20938325, "pitch": 62, "velocity": 100}, {"start": 76.21614000000001, "end": 77.02019325, "pitch": 66, "velocity": 100}, {"start": 78.243165, "end": 78.43911075000001, "pitch": 66, "velocity": 100}, {"start": 78.4458675, "end": 78.64181325000001, "pitch": 66, "velocity": 100}, {"start": 78.64857, "end": 78.91208325000001, "pitch": 66, "velocity": 100}, {"start": 78.91884, "end": 79.18235325, "pitch": 67, "velocity": 100}, {"start": 79.18911000000001, "end": 79.45262325, "pitch": 66, "velocity": 100}, {"start": 79.45938000000001, "end": 79.65532575, "pitch": 67, "velocity": 100}, {"start": 79.66208250000001, "end": 80.66883825000001, "pitch": 66, "velocity": 100}, {"start": 81.2837025, "end": 81.47964825000001, "pitch": 57, "velocity": 100}, {"start": 81.486405, "end": 81.68235075000001, "pitch": 66, "velocity": 100}, {"start": 81.6891075, "end": 81.88505325000001, "pitch": 66, "velocity": 100}, {"start": 81.89181, "end": 82.08775575000001, "pitch": 66, "velocity": 100}, {"start": 82.09451250000001, "end": 82.49316075, "pitch": 64, "velocity": 100}, {"start": 82.49991750000001, "end": 83.50667325, "pitch": 64, "velocity": 100}, {"start": 84.9323475, "end": 85.12829325000001, "pitch": 59, "velocity": 100}, {"start": 85.13505, "end": 85.33099575000001, "pitch": 64, "velocity": 100}, {"start": 85.33775250000001, "end": 85.53369825000001, "pitch": 64, "velocity": 100}, {"start": 85.54045500000001, "end": 85.73640075, "pitch": 64, "velocity": 100}, {"start": 85.74315750000001, "end": 85.93910325, "pitch": 64, "velocity": 100}, {"start": 85.94586000000001, "end": 86.20937325000001, "pitch": 64, "velocity": 100}, {"start": 86.21613, "end": 86.47964325000001, "pitch": 64, "velocity": 100}, {"start": 86.4864, "end": 86.95261575, "pitch": 66, "velocity": 100}, {"start": 86.95937250000001, "end": 87.15531825000001, "pitch": 66, "velocity": 100}, {"start": 87.162075, "end": 87.35802075000001, "pitch": 66, "velocity": 100}, {"start": 87.3647775, "end": 87.56072325000001, "pitch": 66, "velocity": 100}, {"start": 87.56748, "end": 87.96612825000001, "pitch": 66, "velocity": 100}, {"start": 87.972885, "end": 88.16883075000001, "pitch": 66, "velocity": 100}, {"start": 88.1755875, "end": 88.37153325000001, "pitch": 66, "velocity": 100}, {"start": 88.37829, "end": 88.64180325000001, "pitch": 66, "velocity": 100}, {"start": 88.64856, "end": 88.91207325, "pitch": 64, "velocity": 100}, {"start": 88.91883000000001, "end": 89.38504575, "pitch": 64, "velocity": 100}, {"start": 89.39180250000001, "end": 89.48639700000001, "pitch": 64, "velocity": 100}, {"start": 89.49315375, "end": 89.58774825, "pitch": 62, "velocity": 100}, {"start": 89.59450500000001, "end": 90.80396325000001, "pitch": 59, "velocity": 100}, {"start": 91.216125, "end": 91.41207075000001, "pitch": 66, "velocity": 100}, {"start": 91.4188275, "end": 91.61477325000001, "pitch": 66, "velocity": 100}, {"start": 91.62153, "end": 91.88504325000001, "pitch": 66, "velocity": 100}, {"start": 91.8918, "end": 92.15531325, "pitch": 64, "velocity": 100}, {"start": 92.16207000000001, "end": 92.42558325, "pitch": 62, "velocity": 100}, {"start": 92.43234000000001, "end": 92.83098825, "pitch": 62, "velocity": 100}, {"start": 92.83774500000001, "end": 94.04720325000001, "pitch": 66, "velocity": 100}, {"start": 94.459365, "end": 94.65531075000001, "pitch": 57, "velocity": 100}, {"start": 94.6620675, "end": 94.85801325000001, "pitch": 57, "velocity": 100}, {"start": 94.86477000000001, "end": 95.12828325000001, "pitch": 66, "velocity": 100}, {"start": 95.13504, "end": 95.39855325, "pitch": 64, "velocity": 100}, {"start": 95.40531000000001, "end": 95.66882325, "pitch": 62, "velocity": 100}, {"start": 95.67558000000001, "end": 96.47963325, "pitch": 62, "velocity": 100}, {"start": 97.702605, "end": 97.89855075000001, "pitch": 64, "velocity": 100}, {"start": 97.9053075, "end": 98.10125325000001, "pitch": 64, "velocity": 100}, {"start": 98.10801000000001, "end": 98.30395575000001, "pitch": 64, "velocity": 100}, {"start": 98.31071250000001, "end": 98.50665825000002, "pitch": 64, "velocity": 100}, {"start": 98.51341500000001, "end": 98.70936075, "pitch": 64, "velocity": 100}, {"start": 98.71611750000001, "end": 98.91206325, "pitch": 64, "velocity": 100}, {"start": 98.91882000000001, "end": 99.11476575, "pitch": 64, "velocity": 100}, {"start": 99.12152250000001, "end": 99.52017075, "pitch": 62, "velocity": 100}, {"start": 99.52692750000001, "end": 100.53368325000001, "pitch": 66, "velocity": 100}, {"start": 100.7431425, "end": 100.93908825000001, "pitch": 66, "velocity": 100}, {"start": 100.945845, "end": 101.14179075000001, "pitch": 66, "velocity": 100}, {"start": 101.1485475, "end": 101.34449325000001, "pitch": 66, "velocity": 100}, {"start": 101.35125000000001, "end": 101.74989825000002, "pitch": 66, "velocity": 100}, {"start": 101.75665500000001, "end": 102.15530325, "pitch": 70, "velocity": 100}, {"start": 102.16206000000001, "end": 102.96611325, "pitch": 66, "velocity": 100}, {"start": 104.189085, "end": 104.38503075000001, "pitch": 67, "velocity": 100}, {"start": 104.3917875, "end": 104.58773325000001, "pitch": 67, "velocity": 100}, {"start": 104.79719250000001, "end": 104.99313825000002, "pitch": 67, "velocity": 100}, {"start": 104.99989500000001, "end": 105.19584075000002, "pitch": 67, "velocity": 100}, {"start": 105.20259750000001, "end": 105.80394825, "pitch": 67, "velocity": 100}, {"start": 105.81070500000001, "end": 106.20935325, "pitch": 67, "velocity": 100}, {"start": 106.21611000000001, "end": 106.61475825000001, "pitch": 69, "velocity": 100}, {"start": 106.62151500000002, "end": 106.81746075000001, "pitch": 67, "velocity": 100}, {"start": 106.8242175, "end": 107.22286575000001, "pitch": 67, "velocity": 100}, {"start": 107.2296225, "end": 107.83097325000001, "pitch": 66, "velocity": 100}, {"start": 109.86475500000002, "end": 110.06070075000001, "pitch": 66, "velocity": 100}, {"start": 110.0674575, "end": 110.26340325000001, "pitch": 66, "velocity": 100}, {"start": 110.27016, "end": 110.66880825000001, "pitch": 66, "velocity": 100}, {"start": 110.675565, "end": 110.87151075000001, "pitch": 64, "velocity": 100}, {"start": 110.8782675, "end": 111.47961825000002, "pitch": 64, "velocity": 100}, {"start": 113.10799500000002, "end": 113.30394075000001, "pitch": 64, "velocity": 100}, {"start": 113.3106975, "end": 113.50664325000001, "pitch": 64, "velocity": 100}, {"start": 113.5134, "end": 113.91204825000001, "pitch": 64, "velocity": 100}, {"start": 113.918805, "end": 114.11475075000001, "pitch": 62, "velocity": 100}, {"start": 114.1215075, "end": 114.72285825000002, "pitch": 62, "velocity": 100}, {"start": 116.75664, "end": 116.95258575000001, "pitch": 67, "velocity": 100}, {"start": 116.9593425, "end": 117.15528825000001, "pitch": 67, "velocity": 100}, {"start": 117.162045, "end": 117.35799075000001, "pitch": 67, "velocity": 100}, {"start": 117.36474750000001, "end": 117.56069325000001, "pitch": 67, "velocity": 100}, {"start": 117.77015250000001, "end": 117.96609825000002, "pitch": 67, "velocity": 100}, {"start": 117.97285500000001, "end": 118.16880075000002, "pitch": 67, "velocity": 100}, {"start": 118.17555750000001, "end": 118.77690825, "pitch": 67, "velocity": 100}, {"start": 118.78366500000001, "end": 119.18231325, "pitch": 67, "velocity": 100}, {"start": 119.18907000000002, "end": 119.58771825000001, "pitch": 69, "velocity": 100}, {"start": 119.59447500000002, "end": 119.99312325000001, "pitch": 67, "velocity": 100}, {"start": 119.99988, "end": 120.19582575000001, "pitch": 67, "velocity": 100}, {"start": 120.2025825, "end": 120.39852825000001, "pitch": 66, "velocity": 100}, {"start": 122.83771500000002, "end": 123.03366075000001, "pitch": 66, "velocity": 100}, {"start": 123.04041750000002, "end": 123.23636325000001, "pitch": 66, "velocity": 100}, {"start": 123.24312, "end": 123.64176825000001, "pitch": 66, "velocity": 100}, {"start": 123.648525, "end": 123.84447075000001, "pitch": 64, "velocity": 100}, {"start": 123.85122750000001, "end": 124.45257825000002, "pitch": 64, "velocity": 100}, {"start": 126.08095500000002, "end": 126.27690075000001, "pitch": 67, "velocity": 100}, {"start": 126.28365750000002, "end": 126.47960325000001, "pitch": 67, "velocity": 100}, {"start": 126.48636, "end": 126.88500825000001, "pitch": 67, "velocity": 100}, {"start": 126.891765, "end": 127.08771075000001, "pitch": 66, "velocity": 100}, {"start": 127.09446750000001, "end": 127.69581825000002, "pitch": 66, "velocity": 100}, {"start": 129.93230250000002, "end": 130.12824825, "pitch": 66, "velocity": 100}, {"start": 130.135005, "end": 130.33095075, "pitch": 66, "velocity": 100}, {"start": 130.33770750000002, "end": 130.53365325000001, "pitch": 66, "velocity": 100}, {"start": 130.54041, "end": 130.80392325000003, "pitch": 67, "velocity": 100}, {"start": 130.81068000000002, "end": 131.07419325, "pitch": 66, "velocity": 100}, {"start": 131.08095, "end": 131.34446325000002, "pitch": 67, "velocity": 100}, {"start": 131.35122, "end": 131.74986825000002, "pitch": 67, "velocity": 100}, {"start": 131.756625, "end": 132.56067825000002, "pitch": 66, "velocity": 100}, {"start": 133.1755425, "end": 133.37148825, "pitch": 66, "velocity": 100}, {"start": 133.37824500000002, "end": 133.77689325, "pitch": 66, "velocity": 100}, {"start": 133.78365000000002, "end": 134.04716325, "pitch": 66, "velocity": 100}, {"start": 134.05392, "end": 134.31743325000002, "pitch": 64, "velocity": 100}, {"start": 134.32419000000002, "end": 134.58770325, "pitch": 62, "velocity": 100}, {"start": 134.59446, "end": 135.39851325, "pitch": 66, "velocity": 100}, {"start": 136.41878250000002, "end": 136.61472825, "pitch": 64, "velocity": 100}, {"start": 136.621485, "end": 136.81743075, "pitch": 64, "velocity": 100}, {"start": 136.82418750000002, "end": 137.02013325000001, "pitch": 64, "velocity": 100}, {"start": 137.02689, "end": 137.22283575, "pitch": 66, "velocity": 100}, {"start": 137.22959250000002, "end": 137.42553825000002, "pitch": 64, "velocity": 100}, {"start": 137.432295, "end": 137.62824075, "pitch": 66, "velocity": 100}, {"start": 137.63499750000003, "end": 138.03364575, "pitch": 64, "velocity": 100}, {"start": 138.0404025, "end": 138.23634825000002, "pitch": 66, "velocity": 100}, {"start": 138.243105, "end": 138.43905075, "pitch": 64, "velocity": 100}, {"start": 138.4458075, "end": 138.84445575, "pitch": 66, "velocity": 100}, {"start": 140.0674275, "end": 140.26337325, "pitch": 66, "velocity": 100}, {"start": 140.27013000000002, "end": 140.53364325, "pitch": 66, "velocity": 100}, {"start": 140.5404, "end": 141.07418325, "pitch": 64, "velocity": 100}, {"start": 141.08094000000003, "end": 141.27688575000002, "pitch": 64, "velocity": 100}, {"start": 141.2836425, "end": 141.47958825, "pitch": 62, "velocity": 100}, {"start": 141.486345, "end": 142.29039825, "pitch": 59, "velocity": 100}, {"start": 143.107965, "end": 143.30391075, "pitch": 66, "velocity": 100}, {"start": 143.31066750000002, "end": 143.50661325000002, "pitch": 66, "velocity": 100}, {"start": 143.51337, "end": 143.91201825000002, "pitch": 66, "velocity": 100}, {"start": 143.918775, "end": 144.11472075, "pitch": 64, "velocity": 100}, {"start": 144.12147750000003, "end": 144.31742325000002, "pitch": 62, "velocity": 100}, {"start": 144.32418, "end": 144.72282825000002, "pitch": 62, "velocity": 100}, {"start": 144.72958500000001, "end": 145.53363825000002, "pitch": 66, "velocity": 100}, {"start": 146.35120500000002, "end": 147.02012325, "pitch": 66, "velocity": 100}, {"start": 147.02688, "end": 147.29039325000002, "pitch": 64, "velocity": 100}, {"start": 147.29715000000002, "end": 147.56066325, "pitch": 62, "velocity": 100}, {"start": 147.56742000000003, "end": 148.37147325, "pitch": 62, "velocity": 100}, {"start": 149.594445, "end": 149.99309325000002, "pitch": 64, "velocity": 100}, {"start": 149.99985, "end": 150.39849825000002, "pitch": 64, "velocity": 100}, {"start": 150.405255, "end": 150.60120075, "pitch": 64, "velocity": 100}, {"start": 150.60795750000003, "end": 150.80390325000002, "pitch": 62, "velocity": 100}, {"start": 150.81066, "end": 151.20930825000002, "pitch": 66, "velocity": 100}, {"start": 151.21606500000001, "end": 151.61471325000002, "pitch": 64, "velocity": 100}, {"start": 152.83768500000002, "end": 153.23633325, "pitch": 66, "velocity": 100}, {"start": 153.24309000000002, "end": 153.64173825, "pitch": 66, "velocity": 100}, {"start": 153.64849500000003, "end": 153.84444075000002, "pitch": 64, "velocity": 100}, {"start": 153.8511975, "end": 154.24984575000002, "pitch": 62, "velocity": 100}, {"start": 154.2566025, "end": 155.06065575000002, "pitch": 66, "velocity": 100}, {"start": 156.080925, "end": 156.27687075, "pitch": 66, "velocity": 100}, {"start": 156.28362750000002, "end": 156.47957325000002, "pitch": 66, "velocity": 100}, {"start": 156.48633, "end": 156.74984325000003, "pitch": 66, "velocity": 100}, {"start": 156.75660000000002, "end": 157.02011325, "pitch": 67, "velocity": 100}, {"start": 157.02687, "end": 157.29038325000002, "pitch": 66, "velocity": 100}, {"start": 157.29714, "end": 157.49308575, "pitch": 67, "velocity": 100}, {"start": 157.49984250000003, "end": 158.50659825000002, "pitch": 66, "velocity": 100}, {"start": 159.32416500000002, "end": 159.72281325, "pitch": 66, "velocity": 100}, {"start": 159.72957000000002, "end": 159.92551575000002, "pitch": 66, "velocity": 100}, {"start": 159.9322725, "end": 160.33092075000002, "pitch": 64, "velocity": 100}, {"start": 160.3376775, "end": 160.73632575000002, "pitch": 62, "velocity": 100}, {"start": 160.7430825, "end": 161.14173075000002, "pitch": 66, "velocity": 100}, {"start": 161.55389250000002, "end": 161.74983825, "pitch": 57, "velocity": 100}, {"start": 161.756595, "end": 162.15524325, "pitch": 57, "velocity": 100}, {"start": 162.77010750000002, "end": 162.96605325000002, "pitch": 59, "velocity": 100}, {"start": 162.97281, "end": 163.16875575, "pitch": 64, "velocity": 100}, {"start": 163.17551250000002, "end": 163.37145825000002, "pitch": 64, "velocity": 100}, {"start": 163.378215, "end": 163.57416075, "pitch": 64, "velocity": 100}, {"start": 163.58091750000003, "end": 163.77686325000002, "pitch": 64, "velocity": 100}, {"start": 163.78362, "end": 164.04713325, "pitch": 64, "velocity": 100}, {"start": 164.05389000000002, "end": 164.31740325, "pitch": 64, "velocity": 100}, {"start": 164.32416, "end": 164.99307825000002, "pitch": 66, "velocity": 100}, {"start": 165.6079425, "end": 165.80388825000003, "pitch": 62, "velocity": 100}, {"start": 165.81064500000002, "end": 166.00659075000002, "pitch": 66, "velocity": 100}, {"start": 166.0133475, "end": 166.20929325, "pitch": 66, "velocity": 100}, {"start": 166.21605000000002, "end": 166.47956325, "pitch": 66, "velocity": 100}, {"start": 166.48632, "end": 166.74983325000002, "pitch": 64, "velocity": 100}, {"start": 166.75659000000002, "end": 167.22280575000002, "pitch": 64, "velocity": 100}, {"start": 167.22956250000001, "end": 167.324157, "pitch": 64, "velocity": 100}, {"start": 167.33091375, "end": 167.42550825, "pitch": 62, "velocity": 100}, {"start": 167.432265, "end": 168.64172325, "pitch": 59, "velocity": 100}, {"start": 169.053885, "end": 169.45253325000002, "pitch": 66, "velocity": 100}, {"start": 169.45929, "end": 169.85793825000002, "pitch": 66, "velocity": 100}, {"start": 169.864695, "end": 170.26334325000002, "pitch": 66, "velocity": 100}, {"start": 170.2701, "end": 170.46604575, "pitch": 66, "velocity": 100}, {"start": 170.47280250000003, "end": 170.66874825000002, "pitch": 64, "velocity": 100}, {"start": 170.67550500000002, "end": 170.87145075, "pitch": 62, "velocity": 100}, {"start": 170.8782075, "end": 171.27685575, "pitch": 62, "velocity": 100}, {"start": 171.2836125, "end": 171.47955825000003, "pitch": 64, "velocity": 100}, {"start": 171.48631500000002, "end": 171.88496325000003, "pitch": 66, "velocity": 100}, {"start": 171.89172000000002, "end": 172.89847575000002, "pitch": 66, "velocity": 100}, {"start": 172.9052325, "end": 173.10117825, "pitch": 64, "velocity": 100}, {"start": 173.10793500000003, "end": 173.30388075000002, "pitch": 62, "velocity": 100}, {"start": 173.3106375, "end": 173.50658325, "pitch": 62, "velocity": 100}, {"start": 173.71604250000001, "end": 173.91198825, "pitch": 59, "velocity": 100}, {"start": 173.91874500000003, "end": 174.31739325, "pitch": 57, "velocity": 100}, {"start": 175.540365, "end": 175.73631075000003, "pitch": 64, "velocity": 100}, {"start": 175.74306750000002, "end": 175.93901325000002, "pitch": 64, "velocity": 100}, {"start": 175.94577, "end": 176.34441825000002, "pitch": 64, "velocity": 100}, {"start": 176.351175, "end": 176.54712075, "pitch": 64, "velocity": 100}, {"start": 176.55387750000003, "end": 176.74982325000002, "pitch": 64, "velocity": 100}, {"start": 176.75658, "end": 176.95252575, "pitch": 64, "velocity": 100}, {"start": 176.95928250000003, "end": 177.15522825000002, "pitch": 64, "velocity": 100}, {"start": 177.16198500000002, "end": 177.35793075, "pitch": 64, "velocity": 100}, {"start": 177.3646875, "end": 177.56063325000002, "pitch": 62, "velocity": 100}, {"start": 177.56739000000002, "end": 177.96603825000003, "pitch": 66, "velocity": 100}, {"start": 178.78360500000002, "end": 178.97955075000002, "pitch": 66, "velocity": 100}, {"start": 178.9863075, "end": 179.18225325, "pitch": 66, "velocity": 100}, {"start": 179.18901000000002, "end": 179.58765825, "pitch": 66, "velocity": 100}, {"start": 179.59441500000003, "end": 179.99306325, "pitch": 70, "velocity": 100}, {"start": 179.99982000000003, "end": 180.80387325, "pitch": 64, "velocity": 100}, {"start": 180.81063, "end": 181.61468325, "pitch": 66, "velocity": 100}, {"start": 182.026845, "end": 182.22279075000003, "pitch": 67, "velocity": 100}, {"start": 182.22954750000002, "end": 182.42549325000002, "pitch": 67, "velocity": 100}, {"start": 182.63495250000003, "end": 182.83089825000002, "pitch": 67, "velocity": 100}, {"start": 182.837655, "end": 183.03360075, "pitch": 67, "velocity": 100}, {"start": 183.04035750000003, "end": 183.64170825000002, "pitch": 67, "velocity": 100}, {"start": 183.64846500000002, "end": 184.04711325000002, "pitch": 67, "velocity": 100}, {"start": 184.05387000000002, "end": 184.45251825000003, "pitch": 69, "velocity": 100}, {"start": 184.45927500000002, "end": 184.65522075, "pitch": 67, "velocity": 100}, {"start": 184.6619775, "end": 185.06062575, "pitch": 67, "velocity": 100}, {"start": 185.0673825, "end": 185.66873325, "pitch": 66, "velocity": 100}, {"start": 187.702515, "end": 187.89846075000003, "pitch": 66, "velocity": 100}, {"start": 187.90521750000002, "end": 188.10116325, "pitch": 66, "velocity": 100}, {"start": 188.10792, "end": 188.50656825000002, "pitch": 66, "velocity": 100}, {"start": 188.513325, "end": 188.70927075000003, "pitch": 64, "velocity": 100}, {"start": 188.71602750000002, "end": 189.31737825000002, "pitch": 64, "velocity": 100}, {"start": 190.94575500000002, "end": 191.14170075, "pitch": 64, "velocity": 100}, {"start": 191.1484575, "end": 191.34440325000003, "pitch": 64, "velocity": 100}, {"start": 191.35116000000002, "end": 191.74980825000003, "pitch": 64, "velocity": 100}, {"start": 191.75656500000002, "end": 191.95251075000002, "pitch": 62, "velocity": 100}, {"start": 191.9592675, "end": 192.56061825, "pitch": 62, "velocity": 100}, {"start": 194.5944, "end": 194.79034575000003, "pitch": 67, "velocity": 100}, {"start": 194.79710250000002, "end": 194.99304825000002, "pitch": 67, "velocity": 100}, {"start": 194.999805, "end": 195.19575075000003, "pitch": 67, "velocity": 100}, {"start": 195.20250750000002, "end": 195.39845325000002, "pitch": 67, "velocity": 100}, {"start": 195.60791250000003, "end": 195.80385825000002, "pitch": 67, "velocity": 100}, {"start": 195.810615, "end": 196.00656075, "pitch": 67, "velocity": 100}, {"start": 196.01331750000003, "end": 196.61466825000002, "pitch": 67, "velocity": 100}, {"start": 196.62142500000002, "end": 197.02007325000002, "pitch": 67, "velocity": 100}, {"start": 197.02683000000002, "end": 197.42547825000003, "pitch": 69, "velocity": 100}, {"start": 197.43223500000002, "end": 197.83088325000003, "pitch": 67, "velocity": 100}, {"start": 197.83764000000002, "end": 198.03358575000001, "pitch": 67, "velocity": 100}, {"start": 198.0403425, "end": 198.23628825000003, "pitch": 66, "velocity": 100}, {"start": 200.675475, "end": 200.87142075000003, "pitch": 66, "velocity": 100}, {"start": 200.87817750000002, "end": 201.07412325, "pitch": 66, "velocity": 100}, {"start": 201.08088, "end": 201.47952825000002, "pitch": 66, "velocity": 100}, {"start": 201.486285, "end": 201.68223075000003, "pitch": 64, "velocity": 100}, {"start": 201.68898750000002, "end": 202.29033825000002, "pitch": 64, "velocity": 100}, {"start": 203.91871500000002, "end": 204.11466075, "pitch": 67, "velocity": 100}, {"start": 204.1214175, "end": 204.31736325000003, "pitch": 67, "velocity": 100}, {"start": 204.32412000000002, "end": 204.72276825000003, "pitch": 67, "velocity": 100}, {"start": 204.72952500000002, "end": 204.92547075000002, "pitch": 66, "velocity": 100}, {"start": 204.9322275, "end": 205.93898325, "pitch": 66, "velocity": 100}, {"start": 207.972765, "end": 208.16871075000003, "pitch": 66, "velocity": 100}, {"start": 208.17546750000002, "end": 208.57411575000003, "pitch": 67, "velocity": 100}, {"start": 208.58087250000003, "end": 208.97952075, "pitch": 67, "velocity": 100}, {"start": 208.98627750000003, "end": 209.18222325000002, "pitch": 66, "velocity": 100}, {"start": 209.18898000000002, "end": 209.58762825000002, "pitch": 67, "velocity": 100}, {"start": 209.59438500000002, "end": 209.99303325000002, "pitch": 66, "velocity": 100}, {"start": 211.0133025, "end": 211.20924825000003, "pitch": 52, "velocity": 100}, {"start": 211.21600500000002, "end": 211.41195075000002, "pitch": 66, "velocity": 100}, {"start": 211.4187075, "end": 211.81735575000002, "pitch": 66, "velocity": 100}, {"start": 211.8241125, "end": 212.22276075000002, "pitch": 66, "velocity": 100}, {"start": 212.22951750000001, "end": 212.42546325, "pitch": 64, "velocity": 100}, {"start": 212.43222000000003, "end": 212.83086825, "pitch": 66, "velocity": 100}, {"start": 213.04032750000002, "end": 213.23627325, "pitch": 52, "velocity": 100}, {"start": 213.24303000000003, "end": 213.43897575000003, "pitch": 54, "velocity": 100}, {"start": 213.44573250000002, "end": 213.84438075000003, "pitch": 54, "velocity": 100}, {"start": 214.459245, "end": 214.65519075000003, "pitch": 66, "velocity": 100}, {"start": 214.66194750000003, "end": 214.85789325000002, "pitch": 64, "velocity": 100}, {"start": 214.86465, "end": 215.26329825000002, "pitch": 64, "velocity": 100}, {"start": 215.270055, "end": 215.66870325000002, "pitch": 64, "velocity": 100}, {"start": 215.67546000000002, "end": 215.97275700000003, "pitch": 66, "velocity": 100}, {"start": 215.97951375000002, "end": 216.17545950000002, "pitch": 64, "velocity": 100}, {"start": 216.18221625, "end": 216.47951325000002, "pitch": 64, "velocity": 100}, {"start": 216.48627000000002, "end": 216.88491825000003, "pitch": 66, "velocity": 100}, {"start": 217.70248500000002, "end": 217.89843075000002, "pitch": 66, "velocity": 100}, {"start": 217.9051875, "end": 218.10113325000003, "pitch": 66, "velocity": 100}, {"start": 218.10789000000003, "end": 218.30383575000002, "pitch": 66, "velocity": 100}, {"start": 218.3105925, "end": 218.70924075000002, "pitch": 64, "velocity": 100}, {"start": 218.71599750000001, "end": 218.91194325, "pitch": 62, "velocity": 100}, {"start": 218.91870000000003, "end": 219.31734825, "pitch": 62, "velocity": 100}, {"start": 220.74302250000002, "end": 220.93896825000002, "pitch": 62, "velocity": 100}, {"start": 220.945725, "end": 221.14167075000003, "pitch": 66, "velocity": 100}, {"start": 221.14842750000003, "end": 221.34437325000002, "pitch": 66, "velocity": 100}, {"start": 221.35113, "end": 221.74977825000002, "pitch": 66, "velocity": 100}, {"start": 221.756535, "end": 222.15518325000002, "pitch": 64, "velocity": 100}, {"start": 222.16194000000002, "end": 222.56058825000002, "pitch": 62, "velocity": 100}, {"start": 222.56734500000002, "end": 222.96599325000003, "pitch": 66, "velocity": 100}, {"start": 223.9862625, "end": 224.18220825000003, "pitch": 54, "velocity": 100}, {"start": 224.18896500000002, "end": 224.58761325000003, "pitch": 66, "velocity": 100}, {"start": 224.59437000000003, "end": 224.85788325000001, "pitch": 64, "velocity": 100}, {"start": 224.86464, "end": 225.12815325000003, "pitch": 64, "velocity": 100}, {"start": 225.13491000000002, "end": 225.39842325, "pitch": 62, "velocity": 100}, {"start": 225.40518000000003, "end": 225.80382825, "pitch": 62, "velocity": 100}, {"start": 227.22950250000002, "end": 227.42544825000002, "pitch": 52, "velocity": 100}, {"start": 227.432205, "end": 227.83085325000002, "pitch": 64, "velocity": 100}, {"start": 227.83761, "end": 228.10112325000003, "pitch": 64, "velocity": 100}, {"start": 228.10788000000002, "end": 228.37139325, "pitch": 64, "velocity": 100}, {"start": 228.37815000000003, "end": 228.84436575, "pitch": 62, "velocity": 100}, {"start": 228.85112250000003, "end": 229.24977075, "pitch": 64, "velocity": 100}, {"start": 229.25652750000003, "end": 229.45247325000003, "pitch": 62, "velocity": 100}, {"start": 229.45923000000002, "end": 229.85787825000003, "pitch": 66, "velocity": 100}, {"start": 229.86463500000002, "end": 230.06058075, "pitch": 66, "velocity": 100}, {"start": 230.0673375, "end": 230.26328325000003, "pitch": 62, "velocity": 100}, {"start": 230.27004000000002, "end": 230.66868825000003, "pitch": 66, "velocity": 100}, {"start": 230.67544500000002, "end": 231.07409325000003, "pitch": 66, "velocity": 100}, {"start": 231.2835525, "end": 231.68220075000002, "pitch": 66, "velocity": 100}, {"start": 231.68895750000001, "end": 231.88490325, "pitch": 64, "velocity": 100}, {"start": 231.89166000000003, "end": 232.29030825, "pitch": 66, "velocity": 100}, {"start": 233.918685, "end": 234.31733325000002, "pitch": 66, "velocity": 100}, {"start": 234.32409, "end": 234.58760325000003, "pitch": 66, "velocity": 100}, {"start": 234.59436000000002, "end": 234.85787325, "pitch": 67, "velocity": 100}, {"start": 234.86463000000003, "end": 235.12814325000002, "pitch": 66, "velocity": 100}, {"start": 235.13490000000002, "end": 235.53354825000002, "pitch": 67, "velocity": 100}, {"start": 235.54030500000002, "end": 236.14165575, "pitch": 66, "velocity": 100}, {"start": 236.35111500000002, "end": 236.54706075, "pitch": 54, "velocity": 100}, {"start": 236.5538175, "end": 236.74976325000003, "pitch": 59, "velocity": 100}, {"start": 237.16192500000002, "end": 237.35787075000002, "pitch": 66, "velocity": 100}, {"start": 237.3646275, "end": 237.76327575000002, "pitch": 66, "velocity": 100}, {"start": 237.7700325, "end": 237.96597825000003, "pitch": 66, "velocity": 100}, {"start": 237.97273500000003, "end": 238.37138325, "pitch": 64, "velocity": 100}, {"start": 238.37814000000003, "end": 238.77678825, "pitch": 66, "velocity": 100}, {"start": 240.60786750000003, "end": 240.80381325000002, "pitch": 64, "velocity": 100}, {"start": 240.81057, "end": 241.00651575000003, "pitch": 64, "velocity": 100}, {"start": 241.01327250000003, "end": 241.20921825000002, "pitch": 64, "velocity": 100}, {"start": 241.21597500000001, "end": 241.41192075000004, "pitch": 64, "velocity": 100}, {"start": 241.41867750000003, "end": 241.61462325000002, "pitch": 64, "velocity": 100}, {"start": 241.62138000000002, "end": 241.81732575, "pitch": 64, "velocity": 100}, {"start": 241.82408250000003, "end": 242.22273075, "pitch": 64, "velocity": 100}, {"start": 242.22948750000003, "end": 242.62813575, "pitch": 66, "velocity": 100}, {"start": 242.83759500000002, "end": 243.03354075000001, "pitch": 66, "velocity": 100}, {"start": 243.0402975, "end": 243.23624325000003, "pitch": 66, "velocity": 100}, {"start": 243.24300000000002, "end": 243.64164825000003, "pitch": 66, "velocity": 100}, {"start": 243.64840500000003, "end": 244.04705325000003, "pitch": 66, "velocity": 100}, {"start": 244.05381000000003, "end": 244.24975575000002, "pitch": 66, "velocity": 100}, {"start": 244.2565125, "end": 244.45245825000003, "pitch": 64, "velocity": 100}, {"start": 244.45921500000003, "end": 244.65516075000002, "pitch": 62, "velocity": 100}, {"start": 244.66191750000002, "end": 245.06056575000002, "pitch": 64, "velocity": 100}, {"start": 245.06732250000002, "end": 245.26326825, "pitch": 62, "velocity": 100}, {"start": 245.27002500000003, "end": 245.66867325, "pitch": 59, "velocity": 100}, {"start": 246.891645, "end": 247.08759075000003, "pitch": 62, "velocity": 100}, {"start": 247.09434750000003, "end": 247.69569825000002, "pitch": 66, "velocity": 100}, {"start": 247.70245500000001, "end": 247.89840075000004, "pitch": 64, "velocity": 100}, {"start": 247.90515750000003, "end": 248.10110325000002, "pitch": 62, "velocity": 100}, {"start": 248.10786000000002, "end": 248.50650825000002, "pitch": 62, "velocity": 100}, {"start": 248.51326500000002, "end": 248.91191325000003, "pitch": 66, "velocity": 100}, {"start": 249.32407500000002, "end": 249.52002075000001, "pitch": 62, "velocity": 100}, {"start": 249.5267775, "end": 250.12812825000003, "pitch": 57, "velocity": 100}, {"start": 250.13488500000003, "end": 250.33083075000002, "pitch": 62, "velocity": 100}, {"start": 250.3375875, "end": 250.73623575000002, "pitch": 62, "velocity": 100}, {"start": 250.7429925, "end": 251.14164075000002, "pitch": 62, "velocity": 100}, {"start": 251.14839750000002, "end": 251.34434325, "pitch": 59, "velocity": 100}, {"start": 251.35110000000003, "end": 251.74974825, "pitch": 62, "velocity": 100}, {"start": 253.378125, "end": 253.57407075000003, "pitch": 64, "velocity": 100}, {"start": 253.58082750000003, "end": 253.77677325000002, "pitch": 64, "velocity": 100}, {"start": 253.78353, "end": 253.97947575000003, "pitch": 64, "velocity": 100}, {"start": 253.98623250000003, "end": 254.18217825000002, "pitch": 64, "velocity": 100}, {"start": 254.18893500000001, "end": 254.38488075000004, "pitch": 64, "velocity": 100}, {"start": 254.39163750000003, "end": 254.79028575, "pitch": 62, "velocity": 100}, {"start": 254.79704250000003, "end": 255.19569075, "pitch": 64, "velocity": 100}, {"start": 255.20244750000003, "end": 255.39839325000003, "pitch": 62, "velocity": 100}, {"start": 255.40515000000002, "end": 255.60109575, "pitch": 64, "velocity": 100}, {"start": 255.60785250000004, "end": 256.00650075000004, "pitch": 66, "velocity": 100}, {"start": 256.41866250000004, "end": 256.61460825, "pitch": 66, "velocity": 100}, {"start": 256.621365, "end": 256.81731075000005, "pitch": 66, "velocity": 100}, {"start": 256.8240675, "end": 257.02001325000003, "pitch": 66, "velocity": 100}, {"start": 257.22947250000004, "end": 257.42541825, "pitch": 70, "velocity": 100}, {"start": 257.43217500000003, "end": 257.62812075000005, "pitch": 66, "velocity": 100}, {"start": 257.83758, "end": 258.03352575, "pitch": 66, "velocity": 100}, {"start": 258.04028250000005, "end": 258.23622825, "pitch": 64, "velocity": 100}, {"start": 258.24298500000003, "end": 258.64163325000004, "pitch": 66, "velocity": 100}]'),
(5879, '[{"start": 4.28571, "end": 4.6874953125, "pitch": 67, "velocity": 75}, {"start": 4.714281000000001, "end": 5.937494062500001, "pitch": 68, "velocity": 75}, {"start": 6.857136000000001, "end": 7.651778062500001, "pitch": 68, "velocity": 75}, {"start": 7.714278, "end": 9.8303473125, "pitch": 67, "velocity": 75}, {"start": 12.428559000000002, "end": 12.830344312500001, "pitch": 65, "velocity": 75}, {"start": 12.857130000000002, "end": 13.258915312500001, "pitch": 63, "velocity": 75}, {"start": 13.285701000000001, "end": 13.6874863125, "pitch": 61, "velocity": 75}, {"start": 13.714272000000001, "end": 14.1160573125, "pitch": 60, "velocity": 75}, {"start": 14.142843000000001, "end": 15.3303418125, "pitch": 58, "velocity": 75}, {"start": 17.571411, "end": 17.9731963125, "pitch": 72, "velocity": 75}, {"start": 17.999982000000003, "end": 18.401767312500002, "pitch": 72, "velocity": 75}, {"start": 18.428553, "end": 18.8303383125, "pitch": 68, "velocity": 75}, {"start": 18.857124000000002, "end": 19.9196229375, "pitch": 75, "velocity": 75}, {"start": 20.142837, "end": 20.348193937500003, "pitch": 70, "velocity": 75}, {"start": 20.357122500000003, "end": 20.9731933125, "pitch": 72, "velocity": 75}, {"start": 20.999979000000003, "end": 21.205335937500003, "pitch": 70, "velocity": 75}, {"start": 21.214264500000002, "end": 21.8303353125, "pitch": 72, "velocity": 75}, {"start": 21.857121000000003, "end": 22.062477937500002, "pitch": 70, "velocity": 75}, {"start": 22.071406500000002, "end": 22.4910489375, "pitch": 72, "velocity": 75}, {"start": 22.499977500000004, "end": 22.901762812500003, "pitch": 70, "velocity": 75}, {"start": 23.142834, "end": 23.348190937500004, "pitch": 72, "velocity": 75}, {"start": 23.357119500000003, "end": 23.562476437500003, "pitch": 73, "velocity": 75}, {"start": 23.571405000000002, "end": 23.9731903125, "pitch": 70, "velocity": 75}, {"start": 23.999976000000004, "end": 24.598189687500003, "pitch": 68, "velocity": 75}, {"start": 24.857118000000003, "end": 25.258903312500003, "pitch": 72, "velocity": 75}, {"start": 25.285689, "end": 25.6874743125, "pitch": 68, "velocity": 75}, {"start": 25.714260000000003, "end": 26.116045312500002, "pitch": 75, "velocity": 75}, {"start": 26.142831, "end": 26.5446163125, "pitch": 70, "velocity": 75}, {"start": 26.571402000000003, "end": 26.973187312500002, "pitch": 70, "velocity": 75}, {"start": 27.428544000000002, "end": 27.8303293125, "pitch": 72, "velocity": 75}, {"start": 27.857115000000004, "end": 28.062471937500003, "pitch": 70, "velocity": 75}, {"start": 28.071400500000003, "end": 28.4910429375, "pitch": 72, "velocity": 75}, {"start": 28.4999715, "end": 28.705328437500004, "pitch": 70, "velocity": 75}, {"start": 28.714257000000003, "end": 29.116042312500003, "pitch": 72, "velocity": 75}, {"start": 29.142828, "end": 29.3481849375, "pitch": 72, "velocity": 75}, {"start": 29.357113500000004, "end": 29.562470437500004, "pitch": 70, "velocity": 75}, {"start": 29.571399000000003, "end": 29.973184312500003, "pitch": 70, "velocity": 75}, {"start": 31.285683000000002, "end": 31.687468312500002, "pitch": 80, "velocity": 75}, {"start": 31.714254000000004, "end": 32.1160393125, "pitch": 79, "velocity": 75}, {"start": 32.142825, "end": 32.544610312500005, "pitch": 77, "velocity": 75}, {"start": 32.571396, "end": 33.3660380625, "pitch": 75, "velocity": 75}, {"start": 33.857109, "end": 34.0624659375, "pitch": 70, "velocity": 75}, {"start": 34.071394500000004, "end": 34.6874653125, "pitch": 72, "velocity": 75}, {"start": 34.714251000000004, "end": 34.919607937500004, "pitch": 70, "velocity": 75}, {"start": 34.9285365, "end": 35.544607312500005, "pitch": 72, "velocity": 75}, {"start": 35.571393, "end": 35.7767499375, "pitch": 70, "velocity": 75}, {"start": 35.7856785, "end": 36.205320937500005, "pitch": 72, "velocity": 75}, {"start": 36.2142495, "end": 36.8124631875, "pitch": 73, "velocity": 75}, {"start": 36.857106, "end": 37.258891312500005, "pitch": 72, "velocity": 75}, {"start": 38.142819, "end": 38.544604312500006, "pitch": 80, "velocity": 75}, {"start": 38.57139, "end": 38.973175312500004, "pitch": 80, "velocity": 75}, {"start": 38.999961000000006, "end": 39.205317937500006, "pitch": 80, "velocity": 75}, {"start": 39.2142465, "end": 39.8303173125, "pitch": 82, "velocity": 75}, {"start": 39.857103, "end": 40.4553166875, "pitch": 80, "velocity": 75}, {"start": 40.9285305, "end": 41.1338874375, "pitch": 80, "velocity": 75}, {"start": 41.142816, "end": 41.3481729375, "pitch": 80, "velocity": 75}, {"start": 41.357101500000006, "end": 41.562458437500005, "pitch": 82, "velocity": 75}, {"start": 41.571387, "end": 41.7767439375, "pitch": 82, "velocity": 75}, {"start": 41.785672500000004, "end": 41.9910294375, "pitch": 82, "velocity": 75}, {"start": 41.99995800000001, "end": 42.205314937500006, "pitch": 82, "velocity": 75}, {"start": 42.2142435, "end": 42.616028812500005, "pitch": 80, "velocity": 75}, {"start": 42.6428145, "end": 44.437455562500006, "pitch": 82, "velocity": 75}, {"start": 44.99995500000001, "end": 45.4017403125, "pitch": 84, "velocity": 75}, {"start": 45.428526000000005, "end": 45.8303113125, "pitch": 82, "velocity": 75}, {"start": 45.857097, "end": 46.258882312500006, "pitch": 80, "velocity": 75}, {"start": 46.285668, "end": 46.687453312500004, "pitch": 80, "velocity": 75}, {"start": 46.714239000000006, "end": 47.1160243125, "pitch": 80, "velocity": 75}, {"start": 47.142810000000004, "end": 47.348166937500004, "pitch": 80, "velocity": 75}, {"start": 47.35709550000001, "end": 47.562452437500006, "pitch": 79, "velocity": 75}, {"start": 47.571381, "end": 48.4017373125, "pitch": 80, "velocity": 75}, {"start": 48.428523000000006, "end": 48.8303083125, "pitch": 80, "velocity": 75}, {"start": 48.857094000000004, "end": 49.25887931250001, "pitch": 80, "velocity": 75}, {"start": 49.285665, "end": 49.4910219375, "pitch": 80, "velocity": 75}, {"start": 49.499950500000004, "end": 49.705307437500004, "pitch": 79, "velocity": 75}, {"start": 49.71423600000001, "end": 50.1160213125, "pitch": 80, "velocity": 75}, {"start": 50.142807000000005, "end": 51.3303058125, "pitch": 79, "velocity": 75}, {"start": 51.857091000000004, "end": 52.25887631250001, "pitch": 84, "velocity": 75}, {"start": 52.285662, "end": 52.687447312500005, "pitch": 82, "velocity": 75}, {"start": 52.71423300000001, "end": 53.1160183125, "pitch": 80, "velocity": 75}, {"start": 53.142804000000005, "end": 53.348160937500005, "pitch": 80, "velocity": 75}, {"start": 53.35708950000001, "end": 53.56244643750001, "pitch": 79, "velocity": 75}, {"start": 53.571375, "end": 53.7767319375, "pitch": 80, "velocity": 75}, {"start": 53.785660500000006, "end": 53.991017437500005, "pitch": 79, "velocity": 75}, {"start": 53.999946, "end": 54.401731312500004, "pitch": 80, "velocity": 75}, {"start": 54.42851700000001, "end": 54.633873937500006, "pitch": 80, "velocity": 75}, {"start": 54.6428025, "end": 54.8481594375, "pitch": 79, "velocity": 75}, {"start": 54.857088000000005, "end": 55.25887331250001, "pitch": 80, "velocity": 75}, {"start": 55.285659, "end": 55.687444312500006, "pitch": 80, "velocity": 75}, {"start": 55.71423000000001, "end": 55.91958693750001, "pitch": 80, "velocity": 75}, {"start": 55.9285155, "end": 56.330300812500006, "pitch": 82, "velocity": 75}, {"start": 56.3570865, "end": 56.7767289375, "pitch": 80, "velocity": 75}, {"start": 56.785657500000006, "end": 57.1874428125, "pitch": 79, "velocity": 75}, {"start": 57.214228500000004, "end": 58.2231560625, "pitch": 79, "velocity": 75}, {"start": 58.71422700000001, "end": 59.116012312500004, "pitch": 84, "velocity": 75}, {"start": 59.142798000000006, "end": 59.5445833125, "pitch": 82, "velocity": 75}, {"start": 59.571369000000004, "end": 59.97315431250001, "pitch": 80, "velocity": 75}, {"start": 59.99994, "end": 60.2052969375, "pitch": 80, "velocity": 75}, {"start": 60.214225500000005, "end": 60.419582437500004, "pitch": 77, "velocity": 75}, {"start": 60.42851100000001, "end": 60.63386793750001, "pitch": 80, "velocity": 75}, {"start": 60.6427965, "end": 60.8481534375, "pitch": 77, "velocity": 75}, {"start": 60.857082000000005, "end": 61.25886731250001, "pitch": 80, "velocity": 75}, {"start": 61.285653, "end": 61.4910099375, "pitch": 77, "velocity": 75}, {"start": 61.499938500000006, "end": 61.705295437500006, "pitch": 80, "velocity": 75}, {"start": 61.928509500000004, "end": 62.33029481250001, "pitch": 80, "velocity": 75}, {"start": 62.3570805, "end": 62.776722937500004, "pitch": 80, "velocity": 75}, {"start": 62.78565150000001, "end": 63.1874368125, "pitch": 80, "velocity": 75}, {"start": 63.214222500000005, "end": 63.63386493750001, "pitch": 82, "velocity": 75}, {"start": 63.6427935, "end": 63.8481504375, "pitch": 80, "velocity": 75}, {"start": 63.857079000000006, "end": 64.0624359375, "pitch": 82, "velocity": 75}, {"start": 64.0713645, "end": 64.2767214375, "pitch": 80, "velocity": 75}, {"start": 64.28565, "end": 64.6874353125, "pitch": 82, "velocity": 75}, {"start": 64.71422100000001, "end": 64.91957793750001, "pitch": 80, "velocity": 75}, {"start": 64.92850650000001, "end": 65.3481489375, "pitch": 84, "velocity": 75}, {"start": 65.3570775, "end": 65.7588628125, "pitch": 82, "velocity": 75}, {"start": 65.78564850000001, "end": 65.99100543750001, "pitch": 80, "velocity": 75}, {"start": 65.99993400000001, "end": 66.4017193125, "pitch": 82, "velocity": 75}, {"start": 66.428505, "end": 66.6338619375, "pitch": 80, "velocity": 75}, {"start": 66.6427905, "end": 67.0624329375, "pitch": 84, "velocity": 75}, {"start": 67.07136150000001, "end": 67.27671843750001, "pitch": 85, "velocity": 75}, {"start": 67.28564700000001, "end": 67.49100393750001, "pitch": 84, "velocity": 75}, {"start": 67.4999325, "end": 67.7052894375, "pitch": 82, "velocity": 75}, {"start": 67.714218, "end": 68.5088600625, "pitch": 80, "velocity": 75}, {"start": 68.999931, "end": 69.4017163125, "pitch": 80, "velocity": 68}, {"start": 69.42850200000001, "end": 69.8302873125, "pitch": 80, "velocity": 68}, {"start": 69.857073, "end": 70.0624299375, "pitch": 80, "velocity": 68}, {"start": 70.0713585, "end": 70.4910009375, "pitch": 80, "velocity": 68}, {"start": 70.49992950000001, "end": 71.9374280625, "pitch": 79, "velocity": 68}, {"start": 74.14278300000001, "end": 74.5445683125, "pitch": 72, "velocity": 75}, {"start": 74.571354, "end": 74.97313931250001, "pitch": 72, "velocity": 75}, {"start": 74.999925, "end": 75.4017103125, "pitch": 68, "velocity": 75}, {"start": 75.42849600000001, "end": 76.4909949375, "pitch": 75, "velocity": 75}, {"start": 76.71420900000001, "end": 76.91956593750001, "pitch": 70, "velocity": 75}, {"start": 76.9284945, "end": 77.13385143750001, "pitch": 70, "velocity": 75}, {"start": 77.14278, "end": 77.54456531250001, "pitch": 72, "velocity": 75}, {"start": 77.571351, "end": 77.7767079375, "pitch": 70, "velocity": 75}, {"start": 77.78563650000001, "end": 78.40170731250001, "pitch": 72, "velocity": 75}, {"start": 78.428493, "end": 78.6338499375, "pitch": 70, "velocity": 75}, {"start": 78.6427785, "end": 79.06242093750001, "pitch": 72, "velocity": 75}, {"start": 79.07134950000001, "end": 79.6695631875, "pitch": 70, "velocity": 75}, {"start": 79.714206, "end": 80.1159913125, "pitch": 72, "velocity": 75}, {"start": 80.14277700000001, "end": 80.34813393750001, "pitch": 73, "velocity": 75}, {"start": 80.35706250000001, "end": 80.7767049375, "pitch": 72, "velocity": 75}, {"start": 80.999919, "end": 81.4017043125, "pitch": 72, "velocity": 75}, {"start": 81.42849000000001, "end": 81.8302753125, "pitch": 72, "velocity": 75}, {"start": 81.857061, "end": 82.25884631250001, "pitch": 68, "velocity": 75}, {"start": 82.285632, "end": 83.08027406250001, "pitch": 75, "velocity": 75}, {"start": 83.78563050000001, "end": 83.99098743750001, "pitch": 70, "velocity": 75}, {"start": 83.99991600000001, "end": 84.40170131250001, "pitch": 72, "velocity": 75}, {"start": 84.428487, "end": 84.6338439375, "pitch": 70, "velocity": 75}, {"start": 84.6427725, "end": 85.06241493750001, "pitch": 72, "velocity": 75}, {"start": 85.07134350000001, "end": 85.47312881250001, "pitch": 70, "velocity": 75}, {"start": 85.4999145, "end": 85.9195569375, "pitch": 72, "velocity": 75}, {"start": 85.92848550000001, "end": 86.3302708125, "pitch": 70, "velocity": 75}, {"start": 86.35705650000001, "end": 86.7766989375, "pitch": 72, "velocity": 75}, {"start": 86.7856275, "end": 87.18741281250001, "pitch": 73, "velocity": 75}, {"start": 87.21419850000001, "end": 87.83026931250001, "pitch": 75, "velocity": 75}, {"start": 87.857055, "end": 88.25884031250001, "pitch": 80, "velocity": 75}, {"start": 88.28562600000001, "end": 88.6874113125, "pitch": 79, "velocity": 75}, {"start": 88.71419700000001, "end": 89.11598231250001, "pitch": 77, "velocity": 75}, {"start": 89.142768, "end": 89.9374100625, "pitch": 75, "velocity": 75}, {"start": 90.428481, "end": 90.6338379375, "pitch": 70, "velocity": 75}, {"start": 90.64276650000001, "end": 91.2588373125, "pitch": 72, "velocity": 75}, {"start": 91.285623, "end": 91.4909799375, "pitch": 70, "velocity": 75}, {"start": 91.4999085, "end": 91.9195509375, "pitch": 72, "velocity": 75}, {"start": 92.35705050000001, "end": 92.7766929375, "pitch": 72, "velocity": 75}, {"start": 92.7856215, "end": 93.1874068125, "pitch": 70, "velocity": 75}, {"start": 93.21419250000001, "end": 93.63383493750001, "pitch": 72, "velocity": 75}, {"start": 93.6427635, "end": 93.84812043750001, "pitch": 72, "velocity": 75}, {"start": 93.857049, "end": 94.25883431250001, "pitch": 73, "velocity": 75}, {"start": 94.28562000000001, "end": 94.49097693750001, "pitch": 75, "velocity": 75}, {"start": 94.71419100000001, "end": 95.11597631250001, "pitch": 80, "velocity": 75}, {"start": 95.142762, "end": 95.54454731250001, "pitch": 80, "velocity": 75}, {"start": 95.57133300000001, "end": 95.9731183125, "pitch": 80, "velocity": 75}, {"start": 95.99990400000002, "end": 96.20526093750001, "pitch": 82, "velocity": 75}, {"start": 96.2141895, "end": 96.4195464375, "pitch": 80, "velocity": 75}, {"start": 96.428475, "end": 96.6338319375, "pitch": 80, "velocity": 75}, {"start": 96.64276050000001, "end": 97.06240293750001, "pitch": 80, "velocity": 75}, {"start": 97.285617, "end": 97.4909739375, "pitch": 80, "velocity": 75}, {"start": 97.4999025, "end": 97.7052594375, "pitch": 80, "velocity": 75}, {"start": 97.71418800000001, "end": 97.9195449375, "pitch": 82, "velocity": 75}, {"start": 97.92847350000001, "end": 98.13383043750001, "pitch": 82, "velocity": 75}, {"start": 98.14275900000001, "end": 98.34811593750001, "pitch": 82, "velocity": 75}, {"start": 98.35704450000001, "end": 98.56240143750001, "pitch": 82, "velocity": 75}, {"start": 98.57133, "end": 98.97311531250001, "pitch": 82, "velocity": 75}, {"start": 98.99990100000001, "end": 99.20525793750001, "pitch": 80, "velocity": 75}, {"start": 99.21418650000001, "end": 99.63382893750001, "pitch": 84, "velocity": 75}, {"start": 99.6427575, "end": 101.3481129375, "pitch": 82, "velocity": 75}, {"start": 101.57132700000001, "end": 101.9731123125, "pitch": 84, "velocity": 75}, {"start": 101.999898, "end": 102.40168331250001, "pitch": 82, "velocity": 75}, {"start": 102.428469, "end": 102.8302543125, "pitch": 80, "velocity": 75}, {"start": 102.85704000000001, "end": 103.25882531250001, "pitch": 80, "velocity": 75}, {"start": 103.285611, "end": 103.68739631250001, "pitch": 80, "velocity": 75}, {"start": 103.71418200000001, "end": 103.91953893750001, "pitch": 80, "velocity": 75}, {"start": 103.92846750000001, "end": 104.13382443750001, "pitch": 79, "velocity": 75}, {"start": 104.14275300000001, "end": 104.97310931250001, "pitch": 80, "velocity": 75}, {"start": 104.99989500000001, "end": 105.4016803125, "pitch": 80, "velocity": 75}, {"start": 105.42846600000001, "end": 105.83025131250001, "pitch": 80, "velocity": 75}, {"start": 105.857037, "end": 106.0623939375, "pitch": 80, "velocity": 75}, {"start": 106.07132250000001, "end": 106.27667943750001, "pitch": 79, "velocity": 75}, {"start": 106.28560800000001, "end": 106.6873933125, "pitch": 80, "velocity": 75}, {"start": 106.71417900000002, "end": 107.90167781250001, "pitch": 79, "velocity": 75}, {"start": 108.42846300000001, "end": 108.8302483125, "pitch": 84, "velocity": 75}, {"start": 108.85703400000001, "end": 109.25881931250001, "pitch": 82, "velocity": 75}, {"start": 109.285605, "end": 109.68739031250001, "pitch": 80, "velocity": 75}, {"start": 109.71417600000001, "end": 109.91953293750001, "pitch": 80, "velocity": 75}, {"start": 109.92846150000001, "end": 110.13381843750001, "pitch": 79, "velocity": 75}, {"start": 110.14274700000001, "end": 110.34810393750001, "pitch": 80, "velocity": 75}, {"start": 110.3570325, "end": 110.5623894375, "pitch": 79, "velocity": 75}, {"start": 110.571318, "end": 110.97310331250002, "pitch": 80, "velocity": 75}, {"start": 110.99988900000001, "end": 111.20524593750001, "pitch": 80, "velocity": 75}, {"start": 111.21417450000001, "end": 111.41953143750001, "pitch": 79, "velocity": 75}, {"start": 111.42846000000002, "end": 111.83024531250001, "pitch": 80, "velocity": 75}, {"start": 111.857031, "end": 112.2588163125, "pitch": 80, "velocity": 75}, {"start": 112.28560200000001, "end": 112.49095893750001, "pitch": 80, "velocity": 75}, {"start": 112.49988750000001, "end": 112.90167281250001, "pitch": 82, "velocity": 75}, {"start": 112.9284585, "end": 113.3481009375, "pitch": 80, "velocity": 75}, {"start": 113.35702950000001, "end": 113.7588148125, "pitch": 79, "velocity": 75}, {"start": 113.78560050000002, "end": 114.7945280625, "pitch": 79, "velocity": 75}, {"start": 115.285599, "end": 115.68738431250001, "pitch": 84, "velocity": 75}, {"start": 115.71417000000001, "end": 116.1159553125, "pitch": 82, "velocity": 75}, {"start": 116.14274100000002, "end": 116.54452631250001, "pitch": 80, "velocity": 75}, {"start": 116.571312, "end": 116.7766689375, "pitch": 80, "velocity": 75}, {"start": 116.78559750000001, "end": 116.99095443750001, "pitch": 77, "velocity": 75}, {"start": 116.99988300000001, "end": 117.20523993750001, "pitch": 80, "velocity": 75}, {"start": 117.21416850000001, "end": 117.41952543750001, "pitch": 77, "velocity": 75}, {"start": 117.42845400000002, "end": 117.83023931250001, "pitch": 80, "velocity": 75}, {"start": 117.85702500000001, "end": 118.0623819375, "pitch": 77, "velocity": 75}, {"start": 118.07131050000001, "end": 118.27666743750001, "pitch": 80, "velocity": 75}, {"start": 118.49988150000001, "end": 118.90166681250001, "pitch": 80, "velocity": 75}, {"start": 118.9284525, "end": 119.34809493750001, "pitch": 80, "velocity": 75}, {"start": 119.35702350000001, "end": 119.7588088125, "pitch": 80, "velocity": 75}, {"start": 119.78559450000002, "end": 120.2052369375, "pitch": 82, "velocity": 75}, {"start": 120.21416550000001, "end": 120.4195224375, "pitch": 80, "velocity": 75}, {"start": 120.42845100000001, "end": 120.63380793750001, "pitch": 82, "velocity": 75}, {"start": 120.64273650000001, "end": 120.84809343750001, "pitch": 80, "velocity": 75}, {"start": 120.85702200000001, "end": 121.25880731250001, "pitch": 82, "velocity": 75}, {"start": 121.285593, "end": 121.4909499375, "pitch": 80, "velocity": 75}, {"start": 121.49987850000001, "end": 121.91952093750001, "pitch": 84, "velocity": 75}, {"start": 121.92844950000001, "end": 122.33023481250001, "pitch": 82, "velocity": 75}, {"start": 122.3570205, "end": 122.5623774375, "pitch": 80, "velocity": 75}, {"start": 122.571306, "end": 122.97309131250002, "pitch": 82, "velocity": 75}, {"start": 122.99987700000001, "end": 123.20523393750001, "pitch": 80, "velocity": 75}, {"start": 123.21416250000001, "end": 123.63380493750002, "pitch": 84, "velocity": 75}, {"start": 123.6427335, "end": 123.8480904375, "pitch": 85, "velocity": 75}, {"start": 123.85701900000001, "end": 124.06237593750001, "pitch": 84, "velocity": 75}, {"start": 124.07130450000001, "end": 124.27666143750001, "pitch": 82, "velocity": 75}, {"start": 124.28559000000001, "end": 124.49094693750001, "pitch": 80, "velocity": 75}, {"start": 124.49987550000002, "end": 124.90166081250001, "pitch": 77, "velocity": 75}, {"start": 125.57130300000001, "end": 125.97308831250001, "pitch": 80, "velocity": 75}, {"start": 125.999874, "end": 126.40165931250002, "pitch": 80, "velocity": 75}, {"start": 126.42844500000001, "end": 126.63380193750001, "pitch": 80, "velocity": 75}, {"start": 126.64273050000001, "end": 127.06237293750002, "pitch": 80, "velocity": 75}, {"start": 127.0713015, "end": 128.5088000625, "pitch": 79, "velocity": 75}, {"start": 128.999871, "end": 129.40165631250002, "pitch": 72, "velocity": 87}, {"start": 129.42844200000002, "end": 129.8302273125, "pitch": 72, "velocity": 87}, {"start": 129.85701300000002, "end": 130.2587983125, "pitch": 73, "velocity": 87}, {"start": 130.285584, "end": 130.6873693125, "pitch": 72, "velocity": 87}, {"start": 130.714155, "end": 131.11594031250002, "pitch": 72, "velocity": 87}, {"start": 131.142726, "end": 131.54451131250002, "pitch": 72, "velocity": 87}, {"start": 131.57129700000002, "end": 131.9730823125, "pitch": 73, "velocity": 87}, {"start": 131.99986800000002, "end": 132.4016533125, "pitch": 72, "velocity": 87}, {"start": 132.428439, "end": 132.6337959375, "pitch": 72, "velocity": 87}, {"start": 132.6427245, "end": 132.8480814375, "pitch": 70, "velocity": 87}, {"start": 132.85701, "end": 133.2587953125, "pitch": 72, "velocity": 87}, {"start": 133.285581, "end": 133.4909379375, "pitch": 72, "velocity": 87}, {"start": 133.49986650000002, "end": 133.9195089375, "pitch": 72, "velocity": 87}, {"start": 133.9284375, "end": 135.3659360625, "pitch": 70, "velocity": 87}, {"start": 135.857007, "end": 136.25879231250002, "pitch": 72, "velocity": 87}, {"start": 136.28557800000002, "end": 136.68736331250003, "pitch": 72, "velocity": 87}, {"start": 136.71414900000002, "end": 137.1159343125, "pitch": 73, "velocity": 87}, {"start": 137.14272, "end": 137.5445053125, "pitch": 72, "velocity": 87}, {"start": 137.571291, "end": 137.9730763125, "pitch": 72, "velocity": 87}, {"start": 137.999862, "end": 138.40164731250002, "pitch": 72, "velocity": 87}, {"start": 138.428433, "end": 138.83021831250002, "pitch": 73, "velocity": 87}, {"start": 138.85700400000002, "end": 139.2587893125, "pitch": 72, "velocity": 87}, {"start": 139.28557500000002, "end": 139.49093193750002, "pitch": 72, "velocity": 87}, {"start": 139.4998605, "end": 139.7052174375, "pitch": 70, "velocity": 87}, {"start": 139.714146, "end": 140.1159313125, "pitch": 72, "velocity": 87}, {"start": 140.142717, "end": 140.3480739375, "pitch": 70, "velocity": 87}, {"start": 140.35700250000002, "end": 140.7766449375, "pitch": 72, "velocity": 87}, {"start": 140.7855735, "end": 141.1873588125, "pitch": 75, "velocity": 87}, {"start": 141.2141445, "end": 142.22307206250002, "pitch": 75, "velocity": 87}, {"start": 142.714143, "end": 143.11592831250002, "pitch": 72, "velocity": 87}, {"start": 143.142714, "end": 143.54449931250002, "pitch": 72, "velocity": 87}, {"start": 143.57128500000002, "end": 143.9730703125, "pitch": 73, "velocity": 87}, {"start": 143.99985600000002, "end": 144.4016413125, "pitch": 72, "velocity": 87}, {"start": 144.428427, "end": 144.8302123125, "pitch": 72, "velocity": 87}, {"start": 144.856998, "end": 145.0623549375, "pitch": 72, "velocity": 87}, {"start": 145.07128350000002, "end": 145.27664043750002, "pitch": 72, "velocity": 87}, {"start": 145.285569, "end": 145.68735431250002, "pitch": 73, "velocity": 87}, {"start": 145.71414000000001, "end": 146.11592531250002, "pitch": 72, "velocity": 87}, {"start": 146.14271100000002, "end": 146.5444963125, "pitch": 72, "velocity": 87}, {"start": 146.57128200000002, "end": 146.9730673125, "pitch": 72, "velocity": 87}, {"start": 146.999853, "end": 147.4016383125, "pitch": 73, "velocity": 87}, {"start": 147.428424, "end": 147.83020931250002, "pitch": 72, "velocity": 87}, {"start": 147.856995, "end": 149.0444938125, "pitch": 70, "velocity": 87}, {"start": 149.571279, "end": 149.97306431250001, "pitch": 84, "velocity": 75}, {"start": 149.99985, "end": 150.40163531250002, "pitch": 84, "velocity": 75}, {"start": 150.42842100000001, "end": 150.83020631250002, "pitch": 85, "velocity": 75}, {"start": 150.85699200000002, "end": 151.2587773125, "pitch": 84, "velocity": 75}, {"start": 151.28556300000002, "end": 151.49091993750002, "pitch": 84, "velocity": 75}, {"start": 151.4998485, "end": 151.7052054375, "pitch": 82, "velocity": 75}, {"start": 151.714134, "end": 151.9194909375, "pitch": 84, "velocity": 75}, {"start": 151.92841950000002, "end": 152.13377643750002, "pitch": 82, "velocity": 75}, {"start": 152.142705, "end": 152.3480619375, "pitch": 84, "velocity": 75}, {"start": 152.35699050000002, "end": 152.56234743750002, "pitch": 82, "velocity": 75}, {"start": 152.571276, "end": 153.1694896875, "pitch": 84, "velocity": 75}, {"start": 153.42841800000002, "end": 153.63377493750002, "pitch": 84, "velocity": 75}, {"start": 153.6427035, "end": 153.8480604375, "pitch": 84, "velocity": 75}, {"start": 154.28556, "end": 155.0802020625, "pitch": 84, "velocity": 75}, {"start": 155.142702, "end": 155.93734406250002, "pitch": 85, "velocity": 75}, {"start": 155.99984400000002, "end": 159.2944835625, "pitch": 87, "velocity": 75}, {"start": 159.856983, "end": 160.25876831250002, "pitch": 84, "velocity": 68}, {"start": 160.28555400000002, "end": 160.6873393125, "pitch": 82, "velocity": 68}, {"start": 160.71412500000002, "end": 161.1159103125, "pitch": 80, "velocity": 68}, {"start": 161.142696, "end": 161.5444813125, "pitch": 80, "velocity": 68}, {"start": 161.571267, "end": 161.97305231250002, "pitch": 80, "velocity": 68}, {"start": 161.999838, "end": 162.2051949375, "pitch": 80, "velocity": 68}, {"start": 162.2141235, "end": 162.41948043750003, "pitch": 79, "velocity": 68}, {"start": 162.42840900000002, "end": 163.2587653125, "pitch": 80, "velocity": 68}, {"start": 163.28555100000003, "end": 163.6873363125, "pitch": 80, "velocity": 68}, {"start": 163.714122, "end": 164.1159073125, "pitch": 80, "velocity": 68}, {"start": 164.142693, "end": 164.3480499375, "pitch": 80, "velocity": 68}, {"start": 164.35697850000003, "end": 164.56233543750002, "pitch": 79, "velocity": 68}, {"start": 164.571264, "end": 164.97304931250002, "pitch": 80, "velocity": 68}, {"start": 164.99983500000002, "end": 166.18733381250001, "pitch": 79, "velocity": 68}, {"start": 166.714119, "end": 167.11590431250002, "pitch": 84, "velocity": 68}, {"start": 167.14269000000002, "end": 167.54447531250003, "pitch": 82, "velocity": 68}, {"start": 167.57126100000002, "end": 167.9730463125, "pitch": 80, "velocity": 68}, {"start": 167.99983200000003, "end": 168.20518893750003, "pitch": 80, "velocity": 68}, {"start": 168.21411750000001, "end": 168.4194744375, "pitch": 79, "velocity": 68}, {"start": 168.428403, "end": 168.6337599375, "pitch": 80, "velocity": 68}, {"start": 168.64268850000002, "end": 168.84804543750002, "pitch": 79, "velocity": 68}, {"start": 168.856974, "end": 169.25875931250002, "pitch": 80, "velocity": 68}, {"start": 169.285545, "end": 169.4909019375, "pitch": 80, "velocity": 68}, {"start": 169.4998305, "end": 169.7051874375, "pitch": 79, "velocity": 68}, {"start": 169.71411600000002, "end": 170.1159013125, "pitch": 80, "velocity": 68}, {"start": 170.14268700000002, "end": 170.5444723125, "pitch": 80, "velocity": 68}, {"start": 170.571258, "end": 170.77661493750003, "pitch": 80, "velocity": 68}, {"start": 170.78554350000002, "end": 171.18732881250003, "pitch": 82, "velocity": 68}, {"start": 171.21411450000002, "end": 171.6337569375, "pitch": 80, "velocity": 68}, {"start": 171.64268550000003, "end": 172.0444708125, "pitch": 82, "velocity": 68}, {"start": 172.0712565, "end": 173.08018406250002, "pitch": 82, "velocity": 75}, {"start": 173.571255, "end": 173.97304031250002, "pitch": 86, "velocity": 81}, {"start": 173.999826, "end": 174.40161131250002, "pitch": 84, "velocity": 81}, {"start": 174.42839700000002, "end": 174.83018231250003, "pitch": 82, "velocity": 81}, {"start": 174.85696800000002, "end": 175.06232493750002, "pitch": 82, "velocity": 81}, {"start": 175.0712535, "end": 175.2766104375, "pitch": 79, "velocity": 81}, {"start": 175.28553900000003, "end": 175.49089593750003, "pitch": 82, "velocity": 81}, {"start": 175.49982450000002, "end": 175.70518143750002, "pitch": 79, "velocity": 81}, {"start": 175.71411, "end": 175.9194669375, "pitch": 82, "velocity": 81}, {"start": 175.92839550000002, "end": 176.3301808125, "pitch": 79, "velocity": 81}, {"start": 176.35696650000003, "end": 176.77660893750001, "pitch": 82, "velocity": 81}, {"start": 176.7855375, "end": 177.1873228125, "pitch": 79, "velocity": 81}, {"start": 177.2141085, "end": 177.63375093750003, "pitch": 82, "velocity": 81}, {"start": 177.6426795, "end": 178.04446481250002, "pitch": 82, "velocity": 81}, {"start": 178.07125050000002, "end": 178.4908929375, "pitch": 82, "velocity": 81}, {"start": 178.49982150000002, "end": 178.9016068125, "pitch": 81, "velocity": 81}, {"start": 178.9283925, "end": 179.93732006250002, "pitch": 81, "velocity": 81}, {"start": 180.428391, "end": 180.83017631250002, "pitch": 86, "velocity": 81}, {"start": 180.856962, "end": 181.25874731250002, "pitch": 84, "velocity": 81}, {"start": 181.28553300000002, "end": 181.68731831250003, "pitch": 82, "velocity": 81}, {"start": 181.71410400000002, "end": 181.91946093750002, "pitch": 82, "velocity": 81}, {"start": 181.9283895, "end": 182.1337464375, "pitch": 79, "velocity": 81}, {"start": 182.14267500000003, "end": 182.34803193750002, "pitch": 82, "velocity": 81}, {"start": 182.3569605, "end": 182.5623174375, "pitch": 79, "velocity": 81}, {"start": 182.571246, "end": 182.9730313125, "pitch": 82, "velocity": 81}, {"start": 182.999817, "end": 183.2051739375, "pitch": 79, "velocity": 81}, {"start": 183.21410250000002, "end": 183.41945943750002, "pitch": 82, "velocity": 81}, {"start": 183.64267350000003, "end": 184.0444588125, "pitch": 89, "velocity": 81}, {"start": 184.0712445, "end": 184.49088693750002, "pitch": 86, "velocity": 81}, {"start": 184.4998155, "end": 184.90160081250002, "pitch": 86, "velocity": 81}, {"start": 184.92838650000002, "end": 185.3480289375, "pitch": 86, "velocity": 81}, {"start": 185.35695750000002, "end": 186.79445606250002, "pitch": 84, "velocity": 81}, {"start": 187.49981250000002, "end": 187.70516943750002, "pitch": 82, "velocity": 81}, {"start": 187.714098, "end": 188.11588331250002, "pitch": 84, "velocity": 81}, {"start": 188.142669, "end": 188.3480259375, "pitch": 82, "velocity": 81}, {"start": 188.35695450000003, "end": 188.77659693750002, "pitch": 86, "velocity": 81}, {"start": 188.7855255, "end": 188.9908824375, "pitch": 84, "velocity": 81}, {"start": 188.99981100000002, "end": 189.20516793750002, "pitch": 86, "velocity": 81}, {"start": 189.2140965, "end": 189.4194534375, "pitch": 84, "velocity": 81}, {"start": 189.42838200000003, "end": 189.63373893750003, "pitch": 86, "velocity": 81}, {"start": 189.64266750000002, "end": 189.84802443750002, "pitch": 84, "velocity": 81}, {"start": 189.856953, "end": 190.25873831250001, "pitch": 86, "velocity": 81}, {"start": 190.285524, "end": 190.4908809375, "pitch": 86, "velocity": 81}, {"start": 190.49980950000003, "end": 190.70516643750003, "pitch": 82, "velocity": 81}, {"start": 190.9283805, "end": 191.1337374375, "pitch": 82, "velocity": 81}, {"start": 191.14266600000002, "end": 191.54445131250003, "pitch": 86, "velocity": 81}, {"start": 191.57123700000002, "end": 191.77659393750002, "pitch": 86, "velocity": 81}, {"start": 191.7855225, "end": 192.20516493750003, "pitch": 86, "velocity": 81}, {"start": 192.21409350000002, "end": 193.65159206250001, "pitch": 84, "velocity": 81}, {"start": 194.35694850000002, "end": 194.56230543750002, "pitch": 82, "velocity": 81}, {"start": 194.571234, "end": 194.9730193125, "pitch": 84, "velocity": 81}, {"start": 194.999805, "end": 195.2051619375, "pitch": 82, "velocity": 81}, {"start": 195.21409050000003, "end": 195.83016131250002, "pitch": 86, "velocity": 81}, {"start": 195.85694700000002, "end": 196.06230393750002, "pitch": 84, "velocity": 81}, {"start": 196.28551800000002, "end": 196.88373168750002, "pitch": 84, "velocity": 81}, {"start": 196.92837450000002, "end": 198.20515893750002, "pitch": 82, "velocity": 81}, {"start": 198.42837300000002, "end": 198.63372993750002, "pitch": 79, "velocity": 75}, {"start": 198.6426585, "end": 200.04444281250002, "pitch": 81, "velocity": 75}, {"start": 201.2140845, "end": 201.4194414375, "pitch": 79, "velocity": 68}, {"start": 201.42837000000003, "end": 201.8301553125, "pitch": 81, "velocity": 68}, {"start": 201.856941, "end": 202.0622979375, "pitch": 82, "velocity": 68}, {"start": 202.07122650000002, "end": 203.08015406250001, "pitch": 82, "velocity": 68}, {"start": 203.14265400000002, "end": 203.5444393125, "pitch": 86, "velocity": 61}, {"start": 203.57122500000003, "end": 204.4015813125, "pitch": 84, "velocity": 61}, {"start": 204.428367, "end": 204.83015231250002, "pitch": 82, "velocity": 61}, {"start": 204.856938, "end": 205.0622949375, "pitch": 82, "velocity": 61}, {"start": 205.07122350000003, "end": 206.31229368750002, "pitch": 81, "velocity": 61}, {"start": 208.0712205, "end": 208.2765774375, "pitch": 81, "velocity": 55}, {"start": 208.28550600000003, "end": 208.6872913125, "pitch": 82, "velocity": 55}, {"start": 208.714077, "end": 208.91943393750003, "pitch": 82, "velocity": 55}, {"start": 208.92836250000002, "end": 209.3480049375, "pitch": 84, "velocity": 55}, {"start": 209.35693350000003, "end": 209.95514718750002, "pitch": 82, "velocity": 55}, {"start": 210.2140755, "end": 210.4194324375, "pitch": 82, "velocity": 55}, {"start": 210.42836100000002, "end": 210.63371793750002, "pitch": 84, "velocity": 55}, {"start": 210.6426465, "end": 210.8480034375, "pitch": 86, "velocity": 55}, {"start": 210.85693200000003, "end": 211.6515740625, "pitch": 84, "velocity": 55}, {"start": 213.42835800000003, "end": 213.8301433125, "pitch": 82, "velocity": 55}, {"start": 213.856929, "end": 215.08014206250002, "pitch": 81, "velocity": 55}]'),
(8112, '[{"start": 22.625, "end": 22.802083333333332, "pitch": 66, "velocity": 127}, {"start": 22.875, "end": 23.0625, "pitch": 68, "velocity": 127}, {"start": 23.125, "end": 23.416666666666664, "pitch": 69, "velocity": 127}, {"start": 23.625, "end": 23.760416666666664, "pitch": 69, "velocity": 127}, {"start": 23.875, "end": 24.03125, "pitch": 69, "velocity": 127}, {"start": 24.125, "end": 24.270833333333332, "pitch": 68, "velocity": 127}, {"start": 24.375, "end": 24.458333333333332, "pitch": 68, "velocity": 127}, {"start": 24.5, "end": 24.572916666666664, "pitch": 71, "velocity": 127}, {"start": 24.625, "end": 24.739583333333332, "pitch": 71, "velocity": 127}, {"start": 24.875, "end": 25.0625, "pitch": 71, "velocity": 127}, {"start": 25.125, "end": 25.354166666666664, "pitch": 73, "velocity": 127}, {"start": 27.125, "end": 27.270833333333332, "pitch": 74, "velocity": 127}, {"start": 27.375, "end": 27.458333333333332, "pitch": 73, "velocity": 127}, {"start": 27.5, "end": 27.583333333333332, "pitch": 69, "velocity": 127}, {"start": 27.625, "end": 27.739583333333332, "pitch": 73, "velocity": 127}, {"start": 27.875, "end": 28.052083333333332, "pitch": 73, "velocity": 127}, {"start": 28.125, "end": 28.427083333333332, "pitch": 68, "velocity": 127}, {"start": 29.875, "end": 29.927083333333332, "pitch": 77, "velocity": 127}, {"start": 30.0, "end": 30.041666666666664, "pitch": 80, "velocity": 127}, {"start": 30.125, "end": 30.239583333333332, "pitch": 80, "velocity": 127}, {"start": 30.375, "end": 30.427083333333332, "pitch": 80, "velocity": 127}, {"start": 30.5, "end": 30.71875, "pitch": 80, "velocity": 127}, {"start": 30.75, "end": 30.833333333333332, "pitch": 78, "velocity": 127}, {"start": 30.875, "end": 31.0625, "pitch": 77, "velocity": 127}, {"start": 31.125, "end": 31.354166666666664, "pitch": 73, "velocity": 127}, {"start": 31.875, "end": 31.9375, "pitch": 71, "velocity": 127}, {"start": 32.0, "end": 32.03125, "pitch": 74, "velocity": 127}, {"start": 32.125, "end": 32.229166666666664, "pitch": 74, "velocity": 127}, {"start": 32.375, "end": 32.541666666666664, "pitch": 74, "velocity": 127}, {"start": 32.625, "end": 32.822916666666664, "pitch": 71, "velocity": 127}, {"start": 32.875, "end": 33.0625, "pitch": 69, "velocity": 127}, {"start": 33.125, "end": 33.33333333333333, "pitch": 68, "velocity": 127}, {"start": 33.375, "end": 33.45833333333333, "pitch": 69, "velocity": 127}, {"start": 33.5, "end": 33.64583333333333, "pitch": 71, "velocity": 127}, {"start": 33.75, "end": 34.322916666666664, "pitch": 73, "velocity": 127}, {"start": 35.375, "end": 35.4375, "pitch": 68, "velocity": 127}, {"start": 35.5, "end": 35.61458333333333, "pitch": 71, "velocity": 127}, {"start": 35.625, "end": 35.75, "pitch": 68, "velocity": 127}, {"start": 35.875, "end": 36.010416666666664, "pitch": 69, "velocity": 127}, {"start": 36.125, "end": 36.28125, "pitch": 66, "velocity": 127}, {"start": 36.375, "end": 36.447916666666664, "pitch": 64, "velocity": 127}, {"start": 36.5, "end": 36.875, "pitch": 66, "velocity": 127}, {"start": 38.625, "end": 38.791666666666664, "pitch": 66, "velocity": 127}, {"start": 38.875, "end": 39.041666666666664, "pitch": 68, "velocity": 127}, {"start": 39.125, "end": 39.416666666666664, "pitch": 69, "velocity": 127}, {"start": 39.625, "end": 39.73958333333333, "pitch": 69, "velocity": 127}, {"start": 39.875, "end": 40.010416666666664, "pitch": 69, "velocity": 127}, {"start": 40.125, "end": 40.229166666666664, "pitch": 68, "velocity": 127}, {"start": 40.375, "end": 40.45833333333333, "pitch": 68, "velocity": 127}, {"start": 40.5, "end": 40.5625, "pitch": 71, "velocity": 127}, {"start": 40.625, "end": 40.75, "pitch": 71, "velocity": 127}, {"start": 40.875, "end": 41.041666666666664, "pitch": 71, "velocity": 127}, {"start": 41.125, "end": 41.36458333333333, "pitch": 73, "velocity": 127}, {"start": 43.125, "end": 43.260416666666664, "pitch": 74, "velocity": 127}, {"start": 43.375, "end": 43.447916666666664, "pitch": 73, "velocity": 127}, {"start": 43.5, "end": 43.572916666666664, "pitch": 69, "velocity": 127}, {"start": 43.625, "end": 43.73958333333333, "pitch": 73, "velocity": 127}, {"start": 43.875, "end": 44.03125, "pitch": 73, "velocity": 127}, {"start": 44.125, "end": 44.416666666666664, "pitch": 68, "velocity": 127}, {"start": 46.875, "end": 46.92708333333333, "pitch": 77, "velocity": 127}, {"start": 47.0, "end": 47.14583333333333, "pitch": 80, "velocity": 127}, {"start": 47.25, "end": 47.28125, "pitch": 80, "velocity": 127}, {"start": 47.375, "end": 47.46875, "pitch": 80, "velocity": 127}, {"start": 47.625, "end": 47.729166666666664, "pitch": 78, "velocity": 127}, {"start": 47.875, "end": 48.0, "pitch": 77, "velocity": 127}, {"start": 48.125, "end": 48.36458333333333, "pitch": 73, "velocity": 127}, {"start": 48.875, "end": 48.92708333333333, "pitch": 71, "velocity": 127}, {"start": 49.0, "end": 49.15625, "pitch": 74, "velocity": 127}, {"start": 49.25, "end": 49.291666666666664, "pitch": 74, "velocity": 127}, {"start": 49.375, "end": 49.5, "pitch": 74, "velocity": 127}, {"start": 49.625, "end": 49.729166666666664, "pitch": 71, "velocity": 127}, {"start": 49.875, "end": 50.09375, "pitch": 69, "velocity": 127}, {"start": 50.125, "end": 50.34375, "pitch": 68, "velocity": 127}, {"start": 50.625, "end": 50.75, "pitch": 74, "velocity": 127}, {"start": 50.875, "end": 50.9375, "pitch": 71, "velocity": 127}, {"start": 51.0, "end": 51.28125, "pitch": 73, "velocity": 127}, {"start": 51.375, "end": 51.510416666666664, "pitch": 74, "velocity": 127}, {"start": 51.625, "end": 51.697916666666664, "pitch": 71, "velocity": 127}, {"start": 51.75, "end": 52.05208333333333, "pitch": 73, "velocity": 127}, {"start": 52.125, "end": 52.27083333333333, "pitch": 74, "velocity": 127}, {"start": 52.375, "end": 52.447916666666664, "pitch": 71, "velocity": 127}, {"start": 52.5, "end": 52.729166666666664, "pitch": 73, "velocity": 127}, {"start": 53.0, "end": 53.28125, "pitch": 73, "velocity": 127}, {"start": 53.375, "end": 53.52083333333333, "pitch": 74, "velocity": 127}, {"start": 53.625, "end": 53.67708333333333, "pitch": 71, "velocity": 127}, {"start": 53.75, "end": 54.05208333333333, "pitch": 73, "velocity": 127}, {"start": 54.125, "end": 54.25, "pitch": 74, "velocity": 127}, {"start": 54.375, "end": 54.4375, "pitch": 71, "velocity": 127}, {"start": 54.5, "end": 54.75, "pitch": 73, "velocity": 127}, {"start": 57.5, "end": 57.58333333333333, "pitch": 78, "velocity": 127}, {"start": 57.75, "end": 57.84375, "pitch": 78, "velocity": 127}, {"start": 58.0, "end": 58.33333333333333, "pitch": 81, "velocity": 127}, {"start": 58.375, "end": 59.197916666666664, "pitch": 78, "velocity": 127}, {"start": 59.5, "end": 59.572916666666664, "pitch": 69, "velocity": 127}, {"start": 59.75, "end": 59.83333333333333, "pitch": 69, "velocity": 127}, {"start": 60.0, "end": 60.375, "pitch": 71, "velocity": 127}, {"start": 60.375, "end": 60.572916666666664, "pitch": 68, "velocity": 127}, {"start": 61.625, "end": 61.697916666666664, "pitch": 68, "velocity": 127}, {"start": 61.75, "end": 61.83333333333333, "pitch": 71, "velocity": 127}, {"start": 61.875, "end": 61.9375, "pitch": 74, "velocity": 127}, {"start": 62.0, "end": 62.125, "pitch": 73, "velocity": 127}, {"start": 62.125, "end": 62.23958333333333, "pitch": 74, "velocity": 127}, {"start": 62.375, "end": 62.52083333333333, "pitch": 73, "velocity": 127}, {"start": 62.625, "end": 62.760416666666664, "pitch": 74, "velocity": 127}, {"start": 62.875, "end": 63.010416666666664, "pitch": 73, "velocity": 127}, {"start": 63.125, "end": 63.260416666666664, "pitch": 74, "velocity": 127}, {"start": 63.375, "end": 63.45833333333333, "pitch": 73, "velocity": 127}, {"start": 63.5, "end": 63.666666666666664, "pitch": 76, "velocity": 127}, {"start": 63.75, "end": 63.916666666666664, "pitch": 74, "velocity": 127}, {"start": 64.0, "end": 64.21875, "pitch": 73, "velocity": 127}, {"start": 65.5, "end": 65.60416666666666, "pitch": 78, "velocity": 127}, {"start": 65.75, "end": 65.85416666666666, "pitch": 78, "velocity": 127}, {"start": 66.0, "end": 66.36458333333333, "pitch": 81, "velocity": 127}, {"start": 66.375, "end": 67.38541666666666, "pitch": 78, "velocity": 127}, {"start": 67.5, "end": 67.58333333333333, "pitch": 69, "velocity": 127}, {"start": 67.75, "end": 67.86458333333333, "pitch": 69, "velocity": 127}, {"start": 68.0, "end": 68.35416666666666, "pitch": 71, "velocity": 127}, {"start": 68.375, "end": 68.53125, "pitch": 68, "velocity": 127}, {"start": 69.625, "end": 69.70833333333333, "pitch": 68, "velocity": 127}, {"start": 69.75, "end": 69.84375, "pitch": 71, "velocity": 127}, {"start": 69.875, "end": 69.97916666666666, "pitch": 74, "velocity": 127}, {"start": 70.0, "end": 70.08333333333333, "pitch": 73, "velocity": 127}, {"start": 70.125, "end": 70.30208333333333, "pitch": 74, "velocity": 127}, {"start": 70.375, "end": 70.51041666666666, "pitch": 73, "velocity": 127}, {"start": 70.625, "end": 70.77083333333333, "pitch": 74, "velocity": 127}, {"start": 70.875, "end": 71.02083333333333, "pitch": 73, "velocity": 127}, {"start": 71.125, "end": 71.28125, "pitch": 74, "velocity": 127}, {"start": 71.375, "end": 71.4375, "pitch": 73, "velocity": 127}, {"start": 71.5, "end": 71.66666666666666, "pitch": 76, "velocity": 127}, {"start": 71.75, "end": 71.89583333333333, "pitch": 74, "velocity": 127}, {"start": 72.0, "end": 72.22916666666666, "pitch": 73, "velocity": 127}, {"start": 76.125, "end": 76.22916666666666, "pitch": 78, "velocity": 127}, {"start": 76.375, "end": 76.41666666666666, "pitch": 78, "velocity": 127}, {"start": 76.5, "end": 76.60416666666666, "pitch": 78, "velocity": 127}, {"start": 76.625, "end": 76.71875, "pitch": 76, "velocity": 127}, {"start": 76.75, "end": 76.84375, "pitch": 74, "velocity": 127}, {"start": 76.875, "end": 77.07291666666666, "pitch": 76, "velocity": 127}, {"start": 77.125, "end": 77.55208333333333, "pitch": 78, "velocity": 127}, {"start": 81.625, "end": 81.66666666666666, "pitch": 74, "velocity": 127}, {"start": 81.75, "end": 81.82291666666666, "pitch": 76, "velocity": 127}, {"start": 81.875, "end": 82.01041666666666, "pitch": 78, "velocity": 127}, {"start": 82.125, "end": 82.28125, "pitch": 81, "velocity": 127}, {"start": 82.375, "end": 82.52083333333333, "pitch": 80, "velocity": 127}, {"start": 82.625, "end": 82.76041666666666, "pitch": 80, "velocity": 127}, {"start": 82.875, "end": 83.0, "pitch": 78, "velocity": 127}, {"start": 83.125, "end": 83.27083333333333, "pitch": 78, "velocity": 127}, {"start": 83.375, "end": 83.46875, "pitch": 76, "velocity": 127}, {"start": 83.5, "end": 83.76041666666666, "pitch": 76, "velocity": 127}, {"start": 83.875, "end": 84.0, "pitch": 71, "velocity": 127}, {"start": 84.125, "end": 84.46875, "pitch": 73, "velocity": 127}, {"start": 86.625, "end": 86.6875, "pitch": 73, "velocity": 127}, {"start": 86.75, "end": 86.8125, "pitch": 74, "velocity": 127}, {"start": 86.875, "end": 87.09375, "pitch": 76, "velocity": 127}, {"start": 87.125, "end": 87.30208333333333, "pitch": 80, "velocity": 127}, {"start": 87.375, "end": 87.69791666666666, "pitch": 78, "velocity": 127}, {"start": 87.875, "end": 87.97916666666666, "pitch": 76, "velocity": 127}, {"start": 88.125, "end": 88.29166666666666, "pitch": 76, "velocity": 127}, {"start": 88.375, "end": 88.71875, "pitch": 74, "velocity": 127}, {"start": 88.875, "end": 88.96875, "pitch": 73, "velocity": 127}, {"start": 89.0, "end": 89.10416666666666, "pitch": 74, "velocity": 127}, {"start": 89.125, "end": 89.22916666666666, "pitch": 76, "velocity": 127}, {"start": 89.25, "end": 89.625, "pitch": 78, "velocity": 127}, {"start": 90.10416666666666, "end": 90.26041666666666, "pitch": 74, "velocity": 127}, {"start": 90.36458333333333, "end": 90.53125, "pitch": 78, "velocity": 127}, {"start": 90.59375, "end": 90.69791666666666, "pitch": 74, "velocity": 127}, {"start": 90.75, "end": 90.85416666666666, "pitch": 78, "velocity": 127}, {"start": 90.88541666666666, "end": 91.07291666666666, "pitch": 74, "velocity": 127}, {"start": 91.11458333333333, "end": 91.63541666666666, "pitch": 77, "velocity": 127}, {"start": 92.125, "end": 92.30208333333333, "pitch": 73, "velocity": 127}, {"start": 92.375, "end": 92.55208333333333, "pitch": 74, "velocity": 127}, {"start": 92.625, "end": 92.70833333333333, "pitch": 73, "velocity": 127}, {"start": 92.75, "end": 92.84375, "pitch": 71, "velocity": 127}, {"start": 92.875, "end": 92.96875, "pitch": 74, "velocity": 127}, {"start": 93.0, "end": 93.29166666666666, "pitch": 73, "velocity": 127}, {"start": 96.125, "end": 96.23958333333333, "pitch": 78, "velocity": 127}, {"start": 96.375, "end": 96.41666666666666, "pitch": 78, "velocity": 127}, {"start": 96.5, "end": 96.60416666666666, "pitch": 78, "velocity": 127}, {"start": 96.625, "end": 96.6875, "pitch": 76, "velocity": 127}, {"start": 96.75, "end": 96.86458333333333, "pitch": 74, "velocity": 127}, {"start": 96.875, "end": 97.0625, "pitch": 76, "velocity": 127}, {"start": 97.125, "end": 97.69791666666666, "pitch": 78, "velocity": 127}, {"start": 100.625, "end": 100.70833333333333, "pitch": 74, "velocity": 127}, {"start": 100.75, "end": 100.83333333333333, "pitch": 76, "velocity": 127}, {"start": 100.875, "end": 101.03125, "pitch": 78, "velocity": 127}, {"start": 101.125, "end": 101.28125, "pitch": 81, "velocity": 127}, {"start": 101.375, "end": 101.52083333333333, "pitch": 80, "velocity": 127}, {"start": 101.625, "end": 101.75, "pitch": 80, "velocity": 127}, {"start": 101.875, "end": 102.02083333333333, "pitch": 78, "velocity": 127}, {"start": 102.125, "end": 102.26041666666666, "pitch": 78, "velocity": 127}, {"start": 102.375, "end": 102.41666666666666, "pitch": 76, "velocity": 127}, {"start": 102.5, "end": 102.66666666666666, "pitch": 76, "velocity": 127}, {"start": 102.875, "end": 103.01041666666666, "pitch": 71, "velocity": 127}, {"start": 103.125, "end": 103.41666666666666, "pitch": 73, "velocity": 127}, {"start": 105.625, "end": 105.69791666666666, "pitch": 73, "velocity": 127}, {"start": 105.75, "end": 105.8125, "pitch": 74, "velocity": 127}, {"start": 105.875, "end": 106.08333333333333, "pitch": 76, "velocity": 127}, {"start": 106.125, "end": 106.3125, "pitch": 80, "velocity": 127}, {"start": 106.375, "end": 106.53125, "pitch": 78, "velocity": 127}, {"start": 106.875, "end": 107.01041666666666, "pitch": 76, "velocity": 127}, {"start": 107.125, "end": 107.30208333333333, "pitch": 76, "velocity": 127}, {"start": 107.375, "end": 107.45833333333333, "pitch": 74, "velocity": 127}, {"start": 107.5, "end": 107.71875, "pitch": 74, "velocity": 127}, {"start": 107.875, "end": 107.9375, "pitch": 73, "velocity": 127}, {"start": 108.0, "end": 108.09375, "pitch": 74, "velocity": 127}, {"start": 108.125, "end": 108.22916666666666, "pitch": 76, "velocity": 127}, {"start": 108.25, "end": 108.57291666666666, "pitch": 78, "velocity": 127}, {"start": 109.125, "end": 109.25, "pitch": 74, "velocity": 127}, {"start": 109.36458333333333, "end": 109.52083333333333, "pitch": 78, "velocity": 127}, {"start": 109.5625, "end": 109.66666666666666, "pitch": 74, "velocity": 127}, {"start": 109.71875, "end": 109.83333333333333, "pitch": 78, "velocity": 127}, {"start": 109.84375, "end": 110.07291666666666, "pitch": 74, "velocity": 127}, {"start": 110.10416666666666, "end": 110.69791666666666, "pitch": 77, "velocity": 127}, {"start": 111.125, "end": 111.25, "pitch": 74, "velocity": 127}, {"start": 111.375, "end": 111.58333333333333, "pitch": 74, "velocity": 127}, {"start": 111.625, "end": 111.72916666666666, "pitch": 73, "velocity": 127}, {"start": 111.75, "end": 111.85416666666666, "pitch": 71, "velocity": 127}, {"start": 111.875, "end": 112.17708333333333, "pitch": 74, "velocity": 127}, {"start": 112.125, "end": 112.71875, "pitch": 73, "velocity": 127}, {"start": 114.5, "end": 114.58333333333333, "pitch": 78, "velocity": 127}, {"start": 114.75, "end": 114.84375, "pitch": 78, "velocity": 127}, {"start": 115.0, "end": 115.33333333333333, "pitch": 81, "velocity": 127}, {"start": 115.375, "end": 116.19791666666666, "pitch": 78, "velocity": 127}, {"start": 116.5, "end": 116.57291666666666, "pitch": 69, "velocity": 127}, {"start": 116.75, "end": 116.83333333333333, "pitch": 69, "velocity": 127}, {"start": 117.0, "end": 117.375, "pitch": 71, "velocity": 127}, {"start": 117.375, "end": 117.57291666666666, "pitch": 68, "velocity": 127}, {"start": 118.625, "end": 118.69791666666666, "pitch": 68, "velocity": 127}, {"start": 118.75, "end": 118.83333333333333, "pitch": 71, "velocity": 127}, {"start": 118.875, "end": 118.9375, "pitch": 74, "velocity": 127}, {"start": 119.0, "end": 119.125, "pitch": 73, "velocity": 127}, {"start": 119.125, "end": 119.23958333333333, "pitch": 74, "velocity": 127}, {"start": 119.375, "end": 119.52083333333333, "pitch": 73, "velocity": 127}, {"start": 119.625, "end": 119.76041666666666, "pitch": 74, "velocity": 127}, {"start": 119.875, "end": 120.01041666666666, "pitch": 73, "velocity": 127}, {"start": 120.125, "end": 120.26041666666666, "pitch": 74, "velocity": 127}, {"start": 120.375, "end": 120.45833333333333, "pitch": 73, "velocity": 127}, {"start": 120.5, "end": 120.66666666666666, "pitch": 76, "velocity": 127}, {"start": 120.75, "end": 120.91666666666666, "pitch": 74, "velocity": 127}, {"start": 121.0, "end": 121.21875, "pitch": 73, "velocity": 127}, {"start": 122.5, "end": 122.60416666666666, "pitch": 78, "velocity": 127}, {"start": 122.75, "end": 122.85416666666666, "pitch": 78, "velocity": 127}, {"start": 123.0, "end": 123.36458333333333, "pitch": 81, "velocity": 127}, {"start": 123.375, "end": 124.38541666666666, "pitch": 78, "velocity": 127}, {"start": 124.5, "end": 124.58333333333333, "pitch": 69, "velocity": 127}, {"start": 124.75, "end": 124.86458333333333, "pitch": 69, "velocity": 127}, {"start": 125.0, "end": 125.35416666666666, "pitch": 71, "velocity": 127}, {"start": 125.375, "end": 125.53125, "pitch": 68, "velocity": 127}, {"start": 126.625, "end": 126.70833333333333, "pitch": 68, "velocity": 127}, {"start": 126.75, "end": 126.84375, "pitch": 71, "velocity": 127}, {"start": 126.875, "end": 126.97916666666666, "pitch": 74, "velocity": 127}, {"start": 127.0, "end": 127.08333333333333, "pitch": 73, "velocity": 127}, {"start": 127.125, "end": 127.30208333333333, "pitch": 74, "velocity": 127}, {"start": 127.375, "end": 127.51041666666666, "pitch": 73, "velocity": 127}, {"start": 127.625, "end": 127.77083333333333, "pitch": 74, "velocity": 127}, {"start": 127.875, "end": 128.02083333333331, "pitch": 73, "velocity": 127}, {"start": 128.125, "end": 128.28125, "pitch": 74, "velocity": 127}, {"start": 128.375, "end": 128.4375, "pitch": 73, "velocity": 127}, {"start": 128.5, "end": 128.66666666666666, "pitch": 76, "velocity": 127}, {"start": 128.75, "end": 128.89583333333331, "pitch": 74, "velocity": 127}, {"start": 129.0, "end": 129.22916666666666, "pitch": 73, "velocity": 127}, {"start": 147.5, "end": 147.58333333333331, "pitch": 78, "velocity": 127}, {"start": 147.75, "end": 147.84375, "pitch": 78, "velocity": 127}, {"start": 148.0, "end": 148.33333333333331, "pitch": 81, "velocity": 127}, {"start": 148.375, "end": 149.19791666666666, "pitch": 78, "velocity": 127}, {"start": 149.5, "end": 149.57291666666666, "pitch": 69, "velocity": 127}, {"start": 149.75, "end": 149.83333333333331, "pitch": 69, "velocity": 127}, {"start": 150.0, "end": 150.375, "pitch": 71, "velocity": 127}, {"start": 150.375, "end": 150.57291666666666, "pitch": 68, "velocity": 127}, {"start": 151.625, "end": 151.69791666666666, "pitch": 68, "velocity": 127}, {"start": 151.75, "end": 151.83333333333331, "pitch": 71, "velocity": 127}, {"start": 151.875, "end": 151.9375, "pitch": 74, "velocity": 127}, {"start": 152.0, "end": 152.125, "pitch": 73, "velocity": 127}, {"start": 152.125, "end": 152.23958333333331, "pitch": 74, "velocity": 127}, {"start": 152.375, "end": 152.52083333333331, "pitch": 73, "velocity": 127}, {"start": 152.625, "end": 152.76041666666666, "pitch": 74, "velocity": 127}, {"start": 152.875, "end": 153.01041666666666, "pitch": 73, "velocity": 127}, {"start": 153.125, "end": 153.26041666666666, "pitch": 74, "velocity": 127}, {"start": 153.375, "end": 153.45833333333331, "pitch": 73, "velocity": 127}, {"start": 153.5, "end": 153.66666666666666, "pitch": 76, "velocity": 127}, {"start": 153.75, "end": 153.91666666666666, "pitch": 74, "velocity": 127}, {"start": 154.0, "end": 154.21875, "pitch": 73, "velocity": 127}, {"start": 155.5, "end": 155.60416666666666, "pitch": 78, "velocity": 127}, {"start": 155.75, "end": 155.85416666666666, "pitch": 78, "velocity": 127}, {"start": 156.0, "end": 156.36458333333331, "pitch": 81, "velocity": 127}, {"start": 156.375, "end": 157.38541666666666, "pitch": 78, "velocity": 127}, {"start": 157.5, "end": 157.58333333333331, "pitch": 69, "velocity": 127}, {"start": 157.75, "end": 157.86458333333331, "pitch": 69, "velocity": 127}, {"start": 158.0, "end": 158.35416666666666, "pitch": 71, "velocity": 127}, {"start": 158.375, "end": 158.53125, "pitch": 68, "velocity": 127}, {"start": 159.625, "end": 159.70833333333331, "pitch": 68, "velocity": 127}, {"start": 159.75, "end": 159.84375, "pitch": 71, "velocity": 127}, {"start": 159.875, "end": 159.97916666666666, "pitch": 74, "velocity": 127}, {"start": 160.0, "end": 160.08333333333331, "pitch": 73, "velocity": 127}, {"start": 160.125, "end": 160.30208333333331, "pitch": 74, "velocity": 127}, {"start": 160.375, "end": 160.51041666666666, "pitch": 73, "velocity": 127}, {"start": 160.625, "end": 160.77083333333331, "pitch": 74, "velocity": 127}, {"start": 160.875, "end": 161.02083333333331, "pitch": 73, "velocity": 127}, {"start": 161.125, "end": 161.28125, "pitch": 74, "velocity": 127}, {"start": 161.375, "end": 161.4375, "pitch": 73, "velocity": 127}, {"start": 161.5, "end": 161.66666666666666, "pitch": 76, "velocity": 127}, {"start": 161.75, "end": 161.89583333333331, "pitch": 74, "velocity": 127}, {"start": 162.0, "end": 162.22916666666666, "pitch": 73, "velocity": 127}, {"start": 169.5, "end": 169.58333333333331, "pitch": 78, "velocity": 127}, {"start": 169.75, "end": 169.84375, "pitch": 78, "velocity": 127}, {"start": 170.0, "end": 170.33333333333331, "pitch": 81, "velocity": 127}, {"start": 170.375, "end": 171.19791666666666, "pitch": 78, "velocity": 127}, {"start": 171.5, "end": 171.57291666666666, "pitch": 69, "velocity": 127}, {"start": 171.75, "end": 171.83333333333331, "pitch": 69, "velocity": 127}, {"start": 172.0, "end": 172.375, "pitch": 71, "velocity": 127}, {"start": 172.375, "end": 172.57291666666666, "pitch": 68, "velocity": 127}, {"start": 173.625, "end": 173.69791666666666, "pitch": 68, "velocity": 127}, {"start": 173.75, "end": 173.83333333333331, "pitch": 71, "velocity": 127}, {"start": 173.875, "end": 173.9375, "pitch": 74, "velocity": 127}, {"start": 174.0, "end": 174.125, "pitch": 73, "velocity": 127}, {"start": 174.125, "end": 174.23958333333331, "pitch": 74, "velocity": 127}, {"start": 174.375, "end": 174.52083333333331, "pitch": 73, "velocity": 127}, {"start": 174.625, "end": 174.76041666666666, "pitch": 74, "velocity": 127}, {"start": 174.875, "end": 175.01041666666666, "pitch": 73, "velocity": 127}, {"start": 175.125, "end": 175.26041666666666, "pitch": 74, "velocity": 127}, {"start": 175.375, "end": 175.45833333333331, "pitch": 73, "velocity": 127}, {"start": 175.5, "end": 175.66666666666666, "pitch": 76, "velocity": 127}, {"start": 175.75, "end": 175.91666666666666, "pitch": 74, "velocity": 127}, {"start": 176.0, "end": 176.21875, "pitch": 73, "velocity": 127}, {"start": 177.5, "end": 177.60416666666666, "pitch": 78, "velocity": 127}, {"start": 177.75, "end": 177.85416666666666, "pitch": 78, "velocity": 127}, {"start": 178.0, "end": 178.36458333333331, "pitch": 81, "velocity": 127}, {"start": 178.375, "end": 179.38541666666666, "pitch": 78, "velocity": 127}, {"start": 179.5, "end": 179.58333333333331, "pitch": 69, "velocity": 127}, {"start": 179.75, "end": 179.86458333333331, "pitch": 69, "velocity": 127}, {"start": 180.0, "end": 180.35416666666666, "pitch": 71, "velocity": 127}, {"start": 180.375, "end": 180.53125, "pitch": 68, "velocity": 127}, {"start": 181.625, "end": 181.70833333333331, "pitch": 68, "velocity": 127}, {"start": 181.75, "end": 181.84375, "pitch": 71, "velocity": 127}, {"start": 181.875, "end": 181.97916666666666, "pitch": 74, "velocity": 127}, {"start": 182.0, "end": 182.08333333333331, "pitch": 73, "velocity": 127}, {"start": 182.125, "end": 182.30208333333331, "pitch": 74, "velocity": 127}, {"start": 182.375, "end": 182.51041666666666, "pitch": 73, "velocity": 127}, {"start": 182.625, "end": 182.77083333333331, "pitch": 74, "velocity": 127}, {"start": 182.875, "end": 183.02083333333331, "pitch": 73, "velocity": 127}, {"start": 183.125, "end": 183.28125, "pitch": 74, "velocity": 127}, {"start": 183.375, "end": 183.4375, "pitch": 73, "velocity": 127}, {"start": 183.5, "end": 183.66666666666666, "pitch": 76, "velocity": 127}, {"start": 183.75, "end": 183.89583333333331, "pitch": 74, "velocity": 127}, {"start": 184.0, "end": 184.22916666666666, "pitch": 73, "velocity": 127}, {"start": 185.5, "end": 185.58333333333331, "pitch": 78, "velocity": 127}, {"start": 185.75, "end": 185.84375, "pitch": 78, "velocity": 127}, {"start": 186.0, "end": 186.33333333333331, "pitch": 81, "velocity": 127}, {"start": 186.375, "end": 187.19791666666666, "pitch": 78, "velocity": 127}, {"start": 187.5, "end": 187.57291666666666, "pitch": 69, "velocity": 127}, {"start": 187.75, "end": 187.83333333333331, "pitch": 69, "velocity": 127}, {"start": 188.0, "end": 188.375, "pitch": 71, "velocity": 127}, {"start": 188.375, "end": 188.57291666666666, "pitch": 68, "velocity": 127}, {"start": 189.625, "end": 189.69791666666666, "pitch": 68, "velocity": 127}, {"start": 189.75, "end": 189.83333333333331, "pitch": 71, "velocity": 127}, {"start": 189.875, "end": 189.9375, "pitch": 74, "velocity": 127}, {"start": 190.0, "end": 190.125, "pitch": 73, "velocity": 127}, {"start": 190.125, "end": 190.23958333333331, "pitch": 74, "velocity": 127}, {"start": 190.375, "end": 190.52083333333331, "pitch": 73, "velocity": 127}, {"start": 190.625, "end": 190.76041666666666, "pitch": 74, "velocity": 127}, {"start": 190.875, "end": 191.01041666666666, "pitch": 73, "velocity": 127}, {"start": 191.125, "end": 191.26041666666666, "pitch": 74, "velocity": 127}, {"start": 191.375, "end": 191.45833333333331, "pitch": 73, "velocity": 127}, {"start": 191.5, "end": 191.66666666666666, "pitch": 76, "velocity": 127}, {"start": 191.75, "end": 191.91666666666666, "pitch": 74, "velocity": 127}, {"start": 192.0, "end": 192.21875, "pitch": 73, "velocity": 127}, {"start": 193.5, "end": 193.60416666666666, "pitch": 78, "velocity": 127}, {"start": 193.75, "end": 193.85416666666666, "pitch": 78, "velocity": 127}, {"start": 194.0, "end": 194.36458333333331, "pitch": 81, "velocity": 127}, {"start": 194.375, "end": 195.38541666666666, "pitch": 78, "velocity": 127}, {"start": 195.5, "end": 195.58333333333331, "pitch": 69, "velocity": 127}, {"start": 195.75, "end": 195.86458333333331, "pitch": 69, "velocity": 127}, {"start": 196.0, "end": 196.35416666666666, "pitch": 71, "velocity": 127}, {"start": 196.375, "end": 196.53125, "pitch": 68, "velocity": 127}, {"start": 197.625, "end": 197.70833333333331, "pitch": 68, "velocity": 127}, {"start": 197.75, "end": 197.84375, "pitch": 71, "velocity": 127}, {"start": 197.875, "end": 197.97916666666666, "pitch": 74, "velocity": 127}, {"start": 198.0, "end": 198.08333333333331, "pitch": 73, "velocity": 127}, {"start": 198.125, "end": 198.30208333333331, "pitch": 74, "velocity": 127}, {"start": 198.375, "end": 198.51041666666666, "pitch": 73, "velocity": 127}, {"start": 198.625, "end": 198.77083333333331, "pitch": 74, "velocity": 127}, {"start": 198.875, "end": 199.02083333333331, "pitch": 73, "velocity": 127}, {"start": 199.125, "end": 199.28125, "pitch": 74, "velocity": 127}, {"start": 199.375, "end": 200.4375, "pitch": 73, "velocity": 127}, {"start": 201.25, "end": 201.47916666666666, "pitch": 73, "velocity": 127}, {"start": 201.5, "end": 201.77083333333331, "pitch": 81, "velocity": 127}, {"start": 201.75, "end": 202.01041666666666, "pitch": 77, "velocity": 127}, {"start": 202.0, "end": 205.88541666666666, "pitch": 78, "velocity": 127}]'),
(8129, '[{"start": 5.545232550000001, "end": 6.591660075, "pitch": 73, "velocity": 105}, {"start": 6.605945775, "end": 6.932135925000001, "pitch": 68, "velocity": 104}, {"start": 6.93570735, "end": 7.261897500000001, "pitch": 66, "velocity": 105}, {"start": 7.266659400000001, "end": 7.586897175000001, "pitch": 68, "velocity": 105}, {"start": 7.58332575, "end": 8.195229900000001, "pitch": 66, "velocity": 104}, {"start": 8.827372125, "end": 8.979752925000001, "pitch": 68, "velocity": 105}, {"start": 8.980943400000001, "end": 9.238086000000001, "pitch": 66, "velocity": 104}, {"start": 9.260705025, "end": 9.852371100000001, "pitch": 70, "velocity": 104}, {"start": 9.870228225, "end": 10.03570425, "pitch": 68, "velocity": 105}, {"start": 10.028561400000001, "end": 10.119037500000001, "pitch": 66, "velocity": 105}, {"start": 10.133323200000001, "end": 10.248799275000001, "pitch": 68, "velocity": 104}, {"start": 10.259513550000001, "end": 10.380942000000001, "pitch": 66, "velocity": 104}, {"start": 10.389275325000002, "end": 10.574989425, "pitch": 63, "velocity": 105}, {"start": 10.571418000000001, "end": 10.84522725, "pitch": 66, "velocity": 105}, {"start": 10.863084375000001, "end": 11.16427455, "pitch": 63, "velocity": 104}, {"start": 11.167845975, "end": 11.316655350000001, "pitch": 61, "velocity": 104}, {"start": 11.334512475, "end": 11.488083750000001, "pitch": 63, "velocity": 105}, {"start": 11.503559925000001, "end": 11.639274075000001, "pitch": 61, "velocity": 104}, {"start": 11.649988350000001, "end": 13.13093925, "pitch": 63, "velocity": 105}, {"start": 14.571414, "end": 14.749985250000002, "pitch": 45, "velocity": 105}, {"start": 14.761890000000001, "end": 14.845223250000002, "pitch": 45, "velocity": 104}, {"start": 14.857128000000001, "end": 15.119032500000001, "pitch": 45, "velocity": 105}, {"start": 15.142842000000002, "end": 15.404746500000002, "pitch": 45, "velocity": 104}, {"start": 15.428556, "end": 15.547603500000001, "pitch": 45, "velocity": 104}, {"start": 15.571413000000002, "end": 15.833317500000001, "pitch": 47, "velocity": 105}, {"start": 15.857127000000002, "end": 15.9761745, "pitch": 45, "velocity": 105}, {"start": 15.999984000000001, "end": 16.198793325, "pitch": 47, "velocity": 104}, {"start": 16.285698, "end": 16.5476025, "pitch": 47, "velocity": 104}, {"start": 16.571412000000002, "end": 16.690459500000003, "pitch": 45, "velocity": 105}, {"start": 16.714269, "end": 16.9761735, "pitch": 47, "velocity": 105}, {"start": 16.999983, "end": 17.1190305, "pitch": 45, "velocity": 104}, {"start": 17.14284, "end": 17.341649325000002, "pitch": 47, "velocity": 104}, {"start": 17.428554000000002, "end": 17.690458500000002, "pitch": 47, "velocity": 105}, {"start": 17.714268, "end": 17.8333155, "pitch": 45, "velocity": 104}, {"start": 17.857125, "end": 18.1190295, "pitch": 47, "velocity": 105}, {"start": 18.142839000000002, "end": 18.261886500000003, "pitch": 45, "velocity": 105}, {"start": 18.285696, "end": 18.484505325, "pitch": 47, "velocity": 104}, {"start": 18.57141, "end": 18.8333145, "pitch": 47, "velocity": 105}, {"start": 18.857124000000002, "end": 18.976171500000003, "pitch": 45, "velocity": 104}, {"start": 18.999981000000002, "end": 19.2618855, "pitch": 47, "velocity": 104}, {"start": 19.285695, "end": 19.4047425, "pitch": 45, "velocity": 105}, {"start": 19.428552, "end": 19.627361325000003, "pitch": 47, "velocity": 105}, {"start": 19.714266000000002, "end": 19.976170500000002, "pitch": 47, "velocity": 104}, {"start": 19.99998, "end": 20.1190275, "pitch": 45, "velocity": 104}, {"start": 20.142837, "end": 20.4047415, "pitch": 47, "velocity": 105}, {"start": 20.428551000000002, "end": 20.547598500000003, "pitch": 45, "velocity": 105}, {"start": 20.571408, "end": 20.770217325, "pitch": 47, "velocity": 104}, {"start": 20.857122, "end": 21.1190265, "pitch": 47, "velocity": 104}, {"start": 21.142836000000003, "end": 21.261883500000003, "pitch": 45, "velocity": 105}, {"start": 21.285693000000002, "end": 21.547597500000002, "pitch": 47, "velocity": 104}, {"start": 21.571407, "end": 21.6904545, "pitch": 45, "velocity": 105}, {"start": 21.714264, "end": 21.913073325000003, "pitch": 47, "velocity": 105}, {"start": 21.999978000000002, "end": 22.261882500000002, "pitch": 47, "velocity": 104}, {"start": 22.285692, "end": 22.4047395, "pitch": 45, "velocity": 105}, {"start": 22.428549, "end": 22.6904535, "pitch": 47, "velocity": 104}, {"start": 22.714263000000003, "end": 22.833310500000003, "pitch": 45, "velocity": 104}, {"start": 22.857120000000002, "end": 23.055929325, "pitch": 47, "velocity": 105}, {"start": 23.142834, "end": 23.4047385, "pitch": 47, "velocity": 105}, {"start": 23.428548000000003, "end": 23.5475955, "pitch": 45, "velocity": 104}, {"start": 23.571405000000002, "end": 23.833309500000002, "pitch": 47, "velocity": 104}, {"start": 23.857119, "end": 23.9761665, "pitch": 45, "velocity": 105}, {"start": 23.999976, "end": 24.198785325000003, "pitch": 47, "velocity": 105}, {"start": 24.285690000000002, "end": 24.547594500000002, "pitch": 47, "velocity": 104}, {"start": 24.72140385, "end": 24.82616565, "pitch": 60, "velocity": 1}, {"start": 24.894022725000003, "end": 25.042832100000002, "pitch": 60, "velocity": 1}, {"start": 25.120212975, "end": 25.267831875000002, "pitch": 60, "velocity": 1}, {"start": 25.358307975000002, "end": 25.561879200000003, "pitch": 60, "velocity": 1}, {"start": 25.886878875, "end": 25.99283115, "pitch": 60, "velocity": 1}, {"start": 26.074973925000002, "end": 26.194021425000003, "pitch": 60, "velocity": 1}, {"start": 26.269021350000003, "end": 26.369021250000003, "pitch": 60, "velocity": 1}, {"start": 26.4571164, "end": 26.59759245, "pitch": 60, "velocity": 1}, {"start": 26.689259025000002, "end": 26.877354075000003, "pitch": 60, "velocity": 1}, {"start": 26.953544475, "end": 27.079734825000003, "pitch": 60, "velocity": 1}, {"start": 27.094020525, "end": 27.245210850000003, "pitch": 60, "velocity": 1}, {"start": 27.247591800000002, "end": 27.382115475000003, "pitch": 60, "velocity": 1}, {"start": 27.394020225000002, "end": 27.536877225, "pitch": 60, "velocity": 1}, {"start": 27.546401025, "end": 27.758305575, "pitch": 60, "velocity": 1}, {"start": 27.765448425000002, "end": 27.922591125, "pitch": 60, "velocity": 1}, {"start": 28.3285431, "end": 28.494019125, "pitch": 60, "velocity": 1}, {"start": 28.563066675, "end": 28.666638000000003, "pitch": 60, "velocity": 1}, {"start": 28.7333046, "end": 28.795209300000003, "pitch": 60, "velocity": 1}, {"start": 28.849971150000002, "end": 29.053542375000003, "pitch": 60, "velocity": 1}, {"start": 29.382113475, "end": 29.461875300000003, "pitch": 60, "velocity": 1}, {"start": 29.5475895, "end": 29.672589375, "pitch": 60, "velocity": 1}, {"start": 29.722589325, "end": 29.914255800000003, "pitch": 60, "velocity": 1}, {"start": 30.016636650000002, "end": 30.1094937, "pitch": 60, "velocity": 1}, {"start": 30.173779350000004, "end": 30.220207875000003, "pitch": 60, "velocity": 1}, {"start": 30.334493475000002, "end": 30.410683875000004, "pitch": 60, "velocity": 1}, {"start": 30.471398100000002, "end": 30.549969450000003, "pitch": 60, "velocity": 1}, {"start": 30.632112225000004, "end": 30.709493100000003, "pitch": 60, "velocity": 1}, {"start": 30.774969225000003, "end": 30.903540525000004, "pitch": 60, "velocity": 1}, {"start": 31.03568325, "end": 31.104730800000002, "pitch": 60, "velocity": 1}, {"start": 31.164254550000003, "end": 31.292825850000003, "pitch": 60, "velocity": 1}, {"start": 31.472587575000002, "end": 31.679730225000004, "pitch": 60, "velocity": 1}, {"start": 31.748777775, "end": 31.916634750000004, "pitch": 60, "velocity": 1}, {"start": 32.020206075000004, "end": 32.0999679, "pitch": 60, "velocity": 1}, {"start": 32.1713964, "end": 32.246396325, "pitch": 60, "velocity": 1}, {"start": 32.32139625, "end": 32.37853905, "pitch": 60, "velocity": 1}, {"start": 32.479729425, "end": 32.569015050000004, "pitch": 60, "velocity": 1}, {"start": 32.629729275, "end": 32.801157675, "pitch": 60, "velocity": 1}, {"start": 32.888062350000006, "end": 32.979728925, "pitch": 60, "velocity": 1}, {"start": 33.063062175, "end": 33.2142525, "pitch": 60, "velocity": 1}, {"start": 33.322585725, "end": 33.403538025, "pitch": 60, "velocity": 1}, {"start": 33.477347475, "end": 33.6142521, "pitch": 60, "velocity": 1}, {"start": 33.823775700000006, "end": 33.891632775000005, "pitch": 60, "velocity": 1}, {"start": 33.970204125, "end": 34.040442150000004, "pitch": 60, "velocity": 1}, {"start": 34.124965875, "end": 34.177346775000004, "pitch": 60, "velocity": 1}, {"start": 34.238061, "end": 34.305918075, "pitch": 60, "velocity": 1}, {"start": 34.380918, "end": 34.444013175, "pitch": 60, "velocity": 1}, {"start": 34.5190131, "end": 34.574965425, "pitch": 60, "velocity": 1}, {"start": 34.652346300000005, "end": 34.79758425, "pitch": 60, "velocity": 1}, {"start": 34.9666317, "end": 35.034488775, "pitch": 60, "velocity": 1}, {"start": 35.113060125000004, "end": 35.183298150000006, "pitch": 60, "velocity": 1}, {"start": 35.267821875, "end": 35.320202775000006, "pitch": 60, "velocity": 1}, {"start": 35.380917000000004, "end": 35.448774075, "pitch": 60, "velocity": 1}, {"start": 35.523774, "end": 35.586869175000004, "pitch": 60, "velocity": 1}, {"start": 35.661869100000004, "end": 35.717821425000004, "pitch": 60, "velocity": 1}, {"start": 35.7952023, "end": 35.94044025, "pitch": 60, "velocity": 1}, {"start": 36.310677975000004, "end": 36.37853505, "pitch": 60, "velocity": 1}, {"start": 36.441630225000004, "end": 36.5142492, "pitch": 60, "velocity": 1}, {"start": 36.584487225000004, "end": 36.644010975, "pitch": 60, "velocity": 1}, {"start": 36.698772825000006, "end": 36.774963225, "pitch": 60, "velocity": 1}, {"start": 36.844010775, "end": 36.897582150000005, "pitch": 60, "velocity": 1}, {"start": 36.9618678, "end": 37.021391550000004, "pitch": 60, "velocity": 1}, {"start": 37.117820025, "end": 37.190439000000005, "pitch": 60, "velocity": 1}, {"start": 37.247581800000006, "end": 37.31186745, "pitch": 60, "velocity": 1}, {"start": 37.3999626, "end": 37.5380577, "pitch": 60, "velocity": 1}, {"start": 37.722581325, "end": 37.7999622, "pitch": 60, "velocity": 1}, {"start": 37.844009775, "end": 37.91186685, "pitch": 60, "velocity": 1}, {"start": 37.958295375000006, "end": 38.029723875, "pitch": 60, "velocity": 1}, {"start": 38.1047238, "end": 38.1856761, "pitch": 60, "velocity": 1}, {"start": 38.446390125, "end": 38.508294825, "pitch": 60, "velocity": 1}, {"start": 38.569009050000005, "end": 38.64043755, "pitch": 60, "velocity": 1}, {"start": 38.720199375, "end": 38.7713898, "pitch": 60, "velocity": 1}, {"start": 38.8332945, "end": 38.90234205, "pitch": 60, "velocity": 1}, {"start": 38.992818150000005, "end": 39.184484625, "pitch": 60, "velocity": 1}, {"start": 39.417817725000006, "end": 39.484484325000004, "pitch": 60, "velocity": 1}, {"start": 39.560674725000005, "end": 39.6142461, "pitch": 60, "velocity": 1}, {"start": 39.674960325, "end": 39.736865025, "pitch": 60, "velocity": 1}, {"start": 39.8190078, "end": 39.8809125, "pitch": 60, "velocity": 1}, {"start": 39.941626725000006, "end": 40.008293325000004, "pitch": 60, "velocity": 1}, {"start": 40.102340850000004, "end": 40.334483475000006, "pitch": 60, "velocity": 1}, {"start": 40.557102300000004, "end": 40.6285308, "pitch": 60, "velocity": 1}, {"start": 40.682102175000004, "end": 40.755911625, "pitch": 60, "velocity": 1}, {"start": 40.83567345, "end": 40.90234005, "pitch": 60, "velocity": 1}, {"start": 40.972578075, "end": 41.044006575000004, "pitch": 60, "velocity": 1}, {"start": 41.12138745, "end": 41.199958800000005, "pitch": 60, "velocity": 1}, {"start": 41.258292075, "end": 41.357101500000006, "pitch": 60, "velocity": 1}, {"start": 41.5142442, "end": 41.610672675, "pitch": 60, "velocity": 1}, {"start": 41.685672600000004, "end": 41.9713866, "pitch": 58, "velocity": 1}, {"start": 42.254719650000006, "end": 42.805909575, "pitch": 59, "velocity": 1}, {"start": 42.798766725, "end": 42.848766675, "pitch": 60, "velocity": 1}, {"start": 42.9570999, "end": 43.01186175, "pitch": 60, "velocity": 1}, {"start": 43.070195025000004, "end": 43.129718775, "pitch": 60, "velocity": 1}, {"start": 43.15471875, "end": 43.215432975000006, "pitch": 60, "velocity": 1}, {"start": 43.30948050000001, "end": 43.34995665, "pitch": 60, "velocity": 1}, {"start": 43.39757565, "end": 43.57138500000001, "pitch": 60, "velocity": 1}, {"start": 43.646384925, "end": 43.857099000000005, "pitch": 60, "velocity": 1}, {"start": 43.946384625, "end": 44.058289275, "pitch": 60, "velocity": 1}, {"start": 44.127336825, "end": 44.277336675, "pitch": 60, "velocity": 1}, {"start": 44.365431825, "end": 44.40709845000001, "pitch": 60, "velocity": 1}, {"start": 44.488050750000006, "end": 44.54043165, "pitch": 60, "velocity": 1}, {"start": 44.582098275, "end": 44.765431425, "pitch": 60, "velocity": 1}, {"start": 44.827336125, "end": 45.103526325000004, "pitch": 60, "velocity": 1}, {"start": 45.253526175000005, "end": 45.3190023, "pitch": 60, "velocity": 1}, {"start": 45.397573650000005, "end": 45.48328785, "pitch": 60, "velocity": 1}, {"start": 45.55471635000001, "end": 45.613049625, "pitch": 60, "velocity": 1}, {"start": 45.683287650000004, "end": 45.882096975, "pitch": 60, "velocity": 1}, {"start": 45.953525475000006, "end": 46.195191900000005, "pitch": 60, "velocity": 1}, {"start": 46.271382300000006, "end": 46.465429725, "pitch": 60, "velocity": 1}, {"start": 46.564239150000006, "end": 46.780905600000004, "pitch": 60, "velocity": 1}, {"start": 46.869000750000005, "end": 47.346381225, "pitch": 60, "velocity": 1}, {"start": 47.870190225, "end": 48.048761475000006, "pitch": 66, "velocity": 104}, {"start": 48.108285225, "end": 48.240427950000004, "pitch": 66, "velocity": 105}, {"start": 48.317808825, "end": 48.476142, "pitch": 66, "velocity": 104}, {"start": 48.523761, "end": 48.6428085, "pitch": 66, "velocity": 105}, {"start": 49.06542712500001, "end": 49.243998375000004, "pitch": 66, "velocity": 105}, {"start": 49.3047126, "end": 49.436855325, "pitch": 66, "velocity": 104}, {"start": 49.513045725000005, "end": 49.6713789, "pitch": 66, "velocity": 105}, {"start": 49.718997900000005, "end": 49.838045400000006, "pitch": 66, "velocity": 104}, {"start": 50.03566425, "end": 50.12614035, "pitch": 66, "velocity": 104}, {"start": 50.203521225, "end": 50.333283, "pitch": 66, "velocity": 105}, {"start": 50.398759125000005, "end": 50.517806625000006, "pitch": 66, "velocity": 105}, {"start": 50.589235125, "end": 50.72613975, "pitch": 66, "velocity": 104}, {"start": 50.801139675, "end": 50.972568075000005, "pitch": 66, "velocity": 104}, {"start": 51.193996425, "end": 51.517805625, "pitch": 66, "velocity": 105}, {"start": 51.698757825, "end": 51.957090900000004, "pitch": 66, "velocity": 105}, {"start": 52.301138175000006, "end": 52.674947325000005, "pitch": 60, "velocity": 1}, {"start": 52.838042400000006, "end": 53.155899225000006, "pitch": 60, "velocity": 1}, {"start": 53.5142322, "end": 53.88327945, "pitch": 60, "velocity": 1}, {"start": 54.022565025000006, "end": 54.348755175, "pitch": 60, "velocity": 1}, {"start": 54.708278625000005, "end": 55.0618497, "pitch": 60, "velocity": 1}, {"start": 55.190421, "end": 55.467801675000004, "pitch": 60, "velocity": 1}, {"start": 55.71423, "end": 55.9761345, "pitch": 66, "velocity": 104}, {"start": 55.999944000000006, "end": 56.261848500000006, "pitch": 66, "velocity": 104}, {"start": 56.285658000000005, "end": 56.547562500000005, "pitch": 66, "velocity": 105}, {"start": 56.571372000000004, "end": 56.833276500000004, "pitch": 66, "velocity": 104}, {"start": 56.857086, "end": 57.1189905, "pitch": 62, "velocity": 105}, {"start": 57.1428, "end": 57.4047045, "pitch": 59, "velocity": 105}, {"start": 57.999942000000004, "end": 58.261846500000004, "pitch": 66, "velocity": 104}, {"start": 58.285656, "end": 58.5475605, "pitch": 66, "velocity": 105}, {"start": 58.57137, "end": 58.8332745, "pitch": 65, "velocity": 104}, {"start": 58.85708400000001, "end": 59.11898850000001, "pitch": 66, "velocity": 104}, {"start": 59.142798000000006, "end": 59.404702500000006, "pitch": 62, "velocity": 105}, {"start": 59.428512000000005, "end": 59.690416500000005, "pitch": 59, "velocity": 105}, {"start": 59.714226000000004, "end": 59.976130500000004, "pitch": 62, "velocity": 104}, {"start": 60.285654, "end": 60.5475585, "pitch": 66, "velocity": 104}, {"start": 60.57136800000001, "end": 60.83327250000001, "pitch": 66, "velocity": 105}, {"start": 60.857082000000005, "end": 61.118986500000005, "pitch": 66, "velocity": 105}, {"start": 61.142796000000004, "end": 61.404700500000004, "pitch": 66, "velocity": 104}, {"start": 61.42851, "end": 61.6904145, "pitch": 62, "velocity": 104}, {"start": 61.714224, "end": 61.9761285, "pitch": 59, "velocity": 105}, {"start": 62.571366000000005, "end": 62.833270500000005, "pitch": 66, "velocity": 104}, {"start": 62.85708, "end": 63.1189845, "pitch": 66, "velocity": 105}, {"start": 63.142794, "end": 63.4046985, "pitch": 65, "velocity": 105}, {"start": 63.42850800000001, "end": 63.69041250000001, "pitch": 66, "velocity": 104}, {"start": 63.71422200000001, "end": 63.97612650000001, "pitch": 62, "velocity": 105}, {"start": 63.999936000000005, "end": 64.2618405, "pitch": 59, "velocity": 104}, {"start": 64.28565, "end": 64.5475545, "pitch": 62, "velocity": 104}, {"start": 64.857078, "end": 65.1189825, "pitch": 66, "velocity": 105}, {"start": 65.142792, "end": 65.4046965, "pitch": 66, "velocity": 105}, {"start": 65.428506, "end": 65.6904105, "pitch": 66, "velocity": 104}, {"start": 65.71422000000001, "end": 65.97612450000001, "pitch": 66, "velocity": 104}, {"start": 65.99993400000001, "end": 66.26183850000001, "pitch": 62, "velocity": 105}, {"start": 66.28564800000001, "end": 66.54755250000001, "pitch": 59, "velocity": 105}, {"start": 67.14279, "end": 67.4046945, "pitch": 66, "velocity": 104}, {"start": 67.428504, "end": 67.6904085, "pitch": 66, "velocity": 104}, {"start": 67.714218, "end": 67.9761225, "pitch": 65, "velocity": 105}, {"start": 67.999932, "end": 68.2618365, "pitch": 66, "velocity": 104}, {"start": 68.285646, "end": 68.5475505, "pitch": 62, "velocity": 105}, {"start": 68.57136, "end": 68.8332645, "pitch": 59, "velocity": 105}, {"start": 68.85707400000001, "end": 69.11897850000001, "pitch": 62, "velocity": 104}, {"start": 69.42850200000001, "end": 69.69040650000001, "pitch": 66, "velocity": 105}, {"start": 69.71421600000001, "end": 69.97612050000001, "pitch": 66, "velocity": 104}, {"start": 69.99993, "end": 70.2618345, "pitch": 66, "velocity": 104}, {"start": 70.285644, "end": 70.5475485, "pitch": 66, "velocity": 105}, {"start": 70.571358, "end": 70.8332625, "pitch": 62, "velocity": 105}, {"start": 70.857072, "end": 71.1189765, "pitch": 59, "velocity": 104}, {"start": 71.714214, "end": 71.9761185, "pitch": 66, "velocity": 104}, {"start": 71.99992800000001, "end": 72.26183250000001, "pitch": 66, "velocity": 105}, {"start": 72.28564200000001, "end": 72.54754650000001, "pitch": 65, "velocity": 105}, {"start": 72.57135600000001, "end": 72.83326050000001, "pitch": 66, "velocity": 104}, {"start": 72.85707000000001, "end": 73.11897450000001, "pitch": 62, "velocity": 104}, {"start": 73.142784, "end": 73.4046885, "pitch": 59, "velocity": 105}, {"start": 73.428498, "end": 73.6904025, "pitch": 62, "velocity": 104}, {"start": 75.2951628, "end": 75.42135315, "pitch": 60, "velocity": 1}, {"start": 75.52135305, "end": 75.68801955, "pitch": 60, "velocity": 1}, {"start": 75.7427814, "end": 75.93920977500001, "pitch": 60, "velocity": 1}, {"start": 76.26182850000001, "end": 76.4237331, "pitch": 60, "velocity": 1}, {"start": 76.51420920000001, "end": 76.61659005, "pitch": 60, "velocity": 1}, {"start": 76.693970925, "end": 76.84992315000001, "pitch": 60, "velocity": 1}, {"start": 76.90706595, "end": 77.165399025, "pitch": 60, "velocity": 1}, {"start": 77.42254162500001, "end": 77.57611290000001, "pitch": 60, "velocity": 1}, {"start": 77.6808747, "end": 77.81658885, "pitch": 60, "velocity": 1}, {"start": 77.893969725, "end": 78.02254102500001, "pitch": 60, "velocity": 1}, {"start": 78.103493325, "end": 78.277302675, "pitch": 60, "velocity": 1}, {"start": 78.467778675, "end": 78.579683325, "pitch": 60, "velocity": 1}, {"start": 78.64873087500001, "end": 78.7808736, "pitch": 60, "velocity": 1}, {"start": 78.8618259, "end": 78.9665877, "pitch": 60, "velocity": 1}, {"start": 79.04992095, "end": 79.14634942500001, "pitch": 60, "velocity": 1}, {"start": 79.23444457500001, "end": 79.439206275, "pitch": 60, "velocity": 1}, {"start": 79.663015575, "end": 79.79158687500001, "pitch": 60, "velocity": 1}, {"start": 79.889205825, "end": 80.00468190000001, "pitch": 60, "velocity": 1}, {"start": 80.077300875, "end": 80.189205525, "pitch": 60, "velocity": 1}, {"start": 80.29515780000001, "end": 80.57372895, "pitch": 60, "velocity": 1}, {"start": 80.83563345, "end": 80.9332524, "pitch": 60, "velocity": 1}, {"start": 81.05229990000001, "end": 81.18325215, "pitch": 60, "velocity": 1}, {"start": 81.260633025, "end": 81.34991865, "pitch": 60, "velocity": 1}, {"start": 81.45229950000001, "end": 81.570156525, "pitch": 60, "velocity": 1}, {"start": 81.62491837500001, "end": 81.810632475, "pitch": 60, "velocity": 1}, {"start": 81.96658470000001, "end": 82.10706075, "pitch": 60, "velocity": 1}, {"start": 82.2046797, "end": 82.31182245000001, "pitch": 60, "velocity": 1}, {"start": 82.40110807500001, "end": 82.4951556, "pitch": 60, "velocity": 1}, {"start": 82.59991740000001, "end": 82.705869675, "pitch": 60, "velocity": 1}, {"start": 82.7808696, "end": 82.908250425, "pitch": 60, "velocity": 1}, {"start": 83.12253592500001, "end": 83.232059625, "pitch": 60, "velocity": 1}, {"start": 83.3427738, "end": 83.453487975, "pitch": 60, "velocity": 1}, {"start": 83.51301172500001, "end": 83.59753545000001, "pitch": 60, "velocity": 1}, {"start": 83.701106775, "end": 83.79753525000001, "pitch": 60, "velocity": 1}, {"start": 83.8761066, "end": 84.02610645, "pitch": 60, "velocity": 1}, {"start": 84.54039165, "end": 84.6761058, "pitch": 60, "velocity": 1}, {"start": 84.84515325000001, "end": 84.963010275, "pitch": 60, "velocity": 1}, {"start": 84.98324835000001, "end": 85.1237244, "pitch": 60, "velocity": 1}, {"start": 85.67967622500001, "end": 85.78800945, "pitch": 60, "velocity": 1}, {"start": 85.97015212500001, "end": 86.05467585000001, "pitch": 60, "velocity": 1}, {"start": 86.110628175, "end": 86.27372325, "pitch": 60, "velocity": 1}, {"start": 86.61896100000001, "end": 86.65586572500001, "pitch": 60, "velocity": 1}, {"start": 86.75467515000001, "end": 86.813008425, "pitch": 60, "velocity": 1}, {"start": 86.874913125, "end": 86.910627375, "pitch": 60, "velocity": 1}, {"start": 87.02134155, "end": 87.084436725, "pitch": 60, "velocity": 1}, {"start": 87.13086525, "end": 87.182055675, "pitch": 60, "velocity": 1}, {"start": 87.27967462500001, "end": 87.336817425, "pitch": 60, "velocity": 1}, {"start": 87.40229355000001, "end": 87.46896015, "pitch": 60, "velocity": 1}, {"start": 87.560626725, "end": 87.717769425, "pitch": 60, "velocity": 1}, {"start": 87.99872152500001, "end": 88.06181670000001, "pitch": 60, "velocity": 1}, {"start": 88.12372140000001, "end": 88.18919752500001, "pitch": 60, "velocity": 1}, {"start": 88.270149825, "end": 88.329673575, "pitch": 60, "velocity": 1}, {"start": 88.405863975, "end": 88.47372105000001, "pitch": 60, "velocity": 1}, {"start": 88.565387625, "end": 88.6808637, "pitch": 60, "velocity": 1}, {"start": 88.86300637500001, "end": 88.96300627500001, "pitch": 60, "velocity": 1}, {"start": 89.132053725, "end": 89.265386925, "pitch": 60, "velocity": 1}, {"start": 89.42133915000001, "end": 89.49276765, "pitch": 60, "velocity": 1}, {"start": 89.42252962500001, "end": 89.49276765, "pitch": 60, "velocity": 1}, {"start": 89.527291425, "end": 89.59871992500001, "pitch": 60, "velocity": 1}, {"start": 89.5808628, "end": 89.59871992500001, "pitch": 60, "velocity": 1}, {"start": 89.68681507500001, "end": 89.75824357500001, "pitch": 60, "velocity": 1}, {"start": 89.977290975, "end": 90.04871947500001, "pitch": 60, "velocity": 1}, {"start": 90.13324320000001, "end": 90.2046717, "pitch": 60, "velocity": 1}, {"start": 90.43086195000001, "end": 90.50229045, "pitch": 60, "velocity": 1}, {"start": 90.848718675, "end": 90.98324235000001, "pitch": 60, "velocity": 1}, {"start": 91.14157552500001, "end": 91.29395632500001, "pitch": 60, "velocity": 1}, {"start": 91.43562285, "end": 91.54395607500001, "pitch": 60, "velocity": 1}, {"start": 91.71181305, "end": 91.777289175, "pitch": 60, "velocity": 1}, {"start": 91.87371765, "end": 91.94276520000001, "pitch": 60, "velocity": 1}, {"start": 91.996336575, "end": 92.084431725, "pitch": 60, "velocity": 1}, {"start": 92.24514585, "end": 92.32847910000001, "pitch": 60, "velocity": 1}, {"start": 92.39157427500001, "end": 92.572526475, "pitch": 60, "velocity": 1}, {"start": 92.65466925000001, "end": 92.87371665, "pitch": 60, "velocity": 1}, {"start": 93.13800210000001, "end": 93.29038290000001, "pitch": 60, "velocity": 1}, {"start": 93.40347802500001, "end": 93.57847785000001, "pitch": 60, "velocity": 1}, {"start": 93.69038250000001, "end": 93.86062042500001, "pitch": 60, "velocity": 1}, {"start": 93.982048875, "end": 94.1284773, "pitch": 60, "velocity": 1}, {"start": 94.24871527500001, "end": 94.38919132500001, "pitch": 60, "velocity": 1}, {"start": 94.50704835, "end": 94.666572, "pitch": 60, "velocity": 1}, {"start": 94.73681002500001, "end": 94.87371465000001, "pitch": 60, "velocity": 1}, {"start": 94.94752410000001, "end": 95.15823817500001, "pitch": 60, "velocity": 1}, {"start": 95.28561900000001, "end": 95.35704750000001, "pitch": 60, "velocity": 1}, {"start": 95.428476, "end": 95.49990450000001, "pitch": 60, "velocity": 1}, {"start": 95.57133300000001, "end": 95.6427615, "pitch": 60, "velocity": 1}, {"start": 95.71419, "end": 95.78561850000001, "pitch": 60, "velocity": 1}, {"start": 95.85704700000001, "end": 95.9284755, "pitch": 60, "velocity": 1}, {"start": 95.999904, "end": 96.07133250000001, "pitch": 60, "velocity": 1}, {"start": 96.14276100000001, "end": 96.2141895, "pitch": 60, "velocity": 1}, {"start": 96.28561800000001, "end": 96.35704650000001, "pitch": 60, "velocity": 1}, {"start": 96.428475, "end": 96.4999035, "pitch": 60, "velocity": 1}, {"start": 96.57133200000001, "end": 96.6903795, "pitch": 60, "velocity": 1}, {"start": 96.714189, "end": 96.83323650000001, "pitch": 60, "velocity": 1}, {"start": 96.85704600000001, "end": 96.9760935, "pitch": 60, "velocity": 1}, {"start": 96.999903, "end": 97.11895050000001, "pitch": 60, "velocity": 1}, {"start": 97.285617, "end": 97.5475215, "pitch": 60, "velocity": 1}, {"start": 98.15585422500001, "end": 98.334425475, "pitch": 66, "velocity": 105}, {"start": 98.393949225, "end": 98.52609195000001, "pitch": 66, "velocity": 105}, {"start": 98.60347282500001, "end": 98.761806, "pitch": 66, "velocity": 104}, {"start": 98.809425, "end": 98.92847250000001, "pitch": 66, "velocity": 105}, {"start": 99.35109112500001, "end": 99.529662375, "pitch": 66, "velocity": 104}, {"start": 99.59037660000001, "end": 99.72251932500001, "pitch": 66, "velocity": 104}, {"start": 99.79870972500001, "end": 99.9570429, "pitch": 66, "velocity": 105}, {"start": 100.0046619, "end": 100.12370940000001, "pitch": 66, "velocity": 105}, {"start": 100.32132825000001, "end": 100.41180435000001, "pitch": 66, "velocity": 104}, {"start": 100.489185225, "end": 100.618947, "pitch": 66, "velocity": 104}, {"start": 100.68442312500001, "end": 100.803470625, "pitch": 66, "velocity": 105}, {"start": 100.87489912500001, "end": 101.01180375000001, "pitch": 66, "velocity": 105}, {"start": 101.08680367500001, "end": 101.25823207500001, "pitch": 66, "velocity": 104}, {"start": 101.479660425, "end": 101.803469625, "pitch": 66, "velocity": 104}, {"start": 101.98442182500001, "end": 102.24275490000001, "pitch": 66, "velocity": 105}, {"start": 102.586802175, "end": 102.960611325, "pitch": 60, "velocity": 1}, {"start": 103.1237064, "end": 103.44156322500001, "pitch": 60, "velocity": 1}, {"start": 103.7998962, "end": 104.16894345, "pitch": 60, "velocity": 1}, {"start": 104.308229025, "end": 104.634419175, "pitch": 60, "velocity": 1}, {"start": 104.993942625, "end": 105.34751370000001, "pitch": 60, "velocity": 1}, {"start": 105.47608500000001, "end": 105.753465675, "pitch": 60, "velocity": 1}, {"start": 105.99989400000001, "end": 106.26179850000001, "pitch": 66, "velocity": 104}, {"start": 106.28560800000001, "end": 106.54751250000001, "pitch": 66, "velocity": 105}, {"start": 106.57132200000001, "end": 106.83322650000001, "pitch": 66, "velocity": 105}, {"start": 106.85703600000001, "end": 107.11894050000001, "pitch": 66, "velocity": 104}, {"start": 107.14275, "end": 107.4046545, "pitch": 62, "velocity": 105}, {"start": 107.428464, "end": 107.6903685, "pitch": 59, "velocity": 104}, {"start": 108.285606, "end": 108.5475105, "pitch": 66, "velocity": 104}, {"start": 108.57132000000001, "end": 108.83322450000001, "pitch": 66, "velocity": 105}, {"start": 108.85703400000001, "end": 109.11893850000001, "pitch": 65, "velocity": 105}, {"start": 109.14274800000001, "end": 109.40465250000001, "pitch": 66, "velocity": 104}, {"start": 109.42846200000001, "end": 109.69036650000001, "pitch": 62, "velocity": 104}, {"start": 109.71417600000001, "end": 109.97608050000001, "pitch": 59, "velocity": 105}, {"start": 109.99989000000001, "end": 110.26179450000001, "pitch": 62, "velocity": 105}, {"start": 110.571318, "end": 110.8332225, "pitch": 66, "velocity": 104}, {"start": 110.857032, "end": 111.1189365, "pitch": 66, "velocity": 104}, {"start": 111.142746, "end": 111.4046505, "pitch": 66, "velocity": 105}, {"start": 111.42846, "end": 111.6903645, "pitch": 66, "velocity": 104}, {"start": 111.71417400000001, "end": 111.97607850000001, "pitch": 62, "velocity": 105}, {"start": 111.99988800000001, "end": 112.26179250000001, "pitch": 59, "velocity": 105}, {"start": 112.85703000000001, "end": 113.11893450000001, "pitch": 66, "velocity": 104}, {"start": 113.14274400000001, "end": 113.40464850000001, "pitch": 66, "velocity": 105}, {"start": 113.428458, "end": 113.6903625, "pitch": 65, "velocity": 104}, {"start": 113.714172, "end": 113.9760765, "pitch": 66, "velocity": 104}, {"start": 113.999886, "end": 114.2617905, "pitch": 62, "velocity": 105}, {"start": 114.2856, "end": 114.5475045, "pitch": 59, "velocity": 105}, {"start": 114.571314, "end": 114.8332185, "pitch": 62, "velocity": 104}, {"start": 115.14274200000001, "end": 115.40464650000001, "pitch": 66, "velocity": 104}, {"start": 115.42845600000001, "end": 115.69036050000001, "pitch": 66, "velocity": 105}, {"start": 115.71417000000001, "end": 115.97607450000001, "pitch": 66, "velocity": 105}, {"start": 115.99988400000001, "end": 116.26178850000001, "pitch": 66, "velocity": 104}, {"start": 116.28559800000001, "end": 116.54750250000001, "pitch": 62, "velocity": 104}, {"start": 116.571312, "end": 116.8332165, "pitch": 59, "velocity": 105}, {"start": 117.428454, "end": 117.6903585, "pitch": 66, "velocity": 104}, {"start": 117.71416800000002, "end": 117.97607250000001, "pitch": 66, "velocity": 105}, {"start": 117.99988200000001, "end": 118.26178650000001, "pitch": 65, "velocity": 105}, {"start": 118.28559600000001, "end": 118.54750050000001, "pitch": 66, "velocity": 104}, {"start": 118.57131000000001, "end": 118.83321450000001, "pitch": 62, "velocity": 105}, {"start": 118.85702400000001, "end": 119.11892850000001, "pitch": 59, "velocity": 104}, {"start": 119.14273800000001, "end": 119.40464250000001, "pitch": 62, "velocity": 104}, {"start": 119.714166, "end": 119.9760705, "pitch": 66, "velocity": 105}, {"start": 119.99988, "end": 120.2617845, "pitch": 66, "velocity": 105}, {"start": 120.285594, "end": 120.5474985, "pitch": 66, "velocity": 104}, {"start": 120.571308, "end": 120.8332125, "pitch": 66, "velocity": 104}, {"start": 120.85702200000001, "end": 121.11892650000001, "pitch": 62, "velocity": 105}, {"start": 121.14273600000001, "end": 121.40464050000001, "pitch": 59, "velocity": 105}, {"start": 121.99987800000001, "end": 122.26178250000001, "pitch": 66, "velocity": 104}, {"start": 122.28559200000001, "end": 122.54749650000001, "pitch": 66, "velocity": 104}, {"start": 122.571306, "end": 122.8332105, "pitch": 65, "velocity": 105}, {"start": 122.85702, "end": 123.1189245, "pitch": 66, "velocity": 104}, {"start": 123.142734, "end": 123.4046385, "pitch": 62, "velocity": 105}, {"start": 123.428448, "end": 123.6903525, "pitch": 59, "velocity": 105}, {"start": 123.714162, "end": 123.9760665, "pitch": 62, "velocity": 104}, {"start": 124.57130400000001, "end": 124.68082770000001, "pitch": 57, "velocity": 105}, {"start": 124.85701800000001, "end": 124.97249407500001, "pitch": 57, "velocity": 104}, {"start": 125.14273200000001, "end": 125.310588975, "pitch": 57, "velocity": 104}, {"start": 125.28558900000002, "end": 125.4141603, "pitch": 59, "velocity": 105}, {"start": 125.57130300000001, "end": 125.75463615000001, "pitch": 57, "velocity": 105}, {"start": 125.71416, "end": 125.8474932, "pitch": 59, "velocity": 104}, {"start": 125.999874, "end": 126.1474929, "pitch": 59, "velocity": 104}, {"start": 126.285588, "end": 126.43915927500001, "pitch": 57, "velocity": 105}, {"start": 126.42844500000001, "end": 126.55344487500001, "pitch": 59, "velocity": 105}, {"start": 126.71415900000001, "end": 126.85225410000001, "pitch": 57, "velocity": 104}, {"start": 126.85701600000002, "end": 126.96892065000002, "pitch": 59, "velocity": 104}, {"start": 127.14273000000001, "end": 127.258206075, "pitch": 59, "velocity": 105}, {"start": 127.42844400000001, "end": 127.58915812500001, "pitch": 57, "velocity": 104}, {"start": 127.571301, "end": 127.67725327500001, "pitch": 59, "velocity": 105}, {"start": 127.857015, "end": 127.98796725000001, "pitch": 57, "velocity": 105}, {"start": 127.99987200000001, "end": 128.10939570000002, "pitch": 59, "velocity": 104}, {"start": 128.285586, "end": 128.42606205, "pitch": 59, "velocity": 105}, {"start": 128.5713, "end": 128.83320450000002, "pitch": 59, "velocity": 104}, {"start": 128.85701400000002, "end": 129.1189185, "pitch": 59, "velocity": 104}, {"start": 129.142728, "end": 129.6903465, "pitch": 64, "velocity": 105}, {"start": 129.714156, "end": 129.97606050000002, "pitch": 62, "velocity": 105}, {"start": 130.857012, "end": 131.1189165, "pitch": 59, "velocity": 104}, {"start": 131.142726, "end": 131.4046305, "pitch": 59, "velocity": 104}, {"start": 131.42844000000002, "end": 131.97605850000002, "pitch": 64, "velocity": 105}, {"start": 131.99986800000002, "end": 132.2617725, "pitch": 62, "velocity": 105}, {"start": 133.14272400000002, "end": 133.4046285, "pitch": 59, "velocity": 104}, {"start": 133.428438, "end": 133.6903425, "pitch": 59, "velocity": 104}, {"start": 133.714152, "end": 134.2617705, "pitch": 64, "velocity": 105}, {"start": 134.28558, "end": 134.5474845, "pitch": 62, "velocity": 104}, {"start": 135.428436, "end": 135.69034050000002, "pitch": 59, "velocity": 105}, {"start": 135.71415000000002, "end": 135.9760545, "pitch": 59, "velocity": 105}, {"start": 135.999864, "end": 136.5474825, "pitch": 64, "velocity": 104}, {"start": 136.571292, "end": 137.1189105, "pitch": 62, "velocity": 105}, {"start": 137.71414800000002, "end": 137.9760525, "pitch": 59, "velocity": 104}, {"start": 137.999862, "end": 138.26176650000002, "pitch": 59, "velocity": 104}, {"start": 138.28557600000002, "end": 138.83319450000002, "pitch": 64, "velocity": 105}, {"start": 138.85700400000002, "end": 139.1189085, "pitch": 62, "velocity": 105}, {"start": 139.99986, "end": 140.2617645, "pitch": 59, "velocity": 104}, {"start": 140.285574, "end": 140.5474785, "pitch": 59, "velocity": 104}, {"start": 140.571288, "end": 141.1189065, "pitch": 64, "velocity": 105}, {"start": 141.142716, "end": 141.40462050000002, "pitch": 62, "velocity": 105}, {"start": 143.714142, "end": 143.97604650000002, "pitch": 62, "velocity": 104}, {"start": 143.99985600000002, "end": 144.2617605, "pitch": 62, "velocity": 104}, {"start": 144.28557, "end": 144.54747450000002, "pitch": 62, "velocity": 105}, {"start": 144.57128400000002, "end": 144.8331885, "pitch": 62, "velocity": 104}, {"start": 144.856998, "end": 145.11890250000002, "pitch": 62, "velocity": 105}, {"start": 145.14271200000002, "end": 145.4046165, "pitch": 62, "velocity": 105}, {"start": 145.428426, "end": 145.69033050000002, "pitch": 62, "velocity": 104}, {"start": 145.71414000000001, "end": 145.9760445, "pitch": 64, "velocity": 105}, {"start": 145.999854, "end": 146.2617585, "pitch": 64, "velocity": 104}, {"start": 146.285568, "end": 146.5474725, "pitch": 64, "velocity": 104}, {"start": 146.571282, "end": 146.8331865, "pitch": 64, "velocity": 105}, {"start": 146.856996, "end": 147.11890050000002, "pitch": 61, "velocity": 105}, {"start": 147.14271000000002, "end": 147.4046145, "pitch": 61, "velocity": 104}, {"start": 147.428424, "end": 147.69032850000002, "pitch": 61, "velocity": 104}, {"start": 147.71413800000002, "end": 147.9760425, "pitch": 61, "velocity": 105}, {"start": 147.999852, "end": 148.191518475, "pitch": 59, "velocity": 105}, {"start": 148.2188994, "end": 148.429613475, "pitch": 60, "velocity": 1}, {"start": 148.5474705, "end": 148.66175610000002, "pitch": 60, "velocity": 1}, {"start": 148.739136975, "end": 148.8236607, "pitch": 60, "velocity": 1}, {"start": 148.908184425, "end": 149.09389852500001, "pitch": 60, "velocity": 1}, {"start": 149.15104132500002, "end": 149.27008882500002, "pitch": 60, "velocity": 1}, {"start": 149.34389827500002, "end": 149.48794575000002, "pitch": 60, "velocity": 1}, {"start": 149.54627902500002, "end": 149.87365965, "pitch": 60, "velocity": 1}, {"start": 149.97365955, "end": 150.1522308, "pitch": 60, "velocity": 1}, {"start": 150.23318310000002, "end": 150.40461150000002, "pitch": 60, "velocity": 1}, {"start": 150.48080190000002, "end": 150.589135125, "pitch": 60, "velocity": 1}, {"start": 150.681992175, "end": 150.85461105000002, "pitch": 60, "velocity": 1}, {"start": 150.92603955, "end": 151.136753625, "pitch": 60, "velocity": 1}, {"start": 151.151039325, "end": 151.24508685, "pitch": 60, "velocity": 1}, {"start": 151.30937250000002, "end": 151.39627717500002, "pitch": 60, "velocity": 1}, {"start": 151.4617533, "end": 151.62603885000001, "pitch": 60, "velocity": 1}, {"start": 151.701038775, "end": 151.877229075, "pitch": 60, "velocity": 1}, {"start": 151.97603850000002, "end": 152.196276375, "pitch": 60, "velocity": 1}, {"start": 152.279609625, "end": 152.65937115, "pitch": 60, "velocity": 1}, {"start": 152.77603770000002, "end": 152.96056132500001, "pitch": 60, "velocity": 1}, {"start": 153.04032315, "end": 153.18913252500002, "pitch": 60, "velocity": 1}, {"start": 153.31294192500002, "end": 153.46413225, "pitch": 60, "velocity": 1}, {"start": 153.548655975, "end": 153.68317965, "pitch": 60, "velocity": 1}, {"start": 153.75460815000002, "end": 153.89984610000002, "pitch": 60, "velocity": 1}, {"start": 153.970084125, "end": 154.1331792, "pitch": 60, "velocity": 1}, {"start": 154.198655325, "end": 154.35817897500002, "pitch": 60, "velocity": 1}, {"start": 154.453416975, "end": 154.7093691, "pitch": 60, "velocity": 1}, {"start": 154.83913087500002, "end": 154.993892625, "pitch": 60, "velocity": 1}, {"start": 155.08198777500002, "end": 155.2331781, "pitch": 60, "velocity": 1}, {"start": 155.34032085, "end": 155.4569874, "pitch": 60, "velocity": 1}, {"start": 155.58436822500002, "end": 155.701034775, "pitch": 60, "velocity": 1}, {"start": 155.789129925, "end": 155.89270125000002, "pitch": 60, "velocity": 1}, {"start": 156.00579637500002, "end": 156.15460575, "pitch": 60, "velocity": 1}, {"start": 156.222462825, "end": 156.32127225000002, "pitch": 60, "velocity": 1}, {"start": 156.467700675, "end": 156.81650985000002, "pitch": 60, "velocity": 1}, {"start": 157.37722357500002, "end": 157.5569853, "pitch": 60, "velocity": 1}, {"start": 157.63793760000001, "end": 157.798651725, "pitch": 60, "velocity": 1}, {"start": 157.89269925000002, "end": 158.043889575, "pitch": 60, "velocity": 1}, {"start": 158.11174665000001, "end": 158.234365575, "pitch": 60, "velocity": 1}, {"start": 158.336746425, "end": 158.49865102500002, "pitch": 60, "velocity": 1}, {"start": 158.57484142500002, "end": 158.70341272500002, "pitch": 60, "velocity": 1}, {"start": 158.791507875, "end": 158.946269625, "pitch": 60, "velocity": 1}, {"start": 159.01650765000002, "end": 159.26650740000002, "pitch": 60, "velocity": 1}, {"start": 159.42126915, "end": 159.486745275, "pitch": 60, "velocity": 1}, {"start": 159.54984045, "end": 159.61650705000002, "pitch": 60, "velocity": 1}, {"start": 159.710554575, "end": 159.77841165, "pitch": 60, "velocity": 1}, {"start": 159.860554425, "end": 159.93079245, "pitch": 60, "velocity": 1}, {"start": 160.017697125, "end": 160.17364935, "pitch": 60, "velocity": 1}, {"start": 160.260554025, "end": 160.44864907500002, "pitch": 60, "velocity": 1}, {"start": 160.56888705, "end": 160.73793450000002, "pitch": 60, "velocity": 1}, {"start": 160.84626772500002, "end": 160.97721997500003, "pitch": 60, "velocity": 1}, {"start": 161.05102942500002, "end": 161.19269595, "pitch": 60, "velocity": 1}, {"start": 161.312933925, "end": 161.505790875, "pitch": 60, "velocity": 1}, {"start": 161.95936185000002, "end": 162.184361625, "pitch": 60, "velocity": 1}, {"start": 162.274837725, "end": 162.3712662, "pitch": 60, "velocity": 1}, {"start": 162.43912327500001, "end": 162.760551525, "pitch": 60, "velocity": 1}, {"start": 162.86531332500002, "end": 163.074836925, "pitch": 60, "velocity": 1}, {"start": 163.158170175, "end": 163.348646175, "pitch": 60, "velocity": 1}, {"start": 163.41174135, "end": 163.60221735000002, "pitch": 60, "velocity": 1}, {"start": 163.68674107500001, "end": 163.91293132500002, "pitch": 60, "velocity": 1}, {"start": 163.99983600000002, "end": 164.2617405, "pitch": 60, "velocity": 1}, {"start": 164.28555, "end": 164.54745450000001, "pitch": 60, "velocity": 1}, {"start": 164.571264, "end": 164.6903115, "pitch": 60, "velocity": 1}, {"start": 164.714121, "end": 164.8331685, "pitch": 60, "velocity": 1}, {"start": 164.856978, "end": 164.97602550000002, "pitch": 60, "velocity": 1}, {"start": 164.99983500000002, "end": 165.1188825, "pitch": 60, "velocity": 1}, {"start": 165.142692, "end": 165.2617395, "pitch": 60, "velocity": 1}, {"start": 165.285549, "end": 165.40459650000003, "pitch": 60, "velocity": 1}, {"start": 165.42840600000002, "end": 165.6903105, "pitch": 60, "velocity": 1}, {"start": 165.71412, "end": 165.97602450000002, "pitch": 60, "velocity": 1}, {"start": 165.99983400000002, "end": 166.2617385, "pitch": 60, "velocity": 1}, {"start": 166.470071625, "end": 166.620071475, "pitch": 60, "velocity": 1}, {"start": 166.714119, "end": 166.872452175, "pitch": 60, "velocity": 1}, {"start": 166.970071125, "end": 167.11649955000001, "pitch": 60, "velocity": 1}, {"start": 167.21054707500002, "end": 167.367689775, "pitch": 60, "velocity": 1}, {"start": 167.46649920000002, "end": 167.59507050000002, "pitch": 60, "velocity": 1}, {"start": 167.69268945000002, "end": 167.824832175, "pitch": 60, "velocity": 1}, {"start": 167.91054637500002, "end": 168.041498625, "pitch": 60, "velocity": 1}, {"start": 168.120069975, "end": 168.40102207500001, "pitch": 60, "velocity": 1}, {"start": 168.52959337500002, "end": 168.72959317500002, "pitch": 60, "velocity": 1}, {"start": 168.84030735000002, "end": 169.01887860000002, "pitch": 60, "velocity": 1}, {"start": 169.12483087500001, "end": 169.28316405, "pitch": 60, "velocity": 1}, {"start": 169.391497275, "end": 169.60221135, "pitch": 60, "velocity": 1}, {"start": 169.69863982500001, "end": 169.83792540000002, "pitch": 60, "velocity": 1}, {"start": 169.95935385, "end": 170.05935375, "pitch": 60, "velocity": 1}, {"start": 170.146258425, "end": 170.28554400000002, "pitch": 60, "velocity": 1}, {"start": 170.3998296, "end": 170.69030550000002, "pitch": 60, "velocity": 1}, {"start": 171.29863822500002, "end": 171.47720947500002, "pitch": 66, "velocity": 104}, {"start": 171.536733225, "end": 171.66887595, "pitch": 66, "velocity": 104}, {"start": 171.74625682500002, "end": 171.90459, "pitch": 66, "velocity": 105}, {"start": 171.952209, "end": 172.0712565, "pitch": 66, "velocity": 104}, {"start": 172.49387512500002, "end": 172.67244637500002, "pitch": 66, "velocity": 105}, {"start": 172.73316060000002, "end": 172.865303325, "pitch": 66, "velocity": 105}, {"start": 172.94149372500002, "end": 173.0998269, "pitch": 66, "velocity": 104}, {"start": 173.1474459, "end": 173.2664934, "pitch": 66, "velocity": 105}, {"start": 173.46411225, "end": 173.55458835000002, "pitch": 66, "velocity": 104}, {"start": 173.631969225, "end": 173.76173100000003, "pitch": 66, "velocity": 104}, {"start": 173.827207125, "end": 173.94625462500002, "pitch": 66, "velocity": 105}, {"start": 174.01768312500002, "end": 174.15458775000002, "pitch": 66, "velocity": 105}, {"start": 174.229587675, "end": 174.401016075, "pitch": 66, "velocity": 104}, {"start": 174.62244442500003, "end": 174.94625362500003, "pitch": 66, "velocity": 104}, {"start": 175.127205825, "end": 175.3855389, "pitch": 66, "velocity": 105}, {"start": 175.729586175, "end": 176.103395325, "pitch": 60, "velocity": 1}, {"start": 176.2664904, "end": 176.58434722500002, "pitch": 60, "velocity": 1}, {"start": 176.9426802, "end": 177.31172745, "pitch": 60, "velocity": 1}, {"start": 177.451013025, "end": 177.777203175, "pitch": 60, "velocity": 1}, {"start": 178.13672662500002, "end": 178.4902977, "pitch": 60, "velocity": 1}, {"start": 178.61886900000002, "end": 178.896249675, "pitch": 60, "velocity": 1}, {"start": 179.14267800000002, "end": 179.4045825, "pitch": 66, "velocity": 105}, {"start": 179.428392, "end": 179.69029650000002, "pitch": 66, "velocity": 104}, {"start": 179.71410600000002, "end": 179.9760105, "pitch": 66, "velocity": 104}, {"start": 179.99982, "end": 180.2617245, "pitch": 66, "velocity": 105}, {"start": 180.285534, "end": 180.54743850000003, "pitch": 62, "velocity": 104}, {"start": 180.57124800000003, "end": 180.8331525, "pitch": 59, "velocity": 105}, {"start": 181.42839, "end": 181.69029450000002, "pitch": 66, "velocity": 105}, {"start": 181.71410400000002, "end": 181.9760085, "pitch": 66, "velocity": 104}, {"start": 181.999818, "end": 182.26172250000002, "pitch": 65, "velocity": 105}, {"start": 182.28553200000002, "end": 182.5474365, "pitch": 66, "velocity": 104}, {"start": 182.571246, "end": 182.83315050000002, "pitch": 62, "velocity": 104}, {"start": 182.85696000000002, "end": 183.1188645, "pitch": 59, "velocity": 105}, {"start": 183.142674, "end": 183.4045785, "pitch": 62, "velocity": 105}, {"start": 183.71410200000003, "end": 183.9760065, "pitch": 66, "velocity": 104}, {"start": 183.999816, "end": 184.26172050000002, "pitch": 66, "velocity": 104}, {"start": 184.28553000000002, "end": 184.5474345, "pitch": 66, "velocity": 105}, {"start": 184.571244, "end": 184.83314850000002, "pitch": 66, "velocity": 105}, {"start": 184.85695800000002, "end": 185.1188625, "pitch": 62, "velocity": 104}, {"start": 185.142672, "end": 185.40457650000002, "pitch": 59, "velocity": 104}, {"start": 185.99981400000001, "end": 186.2617185, "pitch": 66, "velocity": 105}, {"start": 186.285528, "end": 186.5474325, "pitch": 66, "velocity": 104}, {"start": 186.571242, "end": 186.83314650000003, "pitch": 65, "velocity": 105}, {"start": 186.85695600000003, "end": 187.1188605, "pitch": 66, "velocity": 105}, {"start": 187.14267, "end": 187.40457450000002, "pitch": 62, "velocity": 104}, {"start": 187.42838400000002, "end": 187.6902885, "pitch": 59, "velocity": 105}, {"start": 187.714098, "end": 187.97600250000002, "pitch": 62, "velocity": 104}, {"start": 188.285526, "end": 188.54743050000002, "pitch": 66, "velocity": 104}, {"start": 188.57124000000002, "end": 188.8331445, "pitch": 66, "velocity": 105}, {"start": 188.856954, "end": 189.11885850000002, "pitch": 66, "velocity": 105}, {"start": 189.14266800000001, "end": 189.4045725, "pitch": 66, "velocity": 104}, {"start": 189.428382, "end": 189.6902865, "pitch": 62, "velocity": 104}, {"start": 189.714096, "end": 189.97600050000003, "pitch": 59, "velocity": 105}, {"start": 190.57123800000002, "end": 190.8331425, "pitch": 66, "velocity": 105}, {"start": 190.856952, "end": 191.11885650000002, "pitch": 66, "velocity": 104}, {"start": 191.14266600000002, "end": 191.4045705, "pitch": 65, "velocity": 104}, {"start": 191.42838, "end": 191.69028450000002, "pitch": 66, "velocity": 105}, {"start": 191.71409400000002, "end": 191.9759985, "pitch": 62, "velocity": 104}, {"start": 191.999808, "end": 192.26171250000002, "pitch": 59, "velocity": 105}, {"start": 192.28552200000001, "end": 192.5474265, "pitch": 62, "velocity": 105}, {"start": 192.85695, "end": 193.11885450000003, "pitch": 66, "velocity": 104}, {"start": 193.14266400000002, "end": 193.4045685, "pitch": 66, "velocity": 105}, {"start": 193.428378, "end": 193.69028250000002, "pitch": 66, "velocity": 104}, {"start": 193.71409200000002, "end": 193.9759965, "pitch": 66, "velocity": 104}, {"start": 193.999806, "end": 194.26171050000002, "pitch": 62, "velocity": 105}, {"start": 194.28552000000002, "end": 194.5474245, "pitch": 59, "velocity": 105}, {"start": 195.142662, "end": 195.40456650000002, "pitch": 66, "velocity": 104}, {"start": 195.42837600000001, "end": 195.6902805, "pitch": 66, "velocity": 104}, {"start": 195.71409000000003, "end": 195.9759945, "pitch": 65, "velocity": 105}, {"start": 195.999804, "end": 196.26170850000003, "pitch": 66, "velocity": 105}, {"start": 196.28551800000002, "end": 196.5474225, "pitch": 62, "velocity": 104}, {"start": 196.571232, "end": 196.83313650000002, "pitch": 59, "velocity": 104}, {"start": 196.85694600000002, "end": 197.1188505, "pitch": 62, "velocity": 105}, {"start": 197.42837400000002, "end": 197.6902785, "pitch": 71, "velocity": 104}, {"start": 197.714088, "end": 198.2617065, "pitch": 76, "velocity": 105}, {"start": 198.285516, "end": 198.54742050000002, "pitch": 74, "velocity": 105}, {"start": 199.714086, "end": 199.97599050000002, "pitch": 71, "velocity": 104}, {"start": 199.99980000000002, "end": 200.54741850000002, "pitch": 76, "velocity": 105}, {"start": 200.57122800000002, "end": 200.8331325, "pitch": 74, "velocity": 104}, {"start": 201.99979800000003, "end": 202.2617025, "pitch": 71, "velocity": 104}, {"start": 202.285512, "end": 202.8331305, "pitch": 76, "velocity": 105}, {"start": 202.85694, "end": 203.11884450000002, "pitch": 74, "velocity": 105}, {"start": 204.28551000000002, "end": 204.5474145, "pitch": 71, "velocity": 104}, {"start": 204.571224, "end": 205.11884250000003, "pitch": 76, "velocity": 104}, {"start": 205.14265200000003, "end": 205.4045565, "pitch": 74, "velocity": 105}, {"start": 206.571222, "end": 206.83312650000002, "pitch": 71, "velocity": 105}, {"start": 206.85693600000002, "end": 207.40455450000002, "pitch": 76, "velocity": 104}, {"start": 207.42836400000002, "end": 207.6902685, "pitch": 74, "velocity": 104}, {"start": 208.85693400000002, "end": 209.1188385, "pitch": 71, "velocity": 105}, {"start": 209.142648, "end": 209.6902665, "pitch": 76, "velocity": 104}, {"start": 209.714076, "end": 209.97598050000002, "pitch": 74, "velocity": 105}, {"start": 212.285502, "end": 212.54740650000002, "pitch": 62, "velocity": 105}, {"start": 212.57121600000002, "end": 212.8331205, "pitch": 62, "velocity": 104}, {"start": 212.85693, "end": 213.11883450000002, "pitch": 62, "velocity": 105}, {"start": 213.14264400000002, "end": 213.4045485, "pitch": 62, "velocity": 104}, {"start": 213.428358, "end": 213.69026250000002, "pitch": 62, "velocity": 104}, {"start": 213.71407200000002, "end": 213.9759765, "pitch": 62, "velocity": 105}, {"start": 213.99978600000003, "end": 214.26169050000001, "pitch": 62, "velocity": 105}, {"start": 214.2855, "end": 214.54740450000003, "pitch": 64, "velocity": 104}, {"start": 214.57121400000003, "end": 214.8331185, "pitch": 64, "velocity": 104}, {"start": 214.856928, "end": 215.11883250000002, "pitch": 64, "velocity": 105}, {"start": 215.14264200000002, "end": 215.4045465, "pitch": 64, "velocity": 105}, {"start": 215.428356, "end": 215.69026050000002, "pitch": 61, "velocity": 104}, {"start": 215.71407000000002, "end": 215.9759745, "pitch": 61, "velocity": 104}, {"start": 215.999784, "end": 216.26168850000002, "pitch": 61, "velocity": 105}, {"start": 216.28549800000002, "end": 216.5474025, "pitch": 61, "velocity": 104}, {"start": 216.571212, "end": 216.83311650000002, "pitch": 59, "velocity": 105}]'),
(27793, '[{"start": 0.0, "end": 0.25, "pitch": 58, "velocity": 100}, {"start": 0.0, "end": 0.25, "pitch": 82, "velocity": 100}, {"start": 0.25, "end": 0.5, "pitch": 61, "velocity": 100}, {"start": 0.25, "end": 0.5, "pitch": 85, "velocity": 100}, {"start": 0.5, "end": 1.0, "pitch": 85, "velocity": 100}, {"start": 0.5, "end": 1.0, "pitch": 61, "velocity": 100}, {"start": 1.0, "end": 1.5, "pitch": 85, "velocity": 100}, {"start": 1.0, "end": 1.5, "pitch": 61, "velocity": 100}, {"start": 1.5, "end": 2.0, "pitch": 89, "velocity": 100}, {"start": 1.5, "end": 2.0, "pitch": 65, "velocity": 100}, {"start": 2.0, "end": 2.25, "pitch": 85, "velocity": 100}, {"start": 2.0, "end": 2.25, "pitch": 61, "velocity": 100}, {"start": 2.25, "end": 2.5, "pitch": 84, "velocity": 100}, {"start": 2.25, "end": 2.5, "pitch": 60, "velocity": 100}, {"start": 2.5, "end": 3.0, "pitch": 82, "velocity": 100}, {"start": 2.5, "end": 3.0, "pitch": 58, "velocity": 100}, {"start": 3.0, "end": 4.0, "pitch": 80, "velocity": 100}, {"start": 3.0, "end": 4.0, "pitch": 56, "velocity": 100}, {"start": 4.25, "end": 5.5, "pitch": 58, "velocity": 100}, {"start": 4.25, "end": 5.5, "pitch": 82, "velocity": 100}, {"start": 5.75, "end": 6.0, "pitch": 61, "velocity": 100}, {"start": 5.75, "end": 6.0, "pitch": 85, "velocity": 100}, {"start": 6.0, "end": 6.25, "pitch": 82, "velocity": 100}, {"start": 6.0, "end": 6.25, "pitch": 58, "velocity": 100}, {"start": 6.25, "end": 7.75, "pitch": 84, "velocity": 100}, {"start": 6.25, "end": 7.75, "pitch": 60, "velocity": 100}, {"start": 8.0, "end": 8.25, "pitch": 60, "velocity": 100}, {"start": 8.0, "end": 8.25, "pitch": 84, "velocity": 100}, {"start": 8.25, "end": 8.5, "pitch": 84, "velocity": 100}, {"start": 8.25, "end": 8.5, "pitch": 60, "velocity": 100}, {"start": 8.5, "end": 8.75, "pitch": 84, "velocity": 100}, {"start": 8.5, "end": 8.75, "pitch": 60, "velocity": 100}, {"start": 8.75, "end": 9.25, "pitch": 89, "velocity": 100}, {"start": 8.75, "end": 9.25, "pitch": 65, "velocity": 100}, {"start": 9.25, "end": 9.5, "pitch": 87, "velocity": 100}, {"start": 9.25, "end": 9.5, "pitch": 63, "velocity": 100}, {"start": 9.5, "end": 10.0, "pitch": 87, "velocity": 100}, {"start": 9.5, "end": 10.0, "pitch": 63, "velocity": 100}, {"start": 10.0, "end": 10.5, "pitch": 89, "velocity": 100}, {"start": 10.0, "end": 10.5, "pitch": 65, "velocity": 100}, {"start": 10.5, "end": 10.75, "pitch": 85, "velocity": 100}, {"start": 10.5, "end": 10.75, "pitch": 61, "velocity": 100}, {"start": 10.75, "end": 11.0, "pitch": 84, "velocity": 100}, {"start": 10.75, "end": 11.0, "pitch": 60, "velocity": 100}, {"start": 11.0, "end": 12.25, "pitch": 82, "velocity": 100}, {"start": 11.0, "end": 12.25, "pitch": 58, "velocity": 100}, {"start": 12.75, "end": 13.0, "pitch": 58, "velocity": 100}, {"start": 12.75, "end": 13.0, "pitch": 82, "velocity": 100}, {"start": 13.0, "end": 13.25, "pitch": 85, "velocity": 100}, {"start": 13.0, "end": 13.25, "pitch": 61, "velocity": 100}, {"start": 13.25, "end": 13.5, "pitch": 82, "velocity": 100}, {"start": 13.25, "end": 13.5, "pitch": 58, "velocity": 100}, {"start": 13.5, "end": 13.625, "pitch": 85, "velocity": 100}, {"start": 13.5, "end": 13.625, "pitch": 61, "velocity": 100}, {"start": 13.625, "end": 13.875, "pitch": 82, "velocity": 100}, {"start": 13.625, "end": 13.875, "pitch": 58, "velocity": 100}, {"start": 13.875, "end": 14.0, "pitch": 85, "velocity": 100}, {"start": 13.875, "end": 14.0, "pitch": 61, "velocity": 100}, {"start": 14.0, "end": 14.125, "pitch": 82, "velocity": 100}, {"start": 14.0, "end": 14.125, "pitch": 58, "velocity": 100}, {"start": 14.125, "end": 14.25, "pitch": 85, "velocity": 100}, {"start": 14.125, "end": 14.25, "pitch": 61, "velocity": 100}, {"start": 14.25, "end": 14.5, "pitch": 82, "velocity": 100}, {"start": 14.25, "end": 14.5, "pitch": 58, "velocity": 100}, {"start": 14.5, "end": 14.75, "pitch": 85, "velocity": 100}, {"start": 14.5, "end": 14.75, "pitch": 61, "velocity": 100}, {"start": 14.75, "end": 15.0, "pitch": 84, "velocity": 100}, {"start": 14.75, "end": 15.0, "pitch": 60, "velocity": 100}, {"start": 15.0, "end": 15.25, "pitch": 87, "velocity": 100}, {"start": 15.0, "end": 15.25, "pitch": 63, "velocity": 100}, {"start": 15.25, "end": 15.5, "pitch": 84, "velocity": 100}, {"start": 15.25, "end": 15.5, "pitch": 60, "velocity": 100}, {"start": 15.5, "end": 15.625, "pitch": 87, "velocity": 100}, {"start": 15.5, "end": 15.625, "pitch": 63, "velocity": 100}, {"start": 15.625, "end": 15.875, "pitch": 84, "velocity": 100}, {"start": 15.625, "end": 15.875, "pitch": 60, "velocity": 100}, {"start": 15.875, "end": 16.0, "pitch": 87, "velocity": 100}, {"start": 15.875, "end": 16.0, "pitch": 63, "velocity": 100}, {"start": 16.0, "end": 16.125, "pitch": 84, "velocity": 100}, {"start": 16.0, "end": 16.125, "pitch": 60, "velocity": 100}, {"start": 16.125, "end": 16.25, "pitch": 87, "velocity": 100}, {"start": 16.125, "end": 16.25, "pitch": 63, "velocity": 100}, {"start": 16.25, "end": 16.5, "pitch": 84, "velocity": 100}, {"start": 16.25, "end": 16.5, "pitch": 60, "velocity": 100}, {"start": 16.5, "end": 16.75, "pitch": 87, "velocity": 100}, {"start": 16.5, "end": 16.75, "pitch": 63, "velocity": 100}, {"start": 16.75, "end": 17.5, "pitch": 89, "velocity": 100}, {"start": 16.75, "end": 17.5, "pitch": 65, "velocity": 100}, {"start": 17.5, "end": 18.0, "pitch": 92, "velocity": 100}, {"start": 17.5, "end": 18.0, "pitch": 68, "velocity": 100}, {"start": 18.0, "end": 18.5, "pitch": 94, "velocity": 100}, {"start": 18.0, "end": 18.5, "pitch": 70, "velocity": 100}, {"start": 18.5, "end": 19.0, "pitch": 87, "velocity": 100}, {"start": 18.5, "end": 19.0, "pitch": 63, "velocity": 100}, {"start": 19.0, "end": 19.5, "pitch": 85, "velocity": 100}, {"start": 19.0, "end": 19.5, "pitch": 61, "velocity": 100}, {"start": 19.5, "end": 20.0, "pitch": 89, "velocity": 100}, {"start": 19.5, "end": 20.0, "pitch": 65, "velocity": 100}, {"start": 20.0, "end": 20.5, "pitch": 89, "velocity": 100}, {"start": 20.0, "end": 20.5, "pitch": 65, "velocity": 100}, {"start": 20.5, "end": 20.75, "pitch": 89, "velocity": 100}, {"start": 20.5, "end": 20.75, "pitch": 65, "velocity": 100}, {"start": 20.75, "end": 20.875, "pitch": 87, "velocity": 100}, {"start": 20.75, "end": 20.875, "pitch": 63, "velocity": 100}, {"start": 20.875, "end": 21.125, "pitch": 85, "velocity": 100}, {"start": 20.875, "end": 21.125, "pitch": 61, "velocity": 100}, {"start": 21.125, "end": 21.25, "pitch": 87, "velocity": 100}, {"start": 21.125, "end": 21.25, "pitch": 63, "velocity": 100}, {"start": 21.25, "end": 21.75, "pitch": 89, "velocity": 100}, {"start": 21.25, "end": 21.75, "pitch": 65, "velocity": 100}, {"start": 21.75, "end": 22.0, "pitch": 90, "velocity": 100}, {"start": 21.75, "end": 22.0, "pitch": 66, "velocity": 100}, {"start": 22.0, "end": 22.25, "pitch": 90, "velocity": 100}, {"start": 22.0, "end": 22.25, "pitch": 66, "velocity": 100}, {"start": 22.25, "end": 22.375, "pitch": 85, "velocity": 100}, {"start": 22.25, "end": 22.375, "pitch": 61, "velocity": 100}, {"start": 22.375, "end": 23.375, "pitch": 87, "velocity": 100}, {"start": 22.375, "end": 23.375, "pitch": 63, "velocity": 100}]'),
(4094, '[{"start": 28.341538739583335, "end": 28.586617508333337, "pitch": 73, "velocity": 115}, {"start": 28.602365541666668, "end": 29.622050700000003, "pitch": 70, "velocity": 115}, {"start": 29.75689323541667, "end": 30.009846020833336, "pitch": 70, "velocity": 115}, {"start": 30.009846020833336, "end": 30.274609831250004, "pitch": 68, "velocity": 115}, {"start": 30.242129512500004, "end": 30.519688600000002, "pitch": 66, "velocity": 115}, {"start": 30.4724445, "end": 30.756893352083335, "pitch": 68, "velocity": 115}, {"start": 30.714570512500003, "end": 30.97933432291667, "pitch": 70, "velocity": 115}, {"start": 30.96457054166667, "end": 31.48425564166667, "pitch": 73, "velocity": 115}, {"start": 31.444885558333336, "end": 31.71161787291667, "pitch": 70, "velocity": 115}, {"start": 31.689964327083334, "end": 32.16437383125, "pitch": 73, "velocity": 115}, {"start": 32.1318935125, "end": 32.39961007916667, "pitch": 75, "velocity": 115}, {"start": 32.37205102083334, "end": 33.284452702083335, "pitch": 70, "velocity": 115}, {"start": 33.559059033333334, "end": 33.797248037500005, "pitch": 70, "velocity": 115}, {"start": 33.797248037500005, "end": 34.04921657083334, "pitch": 68, "velocity": 115}, {"start": 34.02461026875, "end": 34.29724809583334, "pitch": 66, "velocity": 115}, {"start": 34.256893760416666, "end": 34.532484343750006, "pitch": 68, "velocity": 115}, {"start": 34.497051268750006, "end": 34.72933476041667, "pitch": 70, "velocity": 115}, {"start": 34.72933476041667, "end": 35.2145710375, "pitch": 73, "velocity": 115}, {"start": 35.17716945833334, "end": 35.44685452916667, "pitch": 70, "velocity": 115}, {"start": 35.41929547083333, "end": 35.93701206666667, "pitch": 73, "velocity": 115}, {"start": 35.87697268958333, "end": 36.12205145833334, "pitch": 75, "velocity": 115}, {"start": 36.15157902083334, "end": 37.22441379166667, "pitch": 71, "velocity": 115}, {"start": 37.34449254583334, "end": 37.59744533125, "pitch": 71, "velocity": 115}, {"start": 37.58169729791667, "end": 37.86713040208333, "pitch": 70, "velocity": 115}, {"start": 37.82972882291667, "end": 38.09449263333334, "pitch": 68, "velocity": 115}, {"start": 38.03445325625, "end": 38.312012343750006, "pitch": 70, "velocity": 115}, {"start": 38.264768243750005, "end": 38.5098470125, "pitch": 71, "velocity": 115}, {"start": 38.5098470125, "end": 38.99705179375, "pitch": 75, "velocity": 115}, {"start": 38.98720927291667, "end": 39.274610881250005, "pitch": 78, "velocity": 115}, {"start": 39.23228804166667, "end": 39.714571562500005, "pitch": 75, "velocity": 115}, {"start": 39.69193376458334, "end": 40.41732755, "pitch": 77, "velocity": 115}, {"start": 40.37697321458334, "end": 41.164374881250005, "pitch": 75, "velocity": 115}, {"start": 41.114178025, "end": 41.816934012500006, "pitch": 73, "velocity": 115}, {"start": 41.81496550833334, "end": 42.494099445833335, "pitch": 71, "velocity": 115}, {"start": 42.44980810208334, "end": 42.94488690000001, "pitch": 70, "velocity": 115}, {"start": 42.93209162291667, "end": 43.39665860625001, "pitch": 68, "velocity": 115}, {"start": 43.456697983333335, "end": 43.56988697291667, "pitch": 73, "velocity": 115}, {"start": 43.69685549166667, "end": 44.74902096875, "pitch": 70, "velocity": 115}, {"start": 44.88681626041667, "end": 45.13976904583334, "pitch": 70, "velocity": 115}, {"start": 45.126973768750005, "end": 45.37697379791667, "pitch": 68, "velocity": 115}, {"start": 45.354336, "end": 45.62992658333334, "pitch": 66, "velocity": 115}, {"start": 45.59154075208334, "end": 45.869099839583335, "pitch": 68, "velocity": 115}, {"start": 45.82972975625, "end": 46.09154081041667, "pitch": 70, "velocity": 115}, {"start": 46.089572306250005, "end": 46.594493625000005, "pitch": 73, "velocity": 115}, {"start": 46.55413928958334, "end": 46.819887352083335, "pitch": 70, "velocity": 115}, {"start": 46.80413931875, "end": 47.27461181458334, "pitch": 73, "velocity": 115}, {"start": 47.24902126041667, "end": 47.509848062500005, "pitch": 75, "velocity": 115}, {"start": 47.49705278541667, "end": 48.55413952291667, "pitch": 70, "velocity": 115}, {"start": 48.67421827708334, "end": 48.914375785416674, "pitch": 70, "velocity": 115}, {"start": 48.90748602083334, "end": 49.15748605, "pitch": 68, "velocity": 115}, {"start": 49.12992699166667, "end": 49.401580566666674, "pitch": 66, "velocity": 115}, {"start": 49.364178987500004, "end": 49.65748610833334, "pitch": 68, "velocity": 115}, {"start": 49.612210512500006, "end": 49.85925778541667, "pitch": 70, "velocity": 115}, {"start": 49.85925778541667, "end": 50.33957280208334, "pitch": 73, "velocity": 115}, {"start": 50.314966500000004, "end": 50.56496652916667, "pitch": 70, "velocity": 115}, {"start": 50.557092512500006, "end": 51.032486268750006, "pitch": 73, "velocity": 115}, {"start": 51.00689571458334, "end": 51.28445480208334, "pitch": 75, "velocity": 115}, {"start": 51.259848500000004, "end": 52.30217145625001, "pitch": 71, "velocity": 115}, {"start": 52.454730529166675, "end": 52.727368356250004, "pitch": 71, "velocity": 115}, {"start": 52.70473055833334, "end": 52.97441562916667, "pitch": 70, "velocity": 115}, {"start": 52.934061293750005, "end": 53.177171558333335, "pitch": 68, "velocity": 115}, {"start": 53.12992745833334, "end": 53.59154168541667, "pitch": 70, "velocity": 115}, {"start": 53.36713221041667, "end": 53.62992751666667, "pitch": 71, "velocity": 115}, {"start": 53.61910074375, "end": 54.0944945, "pitch": 75, "velocity": 115}, {"start": 54.07973071875001, "end": 54.354337050000005, "pitch": 78, "velocity": 115}, {"start": 54.324809487500005, "end": 54.814967025, "pitch": 75, "velocity": 115}, {"start": 54.814967025, "end": 55.53740805416667, "pitch": 77, "velocity": 115}, {"start": 55.49705371875, "end": 56.24902231041667, "pitch": 75, "velocity": 115}, {"start": 56.19980970625001, "end": 56.88977041666667, "pitch": 73, "velocity": 115}, {"start": 56.89469167708334, "end": 57.644691764583335, "pitch": 71, "velocity": 115}, {"start": 57.59449490833334, "end": 58.122054025000004, "pitch": 70, "velocity": 115}, {"start": 58.10729024375001, "end": 58.47441627083334, "pitch": 68, "velocity": 115}, {"start": 60.737211810416674, "end": 60.8090622125, "pitch": 73, "velocity": 115}, {"start": 60.97736931875001, "end": 61.18209375208334, "pitch": 73, "velocity": 115}, {"start": 61.18996776875001, "end": 61.44488905833334, "pitch": 70, "velocity": 115}, {"start": 61.42717252083334, "end": 61.65748750833334, "pitch": 73, "velocity": 115}, {"start": 61.64961349166667, "end": 61.90453478125001, "pitch": 70, "velocity": 115}, {"start": 61.89173950416667, "end": 62.37205452083334, "pitch": 73, "velocity": 115}, {"start": 62.36221200000001, "end": 63.33170030208334, "pitch": 75, "velocity": 115}, {"start": 63.29429872291667, "end": 63.782487756250006, "pitch": 73, "velocity": 115}, {"start": 63.749023185416675, "end": 64.06988936458333, "pitch": 75, "velocity": 115}, {"start": 64.01969250833334, "end": 64.34449569583334, "pitch": 73, "velocity": 115}, {"start": 64.51673981041667, "end": 64.58465320416667, "pitch": 73, "velocity": 115}, {"start": 64.75492881458334, "end": 64.96162175208335, "pitch": 73, "velocity": 115}, {"start": 64.96949576875001, "end": 65.21162178125, "pitch": 70, "velocity": 115}, {"start": 65.19981075625, "end": 65.44685802916668, "pitch": 73, "velocity": 115}, {"start": 65.4271729875, "end": 65.73229113333333, "pitch": 70, "velocity": 115}, {"start": 65.67422026041667, "end": 65.9941021875, "pitch": 73, "velocity": 115}, {"start": 66.18996835208334, "end": 67.01674010208333, "pitch": 70, "velocity": 115}, {"start": 67.10729129375001, "end": 67.59744883125, "pitch": 70, "velocity": 115}, {"start": 67.54922047916668, "end": 67.79429924791667, "pitch": 68, "velocity": 115}, {"start": 67.78445672708334, "end": 68.11910243541668, "pitch": 66, "velocity": 115}, {"start": 68.12697645208334, "end": 68.27658276875, "pitch": 61, "velocity": 115}, {"start": 68.25689772708334, "end": 69.17422066875001, "pitch": 63, "velocity": 115}, {"start": 69.44685849583334, "end": 69.71162230625, "pitch": 78, "velocity": 115}, {"start": 69.67717348333333, "end": 69.93209477291667, "pitch": 75, "velocity": 115}, {"start": 69.91437823541668, "end": 70.04922077083334, "pitch": 78, "velocity": 115}, {"start": 70.14174046666668, "end": 70.28445701875, "pitch": 78, "velocity": 115}, {"start": 70.38681923541667, "end": 70.59941768541667, "pitch": 78, "velocity": 115}, {"start": 70.63977202083333, "end": 71.24705555625, "pitch": 75, "velocity": 115}, {"start": 71.34744926875001, "end": 71.57973276041668, "pitch": 78, "velocity": 115}, {"start": 71.56989023958334, "end": 71.82973278958335, "pitch": 75, "velocity": 115}, {"start": 71.82185877291667, "end": 71.96457532500001, "pitch": 78, "velocity": 115}, {"start": 72.05414226458333, "end": 72.18996905208334, "pitch": 78, "velocity": 115}, {"start": 72.27461473125001, "end": 72.52953602083333, "pitch": 78, "velocity": 115}, {"start": 72.52658326458334, "end": 73.10237073333334, "pitch": 75, "velocity": 115}, {"start": 73.22441799166667, "end": 73.46162274375001, "pitch": 78, "velocity": 115}, {"start": 73.43209518125, "end": 73.70965426875, "pitch": 75, "velocity": 115}, {"start": 73.68996922708334, "end": 73.95178028125001, "pitch": 78, "velocity": 115}, {"start": 73.90158342500001, "end": 74.14174093333334, "pitch": 75, "velocity": 115}, {"start": 74.14666219375, "end": 74.40453623958334, "pitch": 73, "velocity": 115}, {"start": 74.41241025625001, "end": 74.78248903958334, "pitch": 78, "velocity": 115}, {"start": 74.90945755833334, "end": 75.45178045625, "pitch": 78, "velocity": 115}, {"start": 75.41437887708334, "end": 75.69489072083334, "pitch": 75, "velocity": 115}, {"start": 75.86221357500001, "end": 75.94981201041668, "pitch": 75, "velocity": 115}, {"start": 76.09941832708334, "end": 76.33662307916667, "pitch": 75, "velocity": 115}, {"start": 76.30217425625001, "end": 76.53445774791668, "pitch": 73, "velocity": 115}, {"start": 76.52658373125, "end": 76.78937903750001, "pitch": 75, "velocity": 115}, {"start": 76.75689871875001, "end": 77.01674126875001, "pitch": 73, "velocity": 115}, {"start": 77.00493024375001, "end": 77.23229247500001, "pitch": 75, "velocity": 115}, {"start": 77.45473344583334, "end": 78.38682016875, "pitch": 75, "velocity": 115}, {"start": 78.45670206666668, "end": 78.90453676458334, "pitch": 73, "velocity": 115}, {"start": 78.89469424375001, "end": 79.18209585208334, "pitch": 75, "velocity": 115}, {"start": 79.1397730125, "end": 79.33662342916668, "pitch": 73, "velocity": 115}, {"start": 79.62205653333334, "end": 79.71457622916667, "pitch": 73, "velocity": 115}, {"start": 79.84745026041668, "end": 80.066938475, "pitch": 73, "velocity": 115}, {"start": 80.08465501250001, "end": 80.33662354583333, "pitch": 70, "velocity": 115}, {"start": 80.32973378125001, "end": 80.56497002916667, "pitch": 73, "velocity": 115}, {"start": 80.54233223125, "end": 80.799222025, "pitch": 70, "velocity": 115}, {"start": 80.79725352083334, "end": 81.03741102916668, "pitch": 73, "velocity": 115}, {"start": 81.26969452083334, "end": 82.11910406875, "pitch": 70, "velocity": 115}, {"start": 82.22245053750001, "end": 82.72245059583334, "pitch": 70, "velocity": 115}, {"start": 82.67422224375001, "end": 82.92422227291668, "pitch": 68, "velocity": 115}, {"start": 82.92225376875001, "end": 83.27658451875001, "pitch": 66, "velocity": 115}, {"start": 83.28445853541668, "end": 83.44489162500001, "pitch": 61, "velocity": 115}, {"start": 83.40749004583334, "end": 83.83465545000001, "pitch": 63, "velocity": 115}, {"start": 84.58170278125, "end": 84.86418312916668, "pitch": 78, "velocity": 115}, {"start": 84.82481304583334, "end": 85.11418315833335, "pitch": 75, "velocity": 115}, {"start": 85.06497055416668, "end": 85.2224508875, "pitch": 78, "velocity": 115}, {"start": 85.30217530625, "end": 85.4468603625, "pitch": 78, "velocity": 115}, {"start": 85.53249029375, "end": 85.80217536458333, "pitch": 78, "velocity": 115}, {"start": 85.78445882708334, "end": 86.38189984166668, "pitch": 75, "velocity": 115}, {"start": 86.48721481458334, "end": 86.751978625, "pitch": 78, "velocity": 115}, {"start": 86.704734525, "end": 86.98918337708334, "pitch": 75, "velocity": 115}, {"start": 86.94489203333335, "end": 87.09745110625, "pitch": 78, "velocity": 115}, {"start": 87.17914402916668, "end": 87.30217553958335, "pitch": 78, "velocity": 115}, {"start": 87.38485271458335, "end": 87.67717558333334, "pitch": 78, "velocity": 115}, {"start": 87.64469526458335, "end": 88.30217565625001, "pitch": 75, "velocity": 115}, {"start": 88.35237251250001, "end": 88.60926230625, "pitch": 78, "velocity": 115}, {"start": 88.57481348333334, "end": 88.85237257083334, "pitch": 75, "velocity": 115}, {"start": 88.82973477291668, "end": 89.10237260000001, "pitch": 78, "velocity": 115}, {"start": 89.05217574375001, "end": 89.32186081458335, "pitch": 75, "velocity": 115}, {"start": 89.29233325208334, "end": 89.54922304583334, "pitch": 73, "velocity": 115}, {"start": 89.54233328125001, "end": 89.88977426666668, "pitch": 78, "velocity": 115}, {"start": 89.99410498750001, "end": 90.47934126458334, "pitch": 78, "velocity": 115}, {"start": 90.45965622291668, "end": 90.9744200625, "pitch": 75, "velocity": 115}, {"start": 90.96457754166667, "end": 91.07481377500001, "pitch": 77, "velocity": 115}, {"start": 91.03249093541667, "end": 91.19193977291667, "pitch": 75, "velocity": 115}, {"start": 91.16241221041668, "end": 92.47442023750001, "pitch": 73, "velocity": 115}, {"start": 92.61418403333334, "end": 92.83170374375001, "pitch": 73, "velocity": 115}, {"start": 92.84449902083334, "end": 93.86418417916667, "pitch": 70, "velocity": 115}, {"start": 94.04430231041667, "end": 94.26674328125002, "pitch": 70, "velocity": 115}, {"start": 94.26477477708335, "end": 94.51674331041667, "pitch": 68, "velocity": 115}, {"start": 94.48918425208335, "end": 94.76182207916668, "pitch": 66, "velocity": 115}, {"start": 94.71162522291668, "end": 95.0019795875, "pitch": 68, "velocity": 115}, {"start": 94.96457800833335, "end": 95.21162528125001, "pitch": 70, "velocity": 115}, {"start": 95.20670402083334, "end": 95.71457809583335, "pitch": 73, "velocity": 115}, {"start": 95.67225525625001, "end": 95.94686158750001, "pitch": 70, "velocity": 115}, {"start": 95.91438126875, "end": 96.36910573125, "pitch": 73, "velocity": 115}, {"start": 96.38485376458334, "end": 96.66241285208334, "pitch": 75, "velocity": 115}, {"start": 96.64469631458334, "end": 96.8917435875, "pitch": 71, "velocity": 115}, {"start": 96.88682232708334, "end": 97.67422399375, "pitch": 70, "velocity": 115}, {"start": 97.78249172291667, "end": 98.02953899583335, "pitch": 70, "velocity": 115}, {"start": 98.02658623958334, "end": 98.28446028541667, "pitch": 68, "velocity": 115}, {"start": 98.25985398333334, "end": 98.52461779375001, "pitch": 66, "velocity": 115}, {"start": 98.47934219791668, "end": 98.77166506666667, "pitch": 68, "velocity": 115}, {"start": 98.73229498333335, "end": 98.96949973541668, "pitch": 70, "velocity": 115}, {"start": 98.97934225625, "end": 99.47245255000001, "pitch": 73, "velocity": 115}, {"start": 99.42717695416667, "end": 99.70178328541668, "pitch": 70, "velocity": 115}, {"start": 99.66733446250001, "end": 100.22737389791668, "pitch": 73, "velocity": 115}, {"start": 100.16733452083334, "end": 100.42422431458334, "pitch": 75, "velocity": 115}, {"start": 100.42225581041667, "end": 101.45473624583335, "pitch": 71, "velocity": 115}, {"start": 101.56694098333334, "end": 101.82186227291668, "pitch": 71, "velocity": 115}, {"start": 101.80906699583335, "end": 102.09942136041667, "pitch": 70, "velocity": 115}, {"start": 102.04430324375001, "end": 102.33170485208335, "pitch": 68, "velocity": 115}, {"start": 102.26477571041667, "end": 102.54233479791668, "pitch": 70, "velocity": 115}, {"start": 102.49410644583334, "end": 102.75690175208334, "pitch": 71, "velocity": 115}, {"start": 102.74410647500001, "end": 103.22737424791667, "pitch": 75, "velocity": 115}, {"start": 103.21654747500001, "end": 103.49705931875, "pitch": 78, "velocity": 115}, {"start": 103.44981521875, "end": 103.96162630208335, "pitch": 75, "velocity": 115}, {"start": 103.94686252083335, "end": 104.71457914583334, "pitch": 77, "velocity": 115}, {"start": 104.65946102916668, "end": 105.40453985625001, "pitch": 75, "velocity": 115}, {"start": 105.36418552083335, "end": 106.06694150833334, "pitch": 73, "velocity": 115}, {"start": 106.06497300416667, "end": 106.80217781458335, "pitch": 71, "velocity": 115}, {"start": 106.73918568125, "end": 107.20473691666668, "pitch": 70, "velocity": 115}, {"start": 107.18406762291667, "end": 107.70178421875, "pitch": 68, "velocity": 115}, {"start": 107.69981571458334, "end": 107.97245354166668, "pitch": 73, "velocity": 115}, {"start": 107.94686298750001, "end": 109.03249303541668, "pitch": 70, "velocity": 115}, {"start": 109.14469777291667, "end": 109.41241433958335, "pitch": 70, "velocity": 115}, {"start": 109.39174504583335, "end": 109.65749310833334, "pitch": 68, "velocity": 115}, {"start": 109.62206003333334, "end": 109.92225691875001, "pitch": 66, "velocity": 115}, {"start": 109.85237502083335, "end": 110.16930419166668, "pitch": 68, "velocity": 115}, {"start": 110.09450103333334, "end": 110.35729633958334, "pitch": 70, "velocity": 115}, {"start": 110.34154830625, "end": 110.84154836458335, "pitch": 73, "velocity": 115}, {"start": 110.79233576041668, "end": 111.0767846125, "pitch": 70, "velocity": 115}, {"start": 111.02461925208334, "end": 111.57481616666668, "pitch": 73, "velocity": 115}, {"start": 111.52166655416667, "end": 111.78249335625001, "pitch": 75, "velocity": 115}, {"start": 111.75198154166668, "end": 112.82186355625001, "pitch": 70, "velocity": 115}, {"start": 112.9193045125, "end": 113.16241477708334, "pitch": 70, "velocity": 115}, {"start": 113.15158800416668, "end": 113.41733606666668, "pitch": 68, "velocity": 115}, {"start": 113.35729668958335, "end": 113.66438333958334, "pitch": 66, "velocity": 115}, {"start": 113.60729671875, "end": 113.90946210833334, "pitch": 68, "velocity": 115}, {"start": 113.86221800833334, "end": 114.11713929791668, "pitch": 70, "velocity": 115}, {"start": 114.10926528125, "end": 114.58662754166667, "pitch": 73, "velocity": 115}, {"start": 114.54233619791668, "end": 114.85434410833335, "pitch": 70, "velocity": 115}, {"start": 114.79922599166667, "end": 115.49902922291668, "pitch": 73, "velocity": 115}, {"start": 115.27954100833334, "end": 115.52954103750001, "pitch": 75, "velocity": 115}, {"start": 115.53741505416667, "end": 116.55906871666667, "pitch": 71, "velocity": 115}, {"start": 116.70670652916668, "end": 116.95670655833334, "pitch": 71, "velocity": 115}, {"start": 116.94194277708334, "end": 117.22442312500002, "pitch": 70, "velocity": 115}, {"start": 117.17914752916667, "end": 117.44981685208334, "pitch": 68, "velocity": 115}, {"start": 117.38682471875, "end": 117.66733656250001, "pitch": 70, "velocity": 115}, {"start": 117.61910821041668, "end": 117.90454131458334, "pitch": 71, "velocity": 115}, {"start": 117.8740295, "end": 118.39469885208334, "pitch": 75, "velocity": 115}, {"start": 118.36221853333335, "end": 118.64174612500001, "pitch": 78, "velocity": 115}, {"start": 118.59942328541668, "end": 119.09450208333334, "pitch": 75, "velocity": 115}, {"start": 119.07481704166668, "end": 119.81989586875001, "pitch": 77, "velocity": 115}, {"start": 119.77462027291668, "end": 120.52658886458335, "pitch": 75, "velocity": 115}, {"start": 120.46950224375001, "end": 121.15749445000002, "pitch": 73, "velocity": 115}, {"start": 121.15454169375, "end": 121.91733705833335, "pitch": 71, "velocity": 115}, {"start": 121.83958114375001, "end": 122.35434498333335, "pitch": 70, "velocity": 115}, {"start": 122.30906938750002, "end": 122.73721904375002, "pitch": 68, "velocity": 115}, {"start": 124.95966024791667, "end": 125.06202246458335, "pitch": 73, "velocity": 115}, {"start": 125.18210121875, "end": 125.40749494583335, "pitch": 73, "velocity": 115}, {"start": 125.41733746666668, "end": 125.68210127708335, "pitch": 70, "velocity": 115}, {"start": 125.66241623541667, "end": 125.89469972708335, "pitch": 73, "velocity": 115}, {"start": 125.87403043333335, "end": 126.12698321875001, "pitch": 70, "velocity": 115}, {"start": 126.10926668125, "end": 126.5846604375, "pitch": 73, "velocity": 115}, {"start": 126.57678642083334, "end": 127.60926685625002, "pitch": 75, "velocity": 115}, {"start": 127.55218023541667, "end": 128.03741651250002, "pitch": 73, "velocity": 115}, {"start": 128.019699975, "end": 128.32973938125002, "pitch": 75, "velocity": 115}, {"start": 128.28249528125002, "end": 128.64962130833334, "pitch": 73, "velocity": 115}, {"start": 128.7342669875, "end": 128.84155046458335, "pitch": 73, "velocity": 115}, {"start": 128.97737725208336, "end": 129.24214106250002, "pitch": 73, "velocity": 115}, {"start": 129.19686546666668, "end": 129.47245605, "pitch": 70, "velocity": 115}, {"start": 129.46162927708335, "end": 129.75985765833335, "pitch": 73, "velocity": 115}, {"start": 129.70670804583335, "end": 129.94981831041667, "pitch": 70, "velocity": 115}, {"start": 129.93997578958334, "end": 130.46655065416667, "pitch": 73, "velocity": 115}, {"start": 130.42718057083334, "end": 131.26182633750003, "pitch": 70, "velocity": 115}, {"start": 131.33958225208335, "end": 131.8523775875, "pitch": 70, "velocity": 115}, {"start": 131.80218073125002, "end": 132.0669445416667, "pitch": 68, "velocity": 115}, {"start": 132.0649760375, "end": 132.41241702291669, "pitch": 66, "velocity": 115}, {"start": 132.42914930833334, "end": 132.56497609583334, "pitch": 61, "velocity": 115}, {"start": 132.52954302083336, "end": 133.64470063125, "pitch": 63, "velocity": 115}, {"start": 133.73722032708335, "end": 133.97934633958334, "pitch": 78, "velocity": 115}, {"start": 133.94981877708335, "end": 134.20178731041668, "pitch": 75, "velocity": 115}, {"start": 134.1899762854167, "end": 134.35926764375, "pitch": 78, "velocity": 115}, {"start": 134.42422828125, "end": 134.57186609375, "pitch": 78, "velocity": 115}, {"start": 134.6299369666667, "end": 134.90946455833335, "pitch": 78, "velocity": 115}, {"start": 134.87698423958335, "end": 135.46162997708333, "pitch": 75, "velocity": 115}, {"start": 135.60926778958336, "end": 135.83958277708334, "pitch": 78, "velocity": 115}, {"start": 135.81989773541667, "end": 136.06694500833333, "pitch": 75, "velocity": 115}, {"start": 136.06202374791667, "end": 136.2224568375, "pitch": 78, "velocity": 115}, {"start": 136.3041497604167, "end": 136.43210253125002, "pitch": 78, "velocity": 115}, {"start": 136.52462222708334, "end": 136.78741753333335, "pitch": 78, "velocity": 115}, {"start": 136.76970099583335, "end": 137.38682705208333, "pitch": 75, "velocity": 115}, {"start": 137.48426800833334, "end": 137.74706331458336, "pitch": 78, "velocity": 115}, {"start": 137.7165515, "end": 137.96655152916668, "pitch": 75, "velocity": 115}, {"start": 137.94489798333333, "end": 138.21655155833335, "pitch": 78, "velocity": 115}, {"start": 138.18407123958335, "end": 138.437024025, "pitch": 75, "velocity": 115}, {"start": 138.4074964625, "end": 138.6840712979167, "pitch": 73, "velocity": 115}, {"start": 138.67226027291667, "end": 139.02462251875002, "pitch": 78, "velocity": 115}, {"start": 139.1397800125, "end": 139.65454385208335, "pitch": 78, "velocity": 115}, {"start": 139.61222101250002, "end": 139.9094651416667, "pitch": 75, "velocity": 115}, {"start": 140.10926831458335, "end": 140.19981950625, "pitch": 75, "velocity": 115}, {"start": 140.33958330208335, "end": 140.58958333125003, "pitch": 75, "velocity": 115}, {"start": 140.56497702916667, "end": 140.78446524375002, "pitch": 73, "velocity": 115}, {"start": 140.78249673958334, "end": 141.02954401250003, "pitch": 75, "velocity": 115}, {"start": 141.00985897083333, "end": 141.26478026041667, "pitch": 73, "velocity": 115}, {"start": 141.25493773958334, "end": 141.51970155, "pitch": 75, "velocity": 115}, {"start": 141.48229997083334, "end": 141.7323, "pitch": 73, "velocity": 115}, {"start": 141.72934724375, "end": 142.72245759583333, "pitch": 75, "velocity": 115}, {"start": 142.67422924375, "end": 143.14667024375, "pitch": 73, "velocity": 115}, {"start": 143.12698520208335, "end": 143.4271820875, "pitch": 75, "velocity": 115}, {"start": 143.37698523125002, "end": 143.69686715833333, "pitch": 73, "velocity": 115}, {"start": 143.87698528958336, "end": 143.9724577416667, "pitch": 73, "velocity": 115}, {"start": 144.09745775625, "end": 144.33663101250002, "pitch": 73, "velocity": 115}, {"start": 144.31497746666668, "end": 144.57482001666668, "pitch": 70, "velocity": 115}, {"start": 144.57482001666668, "end": 144.82974130625, "pitch": 73, "velocity": 115}, {"start": 144.79233972708334, "end": 145.05218227708335, "pitch": 70, "velocity": 115}, {"start": 145.05218227708335, "end": 145.57186737708335, "pitch": 73, "velocity": 115}, {"start": 145.53938705833335, "end": 146.35730053958335, "pitch": 70, "velocity": 115}, {"start": 146.46163126041668, "end": 146.96163131875002, "pitch": 70, "velocity": 115}, {"start": 146.92422973958335, "end": 147.18997780208335, "pitch": 68, "velocity": 115}, {"start": 147.18210378541667, "end": 147.53249752708334, "pitch": 66, "velocity": 115}, {"start": 147.53938729166669, "end": 147.67422982708334, "pitch": 61, "velocity": 115}, {"start": 147.6515920291667, "end": 148.82186775625001, "pitch": 63, "velocity": 115}, {"start": 148.8366315375, "end": 149.06989928125, "pitch": 78, "velocity": 115}, {"start": 149.0423402229167, "end": 149.30907253750001, "pitch": 75, "velocity": 115}, {"start": 149.28938749583335, "end": 149.46950562708335, "pitch": 78, "velocity": 115}, {"start": 149.5295450041667, "end": 149.6771828166667, "pitch": 78, "velocity": 115}, {"start": 149.75985999166667, "end": 150.00986002083334, "pitch": 78, "velocity": 115}, {"start": 149.99706474375, "end": 150.58171048125, "pitch": 75, "velocity": 115}, {"start": 150.69194671458334, "end": 150.94982076041669, "pitch": 78, "velocity": 115}, {"start": 150.92226170208335, "end": 151.17915149583334, "pitch": 75, "velocity": 115}, {"start": 151.169308975, "end": 151.32186804791667, "pitch": 78, "velocity": 115}, {"start": 151.41438774375, "end": 151.53741925416668, "pitch": 78, "velocity": 115}, {"start": 151.63978147083336, "end": 151.86419094583334, "pitch": 78, "velocity": 115}, {"start": 151.88190748333335, "end": 152.41930912083333, "pitch": 75, "velocity": 115}, {"start": 153.0492304541667, "end": 153.34155332291667, "pitch": 78, "velocity": 115}, {"start": 153.30218323958334, "end": 153.53446673125, "pitch": 75, "velocity": 115}, {"start": 153.52462421041668, "end": 153.67718328333333, "pitch": 78, "velocity": 115}, {"start": 153.77659274375, "end": 154.3218683979167, "pitch": 78, "velocity": 115}, {"start": 154.26675028125, "end": 154.60238024166668, "pitch": 75, "velocity": 115}, {"start": 154.72245899583334, "end": 155.15946692083335, "pitch": 75, "velocity": 115}, {"start": 155.15749841666667, "end": 155.27462441458334, "pitch": 77, "velocity": 115}, {"start": 155.2342700791667, "end": 155.40749844583334, "pitch": 75, "velocity": 115}, {"start": 155.36419135416668, "end": 156.49411274583335, "pitch": 73, "velocity": 115}, {"start": 156.83958522708335, "end": 157.8267900666667, "pitch": 75, "velocity": 115}, {"start": 157.78741998333334, "end": 158.2519869666667, "pitch": 73, "velocity": 115}, {"start": 158.22738066458334, "end": 158.52167203750002, "pitch": 75, "velocity": 115}, {"start": 158.47738069375, "end": 158.77659332708336, "pitch": 73, "velocity": 115}, {"start": 158.98722327291668, "end": 159.059073675, "pitch": 78, "velocity": 115}, {"start": 159.22934928541667, "end": 159.46458553333335, "pitch": 78, "velocity": 115}, {"start": 159.44194773541668, "end": 159.68702650416668, "pitch": 75, "velocity": 115}, {"start": 159.6791524875, "end": 159.93997928958333, "pitch": 78, "velocity": 115}, {"start": 159.90454621458335, "end": 160.16734152083336, "pitch": 75, "velocity": 115}, {"start": 160.16734152083336, "end": 160.68702662083334, "pitch": 78, "velocity": 115}, {"start": 160.64962504166667, "end": 161.50198734583336, "pitch": 75, "velocity": 115}, {"start": 161.60238105833335, "end": 162.08466457916668, "pitch": 75, "velocity": 115}, {"start": 162.04726300000002, "end": 162.19982207291667, "pitch": 73, "velocity": 115}, {"start": 162.27659373541667, "end": 164.3090742875, "pitch": 75, "velocity": 115}, {"start": 164.41931052083333, "end": 164.64470424791668, "pitch": 78, "velocity": 115}, {"start": 164.72442866666668, "end": 164.97442869583335, "pitch": 78, "velocity": 115}, {"start": 165.05710587083334, "end": 165.30218463958334, "pitch": 78, "velocity": 115}, {"start": 165.35238149583336, "end": 165.6840744479167, "pitch": 75, "velocity": 115}, {"start": 165.82186973958335, "end": 166.06990126458334, "pitch": 78, "velocity": 115}, {"start": 166.04431071041668, "end": 166.30218475625003, "pitch": 75, "velocity": 115}, {"start": 166.28446821875002, "end": 166.43702729166668, "pitch": 78, "velocity": 115}, {"start": 166.5344682479167, "end": 166.6673422791667, "pitch": 78, "velocity": 115}, {"start": 166.75690921875002, "end": 166.99214546666667, "pitch": 78, "velocity": 115}, {"start": 167.02462578541667, "end": 167.78446839375002, "pitch": 75, "velocity": 115}, {"start": 168.16438969791668, "end": 168.39175192916667, "pitch": 78, "velocity": 115}, {"start": 168.4724606, "end": 168.69490157083334, "pitch": 78, "velocity": 115}, {"start": 168.83171261041667, "end": 169.17718509166667, "pitch": 78, "velocity": 115}, {"start": 169.12994099166667, "end": 169.53446859791669, "pitch": 75, "velocity": 115}, {"start": 169.60730325208334, "end": 169.8740355666667, "pitch": 78, "velocity": 115}, {"start": 169.84450800416667, "end": 170.10435055416667, "pitch": 75, "velocity": 115}, {"start": 170.0846655125, "end": 170.22935056875002, "pitch": 78, "velocity": 115}, {"start": 170.31498050000002, "end": 170.44982303541667, "pitch": 78, "velocity": 115}, {"start": 170.5571065125, "end": 170.84746087708334, "pitch": 78, "velocity": 115}, {"start": 170.81498055833336, "end": 171.21458690416668, "pitch": 75, "velocity": 115}, {"start": 171.20474438333335, "end": 171.31694912083336, "pitch": 77, "velocity": 115}, {"start": 171.27462628125002, "end": 171.41439007708334, "pitch": 75, "velocity": 115}, {"start": 171.389783775, "end": 171.89667359791667, "pitch": 73, "velocity": 115}]'),
(827, '[{"start": 27.68889225, "end": 27.79150414583333, "pitch": 79, "velocity": 127}, {"start": 27.968742874999997, "end": 31.72210554166666, "pitch": 84, "velocity": 127}]'),
(11406, '[{"start": 13.426720781250001, "end": 13.4626403125, "pitch": 54, "velocity": 1}, {"start": 13.7931, "end": 13.829019531250001, "pitch": 54, "velocity": 1}, {"start": 14.1379275, "end": 14.17384703125, "pitch": 54, "velocity": 1}, {"start": 14.30315734375, "end": 14.339076875, "pitch": 54, "velocity": 1}, {"start": 14.47557109375, "end": 14.518674531250001, "pitch": 54, "velocity": 1}, {"start": 15.5172375, "end": 15.55315703125, "pitch": 54, "velocity": 1}, {"start": 15.68965125, "end": 15.725570781250001, "pitch": 54, "velocity": 1}, {"start": 15.94108796875, "end": 15.98419140625, "pitch": 54, "velocity": 1}, {"start": 16.293099375, "end": 16.32901890625, "pitch": 54, "velocity": 1}, {"start": 16.55172, "end": 16.58763953125, "pitch": 54, "velocity": 1}, {"start": 16.71694984375, "end": 16.760053281250002, "pitch": 54, "velocity": 1}, {"start": 16.80315671875, "end": 16.84626015625, "pitch": 54, "velocity": 1}, {"start": 17.06896125, "end": 17.10488078125, "pitch": 54, "velocity": 1}, {"start": 17.155168125, "end": 17.19108765625, "pitch": 54, "velocity": 1}, {"start": 17.241375, "end": 17.27729453125, "pitch": 54, "velocity": 1}, {"start": 17.5862025, "end": 17.62212203125, "pitch": 54, "velocity": 1}, {"start": 17.75143234375, "end": 17.79453578125, "pitch": 54, "velocity": 1}, {"start": 17.844823125, "end": 17.88074265625, "pitch": 54, "velocity": 1}, {"start": 18.18246671875, "end": 18.22557015625, "pitch": 54, "velocity": 1}, {"start": 18.26867359375, "end": 18.31177703125, "pitch": 54, "velocity": 1}, {"start": 18.362064375, "end": 18.39798390625, "pitch": 54, "velocity": 1}, {"start": 18.620685, "end": 18.65660453125, "pitch": 54, "velocity": 1}, {"start": 19.051719375, "end": 19.08763890625, "pitch": 54, "velocity": 1}, {"start": 19.1810296875, "end": 19.21694921875, "pitch": 54, "velocity": 1}, {"start": 19.31034, "end": 19.346259531250002, "pitch": 54, "velocity": 1}, {"start": 19.6551675, "end": 19.69108703125, "pitch": 54, "velocity": 1}, {"start": 19.82039734375, "end": 19.86350078125, "pitch": 54, "velocity": 1}, {"start": 19.999995000000002, "end": 20.03591453125, "pitch": 54, "velocity": 1}, {"start": 21.20689125, "end": 21.24281078125, "pitch": 54, "velocity": 1}, {"start": 21.379305000000002, "end": 21.41522453125, "pitch": 54, "velocity": 1}, {"start": 21.55171875, "end": 21.58763828125, "pitch": 54, "velocity": 1}, {"start": 21.7241325, "end": 21.76005203125, "pitch": 54, "velocity": 1}, {"start": 21.89654625, "end": 21.932465781250002, "pitch": 54, "velocity": 1}, {"start": 22.24137375, "end": 22.27729328125, "pitch": 54, "velocity": 1}, {"start": 22.4137875, "end": 22.44970703125, "pitch": 54, "velocity": 1}, {"start": 22.758615, "end": 22.79453453125, "pitch": 54, "velocity": 1}, {"start": 22.93102875, "end": 22.96694828125, "pitch": 54, "velocity": 1}, {"start": 23.1034425, "end": 23.139362031250002, "pitch": 54, "velocity": 1}, {"start": 23.27585625, "end": 23.311775781250002, "pitch": 54, "velocity": 1}, {"start": 23.62068375, "end": 23.65660328125, "pitch": 54, "velocity": 1}, {"start": 23.793097500000002, "end": 23.82901703125, "pitch": 54, "velocity": 1}, {"start": 24.137925, "end": 24.17384453125, "pitch": 54, "velocity": 1}, {"start": 24.31033875, "end": 24.34625828125, "pitch": 54, "velocity": 1}, {"start": 24.4827525, "end": 24.518672031250002, "pitch": 54, "velocity": 1}, {"start": 24.65516625, "end": 24.69108578125, "pitch": 54, "velocity": 1}, {"start": 24.99999375, "end": 25.03591328125, "pitch": 54, "velocity": 1}, {"start": 25.172407500000002, "end": 25.20832703125, "pitch": 54, "velocity": 1}, {"start": 25.51005109375, "end": 25.55315453125, "pitch": 54, "velocity": 1}, {"start": 26.379303750000002, "end": 26.41522328125, "pitch": 54, "velocity": 1}, {"start": 26.551717500000002, "end": 26.58763703125, "pitch": 54, "velocity": 1}, {"start": 26.72413125, "end": 26.76005078125, "pitch": 54, "velocity": 1}, {"start": 26.896545, "end": 26.93246453125, "pitch": 54, "velocity": 1}, {"start": 27.06895875, "end": 27.104878281250002, "pitch": 54, "velocity": 1}, {"start": 27.2413725, "end": 27.27729203125, "pitch": 54, "velocity": 1}, {"start": 27.5862, "end": 27.62211953125, "pitch": 54, "velocity": 1}, {"start": 27.758613750000002, "end": 27.79453328125, "pitch": 54, "velocity": 1}, {"start": 27.9310275, "end": 27.96694703125, "pitch": 54, "velocity": 1}, {"start": 28.10344125, "end": 28.13936078125, "pitch": 54, "velocity": 1}, {"start": 28.275855, "end": 28.311774531250002, "pitch": 54, "velocity": 1}, {"start": 28.44826875, "end": 28.484188281250002, "pitch": 54, "velocity": 1}, {"start": 28.6206825, "end": 28.65660203125, "pitch": 54, "velocity": 1}, {"start": 28.79309625, "end": 28.82901578125, "pitch": 54, "velocity": 1}, {"start": 28.965510000000002, "end": 29.00142953125, "pitch": 54, "velocity": 1}, {"start": 29.137923750000002, "end": 29.17384328125, "pitch": 54, "velocity": 1}, {"start": 29.3103375, "end": 29.34625703125, "pitch": 54, "velocity": 1}, {"start": 29.48275125, "end": 29.51867078125, "pitch": 54, "velocity": 1}, {"start": 29.655165, "end": 29.691084531250002, "pitch": 54, "velocity": 1}, {"start": 30.68246359375, "end": 30.72556703125, "pitch": 54, "velocity": 1}, {"start": 31.724130000000002, "end": 31.76004953125, "pitch": 54, "velocity": 1}, {"start": 32.0689575, "end": 32.10487703125, "pitch": 54, "velocity": 1}, {"start": 32.24137125, "end": 32.27729078125, "pitch": 54, "velocity": 1}, {"start": 32.413785000000004, "end": 32.44970453125, "pitch": 54, "velocity": 1}, {"start": 32.93102625, "end": 32.966945781250004, "pitch": 54, "velocity": 1}, {"start": 33.10344, "end": 33.13935953125, "pitch": 54, "velocity": 1}, {"start": 33.27585375, "end": 33.31177328125, "pitch": 54, "velocity": 1}, {"start": 33.4482675, "end": 33.48418703125, "pitch": 54, "velocity": 1}, {"start": 33.793095, "end": 33.82901453125, "pitch": 54, "velocity": 1}, {"start": 34.1379225, "end": 34.173842031250004, "pitch": 54, "velocity": 1}, {"start": 34.31033625, "end": 34.34625578125, "pitch": 54, "velocity": 1}, {"start": 34.48275, "end": 34.51866953125, "pitch": 54, "velocity": 1}, {"start": 34.65516375, "end": 34.69108328125, "pitch": 54, "velocity": 1}, {"start": 34.827577500000004, "end": 34.86349703125, "pitch": 54, "velocity": 1}, {"start": 34.99999125, "end": 35.03591078125, "pitch": 54, "velocity": 1}, {"start": 35.172405, "end": 35.20832453125, "pitch": 54, "velocity": 1}, {"start": 35.5172325, "end": 35.775853125, "pitch": 61, "velocity": 97}, {"start": 35.85487609375, "end": 36.1925196875, "pitch": 63, "velocity": 103}, {"start": 36.19970359375, "end": 36.293094375, "pitch": 65, "velocity": 102}, {"start": 36.37211734375, "end": 37.24855390625, "pitch": 65, "velocity": 102}, {"start": 37.41378375, "end": 37.485622812500004, "pitch": 61, "velocity": 98}, {"start": 37.586197500000004, "end": 37.837634218750004, "pitch": 61, "velocity": 104}, {"start": 37.92384109375, "end": 38.017231875, "pitch": 61, "velocity": 105}, {"start": 38.09625484375, "end": 38.2040134375, "pitch": 61, "velocity": 99}, {"start": 38.26866859375, "end": 38.56320875, "pitch": 61, "velocity": 99}, {"start": 38.61349609375, "end": 38.95832359375, "pitch": 63, "velocity": 95}, {"start": 38.95832359375, "end": 39.05889828125, "pitch": 65, "velocity": 95}, {"start": 39.13073734375, "end": 40.086196875, "pitch": 65, "velocity": 100}, {"start": 40.33763359375, "end": 40.6465415625, "pitch": 61, "velocity": 97}, {"start": 40.689645, "end": 40.96981734375, "pitch": 61, "velocity": 95}, {"start": 41.0344725, "end": 41.2787253125, "pitch": 61, "velocity": 100}, {"start": 41.37211609375, "end": 41.66665625, "pitch": 63, "velocity": 102}, {"start": 41.71694359375, "end": 41.81751828125, "pitch": 65, "velocity": 104}, {"start": 41.89654125, "end": 42.37786296875, "pitch": 65, "velocity": 95}, {"start": 42.4137825, "end": 43.09625359375, "pitch": 63, "velocity": 101}, {"start": 43.09625359375, "end": 43.412345468750004, "pitch": 61, "velocity": 99}, {"start": 43.448265, "end": 43.714069531250004, "pitch": 61, "velocity": 99}, {"start": 43.7930925, "end": 44.066080937500004, "pitch": 61, "velocity": 104}, {"start": 44.13792, "end": 44.47556359375, "pitch": 63, "velocity": 105}, {"start": 44.4827475, "end": 44.57613828125, "pitch": 61, "velocity": 99}, {"start": 44.65516125, "end": 44.8132071875, "pitch": 61, "velocity": 103}, {"start": 44.827575, "end": 45.624988593750004, "pitch": 58, "velocity": 105}, {"start": 45.8620575, "end": 46.19970109375, "pitch": 61, "velocity": 98}, {"start": 46.206885, "end": 46.47268953125, "pitch": 58, "velocity": 99}, {"start": 46.5517125, "end": 46.88935609375, "pitch": 58, "velocity": 101}, {"start": 46.88935609375, "end": 47.234183593750004, "pitch": 63, "velocity": 98}, {"start": 47.2413675, "end": 47.34912609375, "pitch": 65, "velocity": 95}, {"start": 47.41378125, "end": 48.3907925, "pitch": 65, "velocity": 100}, {"start": 48.61349359375, "end": 48.886482031250004, "pitch": 61, "velocity": 105}, {"start": 48.95832109375, "end": 49.238493437500004, "pitch": 61, "velocity": 95}, {"start": 49.30314859375, "end": 49.5833209375, "pitch": 61, "velocity": 96}, {"start": 49.64797609375, "end": 49.992803593750004, "pitch": 63, "velocity": 99}, {"start": 49.9999875, "end": 50.13648171875, "pitch": 65, "velocity": 95}, {"start": 50.17240125, "end": 51.11349296875, "pitch": 65, "velocity": 101}, {"start": 51.20688375, "end": 51.300274531250004, "pitch": 61, "velocity": 95}, {"start": 51.3792975, "end": 51.65946984375, "pitch": 61, "velocity": 99}, {"start": 51.724125, "end": 51.997113437500005, "pitch": 61, "velocity": 99}, {"start": 52.0689525, "end": 52.270101875, "pitch": 61, "velocity": 100}, {"start": 52.41378, "end": 52.751423593750005, "pitch": 63, "velocity": 103}, {"start": 52.758607500000004, "end": 52.9166534375, "pitch": 61, "velocity": 96}, {"start": 52.93102125, "end": 53.8361934375, "pitch": 60, "velocity": 105}, {"start": 54.1379175, "end": 54.47556109375, "pitch": 60, "velocity": 102}, {"start": 54.482745, "end": 54.82038859375, "pitch": 60, "velocity": 98}, {"start": 54.8275725, "end": 55.165216093750004, "pitch": 60, "velocity": 99}, {"start": 55.1724, "end": 55.32326203125, "pitch": 61, "velocity": 98}, {"start": 55.33762984375, "end": 55.833319375, "pitch": 63, "velocity": 101}, {"start": 55.85487109375, "end": 56.94682484375, "pitch": 58, "velocity": 103}, {"start": 57.241365, "end": 57.4568821875, "pitch": 68, "velocity": 98}, {"start": 57.5861925, "end": 57.902284375, "pitch": 68, "velocity": 99}, {"start": 57.931020000000004, "end": 58.46981296875, "pitch": 66, "velocity": 102}, {"start": 58.620675, "end": 58.735617500000004, "pitch": 66, "velocity": 98}, {"start": 58.79308875, "end": 58.90084734375, "pitch": 66, "velocity": 97}, {"start": 58.9655025, "end": 59.24567484375, "pitch": 66, "velocity": 105}, {"start": 59.31033, "end": 59.583318437500004, "pitch": 66, "velocity": 105}, {"start": 59.6551575, "end": 59.913778125, "pitch": 66, "velocity": 97}, {"start": 59.999985, "end": 60.30889296875, "pitch": 66, "velocity": 105}, {"start": 60.3448125, "end": 60.438203281250004, "pitch": 68, "velocity": 98}, {"start": 60.51722625, "end": 60.66808828125, "pitch": 68, "velocity": 100}, {"start": 60.689640000000004, "end": 61.22843296875, "pitch": 65, "velocity": 100}, {"start": 61.37211109375, "end": 61.65946734375, "pitch": 65, "velocity": 105}, {"start": 61.7241225, "end": 61.989927031250005, "pitch": 65, "velocity": 100}, {"start": 62.06895, "end": 62.327570625, "pitch": 65, "velocity": 98}, {"start": 62.4137775, "end": 62.66521421875, "pitch": 65, "velocity": 95}, {"start": 62.758605, "end": 63.0315934375, "pitch": 65, "velocity": 105}, {"start": 63.096248593750005, "end": 63.26866234375, "pitch": 66, "velocity": 98}, {"start": 63.26866234375, "end": 63.44107609375, "pitch": 65, "velocity": 95}, {"start": 63.448260000000005, "end": 63.98705296875, "pitch": 63, "velocity": 98}, {"start": 64.137915, "end": 64.38935171875, "pitch": 63, "velocity": 104}, {"start": 64.4827425, "end": 64.7557309375, "pitch": 63, "velocity": 97}, {"start": 64.82757000000001, "end": 65.086190625, "pitch": 63, "velocity": 104}, {"start": 65.1723975, "end": 65.4166503125, "pitch": 63, "velocity": 104}, {"start": 65.517225, "end": 65.8189490625, "pitch": 65, "velocity": 100}, {"start": 65.85486859375, "end": 66.02728234375, "pitch": 61, "velocity": 102}, {"start": 66.03446625000001, "end": 66.48705234375001, "pitch": 63, "velocity": 99}, {"start": 66.54452359375, "end": 66.71693734375, "pitch": 61, "velocity": 97}, {"start": 66.72412125, "end": 66.867799375, "pitch": 58, "velocity": 96}, {"start": 66.896535, "end": 67.17670734375, "pitch": 61, "velocity": 96}, {"start": 67.24136250000001, "end": 67.3994084375, "pitch": 61, "velocity": 102}, {"start": 67.41377625, "end": 67.52871875, "pitch": 58, "velocity": 97}, {"start": 67.58619, "end": 67.69394859375001, "pitch": 61, "velocity": 103}, {"start": 67.75860375, "end": 67.87354625, "pitch": 61, "velocity": 102}, {"start": 67.9310175, "end": 68.18245421875, "pitch": 61, "velocity": 97}, {"start": 68.275845, "end": 68.534465625, "pitch": 63, "velocity": 100}, {"start": 68.6206725, "end": 68.72843109375, "pitch": 61, "velocity": 105}, {"start": 68.79308625, "end": 68.95831609375, "pitch": 61, "velocity": 95}, {"start": 68.9655, "end": 69.46118953125, "pitch": 58, "velocity": 98}, {"start": 69.65515500000001, "end": 69.9281434375, "pitch": 66, "velocity": 105}, {"start": 69.9999825, "end": 70.10774109375001, "pitch": 66, "velocity": 98}, {"start": 70.17239625, "end": 70.26578703125, "pitch": 66, "velocity": 104}, {"start": 70.34481, "end": 70.63935015625, "pitch": 66, "velocity": 100}, {"start": 70.6896375, "end": 70.96262593750001, "pitch": 66, "velocity": 100}, {"start": 71.034465, "end": 71.3361890625, "pitch": 66, "velocity": 102}, {"start": 71.3792925, "end": 71.4798671875, "pitch": 68, "velocity": 98}, {"start": 71.55170625, "end": 71.6810165625, "pitch": 68, "velocity": 96}, {"start": 71.72412, "end": 72.30601640625, "pitch": 65, "velocity": 100}, {"start": 72.413775, "end": 72.67239562500001, "pitch": 65, "velocity": 98}, {"start": 72.7586025, "end": 73.017223125, "pitch": 65, "velocity": 101}, {"start": 73.10343, "end": 73.3764184375, "pitch": 65, "velocity": 97}, {"start": 73.4482575, "end": 73.68532640625, "pitch": 65, "velocity": 105}, {"start": 73.793085, "end": 74.03015390625, "pitch": 65, "velocity": 100}, {"start": 74.1379125, "end": 74.2959584375, "pitch": 66, "velocity": 95}, {"start": 74.30314234375, "end": 74.46837218750001, "pitch": 65, "velocity": 95}, {"start": 74.48274, "end": 74.92095828125001, "pitch": 63, "velocity": 97}, {"start": 75.16521109375, "end": 75.33762484375, "pitch": 63, "velocity": 105}, {"start": 75.33762484375, "end": 75.51003859375, "pitch": 61, "velocity": 98}, {"start": 75.5172225, "end": 75.7040040625, "pitch": 63, "velocity": 102}, {"start": 75.86205, "end": 76.0200959375, "pitch": 63, "velocity": 105}, {"start": 76.03446375, "end": 76.14222234375, "pitch": 61, "velocity": 98}, {"start": 76.19969359375, "end": 76.4367625, "pitch": 63, "velocity": 95}, {"start": 76.54452109375, "end": 76.84624515625, "pitch": 65, "velocity": 96}, {"start": 76.88934859375, "end": 77.00429109375, "pitch": 61, "velocity": 100}, {"start": 77.06894625, "end": 77.18388875000001, "pitch": 61, "velocity": 97}, {"start": 77.24136, "end": 77.6005553125, "pitch": 63, "velocity": 97}, {"start": 77.92383109375, "end": 78.09624484375, "pitch": 61, "velocity": 99}, {"start": 78.10342875, "end": 78.26865859375, "pitch": 58, "velocity": 103}, {"start": 78.26865859375, "end": 78.52727921875, "pitch": 61, "velocity": 97}, {"start": 78.62067, "end": 78.78589984375, "pitch": 61, "velocity": 98}, {"start": 78.79308375000001, "end": 78.936761875, "pitch": 58, "velocity": 100}, {"start": 78.9654975, "end": 79.17383078125, "pitch": 61, "velocity": 98}, {"start": 79.310325, "end": 79.60486515625, "pitch": 63, "velocity": 103}, {"start": 79.64796859375001, "end": 79.76291109375, "pitch": 61, "velocity": 98}, {"start": 79.82038234375, "end": 79.94969265625001, "pitch": 61, "velocity": 104}, {"start": 79.99998000000001, "end": 80.52440515625, "pitch": 58, "velocity": 95}, {"start": 80.689635, "end": 80.833313125, "pitch": 61, "velocity": 100}, {"start": 80.86204875, "end": 81.31463484375, "pitch": 58, "velocity": 101}, {"start": 81.37929, "end": 81.54451984375, "pitch": 61, "velocity": 103}, {"start": 81.55170375, "end": 81.93245078125, "pitch": 58, "velocity": 99}, {"start": 82.06176109375001, "end": 82.672393125, "pitch": 61, "velocity": 102}, {"start": 82.75141609375, "end": 83.35486421875, "pitch": 61, "velocity": 101}, {"start": 83.448255, "end": 83.97268015625001, "pitch": 61, "velocity": 102}, {"start": 84.13072609375, "end": 84.23130078125, "pitch": 61, "velocity": 96}, {"start": 84.30313984375, "end": 84.42526625, "pitch": 61, "velocity": 102}, {"start": 84.4827375, "end": 84.6695190625, "pitch": 61, "velocity": 95}, {"start": 84.827565, "end": 85.086185625, "pitch": 63, "velocity": 100}, {"start": 85.1723925, "end": 85.25141546875, "pitch": 61, "velocity": 98}, {"start": 85.33762234375, "end": 85.41664531250001, "pitch": 61, "velocity": 105}, {"start": 85.51722000000001, "end": 86.04164515625, "pitch": 60, "velocity": 97}, {"start": 86.206875, "end": 86.3649209375, "pitch": 61, "velocity": 104}, {"start": 86.37928875, "end": 86.76003578125, "pitch": 60, "velocity": 97}, {"start": 86.89653, "end": 87.02584031250001, "pitch": 61, "velocity": 95}, {"start": 87.06175984375, "end": 87.442506875, "pitch": 60, "velocity": 97}, {"start": 87.586185, "end": 88.06750671875, "pitch": 61, "velocity": 98}, {"start": 88.26865609375, "end": 88.8649203125, "pitch": 61, "velocity": 105}, {"start": 88.965495, "end": 89.46118453125, "pitch": 61, "velocity": 103}, {"start": 89.64796609375, "end": 89.76290859375, "pitch": 61, "velocity": 97}, {"start": 89.82037984375, "end": 89.9281384375, "pitch": 61, "velocity": 99}, {"start": 89.9999775, "end": 90.1867590625, "pitch": 61, "velocity": 102}, {"start": 90.33762109375, "end": 90.6177934375, "pitch": 63, "velocity": 102}, {"start": 90.68244859375, "end": 90.76865546875, "pitch": 61, "velocity": 98}, {"start": 90.85486234375, "end": 90.9913565625, "pitch": 61, "velocity": 103}, {"start": 91.03446, "end": 91.57325296875, "pitch": 58, "velocity": 103}, {"start": 91.724115, "end": 91.8821609375, "pitch": 61, "velocity": 100}, {"start": 91.89652875, "end": 92.32037921875, "pitch": 58, "velocity": 103}, {"start": 92.41377, "end": 92.57899984375, "pitch": 61, "velocity": 97}, {"start": 92.58618375, "end": 92.9453790625, "pitch": 58, "velocity": 98}, {"start": 93.09624109375, "end": 93.64221796875, "pitch": 61, "velocity": 96}, {"start": 93.79308, "end": 94.34624078125, "pitch": 61, "velocity": 99}, {"start": 94.47555109375, "end": 94.96405671875, "pitch": 60, "velocity": 101}, {"start": 95.16520609375, "end": 95.26578078125, "pitch": 61, "velocity": 96}, {"start": 95.33761984375, "end": 95.4453784375, "pitch": 61, "velocity": 100}, {"start": 95.51003359375001, "end": 95.73991859375, "pitch": 61, "velocity": 98}, {"start": 95.86204500000001, "end": 96.1062978125, "pitch": 63, "velocity": 103}, {"start": 96.19968859375, "end": 96.30026328125, "pitch": 61, "velocity": 102}, {"start": 96.37210234375, "end": 96.49422875, "pitch": 61, "velocity": 105}, {"start": 96.54451609375, "end": 97.06894125000001, "pitch": 60, "velocity": 100}, {"start": 97.23417109375, "end": 97.40658484375, "pitch": 61, "velocity": 105}, {"start": 97.41376875, "end": 97.77296406250001, "pitch": 60, "velocity": 97}, {"start": 97.93101, "end": 98.0890559375, "pitch": 61, "velocity": 96}, {"start": 98.09623984375, "end": 98.46980296875, "pitch": 60, "velocity": 102}, {"start": 98.61348109375, "end": 99.17382578125, "pitch": 61, "velocity": 104}, {"start": 99.30313609375, "end": 99.87784859375, "pitch": 60, "velocity": 96}, {"start": 99.99279109375, "end": 100.5603196875, "pitch": 58, "velocity": 98}, {"start": 100.68244609375, "end": 101.2787103125, "pitch": 58, "velocity": 105}, {"start": 101.379285, "end": 101.66664125, "pitch": 60, "velocity": 99}, {"start": 101.71692859375, "end": 102.01146875, "pitch": 61, "velocity": 96}, {"start": 102.06175609375, "end": 102.40658359375, "pitch": 63, "velocity": 96}, {"start": 102.4137675, "end": 102.52152609375, "pitch": 65, "velocity": 98}, {"start": 102.58618125, "end": 103.65658328125001, "pitch": 65, "velocity": 100}, {"start": 103.78589359375, "end": 104.04451421875001, "pitch": 61, "velocity": 100}, {"start": 104.137905, "end": 104.224111875, "pitch": 61, "velocity": 101}, {"start": 104.31031875000001, "end": 104.41089343750001, "pitch": 61, "velocity": 99}, {"start": 104.4827325, "end": 104.626410625, "pitch": 61, "velocity": 101}, {"start": 104.82756, "end": 105.06462890625001, "pitch": 63, "velocity": 97}, {"start": 105.16520359375001, "end": 105.28014609375, "pitch": 65, "velocity": 95}, {"start": 105.33761734375, "end": 106.18531828125, "pitch": 65, "velocity": 100}, {"start": 106.5516975, "end": 106.78876640625, "pitch": 61, "velocity": 99}, {"start": 106.896525, "end": 107.00428359375, "pitch": 61, "velocity": 105}, {"start": 107.06893875, "end": 107.18388125, "pitch": 61, "velocity": 99}, {"start": 107.2413525, "end": 107.43531796875, "pitch": 61, "velocity": 97}, {"start": 107.57899609375, "end": 107.92382359375, "pitch": 63, "velocity": 105}, {"start": 107.92382359375, "end": 108.04595, "pitch": 60, "velocity": 104}, {"start": 108.09623734375, "end": 109.03014515625, "pitch": 60, "velocity": 98}, {"start": 109.3103175, "end": 109.56175421875, "pitch": 60, "velocity": 102}, {"start": 109.655145, "end": 109.8993978125, "pitch": 60, "velocity": 98}, {"start": 109.99278859375, "end": 110.23704140625, "pitch": 60, "velocity": 97}, {"start": 110.3448, "end": 110.66807578125, "pitch": 61, "velocity": 97}, {"start": 110.6896275, "end": 110.79738609375, "pitch": 58, "velocity": 97}, {"start": 110.86204125, "end": 111.810316875, "pitch": 58, "velocity": 98}, {"start": 112.0689375, "end": 112.17669609375, "pitch": 61, "velocity": 99}, {"start": 112.24135125000001, "end": 112.34192593750001, "pitch": 61, "velocity": 97}, {"start": 112.413765, "end": 112.6867534375, "pitch": 61, "velocity": 96}, {"start": 112.7585925, "end": 112.98129359375001, "pitch": 61, "velocity": 98}, {"start": 113.09623609375001, "end": 113.26864984375, "pitch": 63, "velocity": 102}, {"start": 113.26864984375, "end": 113.53445437500001, "pitch": 65, "velocity": 99}, {"start": 113.62066125, "end": 114.59048859375001, "pitch": 65, "velocity": 102}, {"start": 114.8275575, "end": 114.92094828125, "pitch": 61, "velocity": 96}, {"start": 114.99997125, "end": 115.09336203125001, "pitch": 61, "velocity": 101}, {"start": 115.172385, "end": 115.43818953125, "pitch": 61, "velocity": 96}, {"start": 115.5172125, "end": 115.7327296875, "pitch": 61, "velocity": 97}, {"start": 115.85485609375, "end": 116.19968359375001, "pitch": 63, "velocity": 99}, {"start": 116.2068675, "end": 116.28589046875, "pitch": 65, "velocity": 96}, {"start": 116.37928125, "end": 117.5430740625, "pitch": 65, "velocity": 104}, {"start": 117.92382109375, "end": 118.13933828125, "pitch": 61, "velocity": 104}, {"start": 118.26864859375, "end": 118.52726921875, "pitch": 61, "velocity": 98}, {"start": 118.62066, "end": 118.91520015625001, "pitch": 63, "velocity": 98}, {"start": 118.95830359375, "end": 119.051694375, "pitch": 60, "velocity": 104}, {"start": 119.13790125, "end": 120.3304296875, "pitch": 60, "velocity": 105}, {"start": 120.51721125, "end": 120.58186640625, "pitch": 60, "velocity": 95}, {"start": 120.689625, "end": 120.78301578125, "pitch": 60, "velocity": 99}, {"start": 120.86203875, "end": 120.948245625, "pitch": 60, "velocity": 103}, {"start": 121.02726859375001, "end": 121.21405015625, "pitch": 60, "velocity": 104}, {"start": 121.37209609375, "end": 121.65945234375, "pitch": 61, "velocity": 104}, {"start": 121.71692359375, "end": 121.7959465625, "pitch": 63, "velocity": 97}, {"start": 121.89652125, "end": 122.14795796875, "pitch": 65, "velocity": 104}, {"start": 122.23416484375001, "end": 122.36347515625, "pitch": 63, "velocity": 97}, {"start": 122.40657859375, "end": 122.75140609375, "pitch": 61, "velocity": 96}, {"start": 122.75140609375, "end": 123.4051415625, "pitch": 58, "velocity": 103}, {"start": 123.44106109375001, "end": 123.69249781250001, "pitch": 68, "velocity": 100}, {"start": 123.78588859375, "end": 124.08761265625, "pitch": 68, "velocity": 99}, {"start": 124.1379, "end": 124.67669296875, "pitch": 66, "velocity": 105}, {"start": 124.827555, "end": 124.9424975, "pitch": 66, "velocity": 103}, {"start": 124.99996875000001, "end": 125.10772734375, "pitch": 66, "velocity": 95}, {"start": 125.1723825, "end": 125.45255484375001, "pitch": 66, "velocity": 105}, {"start": 125.51721, "end": 125.79019843750001, "pitch": 66, "velocity": 103}, {"start": 125.8620375, "end": 126.120658125, "pitch": 66, "velocity": 104}, {"start": 126.20686500000001, "end": 126.51577296875, "pitch": 66, "velocity": 96}, {"start": 126.5516925, "end": 126.64508328125001, "pitch": 68, "velocity": 98}, {"start": 126.72410625, "end": 126.87496828125, "pitch": 68, "velocity": 97}, {"start": 126.89652000000001, "end": 127.43531296875, "pitch": 65, "velocity": 95}, {"start": 127.57899109375, "end": 127.86634734375001, "pitch": 65, "velocity": 96}, {"start": 127.9310025, "end": 128.19680703125002, "pitch": 65, "velocity": 96}, {"start": 128.27583, "end": 128.534450625, "pitch": 65, "velocity": 97}, {"start": 128.6206575, "end": 128.87209421875, "pitch": 65, "velocity": 100}, {"start": 128.965485, "end": 129.2384734375, "pitch": 65, "velocity": 96}, {"start": 129.30312859375002, "end": 129.47554234375, "pitch": 66, "velocity": 105}, {"start": 129.47554234375, "end": 129.64795609375, "pitch": 65, "velocity": 97}, {"start": 129.65514000000002, "end": 130.19393296875, "pitch": 63, "velocity": 100}, {"start": 130.344795, "end": 130.59623171875, "pitch": 63, "velocity": 98}, {"start": 130.6896225, "end": 130.96261093750002, "pitch": 63, "velocity": 98}, {"start": 131.03445, "end": 131.293070625, "pitch": 63, "velocity": 102}, {"start": 131.3792775, "end": 131.6235303125, "pitch": 63, "velocity": 98}, {"start": 131.724105, "end": 132.0258290625, "pitch": 65, "velocity": 99}, {"start": 132.06174859375, "end": 132.23416234375, "pitch": 61, "velocity": 96}, {"start": 132.24134625, "end": 132.69393234375, "pitch": 63, "velocity": 105}, {"start": 132.75140359375, "end": 132.92381734375002, "pitch": 61, "velocity": 104}, {"start": 132.93100125, "end": 133.07467937500002, "pitch": 58, "velocity": 102}, {"start": 133.103415, "end": 133.38358734375, "pitch": 61, "velocity": 102}, {"start": 133.4482425, "end": 133.6062884375, "pitch": 61, "velocity": 99}, {"start": 133.62065625, "end": 133.73559875, "pitch": 58, "velocity": 98}, {"start": 133.79307, "end": 133.90082859375, "pitch": 61, "velocity": 98}, {"start": 133.96548375, "end": 134.08042625000002, "pitch": 61, "velocity": 100}, {"start": 134.1378975, "end": 134.38933421875, "pitch": 61, "velocity": 98}, {"start": 134.48272500000002, "end": 134.741345625, "pitch": 63, "velocity": 101}, {"start": 134.8275525, "end": 134.93531109375002, "pitch": 61, "velocity": 97}, {"start": 134.99996625, "end": 135.16519609375, "pitch": 61, "velocity": 98}, {"start": 135.17238, "end": 135.66806953125, "pitch": 58, "velocity": 95}, {"start": 135.862035, "end": 136.1350234375, "pitch": 66, "velocity": 98}, {"start": 136.2068625, "end": 136.31462109375, "pitch": 66, "velocity": 95}, {"start": 136.37927625, "end": 136.47266703125, "pitch": 66, "velocity": 97}, {"start": 136.55169, "end": 136.84623015625002, "pitch": 66, "velocity": 97}, {"start": 136.89651750000002, "end": 137.1695059375, "pitch": 66, "velocity": 98}, {"start": 137.241345, "end": 137.5430690625, "pitch": 66, "velocity": 98}, {"start": 137.5861725, "end": 137.6867471875, "pitch": 68, "velocity": 96}, {"start": 137.75858625, "end": 137.8878965625, "pitch": 68, "velocity": 104}, {"start": 137.931, "end": 138.51289640625, "pitch": 65, "velocity": 98}, {"start": 138.620655, "end": 138.879275625, "pitch": 65, "velocity": 97}, {"start": 138.9654825, "end": 139.224103125, "pitch": 65, "velocity": 97}, {"start": 139.31031000000002, "end": 139.5832984375, "pitch": 65, "velocity": 96}, {"start": 139.6551375, "end": 139.89220640625, "pitch": 65, "velocity": 102}, {"start": 139.999965, "end": 140.23703390625, "pitch": 65, "velocity": 103}, {"start": 140.3447925, "end": 140.5028384375, "pitch": 66, "velocity": 100}, {"start": 140.51002234375, "end": 140.6752521875, "pitch": 65, "velocity": 100}, {"start": 140.68962, "end": 141.12783828125, "pitch": 63, "velocity": 104}, {"start": 141.37209109375002, "end": 141.54450484375, "pitch": 63, "velocity": 105}, {"start": 141.54450484375, "end": 141.71691859375, "pitch": 61, "velocity": 95}, {"start": 141.72410250000001, "end": 141.9108840625, "pitch": 63, "velocity": 102}, {"start": 142.06893, "end": 142.22697593750001, "pitch": 63, "velocity": 96}, {"start": 142.24134375, "end": 142.34910234375, "pitch": 61, "velocity": 102}, {"start": 142.40657359375, "end": 142.6436425, "pitch": 63, "velocity": 98}, {"start": 142.75140109375, "end": 143.05312515625, "pitch": 65, "velocity": 100}, {"start": 143.09622859375, "end": 143.21117109375, "pitch": 61, "velocity": 98}, {"start": 143.27582625, "end": 143.39076875, "pitch": 61, "velocity": 100}, {"start": 143.44824, "end": 143.8074353125, "pitch": 63, "velocity": 104}, {"start": 144.13071109375, "end": 144.30312484375, "pitch": 61, "velocity": 104}, {"start": 144.31030875, "end": 144.47553859375, "pitch": 58, "velocity": 98}, {"start": 144.47553859375, "end": 144.73415921875, "pitch": 61, "velocity": 95}, {"start": 144.82755, "end": 144.99277984375001, "pitch": 61, "velocity": 102}, {"start": 144.99996375, "end": 145.14364187500001, "pitch": 58, "velocity": 95}, {"start": 145.1723775, "end": 145.38071078125, "pitch": 61, "velocity": 103}, {"start": 145.517205, "end": 145.81174515625, "pitch": 63, "velocity": 97}, {"start": 145.85484859375, "end": 145.96979109375, "pitch": 61, "velocity": 100}, {"start": 146.02726234375, "end": 146.15657265625, "pitch": 61, "velocity": 104}, {"start": 146.20686, "end": 146.73128515625, "pitch": 58, "velocity": 105}, {"start": 146.896515, "end": 147.040193125, "pitch": 61, "velocity": 98}, {"start": 147.06892875, "end": 147.52151484375, "pitch": 58, "velocity": 105}, {"start": 147.58617, "end": 147.75139984375, "pitch": 61, "velocity": 101}, {"start": 147.75858375, "end": 148.13933078125, "pitch": 58, "velocity": 99}, {"start": 148.26864109375, "end": 148.879273125, "pitch": 61, "velocity": 102}, {"start": 148.95829609375, "end": 149.56174421875, "pitch": 61, "velocity": 98}, {"start": 149.655135, "end": 150.17956015625, "pitch": 61, "velocity": 103}, {"start": 150.33760609375, "end": 150.43818078125, "pitch": 61, "velocity": 96}, {"start": 150.51001984375, "end": 150.63214625, "pitch": 61, "velocity": 97}, {"start": 150.6896175, "end": 150.8763990625, "pitch": 61, "velocity": 98}, {"start": 151.034445, "end": 151.293065625, "pitch": 63, "velocity": 100}, {"start": 151.3792725, "end": 151.45829546875, "pitch": 61, "velocity": 98}, {"start": 151.54450234375, "end": 151.6235253125, "pitch": 61, "velocity": 96}, {"start": 151.7241, "end": 152.24852515625, "pitch": 60, "velocity": 101}, {"start": 152.413755, "end": 152.5718009375, "pitch": 61, "velocity": 96}, {"start": 152.58616875, "end": 152.96691578125, "pitch": 60, "velocity": 100}, {"start": 153.10341, "end": 153.2327203125, "pitch": 61, "velocity": 98}, {"start": 153.26863984375, "end": 153.649386875, "pitch": 60, "velocity": 95}, {"start": 153.793065, "end": 154.27438671875, "pitch": 61, "velocity": 99}, {"start": 154.47553609375, "end": 155.07180031250002, "pitch": 61, "velocity": 98}, {"start": 155.17237500000002, "end": 155.66806453125, "pitch": 61, "velocity": 101}, {"start": 155.85484609375, "end": 155.96978859375, "pitch": 61, "velocity": 97}, {"start": 156.02725984375002, "end": 156.1350184375, "pitch": 61, "velocity": 96}, {"start": 156.2068575, "end": 156.3936390625, "pitch": 61, "velocity": 98}, {"start": 156.54450109375, "end": 156.8246734375, "pitch": 63, "velocity": 105}, {"start": 156.88932859375, "end": 156.97553546875, "pitch": 61, "velocity": 100}, {"start": 157.06174234375, "end": 157.1982365625, "pitch": 61, "velocity": 101}, {"start": 157.24134, "end": 157.78013296875, "pitch": 58, "velocity": 103}, {"start": 157.930995, "end": 158.08904093750002, "pitch": 61, "velocity": 99}, {"start": 158.10340875, "end": 158.52725921875, "pitch": 58, "velocity": 99}, {"start": 158.62065, "end": 158.78587984375, "pitch": 61, "velocity": 95}, {"start": 158.79306375000002, "end": 159.1522590625, "pitch": 58, "velocity": 97}, {"start": 159.30312109375, "end": 159.84909796875002, "pitch": 61, "velocity": 97}, {"start": 159.99996000000002, "end": 160.55312078125002, "pitch": 61, "velocity": 104}, {"start": 160.68243109375, "end": 161.17093671875, "pitch": 60, "velocity": 99}, {"start": 161.37208609375, "end": 161.47266078125, "pitch": 61, "velocity": 105}, {"start": 161.54449984375, "end": 161.6522584375, "pitch": 61, "velocity": 104}, {"start": 161.71691359375, "end": 161.94679859375, "pitch": 61, "velocity": 103}, {"start": 162.068925, "end": 162.31317781250002, "pitch": 63, "velocity": 105}, {"start": 162.40656859375, "end": 162.50714328125, "pitch": 61, "velocity": 100}, {"start": 162.57898234375, "end": 162.70110875, "pitch": 61, "velocity": 105}, {"start": 162.75139609375, "end": 163.27582125, "pitch": 60, "velocity": 101}, {"start": 163.44105109375, "end": 163.61346484375, "pitch": 61, "velocity": 96}, {"start": 163.62064875000002, "end": 163.9798440625, "pitch": 60, "velocity": 100}, {"start": 164.13789, "end": 164.2959359375, "pitch": 61, "velocity": 104}, {"start": 164.30311984375, "end": 164.67668296875001, "pitch": 60, "velocity": 96}, {"start": 164.82036109375, "end": 165.38070578125001, "pitch": 61, "velocity": 100}, {"start": 165.51001609375, "end": 166.08472859375001, "pitch": 60, "velocity": 96}, {"start": 166.19967109375, "end": 166.7671996875, "pitch": 58, "velocity": 105}, {"start": 166.88932609375001, "end": 167.4855903125, "pitch": 58, "velocity": 103}, {"start": 167.586165, "end": 167.87352125, "pitch": 60, "velocity": 97}, {"start": 167.92380859375, "end": 168.21834875000002, "pitch": 61, "velocity": 104}, {"start": 168.27582, "end": 168.52007281250002, "pitch": 66, "velocity": 98}, {"start": 168.62064750000002, "end": 168.73559, "pitch": 66, "velocity": 103}, {"start": 168.79306125, "end": 169.02294625000002, "pitch": 66, "velocity": 104}, {"start": 169.13788875, "end": 169.36058984375, "pitch": 66, "velocity": 103}, {"start": 169.48271625, "end": 169.70541734375, "pitch": 66, "velocity": 102}, {"start": 169.82754375000002, "end": 170.05742875, "pitch": 66, "velocity": 95}, {"start": 170.17237125, "end": 170.718348125, "pitch": 66, "velocity": 98}, {"start": 171.03444000000002, "end": 171.2786928125, "pitch": 66, "velocity": 97}, {"start": 171.3792675, "end": 171.49421, "pitch": 66, "velocity": 103}, {"start": 171.55168125, "end": 171.78156625, "pitch": 66, "velocity": 97}, {"start": 171.89650875, "end": 172.11920984375, "pitch": 66, "velocity": 102}, {"start": 172.24133625000002, "end": 172.46403734375, "pitch": 66, "velocity": 102}, {"start": 172.58616375, "end": 172.81604875, "pitch": 66, "velocity": 100}, {"start": 172.93099125, "end": 173.34047390625, "pitch": 66, "velocity": 103}, {"start": 173.44104859375, "end": 173.78587609375, "pitch": 66, "velocity": 102}, {"start": 173.79306, "end": 174.4108759375, "pitch": 66, "velocity": 99}, {"start": 174.482715, "end": 174.75570343750002, "pitch": 65, "velocity": 101}, {"start": 174.8275425, "end": 175.11489875, "pitch": 65, "velocity": 100}, {"start": 175.17237, "end": 175.46691015625, "pitch": 65, "velocity": 104}, {"start": 175.51001359375002, "end": 175.76145031250002, "pitch": 65, "velocity": 101}, {"start": 175.86202500000002, "end": 176.12782953125, "pitch": 65, "velocity": 99}, {"start": 176.2068525, "end": 176.50139265625, "pitch": 65, "velocity": 102}, {"start": 176.54449609375, "end": 177.10484078125, "pitch": 65, "velocity": 101}, {"start": 177.241335, "end": 177.44966828125, "pitch": 63, "velocity": 99}, {"start": 177.5861625, "end": 178.5057025, "pitch": 63, "velocity": 97}, {"start": 178.620645, "end": 178.92955296875002, "pitch": 63, "velocity": 105}, {"start": 178.9654725, "end": 179.57610453125, "pitch": 63, "velocity": 96}, {"start": 179.6551275, "end": 179.99277109375, "pitch": 63, "velocity": 105}, {"start": 179.999955, "end": 180.258575625, "pitch": 66, "velocity": 95}, {"start": 180.3447825, "end": 180.61058703125, "pitch": 66, "velocity": 97}, {"start": 180.68961000000002, "end": 180.94104671875002, "pitch": 66, "velocity": 102}, {"start": 181.0344375, "end": 181.31460984375, "pitch": 66, "velocity": 102}, {"start": 181.379265, "end": 181.71690859375, "pitch": 68, "velocity": 105}, {"start": 181.7240925, "end": 182.00426484375, "pitch": 66, "velocity": 105}, {"start": 182.06892, "end": 182.67955203125, "pitch": 66, "velocity": 101}, {"start": 182.758575, "end": 183.06748296875, "pitch": 66, "velocity": 97}, {"start": 183.10340250000002, "end": 183.38357484375, "pitch": 66, "velocity": 100}, {"start": 183.44823, "end": 183.7212184375, "pitch": 66, "velocity": 104}, {"start": 183.7930575, "end": 184.11633328125, "pitch": 66, "velocity": 103}, {"start": 184.137885, "end": 184.47552859375, "pitch": 68, "velocity": 100}, {"start": 184.4827125, "end": 184.76288484375002, "pitch": 65, "velocity": 98}, {"start": 184.82754, "end": 187.57897609375001, "pitch": 65, "velocity": 100}, {"start": 187.58616, "end": 189.61202156250002, "pitch": 69, "velocity": 99}, {"start": 189.655125, "end": 189.9281134375, "pitch": 70, "velocity": 97}, {"start": 189.9999525, "end": 190.23702140625, "pitch": 70, "velocity": 105}, {"start": 191.02725109375, "end": 191.14219359375, "pitch": 66, "velocity": 105}, {"start": 191.20684875, "end": 191.32897515625, "pitch": 66, "velocity": 103}, {"start": 191.3792625, "end": 191.66661875, "pitch": 66, "velocity": 105}, {"start": 191.72409000000002, "end": 192.03299796875, "pitch": 66, "velocity": 104}, {"start": 192.0689175, "end": 192.35627375, "pitch": 66, "velocity": 99}, {"start": 192.413745, "end": 192.72983687500002, "pitch": 66, "velocity": 105}, {"start": 192.7585725, "end": 192.85196328125, "pitch": 68, "velocity": 104}, {"start": 192.93098625000002, "end": 193.09621609375, "pitch": 68, "velocity": 100}, {"start": 193.1034, "end": 193.54161828125, "pitch": 65, "velocity": 96}, {"start": 193.793055, "end": 194.0660434375, "pitch": 65, "velocity": 102}, {"start": 194.13788250000002, "end": 194.40368703125, "pitch": 65, "velocity": 96}, {"start": 194.48271, "end": 194.7556984375, "pitch": 65, "velocity": 99}, {"start": 194.8275375, "end": 195.086158125, "pitch": 65, "velocity": 102}, {"start": 195.172365, "end": 195.40225, "pitch": 65, "velocity": 101}, {"start": 195.5171925, "end": 195.68242234375, "pitch": 66, "velocity": 95}, {"start": 195.68242234375, "end": 195.85483609375, "pitch": 65, "velocity": 100}, {"start": 195.86202, "end": 196.465468125, "pitch": 63, "velocity": 105}, {"start": 196.55167500000002, "end": 196.85339906250002, "pitch": 63, "velocity": 95}, {"start": 196.8965025, "end": 197.1407553125, "pitch": 63, "velocity": 100}, {"start": 197.24133, "end": 197.50713453125002, "pitch": 63, "velocity": 97}, {"start": 197.5861575, "end": 197.85914593750002, "pitch": 63, "velocity": 105}, {"start": 197.930985, "end": 198.189605625, "pitch": 65, "velocity": 95}, {"start": 198.2758125, "end": 198.4338584375, "pitch": 61, "velocity": 98}, {"start": 198.44822625, "end": 198.8361571875, "pitch": 63, "velocity": 96}, {"start": 198.96546750000002, "end": 199.109145625, "pitch": 61, "velocity": 97}, {"start": 199.13788125, "end": 199.23127203125, "pitch": 58, "velocity": 102}, {"start": 199.310295, "end": 199.59046734375, "pitch": 61, "velocity": 101}, {"start": 199.6551225, "end": 199.8131684375, "pitch": 61, "velocity": 98}, {"start": 199.82753625, "end": 199.9568465625, "pitch": 58, "velocity": 102}, {"start": 199.99995, "end": 200.10770859375, "pitch": 61, "velocity": 97}, {"start": 200.17236375000002, "end": 200.28012234375, "pitch": 61, "velocity": 105}, {"start": 200.3447775, "end": 200.5602946875, "pitch": 61, "velocity": 101}, {"start": 200.689605, "end": 201.01288078125, "pitch": 63, "velocity": 95}, {"start": 201.0344325, "end": 201.1350071875, "pitch": 61, "velocity": 100}, {"start": 201.19966234375, "end": 201.34334046875, "pitch": 61, "velocity": 105}, {"start": 201.37926000000002, "end": 201.925236875, "pitch": 58, "velocity": 97}, {"start": 202.068915, "end": 202.35627125, "pitch": 66, "velocity": 104}, {"start": 202.4137425, "end": 202.672363125, "pitch": 66, "velocity": 103}, {"start": 202.75857, "end": 203.0315584375, "pitch": 66, "velocity": 102}, {"start": 203.1033975, "end": 203.362018125, "pitch": 66, "velocity": 103}, {"start": 203.448225, "end": 203.68529390625, "pitch": 66, "velocity": 102}, {"start": 203.79305250000002, "end": 203.90081109375, "pitch": 68, "velocity": 101}, {"start": 203.95828234375, "end": 204.13069609375, "pitch": 68, "velocity": 105}, {"start": 204.13069609375, "end": 204.59046609375, "pitch": 65, "velocity": 105}, {"start": 204.827535, "end": 205.10052343750002, "pitch": 65, "velocity": 103}, {"start": 205.1723625, "end": 205.46690265625, "pitch": 65, "velocity": 105}, {"start": 205.51719, "end": 205.7614428125, "pitch": 65, "velocity": 102}, {"start": 205.8620175, "end": 206.120638125, "pitch": 65, "velocity": 100}, {"start": 206.20684500000002, "end": 206.42954609375002, "pitch": 65, "velocity": 105}, {"start": 206.5516725, "end": 206.71690234375, "pitch": 66, "velocity": 97}, {"start": 206.71690234375, "end": 206.88931609375, "pitch": 65, "velocity": 104}, {"start": 206.8965, "end": 207.43529296875002, "pitch": 63, "velocity": 102}, {"start": 207.58615500000002, "end": 207.75138484375, "pitch": 63, "velocity": 104}, {"start": 207.75856875, "end": 207.92379859375, "pitch": 61, "velocity": 104}, {"start": 207.9309825, "end": 208.18960312500002, "pitch": 63, "velocity": 105}, {"start": 208.27581, "end": 208.42667203125, "pitch": 63, "velocity": 105}, {"start": 208.44822375, "end": 208.58471796875, "pitch": 61, "velocity": 99}, {"start": 208.62063750000002, "end": 208.82178687500002, "pitch": 63, "velocity": 97}, {"start": 208.965465, "end": 209.22408562500001, "pitch": 65, "velocity": 105}, {"start": 209.3102925, "end": 209.43241890625, "pitch": 61, "velocity": 98}, {"start": 209.48270625, "end": 209.6120165625, "pitch": 61, "velocity": 105}, {"start": 209.65512, "end": 210.10770609375, "pitch": 63, "velocity": 97}, {"start": 210.33759109375, "end": 210.51000484375, "pitch": 61, "velocity": 96}, {"start": 210.51000484375, "end": 210.660866875, "pitch": 58, "velocity": 103}, {"start": 210.6896025, "end": 210.94103921875, "pitch": 61, "velocity": 104}, {"start": 211.03443000000001, "end": 211.178108125, "pitch": 61, "velocity": 104}, {"start": 211.20684375000002, "end": 211.33615406250001, "pitch": 58, "velocity": 103}, {"start": 211.37207359375, "end": 211.6522459375, "pitch": 61, "velocity": 104}, {"start": 211.724085, "end": 212.04017687500001, "pitch": 63, "velocity": 101}, {"start": 212.0689125, "end": 212.17667109375, "pitch": 61, "velocity": 97}, {"start": 212.24132625000001, "end": 212.36345265625002, "pitch": 61, "velocity": 98}, {"start": 212.41374000000002, "end": 212.95253296875, "pitch": 58, "velocity": 105}, {"start": 213.103395, "end": 213.26862484375002, "pitch": 61, "velocity": 97}, {"start": 213.27580875, "end": 213.649371875, "pitch": 58, "velocity": 96}, {"start": 213.79305, "end": 213.95827984375, "pitch": 61, "velocity": 98}, {"start": 213.96546375, "end": 214.339026875, "pitch": 58, "velocity": 105}, {"start": 214.482705, "end": 215.00713015625, "pitch": 61, "velocity": 105}, {"start": 215.17236, "end": 215.73270468750002, "pitch": 61, "velocity": 95}, {"start": 215.862015, "end": 216.350520625, "pitch": 61, "velocity": 101}, {"start": 216.55167, "end": 216.6666125, "pitch": 61, "velocity": 104}, {"start": 216.72408375, "end": 216.83902625000002, "pitch": 61, "velocity": 98}, {"start": 216.8964975, "end": 217.097646875, "pitch": 61, "velocity": 96}, {"start": 217.24132500000002, "end": 217.50712953125, "pitch": 63, "velocity": 98}, {"start": 217.5861525, "end": 217.672359375, "pitch": 61, "velocity": 98}, {"start": 217.75856625, "end": 217.88069265625, "pitch": 61, "velocity": 98}, {"start": 217.93098, "end": 218.4051178125, "pitch": 60, "velocity": 105}, {"start": 218.620635, "end": 218.78586484375, "pitch": 61, "velocity": 103}, {"start": 218.79304875, "end": 219.15224406250002, "pitch": 60, "velocity": 97}, {"start": 219.31029, "end": 219.47551984375, "pitch": 61, "velocity": 100}, {"start": 219.48270375, "end": 219.89218640625, "pitch": 60, "velocity": 103}, {"start": 219.999945, "end": 220.5315540625, "pitch": 61, "velocity": 100}, {"start": 220.6896, "end": 221.2212090625, "pitch": 61, "velocity": 105}, {"start": 221.379255, "end": 221.9108640625, "pitch": 61, "velocity": 99}, {"start": 222.06172609375, "end": 222.16230078125, "pitch": 61, "velocity": 99}, {"start": 222.23413984375, "end": 222.34908234375, "pitch": 61, "velocity": 97}, {"start": 222.4137375, "end": 222.65080640625, "pitch": 61, "velocity": 96}, {"start": 222.758565, "end": 222.97408218750002, "pitch": 63, "velocity": 98}, {"start": 223.1033925, "end": 223.19678328125, "pitch": 61, "velocity": 95}, {"start": 223.27580625000002, "end": 223.38356484375, "pitch": 61, "velocity": 103}, {"start": 223.44103609375, "end": 223.97982906250002, "pitch": 58, "velocity": 105}, {"start": 224.13069109375002, "end": 224.30310484375, "pitch": 61, "velocity": 104}, {"start": 224.30310484375, "end": 224.73413921875002, "pitch": 58, "velocity": 101}, {"start": 224.82753, "end": 224.99275984375, "pitch": 61, "velocity": 102}, {"start": 224.99994375, "end": 225.4022425, "pitch": 58, "velocity": 99}, {"start": 225.51000109375, "end": 226.0487940625, "pitch": 61, "velocity": 95}, {"start": 226.19965609375, "end": 226.79592031250002, "pitch": 61, "velocity": 101}, {"start": 226.89649500000002, "end": 227.39218453125, "pitch": 60, "velocity": 100}, {"start": 227.58615, "end": 227.67954078125, "pitch": 61, "velocity": 103}, {"start": 227.75856375, "end": 227.85195453125002, "pitch": 61, "velocity": 99}, {"start": 227.9309775, "end": 228.19678203125, "pitch": 61, "velocity": 99}, {"start": 228.27580500000002, "end": 228.49850609375, "pitch": 63, "velocity": 98}, {"start": 228.6206325, "end": 228.71402328125, "pitch": 61, "velocity": 95}, {"start": 228.78586234375, "end": 228.9223565625, "pitch": 61, "velocity": 95}, {"start": 228.96546, "end": 229.4395978125, "pitch": 60, "velocity": 98}, {"start": 229.655115, "end": 229.82034484375, "pitch": 61, "velocity": 100}, {"start": 229.82752875, "end": 230.18672406250002, "pitch": 60, "velocity": 104}, {"start": 230.34477, "end": 230.50999984375, "pitch": 61, "velocity": 98}, {"start": 230.51718375000002, "end": 230.8763790625, "pitch": 60, "velocity": 100}, {"start": 231.034425, "end": 231.49419500000002, "pitch": 61, "velocity": 101}, {"start": 231.72408000000001, "end": 232.21976953125, "pitch": 60, "velocity": 103}, {"start": 232.413735, "end": 232.90224062500002, "pitch": 58, "velocity": 98}, {"start": 233.10339000000002, "end": 233.63499906250001, "pitch": 58, "velocity": 98}, {"start": 233.793045, "end": 234.10195296875, "pitch": 60, "velocity": 96}, {"start": 234.13068859375, "end": 234.38930921875001, "pitch": 65, "velocity": 102}, {"start": 234.4827, "end": 234.82034359375, "pitch": 65, "velocity": 104}, {"start": 234.8275275, "end": 235.16517109375002, "pitch": 63, "velocity": 101}, {"start": 235.172355, "end": 235.50999859375, "pitch": 65, "velocity": 99}, {"start": 235.51718250000002, "end": 235.890745625, "pitch": 63, "velocity": 95}, {"start": 236.2068375, "end": 236.54448109375, "pitch": 68, "velocity": 96}, {"start": 236.551665, "end": 236.63068796875, "pitch": 65, "velocity": 100}, {"start": 236.72407875000002, "end": 236.80310171875, "pitch": 65, "velocity": 99}, {"start": 236.8964925, "end": 237.16229703125, "pitch": 65, "velocity": 103}, {"start": 237.24132, "end": 237.57896359375002, "pitch": 65, "velocity": 95}, {"start": 237.5861475, "end": 237.92379109375, "pitch": 63, "velocity": 102}, {"start": 237.93097500000002, "end": 238.26861859375, "pitch": 65, "velocity": 99}, {"start": 238.2758025, "end": 238.63499781250002, "pitch": 63, "velocity": 104}, {"start": 238.9654575, "end": 239.25999765625, "pitch": 65, "velocity": 99}, {"start": 239.310285, "end": 239.59045734375002, "pitch": 65, "velocity": 104}, {"start": 239.6551125, "end": 239.89218140625002, "pitch": 65, "velocity": 105}, {"start": 239.99994, "end": 240.6752271875, "pitch": 65, "velocity": 102}, {"start": 240.689595, "end": 240.89792828125002, "pitch": 63, "velocity": 101}, {"start": 241.0344225, "end": 242.32034171875, "pitch": 63, "velocity": 99}, {"start": 242.4137325, "end": 242.6292496875, "pitch": 63, "velocity": 98}, {"start": 242.75856000000002, "end": 243.44103109375, "pitch": 63, "velocity": 104}, {"start": 243.448215, "end": 243.73557125, "pitch": 61, "velocity": 97}, {"start": 243.7930425, "end": 245.1292490625, "pitch": 61, "velocity": 97}, {"start": 245.17235250000002, "end": 245.42378921875002, "pitch": 65, "velocity": 95}, {"start": 245.51718, "end": 245.85482359375, "pitch": 65, "velocity": 98}, {"start": 245.8620075, "end": 246.19965109375002, "pitch": 63, "velocity": 103}, {"start": 246.206835, "end": 246.54447859375, "pitch": 65, "velocity": 96}, {"start": 246.55166250000002, "end": 246.925225625, "pitch": 63, "velocity": 96}, {"start": 247.2413175, "end": 247.57896109375, "pitch": 68, "velocity": 95}, {"start": 247.58614500000002, "end": 247.66516796875, "pitch": 65, "velocity": 97}, {"start": 247.75855875000002, "end": 247.83758171875002, "pitch": 65, "velocity": 105}, {"start": 247.9309725, "end": 248.19677703125, "pitch": 65, "velocity": 101}, {"start": 248.2758, "end": 248.61344359375002, "pitch": 65, "velocity": 104}, {"start": 248.6206275, "end": 248.95827109375, "pitch": 63, "velocity": 99}, {"start": 248.96545500000002, "end": 249.30309859375, "pitch": 65, "velocity": 104}, {"start": 249.3102825, "end": 249.66947781250002, "pitch": 63, "velocity": 99}, {"start": 249.99993750000002, "end": 250.29447765625, "pitch": 65, "velocity": 104}, {"start": 250.344765, "end": 250.62493734375002, "pitch": 65, "velocity": 97}, {"start": 250.6895925, "end": 250.92666140625002, "pitch": 65, "velocity": 99}, {"start": 251.03442, "end": 251.70970718750002, "pitch": 65, "velocity": 102}, {"start": 251.724075, "end": 251.93240828125002, "pitch": 63, "velocity": 95}, {"start": 252.0689025, "end": 253.35482171875, "pitch": 63, "velocity": 100}, {"start": 253.4482125, "end": 253.6637296875, "pitch": 63, "velocity": 102}, {"start": 253.79304000000002, "end": 254.47551109375001, "pitch": 63, "velocity": 104}, {"start": 254.482695, "end": 254.77005125, "pitch": 61, "velocity": 101}, {"start": 254.82752250000001, "end": 256.1637290625, "pitch": 61, "velocity": 100}, {"start": 256.2068325, "end": 256.45826921875, "pitch": 65, "velocity": 100}, {"start": 256.55166, "end": 256.88930359375, "pitch": 65, "velocity": 103}, {"start": 256.89648750000003, "end": 257.23413109375, "pitch": 63, "velocity": 101}, {"start": 257.241315, "end": 257.57895859375003, "pitch": 65, "velocity": 95}, {"start": 257.5861425, "end": 257.959705625, "pitch": 63, "velocity": 105}, {"start": 258.2757975, "end": 258.61344109375, "pitch": 68, "velocity": 100}, {"start": 258.620625, "end": 258.69964796875, "pitch": 65, "velocity": 103}, {"start": 258.79303875, "end": 258.87206171875, "pitch": 65, "velocity": 95}, {"start": 258.9654525, "end": 259.23125703125, "pitch": 65, "velocity": 101}, {"start": 259.31028000000003, "end": 259.64792359375, "pitch": 65, "velocity": 98}, {"start": 259.6551075, "end": 259.99275109375003, "pitch": 63, "velocity": 97}, {"start": 259.999935, "end": 260.33757859375, "pitch": 65, "velocity": 100}, {"start": 260.3447625, "end": 260.7039578125, "pitch": 63, "velocity": 98}, {"start": 261.0344175, "end": 261.32895765625, "pitch": 65, "velocity": 95}, {"start": 261.379245, "end": 261.65941734375, "pitch": 65, "velocity": 98}, {"start": 261.72407250000003, "end": 261.96114140625, "pitch": 65, "velocity": 98}, {"start": 262.0689, "end": 262.7441871875, "pitch": 65, "velocity": 102}, {"start": 262.758555, "end": 262.96688828125, "pitch": 63, "velocity": 99}, {"start": 263.1033825, "end": 264.38930171875, "pitch": 63, "velocity": 103}, {"start": 264.4826925, "end": 264.6982096875, "pitch": 63, "velocity": 100}, {"start": 264.82752, "end": 265.50999109375, "pitch": 63, "velocity": 101}, {"start": 265.517175, "end": 265.80453125, "pitch": 61, "velocity": 99}, {"start": 265.8620025, "end": 267.1982090625, "pitch": 61, "velocity": 98}, {"start": 267.2413125, "end": 267.49274921875, "pitch": 65, "velocity": 100}, {"start": 267.58614, "end": 267.92378359375, "pitch": 65, "velocity": 96}, {"start": 267.9309675, "end": 268.26861109375, "pitch": 63, "velocity": 95}, {"start": 268.275795, "end": 268.61343859375, "pitch": 65, "velocity": 97}, {"start": 268.6206225, "end": 268.994185625, "pitch": 63, "velocity": 100}, {"start": 269.3102775, "end": 269.64792109375, "pitch": 68, "velocity": 101}, {"start": 269.655105, "end": 269.73412796875, "pitch": 65, "velocity": 104}, {"start": 269.82751875, "end": 269.90654171875, "pitch": 65, "velocity": 95}, {"start": 269.9999325, "end": 270.26573703125, "pitch": 65, "velocity": 102}, {"start": 270.34476, "end": 270.68240359375, "pitch": 65, "velocity": 101}, {"start": 270.6895875, "end": 271.02723109375, "pitch": 63, "velocity": 95}, {"start": 271.034415, "end": 271.37205859375, "pitch": 65, "velocity": 97}, {"start": 271.37924250000003, "end": 271.7384378125, "pitch": 63, "velocity": 100}, {"start": 272.0688975, "end": 272.36343765625, "pitch": 65, "velocity": 98}, {"start": 272.413725, "end": 272.69389734375, "pitch": 65, "velocity": 102}, {"start": 272.7585525, "end": 272.99562140625, "pitch": 65, "velocity": 95}, {"start": 273.10338, "end": 273.7786671875, "pitch": 65, "velocity": 97}, {"start": 273.79303500000003, "end": 274.00136828125, "pitch": 63, "velocity": 103}, {"start": 274.1378625, "end": 275.42378171875004, "pitch": 63, "velocity": 102}, {"start": 275.5171725, "end": 275.7326896875, "pitch": 63, "velocity": 104}, {"start": 275.862, "end": 276.54447109375, "pitch": 63, "velocity": 98}, {"start": 276.551655, "end": 276.83901125, "pitch": 61, "velocity": 101}, {"start": 276.8964825, "end": 281.25711359375003, "pitch": 61, "velocity": 100}]'),
(4546, '[{"start": 22.363654999999998, "end": 22.636382499999996, "pitch": 61, "velocity": 127}, {"start": 22.636382499999996, "end": 22.90911, "pitch": 61, "velocity": 127}, {"start": 22.90911, "end": 23.181837499999997, "pitch": 61, "velocity": 127}, {"start": 23.181837499999997, "end": 23.454565, "pitch": 61, "velocity": 127}, {"start": 23.454565, "end": 23.727292499999997, "pitch": 62, "velocity": 127}, {"start": 23.727292499999997, "end": 24.272747499999998, "pitch": 61, "velocity": 127}, {"start": 24.272747499999998, "end": 24.545474999999996, "pitch": 61, "velocity": 127}, {"start": 24.545474999999996, "end": 24.818202499999998, "pitch": 59, "velocity": 127}, {"start": 24.818202499999998, "end": 25.909112499999996, "pitch": 57, "velocity": 127}, {"start": 26.181839999999998, "end": 26.454567499999996, "pitch": 61, "velocity": 127}, {"start": 26.454567499999996, "end": 26.727294999999998, "pitch": 61, "velocity": 127}, {"start": 26.727294999999998, "end": 27.000022499999996, "pitch": 59, "velocity": 127}, {"start": 27.000022499999996, "end": 27.545477499999997, "pitch": 57, "velocity": 127}, {"start": 27.545477499999997, "end": 28.090932499999997, "pitch": 59, "velocity": 127}, {"start": 28.090932499999997, "end": 28.363659999999996, "pitch": 54, "velocity": 127}, {"start": 28.363659999999996, "end": 28.636387499999998, "pitch": 61, "velocity": 127}, {"start": 28.636387499999998, "end": 28.909114999999996, "pitch": 61, "velocity": 127}, {"start": 28.909114999999996, "end": 29.181842499999995, "pitch": 59, "velocity": 127}, {"start": 29.181842499999995, "end": 29.727297499999995, "pitch": 57, "velocity": 127}, {"start": 29.727297499999995, "end": 30.545479999999998, "pitch": 59, "velocity": 127}, {"start": 30.818207499999996, "end": 31.090934999999995, "pitch": 54, "velocity": 127}, {"start": 31.090934999999995, "end": 31.363662499999997, "pitch": 61, "velocity": 127}, {"start": 31.363662499999997, "end": 31.636389999999995, "pitch": 61, "velocity": 127}, {"start": 31.636389999999995, "end": 31.909117499999997, "pitch": 61, "velocity": 127}, {"start": 31.909117499999997, "end": 32.181844999999996, "pitch": 61, "velocity": 127}, {"start": 32.181844999999996, "end": 32.4545725, "pitch": 62, "velocity": 127}, {"start": 32.4545725, "end": 33.000027499999995, "pitch": 61, "velocity": 127}, {"start": 33.000027499999995, "end": 33.272755, "pitch": 61, "velocity": 127}, {"start": 33.272755, "end": 33.5454825, "pitch": 59, "velocity": 127}, {"start": 33.5454825, "end": 34.63639249999999, "pitch": 57, "velocity": 127}, {"start": 34.63639249999999, "end": 34.909119999999994, "pitch": 54, "velocity": 127}, {"start": 34.909119999999994, "end": 35.181847499999996, "pitch": 61, "velocity": 127}, {"start": 35.181847499999996, "end": 35.454575, "pitch": 61, "velocity": 127}, {"start": 35.454575, "end": 35.72730249999999, "pitch": 59, "velocity": 127}, {"start": 35.72730249999999, "end": 36.2727575, "pitch": 57, "velocity": 127}, {"start": 36.2727575, "end": 36.818212499999994, "pitch": 59, "velocity": 127}, {"start": 36.818212499999994, "end": 37.090939999999996, "pitch": 54, "velocity": 127}, {"start": 37.090939999999996, "end": 37.3636675, "pitch": 61, "velocity": 127}, {"start": 37.3636675, "end": 37.909122499999995, "pitch": 59, "velocity": 127}, {"start": 37.909122499999995, "end": 38.45457749999999, "pitch": 57, "velocity": 127}, {"start": 38.45457749999999, "end": 39.000032499999996, "pitch": 59, "velocity": 127}, {"start": 39.000032499999996, "end": 39.27276, "pitch": 59, "velocity": 127}, {"start": 39.27276, "end": 41.45457999999999, "pitch": 61, "velocity": 127}, {"start": 43.090945, "end": 43.36367249999999, "pitch": 61, "velocity": 127}, {"start": 43.36367249999999, "end": 43.636399999999995, "pitch": 61, "velocity": 127}, {"start": 43.636399999999995, "end": 43.9091275, "pitch": 66, "velocity": 127}, {"start": 43.9091275, "end": 44.18185499999999, "pitch": 66, "velocity": 127}, {"start": 44.18185499999999, "end": 44.454582499999994, "pitch": 64, "velocity": 127}, {"start": 44.454582499999994, "end": 45.0000375, "pitch": 61, "velocity": 127}, {"start": 45.0000375, "end": 45.27276499999999, "pitch": 61, "velocity": 127}, {"start": 45.27276499999999, "end": 45.545492499999995, "pitch": 61, "velocity": 127}, {"start": 45.545492499999995, "end": 46.09094749999999, "pitch": 66, "velocity": 127}, {"start": 46.09094749999999, "end": 46.36367499999999, "pitch": 66, "velocity": 127}, {"start": 46.36367499999999, "end": 46.636402499999996, "pitch": 64, "velocity": 127}, {"start": 46.636402499999996, "end": 47.18185749999999, "pitch": 61, "velocity": 127}, {"start": 47.18185749999999, "end": 47.7273125, "pitch": 62, "velocity": 127}, {"start": 47.7273125, "end": 50.18185999999999, "pitch": 64, "velocity": 127}, {"start": 52.363679999999995, "end": 53.181862499999994, "pitch": 66, "velocity": 127}, {"start": 53.181862499999994, "end": 53.454589999999996, "pitch": 66, "velocity": 127}, {"start": 53.454589999999996, "end": 54.00004499999999, "pitch": 66, "velocity": 127}, {"start": 54.00004499999999, "end": 54.272772499999995, "pitch": 64, "velocity": 127}, {"start": 54.272772499999995, "end": 54.54549999999999, "pitch": 66, "velocity": 127}, {"start": 54.54549999999999, "end": 55.090954999999994, "pitch": 66, "velocity": 127}, {"start": 55.090954999999994, "end": 55.363682499999996, "pitch": 66, "velocity": 127}, {"start": 55.363682499999996, "end": 55.63640999999999, "pitch": 66, "velocity": 127}, {"start": 55.63640999999999, "end": 56.181864999999995, "pitch": 66, "velocity": 127}, {"start": 56.181864999999995, "end": 56.72731999999999, "pitch": 68, "velocity": 127}, {"start": 56.72731999999999, "end": 57.54550249999999, "pitch": 64, "velocity": 127}, {"start": 57.54550249999999, "end": 57.81822999999999, "pitch": 66, "velocity": 127}, {"start": 57.81822999999999, "end": 58.36368499999999, "pitch": 66, "velocity": 127}, {"start": 58.36368499999999, "end": 58.63641249999999, "pitch": 64, "velocity": 127}, {"start": 58.63641249999999, "end": 58.909139999999994, "pitch": 66, "velocity": 127}, {"start": 58.909139999999994, "end": 59.181867499999996, "pitch": 66, "velocity": 127}, {"start": 59.181867499999996, "end": 59.45459499999999, "pitch": 66, "velocity": 127}, {"start": 59.45459499999999, "end": 59.72732249999999, "pitch": 66, "velocity": 127}, {"start": 59.72732249999999, "end": 60.000049999999995, "pitch": 66, "velocity": 127}, {"start": 60.000049999999995, "end": 60.54550499999999, "pitch": 66, "velocity": 127}, {"start": 60.54550499999999, "end": 61.090959999999995, "pitch": 64, "velocity": 127}, {"start": 61.090959999999995, "end": 61.63641499999999, "pitch": 66, "velocity": 127}, {"start": 61.63641499999999, "end": 61.909142499999994, "pitch": 66, "velocity": 127}, {"start": 61.909142499999994, "end": 62.18186999999999, "pitch": 66, "velocity": 127}, {"start": 62.18186999999999, "end": 62.72732499999999, "pitch": 66, "velocity": 127}, {"start": 62.72732499999999, "end": 63.27277999999999, "pitch": 64, "velocity": 127}, {"start": 63.27277999999999, "end": 63.818234999999994, "pitch": 66, "velocity": 127}, {"start": 63.818234999999994, "end": 64.09096249999999, "pitch": 66, "velocity": 127}, {"start": 64.09096249999999, "end": 64.36368999999999, "pitch": 66, "velocity": 127}, {"start": 64.36368999999999, "end": 64.909145, "pitch": 66, "velocity": 127}, {"start": 64.909145, "end": 65.45459999999999, "pitch": 68, "velocity": 127}, {"start": 65.45459999999999, "end": 66.00005499999999, "pitch": 64, "velocity": 127}, {"start": 66.00005499999999, "end": 66.27278249999999, "pitch": 66, "velocity": 127}, {"start": 66.27278249999999, "end": 66.54551, "pitch": 66, "velocity": 127}, {"start": 66.54551, "end": 67.090965, "pitch": 66, "velocity": 127}, {"start": 67.090965, "end": 67.63641999999999, "pitch": 64, "velocity": 127}, {"start": 67.63641999999999, "end": 68.18187499999999, "pitch": 66, "velocity": 127}, {"start": 68.18187499999999, "end": 68.4546025, "pitch": 66, "velocity": 127}, {"start": 68.4546025, "end": 68.72733, "pitch": 66, "velocity": 127}, {"start": 68.72733, "end": 69.27278499999998, "pitch": 66, "velocity": 127}, {"start": 69.27278499999998, "end": 69.81823999999999, "pitch": 64, "velocity": 127}, {"start": 69.81823999999999, "end": 70.36369499999999, "pitch": 66, "velocity": 127}, {"start": 70.36369499999999, "end": 70.6364225, "pitch": 66, "velocity": 127}, {"start": 70.6364225, "end": 70.90915, "pitch": 66, "velocity": 127}, {"start": 70.90915, "end": 71.18187749999998, "pitch": 66, "velocity": 127}, {"start": 71.18187749999998, "end": 71.45460499999999, "pitch": 66, "velocity": 127}, {"start": 71.45460499999999, "end": 71.72733249999999, "pitch": 64, "velocity": 127}, {"start": 71.72733249999999, "end": 72.27278749999999, "pitch": 66, "velocity": 127}, {"start": 72.27278749999999, "end": 72.545515, "pitch": 64, "velocity": 127}, {"start": 72.545515, "end": 72.8182425, "pitch": 64, "velocity": 127}, {"start": 72.8182425, "end": 73.90915249999999, "pitch": 64, "velocity": 127}, {"start": 74.18187999999999, "end": 74.4546075, "pitch": 66, "velocity": 127}, {"start": 74.4546075, "end": 74.727335, "pitch": 64, "velocity": 127}, {"start": 74.727335, "end": 75.00006249999998, "pitch": 64, "velocity": 127}, {"start": 75.00006249999998, "end": 75.54551749999999, "pitch": 64, "velocity": 127}, {"start": 75.54551749999999, "end": 76.09097249999999, "pitch": 61, "velocity": 127}, {"start": 76.09097249999999, "end": 76.3637, "pitch": 61, "velocity": 127}, {"start": 76.3637, "end": 76.6364275, "pitch": 62, "velocity": 127}, {"start": 76.6364275, "end": 77.18188249999999, "pitch": 61, "velocity": 127}, {"start": 77.18188249999999, "end": 77.72733749999999, "pitch": 59, "velocity": 127}, {"start": 77.72733749999999, "end": 78.2727925, "pitch": 61, "velocity": 127}, {"start": 78.2727925, "end": 78.81824749999998, "pitch": 61, "velocity": 127}, {"start": 78.81824749999998, "end": 79.09097499999999, "pitch": 54, "velocity": 127}, {"start": 79.09097499999999, "end": 79.36370249999999, "pitch": 61, "velocity": 127}, {"start": 79.36370249999999, "end": 79.63642999999999, "pitch": 61, "velocity": 127}, {"start": 79.63642999999999, "end": 79.90915749999999, "pitch": 61, "velocity": 127}, {"start": 79.90915749999999, "end": 80.181885, "pitch": 61, "velocity": 127}, {"start": 80.181885, "end": 80.4546125, "pitch": 62, "velocity": 127}, {"start": 80.4546125, "end": 81.00006749999999, "pitch": 61, "velocity": 127}, {"start": 81.00006749999999, "end": 81.27279499999999, "pitch": 61, "velocity": 127}, {"start": 81.27279499999999, "end": 81.54552249999999, "pitch": 59, "velocity": 127}, {"start": 81.54552249999999, "end": 82.63643249999998, "pitch": 57, "velocity": 127}, {"start": 82.63643249999998, "end": 82.90915999999999, "pitch": 54, "velocity": 127}, {"start": 82.90915999999999, "end": 83.18188749999999, "pitch": 61, "velocity": 127}, {"start": 83.18188749999999, "end": 83.45461499999999, "pitch": 61, "velocity": 127}, {"start": 83.45461499999999, "end": 83.72734249999999, "pitch": 59, "velocity": 127}, {"start": 83.72734249999999, "end": 84.81825249999999, "pitch": 57, "velocity": 127}, {"start": 84.81825249999999, "end": 85.36370749999999, "pitch": 61, "velocity": 127}, {"start": 85.36370749999999, "end": 85.9091625, "pitch": 59, "velocity": 127}, {"start": 85.9091625, "end": 86.45461749999998, "pitch": 57, "velocity": 127}, {"start": 86.45461749999998, "end": 87.00007249999999, "pitch": 59, "velocity": 127}, {"start": 87.00007249999999, "end": 87.27279999999999, "pitch": 59, "velocity": 127}, {"start": 87.27279999999999, "end": 89.45461999999999, "pitch": 61, "velocity": 127}, {"start": 91.09098499999999, "end": 91.36371249999999, "pitch": 61, "velocity": 127}, {"start": 91.36371249999999, "end": 91.63644, "pitch": 61, "velocity": 127}, {"start": 91.63644, "end": 91.9091675, "pitch": 66, "velocity": 127}, {"start": 91.9091675, "end": 92.18189499999998, "pitch": 66, "velocity": 127}, {"start": 92.18189499999998, "end": 92.45462249999999, "pitch": 64, "velocity": 127}, {"start": 92.45462249999999, "end": 93.00007749999999, "pitch": 61, "velocity": 127}, {"start": 93.00007749999999, "end": 93.27280499999999, "pitch": 61, "velocity": 127}, {"start": 93.27280499999999, "end": 93.5455325, "pitch": 61, "velocity": 127}, {"start": 93.5455325, "end": 94.09098749999998, "pitch": 66, "velocity": 127}, {"start": 94.09098749999998, "end": 94.36371499999998, "pitch": 66, "velocity": 127}, {"start": 94.36371499999998, "end": 94.63644249999999, "pitch": 64, "velocity": 127}, {"start": 94.63644249999999, "end": 95.18189749999999, "pitch": 61, "velocity": 127}, {"start": 95.18189749999999, "end": 95.7273525, "pitch": 62, "velocity": 127}, {"start": 95.7273525, "end": 98.18189999999998, "pitch": 64, "velocity": 127}, {"start": 99.5455375, "end": 99.81826499999998, "pitch": 61, "velocity": 127}, {"start": 99.81826499999998, "end": 100.09099249999998, "pitch": 61, "velocity": 127}, {"start": 100.09099249999998, "end": 100.36371999999999, "pitch": 61, "velocity": 127}, {"start": 100.36371999999999, "end": 100.63644749999999, "pitch": 66, "velocity": 127}, {"start": 100.63644749999999, "end": 100.90917499999999, "pitch": 66, "velocity": 127}, {"start": 100.90917499999999, "end": 101.18190249999999, "pitch": 64, "velocity": 127}, {"start": 101.18190249999999, "end": 101.72735749999998, "pitch": 61, "velocity": 127}, {"start": 101.72735749999998, "end": 102.00008499999998, "pitch": 61, "velocity": 127}, {"start": 102.00008499999998, "end": 102.27281249999999, "pitch": 61, "velocity": 127}, {"start": 102.27281249999999, "end": 102.54553999999999, "pitch": 61, "velocity": 127}, {"start": 102.54553999999999, "end": 102.81826749999999, "pitch": 69, "velocity": 127}, {"start": 102.81826749999999, "end": 103.3637225, "pitch": 68, "velocity": 127}, {"start": 103.3637225, "end": 104.18190499999999, "pitch": 69, "velocity": 127}, {"start": 104.18190499999999, "end": 104.72735999999999, "pitch": 68, "velocity": 127}, {"start": 104.72735999999999, "end": 105.54554249999998, "pitch": 66, "velocity": 127}, {"start": 105.54554249999998, "end": 105.81826999999998, "pitch": 66, "velocity": 127}, {"start": 105.81826999999998, "end": 106.36372499999999, "pitch": 66, "velocity": 127}, {"start": 106.36372499999999, "end": 106.63645249999999, "pitch": 64, "velocity": 127}, {"start": 106.63645249999999, "end": 106.90917999999999, "pitch": 66, "velocity": 127}, {"start": 106.90917999999999, "end": 107.45463499999998, "pitch": 66, "velocity": 127}, {"start": 107.45463499999998, "end": 107.72736249999998, "pitch": 66, "velocity": 127}, {"start": 107.72736249999998, "end": 108.00008999999999, "pitch": 66, "velocity": 127}, {"start": 108.00008999999999, "end": 108.54554499999999, "pitch": 66, "velocity": 127}, {"start": 108.54554499999999, "end": 109.09099999999998, "pitch": 68, "velocity": 127}, {"start": 109.09099999999998, "end": 109.90918249999999, "pitch": 64, "velocity": 127}, {"start": 109.90918249999999, "end": 110.18190999999999, "pitch": 66, "velocity": 127}, {"start": 110.18190999999999, "end": 110.72736499999999, "pitch": 66, "velocity": 127}, {"start": 110.72736499999999, "end": 111.00009249999998, "pitch": 64, "velocity": 127}, {"start": 111.00009249999998, "end": 111.27281999999998, "pitch": 66, "velocity": 127}, {"start": 111.27281999999998, "end": 111.54554749999998, "pitch": 66, "velocity": 127}, {"start": 111.54554749999998, "end": 111.81827499999999, "pitch": 66, "velocity": 127}, {"start": 111.81827499999999, "end": 112.09100249999999, "pitch": 66, "velocity": 127}, {"start": 112.09100249999999, "end": 112.36372999999999, "pitch": 66, "velocity": 127}, {"start": 112.36372999999999, "end": 112.90918499999998, "pitch": 66, "velocity": 127}, {"start": 112.90918499999998, "end": 113.45463999999998, "pitch": 64, "velocity": 127}, {"start": 113.45463999999998, "end": 114.00009499999999, "pitch": 66, "velocity": 127}, {"start": 114.00009499999999, "end": 114.27282249999999, "pitch": 66, "velocity": 127}, {"start": 114.27282249999999, "end": 114.54554999999999, "pitch": 66, "velocity": 127}, {"start": 114.54554999999999, "end": 115.09100499999998, "pitch": 66, "velocity": 127}, {"start": 115.09100499999998, "end": 115.63645999999999, "pitch": 64, "velocity": 127}, {"start": 115.63645999999999, "end": 116.18191499999999, "pitch": 66, "velocity": 127}, {"start": 116.18191499999999, "end": 116.45464249999999, "pitch": 66, "velocity": 127}, {"start": 116.45464249999999, "end": 116.72736999999998, "pitch": 66, "velocity": 127}, {"start": 116.72736999999998, "end": 117.27282499999998, "pitch": 66, "velocity": 127}, {"start": 117.27282499999998, "end": 117.81827999999999, "pitch": 68, "velocity": 127}, {"start": 117.81827999999999, "end": 118.36373499999999, "pitch": 64, "velocity": 127}, {"start": 118.36373499999999, "end": 118.63646249999998, "pitch": 66, "velocity": 127}, {"start": 118.63646249999998, "end": 118.90918999999998, "pitch": 66, "velocity": 127}, {"start": 118.90918999999998, "end": 119.45464499999999, "pitch": 66, "velocity": 127}, {"start": 119.45464499999999, "end": 120.00009999999999, "pitch": 64, "velocity": 127}, {"start": 120.00009999999999, "end": 120.54555499999998, "pitch": 66, "velocity": 127}, {"start": 120.54555499999998, "end": 120.81828249999998, "pitch": 66, "velocity": 127}, {"start": 120.81828249999998, "end": 121.09100999999998, "pitch": 66, "velocity": 127}, {"start": 121.09100999999998, "end": 121.63646499999999, "pitch": 66, "velocity": 127}, {"start": 121.63646499999999, "end": 122.18191999999999, "pitch": 64, "velocity": 127}, {"start": 122.18191999999999, "end": 123.27282999999998, "pitch": 66, "velocity": 127}, {"start": 123.54555749999999, "end": 123.81828499999999, "pitch": 66, "velocity": 127}, {"start": 123.81828499999999, "end": 124.09101249999999, "pitch": 69, "velocity": 127}, {"start": 124.09101249999999, "end": 125.72737749999999, "pitch": 68, "velocity": 127}, {"start": 125.72737749999999, "end": 126.00010499999999, "pitch": 66, "velocity": 127}, {"start": 126.00010499999999, "end": 126.54555999999998, "pitch": 68, "velocity": 127}, {"start": 126.54555999999998, "end": 127.63646999999999, "pitch": 69, "velocity": 127}, {"start": 127.63646999999999, "end": 128.72737999999998, "pitch": 68, "velocity": 127}, {"start": 128.72737999999998, "end": 129.81829, "pitch": 69, "velocity": 127}, {"start": 129.81829, "end": 130.90919999999997, "pitch": 68, "velocity": 127}, {"start": 130.90919999999997, "end": 132.00010999999998, "pitch": 66, "velocity": 127}, {"start": 132.27283749999998, "end": 132.54556499999998, "pitch": 66, "velocity": 127}, {"start": 132.54556499999998, "end": 132.81829249999998, "pitch": 69, "velocity": 127}, {"start": 132.81829249999998, "end": 134.4546575, "pitch": 68, "velocity": 127}, {"start": 134.72738499999997, "end": 135.00011249999997, "pitch": 68, "velocity": 127}, {"start": 135.00011249999997, "end": 135.27283999999997, "pitch": 66, "velocity": 127}, {"start": 135.27283999999997, "end": 135.54556749999998, "pitch": 68, "velocity": 127}, {"start": 135.54556749999998, "end": 136.09102249999998, "pitch": 68, "velocity": 127}, {"start": 136.09102249999998, "end": 136.63647749999998, "pitch": 68, "velocity": 127}, {"start": 136.63647749999998, "end": 136.909205, "pitch": 66, "velocity": 127}, {"start": 136.909205, "end": 137.1819325, "pitch": 68, "velocity": 127}, {"start": 137.1819325, "end": 137.45466, "pitch": 66, "velocity": 127}, {"start": 137.45466, "end": 137.7273875, "pitch": 68, "velocity": 127}, {"start": 137.7273875, "end": 138.2728425, "pitch": 68, "velocity": 127}, {"start": 138.2728425, "end": 138.81829749999997, "pitch": 68, "velocity": 127}, {"start": 138.81829749999997, "end": 139.09102499999997, "pitch": 66, "velocity": 127}, {"start": 139.09102499999997, "end": 139.36375249999998, "pitch": 69, "velocity": 127}, {"start": 139.36375249999998, "end": 141.8183, "pitch": 68, "velocity": 127}, {"start": 141.8183, "end": 142.63648249999997, "pitch": 66, "velocity": 127}, {"start": 142.63648249999997, "end": 142.90920999999997, "pitch": 66, "velocity": 127}, {"start": 142.90920999999997, "end": 143.45466499999998, "pitch": 66, "velocity": 127}, {"start": 143.45466499999998, "end": 143.72739249999998, "pitch": 64, "velocity": 127}, {"start": 143.72739249999998, "end": 144.00011999999998, "pitch": 66, "velocity": 127}, {"start": 144.00011999999998, "end": 144.54557499999999, "pitch": 66, "velocity": 127}, {"start": 144.54557499999999, "end": 144.8183025, "pitch": 66, "velocity": 127}, {"start": 144.8183025, "end": 145.09103, "pitch": 66, "velocity": 127}, {"start": 145.09103, "end": 145.636485, "pitch": 66, "velocity": 127}, {"start": 145.636485, "end": 146.18193999999997, "pitch": 68, "velocity": 127}, {"start": 146.18193999999997, "end": 147.00012249999997, "pitch": 64, "velocity": 127}, {"start": 147.00012249999997, "end": 147.27284999999998, "pitch": 66, "velocity": 127}, {"start": 147.27284999999998, "end": 147.81830499999998, "pitch": 66, "velocity": 127}, {"start": 147.81830499999998, "end": 148.09103249999998, "pitch": 64, "velocity": 127}, {"start": 148.09103249999998, "end": 148.36375999999998, "pitch": 66, "velocity": 127}, {"start": 148.36375999999998, "end": 148.6364875, "pitch": 66, "velocity": 127}, {"start": 148.6364875, "end": 148.909215, "pitch": 66, "velocity": 127}, {"start": 148.909215, "end": 149.1819425, "pitch": 66, "velocity": 127}, {"start": 149.1819425, "end": 149.45467, "pitch": 66, "velocity": 127}, {"start": 149.45467, "end": 150.00012499999997, "pitch": 66, "velocity": 127}, {"start": 150.00012499999997, "end": 150.54557999999997, "pitch": 64, "velocity": 127}, {"start": 150.54557999999997, "end": 151.09103499999998, "pitch": 66, "velocity": 127}, {"start": 151.09103499999998, "end": 151.36376249999998, "pitch": 66, "velocity": 127}, {"start": 151.36376249999998, "end": 151.63648999999998, "pitch": 66, "velocity": 127}, {"start": 151.63648999999998, "end": 152.18194499999998, "pitch": 66, "velocity": 127}, {"start": 152.18194499999998, "end": 152.7274, "pitch": 64, "velocity": 127}, {"start": 152.7274, "end": 153.272855, "pitch": 66, "velocity": 127}, {"start": 153.272855, "end": 153.5455825, "pitch": 66, "velocity": 127}, {"start": 153.5455825, "end": 153.81830999999997, "pitch": 66, "velocity": 127}, {"start": 153.81830999999997, "end": 154.36376499999997, "pitch": 66, "velocity": 127}, {"start": 154.36376499999997, "end": 154.90921999999998, "pitch": 68, "velocity": 127}, {"start": 154.90921999999998, "end": 155.45467499999998, "pitch": 64, "velocity": 127}, {"start": 155.45467499999998, "end": 155.72740249999998, "pitch": 66, "velocity": 127}, {"start": 155.72740249999998, "end": 156.00012999999998, "pitch": 66, "velocity": 127}, {"start": 156.00012999999998, "end": 156.545585, "pitch": 66, "velocity": 127}, {"start": 156.545585, "end": 157.09104, "pitch": 64, "velocity": 127}, {"start": 157.09104, "end": 157.63649499999997, "pitch": 66, "velocity": 127}, {"start": 157.63649499999997, "end": 157.90922249999997, "pitch": 66, "velocity": 127}, {"start": 157.90922249999997, "end": 158.18194999999997, "pitch": 66, "velocity": 127}, {"start": 158.18194999999997, "end": 158.72740499999998, "pitch": 66, "velocity": 127}, {"start": 158.72740499999998, "end": 159.27285999999998, "pitch": 64, "velocity": 127}, {"start": 159.27285999999998, "end": 160.0910425, "pitch": 66, "velocity": 127}, {"start": 160.0910425, "end": 160.36377, "pitch": 66, "velocity": 127}, {"start": 160.36377, "end": 160.909225, "pitch": 66, "velocity": 127}, {"start": 160.909225, "end": 161.1819525, "pitch": 64, "velocity": 127}, {"start": 161.1819525, "end": 161.45467999999997, "pitch": 66, "velocity": 127}, {"start": 161.45467999999997, "end": 162.00013499999997, "pitch": 66, "velocity": 127}, {"start": 162.00013499999997, "end": 162.27286249999997, "pitch": 66, "velocity": 127}, {"start": 162.27286249999997, "end": 162.54558999999998, "pitch": 66, "velocity": 127}, {"start": 162.54558999999998, "end": 163.09104499999998, "pitch": 66, "velocity": 127}, {"start": 163.09104499999998, "end": 163.63649999999998, "pitch": 68, "velocity": 127}, {"start": 164.181955, "end": 164.4546825, "pitch": 61, "velocity": 127}, {"start": 164.4546825, "end": 164.72741, "pitch": 61, "velocity": 127}, {"start": 164.72741, "end": 165.0001375, "pitch": 61, "velocity": 127}, {"start": 165.0001375, "end": 165.27286499999997, "pitch": 61, "velocity": 127}, {"start": 165.27286499999997, "end": 165.54559249999997, "pitch": 62, "velocity": 127}, {"start": 163.63649999999998, "end": 165.81831999999997, "pitch": 64, "velocity": 127}, {"start": 165.54559249999997, "end": 166.09104749999997, "pitch": 61, "velocity": 127}, {"start": 166.09104749999997, "end": 166.36377499999998, "pitch": 61, "velocity": 127}, {"start": 166.36377499999998, "end": 166.63650249999998, "pitch": 59, "velocity": 127}, {"start": 166.63650249999998, "end": 167.72741249999999, "pitch": 57, "velocity": 127}, {"start": 168.00014, "end": 168.81832249999997, "pitch": 66, "velocity": 127}, {"start": 168.81832249999997, "end": 169.09104999999997, "pitch": 66, "velocity": 127}, {"start": 169.09104999999997, "end": 169.63650499999997, "pitch": 66, "velocity": 127}, {"start": 169.63650499999997, "end": 169.90923249999997, "pitch": 64, "velocity": 127}, {"start": 169.90923249999997, "end": 170.18195999999998, "pitch": 66, "velocity": 127}, {"start": 170.18195999999998, "end": 170.72741499999998, "pitch": 66, "velocity": 127}, {"start": 170.72741499999998, "end": 171.00014249999998, "pitch": 66, "velocity": 127}, {"start": 171.00014249999998, "end": 171.27286999999998, "pitch": 66, "velocity": 127}, {"start": 171.27286999999998, "end": 171.818325, "pitch": 66, "velocity": 127}, {"start": 171.818325, "end": 172.36378, "pitch": 68, "velocity": 127}, {"start": 172.90923499999997, "end": 173.18196249999997, "pitch": 61, "velocity": 127}, {"start": 173.18196249999997, "end": 173.45468999999997, "pitch": 61, "velocity": 127}, {"start": 173.45468999999997, "end": 173.72741749999997, "pitch": 61, "velocity": 127}, {"start": 173.72741749999997, "end": 174.00014499999997, "pitch": 61, "velocity": 127}, {"start": 174.00014499999997, "end": 174.27287249999998, "pitch": 62, "velocity": 127}, {"start": 172.36378, "end": 174.54559999999998, "pitch": 64, "velocity": 127}, {"start": 174.27287249999998, "end": 174.81832749999998, "pitch": 61, "velocity": 127}, {"start": 174.81832749999998, "end": 175.09105499999998, "pitch": 61, "velocity": 127}, {"start": 175.09105499999998, "end": 175.36378249999999, "pitch": 59, "velocity": 127}, {"start": 175.36378249999999, "end": 176.45469249999996, "pitch": 57, "velocity": 127}]'),
(2079, '[{"start": 1.44144, "end": 1.62162, "pitch": 56, "velocity": 100}, {"start": 1.62162, "end": 1.8018, "pitch": 57, "velocity": 100}, {"start": 1.98198, "end": 2.16216, "pitch": 58, "velocity": 100}, {"start": 2.16216, "end": 5.58558, "pitch": 59, "velocity": 100}, {"start": 5.76576, "end": 5.94594, "pitch": 56, "velocity": 100}, {"start": 5.94594, "end": 6.12612, "pitch": 57, "velocity": 100}, {"start": 6.3063, "end": 6.48648, "pitch": 58, "velocity": 100}, {"start": 6.48648, "end": 9.9099, "pitch": 59, "velocity": 100}, {"start": 10.09008, "end": 10.27026, "pitch": 58, "velocity": 100}, {"start": 10.27026, "end": 10.45044, "pitch": 57, "velocity": 100}, {"start": 10.63062, "end": 10.8108, "pitch": 56, "velocity": 100}, {"start": 10.8108, "end": 14.23422, "pitch": 55, "velocity": 100}, {"start": 14.4144, "end": 14.59458, "pitch": 56, "velocity": 100}, {"start": 14.59458, "end": 14.77476, "pitch": 57, "velocity": 100}, {"start": 14.95494, "end": 15.13512, "pitch": 58, "velocity": 100}, {"start": 15.13512, "end": 18.55854, "pitch": 59, "velocity": 100}, {"start": 19.27926, "end": 19.45944, "pitch": 51, "velocity": 115}, {"start": 19.45944, "end": 19.63962, "pitch": 52, "velocity": 115}, {"start": 20.36034, "end": 20.54052, "pitch": 54, "velocity": 115}, {"start": 20.54052, "end": 20.7207, "pitch": 55, "velocity": 115}, {"start": 21.44142, "end": 21.6216, "pitch": 51, "velocity": 115}, {"start": 21.6216, "end": 21.80178, "pitch": 52, "velocity": 115}, {"start": 21.98196, "end": 22.16214, "pitch": 54, "velocity": 115}, {"start": 22.16214, "end": 22.34232, "pitch": 55, "velocity": 115}, {"start": 22.5225, "end": 22.70268, "pitch": 60, "velocity": 115}, {"start": 22.70268, "end": 22.88286, "pitch": 59, "velocity": 115}, {"start": 23.06304, "end": 23.24322, "pitch": 52, "velocity": 115}, {"start": 23.24322, "end": 23.4234, "pitch": 55, "velocity": 115}, {"start": 23.60358, "end": 23.78376, "pitch": 59, "velocity": 115}, {"start": 23.78376, "end": 25.04502, "pitch": 58, "velocity": 115}, {"start": 25.04502, "end": 25.2252, "pitch": 57, "velocity": 115}, {"start": 25.2252, "end": 25.40538, "pitch": 55, "velocity": 115}, {"start": 25.40538, "end": 25.58556, "pitch": 52, "velocity": 115}, {"start": 25.58556, "end": 25.76574, "pitch": 50, "velocity": 115}, {"start": 25.76574, "end": 27.56754, "pitch": 52, "velocity": 115}, {"start": 27.9279, "end": 28.10808, "pitch": 51, "velocity": 115}, {"start": 28.10808, "end": 28.28826, "pitch": 52, "velocity": 115}, {"start": 29.00898, "end": 29.18916, "pitch": 54, "velocity": 115}, {"start": 29.18916, "end": 29.36934, "pitch": 55, "velocity": 115}, {"start": 30.09006, "end": 30.27024, "pitch": 51, "velocity": 115}, {"start": 30.27024, "end": 30.45042, "pitch": 52, "velocity": 115}, {"start": 30.6306, "end": 30.81078, "pitch": 54, "velocity": 115}, {"start": 30.81078, "end": 30.99096, "pitch": 55, "velocity": 115}, {"start": 31.17114, "end": 31.35132, "pitch": 60, "velocity": 115}, {"start": 31.35132, "end": 31.5315, "pitch": 59, "velocity": 115}, {"start": 31.71168, "end": 31.89186, "pitch": 55, "velocity": 115}, {"start": 31.89186, "end": 32.07204, "pitch": 59, "velocity": 115}, {"start": 32.25222, "end": 32.4324, "pitch": 64, "velocity": 115}, {"start": 32.4324, "end": 36.21618, "pitch": 63, "velocity": 115}, {"start": 36.57654, "end": 36.75672, "pitch": 51, "velocity": 115}, {"start": 36.75672, "end": 36.9369, "pitch": 52, "velocity": 115}, {"start": 37.65762, "end": 37.8378, "pitch": 54, "velocity": 115}, {"start": 37.8378, "end": 38.01798, "pitch": 55, "velocity": 115}, {"start": 38.7387, "end": 38.91888, "pitch": 51, "velocity": 115}, {"start": 38.91888, "end": 39.09906, "pitch": 52, "velocity": 115}, {"start": 39.27924, "end": 39.45942, "pitch": 54, "velocity": 115}, {"start": 39.45942, "end": 39.6396, "pitch": 55, "velocity": 115}, {"start": 39.81978, "end": 39.99996, "pitch": 60, "velocity": 115}, {"start": 39.99996, "end": 40.18014, "pitch": 59, "velocity": 115}, {"start": 40.36032, "end": 40.5405, "pitch": 52, "velocity": 115}, {"start": 40.5405, "end": 40.72068, "pitch": 55, "velocity": 115}, {"start": 40.90086, "end": 41.08104, "pitch": 59, "velocity": 115}, {"start": 41.08104, "end": 42.3423, "pitch": 58, "velocity": 115}, {"start": 42.3423, "end": 42.52248, "pitch": 57, "velocity": 115}, {"start": 42.52248, "end": 42.70266, "pitch": 55, "velocity": 115}, {"start": 42.70266, "end": 42.88284, "pitch": 52, "velocity": 115}, {"start": 42.88284, "end": 43.06302, "pitch": 50, "velocity": 115}, {"start": 43.06302, "end": 44.86482, "pitch": 52, "velocity": 115}, {"start": 45.9459, "end": 46.30626, "pitch": 64, "velocity": 115}, {"start": 46.30626, "end": 46.48644, "pitch": 62, "velocity": 115}, {"start": 46.48644, "end": 46.8468, "pitch": 59, "velocity": 115}, {"start": 46.8468, "end": 47.02698, "pitch": 57, "velocity": 115}, {"start": 47.02698, "end": 47.38734, "pitch": 55, "velocity": 115}, {"start": 47.38734, "end": 47.56752, "pitch": 52, "velocity": 115}, {"start": 47.56752, "end": 47.657610000000005, "pitch": 58, "velocity": 115}, {"start": 47.657610000000005, "end": 48.10806, "pitch": 57, "velocity": 115}, {"start": 48.10806, "end": 48.19815, "pitch": 58, "velocity": 115}, {"start": 48.19815, "end": 48.6486, "pitch": 57, "velocity": 115}, {"start": 48.6486, "end": 48.738690000000005, "pitch": 58, "velocity": 115}, {"start": 48.738690000000005, "end": 49.18914, "pitch": 57, "velocity": 115}, {"start": 49.18914, "end": 49.27923, "pitch": 58, "velocity": 115}, {"start": 49.27923, "end": 49.72968, "pitch": 57, "velocity": 115}, {"start": 49.72968, "end": 49.90986, "pitch": 55, "velocity": 115}, {"start": 49.90986, "end": 50.09004, "pitch": 52, "velocity": 115}, {"start": 50.09004, "end": 50.27022, "pitch": 50, "velocity": 115}, {"start": 50.27022, "end": 50.63058, "pitch": 52, "velocity": 115}, {"start": 50.63058, "end": 54.054, "pitch": 52, "velocity": 115}, {"start": 54.054, "end": 54.23418, "pitch": 55, "velocity": 115}, {"start": 54.23418, "end": 54.41436, "pitch": 52, "velocity": 115}, {"start": 54.41436, "end": 54.59454, "pitch": 50, "velocity": 115}, {"start": 54.59454, "end": 54.9549, "pitch": 52, "velocity": 115}, {"start": 54.9549, "end": 58.37832, "pitch": 52, "velocity": 115}, {"start": 58.37832, "end": 58.5585, "pitch": 55, "velocity": 115}, {"start": 58.5585, "end": 58.73868, "pitch": 52, "velocity": 115}, {"start": 58.73868, "end": 58.91886, "pitch": 50, "velocity": 115}, {"start": 58.91886, "end": 59.27922, "pitch": 52, "velocity": 115}, {"start": 59.27922, "end": 62.1621, "pitch": 52, "velocity": 115}, {"start": 62.52246, "end": 62.70264, "pitch": 63, "velocity": 115}, {"start": 62.70264, "end": 62.88282, "pitch": 64, "velocity": 115}, {"start": 63.60354, "end": 63.78372, "pitch": 66, "velocity": 115}, {"start": 63.78372, "end": 63.9639, "pitch": 67, "velocity": 115}, {"start": 64.68462, "end": 64.8648, "pitch": 63, "velocity": 115}, {"start": 64.8648, "end": 65.04498000000001, "pitch": 64, "velocity": 115}, {"start": 65.22516, "end": 65.40534, "pitch": 66, "velocity": 115}, {"start": 65.40534, "end": 65.58552, "pitch": 67, "velocity": 115}, {"start": 65.76570000000001, "end": 65.94588, "pitch": 72, "velocity": 115}, {"start": 65.94588, "end": 66.12606, "pitch": 71, "velocity": 115}, {"start": 66.30624, "end": 66.48642000000001, "pitch": 64, "velocity": 115}, {"start": 66.48642000000001, "end": 66.6666, "pitch": 67, "velocity": 115}, {"start": 66.84678, "end": 67.02696, "pitch": 71, "velocity": 115}, {"start": 67.02696, "end": 68.28822, "pitch": 70, "velocity": 115}, {"start": 68.28822, "end": 68.4684, "pitch": 69, "velocity": 115}, {"start": 68.4684, "end": 68.64858000000001, "pitch": 67, "velocity": 115}, {"start": 68.64858000000001, "end": 68.82876, "pitch": 64, "velocity": 115}, {"start": 68.82876, "end": 69.00894, "pitch": 62, "velocity": 115}, {"start": 69.00894, "end": 70.81074000000001, "pitch": 64, "velocity": 115}, {"start": 71.1711, "end": 71.35128, "pitch": 63, "velocity": 115}, {"start": 71.35128, "end": 71.53146000000001, "pitch": 64, "velocity": 115}, {"start": 72.25218000000001, "end": 72.43236, "pitch": 66, "velocity": 115}, {"start": 72.43236, "end": 72.61254, "pitch": 67, "velocity": 115}, {"start": 73.33326, "end": 73.51344, "pitch": 63, "velocity": 115}, {"start": 73.51344, "end": 73.69362000000001, "pitch": 64, "velocity": 115}, {"start": 73.8738, "end": 74.05398, "pitch": 66, "velocity": 115}, {"start": 74.05398, "end": 74.23416, "pitch": 67, "velocity": 115}, {"start": 74.41434000000001, "end": 74.59452, "pitch": 72, "velocity": 115}, {"start": 74.59452, "end": 74.7747, "pitch": 71, "velocity": 115}, {"start": 74.95488, "end": 75.13506000000001, "pitch": 67, "velocity": 115}, {"start": 75.13506000000001, "end": 75.31524, "pitch": 71, "velocity": 115}, {"start": 75.49542, "end": 75.6756, "pitch": 76, "velocity": 115}, {"start": 75.6756, "end": 79.45938000000001, "pitch": 75, "velocity": 115}, {"start": 79.81974, "end": 79.99992, "pitch": 63, "velocity": 115}, {"start": 79.99992, "end": 80.18010000000001, "pitch": 64, "velocity": 115}, {"start": 80.90082000000001, "end": 81.081, "pitch": 66, "velocity": 115}, {"start": 81.081, "end": 81.26118, "pitch": 67, "velocity": 115}, {"start": 81.9819, "end": 82.16208, "pitch": 63, "velocity": 115}, {"start": 82.16208, "end": 82.34226000000001, "pitch": 64, "velocity": 115}, {"start": 82.52244, "end": 82.70262, "pitch": 66, "velocity": 115}, {"start": 82.70262, "end": 82.8828, "pitch": 67, "velocity": 115}, {"start": 83.06298000000001, "end": 83.24316, "pitch": 72, "velocity": 115}, {"start": 83.24316, "end": 83.42334, "pitch": 71, "velocity": 115}, {"start": 83.60352, "end": 83.78370000000001, "pitch": 64, "velocity": 115}, {"start": 83.78370000000001, "end": 83.96388, "pitch": 67, "velocity": 115}, {"start": 84.14406, "end": 84.32424, "pitch": 71, "velocity": 115}, {"start": 84.32424, "end": 85.5855, "pitch": 70, "velocity": 115}, {"start": 85.5855, "end": 85.76568, "pitch": 69, "velocity": 115}, {"start": 85.76568, "end": 85.94586000000001, "pitch": 67, "velocity": 115}, {"start": 85.94586000000001, "end": 86.12604, "pitch": 64, "velocity": 115}, {"start": 86.12604, "end": 86.30622, "pitch": 62, "velocity": 115}, {"start": 86.30622, "end": 88.10802000000001, "pitch": 64, "velocity": 115}, {"start": 89.1891, "end": 89.54946000000001, "pitch": 64, "velocity": 115}, {"start": 89.54946000000001, "end": 89.72964, "pitch": 62, "velocity": 115}, {"start": 89.72964, "end": 90.09, "pitch": 59, "velocity": 115}, {"start": 90.09, "end": 90.27018000000001, "pitch": 57, "velocity": 115}, {"start": 90.27018000000001, "end": 90.63054, "pitch": 55, "velocity": 115}, {"start": 90.63054, "end": 90.81072, "pitch": 52, "velocity": 115}, {"start": 90.81072, "end": 90.90081, "pitch": 58, "velocity": 115}, {"start": 90.90081, "end": 91.35126, "pitch": 57, "velocity": 115}, {"start": 91.35126, "end": 91.44135, "pitch": 58, "velocity": 115}, {"start": 91.44135, "end": 91.8918, "pitch": 57, "velocity": 115}, {"start": 91.8918, "end": 91.98189, "pitch": 58, "velocity": 115}, {"start": 91.98189, "end": 92.43234000000001, "pitch": 57, "velocity": 115}, {"start": 92.43234000000001, "end": 92.52243, "pitch": 58, "velocity": 115}, {"start": 92.52243, "end": 92.97288, "pitch": 57, "velocity": 115}, {"start": 92.97288, "end": 93.15306000000001, "pitch": 55, "velocity": 115}, {"start": 93.15306000000001, "end": 93.33324, "pitch": 52, "velocity": 115}, {"start": 93.33324, "end": 93.51342, "pitch": 50, "velocity": 115}, {"start": 93.51342, "end": 93.87378000000001, "pitch": 52, "velocity": 115}, {"start": 93.87378000000001, "end": 97.2972, "pitch": 52, "velocity": 115}, {"start": 97.2972, "end": 97.47738000000001, "pitch": 55, "velocity": 115}, {"start": 97.47738000000001, "end": 97.65756, "pitch": 52, "velocity": 115}, {"start": 97.65756, "end": 97.83774, "pitch": 50, "velocity": 115}, {"start": 97.83774, "end": 98.19810000000001, "pitch": 52, "velocity": 115}, {"start": 98.19810000000001, "end": 101.62152, "pitch": 52, "velocity": 115}, {"start": 101.62152, "end": 101.80170000000001, "pitch": 55, "velocity": 115}, {"start": 101.80170000000001, "end": 101.98188, "pitch": 52, "velocity": 115}, {"start": 101.98188, "end": 102.16206, "pitch": 50, "velocity": 115}, {"start": 102.16206, "end": 102.52242000000001, "pitch": 52, "velocity": 115}, {"start": 102.52242000000001, "end": 105.40530000000001, "pitch": 52, "velocity": 115}, {"start": 105.76566, "end": 105.94584, "pitch": 51, "velocity": 115}, {"start": 105.94584, "end": 106.12602000000001, "pitch": 52, "velocity": 115}, {"start": 106.84674000000001, "end": 107.02692, "pitch": 54, "velocity": 115}, {"start": 107.02692, "end": 107.2071, "pitch": 55, "velocity": 115}, {"start": 107.92782, "end": 108.108, "pitch": 51, "velocity": 115}, {"start": 108.108, "end": 108.28818000000001, "pitch": 52, "velocity": 115}, {"start": 108.46836, "end": 108.64854, "pitch": 54, "velocity": 115}, {"start": 108.64854, "end": 108.82872, "pitch": 55, "velocity": 115}, {"start": 109.00890000000001, "end": 109.18908, "pitch": 60, "velocity": 115}, {"start": 109.18908, "end": 109.36926, "pitch": 59, "velocity": 115}, {"start": 109.54944, "end": 109.72962000000001, "pitch": 52, "velocity": 115}, {"start": 109.72962000000001, "end": 109.9098, "pitch": 55, "velocity": 115}, {"start": 110.08998, "end": 110.27016, "pitch": 59, "velocity": 115}, {"start": 110.27016, "end": 111.53142, "pitch": 58, "velocity": 115}, {"start": 111.53142, "end": 111.7116, "pitch": 57, "velocity": 115}, {"start": 111.7116, "end": 111.89178000000001, "pitch": 55, "velocity": 115}, {"start": 111.89178000000001, "end": 112.07196, "pitch": 52, "velocity": 115}, {"start": 112.07196, "end": 112.25214, "pitch": 50, "velocity": 115}, {"start": 112.25214, "end": 114.05394000000001, "pitch": 52, "velocity": 115}, {"start": 114.4143, "end": 114.59448, "pitch": 51, "velocity": 115}, {"start": 114.59448, "end": 114.77466000000001, "pitch": 52, "velocity": 115}, {"start": 115.49538000000001, "end": 115.67556, "pitch": 54, "velocity": 115}, {"start": 115.67556, "end": 115.85574, "pitch": 55, "velocity": 115}, {"start": 116.57646, "end": 116.75664, "pitch": 51, "velocity": 115}, {"start": 116.75664, "end": 116.93682000000001, "pitch": 52, "velocity": 115}, {"start": 117.117, "end": 117.29718, "pitch": 54, "velocity": 115}, {"start": 117.29718, "end": 117.47736, "pitch": 55, "velocity": 115}, {"start": 117.65754000000001, "end": 117.83772, "pitch": 60, "velocity": 115}, {"start": 117.83772, "end": 118.0179, "pitch": 59, "velocity": 115}, {"start": 118.19808, "end": 118.37826000000001, "pitch": 55, "velocity": 115}, {"start": 118.37826000000001, "end": 118.55844, "pitch": 59, "velocity": 115}, {"start": 118.73862, "end": 118.9188, "pitch": 64, "velocity": 115}, {"start": 118.9188, "end": 122.70258000000001, "pitch": 63, "velocity": 115}, {"start": 123.06294, "end": 123.24312, "pitch": 51, "velocity": 115}, {"start": 123.24312, "end": 123.42330000000001, "pitch": 52, "velocity": 115}, {"start": 124.14402000000001, "end": 124.3242, "pitch": 54, "velocity": 115}, {"start": 124.3242, "end": 124.50438, "pitch": 55, "velocity": 115}, {"start": 125.2251, "end": 125.40528, "pitch": 51, "velocity": 115}, {"start": 125.40528, "end": 125.58546000000001, "pitch": 52, "velocity": 115}, {"start": 125.76564, "end": 125.94582, "pitch": 54, "velocity": 115}, {"start": 125.94582, "end": 126.126, "pitch": 55, "velocity": 115}, {"start": 126.30618000000001, "end": 126.48636, "pitch": 60, "velocity": 115}, {"start": 126.48636, "end": 126.66654, "pitch": 59, "velocity": 115}, {"start": 126.84672, "end": 127.02690000000001, "pitch": 52, "velocity": 115}, {"start": 127.02690000000001, "end": 127.20708, "pitch": 55, "velocity": 115}, {"start": 127.38726, "end": 127.56744, "pitch": 59, "velocity": 115}, {"start": 127.56744, "end": 128.8287, "pitch": 58, "velocity": 115}, {"start": 128.8287, "end": 129.00888, "pitch": 57, "velocity": 115}, {"start": 129.00888, "end": 129.18906, "pitch": 55, "velocity": 115}, {"start": 129.18906, "end": 129.36924, "pitch": 52, "velocity": 115}, {"start": 129.36924, "end": 129.54942, "pitch": 50, "velocity": 115}, {"start": 129.54942, "end": 131.35122, "pitch": 52, "velocity": 115}, {"start": 132.4323, "end": 132.79266, "pitch": 64, "velocity": 115}, {"start": 132.79266, "end": 132.97284000000002, "pitch": 62, "velocity": 115}, {"start": 132.97284000000002, "end": 133.3332, "pitch": 59, "velocity": 115}, {"start": 133.3332, "end": 133.51338, "pitch": 57, "velocity": 115}, {"start": 133.51338, "end": 133.87374, "pitch": 55, "velocity": 115}, {"start": 133.87374, "end": 134.05392, "pitch": 52, "velocity": 115}, {"start": 134.05392, "end": 134.14401, "pitch": 58, "velocity": 115}, {"start": 134.14401, "end": 134.59446, "pitch": 57, "velocity": 115}, {"start": 134.59446, "end": 134.68455, "pitch": 58, "velocity": 115}, {"start": 134.68455, "end": 135.135, "pitch": 57, "velocity": 115}, {"start": 135.135, "end": 135.22509, "pitch": 58, "velocity": 115}, {"start": 135.22509, "end": 135.67554, "pitch": 57, "velocity": 115}, {"start": 135.67554, "end": 135.76563000000002, "pitch": 58, "velocity": 115}, {"start": 135.76563000000002, "end": 136.21608, "pitch": 57, "velocity": 115}, {"start": 136.21608, "end": 136.39626, "pitch": 55, "velocity": 115}, {"start": 136.39626, "end": 136.57644, "pitch": 52, "velocity": 115}, {"start": 136.57644, "end": 136.75662, "pitch": 50, "velocity": 115}, {"start": 136.75662, "end": 137.11698, "pitch": 52, "velocity": 115}, {"start": 137.11698, "end": 140.5404, "pitch": 52, "velocity": 115}, {"start": 140.5404, "end": 140.72058, "pitch": 55, "velocity": 115}, {"start": 140.72058, "end": 140.90076, "pitch": 52, "velocity": 115}, {"start": 140.90076, "end": 141.08094, "pitch": 50, "velocity": 115}, {"start": 141.08094, "end": 141.4413, "pitch": 52, "velocity": 115}, {"start": 141.4413, "end": 144.86472, "pitch": 52, "velocity": 115}, {"start": 144.86472, "end": 145.0449, "pitch": 55, "velocity": 115}, {"start": 145.0449, "end": 145.22508, "pitch": 52, "velocity": 115}, {"start": 145.22508, "end": 145.40526, "pitch": 50, "velocity": 115}, {"start": 145.40526, "end": 145.76562, "pitch": 52, "velocity": 115}, {"start": 145.76562, "end": 148.6485, "pitch": 52, "velocity": 115}, {"start": 149.00886, "end": 149.18904, "pitch": 51, "velocity": 115}, {"start": 149.18904, "end": 149.36922, "pitch": 52, "velocity": 115}, {"start": 150.08994, "end": 150.27012000000002, "pitch": 54, "velocity": 115}, {"start": 150.27012000000002, "end": 150.4503, "pitch": 55, "velocity": 115}, {"start": 151.17102, "end": 151.3512, "pitch": 51, "velocity": 115}, {"start": 151.3512, "end": 151.53138, "pitch": 52, "velocity": 115}, {"start": 151.71156000000002, "end": 151.89174, "pitch": 54, "velocity": 115}, {"start": 151.89174, "end": 152.07192, "pitch": 55, "velocity": 115}, {"start": 152.2521, "end": 152.43228, "pitch": 60, "velocity": 115}, {"start": 152.43228, "end": 152.61246, "pitch": 59, "velocity": 115}, {"start": 152.79264, "end": 152.97282, "pitch": 52, "velocity": 115}, {"start": 152.97282, "end": 153.15300000000002, "pitch": 55, "velocity": 115}, {"start": 153.33318, "end": 153.51336, "pitch": 59, "velocity": 115}, {"start": 153.51336, "end": 154.77462, "pitch": 58, "velocity": 115}, {"start": 154.77462, "end": 154.9548, "pitch": 57, "velocity": 115}, {"start": 154.9548, "end": 155.13498, "pitch": 55, "velocity": 115}, {"start": 155.13498, "end": 155.31516, "pitch": 52, "velocity": 115}, {"start": 155.31516, "end": 155.49534, "pitch": 50, "velocity": 115}, {"start": 155.49534, "end": 157.29714, "pitch": 52, "velocity": 115}, {"start": 157.6575, "end": 157.83768, "pitch": 51, "velocity": 115}, {"start": 157.83768, "end": 158.01786, "pitch": 52, "velocity": 115}, {"start": 158.73858, "end": 158.91876000000002, "pitch": 54, "velocity": 115}, {"start": 158.91876000000002, "end": 159.09894, "pitch": 55, "velocity": 115}, {"start": 159.81966, "end": 159.99984, "pitch": 51, "velocity": 115}, {"start": 159.99984, "end": 160.18002, "pitch": 52, "velocity": 115}, {"start": 160.36020000000002, "end": 160.54038, "pitch": 54, "velocity": 115}, {"start": 160.54038, "end": 160.72056, "pitch": 55, "velocity": 115}, {"start": 160.90074, "end": 161.08092, "pitch": 60, "velocity": 115}, {"start": 161.08092, "end": 161.2611, "pitch": 59, "velocity": 115}, {"start": 161.44128, "end": 161.62146, "pitch": 55, "velocity": 115}, {"start": 161.62146, "end": 161.80164000000002, "pitch": 59, "velocity": 115}, {"start": 161.98182, "end": 162.162, "pitch": 64, "velocity": 115}, {"start": 162.162, "end": 165.94578, "pitch": 63, "velocity": 115}, {"start": 166.30614, "end": 166.48632, "pitch": 51, "velocity": 115}, {"start": 166.48632, "end": 166.6665, "pitch": 52, "velocity": 115}, {"start": 167.38722, "end": 167.56740000000002, "pitch": 54, "velocity": 115}, {"start": 167.56740000000002, "end": 167.74758, "pitch": 55, "velocity": 115}, {"start": 168.4683, "end": 168.64848, "pitch": 51, "velocity": 115}, {"start": 168.64848, "end": 168.82866, "pitch": 52, "velocity": 115}, {"start": 169.00884000000002, "end": 169.18902, "pitch": 54, "velocity": 115}, {"start": 169.18902, "end": 169.3692, "pitch": 55, "velocity": 115}, {"start": 169.54938, "end": 169.72956, "pitch": 60, "velocity": 115}, {"start": 169.72956, "end": 169.90974, "pitch": 59, "velocity": 115}, {"start": 170.08992, "end": 170.2701, "pitch": 52, "velocity": 115}, {"start": 170.2701, "end": 170.45028000000002, "pitch": 55, "velocity": 115}, {"start": 170.63046, "end": 170.81064, "pitch": 59, "velocity": 115}, {"start": 170.81064, "end": 172.0719, "pitch": 58, "velocity": 115}, {"start": 172.0719, "end": 172.25208, "pitch": 57, "velocity": 115}, {"start": 172.25208, "end": 172.43226, "pitch": 55, "velocity": 115}, {"start": 172.43226, "end": 172.61244, "pitch": 52, "velocity": 115}, {"start": 172.61244, "end": 172.79262, "pitch": 50, "velocity": 115}, {"start": 172.79262, "end": 174.59442, "pitch": 52, "velocity": 115}, {"start": 175.6755, "end": 176.03586, "pitch": 64, "velocity": 115}, {"start": 176.03586, "end": 176.21604000000002, "pitch": 62, "velocity": 115}, {"start": 176.21604000000002, "end": 176.5764, "pitch": 59, "velocity": 115}, {"start": 176.5764, "end": 176.75658, "pitch": 57, "velocity": 115}, {"start": 176.75658, "end": 177.11694, "pitch": 55, "velocity": 115}, {"start": 177.11694, "end": 177.29712, "pitch": 52, "velocity": 115}, {"start": 177.29712, "end": 177.38721, "pitch": 58, "velocity": 115}, {"start": 177.38721, "end": 177.83766, "pitch": 57, "velocity": 115}, {"start": 177.83766, "end": 177.92775, "pitch": 58, "velocity": 115}, {"start": 177.92775, "end": 178.3782, "pitch": 57, "velocity": 115}, {"start": 178.3782, "end": 178.46829, "pitch": 58, "velocity": 115}, {"start": 178.46829, "end": 178.91874, "pitch": 57, "velocity": 115}, {"start": 178.91874, "end": 179.00883000000002, "pitch": 58, "velocity": 115}, {"start": 179.00883000000002, "end": 179.45928, "pitch": 57, "velocity": 115}, {"start": 179.45928, "end": 179.63946, "pitch": 55, "velocity": 115}, {"start": 179.63946, "end": 179.81964, "pitch": 52, "velocity": 115}, {"start": 179.81964, "end": 179.99982, "pitch": 50, "velocity": 115}, {"start": 179.99982, "end": 180.36018, "pitch": 52, "velocity": 115}, {"start": 180.36018, "end": 183.7836, "pitch": 52, "velocity": 115}, {"start": 183.7836, "end": 183.96378, "pitch": 55, "velocity": 115}, {"start": 183.96378, "end": 184.14396, "pitch": 52, "velocity": 115}, {"start": 184.14396, "end": 184.32414, "pitch": 50, "velocity": 115}, {"start": 184.32414, "end": 184.6845, "pitch": 52, "velocity": 115}, {"start": 184.6845, "end": 188.10792, "pitch": 52, "velocity": 115}, {"start": 188.10792, "end": 188.28810000000001, "pitch": 55, "velocity": 115}, {"start": 188.28810000000001, "end": 188.46828, "pitch": 52, "velocity": 115}, {"start": 188.46828, "end": 188.64846, "pitch": 50, "velocity": 115}, {"start": 188.64846, "end": 189.00882000000001, "pitch": 52, "velocity": 115}, {"start": 189.00882000000001, "end": 191.35116, "pitch": 52, "velocity": 115}, {"start": 191.89170000000001, "end": 196.75656, "pitch": 71, "velocity": 115}, {"start": 191.89170000000001, "end": 196.75656, "pitch": 78, "velocity": 115}]'),
(8800, '[{"start": 1.8188600625, "end": 1.8993240364583333, "pitch": 79, "velocity": 95}, {"start": 1.9816592656249998, "end": 2.0583807291666667, "pitch": 78, "velocity": 102}, {"start": 2.1594285104166664, "end": 2.262347546875, "pitch": 77, "velocity": 101}, {"start": 2.3484252864583333, "end": 2.4943831927083333, "pitch": 75, "velocity": 117}, {"start": 2.6983500104166667, "end": 2.894831807291667, "pitch": 76, "velocity": 98}, {"start": 3.0576310104166664, "end": 3.194232640625, "pitch": 68, "velocity": 89}, {"start": 3.2279152343749997, "end": 3.396328203125, "pitch": 69, "velocity": 106}, {"start": 3.4169120104166666, "end": 3.8098756041666664, "pitch": 72, "velocity": 113}, {"start": 3.7949055625, "end": 3.9876448489583334, "pitch": 69, "velocity": 92}, {"start": 3.9614472760416666, "end": 4.107405182291666, "pitch": 72, "velocity": 110}, {"start": 4.12050396875, "end": 4.350668359375, "pitch": 74, "velocity": 103}, {"start": 4.685623041666666, "end": 4.784799567708333, "pitch": 79, "velocity": 100}, {"start": 4.846550989583333, "end": 4.930757473958333, "pitch": 78, "velocity": 103}, {"start": 5.022448979166667, "end": 5.117882994791667, "pitch": 77, "velocity": 101}, {"start": 5.194604458333333, "end": 5.5295591406249995, "pitch": 75, "velocity": 95}, {"start": 5.565112989583334, "end": 5.800891145833333, "pitch": 76, "velocity": 103}, {"start": 5.873870098958333, "end": 6.167657166666666, "pitch": 84, "velocity": 110}, {"start": 6.255606161458333, "end": 6.384722770833333, "pitch": 84, "velocity": 100}, {"start": 6.431504151041667, "end": 7.144452385416667, "pitch": 84, "velocity": 100}, {"start": 7.531802213541666, "end": 7.621622463541667, "pitch": 79, "velocity": 103}, {"start": 7.700215182291666, "end": 7.771322880208333, "pitch": 78, "velocity": 103}, {"start": 7.874241916666667, "end": 7.977160953125, "pitch": 77, "velocity": 102}, {"start": 8.057624927083333, "end": 8.1511876875, "pitch": 75, "velocity": 101}, {"start": 8.45433103125, "end": 8.577833875, "pitch": 76, "velocity": 97}, {"start": 8.8023845, "end": 8.968926213541666, "pitch": 68, "velocity": 84}, {"start": 8.967054958333334, "end": 9.135467927083333, "pitch": 69, "velocity": 97}, {"start": 9.152309223958333, "end": 9.515332734374999, "pitch": 72, "velocity": 106}, {"start": 9.511590223958333, "end": 9.696844489583333, "pitch": 69, "velocity": 97}, {"start": 9.681874447916666, "end": 9.822218588541666, "pitch": 72, "velocity": 108}, {"start": 9.840931140624999, "end": 10.263834817708332, "pitch": 74, "velocity": 115}, {"start": 10.398565192708332, "end": 10.886962802083334, "pitch": 75, "velocity": 118}, {"start": 10.941229203125, "end": 11.427755557291666, "pitch": 74, "velocity": 115}, {"start": 11.452081875, "end": 12.223039020833333, "pitch": 72, "velocity": 105}, {"start": 13.261585661458334, "end": 13.366375953124999, "pitch": 79, "velocity": 100}, {"start": 13.433741140625, "end": 13.521690135416666, "pitch": 78, "velocity": 102}, {"start": 13.607767875, "end": 13.701330635416666, "pitch": 77, "velocity": 95}, {"start": 13.787408375, "end": 14.189728244791667, "pitch": 75, "velocity": 106}, {"start": 14.199084520833333, "end": 14.640700749999999, "pitch": 76, "velocity": 94}, {"start": 14.584563093749999, "end": 14.745491041666666, "pitch": 68, "velocity": 79}, {"start": 14.732392255208334, "end": 14.947586604166666, "pitch": 69, "velocity": 103}, {"start": 14.923260286458333, "end": 15.280670031249999, "pitch": 72, "velocity": 96}, {"start": 15.265699989583332, "end": 15.492121869791665, "pitch": 69, "velocity": 94}, {"start": 15.443469234375, "end": 15.578199609375, "pitch": 72, "velocity": 98}, {"start": 15.593169651041666, "end": 15.937480609375, "pitch": 74, "velocity": 95}, {"start": 16.160159979166668, "end": 16.244366463541667, "pitch": 79, "velocity": 101}, {"start": 16.3248304375, "end": 16.407165666666668, "pitch": 78, "velocity": 106}, {"start": 16.5044709375, "end": 16.659785119791668, "pitch": 77, "velocity": 96}, {"start": 16.693467713541665, "end": 17.071461265625, "pitch": 75, "velocity": 106}, {"start": 17.063976244791665, "end": 17.318466953125, "pitch": 76, "velocity": 87}, {"start": 17.412029713541667, "end": 17.675876697916667, "pitch": 84, "velocity": 95}, {"start": 17.754469416666666, "end": 17.86300221875, "pitch": 84, "velocity": 94}, {"start": 17.91539736458333, "end": 18.663899447916666, "pitch": 84, "velocity": 100}, {"start": 19.013824171875, "end": 19.21779098958333, "pitch": 79, "velocity": 87}, {"start": 19.176623375, "end": 19.331937557291667, "pitch": 78, "velocity": 92}, {"start": 19.365620151041664, "end": 19.451697890625, "pitch": 77, "velocity": 86}, {"start": 19.535904374999998, "end": 19.882086588541664, "pitch": 75, "velocity": 108}, {"start": 19.878344078125, "end": 20.348029135416667, "pitch": 76, "velocity": 84}, {"start": 20.331187838541666, "end": 20.505214572916667, "pitch": 68, "velocity": 78}, {"start": 20.527669635416665, "end": 20.684855072916665, "pitch": 69, "velocity": 58}, {"start": 20.682983817708333, "end": 21.00671096875, "pitch": 72, "velocity": 92}, {"start": 21.023552265625, "end": 21.1751239375, "pitch": 69, "velocity": 83}, {"start": 21.190093979166665, "end": 21.332309374999998, "pitch": 72, "velocity": 92}, {"start": 21.347279416666666, "end": 21.874973385416666, "pitch": 74, "velocity": 65}, {"start": 21.89555719270833, "end": 22.395182333333334, "pitch": 75, "velocity": 115}, {"start": 22.404538609375, "end": 22.93410383333333, "pitch": 74, "velocity": 103}, {"start": 22.947202619791668, "end": 24.485374401041668, "pitch": 67, "velocity": 102}]'),
(4074, '[{"start": 15.486404666666667, "end": 15.560527479166666, "pitch": 66, "velocity": 105}, {"start": 15.646053802083333, "end": 15.721711703124999, "pitch": 66, "velocity": 105}, {"start": 15.803948552083334, "end": 15.8746722421875, "pitch": 66, "velocity": 105}, {"start": 15.961843302083333, "end": 16.114803841145832, "pitch": 66, "velocity": 105}, {"start": 16.277632802083332, "end": 16.4174354453125, "pitch": 63, "velocity": 105}, {"start": 16.593422302083333, "end": 16.904277591145835, "pitch": 61, "velocity": 105}, {"start": 17.225001302083335, "end": 17.435527635416666, "pitch": 63, "velocity": 105}, {"start": 17.540790802083333, "end": 17.688817130208335, "pitch": 61, "velocity": 105}, {"start": 17.856580302083334, "end": 18.167435591145832, "pitch": 61, "velocity": 105}, {"start": 18.488159302083332, "end": 18.7167777421875, "pitch": 63, "velocity": 105}, {"start": 18.803948802083333, "end": 18.9684225, "pitch": 61, "velocity": 105}, {"start": 19.119738302083334, "end": 19.267764630208333, "pitch": 61, "velocity": 105}, {"start": 19.435527802083335, "end": 19.506251492187502, "pitch": 61, "velocity": 105}, {"start": 19.593422552083332, "end": 19.690462033854168, "pitch": 61, "velocity": 105}, {"start": 19.751317302083333, "end": 19.915791, "pitch": 63, "velocity": 105}, {"start": 20.067106802083334, "end": 20.486514731770832, "pitch": 59, "velocity": 105}, {"start": 25.593423052083335, "end": 25.69704148177083, "pitch": 66, "velocity": 105}, {"start": 25.751317802083335, "end": 25.856580968750002, "pitch": 66, "velocity": 105}, {"start": 26.067107302083336, "end": 26.215133630208335, "pitch": 66, "velocity": 105}, {"start": 26.382896802083334, "end": 26.511186286458333, "pitch": 63, "velocity": 105}, {"start": 26.5473705, "end": 26.652633666666667, "pitch": 63, "velocity": 100}, {"start": 26.69868630208333, "end": 27.049015278645832, "pitch": 63, "velocity": 105}, {"start": 27.330265302083333, "end": 27.4404626796875, "pitch": 61, "velocity": 105}, {"start": 27.488160052083334, "end": 27.603291640625002, "pitch": 63, "velocity": 105}, {"start": 27.646054802083334, "end": 27.744739020833336, "pitch": 61, "velocity": 105}, {"start": 27.80394955208333, "end": 27.910857455729165, "pitch": 61, "velocity": 105}, {"start": 27.961844302083335, "end": 28.1657916875, "pitch": 61, "velocity": 105}, {"start": 28.751318052083334, "end": 28.8713838515625, "pitch": 63, "velocity": 105}, {"start": 28.90921280208333, "end": 29.01447596875, "pitch": 61, "velocity": 105}, {"start": 29.067107552083336, "end": 29.155923348958332, "pitch": 61, "velocity": 105}, {"start": 29.225002302083332, "end": 29.4141470546875, "pitch": 61, "velocity": 105}, {"start": 30.01447605208333, "end": 30.103291848958335, "pitch": 63, "velocity": 105}, {"start": 30.172370802083336, "end": 30.266120809895835, "pitch": 61, "velocity": 105}, {"start": 30.330265552083333, "end": 30.468423458333334, "pitch": 61, "velocity": 105}, {"start": 30.646055052083334, "end": 31.555594601562504, "pitch": 61, "velocity": 105}, {"start": 31.593423552083337, "end": 32.40756835677083, "pitch": 59, "velocity": 105}, {"start": 37.11973980208334, "end": 37.21842402083333, "pitch": 59, "velocity": 105}, {"start": 37.277634552083335, "end": 37.476647726562504, "pitch": 59, "velocity": 105}, {"start": 37.593424052083336, "end": 37.81875301822917, "pitch": 63, "velocity": 105}, {"start": 37.90921355208334, "end": 38.040792510416665, "pitch": 61, "velocity": 105}, {"start": 38.067108302083334, "end": 38.28256884635417, "pitch": 59, "velocity": 105}, {"start": 39.64605580208333, "end": 39.70362159635417, "pitch": 59, "velocity": 105}, {"start": 39.803950552083336, "end": 39.938818984375004, "pitch": 59, "velocity": 105}, {"start": 40.11974005208334, "end": 40.3384900703125, "pitch": 66, "velocity": 105}, {"start": 40.43552955208333, "end": 40.90427959114584, "pitch": 61, "velocity": 105}, {"start": 42.33026655208334, "end": 42.46349024739583, "pitch": 59, "velocity": 105}, {"start": 42.64605605208333, "end": 42.9240166015625, "pitch": 63, "velocity": 105}, {"start": 42.96184555208333, "end": 43.08026661458334, "pitch": 61, "velocity": 105}, {"start": 43.27763505208333, "end": 44.478293046875, "pitch": 59, "velocity": 105}, {"start": 44.54079305208334, "end": 45.581911559895836, "pitch": 58, "velocity": 105}, {"start": 45.64605630208334, "end": 45.734872098958334, "pitch": 59, "velocity": 105}, {"start": 45.803951052083335, "end": 46.220069507812504, "pitch": 58, "velocity": 105}, {"start": 46.27763530208333, "end": 46.66743796614583, "pitch": 59, "velocity": 105}, {"start": 46.75131955208334, "end": 47.45691171614583, "pitch": 66, "velocity": 105}, {"start": 48.014477552083335, "end": 48.31053020833333, "pitch": 59, "velocity": 105}, {"start": 48.330267052083336, "end": 48.75789866666667, "pitch": 58, "velocity": 105}, {"start": 48.803951302083334, "end": 49.23158291666667, "pitch": 59, "velocity": 105}, {"start": 49.27763555208333, "end": 50.174017205729164, "pitch": 56, "velocity": 105}, {"start": 50.69868830208333, "end": 50.83026726041667, "pitch": 59, "velocity": 105}, {"start": 50.85658305208333, "end": 51.228293609375, "pitch": 58, "velocity": 105}, {"start": 51.330267302083335, "end": 51.741451546875, "pitch": 59, "velocity": 105}, {"start": 51.80395155208333, "end": 52.48980687239583, "pitch": 66, "velocity": 105}, {"start": 53.06710955208333, "end": 53.37796484114583, "pitch": 59, "velocity": 105}, {"start": 53.38289905208333, "end": 53.813820140625, "pitch": 58, "velocity": 105}, {"start": 53.85658330208334, "end": 54.2233596484375, "pitch": 59, "velocity": 105}, {"start": 54.330267552083335, "end": 55.12632025, "pitch": 59, "velocity": 105}, {"start": 55.59342555208333, "end": 55.88454399739583, "pitch": 59, "velocity": 105}, {"start": 55.90921505208333, "end": 56.358228247395836, "pitch": 58, "velocity": 105}, {"start": 56.38289930208333, "end": 56.78585986197917, "pitch": 59, "velocity": 105}, {"start": 56.856583552083336, "end": 57.451978338541664, "pitch": 66, "velocity": 105}, {"start": 57.48816255208333, "end": 58.104938919270836, "pitch": 64, "velocity": 105}, {"start": 58.11974155208333, "end": 58.294083671875, "pitch": 63, "velocity": 105}, {"start": 58.435531052083334, "end": 58.89605740625, "pitch": 64, "velocity": 105}, {"start": 58.90921530208333, "end": 59.28750480729167, "pitch": 63, "velocity": 105}, {"start": 59.38289955208333, "end": 59.535860091145835, "pitch": 63, "velocity": 105}, {"start": 59.540794302083334, "end": 59.69375484114583, "pitch": 61, "velocity": 105}, {"start": 59.69868905208333, "end": 60.017768026041665, "pitch": 59, "velocity": 105}, {"start": 60.17237330208334, "end": 60.225004885416666, "pitch": 59, "velocity": 105}, {"start": 60.33026805208333, "end": 60.619741760416666, "pitch": 59, "velocity": 105}, {"start": 60.646057552083334, "end": 60.90757073177083, "pitch": 58, "velocity": 105}, {"start": 60.961847052083336, "end": 61.317110239583336, "pitch": 59, "velocity": 105}, {"start": 61.90921555208333, "end": 62.8187551015625, "pitch": 63, "velocity": 105}, {"start": 62.856584052083335, "end": 64.373031546875, "pitch": 61, "velocity": 105}, {"start": 65.85658430208333, "end": 65.96349220572917, "pitch": 59, "velocity": 105}, {"start": 66.01447905208333, "end": 67.0128343984375, "pitch": 59, "velocity": 105}, {"start": 71.06711105208333, "end": 71.15921632291668, "pitch": 66, "velocity": 105}, {"start": 71.22500580208333, "end": 71.30888738802084, "pitch": 66, "velocity": 105}, {"start": 71.38290055208334, "end": 71.47171634895834, "pitch": 66, "velocity": 105}, {"start": 71.54079530208334, "end": 71.69211110416667, "pitch": 66, "velocity": 105}, {"start": 71.85658480208333, "end": 71.97665060156251, "pitch": 63, "velocity": 105}, {"start": 72.17237430208334, "end": 72.40263747916667, "pitch": 63, "velocity": 105}, {"start": 72.48816380208333, "end": 72.59013749479168, "pitch": 61, "velocity": 105}, {"start": 72.64605855208333, "end": 72.75461119270834, "pitch": 59, "velocity": 105}, {"start": 72.80395330208334, "end": 72.98980858072917, "pitch": 61, "velocity": 105}, {"start": 73.11974280208334, "end": 73.27928228906251, "pitch": 61, "velocity": 105}, {"start": 73.43553230208333, "end": 73.7134928515625, "pitch": 61, "velocity": 105}, {"start": 73.75132180208334, "end": 73.846716546875, "pitch": 61, "velocity": 105}, {"start": 73.90921655208334, "end": 73.99638761197917, "pitch": 59, "velocity": 105}, {"start": 74.06711130208333, "end": 74.25954552864584, "pitch": 63, "velocity": 105}, {"start": 74.38290080208334, "end": 74.54408502604167, "pitch": 61, "velocity": 105}, {"start": 74.69869030208334, "end": 74.8977034765625, "pitch": 61, "velocity": 105}, {"start": 75.01447980208334, "end": 75.1444140234375, "pitch": 61, "velocity": 105}, {"start": 75.33026930208334, "end": 75.603295640625, "pitch": 61, "velocity": 105}, {"start": 75.64605880208333, "end": 75.78257197135417, "pitch": 61, "velocity": 105}, {"start": 76.11974305208334, "end": 76.38454570572917, "pitch": 63, "velocity": 105}, {"start": 76.59342730208334, "end": 76.74638784114583, "pitch": 59, "velocity": 105}, {"start": 77.06711155208333, "end": 77.69375634114584, "pitch": 58, "velocity": 105}, {"start": 77.69869055208333, "end": 78.00954584114584, "pitch": 59, "velocity": 105}, {"start": 81.01448030208333, "end": 81.09013820312501, "pitch": 59, "velocity": 105}, {"start": 81.17237505208334, "end": 81.2628355859375, "pitch": 66, "velocity": 105}, {"start": 81.33026980208334, "end": 81.41744086197917, "pitch": 66, "velocity": 105}, {"start": 81.64605930208333, "end": 81.7710593125, "pitch": 66, "velocity": 105}, {"start": 81.96184880208334, "end": 82.06546723177084, "pitch": 63, "velocity": 105}, {"start": 82.27763830208333, "end": 82.40592778645834, "pitch": 64, "velocity": 105}, {"start": 82.43553305208333, "end": 82.78915150260417, "pitch": 63, "velocity": 105}, {"start": 82.90921730208333, "end": 82.98816467708333, "pitch": 63, "velocity": 105}, {"start": 83.06711205208333, "end": 83.33355944270834, "pitch": 63, "velocity": 105}, {"start": 83.38290155208334, "end": 83.47994103385417, "pitch": 61, "velocity": 105}, {"start": 83.54079630208334, "end": 83.8483621171875, "pitch": 61, "velocity": 105}, {"start": 84.33027005208334, "end": 84.47336216927083, "pitch": 63, "velocity": 105}, {"start": 84.48816480208333, "end": 84.61645428645834, "pitch": 61, "velocity": 105}, {"start": 84.80395430208334, "end": 84.92730957552084, "pitch": 61, "velocity": 105}, {"start": 85.11974380208333, "end": 85.2299411796875, "pitch": 61, "velocity": 105}, {"start": 85.43553330208333, "end": 85.7134938515625, "pitch": 61, "velocity": 105}, {"start": 85.75132280208334, "end": 85.8911254453125, "pitch": 61, "velocity": 105}, {"start": 86.22500705208334, "end": 86.4437570703125, "pitch": 63, "velocity": 105}, {"start": 86.69869130208333, "end": 86.863165, "pitch": 63, "velocity": 105}, {"start": 87.17237555208334, "end": 87.65428348697917, "pitch": 63, "velocity": 105}, {"start": 87.64605980208333, "end": 87.7562571796875, "pitch": 61, "velocity": 105}, {"start": 87.80395455208334, "end": 88.5259940859375, "pitch": 59, "velocity": 105}, {"start": 92.69869180208333, "end": 92.79737602083334, "pitch": 59, "velocity": 105}, {"start": 92.85658655208333, "end": 92.9865207734375, "pitch": 59, "velocity": 105}, {"start": 93.17237605208334, "end": 93.39770501822917, "pitch": 63, "velocity": 105}, {"start": 93.48816555208333, "end": 93.61974451041667, "pitch": 61, "velocity": 105}, {"start": 93.64606030208334, "end": 93.83191558072917, "pitch": 59, "velocity": 105}, {"start": 95.22500780208334, "end": 95.29902096614583, "pitch": 59, "velocity": 105}, {"start": 95.38290255208334, "end": 95.517770984375, "pitch": 59, "velocity": 105}, {"start": 95.69869205208333, "end": 95.9174420703125, "pitch": 66, "velocity": 105}, {"start": 96.01448155208334, "end": 96.3763236875, "pitch": 61, "velocity": 105}, {"start": 97.90921855208333, "end": 98.04244224739584, "pitch": 59, "velocity": 105}, {"start": 98.22500805208334, "end": 98.5029686015625, "pitch": 63, "velocity": 105}, {"start": 98.54079755208333, "end": 98.65921861458334, "pitch": 61, "velocity": 105}, {"start": 98.85658705208334, "end": 100.057245046875, "pitch": 59, "velocity": 105}, {"start": 100.11974505208333, "end": 101.06217934114584, "pitch": 58, "velocity": 105}, {"start": 101.22500830208334, "end": 101.30395567708334, "pitch": 59, "velocity": 105}, {"start": 101.38290305208334, "end": 101.7990215078125, "pitch": 58, "velocity": 105}, {"start": 101.85658730208334, "end": 102.24638996614584, "pitch": 59, "velocity": 105}, {"start": 102.33027155208333, "end": 103.03586371614584, "pitch": 66, "velocity": 105}, {"start": 103.59342955208334, "end": 103.88948220833333, "pitch": 59, "velocity": 105}, {"start": 103.90921905208333, "end": 104.33685066666666, "pitch": 58, "velocity": 105}, {"start": 104.38290330208334, "end": 104.81053491666667, "pitch": 59, "velocity": 105}, {"start": 104.85658755208334, "end": 105.75296920572917, "pitch": 56, "velocity": 105}, {"start": 106.27764030208334, "end": 106.40921926041666, "pitch": 59, "velocity": 105}, {"start": 106.43553505208334, "end": 106.807245609375, "pitch": 58, "velocity": 105}, {"start": 106.90921930208333, "end": 107.320403546875, "pitch": 59, "velocity": 105}, {"start": 107.38290355208333, "end": 108.06875887239583, "pitch": 66, "velocity": 105}, {"start": 108.64606155208334, "end": 108.98652210677083, "pitch": 59, "velocity": 105}, {"start": 108.96185105208333, "end": 109.392772140625, "pitch": 58, "velocity": 105}, {"start": 109.43553530208334, "end": 109.80231164843751, "pitch": 59, "velocity": 105}, {"start": 109.90921955208334, "end": 110.70527225000001, "pitch": 59, "velocity": 105}, {"start": 111.17237755208333, "end": 111.46349599739584, "pitch": 59, "velocity": 105}, {"start": 111.48816705208334, "end": 111.93718024739583, "pitch": 58, "velocity": 105}, {"start": 111.96185130208333, "end": 112.36481186197916, "pitch": 59, "velocity": 105}, {"start": 112.43553555208334, "end": 113.03093033854167, "pitch": 66, "velocity": 105}, {"start": 113.06711455208334, "end": 113.68389091927084, "pitch": 64, "velocity": 105}, {"start": 113.69869355208334, "end": 113.873035671875, "pitch": 63, "velocity": 105}, {"start": 114.01448305208334, "end": 114.47500940625001, "pitch": 64, "velocity": 105}, {"start": 114.48816730208334, "end": 114.86645680729167, "pitch": 63, "velocity": 105}, {"start": 114.96185155208333, "end": 115.11481209114584, "pitch": 63, "velocity": 105}, {"start": 115.11974630208334, "end": 115.27270684114583, "pitch": 61, "velocity": 105}, {"start": 115.27764105208334, "end": 115.59672002604167, "pitch": 59, "velocity": 105}, {"start": 115.75132530208333, "end": 115.83849636197917, "pitch": 59, "velocity": 105}, {"start": 115.90922005208334, "end": 116.19869376041667, "pitch": 59, "velocity": 105}, {"start": 116.22500955208334, "end": 116.48652273177083, "pitch": 58, "velocity": 105}, {"start": 116.54079905208333, "end": 116.89606223958333, "pitch": 59, "velocity": 105}, {"start": 117.48816755208334, "end": 118.3977071015625, "pitch": 63, "velocity": 105}, {"start": 118.43553605208334, "end": 119.951983546875, "pitch": 61, "velocity": 105}, {"start": 121.43553630208334, "end": 121.54244420572917, "pitch": 59, "velocity": 105}, {"start": 121.59343105208333, "end": 122.5917863984375, "pitch": 59, "velocity": 105}, {"start": 131.38290555208334, "end": 131.54737925, "pitch": 59, "velocity": 105}, {"start": 131.69869505208334, "end": 132.16744509114585, "pitch": 58, "velocity": 105}, {"start": 132.17237930208336, "end": 132.42402405989586, "pitch": 59, "velocity": 105}, {"start": 132.96185305208334, "end": 133.39112940364583, "pitch": 58, "velocity": 105}, {"start": 133.43553730208333, "end": 133.63948468750002, "pitch": 59, "velocity": 105}, {"start": 134.54080055208334, "end": 134.68718214322917, "pitch": 58, "velocity": 105}, {"start": 134.85659005208333, "end": 135.17731376302083, "pitch": 58, "velocity": 105}, {"start": 135.17237955208336, "end": 135.30395851041666, "pitch": 59, "velocity": 105}, {"start": 135.48816905208335, "end": 135.92237961458335, "pitch": 61, "velocity": 105}, {"start": 135.96185330208334, "end": 136.19376121614584, "pitch": 63, "velocity": 105}, {"start": 136.4421165, "end": 136.65264283333335, "pitch": 58, "velocity": 100}, {"start": 136.75132705208335, "end": 137.2463928828125, "pitch": 58, "velocity": 105}, {"start": 137.22501130208335, "end": 137.40757710677084, "pitch": 59, "velocity": 105}, {"start": 138.01448505208333, "end": 138.46843245833335, "pitch": 58, "velocity": 105}, {"start": 138.48816930208335, "end": 138.652643, "pitch": 59, "velocity": 105}, {"start": 139.59343255208336, "end": 139.85659046875, "pitch": 58, "velocity": 105}, {"start": 139.90922205208335, "end": 140.19211681250002, "pitch": 58, "velocity": 105}, {"start": 140.22501155208334, "end": 140.37797209114584, "pitch": 59, "velocity": 105}, {"start": 140.54080105208334, "end": 141.02435372395834, "pitch": 61, "velocity": 105}, {"start": 141.01448530208336, "end": 141.40428796614586, "pitch": 63, "velocity": 105}, {"start": 141.48816955208335, "end": 141.67895904166667, "pitch": 63, "velocity": 105}, {"start": 141.80395905208334, "end": 142.26284066927084, "pitch": 58, "velocity": 105}, {"start": 142.27764330208333, "end": 142.50955121614584, "pitch": 59, "velocity": 105}, {"start": 143.06711705208335, "end": 143.5325776171875, "pitch": 58, "velocity": 105}, {"start": 143.54080130208334, "end": 143.73981447656251, "pitch": 59, "velocity": 105}, {"start": 144.64606455208335, "end": 144.82205140885418, "pitch": 58, "velocity": 105}, {"start": 144.96185405208334, "end": 145.25297249739586, "pitch": 58, "velocity": 105}, {"start": 145.27764355208336, "end": 145.53257778385418, "pitch": 59, "velocity": 105}, {"start": 145.59343305208336, "end": 146.0013278229167, "pitch": 61, "velocity": 105}, {"start": 146.06711730208335, "end": 146.44705154427086, "pitch": 63, "velocity": 105}, {"start": 146.54080155208337, "end": 146.80889367968751, "pitch": 58, "velocity": 105}, {"start": 146.85659105208336, "end": 147.32534109114584, "pitch": 58, "velocity": 105}, {"start": 147.33027530208335, "end": 147.5358674244792, "pitch": 59, "velocity": 105}, {"start": 148.11974905208336, "end": 148.5424464557292, "pitch": 58, "velocity": 105}, {"start": 148.59343330208335, "end": 148.74145963020834, "pitch": 59, "velocity": 105}, {"start": 149.06711755208335, "end": 149.22007809114587, "pitch": 61, "velocity": 105}, {"start": 149.22501230208334, "end": 150.70527558333336, "pitch": 59, "velocity": 105}, {"start": 151.90922305208335, "end": 151.99310463802084, "pitch": 66, "velocity": 105}, {"start": 152.06711780208335, "end": 152.142775703125, "pitch": 66, "velocity": 105}, {"start": 152.22501255208334, "end": 152.32369677083335, "pitch": 66, "velocity": 105}, {"start": 152.38290730208334, "end": 152.53586784114586, "pitch": 66, "velocity": 105}, {"start": 152.69869680208336, "end": 152.83849944531252, "pitch": 63, "velocity": 105}, {"start": 153.01448630208336, "end": 153.32534159114584, "pitch": 61, "velocity": 105}, {"start": 153.64606530208334, "end": 153.8565916354167, "pitch": 63, "velocity": 105}, {"start": 153.96185480208337, "end": 154.10988113020835, "pitch": 61, "velocity": 105}, {"start": 154.27764430208336, "end": 154.58849959114585, "pitch": 61, "velocity": 105}, {"start": 154.90922330208335, "end": 155.1181048984375, "pitch": 63, "velocity": 105}, {"start": 155.22501280208334, "end": 155.38948650000003, "pitch": 61, "velocity": 105}, {"start": 155.54080230208336, "end": 155.68882863020835, "pitch": 61, "velocity": 105}, {"start": 155.85659180208336, "end": 155.92731549218752, "pitch": 61, "velocity": 105}, {"start": 156.01448655208335, "end": 156.11152603385418, "pitch": 61, "velocity": 105}, {"start": 156.17238130208335, "end": 156.336855, "pitch": 63, "velocity": 105}, {"start": 156.48817080208335, "end": 156.90757873177085, "pitch": 59, "velocity": 105}, {"start": 162.01448705208335, "end": 162.11810548177084, "pitch": 66, "velocity": 105}, {"start": 162.17238180208335, "end": 162.27764496875002, "pitch": 66, "velocity": 105}, {"start": 162.48817130208334, "end": 162.63619763020836, "pitch": 66, "velocity": 105}, {"start": 162.80396080208334, "end": 162.93225028645836, "pitch": 63, "velocity": 105}, {"start": 162.96843450000003, "end": 163.06711871875, "pitch": 63, "velocity": 100}, {"start": 163.11975030208336, "end": 163.47007927864584, "pitch": 63, "velocity": 105}, {"start": 163.75132930208335, "end": 163.86152667968753, "pitch": 61, "velocity": 105}, {"start": 163.90922405208335, "end": 164.02435564062503, "pitch": 63, "velocity": 105}, {"start": 164.06711880208334, "end": 164.1394872291667, "pitch": 61, "velocity": 105}, {"start": 164.22501355208334, "end": 164.3253425078125, "pitch": 61, "velocity": 105}, {"start": 164.38290830208337, "end": 164.58685568750002, "pitch": 61, "velocity": 105}, {"start": 165.17238205208335, "end": 165.2924478515625, "pitch": 63, "velocity": 105}, {"start": 165.33027680208335, "end": 165.43553996875002, "pitch": 61, "velocity": 105}, {"start": 165.48817155208334, "end": 165.57698734895834, "pitch": 61, "velocity": 105}, {"start": 165.64606630208334, "end": 165.8352110546875, "pitch": 61, "velocity": 105}, {"start": 166.43554005208335, "end": 166.53915848177084, "pitch": 63, "velocity": 105}, {"start": 166.59343480208335, "end": 166.68718480989585, "pitch": 61, "velocity": 105}, {"start": 166.75132955208335, "end": 166.85001377083336, "pitch": 61, "velocity": 105}, {"start": 167.06711905208334, "end": 167.97665860156252, "pitch": 61, "velocity": 105}, {"start": 168.01448755208335, "end": 168.82863235677084, "pitch": 59, "velocity": 105}, {"start": 173.22501430208337, "end": 173.32369852083335, "pitch": 59, "velocity": 105}, {"start": 173.38290905208336, "end": 173.5819222265625, "pitch": 59, "velocity": 105}, {"start": 173.69869855208336, "end": 173.9437643619792, "pitch": 59, "velocity": 105}, {"start": 174.01448805208335, "end": 174.2398170182292, "pitch": 63, "velocity": 105}, {"start": 174.33027755208334, "end": 174.46185651041668, "pitch": 61, "velocity": 105}, {"start": 174.48817230208334, "end": 174.5901459947917, "pitch": 59, "velocity": 105}, {"start": 175.75133030208335, "end": 175.85330399479167, "pitch": 59, "velocity": 105}, {"start": 175.90922505208334, "end": 176.14113296614585, "pitch": 59, "velocity": 105}, {"start": 176.22501455208337, "end": 176.4700803619792, "pitch": 59, "velocity": 105}, {"start": 176.54080405208336, "end": 176.75955407031253, "pitch": 66, "velocity": 105}, {"start": 176.85659355208335, "end": 177.32534359114587, "pitch": 61, "velocity": 105}, {"start": 178.75133055208335, "end": 178.88455424739584, "pitch": 59, "velocity": 105}, {"start": 179.06712005208334, "end": 179.34508060156253, "pitch": 63, "velocity": 105}, {"start": 179.38290955208336, "end": 179.50133061458337, "pitch": 61, "velocity": 105}, {"start": 179.69869905208336, "end": 180.89935704687502, "pitch": 59, "velocity": 105}, {"start": 180.96185705208336, "end": 182.05396240625, "pitch": 58, "velocity": 105}, {"start": 183.53628150000003, "end": 183.63003150000003, "pitch": 59, "velocity": 105}, {"start": 183.72378150000003, "end": 184.14113350781253, "pitch": 58, "velocity": 105}, {"start": 184.19869930208336, "end": 184.58850196614586, "pitch": 59, "velocity": 105}, {"start": 184.67238355208337, "end": 185.37797571614587, "pitch": 66, "velocity": 105}, {"start": 185.93554155208335, "end": 186.23159420833338, "pitch": 59, "velocity": 105}, {"start": 186.25133105208337, "end": 186.6789626666667, "pitch": 58, "velocity": 105}, {"start": 186.72501530208336, "end": 187.1526469166667, "pitch": 59, "velocity": 105}, {"start": 187.19869955208335, "end": 188.0950812057292, "pitch": 56, "velocity": 105}, {"start": 188.46185755208336, "end": 188.5934365104167, "pitch": 59, "velocity": 105}, {"start": 188.77764705208335, "end": 189.14935760937502, "pitch": 58, "velocity": 105}, {"start": 189.25133130208337, "end": 189.66251554687503, "pitch": 59, "velocity": 105}, {"start": 189.72501555208336, "end": 190.41087087239586, "pitch": 66, "velocity": 105}, {"start": 190.98817355208337, "end": 191.29902884114586, "pitch": 59, "velocity": 105}, {"start": 191.30396305208336, "end": 191.73488414062504, "pitch": 58, "velocity": 105}, {"start": 191.77764730208335, "end": 192.14442364843754, "pitch": 59, "velocity": 105}, {"start": 192.25133155208337, "end": 193.04738425000002, "pitch": 59, "velocity": 105}, {"start": 193.51448955208338, "end": 193.80560799739587, "pitch": 59, "velocity": 105}, {"start": 193.83027905208337, "end": 194.27929224739586, "pitch": 58, "velocity": 105}, {"start": 194.30396330208336, "end": 194.7069238619792, "pitch": 59, "velocity": 105}, {"start": 194.77764755208335, "end": 195.3730423385417, "pitch": 66, "velocity": 105}, {"start": 195.40922655208337, "end": 196.02600291927087, "pitch": 64, "velocity": 105}, {"start": 196.04080555208336, "end": 196.21514767187503, "pitch": 63, "velocity": 105}, {"start": 196.35659505208338, "end": 196.81712140625004, "pitch": 64, "velocity": 105}, {"start": 196.83027930208337, "end": 197.2085688072917, "pitch": 63, "velocity": 105}, {"start": 197.30396355208336, "end": 197.45692409114585, "pitch": 63, "velocity": 105}, {"start": 197.46185830208336, "end": 197.61481884114588, "pitch": 61, "velocity": 105}, {"start": 197.61975305208335, "end": 197.9388320260417, "pitch": 59, "velocity": 105}, {"start": 198.09343730208337, "end": 198.16251625520837, "pitch": 59, "velocity": 105}, {"start": 198.25133205208337, "end": 198.5408057604167, "pitch": 59, "velocity": 105}, {"start": 198.56712155208336, "end": 198.82863473177088, "pitch": 58, "velocity": 105}, {"start": 198.88291105208336, "end": 199.23817423958337, "pitch": 59, "velocity": 105}, {"start": 199.83027955208337, "end": 200.73981910156255, "pitch": 63, "velocity": 105}, {"start": 200.77764805208335, "end": 202.29409554687504, "pitch": 61, "velocity": 105}, {"start": 203.61975355208335, "end": 203.74475356250002, "pitch": 59, "velocity": 105}, {"start": 203.93554305208337, "end": 204.3730430885417, "pitch": 58, "velocity": 105}, {"start": 204.40922730208337, "end": 204.59343784375002, "pitch": 59, "velocity": 105}, {"start": 204.88291155208336, "end": 205.9717274322917, "pitch": 66, "velocity": 105}, {"start": 206.14606955208336, "end": 206.39771430989586, "pitch": 71, "velocity": 105}, {"start": 206.46185905208335, "end": 206.94212225000004, "pitch": 70, "velocity": 105}, {"start": 206.93554330208337, "end": 207.09837226302085, "pitch": 66, "velocity": 105}, {"start": 207.40922755208337, "end": 207.72008284114585, "pitch": 68, "velocity": 105}, {"start": 207.72501705208336, "end": 208.19376709114587, "pitch": 66, "velocity": 105}, {"start": 208.19870130208335, "end": 208.35166184114587, "pitch": 64, "velocity": 105}, {"start": 208.35659605208338, "end": 208.66745134114586, "pitch": 63, "velocity": 105}, {"start": 208.67238555208337, "end": 208.79245135156253, "pitch": 59, "velocity": 105}, {"start": 208.98817505208336, "end": 209.43883298437504, "pitch": 58, "velocity": 105}, {"start": 209.46185930208335, "end": 209.86153038802087, "pitch": 59, "velocity": 105}, {"start": 209.93554355208337, "end": 210.99146469270838, "pitch": 66, "velocity": 105}, {"start": 211.19870155208338, "end": 211.44212262500002, "pitch": 66, "velocity": 105}, {"start": 211.51449105208337, "end": 211.95528056250004, "pitch": 71, "velocity": 105}, {"start": 211.98817530208336, "end": 212.21021479427085, "pitch": 66, "velocity": 105}, {"start": 212.46185955208335, "end": 212.93060959114587, "pitch": 64, "velocity": 105}, {"start": 212.93554380208337, "end": 213.07370170833337, "pitch": 63, "velocity": 105}, {"start": 213.09343855208337, "end": 213.56218859114585, "pitch": 59, "velocity": 105}, {"start": 213.72501755208336, "end": 214.02764915625002, "pitch": 59, "velocity": 105}, {"start": 214.04080705208338, "end": 214.5079123541667, "pitch": 58, "velocity": 105}, {"start": 214.51449130208337, "end": 214.8730439635417, "pitch": 59, "velocity": 105}, {"start": 214.98817555208336, "end": 215.61482034114587, "pitch": 66, "velocity": 105}, {"start": 215.61975455208335, "end": 216.08850459114586, "pitch": 64, "velocity": 105}, {"start": 216.25133355208337, "end": 216.57370200000003, "pitch": 63, "velocity": 105}, {"start": 216.56712305208336, "end": 217.03587309114587, "pitch": 64, "velocity": 105}, {"start": 217.04080730208335, "end": 217.4437678619792, "pitch": 66, "velocity": 105}, {"start": 217.51449155208337, "end": 217.66909682812502, "pitch": 63, "velocity": 105}, {"start": 217.67238630208337, "end": 218.14113634114585, "pitch": 61, "velocity": 105}, {"start": 218.30396530208336, "end": 218.37962320312502, "pitch": 59, "velocity": 105}, {"start": 218.46186005208335, "end": 218.77271534114587, "pitch": 59, "velocity": 105}, {"start": 218.77764955208337, "end": 218.94705746093751, "pitch": 58, "velocity": 105}, {"start": 219.09343905208337, "end": 219.74475489583335, "pitch": 59, "velocity": 105}, {"start": 220.04080755208338, "end": 220.7102155026042, "pitch": 63, "velocity": 105}, {"start": 220.98817605208336, "end": 222.30561037239585, "pitch": 61, "velocity": 105}, {"start": 223.35659730208337, "end": 223.42238678125003, "pitch": 59, "velocity": 105}, {"start": 223.51449205208337, "end": 223.81218944531253, "pitch": 59, "velocity": 105}, {"start": 223.83028155208336, "end": 223.97337366927087, "pitch": 58, "velocity": 105}, {"start": 224.14607105208336, "end": 224.79738689583337, "pitch": 59, "velocity": 105}, {"start": 225.09343955208337, "end": 225.96186067708337, "pitch": 66, "velocity": 105}, {"start": 226.04080805208338, "end": 227.5885055494792, "pitch": 61, "velocity": 105}, {"start": 229.04080830208335, "end": 229.1181109401042, "pitch": 59, "velocity": 105}, {"start": 229.19870305208337, "end": 232.18883488020836, "pitch": 59, "velocity": 105}]'),
(5772, '[{"start": 31.694788906250004, "end": 32.03725432291667, "pitch": 67, "velocity": 101}, {"start": 32.097185770833335, "end": 32.396843010416674, "pitch": 67, "velocity": 101}, {"start": 32.51670590625, "end": 32.75643169791667, "pitch": 67, "velocity": 95}, {"start": 32.91054113541667, "end": 33.612595239583335, "pitch": 67, "velocity": 103}, {"start": 33.70677322916667, "end": 34.63999148958334, "pitch": 67, "velocity": 103}, {"start": 34.93108709375, "end": 35.30779905208334, "pitch": 65, "velocity": 102}, {"start": 35.36773050000001, "end": 35.78725063541667, "pitch": 65, "velocity": 90}, {"start": 35.79581227083334, "end": 36.06122296875, "pitch": 67, "velocity": 90}, {"start": 36.18964750000001, "end": 36.626290906250006, "pitch": 65, "velocity": 91}, {"start": 36.626290906250006, "end": 36.83177015625, "pitch": 63, "velocity": 88}, {"start": 36.89170160416667, "end": 37.833481500000005, "pitch": 60, "velocity": 86}, {"start": 44.854022541666666, "end": 45.1793646875, "pitch": 67, "velocity": 103}, {"start": 45.239296135416666, "end": 45.547515010416674, "pitch": 67, "velocity": 109}, {"start": 45.624569729166666, "end": 45.924226968750006, "pitch": 67, "velocity": 117}, {"start": 46.026966593750004, "end": 46.26669238541667, "pitch": 67, "velocity": 121}, {"start": 46.34374710416667, "end": 46.48073327083334, "pitch": 67, "velocity": 118}, {"start": 46.46361, "end": 47.165664104166666, "pitch": 65, "velocity": 110}, {"start": 47.217033916666665, "end": 48.09032072916667, "pitch": 65, "velocity": 91}, {"start": 48.13312890625001, "end": 48.49271759375, "pitch": 64, "velocity": 113}, {"start": 48.55264904166667, "end": 48.86942955208333, "pitch": 64, "velocity": 114}, {"start": 48.93792263541667, "end": 49.27182641666667, "pitch": 64, "velocity": 127}, {"start": 49.31463459375, "end": 49.68278491666667, "pitch": 64, "velocity": 118}, {"start": 49.71703145833334, "end": 50.13655159375, "pitch": 65, "velocity": 110}, {"start": 50.12798995833334, "end": 50.49614028125001, "pitch": 53, "velocity": 77}, {"start": 50.55607172916667, "end": 50.94134532291667, "pitch": 53, "velocity": 78}, {"start": 50.992715135416674, "end": 51.455043447916665, "pitch": 53, "velocity": 64}, {"start": 51.463605083333334, "end": 53.59545230208333, "pitch": 63, "velocity": 85}, {"start": 53.85230136458334, "end": 54.28038313541667, "pitch": 57, "velocity": 97}, {"start": 54.23757495833334, "end": 54.639971822916664, "pitch": 58, "velocity": 89}, {"start": 54.71702654166667, "end": 56.88312030208334, "pitch": 58, "velocity": 98}, {"start": 61.3094858125, "end": 61.514965062499996, "pitch": 62, "velocity": 104}, {"start": 61.55777323958334, "end": 63.81804498958334, "pitch": 62, "velocity": 95}, {"start": 64.15194877083333, "end": 64.51153745833334, "pitch": 58, "velocity": 97}, {"start": 64.5971538125, "end": 64.99955067708333, "pitch": 60, "velocity": 105}, {"start": 64.99955067708333, "end": 65.20502992708333, "pitch": 62, "velocity": 105}, {"start": 65.23927646875, "end": 66.908795375, "pitch": 62, "velocity": 96}, {"start": 67.43961677083334, "end": 67.60228784375, "pitch": 62, "velocity": 111}, {"start": 67.66221929166667, "end": 67.85057527083333, "pitch": 62, "velocity": 108}, {"start": 67.90194508333333, "end": 68.16735578125, "pitch": 63, "velocity": 120}, {"start": 68.20160232291667, "end": 68.41564320833334, "pitch": 65, "velocity": 109}, {"start": 68.47557465625, "end": 68.9122180625, "pitch": 63, "velocity": 109}, {"start": 68.95502623958333, "end": 69.24612184375, "pitch": 62, "velocity": 105}, {"start": 69.34029983333333, "end": 70.11084702083333, "pitch": 60, "velocity": 100}, {"start": 70.36769608333333, "end": 70.70159986458333, "pitch": 60, "velocity": 105}, {"start": 70.72728477083334, "end": 71.10399672916667, "pitch": 62, "velocity": 105}, {"start": 71.1724898125, "end": 71.39509233333334, "pitch": 63, "velocity": 116}, {"start": 71.429338875, "end": 71.78036592708334, "pitch": 65, "velocity": 105}, {"start": 71.82317410416667, "end": 72.18276279166666, "pitch": 63, "velocity": 95}, {"start": 72.22557096875, "end": 72.58515965625, "pitch": 62, "velocity": 97}, {"start": 72.65365273958334, "end": 73.92077478125, "pitch": 60, "velocity": 98}, {"start": 74.38310309375, "end": 74.63995215625, "pitch": 62, "velocity": 106}, {"start": 74.717006875, "end": 76.62625157291667, "pitch": 62, "velocity": 120}, {"start": 76.84029245833334, "end": 77.27693586458334, "pitch": 62, "velocity": 99}, {"start": 77.25125095833333, "end": 77.67077109375, "pitch": 65, "velocity": 116}, {"start": 77.696456, "end": 78.34714029166666, "pitch": 69, "velocity": 116}, {"start": 78.37282519791667, "end": 78.52693463541667, "pitch": 67, "velocity": 105}, {"start": 78.57830444791666, "end": 80.10227555208333, "pitch": 67, "velocity": 105}, {"start": 80.5731655, "end": 80.95843909375, "pitch": 67, "velocity": 110}, {"start": 81.00124727083333, "end": 81.40364413541667, "pitch": 70, "velocity": 122}, {"start": 81.4464523125, "end": 81.74610955208334, "pitch": 70, "velocity": 122}, {"start": 81.79747936458334, "end": 82.18275295833334, "pitch": 70, "velocity": 120}, {"start": 82.22556113541667, "end": 82.55090328125, "pitch": 70, "velocity": 112}, {"start": 82.63651963541666, "end": 83.34713537500001, "pitch": 70, "velocity": 118}, {"start": 83.28720392708334, "end": 83.40706682291666, "pitch": 67, "velocity": 108}, {"start": 83.51836808333333, "end": 83.73240896875001, "pitch": 63, "velocity": 122}, {"start": 83.74097060416666, "end": 84.26323036458334, "pitch": 62, "velocity": 99}, {"start": 84.3231618125, "end": 84.58857251041667, "pitch": 62, "velocity": 115}, {"start": 84.57144923958333, "end": 86.65192664583333, "pitch": 60, "velocity": 111}, {"start": 87.52521345833333, "end": 87.78206252083334, "pitch": 67, "velocity": 122}, {"start": 87.83343233333333, "end": 90.025211, "pitch": 67, "velocity": 125}, {"start": 90.05945754166666, "end": 90.45329277083333, "pitch": 65, "velocity": 124}, {"start": 90.42760786458334, "end": 90.66733365625, "pitch": 67, "velocity": 115}, {"start": 90.63308711458333, "end": 90.847128, "pitch": 68, "velocity": 114}, {"start": 90.88137454166666, "end": 93.32144063541666, "pitch": 67, "velocity": 127}, {"start": 93.75808404166666, "end": 93.92931675, "pitch": 67, "velocity": 127}, {"start": 93.97212492708333, "end": 94.16904254166667, "pitch": 67, "velocity": 109}, {"start": 94.19472744791666, "end": 94.77691865624999, "pitch": 68, "velocity": 127}, {"start": 94.81116519791667, "end": 94.93102809375, "pitch": 67, "velocity": 118}, {"start": 94.97383627083333, "end": 95.29061678125, "pitch": 67, "velocity": 127}, {"start": 95.39335640624999, "end": 95.69301364583333, "pitch": 65, "velocity": 121}, {"start": 95.80431490625, "end": 96.71184826041666, "pitch": 65, "velocity": 127}, {"start": 97.28547783333333, "end": 97.37109418749999, "pitch": 58, "velocity": 109}, {"start": 97.43958727083333, "end": 97.8334225, "pitch": 58, "velocity": 123}, {"start": 97.8334225, "end": 98.12451810416667, "pitch": 65, "velocity": 120}, {"start": 98.21013445833333, "end": 98.64677786458333, "pitch": 65, "velocity": 122}, {"start": 98.63821622916666, "end": 98.78376403125, "pitch": 67, "velocity": 109}, {"start": 98.85225711458332, "end": 99.46013322916666, "pitch": 67, "velocity": 124}, {"start": 99.4772565, "end": 99.80259864583333, "pitch": 68, "velocity": 114}, {"start": 99.87109172916666, "end": 100.32485840625, "pitch": 68, "velocity": 114}, {"start": 100.34198167708333, "end": 100.52177602083333, "pitch": 70, "velocity": 123}, {"start": 100.56458419791666, "end": 101.12965213541666, "pitch": 68, "velocity": 127}, {"start": 101.13821377083333, "end": 101.5834188125, "pitch": 67, "velocity": 120}, {"start": 101.9430075, "end": 102.17417165625, "pitch": 65, "velocity": 113}, {"start": 102.14848674999999, "end": 102.33684272916666, "pitch": 67, "velocity": 114}, {"start": 102.34540436458333, "end": 103.62108804166667, "pitch": 70, "velocity": 127}, {"start": 103.63821131249999, "end": 103.83512892708333, "pitch": 65, "velocity": 104}, {"start": 103.82656729166666, "end": 104.06629308333333, "pitch": 67, "velocity": 102}, {"start": 104.0491698125, "end": 104.94814153125, "pitch": 63, "velocity": 100}, {"start": 105.26492204166667, "end": 105.3847849375, "pitch": 58, "velocity": 97}, {"start": 105.46183965624999, "end": 105.62451072916666, "pitch": 58, "velocity": 97}, {"start": 105.65875727083333, "end": 105.92416796875, "pitch": 59, "velocity": 95}, {"start": 105.92416796875, "end": 106.32656483333334, "pitch": 61, "velocity": 84}, {"start": 106.38649628124999, "end": 106.65190697916667, "pitch": 59, "velocity": 94}, {"start": 106.65190697916667, "end": 106.84882459375, "pitch": 61, "velocity": 90}, {"start": 106.8745095, "end": 107.182728375, "pitch": 59, "velocity": 91}, {"start": 107.19985164583333, "end": 108.88649382291666, "pitch": 58, "velocity": 84}, {"start": 118.72251852083333, "end": 118.94512104166667, "pitch": 62, "velocity": 117}, {"start": 119.013614125, "end": 120.32354434375, "pitch": 62, "velocity": 121}, {"start": 121.60778965625, "end": 121.98450161458334, "pitch": 58, "velocity": 117}, {"start": 121.99306325, "end": 122.47251483333334, "pitch": 60, "velocity": 122}, {"start": 122.4553915625, "end": 122.62662427083333, "pitch": 62, "velocity": 105}, {"start": 122.67799408333333, "end": 123.86806140625, "pitch": 62, "velocity": 103}, {"start": 124.90401929166667, "end": 125.28073125, "pitch": 62, "velocity": 107}, {"start": 125.3321010625, "end": 125.60607339583333, "pitch": 63, "velocity": 115}, {"start": 125.6403199375, "end": 125.87148409375, "pitch": 65, "velocity": 113}, {"start": 125.91429227083333, "end": 126.32525077083334, "pitch": 63, "velocity": 101}, {"start": 126.32525077083334, "end": 126.59066146875, "pitch": 62, "velocity": 107}, {"start": 126.64203128125, "end": 127.3868935625, "pitch": 60, "velocity": 103}, {"start": 127.74648225, "end": 127.9519615, "pitch": 60, "velocity": 113}, {"start": 127.99476967708334, "end": 128.50846780208335, "pitch": 62, "velocity": 110}, {"start": 128.56839925, "end": 128.84237158333335, "pitch": 63, "velocity": 109}, {"start": 128.89374139583333, "end": 129.10778228125, "pitch": 65, "velocity": 110}, {"start": 129.19339863541666, "end": 129.5444256875, "pitch": 63, "velocity": 105}, {"start": 129.53586405208333, "end": 129.77558984375, "pitch": 62, "velocity": 107}, {"start": 129.82695965625, "end": 131.00846534375, "pitch": 62, "velocity": 110}, {"start": 131.86462888541666, "end": 132.08723140625, "pitch": 62, "velocity": 115}, {"start": 132.15572448958335, "end": 133.06325784375, "pitch": 62, "velocity": 116}, {"start": 133.12318929166668, "end": 133.35435344791668, "pitch": 60, "velocity": 107}, {"start": 133.31154527083334, "end": 133.46565470833335, "pitch": 58, "velocity": 94}, {"start": 133.50846288541666, "end": 133.73106540625, "pitch": 60, "velocity": 116}, {"start": 133.73962704166667, "end": 134.08209245833334, "pitch": 62, "velocity": 100}, {"start": 134.75846165625, "end": 135.15229688541666, "pitch": 65, "velocity": 121}, {"start": 135.17798179166667, "end": 135.79441954166666, "pitch": 69, "velocity": 127}, {"start": 135.8115428125, "end": 135.97421388541667, "pitch": 67, "velocity": 111}, {"start": 136.02558369791666, "end": 137.56667807291666, "pitch": 67, "velocity": 122}, {"start": 137.99475984375, "end": 138.24304727083333, "pitch": 65, "velocity": 116}, {"start": 138.20023909374999, "end": 138.3800334375, "pitch": 67, "velocity": 115}, {"start": 138.44852652083333, "end": 138.84236175, "pitch": 70, "velocity": 125}, {"start": 138.90229319791666, "end": 139.18482716666668, "pitch": 70, "velocity": 127}, {"start": 139.25332025, "end": 139.63859384375002, "pitch": 70, "velocity": 127}, {"start": 139.68996365625, "end": 139.84407309375, "pitch": 70, "velocity": 127}, {"start": 139.89544290625, "end": 140.60605864583334, "pitch": 70, "velocity": 127}, {"start": 140.63174355208332, "end": 140.76872971875, "pitch": 67, "velocity": 116}, {"start": 140.84578443750001, "end": 141.02557878125, "pitch": 63, "velocity": 108}, {"start": 141.01701714583334, "end": 141.90742722916667, "pitch": 62, "velocity": 127}, {"start": 141.88174232291666, "end": 142.027290125, "pitch": 60, "velocity": 110}, {"start": 142.0786599375, "end": 144.03927444791668, "pitch": 60, "velocity": 118}, {"start": 145.04098579166666, "end": 145.2635883125, "pitch": 67, "velocity": 127}, {"start": 145.32351976041667, "end": 147.47249025, "pitch": 67, "velocity": 127}, {"start": 147.48961352083333, "end": 147.90057202083332, "pitch": 65, "velocity": 125}, {"start": 147.87488711458332, "end": 148.10605127083335, "pitch": 67, "velocity": 120}, {"start": 148.07180472916667, "end": 148.32009215624998, "pitch": 68, "velocity": 104}, {"start": 148.32865379166668, "end": 150.9142676875, "pitch": 67, "velocity": 122}, {"start": 151.59919852083334, "end": 152.24132117708334, "pitch": 68, "velocity": 127}, {"start": 152.25844444791667, "end": 152.40399225, "pitch": 67, "velocity": 108}, {"start": 152.49817023958332, "end": 152.70364948958334, "pitch": 67, "velocity": 127}, {"start": 152.712211125, "end": 152.96049855208332, "pitch": 65, "velocity": 113}, {"start": 153.08892308333333, "end": 154.3046753125, "pitch": 65, "velocity": 127}, {"start": 154.74988035416666, "end": 154.94679796875, "pitch": 65, "velocity": 111}, {"start": 154.9211130625, "end": 155.29782502083333, "pitch": 58, "velocity": 98}, {"start": 155.30638665625, "end": 155.63172880208333, "pitch": 65, "velocity": 118}, {"start": 155.69166024999998, "end": 156.08549547916667, "pitch": 65, "velocity": 113}, {"start": 156.09405711458334, "end": 156.43652253125, "pitch": 67, "velocity": 116}, {"start": 156.53070052083334, "end": 156.75330304166667, "pitch": 67, "velocity": 114}, {"start": 156.72761813541666, "end": 156.90741247916668, "pitch": 68, "velocity": 121}, {"start": 156.94165902083333, "end": 157.24131626041668, "pitch": 68, "velocity": 115}, {"start": 157.31837097916667, "end": 157.78926092708332, "pitch": 68, "velocity": 115}, {"start": 157.77213765625, "end": 157.97761690625, "pitch": 70, "velocity": 127}, {"start": 158.01186344791665, "end": 158.30295905208334, "pitch": 68, "velocity": 127}, {"start": 158.27727414583333, "end": 159.86973833333332, "pitch": 67, "velocity": 118}, {"start": 187.709589625, "end": 188.078716625, "pitch": 62, "velocity": 101}, {"start": 188.09549512499999, "end": 188.20036075, "pitch": 61, "velocity": 107}, {"start": 188.31781025, "end": 188.40170275, "pitch": 61, "velocity": 103}, {"start": 188.50237375, "end": 188.615628625, "pitch": 60, "velocity": 97}, {"start": 188.682742625, "end": 188.81697062499998, "pitch": 60, "velocity": 93}, {"start": 188.8966685, "end": 188.984755625, "pitch": 61, "velocity": 107}, {"start": 189.08962125, "end": 189.24901699999998, "pitch": 61, "velocity": 95}, {"start": 189.269990125, "end": 189.37485575, "pitch": 62, "velocity": 90}, {"start": 189.46294287499998, "end": 189.647506375, "pitch": 62, "velocity": 100}, {"start": 189.664284875, "end": 189.764955875, "pitch": 61, "velocity": 85}, {"start": 189.865626875, "end": 190.02921725, "pitch": 61, "velocity": 87}, {"start": 190.07955275, "end": 190.41512275, "pitch": 60, "velocity": 97}, {"start": 198.54011137499998, "end": 198.624003875, "pitch": 57, "velocity": 83}, {"start": 198.724674875, "end": 198.800178125, "pitch": 57, "velocity": 83}, {"start": 198.926016875, "end": 199.14413737499999, "pitch": 58, "velocity": 99}, {"start": 199.12316425, "end": 199.35806325, "pitch": 57, "velocity": 70}, {"start": 200.167625875, "end": 200.2389345, "pitch": 57, "velocity": 78}, {"start": 200.36477324999998, "end": 200.50739049999999, "pitch": 57, "velocity": 90}, {"start": 200.54933675, "end": 200.746484125, "pitch": 58, "velocity": 88}, {"start": 200.75067875, "end": 200.855544375, "pitch": 57, "velocity": 76}, {"start": 200.964604625, "end": 201.027524, "pitch": 57, "velocity": 101}, {"start": 201.15336274999999, "end": 201.22467137499999, "pitch": 57, "velocity": 104}, {"start": 201.342120875, "end": 201.526684375, "pitch": 58, "velocity": 107}, {"start": 201.53926825, "end": 201.7154425, "pitch": 57, "velocity": 98}, {"start": 201.75738875, "end": 201.832892, "pitch": 55, "velocity": 107}, {"start": 201.95034149999998, "end": 202.04262325, "pitch": 53, "velocity": 107}, {"start": 202.168462, "end": 202.541783625, "pitch": 52, "velocity": 107}, {"start": 204.63909612499998, "end": 205.008223125, "pitch": 59, "velocity": 107}, {"start": 205.01241775, "end": 205.121478, "pitch": 58, "velocity": 91}, {"start": 205.217954375, "end": 205.327014625, "pitch": 58, "velocity": 99}, {"start": 205.402517875, "end": 205.74647712499998, "pitch": 57, "velocity": 101}, {"start": 205.80100725, "end": 206.13657725, "pitch": 58, "velocity": 103}, {"start": 206.23724825, "end": 206.568623625, "pitch": 59, "velocity": 101}, {"start": 206.597986, "end": 206.67768387499999, "pitch": 58, "velocity": 94}, {"start": 206.79513337499998, "end": 206.8832205, "pitch": 58, "velocity": 87}, {"start": 206.9838915, "end": 207.315266875, "pitch": 57, "velocity": 107}, {"start": 207.382380875, "end": 207.667615375, "pitch": 58, "velocity": 95}, {"start": 215.855523375, "end": 216.01072449999998, "pitch": 59, "velocity": 89}, {"start": 216.056865375, "end": 216.20367725, "pitch": 59, "velocity": 86}, {"start": 216.25401275, "end": 216.4469655, "pitch": 58, "velocity": 87}, {"start": 216.644112875, "end": 216.80770325, "pitch": 57, "velocity": 78}, {"start": 216.845454875, "end": 217.01323987499998, "pitch": 57, "velocity": 78}, {"start": 217.038407625, "end": 217.290085125, "pitch": 58, "velocity": 84}, {"start": 217.47884324999998, "end": 217.5543465, "pitch": 59, "velocity": 84}, {"start": 217.667601375, "end": 217.759883125, "pitch": 59, "velocity": 88}, {"start": 217.839581, "end": 217.9234735, "pitch": 58, "velocity": 80}, {"start": 218.036728375, "end": 218.16676174999998, "pitch": 58, "velocity": 75}, {"start": 218.238070375, "end": 218.544278, "pitch": 57, "velocity": 90}, {"start": 229.97882575, "end": 230.155, "pitch": 55, "velocity": 82}, {"start": 230.1717785, "end": 230.293422625, "pitch": 53, "velocity": 65}, {"start": 230.40248287499998, "end": 230.56607325, "pitch": 58, "velocity": 91}, {"start": 230.57446249999998, "end": 230.66674425, "pitch": 56, "velocity": 77}, {"start": 230.79258299999998, "end": 230.93520024999998, "pitch": 58, "velocity": 95}, {"start": 230.956173375, "end": 231.098790625, "pitch": 56, "velocity": 69}, {"start": 231.18687775, "end": 231.36305199999998, "pitch": 60, "velocity": 105}, {"start": 231.367246625, "end": 231.54342087499998, "pitch": 58, "velocity": 89}, {"start": 231.564394, "end": 231.669259625, "pitch": 63, "velocity": 103}, {"start": 231.7825145, "end": 231.90835325, "pitch": 63, "velocity": 107}, {"start": 231.97546725, "end": 233.85465925, "pitch": 61, "velocity": 99}, {"start": 236.23720624999999, "end": 236.300125625, "pitch": 58, "velocity": 87}, {"start": 236.43854825, "end": 236.50146762499998, "pitch": 58, "velocity": 107}, {"start": 236.631501, "end": 236.72378275, "pitch": 58, "velocity": 107}, {"start": 236.82445374999998, "end": 237.0174065, "pitch": 60, "velocity": 101}, {"start": 237.0174065, "end": 237.09290975, "pitch": 58, "velocity": 77}, {"start": 237.22713775, "end": 237.29425175, "pitch": 58, "velocity": 107}, {"start": 237.4200905, "end": 237.516566875, "pitch": 58, "velocity": 101}, {"start": 237.60465399999998, "end": 237.82277449999998, "pitch": 60, "velocity": 93}, {"start": 237.801801375, "end": 237.9570025, "pitch": 58, "velocity": 84}, {"start": 256.91410265625, "end": 257.1544868229166, "pitch": 68, "velocity": 125}, {"start": 257.20857326041664, "end": 257.43693821874996, "pitch": 68, "velocity": 125}, {"start": 257.4699910416667, "end": 257.74342803125, "pitch": 67, "velocity": 125}, {"start": 257.79751446874997, "end": 258.07395626041665, "pitch": 67, "velocity": 125}, {"start": 258.1160234895833, "end": 258.3293644375, "pitch": 67, "velocity": 123}, {"start": 258.35941245833334, "end": 258.60580622916666, "pitch": 65, "velocity": 125}, {"start": 258.6538830625, "end": 258.9092912395833, "pitch": 65, "velocity": 125}, {"start": 258.94835366666666, "end": 259.1947474375, "pitch": 65, "velocity": 125}, {"start": 259.23681466666665, "end": 259.29991551041667, "pitch": 63, "velocity": 125}, {"start": 259.3359731354166, "end": 259.57034769791665, "pitch": 63, "velocity": 119}, {"start": 259.6394581458333, "end": 260.0090488020833, "pitch": 63, "velocity": 125}, {"start": 260.03909682291663, "end": 260.4146970833333, "pitch": 62, "velocity": 125}, {"start": 260.37563465625, "end": 260.47479312499996, "pitch": 63, "velocity": 110}, {"start": 260.4988315416667, "end": 261.33116171874997, "pitch": 65, "velocity": 125}, {"start": 263.00784128124997, "end": 263.24822544791664, "pitch": 68, "velocity": 125}, {"start": 263.32935510416667, "end": 263.5457008541666, "pitch": 68, "velocity": 125}, {"start": 263.58776808333334, "end": 263.8101234375, "pitch": 67, "velocity": 125}, {"start": 263.8672146770833, "end": 264.14065166666666, "pitch": 67, "velocity": 125}, {"start": 264.1947381041667, "end": 264.41709345833334, "pitch": 67, "velocity": 125}, {"start": 264.4591606875, "end": 264.6995448541667, "pitch": 65, "velocity": 123}, {"start": 264.74461688541663, "end": 265.00903946874996, "pitch": 65, "velocity": 115}, {"start": 265.05711630208333, "end": 265.25843804166664, "pitch": 65, "velocity": 125}, {"start": 265.3005052708333, "end": 265.5168510208333, "pitch": 63, "velocity": 125}, {"start": 265.57093745833333, "end": 265.80831682291665, "pitch": 63, "velocity": 125}, {"start": 265.8684128645833, "end": 266.03367697916667, "pitch": 63, "velocity": 125}, {"start": 266.14485465625, "end": 266.3852388229167, "pitch": 68, "velocity": 125}, {"start": 266.41228204166663, "end": 266.5565125416666, "pitch": 70, "velocity": 117}, {"start": 266.5474981354167, "end": 267.35879469791666, "pitch": 72, "velocity": 125}, {"start": 267.3467754895833, "end": 267.77045258333334, "pitch": 63, "velocity": 113}, {"start": 267.95074070833334, "end": 269.51323779166665, "pitch": 68, "velocity": 125}, {"start": 269.59737225, "end": 270.00302053125, "pitch": 67, "velocity": 125}, {"start": 270.0240541458333, "end": 270.7181634270833, "pitch": 65, "velocity": 125}, {"start": 270.70313941666666, "end": 271.3762150833333, "pitch": 67, "velocity": 125}, {"start": 271.62861845833334, "end": 271.90205544791667, "pitch": 68, "velocity": 125}, {"start": 271.96515629166663, "end": 272.17248763541664, "pitch": 68, "velocity": 125}, {"start": 272.22657407291666, "end": 272.4609486354166, "pitch": 68, "velocity": 125}, {"start": 272.51503507291665, "end": 272.7283760208333, "pitch": 68, "velocity": 123}, {"start": 272.79147686458333, "end": 272.986789, "pitch": 68, "velocity": 123}, {"start": 273.0408754375, "end": 273.22717316666666, "pitch": 67, "velocity": 116}, {"start": 273.1971251458333, "end": 273.2992884166666, "pitch": 65, "velocity": 109}, {"start": 273.3503700520833, "end": 274.19171463541664, "pitch": 65, "velocity": 125}, {"start": 274.1887098333333, "end": 274.60938212499997, "pitch": 67, "velocity": 125}, {"start": 274.81070386458333, "end": 275.03906882291665, "pitch": 63, "velocity": 125}, {"start": 275.1171936770833, "end": 275.19531853125, "pitch": 63, "velocity": 117}, {"start": 275.25841937499996, "end": 275.330534625, "pitch": 63, "velocity": 125}, {"start": 275.3876258645833, "end": 275.50781794791664, "pitch": 63, "velocity": 125}, {"start": 275.52584676041664, "end": 276.29507609374997, "pitch": 65, "velocity": 114}, {"start": 276.52344105208334, "end": 276.69771957291664, "pitch": 63, "velocity": 125}, {"start": 276.78786363541667, "end": 276.85396928125, "pitch": 63, "velocity": 112}, {"start": 276.917070125, "end": 276.98017096875, "pitch": 63, "velocity": 123}, {"start": 277.03425740625, "end": 277.27464157291666, "pitch": 63, "velocity": 125}, {"start": 277.3197136041666, "end": 277.6412274270833, "pitch": 65, "velocity": 123}, {"start": 277.6532466354166, "end": 277.91466441666665, "pitch": 63, "velocity": 125}, {"start": 277.9477172395833, "end": 278.20312541666664, "pitch": 62, "velocity": 108}, {"start": 278.2361782395833, "end": 278.48557681249997, "pitch": 63, "velocity": 125}, {"start": 278.47656240624997, "end": 279.1586524791667, "pitch": 58, "velocity": 113}, {"start": 314.38193225000015, "end": 314.69443193750016, "pitch": 68, "velocity": 97}, {"start": 314.71337131250016, "end": 315.34784037500015, "pitch": 67, "velocity": 90}, {"start": 315.32890100000014, "end": 315.60352193750015, "pitch": 63, "velocity": 86}, {"start": 315.62246131250015, "end": 315.96337006250013, "pitch": 55, "velocity": 82}, {"start": 315.9254913125001, "end": 316.21905162500013, "pitch": 58, "velocity": 82}, {"start": 316.3042788125001, "end": 317.53533818750014, "pitch": 58, "velocity": 70}, {"start": 318.06564068750015, "end": 318.38761006250013, "pitch": 67, "velocity": 92}, {"start": 318.38761006250013, "end": 318.65276131250016, "pitch": 65, "velocity": 91}, {"start": 318.6906400625001, "end": 319.1641244375001, "pitch": 63, "velocity": 77}, {"start": 319.21147287500014, "end": 319.86488131250013, "pitch": 62, "velocity": 80}, {"start": 319.87435100000016, "end": 321.14328912500014, "pitch": 58, "velocity": 76}, {"start": 321.7020006875001, "end": 322.12813662500014, "pitch": 67, "velocity": 92}, {"start": 322.14707600000014, "end": 322.3364697500001, "pitch": 63, "velocity": 80}, {"start": 322.3743485000001, "end": 322.8099541250001, "pitch": 65, "velocity": 89}, {"start": 322.8099541250001, "end": 323.06563568750016, "pitch": 67, "velocity": 81}, {"start": 323.06563568750016, "end": 323.5769988125001, "pitch": 63, "velocity": 73}, {"start": 323.5580594375001, "end": 325.15406648958344, "pitch": 59, "velocity": 80}, {"start": 325.9970148750001, "end": 326.4008606250001, "pitch": 67, "velocity": 84}, {"start": 326.4008606250001, "end": 326.7854756250001, "pitch": 65, "velocity": 80}, {"start": 326.9008601250001, "end": 327.2181675000001, "pitch": 65, "velocity": 82}, {"start": 327.1989367500001, "end": 327.5258595000001, "pitch": 63, "velocity": 76}, {"start": 327.6123978750001, "end": 328.1448496250001, "pitch": 63, "velocity": 77}, {"start": 328.1760996250001, "end": 329.4304021250001, "pitch": 60, "velocity": 72}, {"start": 329.7202571250001, "end": 330.13692368750014, "pitch": 62, "velocity": 72}, {"start": 330.1642307916668, "end": 334.83767450000016, "pitch": 63, "velocity": 70}, {"start": 346.1536060937504, "end": 346.5474089583337, "pitch": 58, "velocity": 51}, {"start": 346.62203579166703, "end": 346.9589872083337, "pitch": 58, "velocity": 49}, {"start": 347.0063356458337, "end": 347.43036383333373, "pitch": 57, "velocity": 54}, {"start": 347.49872320833373, "end": 347.93929672916704, "pitch": 57, "velocity": 59}, {"start": 348.0009428750004, "end": 348.8811382500004, "pitch": 56, "velocity": 61}, {"start": 349.1086477083337, "end": 351.2013785937504, "pitch": 65, "velocity": 55}]'),
(12253, '[{"start": 0.0, "end": 0.11538449999999999, "pitch": 3, "velocity": 1}, {"start": 0.9230759999999999, "end": 1.0384604999999998, "pitch": 3, "velocity": 1}, {"start": 1.8461519999999998, "end": 1.9615364999999998, "pitch": 3, "velocity": 1}, {"start": 2.7692279999999996, "end": 2.8846125, "pitch": 3, "velocity": 1}, {"start": 3.6923039999999996, "end": 3.8076884999999994, "pitch": 3, "velocity": 1}, {"start": 4.153841999999999, "end": 4.413457125, "pitch": 75, "velocity": 127}, {"start": 4.384611, "end": 4.65816841875, "pitch": 77, "velocity": 113}, {"start": 4.615379999999999, "end": 4.91153355, "pitch": 79, "velocity": 116}, {"start": 4.846149, "end": 5.1471102375, "pitch": 77, "velocity": 99}, {"start": 5.076917999999999, "end": 5.318263912499999, "pitch": 75, "velocity": 127}, {"start": 5.307687, "end": 5.585090568749999, "pitch": 74, "velocity": 94}, {"start": 5.538455999999999, "end": 5.9206671562499995, "pitch": 72, "velocity": 127}, {"start": 7.846145999999999, "end": 8.07739576875, "pitch": 75, "velocity": 127}, {"start": 8.076915, "end": 8.34951088125, "pitch": 77, "velocity": 118}, {"start": 8.307683999999998, "end": 8.581722187499999, "pitch": 79, "velocity": 111}, {"start": 8.538452999999999, "end": 8.778837374999998, "pitch": 77, "velocity": 105}, {"start": 8.769222, "end": 9.007683299999998, "pitch": 75, "velocity": 127}, {"start": 8.999991, "end": 9.27835610625, "pitch": 77, "velocity": 116}, {"start": 9.230759999999998, "end": 9.69374030625, "pitch": 75, "velocity": 127}, {"start": 9.692298, "end": 10.043739956249999, "pitch": 72, "velocity": 125}, {"start": 11.535084618749998, "end": 11.806238193749998, "pitch": 75, "velocity": 127}, {"start": 11.77354591875, "end": 11.974026487499998, "pitch": 77, "velocity": 108}, {"start": 11.9846034, "end": 12.265372349999998, "pitch": 79, "velocity": 110}, {"start": 12.217295474999998, "end": 12.526429781249998, "pitch": 77, "velocity": 104}, {"start": 12.489891356249998, "end": 12.748064174999998, "pitch": 75, "velocity": 125}, {"start": 12.714891131249999, "end": 12.998544693749999, "pitch": 77, "velocity": 108}, {"start": 12.963448575, "end": 13.304794387499998, "pitch": 75, "velocity": 120}, {"start": 13.293736706249998, "end": 13.672101712499998, "pitch": 74, "velocity": 93}, {"start": 13.658159418749998, "end": 14.075947462499999, "pitch": 72, "velocity": 116}, {"start": 14.042293649999998, "end": 14.463447074999998, "pitch": 74, "velocity": 102}, {"start": 14.413447124999998, "end": 14.729792962499998, "pitch": 72, "velocity": 103}, {"start": 14.712966056249998, "end": 15.336042356249997, "pitch": 70, "velocity": 105}, {"start": 15.923060999999999, "end": 16.127387718749997, "pitch": 75, "velocity": 127}, {"start": 16.15383, "end": 16.268252962499997, "pitch": 82, "velocity": 127}, {"start": 16.384598999999998, "end": 16.46873353125, "pitch": 79, "velocity": 127}, {"start": 16.615367999999997, "end": 16.824983175, "pitch": 77, "velocity": 127}, {"start": 16.961521499999996, "end": 17.1297905625, "pitch": 79, "velocity": 127}, {"start": 17.769212999999997, "end": 17.865847518749998, "pitch": 75, "velocity": 127}, {"start": 17.999982, "end": 18.115366499999997, "pitch": 82, "velocity": 119}, {"start": 18.230750999999998, "end": 18.32834705625, "pitch": 79, "velocity": 127}, {"start": 18.461519999999997, "end": 18.818731181249998, "pitch": 77, "velocity": 127}, {"start": 19.615364999999997, "end": 19.7336341125, "pitch": 75, "velocity": 127}, {"start": 19.846134, "end": 19.944210825, "pitch": 82, "velocity": 127}, {"start": 20.076902999999998, "end": 20.16103753125, "pitch": 79, "velocity": 127}, {"start": 20.307671999999997, "end": 20.604787087499997, "pitch": 77, "velocity": 127}, {"start": 20.653825499999996, "end": 20.846133, "pitch": 79, "velocity": 127}, {"start": 21.461516999999997, "end": 21.561516899999997, "pitch": 75, "velocity": 127}, {"start": 21.692286, "end": 21.792285899999996, "pitch": 82, "velocity": 127}, {"start": 21.923054999999998, "end": 22.00526645625, "pitch": 79, "velocity": 127}, {"start": 22.153823999999997, "end": 23.0528615625, "pitch": 77, "velocity": 127}, {"start": 23.307668999999997, "end": 23.377380468749998, "pitch": 82, "velocity": 127}, {"start": 23.538437999999996, "end": 23.646610968749997, "pitch": 82, "velocity": 127}, {"start": 23.769206999999998, "end": 23.855264606249996, "pitch": 79, "velocity": 127}, {"start": 23.999975999999997, "end": 24.736994493749997, "pitch": 77, "velocity": 127}, {"start": 25.153820999999997, "end": 25.223051699999996, "pitch": 82, "velocity": 127}, {"start": 25.384589999999996, "end": 25.479301443749996, "pitch": 82, "velocity": 127}, {"start": 25.615358999999998, "end": 25.704301218749997, "pitch": 79, "velocity": 127}, {"start": 25.846127999999997, "end": 26.371608243749996, "pitch": 77, "velocity": 127}, {"start": 26.999972999999997, "end": 27.069684468749998, "pitch": 75, "velocity": 127}, {"start": 27.230741999999996, "end": 27.327857287499995, "pitch": 75, "velocity": 127}, {"start": 27.461510999999998, "end": 27.53122246875, "pitch": 77, "velocity": 127}, {"start": 27.692279999999997, "end": 27.789395287499996, "pitch": 77, "velocity": 127}, {"start": 27.923048999999995, "end": 28.009106606249997, "pitch": 79, "velocity": 127}, {"start": 28.153817999999998, "end": 28.237471762499997, "pitch": 77, "velocity": 127}, {"start": 28.384586999999996, "end": 28.469683068749998, "pitch": 79, "velocity": 127}, {"start": 28.615356, "end": 28.693721306249998, "pitch": 77, "velocity": 127}, {"start": 28.846124999999997, "end": 28.928817224999996, "pitch": 79, "velocity": 127}, {"start": 29.076893999999996, "end": 29.156220843749995, "pitch": 77, "velocity": 127}, {"start": 29.307662999999998, "end": 29.391316762499997, "pitch": 79, "velocity": 127}, {"start": 29.538431999999997, "end": 30.141316012499995, "pitch": 77, "velocity": 127}, {"start": 30.692276999999997, "end": 30.783142293749997, "pitch": 75, "velocity": 127}, {"start": 30.923045999999996, "end": 31.010065143749998, "pitch": 82, "velocity": 127}, {"start": 31.153814999999998, "end": 31.228814925, "pitch": 79, "velocity": 127}, {"start": 31.384583999999997, "end": 31.641795281249998, "pitch": 77, "velocity": 127}, {"start": 31.730737499999996, "end": 31.917275774999997, "pitch": 79, "velocity": 127}, {"start": 32.769197999999996, "end": 32.858140218749995, "pitch": 82, "velocity": 127}, {"start": 32.999967, "end": 33.074966925, "pitch": 79, "velocity": 127}, {"start": 33.23073599999999, "end": 33.54467799375, "pitch": 77, "velocity": 127}, {"start": 33.57688949999999, "end": 33.929292993749996, "pitch": 75, "velocity": 127}, {"start": 34.846118999999995, "end": 35.00284961249999, "pitch": 82, "velocity": 127}, {"start": 35.076888, "end": 35.428329956249996, "pitch": 77, "velocity": 127}, {"start": 35.538425999999994, "end": 35.8586179875, "pitch": 79, "velocity": 127}, {"start": 36.230732999999994, "end": 36.29755985625, "pitch": 75, "velocity": 127}, {"start": 36.461501999999996, "end": 36.5316942375, "pitch": 75, "velocity": 127}, {"start": 36.692271, "end": 36.771597843749994, "pitch": 75, "velocity": 127}, {"start": 36.92303999999999, "end": 37.23698199374999, "pitch": 77, "velocity": 127}, {"start": 37.384578, "end": 37.831692937499994, "pitch": 75, "velocity": 127}, {"start": 38.076885, "end": 38.13794263125, "pitch": 75, "velocity": 127}, {"start": 38.30765399999999, "end": 38.38265392499999, "pitch": 75, "velocity": 127}, {"start": 38.538422999999995, "end": 38.629769062499996, "pitch": 75, "velocity": 127}, {"start": 38.769192, "end": 39.137941631249994, "pitch": 80, "velocity": 127}, {"start": 39.230729999999994, "end": 39.775440993749996, "pitch": 79, "velocity": 127}, {"start": 39.923036999999994, "end": 39.99611384999999, "pitch": 75, "velocity": 127}, {"start": 40.153805999999996, "end": 40.22784438749999, "pitch": 75, "velocity": 127}, {"start": 40.384575, "end": 40.47784413749999, "pitch": 75, "velocity": 127}, {"start": 40.61534399999999, "end": 41.076882, "pitch": 77, "velocity": 127}, {"start": 41.076882, "end": 41.538419999999995, "pitch": 75, "velocity": 100}, {"start": 41.769189, "end": 41.89082349375, "pitch": 75, "velocity": 127}, {"start": 41.99995799999999, "end": 42.33024613124999, "pitch": 77, "velocity": 127}, {"start": 42.461496, "end": 42.8201494875, "pitch": 77, "velocity": 127}, {"start": 42.923033999999994, "end": 43.007168531249995, "pitch": 77, "velocity": 127}, {"start": 43.153802999999996, "end": 43.23793753125, "pitch": 77, "velocity": 127}, {"start": 43.384572, "end": 43.47207191249999, "pitch": 77, "velocity": 127}, {"start": 43.615340999999994, "end": 43.704763987499994, "pitch": 77, "velocity": 127}, {"start": 43.846109999999996, "end": 43.9355329875, "pitch": 77, "velocity": 127}, {"start": 44.076879, "end": 44.397551756249996, "pitch": 79, "velocity": 127}, {"start": 44.538416999999995, "end": 44.99995499999999, "pitch": 77, "velocity": 127}, {"start": 44.99995499999999, "end": 45.07495492499999, "pitch": 75, "velocity": 127}, {"start": 45.230723999999995, "end": 45.322070062499996, "pitch": 75, "velocity": 127}, {"start": 45.461493, "end": 45.54610829999999, "pitch": 77, "velocity": 127}, {"start": 45.69226199999999, "end": 45.99370400624999, "pitch": 75, "velocity": 127}, {"start": 46.1538, "end": 46.46149199999999, "pitch": 79, "velocity": 127}, {"start": 46.615337999999994, "end": 46.89658771874999, "pitch": 77, "velocity": 127}, {"start": 47.07687599999999, "end": 47.40187567499999, "pitch": 79, "velocity": 127}, {"start": 47.538413999999996, "end": 47.64947158125, "pitch": 77, "velocity": 127}, {"start": 47.769183, "end": 48.10331728124999, "pitch": 79, "velocity": 127}, {"start": 48.230720999999996, "end": 48.596586018749996, "pitch": 77, "velocity": 127}, {"start": 48.576874499999995, "end": 49.156681612499995, "pitch": 82, "velocity": 127}, {"start": 49.38456599999999, "end": 49.68408493124999, "pitch": 75, "velocity": 127}, {"start": 49.846104, "end": 50.15139215625, "pitch": 79, "velocity": 127}, {"start": 50.307641999999994, "end": 50.60187247499999, "pitch": 77, "velocity": 127}, {"start": 50.76917999999999, "end": 51.0989873625, "pitch": 79, "velocity": 127}, {"start": 51.230717999999996, "end": 51.526390781249994, "pitch": 77, "velocity": 127}, {"start": 51.69225599999999, "end": 52.00571722499999, "pitch": 79, "velocity": 127}, {"start": 52.15379399999999, "end": 52.28985155624999, "pitch": 77, "velocity": 127}, {"start": 52.38456299999999, "end": 52.85715868124999, "pitch": 84, "velocity": 127}, {"start": 53.073985387499995, "end": 53.405715824999994, "pitch": 75, "velocity": 127}, {"start": 53.55138875624999, "end": 53.85331153124999, "pitch": 79, "velocity": 127}, {"start": 53.987446012499994, "end": 54.31292645625, "pitch": 77, "velocity": 127}, {"start": 54.464368612499996, "end": 54.79177213124999, "pitch": 79, "velocity": 127}, {"start": 54.92398353749999, "end": 55.017252674999995, "pitch": 77, "velocity": 127}, {"start": 55.149464081249995, "end": 55.49994449999999, "pitch": 79, "velocity": 127}, {"start": 55.577829037499995, "end": 55.987924781249994, "pitch": 77, "velocity": 127}, {"start": 56.04080934374999, "end": 56.55138575624999, "pitch": 82, "velocity": 127}, {"start": 57.230712, "end": 57.328788825, "pitch": 79, "velocity": 127}, {"start": 57.46148099999999, "end": 57.55955782499999, "pitch": 77, "velocity": 127}, {"start": 57.692249999999994, "end": 58.006191993749994, "pitch": 79, "velocity": 127}, {"start": 58.15378799999999, "end": 58.241768681249994, "pitch": 79, "velocity": 127}, {"start": 58.384556999999994, "end": 58.73744126249999, "pitch": 79, "velocity": 127}, {"start": 58.84609499999999, "end": 59.07686399999999, "pitch": 79, "velocity": 127}, {"start": 59.07686399999999, "end": 59.414844431249996, "pitch": 77, "velocity": 127}, {"start": 59.53840199999999, "end": 59.74032487499999, "pitch": 77, "velocity": 127}, {"start": 59.76917099999999, "end": 60.135516787499995, "pitch": 75, "velocity": 127}, {"start": 60.92301599999999, "end": 61.23070799999999, "pitch": 79, "velocity": 127}, {"start": 61.384553999999994, "end": 61.66580371874999, "pitch": 77, "velocity": 127}, {"start": 61.84609199999999, "end": 62.17109167499999, "pitch": 79, "velocity": 127}, {"start": 62.307629999999996, "end": 62.41868758124999, "pitch": 77, "velocity": 127}, {"start": 62.53839899999999, "end": 62.87253328124999, "pitch": 79, "velocity": 127}, {"start": 62.999936999999996, "end": 63.365802018749996, "pitch": 77, "velocity": 127}, {"start": 63.346090499999995, "end": 63.925897612499995, "pitch": 82, "velocity": 127}, {"start": 64.15378199999999, "end": 64.45330093125, "pitch": 75, "velocity": 127}, {"start": 64.61532, "end": 64.92060815625, "pitch": 79, "velocity": 127}, {"start": 65.07685799999999, "end": 65.371088475, "pitch": 77, "velocity": 127}, {"start": 65.53839599999999, "end": 65.8682033625, "pitch": 79, "velocity": 127}, {"start": 65.999934, "end": 66.29560678124999, "pitch": 77, "velocity": 127}, {"start": 66.46147199999999, "end": 66.774933225, "pitch": 79, "velocity": 127}, {"start": 66.92300999999999, "end": 67.05906755624999, "pitch": 77, "velocity": 127}, {"start": 67.15377899999999, "end": 67.62637468125, "pitch": 84, "velocity": 127}, {"start": 67.84320138749999, "end": 68.17493182499999, "pitch": 75, "velocity": 127}, {"start": 68.32060475624999, "end": 68.62252753124999, "pitch": 79, "velocity": 127}, {"start": 68.75666201249999, "end": 69.08214245625, "pitch": 77, "velocity": 127}, {"start": 69.2335846125, "end": 69.56098813124999, "pitch": 79, "velocity": 127}, {"start": 69.69319953749999, "end": 69.786468675, "pitch": 77, "velocity": 127}, {"start": 69.91868008124999, "end": 70.2691605, "pitch": 79, "velocity": 127}, {"start": 70.3470450375, "end": 70.75714078124999, "pitch": 77, "velocity": 127}, {"start": 70.81002534375, "end": 71.32060175624999, "pitch": 82, "velocity": 127}, {"start": 71.999928, "end": 72.09800482499999, "pitch": 79, "velocity": 127}, {"start": 72.23069699999999, "end": 72.328773825, "pitch": 77, "velocity": 127}, {"start": 72.46146599999999, "end": 72.77540799375, "pitch": 79, "velocity": 127}, {"start": 72.92300399999999, "end": 73.01098468125, "pitch": 79, "velocity": 127}, {"start": 73.15377299999999, "end": 73.50665726249998, "pitch": 79, "velocity": 127}, {"start": 73.61531099999999, "end": 73.84607999999999, "pitch": 79, "velocity": 127}, {"start": 73.84607999999999, "end": 74.18406043124999, "pitch": 77, "velocity": 127}, {"start": 74.30761799999999, "end": 74.50954087499998, "pitch": 77, "velocity": 127}, {"start": 74.53838699999999, "end": 74.9047327875, "pitch": 75, "velocity": 127}, {"start": 75.23069399999999, "end": 75.63453974999999, "pitch": 79, "velocity": 127}, {"start": 75.69223199999999, "end": 75.95665481249999, "pitch": 79, "velocity": 127}, {"start": 76.38453899999999, "end": 76.46290430625, "pitch": 75, "velocity": 127}, {"start": 76.61530799999998, "end": 76.69463484375, "pitch": 75, "velocity": 127}, {"start": 76.846077, "end": 76.92924999374999, "pitch": 75, "velocity": 127}, {"start": 77.07684599999999, "end": 77.23309584375, "pitch": 82, "velocity": 127}, {"start": 77.307615, "end": 77.4104995125, "pitch": 79, "velocity": 127}, {"start": 77.538384, "end": 77.81963371875, "pitch": 77, "velocity": 127}, {"start": 77.8845375, "end": 78.34559473124999, "pitch": 75, "velocity": 127}, {"start": 78.692229, "end": 78.76674815624999, "pitch": 75, "velocity": 127}, {"start": 78.92299799999999, "end": 78.99944023124999, "pitch": 75, "velocity": 127}, {"start": 79.15376699999999, "end": 79.2489592125, "pitch": 75, "velocity": 127}, {"start": 79.384536, "end": 79.65088188749999, "pitch": 80, "velocity": 127}, {"start": 79.61530499999999, "end": 79.69751645624999, "pitch": 79, "velocity": 127}, {"start": 79.84607399999999, "end": 79.93790083124999, "pitch": 75, "velocity": 127}, {"start": 80.076843, "end": 80.33549658749999, "pitch": 80, "velocity": 127}, {"start": 80.30761199999999, "end": 80.38453499999999, "pitch": 79, "velocity": 127}, {"start": 80.53838099999999, "end": 80.62155399374998, "pitch": 79, "velocity": 127}, {"start": 80.76915, "end": 80.84559223125, "pitch": 77, "velocity": 127}, {"start": 80.99991899999999, "end": 81.08549583749999, "pitch": 75, "velocity": 127}, {"start": 81.23068799999999, "end": 81.48501466875, "pitch": 77, "velocity": 127}, {"start": 81.57684149999999, "end": 82.02011028749999, "pitch": 75, "velocity": 127}, {"start": 82.38453299999999, "end": 82.45184062499999, "pitch": 75, "velocity": 127}, {"start": 82.4999175, "end": 82.57732126875, "pitch": 75, "velocity": 127}, {"start": 82.61530199999999, "end": 82.69847499375, "pitch": 75, "velocity": 127}, {"start": 82.846071, "end": 82.9278016875, "pitch": 75, "velocity": 127}, {"start": 83.07683999999999, "end": 83.42058965624999, "pitch": 79, "velocity": 127}, {"start": 83.538378, "end": 83.86481998125, "pitch": 79, "velocity": 127}, {"start": 84.46145399999999, "end": 84.67203071249999, "pitch": 75, "velocity": 127}, {"start": 84.69222299999998, "end": 84.79703058749999, "pitch": 72, "velocity": 127}, {"start": 84.922992, "end": 85.13260717499999, "pitch": 79, "velocity": 127}, {"start": 85.2691455, "end": 85.33693389374999, "pitch": 77, "velocity": 127}, {"start": 85.38452999999998, "end": 85.71481813124998, "pitch": 79, "velocity": 127}, {"start": 86.07683699999998, "end": 86.15279846249999, "pitch": 75, "velocity": 127}, {"start": 86.30760599999999, "end": 86.39991359999999, "pitch": 75, "velocity": 127}, {"start": 86.53837499999999, "end": 86.61385569375, "pitch": 77, "velocity": 127}, {"start": 86.769144, "end": 87.082605225, "pitch": 79, "velocity": 127}, {"start": 87.23068199999999, "end": 87.29847039375, "pitch": 77, "velocity": 127}, {"start": 87.461451, "end": 87.76577761875, "pitch": 77, "velocity": 127}, {"start": 87.92298899999999, "end": 88.00183507499999, "pitch": 75, "velocity": 127}, {"start": 88.153758, "end": 88.24462329375, "pitch": 75, "velocity": 127}, {"start": 88.38452699999999, "end": 88.46289230624998, "pitch": 77, "velocity": 127}, {"start": 88.61529599999999, "end": 88.917218775, "pitch": 79, "velocity": 127}, {"start": 89.07683399999999, "end": 89.14991084999998, "pitch": 77, "velocity": 127}, {"start": 89.30760299999999, "end": 89.60808346875, "pitch": 77, "velocity": 127}, {"start": 89.76914099999999, "end": 89.85135245624998, "pitch": 75, "velocity": 127}, {"start": 89.99990999999999, "end": 90.10279451249998, "pitch": 75, "velocity": 127}, {"start": 90.230679, "end": 90.43596725625, "pitch": 77, "velocity": 127}, {"start": 90.46144799999999, "end": 90.74990924999999, "pitch": 79, "velocity": 100}, {"start": 90.922986, "end": 91.32731251874999, "pitch": 75, "velocity": 127}, {"start": 91.84606199999999, "end": 92.03115796875, "pitch": 75, "velocity": 127}, {"start": 92.07683099999998, "end": 92.16336937499999, "pitch": 77, "velocity": 123}, {"start": 92.3076, "end": 92.54990744999999, "pitch": 79, "velocity": 127}, {"start": 92.76913799999998, "end": 93.11721457499999, "pitch": 79, "velocity": 127}, {"start": 93.69221399999999, "end": 93.77827160624999, "pitch": 75, "velocity": 127}, {"start": 93.92298299999999, "end": 94.00327138124999, "pitch": 77, "velocity": 127}, {"start": 94.15375199999998, "end": 94.23355961249999, "pitch": 79, "velocity": 127}, {"start": 94.38452099999999, "end": 94.46913629999999, "pitch": 79, "velocity": 127}, {"start": 94.61528999999999, "end": 94.69990529999998, "pitch": 77, "velocity": 127}, {"start": 94.84605899999998, "end": 94.93932813749998, "pitch": 75, "velocity": 127}, {"start": 95.07682799999999, "end": 95.15375099999999, "pitch": 79, "velocity": 127}, {"start": 95.30759699999999, "end": 95.38692384374998, "pitch": 79, "velocity": 127}, {"start": 95.538366, "end": 95.62105822499998, "pitch": 77, "velocity": 127}, {"start": 95.76913499999999, "end": 95.85423106875, "pitch": 75, "velocity": 127}, {"start": 95.99990399999999, "end": 96.32105752499999, "pitch": 77, "velocity": 127}, {"start": 96.46144199999999, "end": 96.84749930624999, "pitch": 75, "velocity": 127}, {"start": 97.38451799999999, "end": 97.47009483749999, "pitch": 75, "velocity": 127}, {"start": 97.615287, "end": 97.690286925, "pitch": 77, "velocity": 127}, {"start": 97.84605599999999, "end": 98.28355556249998, "pitch": 79, "velocity": 127}, {"start": 98.53836299999999, "end": 98.9537472, "pitch": 75, "velocity": 127}, {"start": 99.23066999999999, "end": 99.72441950624999, "pitch": 70, "velocity": 127}, {"start": 99.92297699999999, "end": 100.53018793124998, "pitch": 68, "velocity": 127}, {"start": 100.84605299999998, "end": 100.9162452375, "pitch": 79, "velocity": 126}, {"start": 101.07682199999999, "end": 101.15086038749999, "pitch": 79, "velocity": 127}, {"start": 101.30759099999999, "end": 101.37826400624999, "pitch": 79, "velocity": 127}, {"start": 101.53835999999998, "end": 101.8412443125, "pitch": 79, "velocity": 127}, {"start": 101.99989799999999, "end": 102.08403253124999, "pitch": 77, "velocity": 127}, {"start": 102.23066699999998, "end": 102.52730131874999, "pitch": 79, "velocity": 127}, {"start": 102.69220499999999, "end": 102.76047416249999, "pitch": 79, "velocity": 127}, {"start": 102.92297399999998, "end": 103.01672390625, "pitch": 79, "velocity": 127}, {"start": 103.15374299999999, "end": 103.46720422499999, "pitch": 77, "velocity": 127}, {"start": 103.61528099999998, "end": 103.69076169374999, "pitch": 75, "velocity": 127}, {"start": 103.84604999999999, "end": 103.93354991249998, "pitch": 75, "velocity": 127}, {"start": 104.07681899999999, "end": 104.15662661249999, "pitch": 77, "velocity": 127}, {"start": 104.30758799999998, "end": 104.42056865624998, "pitch": 75, "velocity": 127}, {"start": 104.53835699999999, "end": 104.65422226874999, "pitch": 77, "velocity": 127}, {"start": 104.76912599999999, "end": 104.94220274999999, "pitch": 75, "velocity": 127}, {"start": 104.999895, "end": 105.17297174999999, "pitch": 77, "velocity": 127}, {"start": 105.23066399999999, "end": 105.538356, "pitch": 79, "velocity": 127}, {"start": 105.692202, "end": 105.97345171874998, "pitch": 77, "velocity": 127}, {"start": 106.15373999999998, "end": 106.47873967499999, "pitch": 79, "velocity": 127}, {"start": 106.61527799999999, "end": 106.72633558124998, "pitch": 77, "velocity": 127}, {"start": 106.84604699999998, "end": 107.18018128124999, "pitch": 79, "velocity": 127}, {"start": 107.30758499999999, "end": 107.67345001874999, "pitch": 77, "velocity": 127}, {"start": 107.65373849999999, "end": 108.23354561249998, "pitch": 82, "velocity": 127}, {"start": 108.46143, "end": 108.76094893124998, "pitch": 75, "velocity": 127}, {"start": 108.92296799999998, "end": 109.22825615624998, "pitch": 79, "velocity": 127}, {"start": 109.38450599999999, "end": 109.678736475, "pitch": 77, "velocity": 127}, {"start": 109.84604399999999, "end": 110.17585136249998, "pitch": 79, "velocity": 127}, {"start": 110.30758199999998, "end": 110.60325478124999, "pitch": 77, "velocity": 127}, {"start": 110.76911999999999, "end": 111.08258122499998, "pitch": 79, "velocity": 127}, {"start": 111.23065799999999, "end": 111.36671555624999, "pitch": 77, "velocity": 127}, {"start": 111.46142699999999, "end": 111.93402268124998, "pitch": 84, "velocity": 127}, {"start": 112.15084938749999, "end": 112.48257982499999, "pitch": 75, "velocity": 127}, {"start": 112.62825275624999, "end": 112.93017553124999, "pitch": 79, "velocity": 127}, {"start": 113.06431001249999, "end": 113.38979045624998, "pitch": 77, "velocity": 127}, {"start": 113.54123261249998, "end": 113.86863613124999, "pitch": 79, "velocity": 127}, {"start": 114.0008475375, "end": 114.09411667499998, "pitch": 77, "velocity": 127}, {"start": 114.22632808124999, "end": 114.57680849999998, "pitch": 79, "velocity": 127}, {"start": 114.65469303749998, "end": 115.06478878124999, "pitch": 77, "velocity": 127}, {"start": 115.11767334374998, "end": 115.62824975624999, "pitch": 82, "velocity": 127}, {"start": 116.30757599999998, "end": 116.40565282499999, "pitch": 79, "velocity": 127}, {"start": 116.53834499999999, "end": 116.63642182499999, "pitch": 77, "velocity": 127}, {"start": 116.76911399999999, "end": 117.08305599374998, "pitch": 79, "velocity": 127}, {"start": 117.23065199999999, "end": 117.31863268124998, "pitch": 79, "velocity": 127}, {"start": 117.46142099999999, "end": 117.81430526249999, "pitch": 79, "velocity": 127}, {"start": 117.92295899999999, "end": 118.15372799999999, "pitch": 79, "velocity": 127}, {"start": 118.15372799999999, "end": 118.49170843124999, "pitch": 77, "velocity": 127}, {"start": 118.61526599999999, "end": 118.81718887499999, "pitch": 77, "velocity": 127}, {"start": 118.84603499999999, "end": 119.21238078749998, "pitch": 75, "velocity": 127}, {"start": 119.99987999999999, "end": 120.307572, "pitch": 79, "velocity": 127}, {"start": 120.46141799999998, "end": 120.74266771874998, "pitch": 77, "velocity": 127}, {"start": 120.92295599999999, "end": 121.24795567499999, "pitch": 79, "velocity": 127}, {"start": 121.38449399999999, "end": 121.49555158124998, "pitch": 77, "velocity": 127}, {"start": 121.61526299999998, "end": 121.94939728124999, "pitch": 79, "velocity": 127}, {"start": 122.07680099999999, "end": 122.44266601874999, "pitch": 77, "velocity": 127}, {"start": 122.42295449999999, "end": 123.00276161249998, "pitch": 82, "velocity": 127}, {"start": 123.230646, "end": 123.53016493124998, "pitch": 75, "velocity": 127}, {"start": 123.69218399999998, "end": 123.99747215624998, "pitch": 79, "velocity": 127}, {"start": 124.15372199999999, "end": 124.44795247499998, "pitch": 77, "velocity": 127}, {"start": 124.61525999999999, "end": 124.94506736249998, "pitch": 79, "velocity": 127}, {"start": 125.07679799999998, "end": 125.37247078124999, "pitch": 77, "velocity": 127}, {"start": 125.53833599999999, "end": 125.85179722499998, "pitch": 79, "velocity": 127}, {"start": 125.99987399999999, "end": 126.13593155624999, "pitch": 77, "velocity": 127}, {"start": 126.23064299999999, "end": 126.70323868124999, "pitch": 84, "velocity": 127}, {"start": 126.92006538749999, "end": 127.25179582499999, "pitch": 75, "velocity": 127}, {"start": 127.39746875624999, "end": 127.69939153124999, "pitch": 79, "velocity": 127}, {"start": 127.83352601249999, "end": 128.15900645624998, "pitch": 77, "velocity": 127}, {"start": 128.31044861249998, "end": 128.63785213124999, "pitch": 79, "velocity": 127}, {"start": 128.7700635375, "end": 128.86333267499998, "pitch": 77, "velocity": 127}, {"start": 128.99554408125, "end": 129.3460245, "pitch": 79, "velocity": 127}, {"start": 129.42390903749998, "end": 129.83400478124997, "pitch": 77, "velocity": 127}, {"start": 129.88688934375, "end": 130.39746575624997, "pitch": 82, "velocity": 127}, {"start": 131.07679199999998, "end": 131.17486882499998, "pitch": 79, "velocity": 127}, {"start": 131.307561, "end": 131.40563782499999, "pitch": 77, "velocity": 127}, {"start": 131.53832999999997, "end": 131.85227199374998, "pitch": 79, "velocity": 127}, {"start": 131.999868, "end": 132.08784868125, "pitch": 79, "velocity": 127}, {"start": 132.23063699999997, "end": 132.58352126249997, "pitch": 79, "velocity": 127}, {"start": 132.692175, "end": 132.92294399999997, "pitch": 79, "velocity": 127}, {"start": 132.92294399999997, "end": 133.26092443124998, "pitch": 77, "velocity": 127}, {"start": 133.384482, "end": 133.58640487499997, "pitch": 77, "velocity": 127}, {"start": 133.61525099999997, "end": 133.9815967875, "pitch": 75, "velocity": 127}, {"start": 134.769096, "end": 134.83303824375, "pitch": 15, "velocity": 109}, {"start": 136.61524799999998, "end": 136.67919024374999, "pitch": 15, "velocity": 80}, {"start": 138.4614, "end": 138.54409222499999, "pitch": 15, "velocity": 98}, {"start": 140.307552, "end": 140.39072499374998, "pitch": 15, "velocity": 79}, {"start": 142.15370399999998, "end": 142.22966546249998, "pitch": 15, "velocity": 104}, {"start": 143.999856, "end": 144.09360590625, "pitch": 15, "velocity": 91}, {"start": 145.84600799999998, "end": 145.94071944374997, "pitch": 15, "velocity": 92}, {"start": 147.69215999999997, "end": 147.75610224374998, "pitch": 15, "velocity": 81}, {"start": 147.69215999999997, "end": 147.75610224374998, "pitch": 15, "velocity": 109}, {"start": 149.538312, "end": 149.60225424375, "pitch": 15, "velocity": 80}, {"start": 151.38446399999998, "end": 151.467156225, "pitch": 15, "velocity": 98}, {"start": 153.23061599999997, "end": 153.31378899375, "pitch": 15, "velocity": 79}, {"start": 155.076768, "end": 155.1527294625, "pitch": 15, "velocity": 104}, {"start": 156.92291999999998, "end": 157.01666990624997, "pitch": 15, "velocity": 91}, {"start": 158.769072, "end": 158.86378344374998, "pitch": 15, "velocity": 92}, {"start": 160.61522399999998, "end": 160.70368545, "pitch": 15, "velocity": 81}, {"start": 164.307528, "end": 164.61522, "pitch": 79, "velocity": 127}, {"start": 164.76906599999998, "end": 165.05031571874997, "pitch": 77, "velocity": 127}, {"start": 165.23060399999997, "end": 165.555603675, "pitch": 79, "velocity": 127}, {"start": 165.692142, "end": 165.80319958124997, "pitch": 77, "velocity": 127}, {"start": 165.92291099999997, "end": 166.25704528125, "pitch": 79, "velocity": 127}, {"start": 166.384449, "end": 166.75031401874998, "pitch": 77, "velocity": 127}, {"start": 166.73060249999997, "end": 167.31040961249997, "pitch": 82, "velocity": 127}, {"start": 167.53829399999998, "end": 167.83781293124997, "pitch": 75, "velocity": 127}, {"start": 167.99983199999997, "end": 168.30512015624998, "pitch": 79, "velocity": 127}, {"start": 168.46137, "end": 168.755600475, "pitch": 77, "velocity": 127}, {"start": 168.92290799999998, "end": 169.25271536249997, "pitch": 79, "velocity": 127}, {"start": 169.38444599999997, "end": 169.68011878124997, "pitch": 77, "velocity": 127}, {"start": 169.845984, "end": 170.15944522499998, "pitch": 79, "velocity": 127}, {"start": 170.30752199999998, "end": 170.44357955624997, "pitch": 77, "velocity": 127}, {"start": 170.538291, "end": 171.01088668124999, "pitch": 84, "velocity": 127}, {"start": 171.2277133875, "end": 171.559443825, "pitch": 75, "velocity": 127}, {"start": 171.70511675625, "end": 172.00703953124997, "pitch": 79, "velocity": 127}, {"start": 172.1411740125, "end": 172.46665445624998, "pitch": 77, "velocity": 127}, {"start": 172.61809661249998, "end": 172.94550013125, "pitch": 79, "velocity": 127}, {"start": 173.0777115375, "end": 173.17098067499998, "pitch": 77, "velocity": 127}, {"start": 173.30319208125, "end": 173.65367249999997, "pitch": 79, "velocity": 127}, {"start": 173.73155703749998, "end": 174.14165278124997, "pitch": 77, "velocity": 127}, {"start": 174.19453734374997, "end": 174.70511375624997, "pitch": 82, "velocity": 127}, {"start": 175.38443999999998, "end": 175.48251682499998, "pitch": 79, "velocity": 127}, {"start": 175.615209, "end": 175.71328582499999, "pitch": 77, "velocity": 127}, {"start": 175.84597799999997, "end": 176.15991999374998, "pitch": 79, "velocity": 127}, {"start": 176.307516, "end": 176.39549668124997, "pitch": 79, "velocity": 127}, {"start": 176.53828499999997, "end": 176.89116926249997, "pitch": 79, "velocity": 127}, {"start": 176.999823, "end": 177.23059199999997, "pitch": 79, "velocity": 127}, {"start": 177.23059199999997, "end": 177.56857243124998, "pitch": 77, "velocity": 127}, {"start": 177.69213, "end": 177.89405287499997, "pitch": 77, "velocity": 127}, {"start": 177.92289899999997, "end": 178.28924478749997, "pitch": 75, "velocity": 127}, {"start": 179.076744, "end": 179.384436, "pitch": 79, "velocity": 127}, {"start": 179.53828199999998, "end": 179.81953171874997, "pitch": 77, "velocity": 127}, {"start": 179.99981999999997, "end": 180.324819675, "pitch": 79, "velocity": 127}, {"start": 180.461358, "end": 180.57241558124997, "pitch": 77, "velocity": 127}, {"start": 180.69212699999997, "end": 181.02626128125, "pitch": 79, "velocity": 127}, {"start": 181.153665, "end": 181.51953001874998, "pitch": 77, "velocity": 127}, {"start": 181.49981849999998, "end": 182.07962561249997, "pitch": 82, "velocity": 127}, {"start": 182.30750999999998, "end": 182.60702893124997, "pitch": 75, "velocity": 127}, {"start": 182.76904799999997, "end": 183.07433615624998, "pitch": 79, "velocity": 127}, {"start": 183.230586, "end": 183.52481647499997, "pitch": 77, "velocity": 127}, {"start": 183.69212399999998, "end": 184.02193136249997, "pitch": 79, "velocity": 127}, {"start": 184.15366199999997, "end": 184.44933478124997, "pitch": 77, "velocity": 127}, {"start": 184.6152, "end": 184.92866122499998, "pitch": 79, "velocity": 127}, {"start": 185.07673799999998, "end": 185.21279555624997, "pitch": 77, "velocity": 127}, {"start": 185.307507, "end": 185.78010268124999, "pitch": 84, "velocity": 127}, {"start": 185.9969293875, "end": 186.328659825, "pitch": 75, "velocity": 127}, {"start": 186.47433275625, "end": 186.77625553124997, "pitch": 79, "velocity": 127}, {"start": 186.9103900125, "end": 187.23587045624998, "pitch": 77, "velocity": 127}, {"start": 187.38731261249998, "end": 187.71471613125, "pitch": 79, "velocity": 127}, {"start": 187.84692753749997, "end": 187.94019667499998, "pitch": 77, "velocity": 127}, {"start": 188.07240808125, "end": 188.42288849999997, "pitch": 79, "velocity": 127}, {"start": 188.50077303749998, "end": 188.91086878124997, "pitch": 77, "velocity": 127}, {"start": 188.96375334374997, "end": 189.47432975624997, "pitch": 82, "velocity": 127}, {"start": 190.15365599999998, "end": 190.25173282499998, "pitch": 79, "velocity": 127}, {"start": 190.38442499999996, "end": 190.48250182499999, "pitch": 77, "velocity": 127}, {"start": 190.61519399999997, "end": 190.92913599374998, "pitch": 79, "velocity": 127}, {"start": 191.076732, "end": 191.16471268124997, "pitch": 79, "velocity": 127}, {"start": 191.30750099999997, "end": 191.66038526249997, "pitch": 79, "velocity": 127}, {"start": 191.769039, "end": 191.99980799999997, "pitch": 79, "velocity": 127}, {"start": 191.99980799999997, "end": 192.33778843124998, "pitch": 77, "velocity": 127}, {"start": 192.461346, "end": 192.66326887499997, "pitch": 77, "velocity": 127}, {"start": 192.69211499999997, "end": 192.80749949999998, "pitch": 75, "velocity": 127}, {"start": 192.69211499999997, "end": 192.93874936874997, "pitch": 70, "velocity": 127}, {"start": 192.92288399999998, "end": 193.27721056874998, "pitch": 74, "velocity": 127}, {"start": 193.38442199999997, "end": 193.69355630624997, "pitch": 75, "velocity": 127}, {"start": 193.84596, "end": 194.2123057875, "pitch": 75, "velocity": 127}, {"start": 196.38441899999998, "end": 196.644034125, "pitch": 70, "velocity": 127}, {"start": 196.615188, "end": 197.04018757499998, "pitch": 74, "velocity": 127}, {"start": 197.07672599999998, "end": 197.36614878749998, "pitch": 75, "velocity": 127}, {"start": 197.53826399999997, "end": 197.87384058749998, "pitch": 75, "velocity": 127}, {"start": 200.076723, "end": 200.32047275624998, "pitch": 70, "velocity": 127}, {"start": 200.30749199999997, "end": 200.74114541249998, "pitch": 74, "velocity": 127}, {"start": 200.76903, "end": 201.105568125, "pitch": 75, "velocity": 127}, {"start": 201.23056799999998, "end": 201.58489456874997, "pitch": 75, "velocity": 127}, {"start": 203.76902699999997, "end": 204.02960366249997, "pitch": 70, "velocity": 127}, {"start": 203.99979599999998, "end": 204.47239168124997, "pitch": 74, "velocity": 127}, {"start": 204.46133399999997, "end": 204.80892980624998, "pitch": 75, "velocity": 127}, {"start": 204.92287199999998, "end": 205.27575626249998, "pitch": 77, "velocity": 127}, {"start": 205.61517899999998, "end": 205.9122940875, "pitch": 79, "velocity": 127}, {"start": 205.84594799999996, "end": 206.12864002499998, "pitch": 77, "velocity": 127}, {"start": 206.53825499999996, "end": 206.82863932499998, "pitch": 79, "velocity": 127}, {"start": 206.76902399999997, "end": 207.05123525624998, "pitch": 77, "velocity": 127}, {"start": 207.69209999999998, "end": 208.14786877499998, "pitch": 74, "velocity": 127}, {"start": 208.15363799999997, "end": 208.49498381249998, "pitch": 75, "velocity": 127}, {"start": 208.61517599999996, "end": 209.01469483124998, "pitch": 75, "velocity": 127}]'),
(8109, '[{"start": 9.75, "end": 9.9, "pitch": 63, "velocity": 95}, {"start": 9.9, "end": 10.05, "pitch": 63, "velocity": 95}, {"start": 10.05, "end": 10.200000000000001, "pitch": 63, "velocity": 95}, {"start": 10.200000000000001, "end": 10.35, "pitch": 63, "velocity": 95}, {"start": 10.35, "end": 10.5, "pitch": 63, "velocity": 95}, {"start": 10.5, "end": 10.65, "pitch": 63, "velocity": 95}, {"start": 10.65, "end": 10.950000000000001, "pitch": 65, "velocity": 95}, {"start": 10.950000000000001, "end": 11.1, "pitch": 65, "velocity": 95}, {"start": 11.1, "end": 11.4, "pitch": 63, "velocity": 95}, {"start": 11.4, "end": 11.55, "pitch": 60, "velocity": 95}, {"start": 11.55, "end": 11.700000000000001, "pitch": 60, "velocity": 95}, {"start": 11.700000000000001, "end": 12.0, "pitch": 63, "velocity": 95}, {"start": 14.55, "end": 14.700000000000001, "pitch": 60, "velocity": 95}, {"start": 14.700000000000001, "end": 14.85, "pitch": 60, "velocity": 95}, {"start": 14.85, "end": 15.0, "pitch": 60, "velocity": 95}, {"start": 15.0, "end": 15.15, "pitch": 60, "velocity": 95}, {"start": 15.15, "end": 15.3, "pitch": 60, "velocity": 95}, {"start": 15.3, "end": 15.450000000000001, "pitch": 60, "velocity": 95}, {"start": 15.450000000000001, "end": 15.75, "pitch": 61, "velocity": 95}, {"start": 15.75, "end": 15.9, "pitch": 61, "velocity": 95}, {"start": 15.9, "end": 16.2, "pitch": 60, "velocity": 95}, {"start": 16.2, "end": 16.35, "pitch": 58, "velocity": 95}, {"start": 16.35, "end": 16.5, "pitch": 56, "velocity": 95}, {"start": 16.5, "end": 16.8, "pitch": 56, "velocity": 95}, {"start": 19.35, "end": 19.5, "pitch": 63, "velocity": 95}, {"start": 19.5, "end": 19.650000000000002, "pitch": 63, "velocity": 95}, {"start": 19.650000000000002, "end": 19.8, "pitch": 63, "velocity": 95}, {"start": 19.8, "end": 19.95, "pitch": 63, "velocity": 95}, {"start": 19.95, "end": 20.25, "pitch": 63, "velocity": 95}, {"start": 20.25, "end": 20.55, "pitch": 65, "velocity": 95}, {"start": 20.55, "end": 20.85, "pitch": 63, "velocity": 95}, {"start": 20.85, "end": 21.0, "pitch": 63, "velocity": 95}, {"start": 21.0, "end": 21.150000000000002, "pitch": 60, "velocity": 95}, {"start": 21.150000000000002, "end": 21.3, "pitch": 60, "velocity": 95}, {"start": 21.3, "end": 21.6, "pitch": 63, "velocity": 95}, {"start": 24.150000000000002, "end": 24.3, "pitch": 60, "velocity": 95}, {"start": 24.3, "end": 24.6, "pitch": 60, "velocity": 95}, {"start": 24.6, "end": 24.75, "pitch": 60, "velocity": 95}, {"start": 24.75, "end": 24.900000000000002, "pitch": 60, "velocity": 95}, {"start": 24.900000000000002, "end": 25.05, "pitch": 60, "velocity": 95}, {"start": 25.05, "end": 25.35, "pitch": 61, "velocity": 95}, {"start": 25.35, "end": 25.650000000000002, "pitch": 61, "velocity": 95}, {"start": 25.650000000000002, "end": 25.8, "pitch": 61, "velocity": 95}, {"start": 25.8, "end": 25.95, "pitch": 58, "velocity": 95}, {"start": 25.95, "end": 26.1, "pitch": 56, "velocity": 95}, {"start": 26.1, "end": 26.400000000000002, "pitch": 56, "velocity": 95}, {"start": 29.1, "end": 29.25, "pitch": 65, "velocity": 95}, {"start": 29.25, "end": 29.400000000000002, "pitch": 65, "velocity": 95}, {"start": 29.400000000000002, "end": 29.55, "pitch": 65, "velocity": 95}, {"start": 29.55, "end": 29.85, "pitch": 65, "velocity": 95}, {"start": 29.85, "end": 30.150000000000002, "pitch": 65, "velocity": 95}, {"start": 30.150000000000002, "end": 30.45, "pitch": 65, "velocity": 95}, {"start": 30.45, "end": 30.6, "pitch": 65, "velocity": 95}, {"start": 30.6, "end": 30.75, "pitch": 63, "velocity": 95}, {"start": 30.75, "end": 30.900000000000002, "pitch": 61, "velocity": 95}, {"start": 30.900000000000002, "end": 31.2, "pitch": 61, "velocity": 95}, {"start": 31.5, "end": 31.650000000000002, "pitch": 63, "velocity": 95}, {"start": 31.650000000000002, "end": 31.8, "pitch": 63, "velocity": 95}, {"start": 31.8, "end": 32.1, "pitch": 63, "velocity": 95}, {"start": 32.1, "end": 32.25, "pitch": 63, "velocity": 95}, {"start": 32.25, "end": 32.55, "pitch": 65, "velocity": 95}, {"start": 32.55, "end": 32.7, "pitch": 65, "velocity": 95}, {"start": 32.7, "end": 33.0, "pitch": 63, "velocity": 95}, {"start": 33.0, "end": 33.15, "pitch": 61, "velocity": 95}, {"start": 33.15, "end": 33.6, "pitch": 60, "velocity": 95}, {"start": 33.6, "end": 33.9, "pitch": 58, "velocity": 95}, {"start": 33.9, "end": 34.05, "pitch": 58, "velocity": 95}, {"start": 34.05, "end": 34.2, "pitch": 58, "velocity": 95}, {"start": 34.2, "end": 34.35, "pitch": 58, "velocity": 95}, {"start": 34.35, "end": 34.5, "pitch": 58, "velocity": 95}, {"start": 34.5, "end": 34.65, "pitch": 60, "velocity": 95}, {"start": 34.65, "end": 34.95, "pitch": 61, "velocity": 95}, {"start": 34.95, "end": 35.25, "pitch": 60, "velocity": 95}, {"start": 35.25, "end": 35.550000000000004, "pitch": 58, "velocity": 95}, {"start": 35.550000000000004, "end": 35.7, "pitch": 65, "velocity": 95}, {"start": 35.7, "end": 36.0, "pitch": 63, "velocity": 95}, {"start": 36.0, "end": 36.45, "pitch": 63, "velocity": 95}, {"start": 36.45, "end": 36.6, "pitch": 61, "velocity": 95}, {"start": 36.6, "end": 36.9, "pitch": 60, "velocity": 95}, {"start": 38.7, "end": 38.85, "pitch": 65, "velocity": 95}, {"start": 38.85, "end": 39.0, "pitch": 65, "velocity": 95}, {"start": 39.0, "end": 39.15, "pitch": 65, "velocity": 95}, {"start": 39.15, "end": 39.45, "pitch": 65, "velocity": 95}, {"start": 39.45, "end": 39.75, "pitch": 65, "velocity": 95}, {"start": 39.75, "end": 40.050000000000004, "pitch": 65, "velocity": 95}, {"start": 40.050000000000004, "end": 40.2, "pitch": 65, "velocity": 95}, {"start": 40.2, "end": 40.35, "pitch": 63, "velocity": 95}, {"start": 40.35, "end": 40.5, "pitch": 61, "velocity": 95}, {"start": 40.5, "end": 40.800000000000004, "pitch": 61, "velocity": 95}, {"start": 41.1, "end": 41.4, "pitch": 63, "velocity": 95}, {"start": 41.4, "end": 41.7, "pitch": 63, "velocity": 95}, {"start": 41.7, "end": 41.85, "pitch": 63, "velocity": 95}, {"start": 41.85, "end": 42.15, "pitch": 65, "velocity": 95}, {"start": 42.15, "end": 42.225, "pitch": 65, "velocity": 95}, {"start": 42.225, "end": 42.300000000000004, "pitch": 65, "velocity": 95}, {"start": 42.300000000000004, "end": 42.45, "pitch": 63, "velocity": 95}, {"start": 42.45, "end": 42.6, "pitch": 63, "velocity": 95}, {"start": 42.6, "end": 42.75, "pitch": 61, "velocity": 95}, {"start": 42.75, "end": 43.2, "pitch": 60, "velocity": 95}, {"start": 43.2, "end": 43.5, "pitch": 58, "velocity": 95}, {"start": 43.65, "end": 43.800000000000004, "pitch": 58, "velocity": 95}, {"start": 43.800000000000004, "end": 43.95, "pitch": 58, "velocity": 95}, {"start": 43.95, "end": 44.25, "pitch": 60, "velocity": 95}, {"start": 44.25, "end": 44.550000000000004, "pitch": 61, "velocity": 95}, {"start": 44.550000000000004, "end": 44.85, "pitch": 60, "velocity": 95}, {"start": 44.85, "end": 45.15, "pitch": 58, "velocity": 95}, {"start": 45.15, "end": 45.45, "pitch": 63, "velocity": 95}, {"start": 52.95, "end": 53.1, "pitch": 63, "velocity": 95}, {"start": 53.1, "end": 53.25, "pitch": 63, "velocity": 95}, {"start": 53.25, "end": 53.4, "pitch": 63, "velocity": 95}, {"start": 53.4, "end": 53.7, "pitch": 63, "velocity": 95}, {"start": 53.7, "end": 53.85, "pitch": 63, "velocity": 95}, {"start": 53.85, "end": 54.15, "pitch": 65, "velocity": 95}, {"start": 54.15, "end": 54.45, "pitch": 63, "velocity": 95}, {"start": 54.45, "end": 54.6, "pitch": 63, "velocity": 95}, {"start": 54.6, "end": 54.75, "pitch": 60, "velocity": 95}, {"start": 54.75, "end": 54.9, "pitch": 60, "velocity": 95}, {"start": 54.9, "end": 55.2, "pitch": 63, "velocity": 95}, {"start": 57.75, "end": 57.9, "pitch": 60, "velocity": 95}, {"start": 57.9, "end": 58.050000000000004, "pitch": 60, "velocity": 95}, {"start": 58.050000000000004, "end": 58.2, "pitch": 60, "velocity": 95}, {"start": 58.2, "end": 58.35, "pitch": 60, "velocity": 95}, {"start": 58.35, "end": 58.5, "pitch": 60, "velocity": 95}, {"start": 58.5, "end": 58.65, "pitch": 60, "velocity": 95}, {"start": 58.65, "end": 58.95, "pitch": 61, "velocity": 95}, {"start": 58.95, "end": 59.25, "pitch": 60, "velocity": 95}, {"start": 59.25, "end": 59.4, "pitch": 60, "velocity": 95}, {"start": 59.4, "end": 59.550000000000004, "pitch": 58, "velocity": 95}, {"start": 59.550000000000004, "end": 59.7, "pitch": 56, "velocity": 95}, {"start": 59.7, "end": 60.0, "pitch": 56, "velocity": 95}, {"start": 62.550000000000004, "end": 62.7, "pitch": 63, "velocity": 95}, {"start": 62.7, "end": 62.85, "pitch": 63, "velocity": 95}, {"start": 62.85, "end": 63.0, "pitch": 63, "velocity": 95}, {"start": 63.0, "end": 63.15, "pitch": 63, "velocity": 95}, {"start": 63.15, "end": 63.45, "pitch": 63, "velocity": 95}, {"start": 63.45, "end": 63.75, "pitch": 65, "velocity": 95}, {"start": 63.75, "end": 63.9, "pitch": 63, "velocity": 95}, {"start": 63.9, "end": 64.05, "pitch": 63, "velocity": 95}, {"start": 64.05, "end": 64.2, "pitch": 63, "velocity": 95}, {"start": 64.2, "end": 64.5, "pitch": 60, "velocity": 95}, {"start": 64.5, "end": 64.8, "pitch": 63, "velocity": 95}, {"start": 67.35, "end": 67.5, "pitch": 60, "velocity": 95}, {"start": 67.5, "end": 67.65, "pitch": 60, "velocity": 95}, {"start": 67.65, "end": 67.8, "pitch": 60, "velocity": 95}, {"start": 67.8, "end": 67.95, "pitch": 60, "velocity": 95}, {"start": 67.95, "end": 68.1, "pitch": 60, "velocity": 95}, {"start": 68.1, "end": 68.25, "pitch": 60, "velocity": 95}, {"start": 68.25, "end": 68.55, "pitch": 61, "velocity": 95}, {"start": 68.55, "end": 68.7, "pitch": 60, "velocity": 95}, {"start": 68.7, "end": 68.85000000000001, "pitch": 60, "velocity": 95}, {"start": 68.85000000000001, "end": 69.0, "pitch": 60, "velocity": 95}, {"start": 69.0, "end": 69.15, "pitch": 58, "velocity": 95}, {"start": 69.15, "end": 69.3, "pitch": 56, "velocity": 95}, {"start": 69.3, "end": 69.60000000000001, "pitch": 56, "velocity": 95}, {"start": 72.3, "end": 72.45, "pitch": 65, "velocity": 95}, {"start": 72.45, "end": 72.60000000000001, "pitch": 65, "velocity": 95}, {"start": 72.60000000000001, "end": 72.75, "pitch": 65, "velocity": 95}, {"start": 72.75, "end": 73.05, "pitch": 65, "velocity": 95}, {"start": 73.05, "end": 73.35000000000001, "pitch": 65, "velocity": 95}, {"start": 73.35000000000001, "end": 73.65, "pitch": 65, "velocity": 95}, {"start": 73.65, "end": 73.8, "pitch": 65, "velocity": 95}, {"start": 73.8, "end": 73.95, "pitch": 63, "velocity": 95}, {"start": 73.95, "end": 74.10000000000001, "pitch": 61, "velocity": 95}, {"start": 74.10000000000001, "end": 74.4, "pitch": 61, "velocity": 95}, {"start": 74.7, "end": 74.85000000000001, "pitch": 63, "velocity": 95}, {"start": 74.85000000000001, "end": 75.0, "pitch": 63, "velocity": 95}, {"start": 75.0, "end": 75.3, "pitch": 63, "velocity": 95}, {"start": 75.3, "end": 75.45, "pitch": 63, "velocity": 95}, {"start": 75.45, "end": 75.75, "pitch": 65, "velocity": 95}, {"start": 75.75, "end": 75.9, "pitch": 65, "velocity": 95}, {"start": 75.9, "end": 76.2, "pitch": 63, "velocity": 95}, {"start": 76.2, "end": 76.35000000000001, "pitch": 61, "velocity": 95}, {"start": 76.35000000000001, "end": 76.8, "pitch": 60, "velocity": 95}, {"start": 76.8, "end": 77.10000000000001, "pitch": 58, "velocity": 95}, {"start": 77.10000000000001, "end": 77.25, "pitch": 58, "velocity": 95}, {"start": 77.25, "end": 77.4, "pitch": 58, "velocity": 95}, {"start": 77.4, "end": 77.55, "pitch": 58, "velocity": 95}, {"start": 77.55, "end": 77.7, "pitch": 58, "velocity": 95}, {"start": 77.7, "end": 77.85000000000001, "pitch": 60, "velocity": 95}, {"start": 77.85000000000001, "end": 78.15, "pitch": 61, "velocity": 95}, {"start": 78.15, "end": 78.45, "pitch": 60, "velocity": 95}, {"start": 78.45, "end": 78.75, "pitch": 58, "velocity": 95}, {"start": 78.75, "end": 78.9, "pitch": 65, "velocity": 95}, {"start": 78.9, "end": 79.2, "pitch": 63, "velocity": 95}, {"start": 79.2, "end": 79.65, "pitch": 63, "velocity": 95}, {"start": 79.65, "end": 79.8, "pitch": 61, "velocity": 95}, {"start": 79.8, "end": 80.10000000000001, "pitch": 60, "velocity": 95}, {"start": 81.9, "end": 82.05, "pitch": 65, "velocity": 95}, {"start": 82.05, "end": 82.2, "pitch": 65, "velocity": 95}, {"start": 82.2, "end": 82.35000000000001, "pitch": 65, "velocity": 95}, {"start": 82.35000000000001, "end": 82.65, "pitch": 65, "velocity": 95}, {"start": 82.65, "end": 82.95, "pitch": 65, "velocity": 95}, {"start": 82.95, "end": 83.25, "pitch": 65, "velocity": 95}, {"start": 83.25, "end": 83.4, "pitch": 65, "velocity": 95}, {"start": 83.4, "end": 83.55, "pitch": 63, "velocity": 95}, {"start": 83.55, "end": 83.7, "pitch": 61, "velocity": 95}, {"start": 83.7, "end": 84.0, "pitch": 61, "velocity": 95}, {"start": 84.3, "end": 84.60000000000001, "pitch": 63, "velocity": 95}, {"start": 84.60000000000001, "end": 84.9, "pitch": 63, "velocity": 95}, {"start": 84.9, "end": 85.05, "pitch": 63, "velocity": 95}, {"start": 85.05, "end": 85.35000000000001, "pitch": 65, "velocity": 95}, {"start": 85.35000000000001, "end": 85.425, "pitch": 65, "velocity": 95}, {"start": 85.425, "end": 85.5, "pitch": 65, "velocity": 95}, {"start": 85.5, "end": 85.65, "pitch": 63, "velocity": 95}, {"start": 85.65, "end": 85.8, "pitch": 63, "velocity": 95}, {"start": 85.8, "end": 85.95, "pitch": 61, "velocity": 95}, {"start": 85.95, "end": 86.4, "pitch": 60, "velocity": 95}, {"start": 86.4, "end": 86.7, "pitch": 58, "velocity": 95}, {"start": 86.85000000000001, "end": 87.0, "pitch": 58, "velocity": 95}, {"start": 87.0, "end": 87.15, "pitch": 58, "velocity": 95}, {"start": 87.15, "end": 87.45, "pitch": 60, "velocity": 95}, {"start": 87.45, "end": 87.75, "pitch": 61, "velocity": 95}, {"start": 87.75, "end": 88.05, "pitch": 60, "velocity": 95}, {"start": 88.05, "end": 88.35000000000001, "pitch": 58, "velocity": 95}, {"start": 88.35000000000001, "end": 88.65, "pitch": 63, "velocity": 95}, {"start": 122.55, "end": 122.7, "pitch": 63, "velocity": 95}, {"start": 122.7, "end": 122.85000000000001, "pitch": 63, "velocity": 95}, {"start": 122.85000000000001, "end": 123.0, "pitch": 63, "velocity": 95}, {"start": 123.0, "end": 123.15, "pitch": 63, "velocity": 95}, {"start": 123.15, "end": 123.3, "pitch": 63, "velocity": 95}, {"start": 123.3, "end": 123.45, "pitch": 63, "velocity": 95}, {"start": 123.45, "end": 123.75, "pitch": 65, "velocity": 95}, {"start": 123.75, "end": 123.9, "pitch": 65, "velocity": 95}, {"start": 123.9, "end": 124.2, "pitch": 63, "velocity": 95}, {"start": 124.2, "end": 124.35000000000001, "pitch": 60, "velocity": 95}, {"start": 124.35000000000001, "end": 124.5, "pitch": 60, "velocity": 95}, {"start": 124.5, "end": 124.8, "pitch": 63, "velocity": 95}, {"start": 125.10000000000001, "end": 125.4, "pitch": 60, "velocity": 95}, {"start": 125.4, "end": 125.55, "pitch": 60, "velocity": 95}, {"start": 125.55, "end": 125.7, "pitch": 60, "velocity": 95}, {"start": 125.7, "end": 125.85000000000001, "pitch": 60, "velocity": 95}, {"start": 125.85000000000001, "end": 126.15, "pitch": 61, "velocity": 95}, {"start": 126.15, "end": 126.45, "pitch": 60, "velocity": 95}, {"start": 126.45, "end": 126.60000000000001, "pitch": 60, "velocity": 95}, {"start": 126.60000000000001, "end": 126.75, "pitch": 58, "velocity": 95}, {"start": 126.75, "end": 126.9, "pitch": 56, "velocity": 95}, {"start": 126.9, "end": 127.2, "pitch": 56, "velocity": 95}, {"start": 127.5, "end": 127.65, "pitch": 63, "velocity": 95}, {"start": 127.65, "end": 127.8, "pitch": 63, "velocity": 95}, {"start": 127.8, "end": 128.1, "pitch": 63, "velocity": 95}, {"start": 128.1, "end": 128.25, "pitch": 63, "velocity": 95}, {"start": 128.25, "end": 128.55, "pitch": 65, "velocity": 95}, {"start": 128.55, "end": 128.85, "pitch": 63, "velocity": 95}, {"start": 128.85, "end": 129.0, "pitch": 63, "velocity": 95}, {"start": 129.0, "end": 129.15, "pitch": 60, "velocity": 95}, {"start": 129.15, "end": 129.3, "pitch": 60, "velocity": 95}, {"start": 129.3, "end": 129.6, "pitch": 63, "velocity": 95}, {"start": 129.75, "end": 129.9, "pitch": 60, "velocity": 95}, {"start": 129.9, "end": 130.05, "pitch": 60, "velocity": 95}, {"start": 130.05, "end": 130.2, "pitch": 60, "velocity": 95}, {"start": 130.2, "end": 130.5, "pitch": 60, "velocity": 95}, {"start": 130.5, "end": 130.65, "pitch": 60, "velocity": 95}, {"start": 130.65, "end": 130.95, "pitch": 61, "velocity": 95}, {"start": 130.95, "end": 131.1, "pitch": 61, "velocity": 95}, {"start": 131.1, "end": 131.25, "pitch": 60, "velocity": 95}, {"start": 131.25, "end": 131.4, "pitch": 60, "velocity": 95}, {"start": 131.4, "end": 131.55, "pitch": 58, "velocity": 95}, {"start": 131.55, "end": 131.7, "pitch": 56, "velocity": 95}, {"start": 131.7, "end": 132.0, "pitch": 56, "velocity": 95}, {"start": 132.3, "end": 132.45, "pitch": 65, "velocity": 95}, {"start": 132.45, "end": 132.6, "pitch": 65, "velocity": 95}, {"start": 132.6, "end": 132.75, "pitch": 65, "velocity": 95}, {"start": 132.75, "end": 133.05, "pitch": 65, "velocity": 95}, {"start": 133.05, "end": 133.35, "pitch": 65, "velocity": 95}, {"start": 133.35, "end": 133.65, "pitch": 65, "velocity": 95}, {"start": 133.65, "end": 133.8, "pitch": 65, "velocity": 95}, {"start": 133.8, "end": 133.95, "pitch": 63, "velocity": 95}, {"start": 133.95, "end": 134.1, "pitch": 61, "velocity": 95}, {"start": 134.1, "end": 134.4, "pitch": 61, "velocity": 95}, {"start": 134.7, "end": 134.85, "pitch": 63, "velocity": 95}, {"start": 134.85, "end": 135.0, "pitch": 63, "velocity": 95}, {"start": 135.0, "end": 135.3, "pitch": 63, "velocity": 95}, {"start": 135.3, "end": 135.45, "pitch": 63, "velocity": 95}, {"start": 135.45, "end": 135.75, "pitch": 65, "velocity": 95}, {"start": 135.75, "end": 135.9, "pitch": 65, "velocity": 95}, {"start": 135.9, "end": 136.2, "pitch": 63, "velocity": 95}, {"start": 136.2, "end": 136.35, "pitch": 61, "velocity": 95}, {"start": 136.35, "end": 136.8, "pitch": 60, "velocity": 95}, {"start": 136.8, "end": 137.1, "pitch": 58, "velocity": 95}, {"start": 137.1, "end": 137.25, "pitch": 58, "velocity": 95}, {"start": 137.25, "end": 137.4, "pitch": 58, "velocity": 95}, {"start": 137.4, "end": 137.55, "pitch": 58, "velocity": 95}, {"start": 137.55, "end": 137.70000000000002, "pitch": 58, "velocity": 95}, {"start": 137.70000000000002, "end": 137.85, "pitch": 60, "velocity": 95}, {"start": 137.85, "end": 138.15, "pitch": 61, "velocity": 95}, {"start": 138.15, "end": 138.45000000000002, "pitch": 60, "velocity": 95}, {"start": 138.45000000000002, "end": 138.75, "pitch": 58, "velocity": 95}, {"start": 138.75, "end": 138.9, "pitch": 65, "velocity": 95}, {"start": 138.9, "end": 139.20000000000002, "pitch": 63, "velocity": 95}, {"start": 139.20000000000002, "end": 139.65, "pitch": 63, "velocity": 95}, {"start": 139.65, "end": 139.8, "pitch": 61, "velocity": 95}, {"start": 139.8, "end": 140.1, "pitch": 60, "velocity": 95}, {"start": 141.9, "end": 142.05, "pitch": 65, "velocity": 95}, {"start": 142.05, "end": 142.20000000000002, "pitch": 65, "velocity": 95}, {"start": 142.20000000000002, "end": 142.35, "pitch": 65, "velocity": 95}, {"start": 142.35, "end": 142.65, "pitch": 65, "velocity": 95}, {"start": 142.65, "end": 142.95000000000002, "pitch": 65, "velocity": 95}, {"start": 142.95000000000002, "end": 143.25, "pitch": 65, "velocity": 95}, {"start": 143.25, "end": 143.4, "pitch": 65, "velocity": 95}, {"start": 143.4, "end": 143.55, "pitch": 63, "velocity": 95}, {"start": 143.55, "end": 143.70000000000002, "pitch": 61, "velocity": 95}, {"start": 143.70000000000002, "end": 144.0, "pitch": 61, "velocity": 95}, {"start": 144.3, "end": 144.6, "pitch": 63, "velocity": 95}, {"start": 144.6, "end": 144.9, "pitch": 63, "velocity": 95}, {"start": 144.9, "end": 145.05, "pitch": 63, "velocity": 95}, {"start": 145.05, "end": 145.35, "pitch": 65, "velocity": 95}, {"start": 145.35, "end": 145.425, "pitch": 65, "velocity": 95}, {"start": 145.425, "end": 145.5, "pitch": 65, "velocity": 95}, {"start": 145.5, "end": 145.65, "pitch": 63, "velocity": 95}, {"start": 145.65, "end": 145.8, "pitch": 63, "velocity": 95}, {"start": 145.8, "end": 145.95000000000002, "pitch": 61, "velocity": 95}, {"start": 145.95000000000002, "end": 146.4, "pitch": 60, "velocity": 95}, {"start": 146.4, "end": 146.70000000000002, "pitch": 58, "velocity": 95}, {"start": 146.85, "end": 147.0, "pitch": 58, "velocity": 95}, {"start": 147.0, "end": 147.15, "pitch": 58, "velocity": 95}, {"start": 147.15, "end": 147.45000000000002, "pitch": 60, "velocity": 95}, {"start": 147.45000000000002, "end": 147.75, "pitch": 61, "velocity": 95}, {"start": 147.75, "end": 148.05, "pitch": 60, "velocity": 95}, {"start": 148.05, "end": 148.35, "pitch": 58, "velocity": 95}, {"start": 148.35, "end": 148.65, "pitch": 63, "velocity": 95}]'),
(11750, '[{"start": 16.410239999999998, "end": 16.666649999999997, "pitch": 61, "velocity": 95}, {"start": 16.666649999999997, "end": 16.92306, "pitch": 62, "velocity": 95}, {"start": 16.92306, "end": 17.435879999999997, "pitch": 62, "velocity": 95}, {"start": 17.435879999999997, "end": 18.205109999999998, "pitch": 62, "velocity": 95}, {"start": 18.205109999999998, "end": 18.461519999999997, "pitch": 62, "velocity": 95}, {"start": 18.461519999999997, "end": 18.71793, "pitch": 61, "velocity": 95}, {"start": 18.71793, "end": 19.230749999999997, "pitch": 62, "velocity": 95}, {"start": 19.230749999999997, "end": 19.74357, "pitch": 64, "velocity": 95}, {"start": 19.74357, "end": 19.999979999999997, "pitch": 62, "velocity": 95}, {"start": 20.256389999999996, "end": 20.5128, "pitch": 62, "velocity": 95}, {"start": 20.5128, "end": 20.769209999999998, "pitch": 61, "velocity": 95}, {"start": 20.769209999999998, "end": 21.28203, "pitch": 62, "velocity": 95}, {"start": 21.28203, "end": 21.794849999999997, "pitch": 62, "velocity": 95}, {"start": 22.05126, "end": 22.307669999999998, "pitch": 62, "velocity": 95}, {"start": 22.307669999999998, "end": 22.564079999999997, "pitch": 62, "velocity": 95}, {"start": 22.564079999999997, "end": 22.820489999999996, "pitch": 61, "velocity": 95}, {"start": 22.820489999999996, "end": 23.333309999999997, "pitch": 62, "velocity": 95}, {"start": 23.333309999999997, "end": 23.84613, "pitch": 64, "velocity": 95}, {"start": 23.84613, "end": 24.102539999999998, "pitch": 62, "velocity": 95}, {"start": 24.102539999999998, "end": 24.358949999999997, "pitch": 61, "velocity": 95}, {"start": 24.358949999999997, "end": 24.615359999999995, "pitch": 62, "velocity": 95}, {"start": 24.615359999999995, "end": 25.384589999999996, "pitch": 59, "velocity": 95}, {"start": 27.179459999999995, "end": 27.435869999999998, "pitch": 62, "velocity": 95}, {"start": 27.435869999999998, "end": 27.692279999999997, "pitch": 62, "velocity": 95}, {"start": 27.692279999999997, "end": 27.948689999999996, "pitch": 62, "velocity": 95}, {"start": 27.948689999999996, "end": 28.205099999999998, "pitch": 61, "velocity": 95}, {"start": 28.205099999999998, "end": 28.461509999999997, "pitch": 61, "velocity": 95}, {"start": 28.461509999999997, "end": 28.717919999999996, "pitch": 57, "velocity": 95}, {"start": 28.717919999999996, "end": 28.97433, "pitch": 57, "velocity": 95}, {"start": 28.97433, "end": 29.230739999999997, "pitch": 57, "velocity": 95}, {"start": 29.230739999999997, "end": 29.743559999999995, "pitch": 59, "velocity": 95}, {"start": 32.820479999999996, "end": 33.07689, "pitch": 61, "velocity": 95}, {"start": 33.07689, "end": 33.58971, "pitch": 62, "velocity": 95}, {"start": 33.58971, "end": 34.35894, "pitch": 62, "velocity": 95}, {"start": 34.35894, "end": 34.61535, "pitch": 62, "velocity": 95}, {"start": 34.61535, "end": 34.871759999999995, "pitch": 62, "velocity": 95}, {"start": 34.871759999999995, "end": 35.12817, "pitch": 61, "velocity": 95}, {"start": 35.12817, "end": 35.38457999999999, "pitch": 62, "velocity": 95}, {"start": 35.38457999999999, "end": 35.640989999999995, "pitch": 62, "velocity": 95}, {"start": 35.640989999999995, "end": 36.15380999999999, "pitch": 64, "velocity": 95}, {"start": 36.15380999999999, "end": 36.410219999999995, "pitch": 62, "velocity": 95}, {"start": 36.92303999999999, "end": 37.179449999999996, "pitch": 61, "velocity": 95}, {"start": 37.179449999999996, "end": 37.69226999999999, "pitch": 62, "velocity": 95}, {"start": 37.69226999999999, "end": 38.20509, "pitch": 62, "velocity": 95}, {"start": 38.20509, "end": 38.461499999999994, "pitch": 62, "velocity": 95}, {"start": 38.461499999999994, "end": 38.717909999999996, "pitch": 62, "velocity": 95}, {"start": 38.717909999999996, "end": 38.97432, "pitch": 62, "velocity": 95}, {"start": 38.97432, "end": 39.230729999999994, "pitch": 61, "velocity": 95}, {"start": 39.230729999999994, "end": 39.74355, "pitch": 62, "velocity": 95}, {"start": 39.74355, "end": 40.25637, "pitch": 64, "velocity": 95}, {"start": 40.25637, "end": 40.51277999999999, "pitch": 62, "velocity": 95}, {"start": 40.51277999999999, "end": 40.769189999999995, "pitch": 61, "velocity": 95}, {"start": 40.769189999999995, "end": 41.0256, "pitch": 62, "velocity": 95}, {"start": 41.0256, "end": 41.538419999999995, "pitch": 59, "velocity": 95}, {"start": 44.10252, "end": 44.358929999999994, "pitch": 62, "velocity": 95}, {"start": 44.358929999999994, "end": 44.615339999999996, "pitch": 61, "velocity": 95}, {"start": 44.615339999999996, "end": 44.87174999999999, "pitch": 57, "velocity": 95}, {"start": 44.87174999999999, "end": 45.64097999999999, "pitch": 57, "velocity": 95}, {"start": 45.64097999999999, "end": 46.41020999999999, "pitch": 59, "velocity": 95}, {"start": 48.974309999999996, "end": 49.23071999999999, "pitch": 62, "velocity": 111}, {"start": 49.23071999999999, "end": 49.48712999999999, "pitch": 61, "velocity": 111}, {"start": 49.48712999999999, "end": 49.743539999999996, "pitch": 62, "velocity": 111}, {"start": 49.743539999999996, "end": 49.99994999999999, "pitch": 62, "velocity": 111}, {"start": 49.99994999999999, "end": 50.256359999999994, "pitch": 62, "velocity": 111}, {"start": 50.256359999999994, "end": 50.76917999999999, "pitch": 62, "velocity": 111}, {"start": 50.76917999999999, "end": 51.025589999999994, "pitch": 62, "velocity": 111}, {"start": 51.025589999999994, "end": 51.282, "pitch": 62, "velocity": 111}, {"start": 51.282, "end": 51.53840999999999, "pitch": 61, "velocity": 111}, {"start": 51.53840999999999, "end": 52.05123, "pitch": 62, "velocity": 111}, {"start": 52.05123, "end": 52.564049999999995, "pitch": 64, "velocity": 111}, {"start": 52.564049999999995, "end": 52.82046, "pitch": 62, "velocity": 111}, {"start": 52.82046, "end": 53.07686999999999, "pitch": 62, "velocity": 111}, {"start": 53.07686999999999, "end": 53.333279999999995, "pitch": 62, "velocity": 111}, {"start": 53.333279999999995, "end": 53.58969, "pitch": 61, "velocity": 111}, {"start": 53.58969, "end": 53.84609999999999, "pitch": 62, "velocity": 111}, {"start": 53.84609999999999, "end": 54.102509999999995, "pitch": 62, "velocity": 111}, {"start": 54.35891999999999, "end": 54.61532999999999, "pitch": 62, "velocity": 111}, {"start": 54.61532999999999, "end": 54.871739999999996, "pitch": 62, "velocity": 111}, {"start": 54.871739999999996, "end": 55.12814999999999, "pitch": 62, "velocity": 111}, {"start": 55.12814999999999, "end": 55.38455999999999, "pitch": 62, "velocity": 111}, {"start": 55.38455999999999, "end": 55.640969999999996, "pitch": 69, "velocity": 111}, {"start": 55.640969999999996, "end": 56.153789999999994, "pitch": 67, "velocity": 111}, {"start": 56.153789999999994, "end": 56.410199999999996, "pitch": 66, "velocity": 111}, {"start": 56.66660999999999, "end": 56.923019999999994, "pitch": 64, "velocity": 111}, {"start": 56.923019999999994, "end": 57.179429999999996, "pitch": 66, "velocity": 111}, {"start": 57.179429999999996, "end": 57.43583999999999, "pitch": 64, "velocity": 111}, {"start": 57.43583999999999, "end": 57.692249999999994, "pitch": 66, "velocity": 111}, {"start": 57.692249999999994, "end": 57.94866, "pitch": 64, "velocity": 111}, {"start": 57.94866, "end": 58.20506999999999, "pitch": 66, "velocity": 111}, {"start": 58.20506999999999, "end": 58.461479999999995, "pitch": 66, "velocity": 111}, {"start": 58.461479999999995, "end": 58.97429999999999, "pitch": 66, "velocity": 111}, {"start": 58.97429999999999, "end": 59.230709999999995, "pitch": 62, "velocity": 111}, {"start": 59.48711999999999, "end": 59.74352999999999, "pitch": 64, "velocity": 111}, {"start": 59.74352999999999, "end": 59.999939999999995, "pitch": 64, "velocity": 111}, {"start": 59.999939999999995, "end": 60.25634999999999, "pitch": 64, "velocity": 111}, {"start": 60.25634999999999, "end": 60.769169999999995, "pitch": 64, "velocity": 111}, {"start": 60.769169999999995, "end": 61.28198999999999, "pitch": 62, "velocity": 111}, {"start": 61.28198999999999, "end": 61.538399999999996, "pitch": 66, "velocity": 111}, {"start": 61.538399999999996, "end": 61.79480999999999, "pitch": 67, "velocity": 89}, {"start": 61.79480999999999, "end": 63.33326999999999, "pitch": 66, "velocity": 111}, {"start": 64.10249999999999, "end": 64.35891, "pitch": 66, "velocity": 127}, {"start": 64.35891, "end": 64.87173, "pitch": 66, "velocity": 127}, {"start": 64.87173, "end": 65.64095999999999, "pitch": 62, "velocity": 127}, {"start": 65.64095999999999, "end": 65.89737, "pitch": 62, "velocity": 127}, {"start": 65.89737, "end": 66.15378, "pitch": 62, "velocity": 127}, {"start": 66.15378, "end": 66.66659999999999, "pitch": 67, "velocity": 127}, {"start": 66.66659999999999, "end": 67.17942, "pitch": 66, "velocity": 127}, {"start": 67.17942, "end": 67.69224, "pitch": 62, "velocity": 127}, {"start": 67.69224, "end": 67.94864999999999, "pitch": 62, "velocity": 127}, {"start": 67.94864999999999, "end": 68.20505999999999, "pitch": 64, "velocity": 127}, {"start": 68.20505999999999, "end": 68.46146999999999, "pitch": 64, "velocity": 127}, {"start": 68.46146999999999, "end": 68.71788, "pitch": 62, "velocity": 127}, {"start": 68.71788, "end": 68.97429, "pitch": 66, "velocity": 127}, {"start": 68.97429, "end": 69.2307, "pitch": 62, "velocity": 127}, {"start": 69.2307, "end": 69.74351999999999, "pitch": 64, "velocity": 127}, {"start": 69.74351999999999, "end": 70.25634, "pitch": 62, "velocity": 127}, {"start": 70.25634, "end": 70.76915999999999, "pitch": 64, "velocity": 127}, {"start": 70.76915999999999, "end": 71.28197999999999, "pitch": 66, "velocity": 127}, {"start": 71.28197999999999, "end": 71.7948, "pitch": 64, "velocity": 127}, {"start": 71.7948, "end": 72.05121, "pitch": 62, "velocity": 127}, {"start": 72.05121, "end": 72.30761999999999, "pitch": 64, "velocity": 127}, {"start": 72.30761999999999, "end": 72.56402999999999, "pitch": 64, "velocity": 127}, {"start": 72.56402999999999, "end": 72.82043999999999, "pitch": 62, "velocity": 127}, {"start": 72.82043999999999, "end": 73.07685, "pitch": 66, "velocity": 127}, {"start": 73.07685, "end": 73.33326, "pitch": 62, "velocity": 127}, {"start": 73.33326, "end": 73.84607999999999, "pitch": 64, "velocity": 127}, {"start": 73.84607999999999, "end": 74.35889999999999, "pitch": 62, "velocity": 127}, {"start": 74.35889999999999, "end": 74.61531, "pitch": 64, "velocity": 127}, {"start": 74.61531, "end": 74.87172, "pitch": 62, "velocity": 127}, {"start": 74.87172, "end": 75.38453999999999, "pitch": 66, "velocity": 127}, {"start": 75.38453999999999, "end": 75.89735999999999, "pitch": 64, "velocity": 127}, {"start": 75.89735999999999, "end": 76.41018, "pitch": 62, "velocity": 127}, {"start": 76.41018, "end": 76.66658999999999, "pitch": 64, "velocity": 127}, {"start": 76.66658999999999, "end": 76.92299999999999, "pitch": 62, "velocity": 127}, {"start": 76.92299999999999, "end": 77.43581999999999, "pitch": 66, "velocity": 127}, {"start": 77.43581999999999, "end": 77.94864, "pitch": 64, "velocity": 127}, {"start": 77.94864, "end": 78.20504999999999, "pitch": 62, "velocity": 127}, {"start": 78.20504999999999, "end": 78.46145999999999, "pitch": 62, "velocity": 127}, {"start": 78.46145999999999, "end": 78.97428, "pitch": 64, "velocity": 127}, {"start": 78.97428, "end": 79.23069, "pitch": 66, "velocity": 127}, {"start": 79.23069, "end": 79.4871, "pitch": 64, "velocity": 102}, {"start": 79.4871, "end": 79.99991999999999, "pitch": 66, "velocity": 127}, {"start": 79.99991999999999, "end": 80.25632999999999, "pitch": 66, "velocity": 127}, {"start": 80.25632999999999, "end": 80.51274, "pitch": 64, "velocity": 127}, {"start": 80.51274, "end": 81.02555999999998, "pitch": 66, "velocity": 127}, {"start": 81.02555999999998, "end": 81.33325199999999, "pitch": 66, "velocity": 127}, {"start": 81.53837999999999, "end": 82.0512, "pitch": 62, "velocity": 127}, {"start": 81.53837999999999, "end": 82.0512, "pitch": 57, "velocity": 63}, {"start": 85.89734999999999, "end": 86.15375999999999, "pitch": 64, "velocity": 63}, {"start": 85.89734999999999, "end": 86.15375999999999, "pitch": 62, "velocity": 111}, {"start": 86.15375999999999, "end": 86.41017, "pitch": 64, "velocity": 63}, {"start": 86.15375999999999, "end": 86.41017, "pitch": 61, "velocity": 111}, {"start": 86.41017, "end": 86.92298999999998, "pitch": 66, "velocity": 63}, {"start": 86.41017, "end": 86.92298999999998, "pitch": 62, "velocity": 111}, {"start": 86.92298999999998, "end": 87.69221999999999, "pitch": 66, "velocity": 63}, {"start": 86.92298999999998, "end": 87.69221999999999, "pitch": 62, "velocity": 111}, {"start": 87.69221999999999, "end": 87.94863, "pitch": 66, "velocity": 63}, {"start": 87.69221999999999, "end": 87.94863, "pitch": 62, "velocity": 111}, {"start": 87.94863, "end": 88.20504, "pitch": 66, "velocity": 63}, {"start": 87.94863, "end": 88.20504, "pitch": 62, "velocity": 111}, {"start": 88.20504, "end": 88.46144999999999, "pitch": 64, "velocity": 63}, {"start": 88.20504, "end": 88.46144999999999, "pitch": 61, "velocity": 111}, {"start": 88.46144999999999, "end": 88.71785999999999, "pitch": 64, "velocity": 63}, {"start": 88.46144999999999, "end": 88.71785999999999, "pitch": 62, "velocity": 111}, {"start": 88.71785999999999, "end": 88.97426999999999, "pitch": 66, "velocity": 63}, {"start": 88.71785999999999, "end": 88.97426999999999, "pitch": 62, "velocity": 111}, {"start": 88.97426999999999, "end": 89.48709, "pitch": 67, "velocity": 63}, {"start": 88.97426999999999, "end": 89.48709, "pitch": 64, "velocity": 111}, {"start": 89.48709, "end": 89.74349999999998, "pitch": 66, "velocity": 63}, {"start": 89.48709, "end": 89.74349999999998, "pitch": 62, "velocity": 111}, {"start": 90.25631999999999, "end": 90.51272999999999, "pitch": 64, "velocity": 63}, {"start": 90.25631999999999, "end": 90.51272999999999, "pitch": 61, "velocity": 111}, {"start": 90.51272999999999, "end": 91.02555, "pitch": 66, "velocity": 63}, {"start": 90.51272999999999, "end": 91.02555, "pitch": 62, "velocity": 111}, {"start": 91.02555, "end": 91.79477999999999, "pitch": 66, "velocity": 63}, {"start": 91.02555, "end": 91.79477999999999, "pitch": 62, "velocity": 111}, {"start": 91.79477999999999, "end": 92.05118999999999, "pitch": 66, "velocity": 63}, {"start": 91.79477999999999, "end": 92.05118999999999, "pitch": 62, "velocity": 111}, {"start": 92.05118999999999, "end": 92.3076, "pitch": 66, "velocity": 63}, {"start": 92.05118999999999, "end": 92.3076, "pitch": 62, "velocity": 111}, {"start": 92.3076, "end": 92.56401, "pitch": 64, "velocity": 63}, {"start": 92.3076, "end": 92.56401, "pitch": 61, "velocity": 111}, {"start": 92.56401, "end": 92.82041999999998, "pitch": 66, "velocity": 63}, {"start": 92.56401, "end": 92.82041999999998, "pitch": 61, "velocity": 111}, {"start": 92.82041999999998, "end": 93.07682999999999, "pitch": 66, "velocity": 63}, {"start": 92.82041999999998, "end": 93.07682999999999, "pitch": 62, "velocity": 111}, {"start": 93.07682999999999, "end": 93.58964999999999, "pitch": 67, "velocity": 63}, {"start": 93.07682999999999, "end": 93.58964999999999, "pitch": 64, "velocity": 111}, {"start": 93.58964999999999, "end": 93.84606, "pitch": 66, "velocity": 63}, {"start": 93.58964999999999, "end": 93.84606, "pitch": 62, "velocity": 111}, {"start": 93.84606, "end": 94.10246999999998, "pitch": 64, "velocity": 63}, {"start": 93.84606, "end": 94.10246999999998, "pitch": 61, "velocity": 111}, {"start": 94.10246999999998, "end": 94.35887999999998, "pitch": 66, "velocity": 63}, {"start": 94.10246999999998, "end": 94.35887999999998, "pitch": 62, "velocity": 111}, {"start": 94.35887999999998, "end": 94.87169999999999, "pitch": 62, "velocity": 63}, {"start": 94.35887999999998, "end": 94.87169999999999, "pitch": 59, "velocity": 111}, {"start": 96.66657, "end": 96.92298, "pitch": 62, "velocity": 111}, {"start": 96.66657, "end": 96.92298, "pitch": 54, "velocity": 79}, {"start": 96.92298, "end": 97.17938999999998, "pitch": 62, "velocity": 111}, {"start": 96.92298, "end": 97.17938999999998, "pitch": 54, "velocity": 79}, {"start": 97.17938999999998, "end": 97.43579999999999, "pitch": 62, "velocity": 111}, {"start": 97.17938999999998, "end": 97.43579999999999, "pitch": 54, "velocity": 79}, {"start": 97.43579999999999, "end": 97.69220999999999, "pitch": 62, "velocity": 111}, {"start": 97.43579999999999, "end": 97.69220999999999, "pitch": 54, "velocity": 79}, {"start": 97.69220999999999, "end": 97.94861999999999, "pitch": 61, "velocity": 89}, {"start": 97.69220999999999, "end": 97.94861999999999, "pitch": 54, "velocity": 79}, {"start": 97.94861999999999, "end": 98.20503, "pitch": 61, "velocity": 111}, {"start": 97.94861999999999, "end": 98.20503, "pitch": 54, "velocity": 79}, {"start": 98.20503, "end": 98.46143999999998, "pitch": 57, "velocity": 111}, {"start": 98.20503, "end": 98.46143999999998, "pitch": 52, "velocity": 79}, {"start": 98.46143999999998, "end": 98.71784999999998, "pitch": 57, "velocity": 111}, {"start": 98.46143999999998, "end": 98.71784999999998, "pitch": 52, "velocity": 79}, {"start": 98.71784999999998, "end": 98.97425999999999, "pitch": 57, "velocity": 111}, {"start": 98.71784999999998, "end": 98.97425999999999, "pitch": 52, "velocity": 79}, {"start": 98.97425999999999, "end": 99.99989999999998, "pitch": 52, "velocity": 79}, {"start": 98.97425999999999, "end": 100.25630999999998, "pitch": 59, "velocity": 111}, {"start": 100.25630999999998, "end": 101.02553999999999, "pitch": 61, "velocity": 111}, {"start": 101.28195, "end": 101.53835999999998, "pitch": 66, "velocity": 111}, {"start": 101.79476999999999, "end": 102.05117999999999, "pitch": 66, "velocity": 111}, {"start": 102.05117999999999, "end": 102.23066699999998, "pitch": 64, "velocity": 89}, {"start": 102.30758999999999, "end": 102.564, "pitch": 62, "velocity": 111}, {"start": 102.564, "end": 102.82041, "pitch": 61, "velocity": 111}, {"start": 102.82041, "end": 103.07681999999998, "pitch": 62, "velocity": 111}, {"start": 103.07681999999998, "end": 103.33322999999999, "pitch": 62, "velocity": 111}, {"start": 103.33322999999999, "end": 103.58963999999999, "pitch": 62, "velocity": 111}, {"start": 103.58963999999999, "end": 103.84604999999999, "pitch": 62, "velocity": 111}, {"start": 103.84604999999999, "end": 104.10246, "pitch": 62, "velocity": 111}, {"start": 104.10246, "end": 104.35886999999998, "pitch": 62, "velocity": 111}, {"start": 104.35886999999998, "end": 104.61527999999998, "pitch": 62, "velocity": 111}, {"start": 104.61527999999998, "end": 104.87168999999999, "pitch": 61, "velocity": 111}, {"start": 104.87168999999999, "end": 105.38450999999999, "pitch": 62, "velocity": 111}, {"start": 105.38450999999999, "end": 105.89732999999998, "pitch": 64, "velocity": 111}, {"start": 105.89732999999998, "end": 106.15373999999998, "pitch": 62, "velocity": 111}, {"start": 106.15373999999998, "end": 106.41014999999999, "pitch": 62, "velocity": 111}, {"start": 106.41014999999999, "end": 106.66655999999999, "pitch": 62, "velocity": 111}, {"start": 106.66655999999999, "end": 106.92296999999999, "pitch": 61, "velocity": 111}, {"start": 106.92296999999999, "end": 107.17938, "pitch": 62, "velocity": 111}, {"start": 107.17938, "end": 107.43578999999998, "pitch": 62, "velocity": 111}, {"start": 107.69219999999999, "end": 107.94860999999999, "pitch": 62, "velocity": 111}, {"start": 107.94860999999999, "end": 108.20501999999999, "pitch": 62, "velocity": 111}, {"start": 108.20501999999999, "end": 108.46143, "pitch": 62, "velocity": 111}, {"start": 108.46143, "end": 108.71783999999998, "pitch": 62, "velocity": 111}, {"start": 108.71783999999998, "end": 108.97424999999998, "pitch": 69, "velocity": 111}, {"start": 108.71783999999998, "end": 108.97424999999998, "pitch": 57, "velocity": 95}, {"start": 108.97424999999998, "end": 109.48706999999999, "pitch": 67, "velocity": 111}, {"start": 108.97424999999998, "end": 109.48706999999999, "pitch": 55, "velocity": 95}, {"start": 109.48706999999999, "end": 109.74347999999999, "pitch": 66, "velocity": 111}, {"start": 109.48706999999999, "end": 109.74347999999999, "pitch": 54, "velocity": 95}, {"start": 109.99989, "end": 110.25629999999998, "pitch": 64, "velocity": 111}, {"start": 109.99989, "end": 110.25629999999998, "pitch": 57, "velocity": 95}, {"start": 110.25629999999998, "end": 110.51270999999998, "pitch": 66, "velocity": 111}, {"start": 110.25629999999998, "end": 110.51270999999998, "pitch": 57, "velocity": 95}, {"start": 110.51270999999998, "end": 110.76911999999999, "pitch": 66, "velocity": 111}, {"start": 110.51270999999998, "end": 110.76911999999999, "pitch": 57, "velocity": 95}, {"start": 110.76911999999999, "end": 111.02552999999999, "pitch": 66, "velocity": 111}, {"start": 110.76911999999999, "end": 111.02552999999999, "pitch": 57, "velocity": 95}, {"start": 111.02552999999999, "end": 111.28193999999999, "pitch": 66, "velocity": 111}, {"start": 111.02552999999999, "end": 111.28193999999999, "pitch": 57, "velocity": 95}, {"start": 111.28193999999999, "end": 111.53835, "pitch": 66, "velocity": 111}, {"start": 111.28193999999999, "end": 111.53835, "pitch": 57, "velocity": 95}, {"start": 111.53835, "end": 111.79475999999998, "pitch": 66, "velocity": 111}, {"start": 111.53835, "end": 111.79475999999998, "pitch": 57, "velocity": 95}, {"start": 111.79475999999998, "end": 112.05116999999998, "pitch": 66, "velocity": 111}, {"start": 111.79475999999998, "end": 112.05116999999998, "pitch": 57, "velocity": 95}, {"start": 112.05116999999998, "end": 112.30757999999999, "pitch": 64, "velocity": 89}, {"start": 112.05116999999998, "end": 112.30757999999999, "pitch": 55, "velocity": 76}, {"start": 112.30757999999999, "end": 112.56398999999999, "pitch": 64, "velocity": 111}, {"start": 112.30757999999999, "end": 112.56398999999999, "pitch": 55, "velocity": 95}, {"start": 112.56398999999999, "end": 112.82039999999999, "pitch": 62, "velocity": 111}, {"start": 112.56398999999999, "end": 112.82039999999999, "pitch": 55, "velocity": 95}, {"start": 112.82039999999999, "end": 113.07680999999998, "pitch": 64, "velocity": 111}, {"start": 112.82039999999999, "end": 113.07680999999998, "pitch": 57, "velocity": 95}, {"start": 113.07680999999998, "end": 113.33321999999998, "pitch": 64, "velocity": 111}, {"start": 113.07680999999998, "end": 113.33321999999998, "pitch": 57, "velocity": 95}, {"start": 113.33321999999998, "end": 113.58962999999999, "pitch": 64, "velocity": 111}, {"start": 113.33321999999998, "end": 113.58962999999999, "pitch": 57, "velocity": 95}, {"start": 113.58962999999999, "end": 114.10244999999999, "pitch": 64, "velocity": 111}, {"start": 113.58962999999999, "end": 114.10244999999999, "pitch": 57, "velocity": 95}, {"start": 114.10244999999999, "end": 114.61526999999998, "pitch": 62, "velocity": 111}, {"start": 114.10244999999999, "end": 114.61526999999998, "pitch": 57, "velocity": 95}, {"start": 114.61526999999998, "end": 114.87167999999998, "pitch": 66, "velocity": 111}, {"start": 114.61526999999998, "end": 114.87167999999998, "pitch": 54, "velocity": 95}, {"start": 114.87167999999998, "end": 115.12808999999999, "pitch": 67, "velocity": 89}, {"start": 114.87167999999998, "end": 115.12808999999999, "pitch": 55, "velocity": 95}, {"start": 115.12808999999999, "end": 116.66654999999999, "pitch": 66, "velocity": 111}, {"start": 115.12808999999999, "end": 116.66654999999999, "pitch": 54, "velocity": 95}, {"start": 117.43577999999998, "end": 117.69218999999998, "pitch": 66, "velocity": 127}, {"start": 117.69218999999998, "end": 118.20500999999999, "pitch": 66, "velocity": 127}, {"start": 118.20500999999999, "end": 118.97423999999998, "pitch": 64, "velocity": 111}, {"start": 118.97423999999998, "end": 119.23064999999998, "pitch": 62, "velocity": 127}, {"start": 119.23064999999998, "end": 119.48705999999999, "pitch": 62, "velocity": 127}, {"start": 119.48705999999999, "end": 119.99987999999999, "pitch": 67, "velocity": 127}, {"start": 119.99987999999999, "end": 120.51269999999998, "pitch": 66, "velocity": 127}, {"start": 120.51269999999998, "end": 121.02551999999999, "pitch": 62, "velocity": 127}, {"start": 121.02551999999999, "end": 121.28192999999999, "pitch": 62, "velocity": 127}, {"start": 121.28192999999999, "end": 121.53833999999999, "pitch": 64, "velocity": 127}, {"start": 121.53833999999999, "end": 121.79475, "pitch": 64, "velocity": 127}, {"start": 121.79475, "end": 122.05115999999998, "pitch": 62, "velocity": 127}, {"start": 122.05115999999998, "end": 122.30756999999998, "pitch": 66, "velocity": 127}, {"start": 122.30756999999998, "end": 122.56397999999999, "pitch": 62, "velocity": 127}, {"start": 122.56397999999999, "end": 123.07679999999999, "pitch": 64, "velocity": 127}, {"start": 123.07679999999999, "end": 123.58961999999998, "pitch": 62, "velocity": 127}, {"start": 123.58961999999998, "end": 124.10243999999999, "pitch": 64, "velocity": 127}, {"start": 124.10243999999999, "end": 124.61525999999999, "pitch": 66, "velocity": 127}, {"start": 124.61525999999999, "end": 125.12807999999998, "pitch": 64, "velocity": 127}, {"start": 125.12807999999998, "end": 125.38448999999999, "pitch": 62, "velocity": 127}, {"start": 125.38448999999999, "end": 125.64089999999999, "pitch": 64, "velocity": 127}, {"start": 125.64089999999999, "end": 125.89730999999999, "pitch": 64, "velocity": 127}, {"start": 125.89730999999999, "end": 126.15371999999999, "pitch": 62, "velocity": 127}, {"start": 126.15371999999999, "end": 126.41012999999998, "pitch": 66, "velocity": 127}, {"start": 126.41012999999998, "end": 126.66653999999998, "pitch": 62, "velocity": 127}, {"start": 126.66653999999998, "end": 127.17935999999999, "pitch": 64, "velocity": 127}, {"start": 127.17935999999999, "end": 127.69217999999998, "pitch": 62, "velocity": 127}, {"start": 127.69217999999998, "end": 127.94858999999998, "pitch": 64, "velocity": 127}, {"start": 127.94858999999998, "end": 128.20499999999998, "pitch": 62, "velocity": 127}, {"start": 128.20499999999998, "end": 128.71782, "pitch": 66, "velocity": 127}, {"start": 128.71782, "end": 129.23064, "pitch": 64, "velocity": 127}, {"start": 129.23064, "end": 129.74346, "pitch": 62, "velocity": 127}, {"start": 129.74346, "end": 129.99987, "pitch": 64, "velocity": 127}, {"start": 129.99987, "end": 130.25627999999998, "pitch": 62, "velocity": 127}, {"start": 130.25627999999998, "end": 130.76909999999998, "pitch": 66, "velocity": 127}, {"start": 130.76909999999998, "end": 131.28191999999999, "pitch": 64, "velocity": 127}, {"start": 131.28191999999999, "end": 131.53832999999997, "pitch": 62, "velocity": 127}, {"start": 131.53832999999997, "end": 131.79474, "pitch": 62, "velocity": 127}, {"start": 131.79474, "end": 132.05114999999998, "pitch": 66, "velocity": 127}, {"start": 132.05114999999998, "end": 132.30756, "pitch": 64, "velocity": 102}, {"start": 132.30756, "end": 132.82037999999997, "pitch": 66, "velocity": 127}, {"start": 132.82037999999997, "end": 133.33319999999998, "pitch": 66, "velocity": 127}, {"start": 133.33319999999998, "end": 133.58961, "pitch": 66, "velocity": 127}, {"start": 133.58961, "end": 133.84601999999998, "pitch": 64, "velocity": 127}, {"start": 133.84601999999998, "end": 134.35884, "pitch": 66, "velocity": 127}, {"start": 134.35884, "end": 134.666532, "pitch": 66, "velocity": 127}, {"start": 134.61524999999997, "end": 134.87166, "pitch": 64, "velocity": 76}, {"start": 134.87166, "end": 135.38448, "pitch": 62, "velocity": 127}, {"start": 135.38448, "end": 135.64088999999998, "pitch": 62, "velocity": 127}, {"start": 135.38448, "end": 135.64088999999998, "pitch": 50, "velocity": 95}, {"start": 135.64088999999998, "end": 135.89729999999997, "pitch": 62, "velocity": 127}, {"start": 135.64088999999998, "end": 135.89729999999997, "pitch": 50, "velocity": 95}, {"start": 135.89729999999997, "end": 136.41011999999998, "pitch": 67, "velocity": 127}, {"start": 135.89729999999997, "end": 136.41011999999998, "pitch": 55, "velocity": 95}, {"start": 136.41011999999998, "end": 136.92293999999998, "pitch": 66, "velocity": 127}, {"start": 136.41011999999998, "end": 136.92293999999998, "pitch": 54, "velocity": 95}, {"start": 136.92293999999998, "end": 137.17934999999997, "pitch": 62, "velocity": 127}, {"start": 136.92293999999998, "end": 137.17934999999997, "pitch": 50, "velocity": 95}, {"start": 137.17934999999997, "end": 137.43576, "pitch": 62, "velocity": 127}, {"start": 137.17934999999997, "end": 137.43576, "pitch": 50, "velocity": 95}, {"start": 137.43576, "end": 137.69216999999998, "pitch": 62, "velocity": 127}, {"start": 137.43576, "end": 137.69216999999998, "pitch": 50, "velocity": 95}, {"start": 137.69216999999998, "end": 137.94858, "pitch": 64, "velocity": 127}, {"start": 137.69216999999998, "end": 137.94858, "pitch": 52, "velocity": 95}, {"start": 137.94858, "end": 138.20498999999998, "pitch": 64, "velocity": 127}, {"start": 137.94858, "end": 138.20498999999998, "pitch": 52, "velocity": 95}, {"start": 138.20498999999998, "end": 138.4614, "pitch": 62, "velocity": 127}, {"start": 138.20498999999998, "end": 138.4614, "pitch": 50, "velocity": 95}, {"start": 138.4614, "end": 138.71781, "pitch": 66, "velocity": 127}, {"start": 138.4614, "end": 138.71781, "pitch": 54, "velocity": 95}, {"start": 138.71781, "end": 138.97421999999997, "pitch": 62, "velocity": 127}, {"start": 138.71781, "end": 138.97421999999997, "pitch": 50, "velocity": 95}, {"start": 138.97421999999997, "end": 139.48703999999998, "pitch": 64, "velocity": 127}, {"start": 138.97421999999997, "end": 139.48703999999998, "pitch": 52, "velocity": 95}, {"start": 139.74345, "end": 139.99985999999998, "pitch": 69, "velocity": 63}, {"start": 139.74345, "end": 139.99985999999998, "pitch": 64, "velocity": 127}, {"start": 139.74345, "end": 139.99985999999998, "pitch": 62, "velocity": 95}, {"start": 139.74345, "end": 139.99985999999998, "pitch": 52, "velocity": 95}, {"start": 139.99985999999998, "end": 140.25626999999997, "pitch": 69, "velocity": 63}, {"start": 139.99985999999998, "end": 140.25626999999997, "pitch": 64, "velocity": 127}, {"start": 139.99985999999998, "end": 140.25626999999997, "pitch": 62, "velocity": 95}, {"start": 139.99985999999998, "end": 140.25626999999997, "pitch": 52, "velocity": 95}, {"start": 140.25626999999997, "end": 140.51268, "pitch": 67, "velocity": 63}, {"start": 140.25626999999997, "end": 140.51268, "pitch": 64, "velocity": 95}, {"start": 140.25626999999997, "end": 140.51268, "pitch": 62, "velocity": 127}, {"start": 140.25626999999997, "end": 140.51268, "pitch": 50, "velocity": 95}, {"start": 140.51268, "end": 140.76908999999998, "pitch": 67, "velocity": 63}, {"start": 140.51268, "end": 140.76908999999998, "pitch": 66, "velocity": 127}, {"start": 140.51268, "end": 140.76908999999998, "pitch": 62, "velocity": 95}, {"start": 140.51268, "end": 140.76908999999998, "pitch": 54, "velocity": 95}, {"start": 140.76908999999998, "end": 141.0255, "pitch": 66, "velocity": 63}, {"start": 140.76908999999998, "end": 141.0255, "pitch": 66, "velocity": 95}, {"start": 140.76908999999998, "end": 141.0255, "pitch": 62, "velocity": 127}, {"start": 140.76908999999998, "end": 141.0255, "pitch": 54, "velocity": 95}, {"start": 141.0255, "end": 141.53831999999997, "pitch": 69, "velocity": 63}, {"start": 141.0255, "end": 141.53831999999997, "pitch": 64, "velocity": 127}, {"start": 141.0255, "end": 141.53831999999997, "pitch": 61, "velocity": 95}, {"start": 141.0255, "end": 141.53831999999997, "pitch": 52, "velocity": 95}, {"start": 141.79473, "end": 142.05113999999998, "pitch": 64, "velocity": 127}, {"start": 141.79473, "end": 142.05113999999998, "pitch": 52, "velocity": 95}, {"start": 142.05113999999998, "end": 142.30755, "pitch": 64, "velocity": 127}, {"start": 142.05113999999998, "end": 142.30755, "pitch": 52, "velocity": 95}, {"start": 142.30755, "end": 142.56395999999998, "pitch": 62, "velocity": 127}, {"start": 142.30755, "end": 142.56395999999998, "pitch": 50, "velocity": 95}, {"start": 142.56395999999998, "end": 143.07677999999999, "pitch": 69, "velocity": 127}, {"start": 142.56395999999998, "end": 143.07677999999999, "pitch": 57, "velocity": 95}, {"start": 143.07677999999999, "end": 143.33318999999997, "pitch": 64, "velocity": 127}, {"start": 143.07677999999999, "end": 143.33318999999997, "pitch": 52, "velocity": 95}, {"start": 143.33318999999997, "end": 143.5896, "pitch": 62, "velocity": 102}, {"start": 143.33318999999997, "end": 143.5896, "pitch": 50, "velocity": 76}, {"start": 143.5896, "end": 144.10242, "pitch": 62, "velocity": 127}, {"start": 143.5896, "end": 144.10242, "pitch": 50, "velocity": 95}, {"start": 144.10242, "end": 144.35882999999998, "pitch": 64, "velocity": 127}, {"start": 144.10242, "end": 144.35882999999998, "pitch": 52, "velocity": 95}, {"start": 144.35882999999998, "end": 144.61523999999997, "pitch": 62, "velocity": 127}, {"start": 144.35882999999998, "end": 144.61523999999997, "pitch": 50, "velocity": 95}, {"start": 144.61523999999997, "end": 145.12805999999998, "pitch": 66, "velocity": 127}, {"start": 144.61523999999997, "end": 145.12805999999998, "pitch": 54, "velocity": 95}, {"start": 145.12805999999998, "end": 145.64087999999998, "pitch": 64, "velocity": 127}, {"start": 145.12805999999998, "end": 145.64087999999998, "pitch": 52, "velocity": 95}, {"start": 145.64087999999998, "end": 145.89728999999997, "pitch": 62, "velocity": 127}, {"start": 145.64087999999998, "end": 145.89728999999997, "pitch": 50, "velocity": 95}, {"start": 145.89728999999997, "end": 146.1537, "pitch": 64, "velocity": 127}, {"start": 145.89728999999997, "end": 146.1537, "pitch": 52, "velocity": 95}, {"start": 146.1537, "end": 146.41010999999997, "pitch": 64, "velocity": 127}, {"start": 146.1537, "end": 146.41010999999997, "pitch": 52, "velocity": 95}, {"start": 146.41010999999997, "end": 146.66652, "pitch": 62, "velocity": 127}, {"start": 146.41010999999997, "end": 146.66652, "pitch": 50, "velocity": 95}, {"start": 146.66652, "end": 147.17934, "pitch": 66, "velocity": 127}, {"start": 146.66652, "end": 147.17934, "pitch": 54, "velocity": 95}, {"start": 147.17934, "end": 147.69215999999997, "pitch": 64, "velocity": 127}, {"start": 147.17934, "end": 147.69215999999997, "pitch": 52, "velocity": 95}, {"start": 147.69215999999997, "end": 147.94857, "pitch": 62, "velocity": 127}, {"start": 147.69215999999997, "end": 147.94857, "pitch": 50, "velocity": 95}, {"start": 147.94857, "end": 148.20497999999998, "pitch": 62, "velocity": 127}, {"start": 147.94857, "end": 148.20497999999998, "pitch": 50, "velocity": 95}, {"start": 148.20497999999998, "end": 148.46139, "pitch": 64, "velocity": 127}, {"start": 148.20497999999998, "end": 148.46139, "pitch": 52, "velocity": 95}, {"start": 148.71779999999998, "end": 148.97420999999997, "pitch": 66, "velocity": 127}, {"start": 148.71779999999998, "end": 148.97420999999997, "pitch": 54, "velocity": 95}, {"start": 148.97420999999997, "end": 149.23062, "pitch": 64, "velocity": 102}, {"start": 148.97420999999997, "end": 149.23062, "pitch": 52, "velocity": 76}, {"start": 149.23062, "end": 149.74344, "pitch": 66, "velocity": 127}, {"start": 149.23062, "end": 149.74344, "pitch": 54, "velocity": 95}, {"start": 149.74344, "end": 149.99984999999998, "pitch": 66, "velocity": 127}, {"start": 149.74344, "end": 149.99984999999998, "pitch": 54, "velocity": 95}, {"start": 149.99984999999998, "end": 150.25625999999997, "pitch": 64, "velocity": 127}, {"start": 149.99984999999998, "end": 150.25625999999997, "pitch": 52, "velocity": 95}, {"start": 150.25625999999997, "end": 150.76907999999997, "pitch": 66, "velocity": 127}, {"start": 150.25625999999997, "end": 150.76907999999997, "pitch": 54, "velocity": 95}, {"start": 150.76907999999997, "end": 151.02549, "pitch": 54, "velocity": 95}, {"start": 150.76907999999997, "end": 151.07677199999998, "pitch": 66, "velocity": 127}, {"start": 151.02549, "end": 151.28189999999998, "pitch": 64, "velocity": 76}, {"start": 151.02549, "end": 151.28189999999998, "pitch": 52, "velocity": 76}, {"start": 151.28189999999998, "end": 151.79471999999998, "pitch": 62, "velocity": 127}, {"start": 151.28189999999998, "end": 151.79471999999998, "pitch": 50, "velocity": 95}, {"start": 155.12804999999997, "end": 155.38446, "pitch": 66, "velocity": 127}, {"start": 155.64086999999998, "end": 156.41009999999997, "pitch": 64, "velocity": 127}, {"start": 156.41009999999997, "end": 156.92291999999998, "pitch": 66, "velocity": 127}, {"start": 167.17932, "end": 167.43572999999998, "pitch": 66, "velocity": 111}, {"start": 167.43572999999998, "end": 167.69214, "pitch": 64, "velocity": 111}, {"start": 167.69214, "end": 167.94854999999998, "pitch": 62, "velocity": 111}, {"start": 167.94854999999998, "end": 168.20495999999997, "pitch": 61, "velocity": 111}, {"start": 168.20495999999997, "end": 168.97419, "pitch": 61, "velocity": 111}, {"start": 168.97419, "end": 169.99982999999997, "pitch": 62, "velocity": 111}, {"start": 171.28187999999997, "end": 171.53829, "pitch": 61, "velocity": 111}, {"start": 171.53829, "end": 171.79469999999998, "pitch": 62, "velocity": 111}, {"start": 171.79469999999998, "end": 172.05111, "pitch": 62, "velocity": 111}, {"start": 172.05111, "end": 172.30751999999998, "pitch": 62, "velocity": 111}, {"start": 172.30751999999998, "end": 172.56392999999997, "pitch": 64, "velocity": 111}, {"start": 172.30751999999998, "end": 172.56392999999997, "pitch": 57, "velocity": 63}, {"start": 172.56392999999997, "end": 172.82034, "pitch": 66, "velocity": 111}, {"start": 172.56392999999997, "end": 172.82034, "pitch": 57, "velocity": 63}, {"start": 172.82034, "end": 173.07674999999998, "pitch": 66, "velocity": 111}, {"start": 172.82034, "end": 173.07674999999998, "pitch": 57, "velocity": 63}, {"start": 173.07674999999998, "end": 173.33316, "pitch": 66, "velocity": 111}, {"start": 173.07674999999998, "end": 173.33316, "pitch": 57, "velocity": 63}, {"start": 173.33316, "end": 173.58956999999998, "pitch": 66, "velocity": 111}, {"start": 173.33316, "end": 173.58956999999998, "pitch": 57, "velocity": 63}, {"start": 173.58956999999998, "end": 173.84597999999997, "pitch": 67, "velocity": 111}, {"start": 173.58956999999998, "end": 173.84597999999997, "pitch": 59, "velocity": 63}, {"start": 173.84597999999997, "end": 174.10238999999999, "pitch": 66, "velocity": 111}, {"start": 173.84597999999997, "end": 174.10238999999999, "pitch": 57, "velocity": 63}, {"start": 174.10238999999999, "end": 174.87161999999998, "pitch": 64, "velocity": 111}, {"start": 174.10238999999999, "end": 174.87161999999998, "pitch": 57, "velocity": 63}, {"start": 175.12802999999997, "end": 175.38443999999998, "pitch": 64, "velocity": 111}, {"start": 175.38443999999998, "end": 175.64084999999997, "pitch": 66, "velocity": 111}, {"start": 175.64084999999997, "end": 175.89726, "pitch": 62, "velocity": 111}, {"start": 175.89726, "end": 176.15366999999998, "pitch": 62, "velocity": 111}, {"start": 176.15366999999998, "end": 176.41008, "pitch": 61, "velocity": 111}, {"start": 177.17931, "end": 178.20494999999997, "pitch": 67, "velocity": 79}, {"start": 177.17931, "end": 178.20494999999997, "pitch": 64, "velocity": 95}, {"start": 177.17931, "end": 178.20494999999997, "pitch": 59, "velocity": 79}, {"start": 178.20494999999997, "end": 179.23058999999998, "pitch": 66, "velocity": 79}, {"start": 178.20494999999997, "end": 179.23058999999998, "pitch": 62, "velocity": 95}, {"start": 178.20494999999997, "end": 179.23058999999998, "pitch": 59, "velocity": 79}, {"start": 179.99981999999997, "end": 180.25623, "pitch": 62, "velocity": 111}, {"start": 180.25623, "end": 180.51263999999998, "pitch": 62, "velocity": 111}, {"start": 180.51263999999998, "end": 180.76905, "pitch": 66, "velocity": 111}, {"start": 180.76905, "end": 181.02545999999998, "pitch": 66, "velocity": 111}, {"start": 181.02545999999998, "end": 181.28186999999997, "pitch": 66, "velocity": 111}, {"start": 181.28186999999997, "end": 181.53828, "pitch": 66, "velocity": 111}, {"start": 181.53828, "end": 181.88016, "pitch": 69, "velocity": 111}, {"start": 181.88016, "end": 182.22204, "pitch": 64, "velocity": 111}, {"start": 182.22204, "end": 182.56391999999997, "pitch": 64, "velocity": 111}, {"start": 182.56391999999997, "end": 183.07673999999997, "pitch": 64, "velocity": 111}, {"start": 183.33315, "end": 183.58955999999998, "pitch": 64, "velocity": 111}, {"start": 183.58955999999998, "end": 184.10237999999998, "pitch": 64, "velocity": 111}, {"start": 184.10237999999998, "end": 184.6152, "pitch": 62, "velocity": 111}, {"start": 184.6152, "end": 184.87160999999998, "pitch": 62, "velocity": 95}, {"start": 184.87160999999998, "end": 185.12802, "pitch": 62, "velocity": 95}, {"start": 185.12802, "end": 185.64083999999997, "pitch": 67, "velocity": 95}, {"start": 185.64083999999997, "end": 186.15365999999997, "pitch": 66, "velocity": 95}, {"start": 186.15365999999997, "end": 186.66647999999998, "pitch": 62, "velocity": 95}, {"start": 186.66647999999998, "end": 186.92288999999997, "pitch": 62, "velocity": 95}, {"start": 186.92288999999997, "end": 187.17929999999998, "pitch": 64, "velocity": 95}, {"start": 187.17929999999998, "end": 187.43570999999997, "pitch": 64, "velocity": 95}, {"start": 187.43570999999997, "end": 187.69212, "pitch": 62, "velocity": 95}, {"start": 187.69212, "end": 187.94852999999998, "pitch": 66, "velocity": 95}, {"start": 187.94852999999998, "end": 188.20493999999997, "pitch": 62, "velocity": 95}, {"start": 188.20493999999997, "end": 188.71775999999997, "pitch": 64, "velocity": 95}, {"start": 188.71775999999997, "end": 189.23057999999997, "pitch": 62, "velocity": 95}, {"start": 189.23057999999997, "end": 189.74339999999998, "pitch": 64, "velocity": 95}, {"start": 189.74339999999998, "end": 190.25621999999998, "pitch": 66, "velocity": 95}, {"start": 190.25621999999998, "end": 190.76904, "pitch": 64, "velocity": 95}, {"start": 190.76904, "end": 191.02544999999998, "pitch": 62, "velocity": 95}, {"start": 191.02544999999998, "end": 191.28185999999997, "pitch": 64, "velocity": 95}, {"start": 191.28185999999997, "end": 191.53826999999998, "pitch": 64, "velocity": 95}, {"start": 191.53826999999998, "end": 191.79467999999997, "pitch": 62, "velocity": 95}, {"start": 191.79467999999997, "end": 192.05109, "pitch": 66, "velocity": 95}, {"start": 192.05109, "end": 192.30749999999998, "pitch": 62, "velocity": 95}, {"start": 192.30749999999998, "end": 192.56390999999996, "pitch": 64, "velocity": 95}, {"start": 192.56390999999996, "end": 192.82031999999998, "pitch": 64, "velocity": 95}, {"start": 192.82031999999998, "end": 193.33314, "pitch": 62, "velocity": 95}, {"start": 193.33314, "end": 193.58954999999997, "pitch": 64, "velocity": 95}, {"start": 193.58954999999997, "end": 193.84596, "pitch": 62, "velocity": 95}, {"start": 193.84596, "end": 194.35877999999997, "pitch": 66, "velocity": 95}, {"start": 194.35877999999997, "end": 194.61518999999998, "pitch": 64, "velocity": 95}, {"start": 194.61518999999998, "end": 194.87159999999997, "pitch": 62, "velocity": 95}, {"start": 194.87159999999997, "end": 195.38441999999998, "pitch": 62, "velocity": 95}, {"start": 195.38441999999998, "end": 195.64082999999997, "pitch": 64, "velocity": 95}, {"start": 195.64082999999997, "end": 195.89723999999998, "pitch": 62, "velocity": 95}, {"start": 195.89723999999998, "end": 196.41006, "pitch": 66, "velocity": 95}, {"start": 196.41006, "end": 196.92287999999996, "pitch": 64, "velocity": 95}, {"start": 196.92287999999996, "end": 197.43569999999997, "pitch": 62, "velocity": 111}, {"start": 197.43569999999997, "end": 197.69210999999999, "pitch": 64, "velocity": 111}, {"start": 197.69210999999999, "end": 197.94851999999997, "pitch": 62, "velocity": 111}, {"start": 197.94851999999997, "end": 198.46133999999998, "pitch": 66, "velocity": 111}, {"start": 198.46133999999998, "end": 198.97415999999998, "pitch": 64, "velocity": 111}, {"start": 198.97415999999998, "end": 199.48698, "pitch": 62, "velocity": 111}, {"start": 199.48698, "end": 199.74338999999998, "pitch": 64, "velocity": 127}, {"start": 199.74338999999998, "end": 199.99979999999996, "pitch": 62, "velocity": 127}, {"start": 199.99979999999996, "end": 200.25620999999998, "pitch": 66, "velocity": 127}, {"start": 200.25620999999998, "end": 200.51261999999997, "pitch": 66, "velocity": 127}, {"start": 200.51261999999997, "end": 201.02543999999997, "pitch": 64, "velocity": 127}, {"start": 201.02543999999997, "end": 201.28185, "pitch": 64, "velocity": 127}, {"start": 201.02543999999997, "end": 201.28185, "pitch": 56, "velocity": 95}, {"start": 201.02543999999997, "end": 201.28185, "pitch": 52, "velocity": 95}, {"start": 201.28185, "end": 201.53825999999998, "pitch": 64, "velocity": 127}, {"start": 201.28185, "end": 201.53825999999998, "pitch": 56, "velocity": 95}, {"start": 201.28185, "end": 201.53825999999998, "pitch": 52, "velocity": 95}, {"start": 201.53825999999998, "end": 202.05107999999998, "pitch": 69, "velocity": 127}, {"start": 201.53825999999998, "end": 202.05107999999998, "pitch": 57, "velocity": 95}, {"start": 201.53825999999998, "end": 202.05107999999998, "pitch": 57, "velocity": 95}, {"start": 202.05107999999998, "end": 202.30748999999997, "pitch": 68, "velocity": 127}, {"start": 202.05107999999998, "end": 202.30748999999997, "pitch": 56, "velocity": 95}, {"start": 202.05107999999998, "end": 202.30748999999997, "pitch": 56, "velocity": 95}, {"start": 202.30748999999997, "end": 202.5639, "pitch": 66, "velocity": 127}, {"start": 202.30748999999997, "end": 202.5639, "pitch": 56, "velocity": 95}, {"start": 202.30748999999997, "end": 202.5639, "pitch": 54, "velocity": 95}, {"start": 202.5639, "end": 202.82030999999998, "pitch": 66, "velocity": 127}, {"start": 202.5639, "end": 202.82030999999998, "pitch": 56, "velocity": 95}, {"start": 202.5639, "end": 202.82030999999998, "pitch": 54, "velocity": 95}, {"start": 202.82030999999998, "end": 203.07671999999997, "pitch": 64, "velocity": 127}, {"start": 202.82030999999998, "end": 203.07671999999997, "pitch": 56, "velocity": 95}, {"start": 202.82030999999998, "end": 203.07671999999997, "pitch": 52, "velocity": 95}, {"start": 203.07671999999997, "end": 203.33312999999998, "pitch": 64, "velocity": 127}, {"start": 203.07671999999997, "end": 203.33312999999998, "pitch": 56, "velocity": 95}, {"start": 203.07671999999997, "end": 203.33312999999998, "pitch": 52, "velocity": 95}, {"start": 203.33312999999998, "end": 203.58953999999997, "pitch": 66, "velocity": 127}, {"start": 203.33312999999998, "end": 203.58953999999997, "pitch": 56, "velocity": 95}, {"start": 203.33312999999998, "end": 203.58953999999997, "pitch": 54, "velocity": 95}, {"start": 203.58953999999997, "end": 203.84595, "pitch": 66, "velocity": 127}, {"start": 203.58953999999997, "end": 203.84595, "pitch": 56, "velocity": 95}, {"start": 203.58953999999997, "end": 203.84595, "pitch": 54, "velocity": 95}, {"start": 203.84595, "end": 204.10235999999998, "pitch": 64, "velocity": 127}, {"start": 203.84595, "end": 204.10235999999998, "pitch": 56, "velocity": 95}, {"start": 203.84595, "end": 204.10235999999998, "pitch": 52, "velocity": 95}, {"start": 204.10235999999998, "end": 204.35876999999996, "pitch": 68, "velocity": 127}, {"start": 204.10235999999998, "end": 204.35876999999996, "pitch": 56, "velocity": 95}, {"start": 204.10235999999998, "end": 204.35876999999996, "pitch": 56, "velocity": 95}, {"start": 204.35876999999996, "end": 204.61517999999998, "pitch": 64, "velocity": 127}, {"start": 204.35876999999996, "end": 204.61517999999998, "pitch": 56, "velocity": 95}, {"start": 204.35876999999996, "end": 204.61517999999998, "pitch": 52, "velocity": 95}, {"start": 204.61517999999998, "end": 205.128, "pitch": 66, "velocity": 127}, {"start": 204.61517999999998, "end": 205.128, "pitch": 56, "velocity": 95}, {"start": 204.61517999999998, "end": 205.128, "pitch": 54, "velocity": 95}, {"start": 205.128, "end": 205.64082, "pitch": 64, "velocity": 127}, {"start": 205.128, "end": 205.64082, "pitch": 59, "velocity": 95}, {"start": 205.128, "end": 205.64082, "pitch": 52, "velocity": 95}, {"start": 205.64082, "end": 206.15363999999997, "pitch": 66, "velocity": 127}, {"start": 205.64082, "end": 206.15363999999997, "pitch": 59, "velocity": 95}, {"start": 205.64082, "end": 206.15363999999997, "pitch": 54, "velocity": 95}, {"start": 206.15363999999997, "end": 206.66645999999997, "pitch": 68, "velocity": 127}, {"start": 206.15363999999997, "end": 206.66645999999997, "pitch": 59, "velocity": 95}, {"start": 206.15363999999997, "end": 206.66645999999997, "pitch": 56, "velocity": 95}, {"start": 206.66645999999997, "end": 207.17927999999998, "pitch": 66, "velocity": 127}, {"start": 206.66645999999997, "end": 207.17927999999998, "pitch": 59, "velocity": 95}, {"start": 206.66645999999997, "end": 207.17927999999998, "pitch": 54, "velocity": 95}, {"start": 207.17927999999998, "end": 207.69209999999998, "pitch": 71, "velocity": 127}, {"start": 207.17927999999998, "end": 207.69209999999998, "pitch": 59, "velocity": 95}, {"start": 207.17927999999998, "end": 207.69209999999998, "pitch": 59, "velocity": 95}, {"start": 207.69209999999998, "end": 207.94850999999997, "pitch": 68, "velocity": 127}, {"start": 207.69209999999998, "end": 207.94850999999997, "pitch": 59, "velocity": 95}, {"start": 207.69209999999998, "end": 207.94850999999997, "pitch": 56, "velocity": 95}, {"start": 207.94850999999997, "end": 208.20492, "pitch": 66, "velocity": 127}, {"start": 207.94850999999997, "end": 208.20492, "pitch": 59, "velocity": 95}, {"start": 207.94850999999997, "end": 208.20492, "pitch": 54, "velocity": 95}, {"start": 208.20492, "end": 208.46132999999998, "pitch": 66, "velocity": 127}, {"start": 208.20492, "end": 208.46132999999998, "pitch": 59, "velocity": 95}, {"start": 208.20492, "end": 208.46132999999998, "pitch": 54, "velocity": 95}, {"start": 208.46132999999998, "end": 208.71773999999996, "pitch": 64, "velocity": 127}, {"start": 208.46132999999998, "end": 208.71773999999996, "pitch": 59, "velocity": 95}, {"start": 208.46132999999998, "end": 208.71773999999996, "pitch": 52, "velocity": 95}, {"start": 208.71773999999996, "end": 208.97414999999998, "pitch": 64, "velocity": 127}, {"start": 208.71773999999996, "end": 209.23055999999997, "pitch": 59, "velocity": 95}, {"start": 208.71773999999996, "end": 209.23055999999997, "pitch": 52, "velocity": 95}, {"start": 208.97414999999998, "end": 209.23055999999997, "pitch": 64, "velocity": 127}, {"start": 209.23055999999997, "end": 209.74337999999997, "pitch": 64, "velocity": 127}, {"start": 209.23055999999997, "end": 209.74337999999997, "pitch": 61, "velocity": 95}, {"start": 209.23055999999997, "end": 209.74337999999997, "pitch": 52, "velocity": 95}, {"start": 209.74337999999997, "end": 209.99979, "pitch": 66, "velocity": 127}, {"start": 209.74337999999997, "end": 209.99979, "pitch": 61, "velocity": 95}, {"start": 209.74337999999997, "end": 209.99979, "pitch": 54, "velocity": 95}, {"start": 209.99979, "end": 210.25619999999998, "pitch": 64, "velocity": 127}, {"start": 209.99979, "end": 210.25619999999998, "pitch": 61, "velocity": 95}, {"start": 209.99979, "end": 210.25619999999998, "pitch": 52, "velocity": 95}, {"start": 210.25619999999998, "end": 210.76901999999998, "pitch": 68, "velocity": 127}, {"start": 210.25619999999998, "end": 210.76901999999998, "pitch": 61, "velocity": 95}, {"start": 210.25619999999998, "end": 210.76901999999998, "pitch": 56, "velocity": 95}, {"start": 210.76901999999998, "end": 211.28184, "pitch": 66, "velocity": 127}, {"start": 210.76901999999998, "end": 211.28184, "pitch": 61, "velocity": 95}, {"start": 210.76901999999998, "end": 211.28184, "pitch": 54, "velocity": 95}, {"start": 211.28184, "end": 211.79465999999996, "pitch": 64, "velocity": 127}, {"start": 211.28184, "end": 211.79465999999996, "pitch": 61, "velocity": 95}, {"start": 211.28184, "end": 211.79465999999996, "pitch": 52, "velocity": 95}, {"start": 211.79465999999996, "end": 212.05106999999998, "pitch": 66, "velocity": 127}, {"start": 211.79465999999996, "end": 212.05106999999998, "pitch": 61, "velocity": 95}, {"start": 211.79465999999996, "end": 212.05106999999998, "pitch": 54, "velocity": 95}, {"start": 212.05106999999998, "end": 212.30747999999997, "pitch": 64, "velocity": 127}, {"start": 212.05106999999998, "end": 212.30747999999997, "pitch": 61, "velocity": 95}, {"start": 212.05106999999998, "end": 212.30747999999997, "pitch": 52, "velocity": 95}, {"start": 212.30747999999997, "end": 212.82029999999997, "pitch": 68, "velocity": 127}, {"start": 212.30747999999997, "end": 212.82029999999997, "pitch": 61, "velocity": 95}, {"start": 212.30747999999997, "end": 212.82029999999997, "pitch": 56, "velocity": 95}, {"start": 212.82029999999997, "end": 213.33311999999998, "pitch": 66, "velocity": 127}, {"start": 212.82029999999997, "end": 213.33311999999998, "pitch": 61, "velocity": 95}, {"start": 212.82029999999997, "end": 213.33311999999998, "pitch": 54, "velocity": 95}, {"start": 213.33311999999998, "end": 213.58952999999997, "pitch": 64, "velocity": 127}, {"start": 213.33311999999998, "end": 213.58952999999997, "pitch": 57, "velocity": 95}, {"start": 213.33311999999998, "end": 213.58952999999997, "pitch": 52, "velocity": 95}, {"start": 213.58952999999997, "end": 213.84593999999998, "pitch": 64, "velocity": 127}, {"start": 213.58952999999997, "end": 213.84593999999998, "pitch": 57, "velocity": 95}, {"start": 213.58952999999997, "end": 213.84593999999998, "pitch": 52, "velocity": 95}, {"start": 213.84593999999998, "end": 214.10234999999997, "pitch": 66, "velocity": 127}, {"start": 213.84593999999998, "end": 214.10234999999997, "pitch": 57, "velocity": 95}, {"start": 213.84593999999998, "end": 214.10234999999997, "pitch": 54, "velocity": 95}, {"start": 214.35876, "end": 214.61516999999998, "pitch": 68, "velocity": 127}, {"start": 214.35876, "end": 214.87157999999997, "pitch": 57, "velocity": 95}, {"start": 214.35876, "end": 214.87157999999997, "pitch": 56, "velocity": 95}, {"start": 214.61516999999998, "end": 214.87157999999997, "pitch": 66, "velocity": 102}, {"start": 214.87157999999997, "end": 215.12798999999998, "pitch": 68, "velocity": 127}, {"start": 214.87157999999997, "end": 215.38439999999997, "pitch": 57, "velocity": 95}, {"start": 214.87157999999997, "end": 215.38439999999997, "pitch": 54, "velocity": 95}, {"start": 215.12798999999998, "end": 215.38439999999997, "pitch": 66, "velocity": 102}, {"start": 215.38439999999997, "end": 215.64081, "pitch": 68, "velocity": 127}, {"start": 215.38439999999997, "end": 215.64081, "pitch": 57, "velocity": 95}, {"start": 215.38439999999997, "end": 215.64081, "pitch": 56, "velocity": 95}, {"start": 215.64081, "end": 215.89721999999998, "pitch": 66, "velocity": 127}, {"start": 215.64081, "end": 215.89721999999998, "pitch": 57, "velocity": 95}, {"start": 215.64081, "end": 215.89721999999998, "pitch": 54, "velocity": 95}, {"start": 215.89721999999998, "end": 216.41003999999998, "pitch": 68, "velocity": 127}, {"start": 215.89721999999998, "end": 216.41003999999998, "pitch": 57, "velocity": 95}, {"start": 215.89721999999998, "end": 216.41003999999998, "pitch": 56, "velocity": 95}, {"start": 216.41003999999998, "end": 217.43567999999996, "pitch": 68, "velocity": 127}, {"start": 216.41003999999998, "end": 217.43567999999996, "pitch": 56, "velocity": 95}, {"start": 216.66644999999997, "end": 217.43567999999996, "pitch": 54, "velocity": 95}, {"start": 217.94849999999997, "end": 218.97413999999998, "pitch": 64, "velocity": 127}, {"start": 217.94849999999997, "end": 218.97413999999998, "pitch": 52, "velocity": 95}, {"start": 220.25618999999998, "end": 220.51259999999996, "pitch": 59, "velocity": 111}, {"start": 220.76900999999998, "end": 221.02541999999997, "pitch": 68, "velocity": 127}, {"start": 221.28182999999999, "end": 222.05105999999998, "pitch": 66, "velocity": 127}, {"start": 222.05105999999998, "end": 222.56387999999998, "pitch": 68, "velocity": 127}, {"start": 224.35875, "end": 224.61515999999997, "pitch": 59, "velocity": 111}, {"start": 224.87156999999996, "end": 225.12797999999998, "pitch": 68, "velocity": 127}, {"start": 225.38438999999997, "end": 226.15361999999996, "pitch": 66, "velocity": 127}, {"start": 226.15361999999996, "end": 226.66643999999997, "pitch": 61, "velocity": 127}, {"start": 229.48694999999998, "end": 229.74335999999997, "pitch": 64, "velocity": 127}, {"start": 229.74335999999997, "end": 229.99976999999998, "pitch": 63, "velocity": 127}, {"start": 229.99976999999998, "end": 230.25617999999997, "pitch": 64, "velocity": 127}, {"start": 230.25617999999997, "end": 230.76899999999998, "pitch": 64, "velocity": 127}, {"start": 230.76899999999998, "end": 231.28181999999998, "pitch": 64, "velocity": 127}, {"start": 231.53822999999997, "end": 231.79464, "pitch": 64, "velocity": 127}, {"start": 231.79464, "end": 232.05104999999998, "pitch": 64, "velocity": 127}, {"start": 232.05104999999998, "end": 232.56386999999998, "pitch": 64, "velocity": 127}, {"start": 232.56386999999998, "end": 233.58950999999996, "pitch": 66, "velocity": 127}, {"start": 233.58950999999996, "end": 234.87155999999996, "pitch": 64, "velocity": 127}]'),
(5187, '[{"start": 43.25, "end": 43.307291666666664, "pitch": 58, "velocity": 68}, {"start": 43.5, "end": 43.58333333333333, "pitch": 60, "velocity": 60}, {"start": 43.75, "end": 43.83333333333333, "pitch": 62, "velocity": 44}, {"start": 43.875, "end": 44.91145833333333, "pitch": 63, "velocity": 46}, {"start": 45.0, "end": 45.140625, "pitch": 60, "velocity": 64}, {"start": 45.125, "end": 45.20833333333333, "pitch": 58, "velocity": 60}, {"start": 45.25, "end": 45.33333333333333, "pitch": 55, "velocity": 52}, {"start": 45.875, "end": 45.9375, "pitch": 55, "velocity": 56}, {"start": 46.0, "end": 46.171875, "pitch": 58, "velocity": 84}, {"start": 46.25, "end": 46.307291666666664, "pitch": 60, "velocity": 54}, {"start": 46.5, "end": 46.56770833333333, "pitch": 60, "velocity": 66}, {"start": 46.75, "end": 46.81770833333333, "pitch": 58, "velocity": 84}, {"start": 47.0, "end": 47.0625, "pitch": 60, "velocity": 72}, {"start": 47.25, "end": 47.328125, "pitch": 58, "velocity": 76}, {"start": 47.5, "end": 47.625, "pitch": 60, "velocity": 46}, {"start": 47.75, "end": 47.88020833333333, "pitch": 63, "velocity": 60}, {"start": 47.875, "end": 48.119791666666664, "pitch": 60, "velocity": 60}, {"start": 48.125, "end": 48.213541666666664, "pitch": 58, "velocity": 56}, {"start": 48.25, "end": 48.432291666666664, "pitch": 55, "velocity": 56}, {"start": 51.25, "end": 51.31770833333333, "pitch": 58, "velocity": 68}, {"start": 51.5, "end": 51.578125, "pitch": 60, "velocity": 64}, {"start": 51.75, "end": 51.869791666666664, "pitch": 62, "velocity": 62}, {"start": 51.875, "end": 53.0, "pitch": 63, "velocity": 62}, {"start": 53.0, "end": 53.13020833333333, "pitch": 60, "velocity": 62}, {"start": 53.125, "end": 53.171875, "pitch": 58, "velocity": 54}, {"start": 53.25, "end": 53.322916666666664, "pitch": 55, "velocity": 60}, {"start": 53.875, "end": 53.9375, "pitch": 55, "velocity": 52}, {"start": 54.0, "end": 54.19270833333333, "pitch": 58, "velocity": 68}, {"start": 54.25, "end": 54.3125, "pitch": 60, "velocity": 58}, {"start": 54.5, "end": 54.572916666666664, "pitch": 60, "velocity": 64}, {"start": 54.75, "end": 54.81770833333333, "pitch": 58, "velocity": 72}, {"start": 55.0, "end": 55.088541666666664, "pitch": 60, "velocity": 64}, {"start": 55.25, "end": 55.3125, "pitch": 58, "velocity": 68}, {"start": 55.5, "end": 55.69270833333333, "pitch": 60, "velocity": 48}, {"start": 55.75, "end": 55.875, "pitch": 63, "velocity": 54}, {"start": 55.875, "end": 56.109375, "pitch": 60, "velocity": 58}, {"start": 56.125, "end": 56.21875, "pitch": 58, "velocity": 62}, {"start": 56.25, "end": 56.354166666666664, "pitch": 55, "velocity": 66}, {"start": 57.25, "end": 57.3125, "pitch": 60, "velocity": 58}, {"start": 57.5, "end": 57.588541666666664, "pitch": 63, "velocity": 68}, {"start": 57.75, "end": 57.88020833333333, "pitch": 67, "velocity": 66}, {"start": 57.875, "end": 58.1875, "pitch": 65, "velocity": 62}, {"start": 58.125, "end": 58.213541666666664, "pitch": 63, "velocity": 54}, {"start": 58.25, "end": 59.369791666666664, "pitch": 60, "velocity": 50}, {"start": 59.875, "end": 59.921875, "pitch": 65, "velocity": 48}, {"start": 60.0, "end": 60.11458333333333, "pitch": 65, "velocity": 44}, {"start": 60.125, "end": 60.1875, "pitch": 63, "velocity": 80}, {"start": 60.375, "end": 60.447916666666664, "pitch": 63, "velocity": 84}, {"start": 60.625, "end": 60.6875, "pitch": 62, "velocity": 58}, {"start": 60.875, "end": 60.92708333333333, "pitch": 62, "velocity": 68}, {"start": 61.125, "end": 61.19270833333333, "pitch": 60, "velocity": 64}, {"start": 61.375, "end": 61.4375, "pitch": 60, "velocity": 66}, {"start": 61.625, "end": 61.6875, "pitch": 62, "velocity": 66}, {"start": 61.875, "end": 62.276041666666664, "pitch": 63, "velocity": 88}, {"start": 62.25, "end": 62.338541666666664, "pitch": 58, "velocity": 60}, {"start": 62.375, "end": 63.13020833333333, "pitch": 60, "velocity": 35}, {"start": 65.25, "end": 65.30729166666666, "pitch": 60, "velocity": 56}, {"start": 65.5, "end": 65.58333333333333, "pitch": 63, "velocity": 76}, {"start": 65.75, "end": 65.89583333333333, "pitch": 67, "velocity": 66}, {"start": 65.875, "end": 67.42708333333333, "pitch": 65, "velocity": 66}, {"start": 68.0, "end": 68.16145833333333, "pitch": 65, "velocity": 68}, {"start": 68.125, "end": 68.18229166666666, "pitch": 63, "velocity": 88}, {"start": 68.375, "end": 68.44791666666666, "pitch": 63, "velocity": 84}, {"start": 68.625, "end": 68.69270833333333, "pitch": 62, "velocity": 80}, {"start": 68.875, "end": 68.921875, "pitch": 62, "velocity": 58}, {"start": 69.125, "end": 69.19270833333333, "pitch": 60, "velocity": 60}, {"start": 69.375, "end": 69.45833333333333, "pitch": 60, "velocity": 54}, {"start": 69.625, "end": 69.69791666666666, "pitch": 62, "velocity": 72}, {"start": 69.75, "end": 70.66145833333333, "pitch": 63, "velocity": 50}, {"start": 71.0, "end": 71.08333333333333, "pitch": 63, "velocity": 72}, {"start": 71.375, "end": 71.45833333333333, "pitch": 65, "velocity": 66}, {"start": 71.625, "end": 71.71875, "pitch": 63, "velocity": 68}, {"start": 71.75, "end": 72.16145833333333, "pitch": 67, "velocity": 66}, {"start": 72.125, "end": 72.22916666666666, "pitch": 63, "velocity": 52}, {"start": 72.25, "end": 72.9375, "pitch": 65, "velocity": 56}, {"start": 73.25, "end": 73.29166666666666, "pitch": 67, "velocity": 62}, {"start": 73.5, "end": 73.609375, "pitch": 70, "velocity": 84}, {"start": 73.75, "end": 73.81770833333333, "pitch": 67, "velocity": 72}, {"start": 74.0, "end": 74.10416666666666, "pitch": 70, "velocity": 80}, {"start": 74.125, "end": 74.41145833333333, "pitch": 72, "velocity": 76}, {"start": 74.375, "end": 75.52604166666666, "pitch": 70, "velocity": 84}, {"start": 76.0, "end": 76.484375, "pitch": 70, "velocity": 76}, {"start": 76.5, "end": 77.015625, "pitch": 69, "velocity": 72}, {"start": 77.0, "end": 77.65104166666666, "pitch": 67, "velocity": 64}, {"start": 77.75, "end": 77.8125, "pitch": 67, "velocity": 68}, {"start": 78.0, "end": 78.21354166666666, "pitch": 67, "velocity": 76}, {"start": 78.25, "end": 78.3125, "pitch": 65, "velocity": 58}, {"start": 78.5, "end": 78.70833333333333, "pitch": 65, "velocity": 66}, {"start": 78.75, "end": 78.8125, "pitch": 63, "velocity": 68}, {"start": 79.0, "end": 79.109375, "pitch": 63, "velocity": 72}, {"start": 79.25, "end": 79.31770833333333, "pitch": 60, "velocity": 52}, {"start": 79.5, "end": 79.640625, "pitch": 63, "velocity": 84}, {"start": 79.75, "end": 79.83333333333333, "pitch": 65, "velocity": 56}, {"start": 80.0, "end": 80.25520833333333, "pitch": 67, "velocity": 80}, {"start": 80.25, "end": 80.3125, "pitch": 65, "velocity": 60}, {"start": 80.5, "end": 80.734375, "pitch": 65, "velocity": 66}, {"start": 80.75, "end": 80.828125, "pitch": 63, "velocity": 64}, {"start": 80.875, "end": 80.953125, "pitch": 65, "velocity": 66}, {"start": 81.25, "end": 81.359375, "pitch": 67, "velocity": 64}, {"start": 81.5, "end": 81.58333333333333, "pitch": 70, "velocity": 84}, {"start": 81.75, "end": 81.828125, "pitch": 67, "velocity": 56}, {"start": 82.0, "end": 82.11979166666666, "pitch": 70, "velocity": 88}, {"start": 82.0, "end": 82.30729166666666, "pitch": 72, "velocity": 60}, {"start": 82.375, "end": 83.66145833333333, "pitch": 70, "velocity": 64}, {"start": 84.0, "end": 84.46354166666666, "pitch": 70, "velocity": 84}, {"start": 84.5, "end": 85.03125, "pitch": 69, "velocity": 76}, {"start": 85.0, "end": 85.859375, "pitch": 67, "velocity": 62}, {"start": 86.0, "end": 86.1875, "pitch": 67, "velocity": 68}, {"start": 86.25, "end": 86.30208333333333, "pitch": 65, "velocity": 40}, {"start": 86.5, "end": 86.703125, "pitch": 65, "velocity": 68}, {"start": 86.75, "end": 86.80208333333333, "pitch": 63, "velocity": 60}, {"start": 86.875, "end": 86.94791666666666, "pitch": 63, "velocity": 56}, {"start": 87.25, "end": 87.36458333333333, "pitch": 60, "velocity": 31}, {"start": 87.5, "end": 87.64583333333333, "pitch": 63, "velocity": 88}, {"start": 87.75, "end": 87.82291666666666, "pitch": 65, "velocity": 68}, {"start": 88.25, "end": 88.453125, "pitch": 63, "velocity": 88}, {"start": 88.5, "end": 88.578125, "pitch": 60, "velocity": 36}, {"start": 89.0, "end": 89.21354166666666, "pitch": 66, "velocity": 84}, {"start": 89.25, "end": 89.328125, "pitch": 63, "velocity": 54}, {"start": 89.75, "end": 90.06770833333333, "pitch": 70, "velocity": 54}, {"start": 90.0, "end": 91.13020833333333, "pitch": 72, "velocity": 76}, {"start": 91.125, "end": 91.26041666666666, "pitch": 70, "velocity": 58}, {"start": 91.25, "end": 91.49479166666666, "pitch": 67, "velocity": 58}, {"start": 91.5, "end": 91.75520833333333, "pitch": 65, "velocity": 52}, {"start": 91.75, "end": 93.53645833333333, "pitch": 63, "velocity": 42}, {"start": 95.25, "end": 95.36458333333333, "pitch": 67, "velocity": 54}, {"start": 95.375, "end": 95.49479166666666, "pitch": 63, "velocity": 54}, {"start": 95.5, "end": 95.63020833333333, "pitch": 65, "velocity": 52}, {"start": 95.625, "end": 95.70833333333333, "pitch": 63, "velocity": 46}, {"start": 95.75, "end": 96.546875, "pitch": 60, "velocity": 40}, {"start": 99.25, "end": 99.30729166666666, "pitch": 58, "velocity": 68}, {"start": 99.5, "end": 99.58854166666666, "pitch": 60, "velocity": 48}, {"start": 99.75, "end": 99.83333333333333, "pitch": 62, "velocity": 64}, {"start": 99.875, "end": 100.875, "pitch": 63, "velocity": 52}, {"start": 101.0, "end": 101.13020833333333, "pitch": 60, "velocity": 60}, {"start": 101.125, "end": 101.21875, "pitch": 58, "velocity": 60}, {"start": 101.25, "end": 101.34375, "pitch": 55, "velocity": 56}, {"start": 101.875, "end": 101.94791666666666, "pitch": 55, "velocity": 52}, {"start": 102.0, "end": 102.20833333333333, "pitch": 58, "velocity": 84}, {"start": 102.25, "end": 102.31770833333333, "pitch": 60, "velocity": 56}, {"start": 102.5, "end": 102.57291666666666, "pitch": 60, "velocity": 66}, {"start": 102.75, "end": 102.8125, "pitch": 58, "velocity": 80}, {"start": 103.0, "end": 103.06770833333333, "pitch": 60, "velocity": 58}, {"start": 103.25, "end": 103.31770833333333, "pitch": 58, "velocity": 66}, {"start": 103.5, "end": 103.67708333333333, "pitch": 60, "velocity": 56}, {"start": 103.75, "end": 103.84895833333333, "pitch": 63, "velocity": 64}, {"start": 103.875, "end": 104.09895833333333, "pitch": 60, "velocity": 66}, {"start": 104.125, "end": 104.19791666666666, "pitch": 58, "velocity": 62}, {"start": 104.25, "end": 104.38020833333333, "pitch": 55, "velocity": 58}, {"start": 107.25, "end": 107.3125, "pitch": 58, "velocity": 76}, {"start": 107.5, "end": 107.59895833333333, "pitch": 60, "velocity": 54}, {"start": 107.75, "end": 107.859375, "pitch": 62, "velocity": 58}, {"start": 107.875, "end": 108.859375, "pitch": 63, "velocity": 52}, {"start": 109.0, "end": 109.13541666666666, "pitch": 60, "velocity": 62}, {"start": 109.125, "end": 109.20833333333333, "pitch": 58, "velocity": 68}, {"start": 109.25, "end": 109.328125, "pitch": 55, "velocity": 62}, {"start": 109.875, "end": 109.953125, "pitch": 55, "velocity": 62}, {"start": 110.0, "end": 110.23958333333333, "pitch": 58, "velocity": 64}, {"start": 110.25, "end": 110.3125, "pitch": 60, "velocity": 56}, {"start": 110.5, "end": 110.578125, "pitch": 60, "velocity": 52}, {"start": 110.75, "end": 110.8125, "pitch": 58, "velocity": 72}, {"start": 111.0, "end": 111.078125, "pitch": 60, "velocity": 58}, {"start": 111.25, "end": 111.30208333333333, "pitch": 58, "velocity": 68}, {"start": 111.5, "end": 111.609375, "pitch": 60, "velocity": 38}, {"start": 111.75, "end": 111.85416666666666, "pitch": 63, "velocity": 58}, {"start": 111.875, "end": 112.13541666666666, "pitch": 60, "velocity": 54}, {"start": 112.125, "end": 112.20833333333333, "pitch": 58, "velocity": 66}, {"start": 112.25, "end": 112.34895833333333, "pitch": 55, "velocity": 56}, {"start": 113.25, "end": 113.30729166666666, "pitch": 60, "velocity": 76}, {"start": 113.5, "end": 113.59375, "pitch": 63, "velocity": 84}, {"start": 113.75, "end": 113.88020833333333, "pitch": 67, "velocity": 76}, {"start": 113.875, "end": 115.58854166666666, "pitch": 65, "velocity": 66}, {"start": 115.75, "end": 115.81770833333333, "pitch": 65, "velocity": 64}, {"start": 116.0, "end": 116.13020833333333, "pitch": 65, "velocity": 80}, {"start": 116.125, "end": 116.18229166666666, "pitch": 63, "velocity": 76}, {"start": 116.375, "end": 116.43229166666666, "pitch": 63, "velocity": 68}, {"start": 116.625, "end": 116.68229166666666, "pitch": 62, "velocity": 66}, {"start": 116.875, "end": 116.92708333333333, "pitch": 62, "velocity": 68}, {"start": 117.125, "end": 117.18229166666666, "pitch": 60, "velocity": 50}, {"start": 117.375, "end": 117.453125, "pitch": 60, "velocity": 64}, {"start": 117.625, "end": 117.69270833333333, "pitch": 62, "velocity": 68}, {"start": 117.875, "end": 117.96875, "pitch": 63, "velocity": 76}, {"start": 118.25, "end": 118.34895833333333, "pitch": 58, "velocity": 56}, {"start": 118.25, "end": 119.44270833333333, "pitch": 60, "velocity": 54}, {"start": 120.25, "end": 120.38020833333333, "pitch": 67, "velocity": 60}, {"start": 120.375, "end": 120.52083333333333, "pitch": 65, "velocity": 68}, {"start": 120.5, "end": 120.61979166666666, "pitch": 63, "velocity": 58}, {"start": 121.25, "end": 121.30729166666666, "pitch": 60, "velocity": 50}, {"start": 121.5, "end": 121.58333333333333, "pitch": 63, "velocity": 80}, {"start": 121.75, "end": 121.88020833333333, "pitch": 67, "velocity": 62}, {"start": 121.875, "end": 123.63541666666666, "pitch": 65, "velocity": 68}, {"start": 123.75, "end": 123.80208333333333, "pitch": 65, "velocity": 56}, {"start": 124.0, "end": 124.15104166666666, "pitch": 65, "velocity": 76}, {"start": 124.125, "end": 124.19270833333333, "pitch": 63, "velocity": 80}, {"start": 124.375, "end": 124.45833333333333, "pitch": 63, "velocity": 80}, {"start": 124.625, "end": 124.69270833333333, "pitch": 62, "velocity": 68}, {"start": 124.875, "end": 124.94791666666666, "pitch": 62, "velocity": 66}, {"start": 125.125, "end": 125.19270833333333, "pitch": 60, "velocity": 56}, {"start": 125.375, "end": 125.46875, "pitch": 60, "velocity": 68}, {"start": 125.625, "end": 125.6875, "pitch": 62, "velocity": 66}, {"start": 125.75, "end": 126.66145833333333, "pitch": 63, "velocity": 66}, {"start": 127.0, "end": 127.08854166666666, "pitch": 63, "velocity": 80}, {"start": 127.375, "end": 127.50520833333333, "pitch": 65, "velocity": 62}, {"start": 127.625, "end": 127.734375, "pitch": 63, "velocity": 62}, {"start": 127.75, "end": 128.16145833333331, "pitch": 67, "velocity": 68}, {"start": 128.125, "end": 128.234375, "pitch": 63, "velocity": 56}, {"start": 128.25, "end": 129.05729166666666, "pitch": 65, "velocity": 58}, {"start": 129.25, "end": 129.33333333333331, "pitch": 67, "velocity": 68}, {"start": 129.5, "end": 129.61458333333331, "pitch": 70, "velocity": 72}, {"start": 129.75, "end": 129.82291666666666, "pitch": 67, "velocity": 72}, {"start": 130.0, "end": 130.40625, "pitch": 72, "velocity": 72}, {"start": 130.375, "end": 131.609375, "pitch": 70, "velocity": 48}, {"start": 132.0, "end": 132.515625, "pitch": 70, "velocity": 56}, {"start": 132.5, "end": 133.015625, "pitch": 69, "velocity": 80}, {"start": 133.0, "end": 133.66145833333331, "pitch": 67, "velocity": 64}, {"start": 133.75, "end": 133.8125, "pitch": 67, "velocity": 64}, {"start": 134.0, "end": 134.19270833333331, "pitch": 67, "velocity": 84}, {"start": 134.25, "end": 134.31770833333331, "pitch": 65, "velocity": 72}, {"start": 134.5, "end": 134.765625, "pitch": 65, "velocity": 68}, {"start": 134.75, "end": 134.79166666666666, "pitch": 63, "velocity": 58}, {"start": 134.875, "end": 134.93229166666666, "pitch": 63, "velocity": 60}, {"start": 135.25, "end": 135.31770833333331, "pitch": 60, "velocity": 56}, {"start": 135.5, "end": 135.625, "pitch": 63, "velocity": 80}, {"start": 135.75, "end": 135.80208333333331, "pitch": 65, "velocity": 39}, {"start": 135.875, "end": 136.27083333333331, "pitch": 67, "velocity": 72}, {"start": 136.25, "end": 136.31770833333331, "pitch": 65, "velocity": 64}, {"start": 136.5, "end": 136.60416666666666, "pitch": 65, "velocity": 56}, {"start": 136.75, "end": 136.80729166666666, "pitch": 63, "velocity": 62}, {"start": 136.875, "end": 137.53645833333331, "pitch": 67, "velocity": 84}, {"start": 137.5, "end": 137.63541666666666, "pitch": 65, "velocity": 62}, {"start": 137.625, "end": 137.71354166666666, "pitch": 63, "velocity": 58}, {"start": 137.75, "end": 138.58854166666666, "pitch": 60, "velocity": 54}, {"start": 139.0, "end": 139.38541666666666, "pitch": 75, "velocity": 84}, {"start": 139.5, "end": 140.88541666666666, "pitch": 75, "velocity": 60}, {"start": 141.75, "end": 141.80208333333331, "pitch": 67, "velocity": 76}, {"start": 142.0, "end": 142.203125, "pitch": 67, "velocity": 84}, {"start": 142.25, "end": 142.3125, "pitch": 65, "velocity": 64}, {"start": 142.5, "end": 142.6875, "pitch": 65, "velocity": 64}, {"start": 142.75, "end": 142.796875, "pitch": 63, "velocity": 58}, {"start": 142.875, "end": 142.95833333333331, "pitch": 63, "velocity": 62}, {"start": 143.25, "end": 143.32291666666666, "pitch": 60, "velocity": 60}, {"start": 143.5, "end": 143.72395833333331, "pitch": 63, "velocity": 88}, {"start": 143.75, "end": 143.8125, "pitch": 65, "velocity": 66}, {"start": 144.25, "end": 144.453125, "pitch": 63, "velocity": 84}, {"start": 144.5, "end": 144.56770833333331, "pitch": 60, "velocity": 56}, {"start": 145.0, "end": 145.21354166666666, "pitch": 66, "velocity": 84}, {"start": 145.25, "end": 145.3125, "pitch": 63, "velocity": 66}, {"start": 145.75, "end": 146.02604166666666, "pitch": 70, "velocity": 80}, {"start": 146.0, "end": 147.91145833333331, "pitch": 72, "velocity": 80}, {"start": 148.0, "end": 148.06770833333331, "pitch": 70, "velocity": 60}, {"start": 148.0, "end": 148.34375, "pitch": 72, "velocity": 92}, {"start": 148.375, "end": 148.6875, "pitch": 70, "velocity": 52}, {"start": 148.75, "end": 148.99479166666666, "pitch": 69, "velocity": 68}, {"start": 149.0, "end": 149.375, "pitch": 67, "velocity": 80}, {"start": 149.375, "end": 149.61979166666666, "pitch": 65, "velocity": 66}, {"start": 149.75, "end": 149.921875, "pitch": 63, "velocity": 88}, {"start": 150.0, "end": 150.31770833333331, "pitch": 62, "velocity": 80}, {"start": 150.375, "end": 150.63020833333331, "pitch": 60, "velocity": 68}, {"start": 150.75, "end": 150.98958333333331, "pitch": 62, "velocity": 88}, {"start": 151.0, "end": 151.27604166666666, "pitch": 65, "velocity": 84}, {"start": 151.375, "end": 151.52604166666666, "pitch": 63, "velocity": 88}, {"start": 151.75, "end": 152.484375, "pitch": 62, "velocity": 92}, {"start": 152.5, "end": 152.75, "pitch": 63, "velocity": 76}, {"start": 152.75, "end": 152.83854166666666, "pitch": 58, "velocity": 84}, {"start": 152.875, "end": 155.0625, "pitch": 60, "velocity": 58}, {"start": 156.0, "end": 156.265625, "pitch": 72, "velocity": 80}, {"start": 156.375, "end": 156.61979166666666, "pitch": 70, "velocity": 66}, {"start": 156.75, "end": 156.83333333333331, "pitch": 67, "velocity": 56}, {"start": 156.75, "end": 156.96875, "pitch": 69, "velocity": 66}, {"start": 157.0, "end": 157.28125, "pitch": 67, "velocity": 88}, {"start": 157.375, "end": 157.65104166666666, "pitch": 65, "velocity": 66}, {"start": 157.75, "end": 158.02604166666666, "pitch": 63, "velocity": 92}, {"start": 158.0, "end": 158.328125, "pitch": 62, "velocity": 68}, {"start": 158.375, "end": 158.71354166666666, "pitch": 60, "velocity": 66}, {"start": 158.75, "end": 159.00520833333331, "pitch": 62, "velocity": 84}, {"start": 159.0, "end": 159.34375, "pitch": 63, "velocity": 84}, {"start": 159.375, "end": 159.76041666666666, "pitch": 65, "velocity": 84}, {"start": 159.75, "end": 160.08854166666666, "pitch": 67, "velocity": 80}, {"start": 160.0, "end": 160.33333333333331, "pitch": 65, "velocity": 64}, {"start": 160.25, "end": 160.359375, "pitch": 63, "velocity": 68}, {"start": 160.375, "end": 161.75520833333331, "pitch": 60, "velocity": 52}, {"start": 162.0, "end": 162.34375, "pitch": 63, "velocity": 80}, {"start": 162.375, "end": 162.69791666666666, "pitch": 65, "velocity": 64}, {"start": 162.75, "end": 163.04166666666666, "pitch": 67, "velocity": 88}, {"start": 163.0, "end": 163.32291666666666, "pitch": 70, "velocity": 84}, {"start": 163.375, "end": 163.66145833333331, "pitch": 68, "velocity": 88}, {"start": 163.75, "end": 163.94791666666666, "pitch": 67, "velocity": 68}, {"start": 164.0, "end": 164.13020833333331, "pitch": 67, "velocity": 62}, {"start": 164.125, "end": 164.25520833333331, "pitch": 68, "velocity": 62}, {"start": 164.25, "end": 164.390625, "pitch": 67, "velocity": 64}, {"start": 164.375, "end": 164.47916666666666, "pitch": 65, "velocity": 62}, {"start": 164.5, "end": 166.97395833333331, "pitch": 67, "velocity": 84}, {"start": 169.25, "end": 169.328125, "pitch": 58, "velocity": 76}, {"start": 169.5, "end": 169.60416666666666, "pitch": 60, "velocity": 68}, {"start": 169.75, "end": 169.83333333333331, "pitch": 62, "velocity": 80}, {"start": 169.875, "end": 170.88541666666666, "pitch": 63, "velocity": 60}, {"start": 171.0, "end": 171.10416666666666, "pitch": 60, "velocity": 64}, {"start": 171.125, "end": 171.20833333333331, "pitch": 58, "velocity": 72}, {"start": 171.25, "end": 171.32291666666666, "pitch": 55, "velocity": 66}, {"start": 171.875, "end": 171.92708333333331, "pitch": 55, "velocity": 62}, {"start": 172.0, "end": 172.20833333333331, "pitch": 58, "velocity": 80}, {"start": 172.25, "end": 172.30208333333331, "pitch": 60, "velocity": 40}, {"start": 172.5, "end": 172.59375, "pitch": 60, "velocity": 62}, {"start": 172.75, "end": 172.8125, "pitch": 58, "velocity": 64}, {"start": 173.0, "end": 173.08854166666666, "pitch": 60, "velocity": 66}, {"start": 173.25, "end": 173.31770833333331, "pitch": 58, "velocity": 68}, {"start": 173.5, "end": 173.71354166666666, "pitch": 60, "velocity": 56}, {"start": 173.75, "end": 173.85416666666666, "pitch": 63, "velocity": 66}, {"start": 173.875, "end": 174.13541666666666, "pitch": 60, "velocity": 62}, {"start": 174.125, "end": 174.21354166666666, "pitch": 58, "velocity": 64}, {"start": 174.25, "end": 174.57291666666666, "pitch": 55, "velocity": 62}, {"start": 177.25, "end": 177.32291666666666, "pitch": 58, "velocity": 80}, {"start": 177.5, "end": 177.59895833333331, "pitch": 60, "velocity": 62}, {"start": 177.75, "end": 177.86458333333331, "pitch": 62, "velocity": 64}, {"start": 177.875, "end": 178.89583333333331, "pitch": 63, "velocity": 56}, {"start": 179.0, "end": 179.15625, "pitch": 60, "velocity": 64}, {"start": 179.125, "end": 179.21354166666666, "pitch": 58, "velocity": 56}, {"start": 179.25, "end": 179.328125, "pitch": 55, "velocity": 60}, {"start": 179.875, "end": 179.9375, "pitch": 55, "velocity": 60}, {"start": 180.0, "end": 180.1875, "pitch": 58, "velocity": 68}, {"start": 180.25, "end": 180.30729166666666, "pitch": 60, "velocity": 60}, {"start": 180.5, "end": 180.58854166666666, "pitch": 60, "velocity": 80}, {"start": 180.75, "end": 180.81770833333331, "pitch": 58, "velocity": 80}, {"start": 181.0, "end": 181.07291666666666, "pitch": 60, "velocity": 64}, {"start": 181.25, "end": 181.30729166666666, "pitch": 58, "velocity": 66}, {"start": 181.5, "end": 181.609375, "pitch": 60, "velocity": 52}, {"start": 181.75, "end": 181.86458333333331, "pitch": 63, "velocity": 66}, {"start": 181.875, "end": 182.140625, "pitch": 60, "velocity": 66}, {"start": 182.125, "end": 182.21354166666666, "pitch": 58, "velocity": 68}, {"start": 182.25, "end": 182.46354166666666, "pitch": 55, "velocity": 58}, {"start": 183.25, "end": 183.296875, "pitch": 60, "velocity": 62}, {"start": 183.5, "end": 183.60416666666666, "pitch": 63, "velocity": 88}, {"start": 183.75, "end": 183.88020833333331, "pitch": 67, "velocity": 66}, {"start": 183.875, "end": 185.546875, "pitch": 65, "velocity": 66}, {"start": 185.75, "end": 185.82291666666666, "pitch": 65, "velocity": 56}, {"start": 186.0, "end": 186.18229166666666, "pitch": 65, "velocity": 68}, {"start": 186.125, "end": 186.1875, "pitch": 63, "velocity": 66}, {"start": 186.375, "end": 186.46875, "pitch": 63, "velocity": 68}, {"start": 186.625, "end": 186.71875, "pitch": 62, "velocity": 56}, {"start": 186.875, "end": 186.96875, "pitch": 62, "velocity": 60}, {"start": 187.125, "end": 187.22395833333331, "pitch": 60, "velocity": 62}, {"start": 187.375, "end": 187.48958333333331, "pitch": 60, "velocity": 56}, {"start": 187.625, "end": 187.70833333333331, "pitch": 62, "velocity": 68}, {"start": 187.875, "end": 188.15104166666666, "pitch": 63, "velocity": 66}, {"start": 188.25, "end": 189.296875, "pitch": 60, "velocity": 54}, {"start": 190.0, "end": 190.10416666666666, "pitch": 54, "velocity": 60}, {"start": 190.125, "end": 190.265625, "pitch": 53, "velocity": 32}, {"start": 190.25, "end": 190.43229166666666, "pitch": 51, "velocity": 60}, {"start": 191.25, "end": 191.30208333333331, "pitch": 60, "velocity": 66}, {"start": 191.5, "end": 191.60416666666666, "pitch": 63, "velocity": 72}, {"start": 191.75, "end": 191.90625, "pitch": 67, "velocity": 68}, {"start": 191.875, "end": 193.49479166666666, "pitch": 65, "velocity": 72}, {"start": 193.75, "end": 193.80729166666666, "pitch": 60, "velocity": 52}, {"start": 194.0, "end": 194.140625, "pitch": 65, "velocity": 80}, {"start": 194.125, "end": 194.19791666666666, "pitch": 63, "velocity": 80}, {"start": 194.375, "end": 194.453125, "pitch": 63, "velocity": 68}, {"start": 194.625, "end": 194.70833333333331, "pitch": 62, "velocity": 64}, {"start": 194.875, "end": 194.95833333333331, "pitch": 62, "velocity": 66}, {"start": 195.125, "end": 195.19791666666666, "pitch": 60, "velocity": 62}, {"start": 195.375, "end": 195.47395833333331, "pitch": 60, "velocity": 62}, {"start": 195.625, "end": 195.71875, "pitch": 62, "velocity": 76}, {"start": 195.75, "end": 196.765625, "pitch": 63, "velocity": 66}, {"start": 197.0, "end": 197.11458333333331, "pitch": 63, "velocity": 84}, {"start": 197.375, "end": 197.47916666666666, "pitch": 65, "velocity": 54}, {"start": 197.625, "end": 197.69791666666666, "pitch": 63, "velocity": 66}, {"start": 197.75, "end": 198.171875, "pitch": 67, "velocity": 76}, {"start": 198.125, "end": 198.25520833333331, "pitch": 63, "velocity": 58}, {"start": 198.25, "end": 198.953125, "pitch": 65, "velocity": 64}, {"start": 199.25, "end": 199.32291666666666, "pitch": 67, "velocity": 84}, {"start": 199.5, "end": 199.69270833333331, "pitch": 70, "velocity": 88}, {"start": 199.75, "end": 199.94270833333331, "pitch": 67, "velocity": 64}, {"start": 200.0, "end": 200.11979166666666, "pitch": 70, "velocity": 84}, {"start": 200.125, "end": 200.40625, "pitch": 72, "velocity": 66}, {"start": 200.375, "end": 201.640625, "pitch": 70, "velocity": 76}, {"start": 202.0, "end": 202.52083333333331, "pitch": 70, "velocity": 64}, {"start": 202.5, "end": 203.03645833333331, "pitch": 69, "velocity": 80}, {"start": 203.0, "end": 203.64583333333331, "pitch": 67, "velocity": 64}, {"start": 203.75, "end": 203.828125, "pitch": 67, "velocity": 66}, {"start": 204.0, "end": 204.16145833333331, "pitch": 67, "velocity": 80}, {"start": 204.25, "end": 204.328125, "pitch": 65, "velocity": 62}, {"start": 204.5, "end": 204.609375, "pitch": 65, "velocity": 72}, {"start": 204.75, "end": 204.8125, "pitch": 63, "velocity": 76}, {"start": 205.0, "end": 205.07291666666666, "pitch": 63, "velocity": 72}, {"start": 205.25, "end": 205.31770833333331, "pitch": 60, "velocity": 50}, {"start": 205.5, "end": 205.59375, "pitch": 63, "velocity": 80}, {"start": 205.75, "end": 205.83854166666666, "pitch": 65, "velocity": 54}, {"start": 205.875, "end": 206.28125, "pitch": 67, "velocity": 72}, {"start": 206.25, "end": 206.31770833333331, "pitch": 65, "velocity": 60}, {"start": 206.5, "end": 206.6875, "pitch": 65, "velocity": 68}, {"start": 206.75, "end": 206.81770833333331, "pitch": 63, "velocity": 62}, {"start": 207.0, "end": 207.56770833333331, "pitch": 67, "velocity": 76}, {"start": 207.5, "end": 207.609375, "pitch": 65, "velocity": 56}, {"start": 207.625, "end": 207.72395833333331, "pitch": 63, "velocity": 62}, {"start": 207.75, "end": 208.02604166666666, "pitch": 60, "velocity": 54}, {"start": 208.0, "end": 208.375, "pitch": 72, "velocity": 76}, {"start": 208.375, "end": 209.796875, "pitch": 70, "velocity": 54}, {"start": 210.0, "end": 210.53125, "pitch": 70, "velocity": 66}, {"start": 210.5, "end": 211.046875, "pitch": 69, "velocity": 80}, {"start": 211.0, "end": 211.796875, "pitch": 67, "velocity": 64}, {"start": 212.0, "end": 212.19270833333331, "pitch": 67, "velocity": 84}, {"start": 212.25, "end": 212.32291666666666, "pitch": 65, "velocity": 64}, {"start": 212.5, "end": 212.6875, "pitch": 65, "velocity": 64}, {"start": 212.75, "end": 212.8125, "pitch": 63, "velocity": 66}, {"start": 212.875, "end": 212.97395833333331, "pitch": 63, "velocity": 54}, {"start": 213.25, "end": 213.34895833333331, "pitch": 60, "velocity": 56}, {"start": 213.5, "end": 213.74479166666666, "pitch": 63, "velocity": 88}, {"start": 213.75, "end": 213.82291666666666, "pitch": 65, "velocity": 68}, {"start": 214.25, "end": 214.40625, "pitch": 63, "velocity": 88}, {"start": 214.5, "end": 214.61458333333331, "pitch": 60, "velocity": 52}, {"start": 215.0, "end": 215.21875, "pitch": 66, "velocity": 88}, {"start": 215.25, "end": 215.33854166666666, "pitch": 63, "velocity": 64}, {"start": 215.75, "end": 215.984375, "pitch": 69, "velocity": 88}, {"start": 216.0, "end": 216.10416666666666, "pitch": 66, "velocity": 66}, {"start": 216.5, "end": 216.71875, "pitch": 72, "velocity": 84}, {"start": 216.75, "end": 216.82291666666666, "pitch": 69, "velocity": 64}, {"start": 217.25, "end": 217.46354166666666, "pitch": 75, "velocity": 84}, {"start": 217.5, "end": 217.625, "pitch": 72, "velocity": 58}, {"start": 217.75, "end": 218.91145833333331, "pitch": 75, "velocity": 68}, {"start": 219.25, "end": 219.44270833333331, "pitch": 67, "velocity": 68}, {"start": 219.5, "end": 219.77083333333331, "pitch": 70, "velocity": 54}, {"start": 219.75, "end": 219.80729166666666, "pitch": 67, "velocity": 54}, {"start": 220.0, "end": 220.390625, "pitch": 72, "velocity": 66}, {"start": 220.375, "end": 221.57291666666666, "pitch": 70, "velocity": 72}, {"start": 222.0, "end": 222.47916666666666, "pitch": 70, "velocity": 68}, {"start": 222.5, "end": 223.03125, "pitch": 69, "velocity": 72}, {"start": 223.0, "end": 223.80729166666666, "pitch": 67, "velocity": 68}, {"start": 224.0, "end": 224.15625, "pitch": 67, "velocity": 84}, {"start": 224.25, "end": 224.32291666666666, "pitch": 65, "velocity": 68}, {"start": 224.5, "end": 224.67708333333331, "pitch": 65, "velocity": 64}, {"start": 224.75, "end": 224.796875, "pitch": 63, "velocity": 76}, {"start": 224.875, "end": 225.046875, "pitch": 63, "velocity": 66}, {"start": 225.25, "end": 225.33854166666666, "pitch": 60, "velocity": 56}, {"start": 225.5, "end": 225.71875, "pitch": 63, "velocity": 80}, {"start": 225.75, "end": 225.875, "pitch": 65, "velocity": 68}, {"start": 225.875, "end": 226.28125, "pitch": 67, "velocity": 84}, {"start": 226.25, "end": 226.32291666666666, "pitch": 65, "velocity": 64}, {"start": 226.5, "end": 226.765625, "pitch": 65, "velocity": 62}, {"start": 226.75, "end": 226.828125, "pitch": 63, "velocity": 68}, {"start": 226.875, "end": 227.03645833333331, "pitch": 65, "velocity": 68}, {"start": 227.25, "end": 227.48958333333331, "pitch": 67, "velocity": 80}, {"start": 227.5, "end": 227.734375, "pitch": 70, "velocity": 72}, {"start": 227.75, "end": 227.984375, "pitch": 67, "velocity": 64}, {"start": 228.0, "end": 228.1875, "pitch": 70, "velocity": 84}, {"start": 228.125, "end": 228.44270833333331, "pitch": 72, "velocity": 68}, {"start": 228.375, "end": 229.734375, "pitch": 70, "velocity": 66}, {"start": 230.0, "end": 230.48958333333331, "pitch": 70, "velocity": 76}, {"start": 230.5, "end": 231.02604166666666, "pitch": 69, "velocity": 80}, {"start": 231.0, "end": 231.69791666666666, "pitch": 67, "velocity": 62}, {"start": 231.75, "end": 231.8125, "pitch": 67, "velocity": 68}, {"start": 232.0, "end": 232.21354166666666, "pitch": 67, "velocity": 80}, {"start": 232.25, "end": 232.328125, "pitch": 65, "velocity": 76}, {"start": 232.5, "end": 232.79166666666666, "pitch": 65, "velocity": 72}, {"start": 232.75, "end": 232.796875, "pitch": 63, "velocity": 62}, {"start": 232.875, "end": 232.94791666666666, "pitch": 63, "velocity": 66}, {"start": 233.25, "end": 233.33333333333331, "pitch": 60, "velocity": 56}, {"start": 233.5, "end": 233.79166666666666, "pitch": 63, "velocity": 76}, {"start": 233.75, "end": 233.82291666666666, "pitch": 65, "velocity": 66}, {"start": 234.25, "end": 234.45833333333331, "pitch": 63, "velocity": 66}, {"start": 234.5, "end": 234.578125, "pitch": 60, "velocity": 58}, {"start": 235.0, "end": 235.234375, "pitch": 66, "velocity": 80}, {"start": 235.25, "end": 235.30729166666666, "pitch": 63, "velocity": 44}, {"start": 235.75, "end": 236.06770833333331, "pitch": 72, "velocity": 80}, {"start": 243.25, "end": 243.33333333333331, "pitch": 58, "velocity": 76}, {"start": 243.375, "end": 243.42708333333331, "pitch": 58, "velocity": 52}, {"start": 243.5, "end": 243.56770833333331, "pitch": 58, "velocity": 62}, {"start": 243.625, "end": 243.69270833333331, "pitch": 58, "velocity": 42}, {"start": 243.75, "end": 243.796875, "pitch": 58, "velocity": 68}, {"start": 243.875, "end": 245.91145833333331, "pitch": 58, "velocity": 72}, {"start": 259.25, "end": 259.3333333333333, "pitch": 58, "velocity": 76}, {"start": 259.375, "end": 259.4270833333333, "pitch": 58, "velocity": 52}, {"start": 259.5, "end": 259.5677083333333, "pitch": 58, "velocity": 62}, {"start": 259.625, "end": 259.6927083333333, "pitch": 58, "velocity": 42}, {"start": 259.75, "end": 259.796875, "pitch": 58, "velocity": 68}, {"start": 259.875, "end": 261.9114583333333, "pitch": 58, "velocity": 72}, {"start": 275.25, "end": 275.3333333333333, "pitch": 58, "velocity": 76}, {"start": 275.375, "end": 275.4270833333333, "pitch": 58, "velocity": 52}, {"start": 275.5, "end": 275.5677083333333, "pitch": 58, "velocity": 62}, {"start": 275.625, "end": 275.6927083333333, "pitch": 58, "velocity": 42}, {"start": 275.75, "end": 275.796875, "pitch": 58, "velocity": 68}, {"start": 275.875, "end": 277.9114583333333, "pitch": 58, "velocity": 72}, {"start": 283.25, "end": 283.3333333333333, "pitch": 58, "velocity": 76}, {"start": 283.375, "end": 283.4270833333333, "pitch": 58, "velocity": 52}, {"start": 283.5, "end": 283.5677083333333, "pitch": 58, "velocity": 62}, {"start": 283.625, "end": 283.6927083333333, "pitch": 58, "velocity": 42}, {"start": 283.75, "end": 283.796875, "pitch": 58, "velocity": 68}, {"start": 283.875, "end": 285.9114583333333, "pitch": 58, "velocity": 72}]'),
(8373, '[{"start": 0.0, "end": 0.095238, "pitch": 76, "velocity": 64}, {"start": 0.142857, "end": 0.238095, "pitch": 76, "velocity": 64}, {"start": 0.42857100000000004, "end": 0.523809, "pitch": 76, "velocity": 64}, {"start": 0.7142850000000001, "end": 0.809523, "pitch": 72, "velocity": 64}, {"start": 0.8571420000000001, "end": 0.95238, "pitch": 76, "velocity": 64}, {"start": 1.142856, "end": 1.238094, "pitch": 79, "velocity": 64}, {"start": 2.285712, "end": 2.38095, "pitch": 72, "velocity": 64}, {"start": 2.714283, "end": 2.809521, "pitch": 67, "velocity": 64}, {"start": 3.1428540000000003, "end": 3.238092, "pitch": 64, "velocity": 64}, {"start": 3.571425, "end": 3.6666630000000002, "pitch": 69, "velocity": 64}, {"start": 3.857139, "end": 3.9523770000000003, "pitch": 71, "velocity": 64}, {"start": 4.142853000000001, "end": 4.238091, "pitch": 70, "velocity": 64}, {"start": 4.28571, "end": 4.380948, "pitch": 69, "velocity": 64}, {"start": 4.571424, "end": 4.6666620000000005, "pitch": 67, "velocity": 64}, {"start": 4.7619, "end": 4.857138, "pitch": 76, "velocity": 64}, {"start": 4.952376, "end": 5.047614, "pitch": 79, "velocity": 64}, {"start": 5.142852, "end": 5.238090000000001, "pitch": 81, "velocity": 64}, {"start": 5.428566, "end": 5.523804, "pitch": 77, "velocity": 64}, {"start": 5.571423, "end": 5.666661, "pitch": 79, "velocity": 64}, {"start": 5.857137, "end": 5.952375, "pitch": 76, "velocity": 64}, {"start": 6.142851, "end": 6.238089, "pitch": 72, "velocity": 64}, {"start": 6.2857080000000005, "end": 6.380946, "pitch": 74, "velocity": 64}, {"start": 6.428565, "end": 6.523803, "pitch": 71, "velocity": 64}, {"start": 6.857136000000001, "end": 6.952374, "pitch": 72, "velocity": 64}, {"start": 7.285707, "end": 7.3809450000000005, "pitch": 67, "velocity": 64}, {"start": 7.714278, "end": 7.809516, "pitch": 64, "velocity": 64}, {"start": 8.142849, "end": 8.238087, "pitch": 69, "velocity": 64}, {"start": 8.428563, "end": 8.523801, "pitch": 71, "velocity": 64}, {"start": 8.714277000000001, "end": 8.809515000000001, "pitch": 70, "velocity": 64}, {"start": 8.857134, "end": 8.952372, "pitch": 69, "velocity": 64}, {"start": 9.142848, "end": 9.238086000000001, "pitch": 67, "velocity": 64}, {"start": 9.333324000000001, "end": 9.428562, "pitch": 76, "velocity": 64}, {"start": 9.5238, "end": 9.619038, "pitch": 79, "velocity": 64}, {"start": 9.714276, "end": 9.809514, "pitch": 81, "velocity": 64}, {"start": 9.99999, "end": 10.095228, "pitch": 77, "velocity": 64}, {"start": 10.142847, "end": 10.238085, "pitch": 79, "velocity": 64}, {"start": 10.428561, "end": 10.523799, "pitch": 76, "velocity": 64}, {"start": 10.714275, "end": 10.809513, "pitch": 72, "velocity": 64}, {"start": 10.857132, "end": 10.95237, "pitch": 74, "velocity": 64}, {"start": 10.999989000000001, "end": 11.095227, "pitch": 71, "velocity": 64}, {"start": 11.714274, "end": 11.809512, "pitch": 79, "velocity": 64}, {"start": 11.857131, "end": 11.952369000000001, "pitch": 78, "velocity": 64}, {"start": 11.999988, "end": 12.095226, "pitch": 77, "velocity": 64}, {"start": 12.142845000000001, "end": 12.238083, "pitch": 75, "velocity": 64}, {"start": 12.428559, "end": 12.523797, "pitch": 76, "velocity": 64}, {"start": 12.714273, "end": 12.809511, "pitch": 68, "velocity": 64}, {"start": 12.85713, "end": 12.952368, "pitch": 69, "velocity": 64}, {"start": 12.999987, "end": 13.095225000000001, "pitch": 72, "velocity": 64}, {"start": 13.285701000000001, "end": 13.380939, "pitch": 69, "velocity": 64}, {"start": 13.428558, "end": 13.523796, "pitch": 72, "velocity": 64}, {"start": 13.571415, "end": 13.666653, "pitch": 74, "velocity": 64}, {"start": 13.999986, "end": 14.095224, "pitch": 79, "velocity": 64}, {"start": 14.142843000000001, "end": 14.238081000000001, "pitch": 78, "velocity": 64}, {"start": 14.2857, "end": 14.380938, "pitch": 77, "velocity": 64}, {"start": 14.428557, "end": 14.523795, "pitch": 75, "velocity": 64}, {"start": 14.714271, "end": 14.809509, "pitch": 76, "velocity": 64}, {"start": 14.999985, "end": 15.095223, "pitch": 84, "velocity": 64}, {"start": 15.285699000000001, "end": 15.380937000000001, "pitch": 84, "velocity": 64}, {"start": 15.428556, "end": 15.523794, "pitch": 84, "velocity": 64}, {"start": 16.285698, "end": 16.380936000000002, "pitch": 79, "velocity": 64}, {"start": 16.428555, "end": 16.523793, "pitch": 78, "velocity": 64}, {"start": 16.571412000000002, "end": 16.66665, "pitch": 77, "velocity": 64}, {"start": 16.714269, "end": 16.809507, "pitch": 75, "velocity": 64}, {"start": 16.999983, "end": 17.095221000000002, "pitch": 76, "velocity": 64}, {"start": 17.285697, "end": 17.380935, "pitch": 68, "velocity": 64}, {"start": 17.428554000000002, "end": 17.523792, "pitch": 69, "velocity": 64}, {"start": 17.571411, "end": 17.666649, "pitch": 72, "velocity": 64}, {"start": 17.857125, "end": 17.952363000000002, "pitch": 69, "velocity": 64}, {"start": 17.999982, "end": 18.09522, "pitch": 72, "velocity": 64}, {"start": 18.142839000000002, "end": 18.238077, "pitch": 74, "velocity": 64}, {"start": 18.57141, "end": 18.666648000000002, "pitch": 75, "velocity": 64}, {"start": 18.999981000000002, "end": 19.095219, "pitch": 74, "velocity": 64}, {"start": 19.428552, "end": 19.52379, "pitch": 72, "velocity": 64}, {"start": 20.857122, "end": 20.952360000000002, "pitch": 79, "velocity": 64}, {"start": 20.999979, "end": 21.095217, "pitch": 78, "velocity": 64}, {"start": 21.142836, "end": 21.238074, "pitch": 77, "velocity": 64}, {"start": 21.285693000000002, "end": 21.380931, "pitch": 75, "velocity": 64}, {"start": 21.571407, "end": 21.666645, "pitch": 76, "velocity": 64}, {"start": 21.857121, "end": 21.952359, "pitch": 68, "velocity": 64}, {"start": 21.999978000000002, "end": 22.095216, "pitch": 69, "velocity": 64}, {"start": 22.142835, "end": 22.238073, "pitch": 72, "velocity": 64}, {"start": 22.428549, "end": 22.523787000000002, "pitch": 69, "velocity": 64}, {"start": 22.571406, "end": 22.666644, "pitch": 72, "velocity": 64}, {"start": 22.714263000000003, "end": 22.809501, "pitch": 74, "velocity": 64}, {"start": 23.142834, "end": 23.238072000000003, "pitch": 79, "velocity": 64}, {"start": 23.285691, "end": 23.380929000000002, "pitch": 78, "velocity": 64}, {"start": 23.428548, "end": 23.523786, "pitch": 77, "velocity": 64}, {"start": 23.571405000000002, "end": 23.666643, "pitch": 75, "velocity": 64}, {"start": 23.857119, "end": 23.952357, "pitch": 76, "velocity": 64}, {"start": 24.142833, "end": 24.238071, "pitch": 84, "velocity": 64}, {"start": 24.428547000000002, "end": 24.523785, "pitch": 84, "velocity": 64}, {"start": 24.571404, "end": 24.666642, "pitch": 84, "velocity": 64}, {"start": 25.428546, "end": 25.523784, "pitch": 79, "velocity": 64}, {"start": 25.571403, "end": 25.666641000000002, "pitch": 78, "velocity": 64}, {"start": 25.71426, "end": 25.809498, "pitch": 77, "velocity": 64}, {"start": 25.857117000000002, "end": 25.952355, "pitch": 75, "velocity": 64}, {"start": 26.142831, "end": 26.238069, "pitch": 76, "velocity": 64}, {"start": 26.428545, "end": 26.523783, "pitch": 68, "velocity": 64}, {"start": 26.571402000000003, "end": 26.66664, "pitch": 69, "velocity": 64}, {"start": 26.714259000000002, "end": 26.809497, "pitch": 72, "velocity": 64}, {"start": 26.999973, "end": 27.095211000000003, "pitch": 69, "velocity": 64}, {"start": 27.14283, "end": 27.238068000000002, "pitch": 72, "velocity": 64}, {"start": 27.285687, "end": 27.380925, "pitch": 74, "velocity": 64}, {"start": 27.714258, "end": 27.809496, "pitch": 75, "velocity": 64}, {"start": 28.142829000000003, "end": 28.238067, "pitch": 74, "velocity": 64}, {"start": 28.5714, "end": 28.666638000000003, "pitch": 72, "velocity": 64}, {"start": 29.714256000000002, "end": 29.809494, "pitch": 72, "velocity": 64}, {"start": 29.857113000000002, "end": 29.952351, "pitch": 72, "velocity": 64}, {"start": 30.142827, "end": 30.238065000000002, "pitch": 72, "velocity": 64}, {"start": 30.428541000000003, "end": 30.523779, "pitch": 72, "velocity": 64}, {"start": 30.571398000000002, "end": 30.666636, "pitch": 74, "velocity": 64}, {"start": 30.857112, "end": 30.952350000000003, "pitch": 76, "velocity": 64}, {"start": 30.999969, "end": 31.095207000000002, "pitch": 72, "velocity": 64}, {"start": 31.285683000000002, "end": 31.380921, "pitch": 69, "velocity": 64}, {"start": 31.42854, "end": 31.523778, "pitch": 67, "velocity": 64}, {"start": 31.999968000000003, "end": 32.095206000000005, "pitch": 72, "velocity": 64}, {"start": 32.142825, "end": 32.238063000000004, "pitch": 72, "velocity": 64}, {"start": 32.428539, "end": 32.523777, "pitch": 72, "velocity": 64}, {"start": 32.714253, "end": 32.809491, "pitch": 72, "velocity": 64}, {"start": 32.85711, "end": 32.952348, "pitch": 74, "velocity": 64}, {"start": 32.999967, "end": 33.095205, "pitch": 76, "velocity": 64}, {"start": 34.28568, "end": 34.380918, "pitch": 72, "velocity": 64}, {"start": 34.428537, "end": 34.523775, "pitch": 72, "velocity": 64}, {"start": 34.714251000000004, "end": 34.809489, "pitch": 72, "velocity": 64}, {"start": 34.999965, "end": 35.095203, "pitch": 72, "velocity": 64}, {"start": 35.142822, "end": 35.238060000000004, "pitch": 74, "velocity": 64}, {"start": 35.428536, "end": 35.523774, "pitch": 76, "velocity": 64}, {"start": 35.571393, "end": 35.666631, "pitch": 72, "velocity": 64}, {"start": 35.857107, "end": 35.952345, "pitch": 69, "velocity": 64}, {"start": 35.999964, "end": 36.095202, "pitch": 67, "velocity": 64}, {"start": 36.571392, "end": 36.66663, "pitch": 76, "velocity": 64}, {"start": 36.714249, "end": 36.809487000000004, "pitch": 76, "velocity": 64}, {"start": 36.999963, "end": 37.095201, "pitch": 76, "velocity": 64}, {"start": 37.285677, "end": 37.380915, "pitch": 72, "velocity": 64}, {"start": 37.428534, "end": 37.523772, "pitch": 76, "velocity": 64}, {"start": 37.714248, "end": 37.809486, "pitch": 79, "velocity": 64}, {"start": 38.857104, "end": 38.952342, "pitch": 72, "velocity": 64}, {"start": 39.285675000000005, "end": 39.380913, "pitch": 67, "velocity": 64}, {"start": 39.714246, "end": 39.809484000000005, "pitch": 64, "velocity": 64}, {"start": 40.142817, "end": 40.238055, "pitch": 69, "velocity": 64}, {"start": 40.428531, "end": 40.523769, "pitch": 71, "velocity": 64}, {"start": 40.714245, "end": 40.809483, "pitch": 70, "velocity": 64}, {"start": 40.857102000000005, "end": 40.95234, "pitch": 69, "velocity": 64}, {"start": 41.142816, "end": 41.238054, "pitch": 67, "velocity": 64}, {"start": 41.333292, "end": 41.42853, "pitch": 76, "velocity": 64}, {"start": 41.523768000000004, "end": 41.619006, "pitch": 79, "velocity": 64}, {"start": 41.714244, "end": 41.809482, "pitch": 81, "velocity": 64}, {"start": 41.999958, "end": 42.095196, "pitch": 77, "velocity": 64}, {"start": 42.142815, "end": 42.238053, "pitch": 79, "velocity": 64}, {"start": 42.428529000000005, "end": 42.523767, "pitch": 76, "velocity": 64}, {"start": 42.714243, "end": 42.809481, "pitch": 72, "velocity": 64}, {"start": 42.8571, "end": 42.952338000000005, "pitch": 74, "velocity": 64}, {"start": 42.999957, "end": 43.095195000000004, "pitch": 71, "velocity": 64}, {"start": 43.428528, "end": 43.523766, "pitch": 72, "velocity": 64}, {"start": 43.857099, "end": 43.952337, "pitch": 67, "velocity": 64}, {"start": 44.28567, "end": 44.380908, "pitch": 64, "velocity": 64}, {"start": 44.714241, "end": 44.809479, "pitch": 69, "velocity": 64}, {"start": 44.999955, "end": 45.095193, "pitch": 71, "velocity": 64}, {"start": 45.285669, "end": 45.380907, "pitch": 70, "velocity": 64}, {"start": 45.428526000000005, "end": 45.523764, "pitch": 69, "velocity": 64}, {"start": 45.714240000000004, "end": 45.809478, "pitch": 67, "velocity": 64}, {"start": 45.904716, "end": 45.999954, "pitch": 76, "velocity": 64}, {"start": 46.095192000000004, "end": 46.19043, "pitch": 79, "velocity": 64}, {"start": 46.285668, "end": 46.380906, "pitch": 81, "velocity": 64}, {"start": 46.571382, "end": 46.66662, "pitch": 77, "velocity": 64}, {"start": 46.714239, "end": 46.809477, "pitch": 79, "velocity": 64}, {"start": 46.999953000000005, "end": 47.095191, "pitch": 76, "velocity": 64}, {"start": 47.285667000000004, "end": 47.380905, "pitch": 72, "velocity": 64}, {"start": 47.428524, "end": 47.523762000000005, "pitch": 74, "velocity": 64}, {"start": 47.571381, "end": 47.666619000000004, "pitch": 71, "velocity": 64}, {"start": 47.999952, "end": 48.09519, "pitch": 76, "velocity": 64}, {"start": 48.142809, "end": 48.238047, "pitch": 72, "velocity": 64}, {"start": 48.428523, "end": 48.523761, "pitch": 67, "velocity": 64}, {"start": 48.857094000000004, "end": 48.952332, "pitch": 68, "velocity": 64}, {"start": 49.142808, "end": 49.238046000000004, "pitch": 69, "velocity": 64}, {"start": 49.285665, "end": 49.380903, "pitch": 77, "velocity": 64}, {"start": 49.571379, "end": 49.666617, "pitch": 77, "velocity": 64}, {"start": 49.714236, "end": 49.809474, "pitch": 69, "velocity": 64}, {"start": 50.285664000000004, "end": 50.380902, "pitch": 71, "velocity": 64}, {"start": 50.47614, "end": 50.571378, "pitch": 81, "velocity": 64}, {"start": 50.666616000000005, "end": 50.761854, "pitch": 81, "velocity": 64}, {"start": 50.857092, "end": 50.95233, "pitch": 81, "velocity": 64}, {"start": 51.047568, "end": 51.142806, "pitch": 79, "velocity": 64}, {"start": 51.238044, "end": 51.333282000000004, "pitch": 77, "velocity": 64}, {"start": 51.42852, "end": 51.523758, "pitch": 76, "velocity": 64}, {"start": 51.571377, "end": 51.666615, "pitch": 72, "velocity": 64}, {"start": 51.857091000000004, "end": 51.952329, "pitch": 69, "velocity": 64}, {"start": 51.999948, "end": 52.095186, "pitch": 67, "velocity": 64}, {"start": 52.571376, "end": 52.666614, "pitch": 76, "velocity": 64}, {"start": 52.714233, "end": 52.809471, "pitch": 72, "velocity": 64}, {"start": 52.999947, "end": 53.095185, "pitch": 67, "velocity": 64}, {"start": 53.428518000000004, "end": 53.523756, "pitch": 68, "velocity": 64}, {"start": 53.714232, "end": 53.809470000000005, "pitch": 69, "velocity": 64}, {"start": 53.857089, "end": 53.952327000000004, "pitch": 77, "velocity": 64}, {"start": 54.142803, "end": 54.238041, "pitch": 77, "velocity": 64}, {"start": 54.28566, "end": 54.380898, "pitch": 69, "velocity": 64}, {"start": 54.857088000000005, "end": 54.952326, "pitch": 71, "velocity": 64}, {"start": 54.999945000000004, "end": 55.095183, "pitch": 77, "velocity": 64}, {"start": 55.285659, "end": 55.380897000000004, "pitch": 77, "velocity": 64}, {"start": 55.428516, "end": 55.523754000000004, "pitch": 77, "velocity": 64}, {"start": 55.618992, "end": 55.71423, "pitch": 76, "velocity": 64}, {"start": 55.809468, "end": 55.904706000000004, "pitch": 74, "velocity": 64}, {"start": 55.999944, "end": 56.095182, "pitch": 72, "velocity": 64}, {"start": 57.1428, "end": 57.238038, "pitch": 76, "velocity": 64}, {"start": 57.285657, "end": 57.380895, "pitch": 72, "velocity": 64}, {"start": 57.571371, "end": 57.666609, "pitch": 67, "velocity": 64}, {"start": 57.999942000000004, "end": 58.09518, "pitch": 68, "velocity": 64}, {"start": 58.285656, "end": 58.380894000000005, "pitch": 69, "velocity": 64}, {"start": 58.428513, "end": 58.523751000000004, "pitch": 77, "velocity": 64}, {"start": 58.714227, "end": 58.809465, "pitch": 77, "velocity": 64}, {"start": 58.857084, "end": 58.952322, "pitch": 69, "velocity": 64}, {"start": 59.428512000000005, "end": 59.52375, "pitch": 71, "velocity": 64}, {"start": 59.618988, "end": 59.714226000000004, "pitch": 81, "velocity": 64}, {"start": 59.809464000000006, "end": 59.904702, "pitch": 81, "velocity": 64}, {"start": 59.99994, "end": 60.095178000000004, "pitch": 81, "velocity": 64}, {"start": 60.190416, "end": 60.285654, "pitch": 79, "velocity": 64}, {"start": 60.380892, "end": 60.476130000000005, "pitch": 77, "velocity": 64}, {"start": 60.571368, "end": 60.666606, "pitch": 76, "velocity": 64}, {"start": 60.714225, "end": 60.809463, "pitch": 72, "velocity": 64}, {"start": 60.999939000000005, "end": 61.095177, "pitch": 69, "velocity": 64}, {"start": 61.142796000000004, "end": 61.238034, "pitch": 67, "velocity": 64}, {"start": 61.714224, "end": 61.809462, "pitch": 76, "velocity": 64}, {"start": 61.857081, "end": 61.952319, "pitch": 72, "velocity": 64}, {"start": 62.142795, "end": 62.238033, "pitch": 67, "velocity": 64}, {"start": 62.571366000000005, "end": 62.666604, "pitch": 68, "velocity": 64}, {"start": 62.85708, "end": 62.952318000000005, "pitch": 69, "velocity": 64}, {"start": 62.999937, "end": 63.095175000000005, "pitch": 77, "velocity": 64}, {"start": 63.285651, "end": 63.380889, "pitch": 77, "velocity": 64}, {"start": 63.428508, "end": 63.523746, "pitch": 69, "velocity": 64}, {"start": 63.999936000000005, "end": 64.095174, "pitch": 71, "velocity": 64}, {"start": 64.142793, "end": 64.238031, "pitch": 77, "velocity": 64}, {"start": 64.428507, "end": 64.523745, "pitch": 77, "velocity": 64}, {"start": 64.571364, "end": 64.666602, "pitch": 77, "velocity": 64}, {"start": 64.76184, "end": 64.857078, "pitch": 76, "velocity": 64}, {"start": 64.952316, "end": 65.047554, "pitch": 74, "velocity": 64}, {"start": 65.142792, "end": 65.23803000000001, "pitch": 72, "velocity": 64}, {"start": 66.28564800000001, "end": 66.380886, "pitch": 72, "velocity": 64}, {"start": 66.428505, "end": 66.523743, "pitch": 72, "velocity": 64}, {"start": 66.714219, "end": 66.80945700000001, "pitch": 72, "velocity": 64}, {"start": 66.999933, "end": 67.09517100000001, "pitch": 72, "velocity": 64}, {"start": 67.14279, "end": 67.238028, "pitch": 74, "velocity": 64}, {"start": 67.428504, "end": 67.523742, "pitch": 76, "velocity": 64}, {"start": 67.571361, "end": 67.666599, "pitch": 72, "velocity": 64}, {"start": 67.85707500000001, "end": 67.952313, "pitch": 69, "velocity": 64}, {"start": 67.999932, "end": 68.09517, "pitch": 67, "velocity": 64}, {"start": 68.57136, "end": 68.66659800000001, "pitch": 72, "velocity": 64}, {"start": 68.714217, "end": 68.809455, "pitch": 72, "velocity": 64}, {"start": 68.999931, "end": 69.095169, "pitch": 72, "velocity": 64}, {"start": 69.285645, "end": 69.380883, "pitch": 72, "velocity": 64}, {"start": 69.42850200000001, "end": 69.52374, "pitch": 74, "velocity": 64}, {"start": 69.571359, "end": 69.666597, "pitch": 76, "velocity": 64}, {"start": 70.857072, "end": 70.95231, "pitch": 72, "velocity": 64}, {"start": 70.99992900000001, "end": 71.095167, "pitch": 72, "velocity": 64}, {"start": 71.28564300000001, "end": 71.380881, "pitch": 72, "velocity": 64}, {"start": 71.571357, "end": 71.666595, "pitch": 72, "velocity": 64}, {"start": 71.714214, "end": 71.80945200000001, "pitch": 74, "velocity": 64}, {"start": 71.999928, "end": 72.095166, "pitch": 76, "velocity": 64}, {"start": 72.142785, "end": 72.238023, "pitch": 72, "velocity": 64}, {"start": 72.428499, "end": 72.523737, "pitch": 69, "velocity": 64}, {"start": 72.57135600000001, "end": 72.666594, "pitch": 67, "velocity": 64}, {"start": 73.142784, "end": 73.238022, "pitch": 76, "velocity": 64}, {"start": 73.285641, "end": 73.38087900000001, "pitch": 76, "velocity": 64}, {"start": 73.571355, "end": 73.666593, "pitch": 76, "velocity": 64}, {"start": 73.857069, "end": 73.952307, "pitch": 72, "velocity": 64}, {"start": 73.999926, "end": 74.095164, "pitch": 76, "velocity": 64}, {"start": 74.28564, "end": 74.380878, "pitch": 79, "velocity": 64}, {"start": 75.428496, "end": 75.523734, "pitch": 76, "velocity": 64}, {"start": 75.571353, "end": 75.666591, "pitch": 72, "velocity": 64}, {"start": 75.857067, "end": 75.952305, "pitch": 67, "velocity": 64}, {"start": 76.285638, "end": 76.380876, "pitch": 68, "velocity": 64}, {"start": 76.571352, "end": 76.66659, "pitch": 69, "velocity": 64}, {"start": 76.714209, "end": 76.809447, "pitch": 77, "velocity": 64}, {"start": 76.99992300000001, "end": 77.095161, "pitch": 77, "velocity": 64}, {"start": 77.14278, "end": 77.238018, "pitch": 69, "velocity": 64}, {"start": 77.714208, "end": 77.80944600000001, "pitch": 71, "velocity": 64}, {"start": 77.904684, "end": 77.999922, "pitch": 81, "velocity": 64}, {"start": 78.09516, "end": 78.190398, "pitch": 81, "velocity": 64}, {"start": 78.285636, "end": 78.380874, "pitch": 81, "velocity": 64}, {"start": 78.476112, "end": 78.57135000000001, "pitch": 79, "velocity": 64}, {"start": 78.666588, "end": 78.761826, "pitch": 77, "velocity": 64}, {"start": 78.85706400000001, "end": 78.952302, "pitch": 76, "velocity": 64}, {"start": 78.999921, "end": 79.09515900000001, "pitch": 72, "velocity": 64}, {"start": 79.285635, "end": 79.38087300000001, "pitch": 69, "velocity": 64}, {"start": 79.428492, "end": 79.52373, "pitch": 67, "velocity": 64}, {"start": 79.99992, "end": 80.095158, "pitch": 76, "velocity": 64}, {"start": 80.14277700000001, "end": 80.238015, "pitch": 72, "velocity": 64}, {"start": 80.42849100000001, "end": 80.523729, "pitch": 67, "velocity": 64}, {"start": 80.857062, "end": 80.95230000000001, "pitch": 68, "velocity": 64}, {"start": 81.142776, "end": 81.238014, "pitch": 69, "velocity": 64}, {"start": 81.285633, "end": 81.380871, "pitch": 77, "velocity": 64}, {"start": 81.571347, "end": 81.666585, "pitch": 77, "velocity": 64}, {"start": 81.71420400000001, "end": 81.809442, "pitch": 69, "velocity": 64}, {"start": 82.285632, "end": 82.38087, "pitch": 71, "velocity": 64}, {"start": 82.428489, "end": 82.52372700000001, "pitch": 77, "velocity": 64}, {"start": 82.714203, "end": 82.809441, "pitch": 77, "velocity": 64}, {"start": 82.85706, "end": 82.952298, "pitch": 77, "velocity": 64}, {"start": 83.04753600000001, "end": 83.142774, "pitch": 76, "velocity": 64}, {"start": 83.238012, "end": 83.33325, "pitch": 74, "velocity": 64}, {"start": 83.428488, "end": 83.523726, "pitch": 72, "velocity": 64}]'),
(11196, '[{"start": 12.966112500000001, "end": 13.029671875000002, "pitch": 73, "velocity": 127}, {"start": 13.09323125, "end": 13.156790625000001, "pitch": 71, "velocity": 127}, {"start": 13.220350000000002, "end": 13.601706250000001, "pitch": 73, "velocity": 127}, {"start": 13.728825, "end": 14.237300000000001, "pitch": 66, "velocity": 127}, {"start": 15.0000125, "end": 15.063571875000001, "pitch": 74, "velocity": 127}, {"start": 15.127131250000001, "end": 15.190690625000002, "pitch": 73, "velocity": 127}, {"start": 15.25425, "end": 15.317809375000001, "pitch": 74, "velocity": 127}, {"start": 15.508487500000001, "end": 15.572046875000002, "pitch": 73, "velocity": 127}, {"start": 15.762725000000001, "end": 16.525437500000002, "pitch": 71, "velocity": 127}, {"start": 17.0339125, "end": 17.097471875, "pitch": 74, "velocity": 127}, {"start": 17.16103125, "end": 17.224590625, "pitch": 73, "velocity": 127}, {"start": 17.28815, "end": 17.796625000000002, "pitch": 74, "velocity": 127}, {"start": 17.796625000000002, "end": 18.305100000000003, "pitch": 66, "velocity": 127}, {"start": 19.067812500000002, "end": 19.131371875000003, "pitch": 71, "velocity": 127}, {"start": 19.19493125, "end": 19.258490625, "pitch": 69, "velocity": 127}, {"start": 19.32205, "end": 19.385609375, "pitch": 71, "velocity": 127}, {"start": 19.576287500000003, "end": 19.639846875, "pitch": 69, "velocity": 127}, {"start": 19.830525, "end": 19.894084375000002, "pitch": 68, "velocity": 127}, {"start": 20.08899979166667, "end": 20.15255916666667, "pitch": 71, "velocity": 127}, {"start": 20.339000000000002, "end": 20.97459375, "pitch": 69, "velocity": 127}, {"start": 21.1017125, "end": 21.165271875000002, "pitch": 73, "velocity": 127}, {"start": 21.228831250000002, "end": 21.292390625000003, "pitch": 71, "velocity": 127}, {"start": 21.35595, "end": 21.737306250000003, "pitch": 73, "velocity": 127}, {"start": 21.864425, "end": 22.500018750000002, "pitch": 66, "velocity": 127}, {"start": 23.1356125, "end": 23.199171875, "pitch": 74, "velocity": 127}, {"start": 23.26273125, "end": 23.326290625000002, "pitch": 73, "velocity": 127}, {"start": 23.389850000000003, "end": 23.453409375000003, "pitch": 74, "velocity": 127}, {"start": 23.6440875, "end": 23.707646875000002, "pitch": 73, "velocity": 127}, {"start": 23.898325000000003, "end": 24.661037500000003, "pitch": 71, "velocity": 127}, {"start": 25.169512500000003, "end": 25.233071875, "pitch": 74, "velocity": 127}, {"start": 25.29663125, "end": 25.360190625, "pitch": 73, "velocity": 127}, {"start": 25.423750000000002, "end": 25.80510625, "pitch": 74, "velocity": 127}, {"start": 25.932225000000003, "end": 26.440700000000003, "pitch": 66, "velocity": 127}, {"start": 27.203412500000002, "end": 27.266971875000003, "pitch": 71, "velocity": 127}, {"start": 27.330531250000003, "end": 27.394090625, "pitch": 69, "velocity": 127}, {"start": 27.45765, "end": 27.521209375, "pitch": 71, "velocity": 127}, {"start": 27.711887500000003, "end": 27.775446875000004, "pitch": 69, "velocity": 127}, {"start": 27.966125, "end": 28.029684375000002, "pitch": 68, "velocity": 127}, {"start": 28.220362500000004, "end": 28.283921875, "pitch": 71, "velocity": 127}, {"start": 28.474600000000002, "end": 29.2373125, "pitch": 69, "velocity": 127}, {"start": 29.2373125, "end": 29.300871875000002, "pitch": 73, "velocity": 127}, {"start": 29.364431250000003, "end": 29.427990625000003, "pitch": 71, "velocity": 127}, {"start": 29.491550000000004, "end": 30.000025, "pitch": 73, "velocity": 127}, {"start": 30.000025, "end": 30.635618750000003, "pitch": 66, "velocity": 127}, {"start": 31.2712125, "end": 31.334771875, "pitch": 74, "velocity": 127}, {"start": 31.398331250000002, "end": 31.461890625000002, "pitch": 73, "velocity": 127}, {"start": 31.525450000000003, "end": 31.589009375000003, "pitch": 74, "velocity": 127}, {"start": 31.7796875, "end": 31.843246875000002, "pitch": 73, "velocity": 127}, {"start": 32.033925, "end": 32.7966375, "pitch": 71, "velocity": 127}, {"start": 33.3051125, "end": 33.368671875000004, "pitch": 74, "velocity": 127}, {"start": 33.43223125, "end": 33.495790625000005, "pitch": 73, "velocity": 127}, {"start": 33.55935, "end": 34.067825, "pitch": 74, "velocity": 127}, {"start": 34.067825, "end": 34.5763, "pitch": 66, "velocity": 127}, {"start": 35.3390125, "end": 35.402571875, "pitch": 71, "velocity": 127}, {"start": 35.466131250000004, "end": 35.529690625, "pitch": 69, "velocity": 127}, {"start": 35.593250000000005, "end": 35.656809375, "pitch": 71, "velocity": 127}, {"start": 35.8474875, "end": 35.911046875000004, "pitch": 69, "velocity": 127}, {"start": 36.101725, "end": 36.165284375000006, "pitch": 68, "velocity": 127}, {"start": 36.355962500000004, "end": 36.419521875, "pitch": 71, "velocity": 127}, {"start": 36.610200000000006, "end": 37.372912500000005, "pitch": 69, "velocity": 127}, {"start": 37.372912500000005, "end": 37.436471875, "pitch": 73, "velocity": 127}, {"start": 37.50003125, "end": 37.563590625, "pitch": 71, "velocity": 127}, {"start": 37.62715, "end": 38.135625000000005, "pitch": 73, "velocity": 127}, {"start": 38.135625000000005, "end": 38.77121875, "pitch": 66, "velocity": 127}, {"start": 39.4068125, "end": 39.470371875000005, "pitch": 74, "velocity": 127}, {"start": 39.53393125, "end": 39.597490625000006, "pitch": 73, "velocity": 127}, {"start": 39.66105, "end": 39.724609375, "pitch": 74, "velocity": 127}, {"start": 39.915287500000005, "end": 39.978846875, "pitch": 73, "velocity": 127}, {"start": 40.169525, "end": 40.93223750000001, "pitch": 71, "velocity": 127}, {"start": 41.440712500000004, "end": 41.504271875, "pitch": 74, "velocity": 127}, {"start": 41.567831250000005, "end": 41.631390625, "pitch": 73, "velocity": 127}, {"start": 41.694950000000006, "end": 42.203425, "pitch": 74, "velocity": 127}, {"start": 42.203425, "end": 42.7119, "pitch": 66, "velocity": 127}, {"start": 43.474612500000006, "end": 43.538171875, "pitch": 71, "velocity": 127}, {"start": 43.60173125, "end": 43.665290625000004, "pitch": 69, "velocity": 127}, {"start": 43.72885, "end": 43.792409375000005, "pitch": 71, "velocity": 127}, {"start": 43.9830875, "end": 44.046646875, "pitch": 69, "velocity": 127}, {"start": 44.237325000000006, "end": 44.300884375, "pitch": 68, "velocity": 127}, {"start": 44.4915625, "end": 44.555121875000005, "pitch": 71, "velocity": 127}, {"start": 44.7458, "end": 45.5085125, "pitch": 69, "velocity": 127}, {"start": 45.63563125, "end": 45.699190625, "pitch": 69, "velocity": 127}, {"start": 45.5085125, "end": 45.762750000000004, "pitch": 68, "velocity": 127}, {"start": 45.762750000000004, "end": 46.5254625, "pitch": 71, "velocity": 127}, {"start": 46.5254625, "end": 46.652581250000004, "pitch": 69, "velocity": 127}, {"start": 46.652581250000004, "end": 46.779700000000005, "pitch": 71, "velocity": 127}, {"start": 46.779700000000005, "end": 47.16105625, "pitch": 73, "velocity": 127}, {"start": 47.0339375, "end": 47.288175, "pitch": 71, "velocity": 127}, {"start": 47.288175, "end": 47.542412500000005, "pitch": 69, "velocity": 127}, {"start": 47.542412500000005, "end": 47.79665000000001, "pitch": 68, "velocity": 127}, {"start": 47.79665000000001, "end": 48.305125000000004, "pitch": 66, "velocity": 127}, {"start": 48.305125000000004, "end": 48.8136, "pitch": 74, "velocity": 127}, {"start": 48.83478645833334, "end": 49.724617708333334, "pitch": 73, "velocity": 127}, {"start": 49.80936354166667, "end": 50.186482500000004, "pitch": 73, "velocity": 127}, {"start": 50.16105875, "end": 50.55936416666667, "pitch": 74, "velocity": 127}, {"start": 50.55088958333334, "end": 50.70343208333334, "pitch": 73, "velocity": 127}, {"start": 50.707669375, "end": 50.83055083333334, "pitch": 71, "velocity": 127}, {"start": 50.843262708333334, "end": 52.36445041666667, "pitch": 73, "velocity": 127}, {"start": 53.644112500000006, "end": 53.728858333333335, "pitch": 73, "velocity": 127}, {"start": 53.77123125000001, "end": 53.834790625000004, "pitch": 71, "velocity": 127}, {"start": 53.89835, "end": 54.279706250000004, "pitch": 73, "velocity": 127}, {"start": 54.406825000000005, "end": 54.9153, "pitch": 66, "velocity": 127}, {"start": 55.6780125, "end": 55.741571875000005, "pitch": 74, "velocity": 127}, {"start": 55.80513125, "end": 55.868690625000006, "pitch": 73, "velocity": 127}, {"start": 55.93225, "end": 55.99580937500001, "pitch": 74, "velocity": 127}, {"start": 56.186487500000005, "end": 56.250046875, "pitch": 73, "velocity": 127}, {"start": 56.44072500000001, "end": 57.20343750000001, "pitch": 71, "velocity": 127}, {"start": 57.711912500000004, "end": 57.775471875, "pitch": 74, "velocity": 127}, {"start": 57.839031250000005, "end": 57.902590625, "pitch": 73, "velocity": 127}, {"start": 57.966150000000006, "end": 58.474625, "pitch": 74, "velocity": 127}, {"start": 58.474625, "end": 58.98310000000001, "pitch": 66, "velocity": 127}, {"start": 59.74581250000001, "end": 59.809371875000004, "pitch": 71, "velocity": 127}, {"start": 59.87293125000001, "end": 59.936490625000005, "pitch": 69, "velocity": 127}, {"start": 60.00005, "end": 60.063609375000006, "pitch": 71, "velocity": 127}, {"start": 60.254287500000004, "end": 60.31784687500001, "pitch": 69, "velocity": 127}, {"start": 60.508525000000006, "end": 60.572084375, "pitch": 68, "velocity": 127}, {"start": 60.76276250000001, "end": 60.826321875000005, "pitch": 71, "velocity": 127}, {"start": 61.017, "end": 61.7797125, "pitch": 69, "velocity": 127}, {"start": 61.7797125, "end": 61.843271875000006, "pitch": 73, "velocity": 127}, {"start": 61.90683125, "end": 61.97039062500001, "pitch": 71, "velocity": 127}, {"start": 62.033950000000004, "end": 62.542425, "pitch": 73, "velocity": 127}, {"start": 62.542425, "end": 63.17801875000001, "pitch": 66, "velocity": 127}, {"start": 63.813612500000005, "end": 63.877171875, "pitch": 74, "velocity": 127}, {"start": 63.940731250000006, "end": 64.00429062500001, "pitch": 73, "velocity": 127}, {"start": 64.06785, "end": 64.131409375, "pitch": 74, "velocity": 127}, {"start": 64.32208750000001, "end": 64.385646875, "pitch": 73, "velocity": 127}, {"start": 64.57632500000001, "end": 65.3390375, "pitch": 71, "velocity": 127}, {"start": 65.84751250000001, "end": 65.911071875, "pitch": 74, "velocity": 127}, {"start": 65.97463125, "end": 66.038190625, "pitch": 73, "velocity": 127}, {"start": 66.10175000000001, "end": 66.610225, "pitch": 74, "velocity": 127}, {"start": 66.610225, "end": 67.1187, "pitch": 66, "velocity": 127}, {"start": 67.88141250000001, "end": 67.94497187500001, "pitch": 71, "velocity": 127}, {"start": 68.00853125, "end": 68.072090625, "pitch": 69, "velocity": 127}, {"start": 68.13565, "end": 68.19920937500001, "pitch": 71, "velocity": 127}, {"start": 68.3898875, "end": 68.45344687500001, "pitch": 69, "velocity": 127}, {"start": 68.644125, "end": 68.707684375, "pitch": 68, "velocity": 127}, {"start": 68.8983625, "end": 68.961921875, "pitch": 71, "velocity": 127}, {"start": 69.1526, "end": 69.78819375, "pitch": 69, "velocity": 127}, {"start": 69.9153125, "end": 69.97887187500001, "pitch": 68, "velocity": 127}, {"start": 70.04243125, "end": 70.105990625, "pitch": 69, "velocity": 127}, {"start": 70.16955, "end": 70.93226250000001, "pitch": 71, "velocity": 127}, {"start": 70.93226250000001, "end": 71.05938125, "pitch": 69, "velocity": 127}, {"start": 71.05938125, "end": 71.18650000000001, "pitch": 71, "velocity": 127}, {"start": 71.18650000000001, "end": 71.44073750000001, "pitch": 73, "velocity": 127}, {"start": 71.44073750000001, "end": 71.694975, "pitch": 71, "velocity": 127}, {"start": 71.694975, "end": 71.9492125, "pitch": 69, "velocity": 127}, {"start": 71.9492125, "end": 72.20345, "pitch": 68, "velocity": 127}, {"start": 72.20345, "end": 72.71192500000001, "pitch": 66, "velocity": 127}, {"start": 72.71192500000001, "end": 73.22040000000001, "pitch": 74, "velocity": 127}, {"start": 73.22040000000001, "end": 74.61870625, "pitch": 73, "velocity": 127}, {"start": 74.74582500000001, "end": 74.87294375, "pitch": 73, "velocity": 127}, {"start": 74.87294375, "end": 75.0000625, "pitch": 74, "velocity": 127}, {"start": 75.0000625, "end": 75.12718125, "pitch": 73, "velocity": 127}, {"start": 75.12718125, "end": 75.38141875000001, "pitch": 71, "velocity": 127}, {"start": 75.2543, "end": 76.90684375000001, "pitch": 73, "velocity": 127}, {"start": 108.78398895833334, "end": 109.309413125, "pitch": 69, "velocity": 119}, {"start": 109.32212500000001, "end": 109.82212541666668, "pitch": 71, "velocity": 118}, {"start": 109.79670166666668, "end": 110.20771895833334, "pitch": 69, "velocity": 116}, {"start": 110.19076979166668, "end": 110.33483770833334, "pitch": 68, "velocity": 117}, {"start": 110.30517666666667, "end": 111.82212708333334, "pitch": 66, "velocity": 111}, {"start": 114.15263750000001, "end": 114.21619687500001, "pitch": 68, "velocity": 127}, {"start": 114.15263750000001, "end": 114.26704437500001, "pitch": 64, "velocity": 127}, {"start": 114.15263750000001, "end": 114.27551895833334, "pitch": 59, "velocity": 127}, {"start": 114.40687500000001, "end": 114.74585833333335, "pitch": 68, "velocity": 127}, {"start": 114.40687500000001, "end": 114.75009562500001, "pitch": 59, "velocity": 127}, {"start": 114.40687500000001, "end": 114.78399395833334, "pitch": 64, "velocity": 127}, {"start": 114.91535, "end": 115.09331625000002, "pitch": 68, "velocity": 127}, {"start": 114.91535, "end": 115.10179083333334, "pitch": 59, "velocity": 127}, {"start": 114.91535, "end": 115.11450270833335, "pitch": 64, "velocity": 127}, {"start": 115.1695875, "end": 115.436536875, "pitch": 68, "velocity": 127}, {"start": 115.1695875, "end": 115.44077416666667, "pitch": 64, "velocity": 127}, {"start": 115.1695875, "end": 115.44501145833334, "pitch": 59, "velocity": 127}, {"start": 115.67806250000001, "end": 116.35602916666667, "pitch": 59, "velocity": 127}, {"start": 115.67806250000001, "end": 116.377215625, "pitch": 64, "velocity": 127}, {"start": 115.67806250000001, "end": 116.38145291666667, "pitch": 68, "velocity": 127}, {"start": 118.7289125, "end": 118.81365833333334, "pitch": 73, "velocity": 127}, {"start": 118.85603125000002, "end": 118.91959062500001, "pitch": 71, "velocity": 127}, {"start": 118.98315000000001, "end": 119.36450625, "pitch": 73, "velocity": 127}, {"start": 119.49162500000001, "end": 120.0001, "pitch": 66, "velocity": 127}, {"start": 120.76281250000001, "end": 120.826371875, "pitch": 74, "velocity": 127}, {"start": 120.88993125, "end": 120.95349062500001, "pitch": 73, "velocity": 127}, {"start": 121.01705000000001, "end": 121.08060937500001, "pitch": 74, "velocity": 127}, {"start": 121.27128750000001, "end": 121.33484687500001, "pitch": 73, "velocity": 127}, {"start": 121.52552500000002, "end": 122.28823750000001, "pitch": 71, "velocity": 127}, {"start": 122.79671250000001, "end": 122.86027187500001, "pitch": 74, "velocity": 127}, {"start": 122.92383125, "end": 122.987390625, "pitch": 73, "velocity": 127}, {"start": 123.05095000000001, "end": 123.559425, "pitch": 74, "velocity": 127}, {"start": 123.559425, "end": 124.06790000000001, "pitch": 66, "velocity": 127}, {"start": 124.83061250000002, "end": 124.89417187500001, "pitch": 71, "velocity": 127}, {"start": 124.95773125000001, "end": 125.021290625, "pitch": 69, "velocity": 127}, {"start": 125.08485, "end": 125.14840937500001, "pitch": 71, "velocity": 127}, {"start": 125.3390875, "end": 125.40264687500002, "pitch": 69, "velocity": 127}, {"start": 125.59332500000001, "end": 125.656884375, "pitch": 68, "velocity": 127}, {"start": 125.84756250000001, "end": 125.911121875, "pitch": 71, "velocity": 127}, {"start": 126.10180000000001, "end": 126.8645125, "pitch": 69, "velocity": 127}, {"start": 126.8645125, "end": 126.92807187500001, "pitch": 73, "velocity": 127}, {"start": 126.99163125000001, "end": 127.05519062500001, "pitch": 71, "velocity": 127}, {"start": 127.11875, "end": 127.62722500000001, "pitch": 73, "velocity": 127}, {"start": 127.62722500000001, "end": 128.26281875, "pitch": 66, "velocity": 127}, {"start": 128.8984125, "end": 128.96197187500002, "pitch": 74, "velocity": 127}, {"start": 129.02553125, "end": 129.089090625, "pitch": 73, "velocity": 127}, {"start": 129.15265000000002, "end": 129.216209375, "pitch": 74, "velocity": 127}, {"start": 129.4068875, "end": 129.47044687500002, "pitch": 73, "velocity": 127}, {"start": 129.661125, "end": 130.42383750000002, "pitch": 71, "velocity": 127}, {"start": 130.93231250000002, "end": 130.995871875, "pitch": 74, "velocity": 127}, {"start": 131.05943125000002, "end": 131.122990625, "pitch": 73, "velocity": 127}, {"start": 131.18655, "end": 131.69502500000002, "pitch": 74, "velocity": 127}, {"start": 131.69502500000002, "end": 132.20350000000002, "pitch": 66, "velocity": 127}, {"start": 132.9662125, "end": 133.02977187500002, "pitch": 71, "velocity": 127}, {"start": 133.09333125, "end": 133.15689062500002, "pitch": 69, "velocity": 127}, {"start": 133.22045, "end": 133.284009375, "pitch": 71, "velocity": 127}, {"start": 133.47468750000002, "end": 133.538246875, "pitch": 69, "velocity": 127}, {"start": 133.728925, "end": 133.79248437500002, "pitch": 68, "velocity": 127}, {"start": 133.98316250000002, "end": 134.046721875, "pitch": 71, "velocity": 127}, {"start": 134.2374, "end": 134.87299375, "pitch": 69, "velocity": 127}, {"start": 157.61877541666667, "end": 158.123013125, "pitch": 69, "velocity": 118}, {"start": 158.123013125, "end": 158.59758979166668, "pitch": 71, "velocity": 118}, {"start": 158.63572541666667, "end": 159.05945458333335, "pitch": 69, "velocity": 120}, {"start": 159.038268125, "end": 159.16962416666667, "pitch": 68, "velocity": 117}, {"start": 159.139963125, "end": 160.5806422916667, "pitch": 66, "velocity": 113}, {"start": 162.9662375, "end": 163.02979687500002, "pitch": 68, "velocity": 127}, {"start": 162.9662375, "end": 163.08064437500002, "pitch": 64, "velocity": 127}, {"start": 162.9662375, "end": 163.08911895833336, "pitch": 59, "velocity": 127}, {"start": 163.22047500000002, "end": 163.55945833333334, "pitch": 68, "velocity": 127}, {"start": 163.22047500000002, "end": 163.563695625, "pitch": 59, "velocity": 127}, {"start": 163.22047500000002, "end": 163.59759395833333, "pitch": 64, "velocity": 127}, {"start": 163.72895000000003, "end": 163.90691625000002, "pitch": 68, "velocity": 127}, {"start": 163.72895000000003, "end": 163.91539083333333, "pitch": 59, "velocity": 127}, {"start": 163.72895000000003, "end": 163.92810270833334, "pitch": 64, "velocity": 127}, {"start": 163.9831875, "end": 164.250136875, "pitch": 68, "velocity": 127}, {"start": 163.9831875, "end": 164.25437416666668, "pitch": 64, "velocity": 127}, {"start": 163.9831875, "end": 164.25861145833335, "pitch": 59, "velocity": 127}, {"start": 164.49166250000002, "end": 165.16962916666668, "pitch": 59, "velocity": 127}, {"start": 164.49166250000002, "end": 165.190815625, "pitch": 64, "velocity": 127}, {"start": 164.49166250000002, "end": 165.19505291666667, "pitch": 68, "velocity": 127}, {"start": 167.54251250000002, "end": 167.62725833333334, "pitch": 73, "velocity": 127}, {"start": 167.66963125, "end": 167.73319062500002, "pitch": 71, "velocity": 127}, {"start": 167.79675, "end": 168.17810625, "pitch": 73, "velocity": 127}, {"start": 168.305225, "end": 168.8137, "pitch": 66, "velocity": 127}, {"start": 169.5764125, "end": 169.63997187500001, "pitch": 74, "velocity": 127}, {"start": 169.70353125000003, "end": 169.767090625, "pitch": 73, "velocity": 127}, {"start": 169.83065000000002, "end": 169.894209375, "pitch": 74, "velocity": 127}, {"start": 170.0848875, "end": 170.14844687500002, "pitch": 73, "velocity": 127}, {"start": 170.33912500000002, "end": 171.10183750000002, "pitch": 71, "velocity": 127}, {"start": 171.61031250000002, "end": 171.673871875, "pitch": 74, "velocity": 127}, {"start": 171.73743125000001, "end": 171.80099062500003, "pitch": 73, "velocity": 127}, {"start": 171.86455, "end": 172.373025, "pitch": 74, "velocity": 127}, {"start": 172.373025, "end": 172.88150000000002, "pitch": 66, "velocity": 127}, {"start": 173.6442125, "end": 173.70777187500002, "pitch": 71, "velocity": 127}, {"start": 173.77133125, "end": 173.834890625, "pitch": 69, "velocity": 127}, {"start": 173.89845000000003, "end": 173.962009375, "pitch": 71, "velocity": 127}, {"start": 174.1526875, "end": 174.21624687500002, "pitch": 69, "velocity": 127}, {"start": 174.406925, "end": 174.470484375, "pitch": 68, "velocity": 127}, {"start": 174.66116250000002, "end": 174.724721875, "pitch": 71, "velocity": 127}, {"start": 174.9154, "end": 175.67811250000003, "pitch": 69, "velocity": 127}, {"start": 175.67811250000003, "end": 175.741671875, "pitch": 73, "velocity": 127}, {"start": 175.80523125000002, "end": 175.868790625, "pitch": 71, "velocity": 127}, {"start": 175.93235, "end": 176.44082500000002, "pitch": 73, "velocity": 127}, {"start": 176.44082500000002, "end": 177.07641875000002, "pitch": 66, "velocity": 127}, {"start": 177.71201250000001, "end": 177.77557187500003, "pitch": 74, "velocity": 127}, {"start": 177.83913125, "end": 177.90269062500002, "pitch": 73, "velocity": 127}, {"start": 177.96625, "end": 178.029809375, "pitch": 74, "velocity": 127}, {"start": 178.22048750000002, "end": 178.284046875, "pitch": 73, "velocity": 127}, {"start": 178.474725, "end": 179.23743750000003, "pitch": 71, "velocity": 127}, {"start": 179.7459125, "end": 179.809471875, "pitch": 74, "velocity": 127}, {"start": 179.87303125000003, "end": 179.936590625, "pitch": 73, "velocity": 127}, {"start": 180.00015000000002, "end": 180.50862500000002, "pitch": 74, "velocity": 127}, {"start": 180.50862500000002, "end": 181.01710000000003, "pitch": 66, "velocity": 127}, {"start": 181.77981250000002, "end": 181.843371875, "pitch": 71, "velocity": 127}, {"start": 181.90693125, "end": 181.97049062500002, "pitch": 69, "velocity": 127}, {"start": 182.03405, "end": 182.09760937500002, "pitch": 71, "velocity": 127}, {"start": 182.28828750000002, "end": 182.351846875, "pitch": 69, "velocity": 127}, {"start": 182.542525, "end": 182.60608437500002, "pitch": 68, "velocity": 127}, {"start": 182.7967625, "end": 182.860321875, "pitch": 71, "velocity": 127}, {"start": 183.05100000000002, "end": 183.68659375000001, "pitch": 69, "velocity": 127}, {"start": 183.8137125, "end": 183.87727187500002, "pitch": 68, "velocity": 127}, {"start": 183.94083125, "end": 184.004390625, "pitch": 69, "velocity": 127}, {"start": 184.06795000000002, "end": 184.83066250000002, "pitch": 71, "velocity": 127}, {"start": 184.83066250000002, "end": 184.89422187500003, "pitch": 69, "velocity": 127}, {"start": 184.95778125, "end": 185.02134062500002, "pitch": 71, "velocity": 127}, {"start": 185.0849, "end": 185.33913750000002, "pitch": 73, "velocity": 127}, {"start": 185.33913750000002, "end": 185.593375, "pitch": 71, "velocity": 127}, {"start": 185.593375, "end": 185.84761250000003, "pitch": 69, "velocity": 127}, {"start": 185.84761250000003, "end": 186.10185, "pitch": 68, "velocity": 127}, {"start": 186.10185, "end": 186.61032500000002, "pitch": 66, "velocity": 127}, {"start": 186.61032500000002, "end": 187.11880000000002, "pitch": 74, "velocity": 127}, {"start": 187.11880000000002, "end": 188.51710625, "pitch": 73, "velocity": 127}, {"start": 188.644225, "end": 188.70778437500002, "pitch": 73, "velocity": 127}, {"start": 188.77134375000003, "end": 188.834903125, "pitch": 74, "velocity": 127}, {"start": 188.89846250000002, "end": 188.962021875, "pitch": 73, "velocity": 127}, {"start": 189.02558125000002, "end": 189.27981875, "pitch": 71, "velocity": 127}, {"start": 189.1527, "end": 190.80524375000002, "pitch": 73, "velocity": 127}, {"start": 191.24592208333334, "end": 195.20778979166667, "pitch": 54, "velocity": 127}, {"start": 228.5595125, "end": 228.64425833333334, "pitch": 73, "velocity": 127}, {"start": 228.68663125, "end": 228.75019062500002, "pitch": 71, "velocity": 127}, {"start": 228.81375000000003, "end": 229.19510625, "pitch": 73, "velocity": 127}, {"start": 229.322225, "end": 229.8307, "pitch": 66, "velocity": 127}, {"start": 230.59341250000003, "end": 230.656971875, "pitch": 74, "velocity": 127}, {"start": 230.72053125000002, "end": 230.784090625, "pitch": 73, "velocity": 127}, {"start": 230.84765000000002, "end": 230.91120937500003, "pitch": 74, "velocity": 127}, {"start": 231.1018875, "end": 231.16544687500001, "pitch": 73, "velocity": 127}, {"start": 231.35612500000002, "end": 232.1188375, "pitch": 71, "velocity": 127}, {"start": 232.62731250000002, "end": 232.69087187500003, "pitch": 74, "velocity": 127}, {"start": 232.75443125, "end": 232.81799062500002, "pitch": 73, "velocity": 127}, {"start": 232.88155, "end": 233.390025, "pitch": 74, "velocity": 127}, {"start": 233.390025, "end": 233.8985, "pitch": 66, "velocity": 127}, {"start": 234.6612125, "end": 234.72477187500002, "pitch": 71, "velocity": 127}, {"start": 234.78833125000003, "end": 234.851890625, "pitch": 69, "velocity": 127}, {"start": 234.91545000000002, "end": 234.979009375, "pitch": 71, "velocity": 127}, {"start": 235.1696875, "end": 235.23324687500002, "pitch": 69, "velocity": 127}, {"start": 235.42392500000003, "end": 235.487484375, "pitch": 68, "velocity": 127}, {"start": 235.6781625, "end": 235.74172187500002, "pitch": 71, "velocity": 127}, {"start": 235.93240000000003, "end": 236.69511250000002, "pitch": 69, "velocity": 127}, {"start": 236.69511250000002, "end": 236.758671875, "pitch": 73, "velocity": 127}, {"start": 236.82223125000002, "end": 236.88579062500003, "pitch": 71, "velocity": 127}, {"start": 236.94935, "end": 237.457825, "pitch": 73, "velocity": 127}, {"start": 237.457825, "end": 238.09341875, "pitch": 66, "velocity": 127}, {"start": 238.7290125, "end": 238.79257187500002, "pitch": 74, "velocity": 127}, {"start": 238.85613125, "end": 238.91969062500002, "pitch": 73, "velocity": 127}, {"start": 238.98325000000003, "end": 239.046809375, "pitch": 74, "velocity": 127}, {"start": 239.23748750000001, "end": 239.30104687500003, "pitch": 73, "velocity": 127}, {"start": 239.49172500000003, "end": 240.25443750000002, "pitch": 71, "velocity": 127}, {"start": 240.76291250000003, "end": 240.826471875, "pitch": 74, "velocity": 127}, {"start": 240.89003125000002, "end": 240.953590625, "pitch": 73, "velocity": 127}, {"start": 241.01715000000002, "end": 241.52562500000002, "pitch": 74, "velocity": 127}, {"start": 241.52562500000002, "end": 242.03410000000002, "pitch": 66, "velocity": 127}, {"start": 242.79681250000002, "end": 242.86037187500003, "pitch": 71, "velocity": 127}, {"start": 242.92393125, "end": 242.98749062500002, "pitch": 69, "velocity": 127}, {"start": 243.05105000000003, "end": 243.11460937500001, "pitch": 71, "velocity": 127}, {"start": 243.30528750000002, "end": 243.36884687500003, "pitch": 69, "velocity": 127}, {"start": 243.559525, "end": 243.62308437500002, "pitch": 68, "velocity": 127}, {"start": 243.81376250000002, "end": 243.877321875, "pitch": 71, "velocity": 127}, {"start": 244.068, "end": 244.70359375, "pitch": 69, "velocity": 127}, {"start": 244.8307125, "end": 244.89427187500002, "pitch": 68, "velocity": 127}, {"start": 244.95783125000003, "end": 245.021390625, "pitch": 69, "velocity": 127}, {"start": 245.08495000000002, "end": 245.8476625, "pitch": 71, "velocity": 127}, {"start": 245.8476625, "end": 245.97478125, "pitch": 69, "velocity": 127}, {"start": 245.97478125, "end": 246.10190000000003, "pitch": 71, "velocity": 127}, {"start": 246.10190000000003, "end": 246.35613750000002, "pitch": 73, "velocity": 127}, {"start": 246.35613750000002, "end": 246.610375, "pitch": 71, "velocity": 127}, {"start": 246.610375, "end": 246.86461250000002, "pitch": 69, "velocity": 127}, {"start": 246.86461250000002, "end": 247.11885, "pitch": 68, "velocity": 127}, {"start": 247.11885, "end": 247.627325, "pitch": 66, "velocity": 127}, {"start": 247.627325, "end": 248.13580000000002, "pitch": 74, "velocity": 127}, {"start": 248.13580000000002, "end": 249.53410625, "pitch": 73, "velocity": 127}, {"start": 249.66122500000003, "end": 249.78834375000002, "pitch": 73, "velocity": 127}, {"start": 249.78834375000002, "end": 249.91546250000002, "pitch": 74, "velocity": 127}, {"start": 249.91546250000002, "end": 250.04258125, "pitch": 73, "velocity": 127}, {"start": 250.04258125, "end": 250.29681875000003, "pitch": 71, "velocity": 127}, {"start": 250.1697, "end": 251.82224375, "pitch": 73, "velocity": 127}, {"start": 252.96631250000002, "end": 253.05105833333334, "pitch": 73, "velocity": 127}, {"start": 253.09343125, "end": 253.15699062500002, "pitch": 71, "velocity": 127}, {"start": 253.22055000000003, "end": 253.60190625, "pitch": 73, "velocity": 127}, {"start": 253.729025, "end": 254.2375, "pitch": 66, "velocity": 127}, {"start": 255.00021250000003, "end": 255.06377187500001, "pitch": 74, "velocity": 127}, {"start": 255.12733125000003, "end": 255.190890625, "pitch": 73, "velocity": 127}, {"start": 255.25445000000002, "end": 255.31800937500003, "pitch": 74, "velocity": 127}, {"start": 255.5086875, "end": 255.57224687500002, "pitch": 73, "velocity": 127}, {"start": 255.76292500000002, "end": 256.5256375, "pitch": 71, "velocity": 127}, {"start": 257.0341125, "end": 257.097671875, "pitch": 74, "velocity": 127}, {"start": 257.16123125, "end": 257.224790625, "pitch": 73, "velocity": 127}, {"start": 257.28835000000004, "end": 257.796825, "pitch": 74, "velocity": 127}, {"start": 257.796825, "end": 258.30530000000005, "pitch": 66, "velocity": 127}, {"start": 259.0680125, "end": 259.131571875, "pitch": 71, "velocity": 127}, {"start": 259.19513125000003, "end": 259.25869062500004, "pitch": 69, "velocity": 127}, {"start": 259.32225, "end": 259.385809375, "pitch": 71, "velocity": 127}, {"start": 259.57648750000004, "end": 259.640046875, "pitch": 69, "velocity": 127}, {"start": 259.83072500000003, "end": 259.89428437500004, "pitch": 68, "velocity": 127}, {"start": 260.0849625, "end": 260.14852187500003, "pitch": 71, "velocity": 127}, {"start": 260.3392, "end": 261.1019125, "pitch": 69, "velocity": 127}, {"start": 261.1019125, "end": 261.16547187500004, "pitch": 73, "velocity": 127}, {"start": 261.22903125, "end": 261.292590625, "pitch": 71, "velocity": 127}, {"start": 261.35615, "end": 261.86462500000005, "pitch": 73, "velocity": 127}, {"start": 261.86462500000005, "end": 262.50021875000004, "pitch": 66, "velocity": 127}, {"start": 263.13581250000004, "end": 263.199371875, "pitch": 74, "velocity": 127}, {"start": 263.26293125, "end": 263.326490625, "pitch": 73, "velocity": 127}, {"start": 263.39005000000003, "end": 263.45360937500004, "pitch": 74, "velocity": 127}, {"start": 263.6442875, "end": 263.70784687500003, "pitch": 73, "velocity": 127}, {"start": 263.898525, "end": 264.6612375, "pitch": 71, "velocity": 127}, {"start": 265.1697125, "end": 265.233271875, "pitch": 74, "velocity": 127}, {"start": 265.29683125, "end": 265.36039062500004, "pitch": 73, "velocity": 127}, {"start": 265.42395000000005, "end": 265.932425, "pitch": 74, "velocity": 127}, {"start": 265.932425, "end": 266.4409, "pitch": 66, "velocity": 127}, {"start": 267.2036125, "end": 267.26717187500003, "pitch": 71, "velocity": 127}, {"start": 267.33073125000004, "end": 267.394290625, "pitch": 69, "velocity": 127}, {"start": 267.45785, "end": 267.521409375, "pitch": 71, "velocity": 127}, {"start": 267.7120875, "end": 267.775646875, "pitch": 69, "velocity": 127}, {"start": 267.96632500000004, "end": 268.029884375, "pitch": 68, "velocity": 127}, {"start": 268.2205625, "end": 268.28412187500004, "pitch": 71, "velocity": 127}, {"start": 268.4748, "end": 269.11039375, "pitch": 69, "velocity": 127}, {"start": 269.23751250000004, "end": 269.30107187500005, "pitch": 68, "velocity": 127}, {"start": 269.36463125, "end": 269.428190625, "pitch": 69, "velocity": 127}, {"start": 269.49175, "end": 270.25446250000005, "pitch": 71, "velocity": 127}, {"start": 270.25446250000005, "end": 270.318021875, "pitch": 69, "velocity": 127}, {"start": 270.38158125, "end": 270.445140625, "pitch": 71, "velocity": 127}, {"start": 270.50870000000003, "end": 270.7629375, "pitch": 73, "velocity": 127}, {"start": 270.7629375, "end": 271.017175, "pitch": 71, "velocity": 127}, {"start": 271.017175, "end": 271.2714125, "pitch": 69, "velocity": 127}, {"start": 271.2714125, "end": 271.52565000000004, "pitch": 68, "velocity": 127}, {"start": 271.52565000000004, "end": 272.034125, "pitch": 66, "velocity": 127}, {"start": 272.034125, "end": 272.5426, "pitch": 74, "velocity": 127}, {"start": 272.5426, "end": 273.94090625, "pitch": 73, "velocity": 127}, {"start": 274.06802500000003, "end": 274.13158437500005, "pitch": 73, "velocity": 127}, {"start": 274.19514375, "end": 274.258703125, "pitch": 74, "velocity": 127}, {"start": 274.3222625, "end": 274.38582187500003, "pitch": 73, "velocity": 127}, {"start": 274.44938125000004, "end": 274.70361875000003, "pitch": 71, "velocity": 127}, {"start": 274.5765, "end": 276.22904375, "pitch": 73, "velocity": 127}, {"start": 277.37311250000005, "end": 277.4578583333334, "pitch": 73, "velocity": 127}, {"start": 277.50023125, "end": 277.563790625, "pitch": 71, "velocity": 127}, {"start": 277.62735000000004, "end": 278.00870625000005, "pitch": 73, "velocity": 127}, {"start": 278.135825, "end": 278.64430000000004, "pitch": 66, "velocity": 127}, {"start": 279.4070125, "end": 279.470571875, "pitch": 74, "velocity": 127}, {"start": 279.53413125000003, "end": 279.59769062500004, "pitch": 73, "velocity": 127}, {"start": 279.66125, "end": 279.724809375, "pitch": 74, "velocity": 127}, {"start": 279.91548750000004, "end": 279.979046875, "pitch": 73, "velocity": 127}, {"start": 280.169725, "end": 280.93243750000005, "pitch": 71, "velocity": 127}, {"start": 281.4409125, "end": 281.50447187500004, "pitch": 74, "velocity": 127}, {"start": 281.56803125000005, "end": 281.631590625, "pitch": 73, "velocity": 127}, {"start": 281.69515, "end": 282.20362500000005, "pitch": 74, "velocity": 127}, {"start": 282.20362500000005, "end": 282.7121, "pitch": 66, "velocity": 127}, {"start": 283.47481250000004, "end": 283.538371875, "pitch": 71, "velocity": 127}, {"start": 283.60193125, "end": 283.665490625, "pitch": 69, "velocity": 127}, {"start": 283.72905000000003, "end": 283.79260937500004, "pitch": 71, "velocity": 127}, {"start": 283.9832875, "end": 284.046846875, "pitch": 69, "velocity": 127}, {"start": 284.237525, "end": 284.301084375, "pitch": 68, "velocity": 127}, {"start": 284.4917625, "end": 284.555321875, "pitch": 71, "velocity": 127}, {"start": 284.74600000000004, "end": 285.5087125, "pitch": 69, "velocity": 127}, {"start": 285.5087125, "end": 285.572271875, "pitch": 73, "velocity": 127}, {"start": 285.63583125, "end": 285.69939062500004, "pitch": 71, "velocity": 127}, {"start": 285.76295000000005, "end": 286.271425, "pitch": 73, "velocity": 127}, {"start": 286.271425, "end": 286.90701875, "pitch": 66, "velocity": 127}, {"start": 287.5426125, "end": 287.60617187500003, "pitch": 74, "velocity": 127}, {"start": 287.66973125000004, "end": 287.733290625, "pitch": 73, "velocity": 127}, {"start": 287.79685, "end": 287.860409375, "pitch": 74, "velocity": 127}, {"start": 288.0510875, "end": 288.114646875, "pitch": 73, "velocity": 127}, {"start": 288.30532500000004, "end": 289.0680375, "pitch": 71, "velocity": 127}, {"start": 289.57651250000004, "end": 289.64007187500005, "pitch": 74, "velocity": 127}, {"start": 289.70363125, "end": 289.767190625, "pitch": 73, "velocity": 127}, {"start": 289.83075, "end": 290.339225, "pitch": 74, "velocity": 127}, {"start": 290.339225, "end": 290.84770000000003, "pitch": 66, "velocity": 127}, {"start": 291.6104125, "end": 291.673971875, "pitch": 71, "velocity": 127}, {"start": 291.73753125, "end": 291.80109062500003, "pitch": 69, "velocity": 127}, {"start": 291.86465000000004, "end": 291.928209375, "pitch": 71, "velocity": 127}, {"start": 292.1188875, "end": 292.18244687500004, "pitch": 69, "velocity": 127}, {"start": 292.373125, "end": 292.436684375, "pitch": 68, "velocity": 127}, {"start": 292.6273625, "end": 292.690921875, "pitch": 71, "velocity": 127}, {"start": 292.88160000000005, "end": 293.51719375000005, "pitch": 69, "velocity": 127}, {"start": 293.6443125, "end": 293.707871875, "pitch": 68, "velocity": 127}, {"start": 293.77143125000003, "end": 293.83499062500005, "pitch": 69, "velocity": 127}, {"start": 293.89855, "end": 294.6612625, "pitch": 71, "velocity": 127}, {"start": 294.6612625, "end": 294.72482187500003, "pitch": 69, "velocity": 127}, {"start": 294.78838125000004, "end": 294.851940625, "pitch": 71, "velocity": 127}, {"start": 294.9155, "end": 295.1697375, "pitch": 73, "velocity": 127}, {"start": 295.1697375, "end": 295.42397500000004, "pitch": 71, "velocity": 127}, {"start": 295.42397500000004, "end": 295.67821250000003, "pitch": 69, "velocity": 127}, {"start": 295.67821250000003, "end": 295.93245, "pitch": 68, "velocity": 127}, {"start": 295.93245, "end": 296.44092500000005, "pitch": 66, "velocity": 127}, {"start": 296.44092500000005, "end": 296.9494, "pitch": 74, "velocity": 127}, {"start": 296.9494, "end": 298.34770625000004, "pitch": 73, "velocity": 127}, {"start": 298.98330000000004, "end": 300.63584375000005, "pitch": 73, "velocity": 127}, {"start": 301.7799125, "end": 301.86465833333335, "pitch": 73, "velocity": 127}, {"start": 301.90703125000005, "end": 301.970590625, "pitch": 71, "velocity": 127}, {"start": 302.03415, "end": 302.41550625, "pitch": 73, "velocity": 127}, {"start": 302.54262500000004, "end": 303.0511, "pitch": 66, "velocity": 127}, {"start": 303.81381250000004, "end": 303.877371875, "pitch": 74, "velocity": 127}, {"start": 303.94093125, "end": 304.004490625, "pitch": 73, "velocity": 127}, {"start": 304.06805, "end": 304.13160937500004, "pitch": 74, "velocity": 127}, {"start": 304.3222875, "end": 304.385846875, "pitch": 73, "velocity": 127}, {"start": 304.576525, "end": 305.3392375, "pitch": 71, "velocity": 127}, {"start": 305.8477125, "end": 305.911271875, "pitch": 74, "velocity": 127}, {"start": 305.97483125, "end": 306.03839062500003, "pitch": 73, "velocity": 127}, {"start": 306.10195000000004, "end": 306.610425, "pitch": 74, "velocity": 127}, {"start": 306.610425, "end": 307.1189, "pitch": 66, "velocity": 127}, {"start": 307.8816125, "end": 307.945171875, "pitch": 71, "velocity": 127}, {"start": 308.00873125000004, "end": 308.07229062500005, "pitch": 69, "velocity": 127}, {"start": 308.13585, "end": 308.199409375, "pitch": 71, "velocity": 127}, {"start": 308.39008750000005, "end": 308.453646875, "pitch": 69, "velocity": 127}, {"start": 308.64432500000004, "end": 308.70788437500005, "pitch": 68, "velocity": 127}, {"start": 308.8985625, "end": 308.96212187500004, "pitch": 71, "velocity": 127}, {"start": 309.1528, "end": 309.91551250000003, "pitch": 69, "velocity": 127}, {"start": 309.91551250000003, "end": 309.97907187500005, "pitch": 73, "velocity": 127}, {"start": 310.04263125, "end": 310.106190625, "pitch": 71, "velocity": 127}, {"start": 310.16975, "end": 310.678225, "pitch": 73, "velocity": 127}, {"start": 310.678225, "end": 311.31381875, "pitch": 66, "velocity": 127}, {"start": 311.94941250000005, "end": 312.012971875, "pitch": 74, "velocity": 127}, {"start": 312.07653125, "end": 312.140090625, "pitch": 73, "velocity": 127}, {"start": 312.20365000000004, "end": 312.26720937500005, "pitch": 74, "velocity": 127}, {"start": 312.4578875, "end": 312.52144687500004, "pitch": 73, "velocity": 127}, {"start": 312.712125, "end": 313.47483750000004, "pitch": 71, "velocity": 127}, {"start": 313.9833125, "end": 314.046871875, "pitch": 74, "velocity": 127}, {"start": 314.11043125000003, "end": 314.17399062500004, "pitch": 73, "velocity": 127}, {"start": 314.23755, "end": 314.74602500000003, "pitch": 74, "velocity": 127}, {"start": 314.74602500000003, "end": 315.2545, "pitch": 66, "velocity": 127}, {"start": 316.0172125, "end": 316.08077187500004, "pitch": 71, "velocity": 127}, {"start": 316.14433125000005, "end": 316.207890625, "pitch": 69, "velocity": 127}, {"start": 316.27145, "end": 316.335009375, "pitch": 71, "velocity": 127}, {"start": 316.5256875, "end": 316.589246875, "pitch": 69, "velocity": 127}, {"start": 316.77992500000005, "end": 316.843484375, "pitch": 68, "velocity": 127}, {"start": 317.03416250000004, "end": 317.09772187500005, "pitch": 71, "velocity": 127}, {"start": 317.2884, "end": 317.92399375, "pitch": 69, "velocity": 127}, {"start": 318.05111250000004, "end": 318.114671875, "pitch": 68, "velocity": 127}, {"start": 318.17823125, "end": 318.241790625, "pitch": 69, "velocity": 127}, {"start": 318.30535000000003, "end": 319.0680625, "pitch": 71, "velocity": 127}, {"start": 319.0680625, "end": 319.131621875, "pitch": 69, "velocity": 127}, {"start": 319.19518125, "end": 319.25874062500003, "pitch": 71, "velocity": 127}, {"start": 319.32230000000004, "end": 319.57653750000003, "pitch": 73, "velocity": 127}, {"start": 319.57653750000003, "end": 319.830775, "pitch": 71, "velocity": 127}, {"start": 319.830775, "end": 320.0850125, "pitch": 69, "velocity": 127}, {"start": 320.0850125, "end": 320.33925000000005, "pitch": 68, "velocity": 127}, {"start": 320.33925000000005, "end": 320.847725, "pitch": 66, "velocity": 127}, {"start": 320.847725, "end": 321.3562, "pitch": 74, "velocity": 127}, {"start": 321.3562, "end": 322.75450625, "pitch": 73, "velocity": 127}, {"start": 323.3901, "end": 325.04264375, "pitch": 73, "velocity": 127}]'),
(11960, '[{"start": 21.666677500000002, "end": 21.83334425, "pitch": 58, "velocity": 95}, {"start": 21.83334425, "end": 22.16667775, "pitch": 65, "velocity": 95}, {"start": 22.16667775, "end": 22.50001125, "pitch": 65, "velocity": 95}, {"start": 22.50001125, "end": 22.666678, "pitch": 63, "velocity": 95}, {"start": 22.666678, "end": 23.0000115, "pitch": 65, "velocity": 95}, {"start": 23.0000115, "end": 23.333345, "pitch": 63, "velocity": 95}, {"start": 23.333345, "end": 23.6666785, "pitch": 58, "velocity": 95}, {"start": 24.3333455, "end": 24.50001225, "pitch": 58, "velocity": 95}, {"start": 24.50001225, "end": 24.83334575, "pitch": 60, "velocity": 95}, {"start": 24.83334575, "end": 25.16667925, "pitch": 60, "velocity": 95}, {"start": 25.16667925, "end": 25.333346000000002, "pitch": 58, "velocity": 95}, {"start": 25.333346000000002, "end": 25.6666795, "pitch": 60, "velocity": 95}, {"start": 25.6666795, "end": 26.000013, "pitch": 63, "velocity": 95}, {"start": 26.000013, "end": 26.66668, "pitch": 65, "velocity": 95}, {"start": 27.0000135, "end": 27.333347, "pitch": 67, "velocity": 95}, {"start": 27.333347, "end": 27.666680500000002, "pitch": 65, "velocity": 95}, {"start": 27.666680500000002, "end": 27.83334725, "pitch": 63, "velocity": 95}, {"start": 27.83334725, "end": 28.16668075, "pitch": 58, "velocity": 95}, {"start": 28.16668075, "end": 28.333347500000002, "pitch": 58, "velocity": 95}, {"start": 28.333347500000002, "end": 28.666681, "pitch": 58, "velocity": 95}, {"start": 28.666681, "end": 28.83334775, "pitch": 65, "velocity": 95}, {"start": 28.83334775, "end": 29.16668125, "pitch": 63, "velocity": 95}, {"start": 29.16668125, "end": 30.666682, "pitch": 60, "velocity": 95}, {"start": 32.333349500000004, "end": 32.50001625, "pitch": 58, "velocity": 95}, {"start": 32.50001625, "end": 32.833349750000004, "pitch": 65, "velocity": 95}, {"start": 32.833349750000004, "end": 33.16668325, "pitch": 65, "velocity": 95}, {"start": 33.16668325, "end": 33.33335, "pitch": 63, "velocity": 95}, {"start": 33.33335, "end": 33.6666835, "pitch": 65, "velocity": 95}, {"start": 33.6666835, "end": 34.000017, "pitch": 63, "velocity": 95}, {"start": 34.000017, "end": 34.3333505, "pitch": 58, "velocity": 95}, {"start": 35.0000175, "end": 35.333351, "pitch": 60, "velocity": 95}, {"start": 35.333351, "end": 35.6666845, "pitch": 60, "velocity": 95}, {"start": 35.6666845, "end": 36.000018000000004, "pitch": 58, "velocity": 95}, {"start": 36.000018000000004, "end": 36.16668475, "pitch": 60, "velocity": 95}, {"start": 36.16668475, "end": 36.500018250000004, "pitch": 63, "velocity": 95}, {"start": 36.500018250000004, "end": 37.0000185, "pitch": 65, "velocity": 95}, {"start": 37.0000185, "end": 37.16668525, "pitch": 58, "velocity": 95}, {"start": 37.16668525, "end": 37.50001875, "pitch": 58, "velocity": 95}, {"start": 37.50001875, "end": 38.000019, "pitch": 67, "velocity": 95}, {"start": 38.000019, "end": 38.333352500000004, "pitch": 65, "velocity": 95}, {"start": 38.333352500000004, "end": 38.50001925, "pitch": 63, "velocity": 95}, {"start": 38.50001925, "end": 38.83335275, "pitch": 58, "velocity": 95}, {"start": 38.83335275, "end": 39.0000195, "pitch": 58, "velocity": 95}, {"start": 39.0000195, "end": 39.333353, "pitch": 67, "velocity": 95}, {"start": 39.333353, "end": 39.666686500000004, "pitch": 65, "velocity": 95}, {"start": 39.666686500000004, "end": 40.00002, "pitch": 60, "velocity": 95}, {"start": 40.666687, "end": 42.000021000000004, "pitch": 63, "velocity": 95}, {"start": 43.0000215, "end": 43.333355000000005, "pitch": 67, "velocity": 95}, {"start": 43.0000215, "end": 43.333355000000005, "pitch": 55, "velocity": 95}, {"start": 43.333355000000005, "end": 43.6666885, "pitch": 65, "velocity": 95}, {"start": 43.333355000000005, "end": 43.6666885, "pitch": 53, "velocity": 95}, {"start": 43.6666885, "end": 43.833355250000004, "pitch": 51, "velocity": 95}, {"start": 43.6666885, "end": 43.833355250000004, "pitch": 63, "velocity": 95}, {"start": 43.833355250000004, "end": 44.16668875, "pitch": 70, "velocity": 95}, {"start": 43.833355250000004, "end": 44.16668875, "pitch": 58, "velocity": 95}, {"start": 44.16668875, "end": 44.666689, "pitch": 55, "velocity": 95}, {"start": 44.16668875, "end": 44.666689, "pitch": 67, "velocity": 95}, {"start": 44.666689, "end": 45.0000225, "pitch": 65, "velocity": 95}, {"start": 44.666689, "end": 45.0000225, "pitch": 53, "velocity": 95}, {"start": 45.0000225, "end": 45.166689250000005, "pitch": 51, "velocity": 95}, {"start": 45.0000225, "end": 45.166689250000005, "pitch": 63, "velocity": 95}, {"start": 45.166689250000005, "end": 46.66669, "pitch": 65, "velocity": 95}, {"start": 45.166689250000005, "end": 46.66669, "pitch": 53, "velocity": 95}, {"start": 47.000023500000005, "end": 47.333357, "pitch": 58, "velocity": 95}, {"start": 47.000023500000005, "end": 47.333357, "pitch": 46, "velocity": 95}, {"start": 47.333357, "end": 47.6666905, "pitch": 63, "velocity": 95}, {"start": 47.333357, "end": 47.6666905, "pitch": 51, "velocity": 95}, {"start": 47.6666905, "end": 47.83335725, "pitch": 50, "velocity": 95}, {"start": 47.6666905, "end": 47.83335725, "pitch": 62, "velocity": 95}, {"start": 47.83335725, "end": 49.333358000000004, "pitch": 48, "velocity": 95}, {"start": 47.83335725, "end": 49.333358000000004, "pitch": 60, "velocity": 95}, {"start": 49.333358000000004, "end": 50.666692000000005, "pitch": 46, "velocity": 95}, {"start": 49.333358000000004, "end": 50.666692000000005, "pitch": 58, "velocity": 95}, {"start": 50.666692000000005, "end": 52.000026, "pitch": 62, "velocity": 95}, {"start": 50.666692000000005, "end": 52.000026, "pitch": 50, "velocity": 95}, {"start": 52.000026, "end": 53.33336, "pitch": 48, "velocity": 95}, {"start": 52.000026, "end": 53.33336, "pitch": 60, "velocity": 95}, {"start": 53.33336, "end": 53.6666935, "pitch": 60, "velocity": 95}, {"start": 53.33336, "end": 53.6666935, "pitch": 48, "velocity": 95}, {"start": 53.6666935, "end": 53.83336025, "pitch": 48, "velocity": 95}, {"start": 53.6666935, "end": 53.83336025, "pitch": 60, "velocity": 95}, {"start": 53.83336025, "end": 54.333360500000005, "pitch": 51, "velocity": 95}, {"start": 53.83336025, "end": 54.333360500000005, "pitch": 63, "velocity": 95}, {"start": 54.333360500000005, "end": 54.666694, "pitch": 55, "velocity": 95}, {"start": 54.333360500000005, "end": 54.666694, "pitch": 67, "velocity": 95}, {"start": 54.666694, "end": 54.833360750000004, "pitch": 53, "velocity": 95}, {"start": 54.666694, "end": 54.833360750000004, "pitch": 65, "velocity": 95}, {"start": 54.833360750000004, "end": 55.333361000000004, "pitch": 51, "velocity": 95}, {"start": 54.833360750000004, "end": 55.333361000000004, "pitch": 63, "velocity": 95}, {"start": 55.333361000000004, "end": 55.6666945, "pitch": 58, "velocity": 95}, {"start": 55.333361000000004, "end": 55.6666945, "pitch": 46, "velocity": 95}, {"start": 55.6666945, "end": 55.83336125, "pitch": 46, "velocity": 95}, {"start": 55.6666945, "end": 55.83336125, "pitch": 58, "velocity": 95}, {"start": 55.83336125, "end": 56.000028, "pitch": 48, "velocity": 95}, {"start": 55.83336125, "end": 56.3333615, "pitch": 60, "velocity": 95}, {"start": 56.3333615, "end": 56.666695000000004, "pitch": 48, "velocity": 95}, {"start": 56.3333615, "end": 56.666695000000004, "pitch": 60, "velocity": 95}, {"start": 56.666695000000004, "end": 57.0000285, "pitch": 63, "velocity": 95}, {"start": 56.666695000000004, "end": 57.0000285, "pitch": 51, "velocity": 95}, {"start": 57.0000285, "end": 57.166695250000004, "pitch": 53, "velocity": 95}, {"start": 57.0000285, "end": 57.166695250000004, "pitch": 65, "velocity": 95}, {"start": 57.166695250000004, "end": 58.500029250000004, "pitch": 48, "velocity": 95}, {"start": 57.166695250000004, "end": 58.500029250000004, "pitch": 60, "velocity": 95}, {"start": 58.500029250000004, "end": 58.666696, "pitch": 46, "velocity": 95}, {"start": 58.500029250000004, "end": 58.666696, "pitch": 58, "velocity": 95}, {"start": 58.666696, "end": 59.000029500000004, "pitch": 60, "velocity": 95}, {"start": 58.666696, "end": 59.000029500000004, "pitch": 48, "velocity": 95}, {"start": 59.000029500000004, "end": 59.16669625, "pitch": 51, "velocity": 95}, {"start": 59.000029500000004, "end": 59.16669625, "pitch": 63, "velocity": 95}, {"start": 59.16669625, "end": 59.6666965, "pitch": 51, "velocity": 95}, {"start": 59.16669625, "end": 59.6666965, "pitch": 63, "velocity": 95}, {"start": 59.6666965, "end": 60.00003, "pitch": 55, "velocity": 95}, {"start": 59.6666965, "end": 60.00003, "pitch": 67, "velocity": 95}, {"start": 60.00003, "end": 60.16669675, "pitch": 53, "velocity": 95}, {"start": 60.00003, "end": 60.16669675, "pitch": 65, "velocity": 95}, {"start": 60.16669675, "end": 60.666697, "pitch": 51, "velocity": 95}, {"start": 60.16669675, "end": 60.666697, "pitch": 63, "velocity": 95}, {"start": 60.666697, "end": 61.0000305, "pitch": 58, "velocity": 95}, {"start": 60.666697, "end": 61.0000305, "pitch": 46, "velocity": 95}, {"start": 61.0000305, "end": 61.166697250000006, "pitch": 51, "velocity": 95}, {"start": 61.0000305, "end": 61.166697250000006, "pitch": 63, "velocity": 95}, {"start": 61.166697250000006, "end": 62.3333645, "pitch": 53, "velocity": 95}, {"start": 61.166697250000006, "end": 62.3333645, "pitch": 65, "velocity": 95}, {"start": 62.3333645, "end": 63.6666985, "pitch": 48, "velocity": 95}, {"start": 62.3333645, "end": 63.6666985, "pitch": 60, "velocity": 95}, {"start": 64.3333655, "end": 64.50003225, "pitch": 58, "velocity": 95}, {"start": 64.50003225, "end": 64.83336575, "pitch": 65, "velocity": 95}, {"start": 64.83336575, "end": 65.16669925000001, "pitch": 65, "velocity": 95}, {"start": 65.16669925000001, "end": 65.333366, "pitch": 63, "velocity": 95}, {"start": 65.333366, "end": 65.66669950000001, "pitch": 65, "velocity": 95}, {"start": 65.66669950000001, "end": 66.000033, "pitch": 63, "velocity": 95}, {"start": 66.000033, "end": 66.3333665, "pitch": 58, "velocity": 95}, {"start": 67.0000335, "end": 67.333367, "pitch": 60, "velocity": 95}, {"start": 67.333367, "end": 67.6667005, "pitch": 60, "velocity": 95}, {"start": 67.6667005, "end": 68.000034, "pitch": 58, "velocity": 95}, {"start": 68.000034, "end": 68.16670075, "pitch": 60, "velocity": 95}, {"start": 68.16670075, "end": 68.50003425, "pitch": 63, "velocity": 95}, {"start": 68.50003425, "end": 69.0000345, "pitch": 65, "velocity": 95}, {"start": 69.0000345, "end": 69.16670125, "pitch": 58, "velocity": 95}, {"start": 69.16670125, "end": 69.50003475, "pitch": 58, "velocity": 95}, {"start": 69.50003475, "end": 70.000035, "pitch": 67, "velocity": 95}, {"start": 70.000035, "end": 70.3333685, "pitch": 65, "velocity": 95}, {"start": 70.3333685, "end": 70.50003525, "pitch": 63, "velocity": 95}, {"start": 70.50003525, "end": 70.83336875, "pitch": 58, "velocity": 95}, {"start": 70.83336875, "end": 71.333369, "pitch": 67, "velocity": 95}, {"start": 71.333369, "end": 71.6667025, "pitch": 65, "velocity": 95}, {"start": 71.6667025, "end": 72.00003600000001, "pitch": 60, "velocity": 95}, {"start": 72.00003600000001, "end": 73.33337, "pitch": 63, "velocity": 95}, {"start": 75.0000375, "end": 75.16670425000001, "pitch": 58, "velocity": 95}, {"start": 75.16670425000001, "end": 75.50003775, "pitch": 65, "velocity": 95}, {"start": 75.50003775, "end": 75.83337125, "pitch": 65, "velocity": 95}, {"start": 75.83337125, "end": 76.000038, "pitch": 63, "velocity": 95}, {"start": 76.000038, "end": 76.3333715, "pitch": 65, "velocity": 95}, {"start": 76.3333715, "end": 76.66670500000001, "pitch": 63, "velocity": 95}, {"start": 76.66670500000001, "end": 77.0000385, "pitch": 58, "velocity": 95}, {"start": 77.6667055, "end": 78.000039, "pitch": 60, "velocity": 95}, {"start": 78.000039, "end": 78.3333725, "pitch": 60, "velocity": 95}, {"start": 78.3333725, "end": 78.666706, "pitch": 58, "velocity": 95}, {"start": 78.666706, "end": 78.83337275000001, "pitch": 60, "velocity": 95}, {"start": 78.83337275000001, "end": 79.16670625, "pitch": 63, "velocity": 95}, {"start": 79.16670625, "end": 79.6667065, "pitch": 65, "velocity": 95}, {"start": 79.6667065, "end": 79.83337325000001, "pitch": 58, "velocity": 95}, {"start": 79.83337325000001, "end": 80.16670675, "pitch": 58, "velocity": 95}, {"start": 80.16670675, "end": 80.666707, "pitch": 67, "velocity": 95}, {"start": 80.666707, "end": 81.0000405, "pitch": 65, "velocity": 95}, {"start": 81.0000405, "end": 81.16670725, "pitch": 63, "velocity": 95}, {"start": 81.16670725, "end": 81.50004075, "pitch": 58, "velocity": 95}, {"start": 81.50004075, "end": 81.6667075, "pitch": 58, "velocity": 95}, {"start": 81.6667075, "end": 82.000041, "pitch": 67, "velocity": 95}, {"start": 82.000041, "end": 82.3333745, "pitch": 65, "velocity": 95}, {"start": 82.3333745, "end": 82.666708, "pitch": 60, "velocity": 95}, {"start": 82.666708, "end": 84.666709, "pitch": 63, "velocity": 95}, {"start": 85.6667095, "end": 86.000043, "pitch": 67, "velocity": 95}, {"start": 86.000043, "end": 86.3333765, "pitch": 65, "velocity": 95}, {"start": 86.3333765, "end": 86.50004325, "pitch": 63, "velocity": 95}, {"start": 86.50004325, "end": 86.83337675, "pitch": 70, "velocity": 95}, {"start": 86.83337675, "end": 87.333377, "pitch": 67, "velocity": 95}, {"start": 87.333377, "end": 87.66671050000001, "pitch": 65, "velocity": 95}, {"start": 87.66671050000001, "end": 87.83337725, "pitch": 63, "velocity": 95}, {"start": 87.83337725, "end": 89.333378, "pitch": 65, "velocity": 95}, {"start": 89.6667115, "end": 90.000045, "pitch": 58, "velocity": 95}, {"start": 90.000045, "end": 90.33337850000001, "pitch": 63, "velocity": 95}, {"start": 90.33337850000001, "end": 90.50004525, "pitch": 62, "velocity": 95}, {"start": 90.50004525, "end": 92.000046, "pitch": 60, "velocity": 95}, {"start": 92.000046, "end": 93.33338, "pitch": 58, "velocity": 95}, {"start": 93.33338, "end": 94.666714, "pitch": 65, "velocity": 95}, {"start": 93.33338, "end": 94.666714, "pitch": 62, "velocity": 95}, {"start": 94.666714, "end": 96.000048, "pitch": 63, "velocity": 95}, {"start": 94.666714, "end": 96.000048, "pitch": 60, "velocity": 95}, {"start": 96.000048, "end": 96.3333815, "pitch": 60, "velocity": 95}, {"start": 96.3333815, "end": 96.50004825, "pitch": 60, "velocity": 95}, {"start": 96.50004825, "end": 97.0000485, "pitch": 63, "velocity": 95}, {"start": 97.0000485, "end": 97.333382, "pitch": 67, "velocity": 95}, {"start": 97.333382, "end": 97.50004875, "pitch": 65, "velocity": 95}, {"start": 97.50004875, "end": 98.000049, "pitch": 63, "velocity": 95}, {"start": 98.000049, "end": 98.3333825, "pitch": 58, "velocity": 95}, {"start": 98.3333825, "end": 98.50004925, "pitch": 58, "velocity": 95}, {"start": 98.50004925, "end": 99.0000495, "pitch": 60, "velocity": 95}, {"start": 99.0000495, "end": 99.333383, "pitch": 60, "velocity": 95}, {"start": 99.333383, "end": 99.6667165, "pitch": 63, "velocity": 95}, {"start": 99.6667165, "end": 99.83338325, "pitch": 65, "velocity": 95}, {"start": 99.83338325, "end": 101.16671725, "pitch": 60, "velocity": 95}, {"start": 101.16671725, "end": 101.33338400000001, "pitch": 58, "velocity": 95}, {"start": 101.33338400000001, "end": 101.6667175, "pitch": 60, "velocity": 95}, {"start": 101.6667175, "end": 101.83338425000001, "pitch": 63, "velocity": 95}, {"start": 101.83338425000001, "end": 102.33338450000001, "pitch": 63, "velocity": 95}, {"start": 102.33338450000001, "end": 102.666718, "pitch": 67, "velocity": 95}, {"start": 102.666718, "end": 102.83338475000001, "pitch": 65, "velocity": 95}, {"start": 102.83338475000001, "end": 103.333385, "pitch": 63, "velocity": 95}, {"start": 103.333385, "end": 103.6667185, "pitch": 58, "velocity": 95}, {"start": 103.6667185, "end": 103.83338525, "pitch": 63, "velocity": 95}, {"start": 103.83338525, "end": 105.6667195, "pitch": 65, "velocity": 95}, {"start": 105.6667195, "end": 106.00005300000001, "pitch": 67, "velocity": 95}, {"start": 106.00005300000001, "end": 106.3333865, "pitch": 65, "velocity": 95}, {"start": 106.3333865, "end": 106.50005325000001, "pitch": 63, "velocity": 95}, {"start": 106.50005325000001, "end": 106.66672, "pitch": 63, "velocity": 95}, {"start": 109.66672150000001, "end": 110.000055, "pitch": 58, "velocity": 95}, {"start": 110.000055, "end": 110.3333885, "pitch": 65, "velocity": 95}, {"start": 110.3333885, "end": 110.66672200000001, "pitch": 63, "velocity": 95}, {"start": 110.66672200000001, "end": 110.83338875, "pitch": 65, "velocity": 95}, {"start": 110.83338875, "end": 111.333389, "pitch": 63, "velocity": 95}, {"start": 111.333389, "end": 111.6667225, "pitch": 65, "velocity": 95}, {"start": 111.6667225, "end": 111.83338925000001, "pitch": 63, "velocity": 95}, {"start": 111.83338925000001, "end": 112.666723, "pitch": 60, "velocity": 95}, {"start": 112.666723, "end": 113.16672325, "pitch": 58, "velocity": 95}, {"start": 113.16672325, "end": 113.50005675, "pitch": 60, "velocity": 95}, {"start": 113.50005675, "end": 113.83339025000001, "pitch": 63, "velocity": 95}, {"start": 113.83339025000001, "end": 114.000057, "pitch": 58, "velocity": 95}, {"start": 114.000057, "end": 114.33339050000001, "pitch": 60, "velocity": 95}, {"start": 114.33339050000001, "end": 114.666724, "pitch": 63, "velocity": 95}, {"start": 114.33339050000001, "end": 115.00005750000001, "pitch": 58, "velocity": 95}, {"start": 114.83339075, "end": 115.00005750000001, "pitch": 58, "velocity": 95}, {"start": 115.00005750000001, "end": 115.333391, "pitch": 65, "velocity": 95}, {"start": 115.333391, "end": 115.6667245, "pitch": 65, "velocity": 95}, {"start": 115.6667245, "end": 116.00005800000001, "pitch": 63, "velocity": 95}, {"start": 116.00005800000001, "end": 116.16672475, "pitch": 65, "velocity": 95}, {"start": 116.16672475, "end": 116.50005825000001, "pitch": 63, "velocity": 95}, {"start": 116.50005825000001, "end": 116.666725, "pitch": 58, "velocity": 95}, {"start": 116.666725, "end": 117.00005850000001, "pitch": 65, "velocity": 95}, {"start": 117.00005850000001, "end": 117.16672525, "pitch": 67, "velocity": 95}, {"start": 117.16672525, "end": 118.00005900000001, "pitch": 63, "velocity": 95}, {"start": 118.00005900000001, "end": 118.50005925, "pitch": 58, "velocity": 95}, {"start": 118.50005925, "end": 118.83339275, "pitch": 56, "velocity": 95}, {"start": 118.83339275, "end": 119.16672625000001, "pitch": 60, "velocity": 95}, {"start": 119.16672625000001, "end": 119.333393, "pitch": 58, "velocity": 95}, {"start": 119.333393, "end": 119.66672650000001, "pitch": 63, "velocity": 95}, {"start": 119.66672650000001, "end": 120.00006, "pitch": 65, "velocity": 95}, {"start": 120.00006, "end": 120.3333935, "pitch": 58, "velocity": 95}, {"start": 120.3333935, "end": 120.66672700000001, "pitch": 65, "velocity": 95}, {"start": 120.66672700000001, "end": 121.0000605, "pitch": 65, "velocity": 95}, {"start": 121.0000605, "end": 121.333394, "pitch": 63, "velocity": 95}, {"start": 121.333394, "end": 121.50006075, "pitch": 65, "velocity": 95}, {"start": 121.50006075, "end": 121.83339425, "pitch": 63, "velocity": 95}, {"start": 121.83339425, "end": 122.000061, "pitch": 63, "velocity": 95}, {"start": 122.000061, "end": 122.33339450000001, "pitch": 65, "velocity": 95}, {"start": 122.33339450000001, "end": 122.666728, "pitch": 63, "velocity": 95}, {"start": 122.666728, "end": 123.33339500000001, "pitch": 60, "velocity": 95}, {"start": 123.33339500000001, "end": 123.83339525000001, "pitch": 58, "velocity": 95}, {"start": 123.83339525000001, "end": 124.16672875, "pitch": 60, "velocity": 95}, {"start": 124.16672875, "end": 124.50006225, "pitch": 63, "velocity": 95}, {"start": 124.50006225, "end": 124.666729, "pitch": 58, "velocity": 95}, {"start": 124.666729, "end": 125.0000625, "pitch": 60, "velocity": 95}, {"start": 125.0000625, "end": 125.33339600000001, "pitch": 63, "velocity": 95}, {"start": 125.0000625, "end": 125.6667295, "pitch": 58, "velocity": 95}, {"start": 125.50006275, "end": 125.6667295, "pitch": 58, "velocity": 95}, {"start": 125.6667295, "end": 126.00006300000001, "pitch": 65, "velocity": 95}, {"start": 126.00006300000001, "end": 126.3333965, "pitch": 65, "velocity": 95}, {"start": 126.3333965, "end": 126.66673, "pitch": 63, "velocity": 95}, {"start": 126.66673, "end": 126.83339675, "pitch": 65, "velocity": 95}, {"start": 126.83339675, "end": 127.16673025, "pitch": 63, "velocity": 95}, {"start": 127.16673025, "end": 127.333397, "pitch": 58, "velocity": 95}, {"start": 127.333397, "end": 127.6667305, "pitch": 65, "velocity": 95}, {"start": 127.6667305, "end": 127.83339725, "pitch": 67, "velocity": 95}, {"start": 127.83339725, "end": 128.666731, "pitch": 63, "velocity": 95}, {"start": 131.0000655, "end": 131.16673225, "pitch": 58, "velocity": 95}, {"start": 131.16673225, "end": 131.50006575, "pitch": 65, "velocity": 95}, {"start": 131.50006575, "end": 131.83339925, "pitch": 65, "velocity": 95}, {"start": 131.83339925, "end": 132.000066, "pitch": 63, "velocity": 95}, {"start": 132.000066, "end": 132.3333995, "pitch": 65, "velocity": 95}, {"start": 132.3333995, "end": 132.666733, "pitch": 63, "velocity": 95}, {"start": 132.666733, "end": 133.0000665, "pitch": 58, "velocity": 95}, {"start": 133.6667335, "end": 133.83340025, "pitch": 58, "velocity": 95}, {"start": 133.83340025, "end": 134.16673375, "pitch": 60, "velocity": 95}, {"start": 134.16673375, "end": 134.50006725, "pitch": 60, "velocity": 95}, {"start": 134.50006725, "end": 134.666734, "pitch": 58, "velocity": 95}, {"start": 134.666734, "end": 135.0000675, "pitch": 60, "velocity": 95}, {"start": 135.0000675, "end": 135.333401, "pitch": 63, "velocity": 95}, {"start": 135.333401, "end": 136.000068, "pitch": 65, "velocity": 95}, {"start": 136.16673475000002, "end": 136.3334015, "pitch": 58, "velocity": 95}, {"start": 136.3334015, "end": 136.66673500000002, "pitch": 67, "velocity": 95}, {"start": 136.66673500000002, "end": 137.0000685, "pitch": 65, "velocity": 95}, {"start": 137.0000685, "end": 137.16673525000002, "pitch": 63, "velocity": 95}, {"start": 137.16673525000002, "end": 137.50006875, "pitch": 58, "velocity": 95}, {"start": 137.50006875, "end": 137.66673550000002, "pitch": 58, "velocity": 95}, {"start": 137.66673550000002, "end": 138.000069, "pitch": 58, "velocity": 95}, {"start": 138.000069, "end": 138.50006925, "pitch": 65, "velocity": 95}, {"start": 138.50006925, "end": 139.0000695, "pitch": 63, "velocity": 95}, {"start": 139.0000695, "end": 140.00007, "pitch": 60, "velocity": 95}, {"start": 141.6667375, "end": 141.83340425, "pitch": 58, "velocity": 95}, {"start": 141.83340425, "end": 142.16673775, "pitch": 65, "velocity": 95}, {"start": 142.16673775, "end": 142.50007125000002, "pitch": 65, "velocity": 95}, {"start": 142.50007125000002, "end": 142.83340475, "pitch": 63, "velocity": 95}, {"start": 142.83340475, "end": 143.00007150000002, "pitch": 65, "velocity": 95}, {"start": 143.00007150000002, "end": 143.333405, "pitch": 63, "velocity": 95}, {"start": 143.333405, "end": 143.6667385, "pitch": 58, "velocity": 95}, {"start": 144.3334055, "end": 144.50007225000002, "pitch": 58, "velocity": 95}, {"start": 144.50007225000002, "end": 144.83340575, "pitch": 60, "velocity": 95}, {"start": 144.83340575, "end": 145.16673925, "pitch": 60, "velocity": 95}, {"start": 145.16673925, "end": 145.333406, "pitch": 58, "velocity": 95}, {"start": 145.333406, "end": 145.6667395, "pitch": 60, "velocity": 95}, {"start": 145.6667395, "end": 146.00007300000001, "pitch": 63, "velocity": 95}, {"start": 146.00007300000001, "end": 146.3334065, "pitch": 65, "velocity": 95}, {"start": 146.3334065, "end": 146.50007325, "pitch": 58, "velocity": 95}, {"start": 146.50007325, "end": 146.83340675, "pitch": 58, "velocity": 95}, {"start": 146.83340675, "end": 147.16674025, "pitch": 58, "velocity": 95}, {"start": 147.16674025, "end": 147.333407, "pitch": 67, "velocity": 95}, {"start": 147.333407, "end": 147.50007375, "pitch": 65, "velocity": 95}, {"start": 147.50007375, "end": 147.83340725, "pitch": 63, "velocity": 95}, {"start": 147.83340725, "end": 148.16674075, "pitch": 58, "velocity": 95}, {"start": 148.16674075, "end": 148.50007425, "pitch": 58, "velocity": 95}, {"start": 148.50007425, "end": 148.666741, "pitch": 67, "velocity": 95}, {"start": 148.666741, "end": 149.0000745, "pitch": 65, "velocity": 95}, {"start": 149.0000745, "end": 149.333408, "pitch": 60, "velocity": 95}, {"start": 149.333408, "end": 150.666742, "pitch": 63, "velocity": 95}, {"start": 152.33340950000002, "end": 152.666743, "pitch": 67, "velocity": 95}, {"start": 152.666743, "end": 153.0000765, "pitch": 65, "velocity": 95}, {"start": 153.0000765, "end": 153.16674325, "pitch": 63, "velocity": 95}, {"start": 153.16674325, "end": 153.50007675, "pitch": 70, "velocity": 95}, {"start": 153.50007675, "end": 154.000077, "pitch": 67, "velocity": 95}, {"start": 154.000077, "end": 154.3334105, "pitch": 65, "velocity": 95}, {"start": 154.3334105, "end": 154.50007725, "pitch": 63, "velocity": 95}, {"start": 154.50007725, "end": 156.000078, "pitch": 65, "velocity": 95}, {"start": 156.3334115, "end": 156.666745, "pitch": 58, "velocity": 95}, {"start": 156.666745, "end": 157.0000785, "pitch": 70, "velocity": 95}, {"start": 156.666745, "end": 157.0000785, "pitch": 63, "velocity": 95}, {"start": 157.0000785, "end": 157.16674525000002, "pitch": 62, "velocity": 95}, {"start": 157.0000785, "end": 157.16674525000002, "pitch": 70, "velocity": 95}, {"start": 157.16674525000002, "end": 158.66674600000002, "pitch": 68, "velocity": 95}, {"start": 157.16674525000002, "end": 158.66674600000002, "pitch": 60, "velocity": 95}, {"start": 158.66674600000002, "end": 160.00008, "pitch": 67, "velocity": 95}, {"start": 158.66674600000002, "end": 160.00008, "pitch": 58, "velocity": 95}, {"start": 160.00008, "end": 161.333414, "pitch": 70, "velocity": 95}, {"start": 160.00008, "end": 161.333414, "pitch": 62, "velocity": 95}, {"start": 161.333414, "end": 162.666748, "pitch": 68, "velocity": 95}, {"start": 161.333414, "end": 162.666748, "pitch": 63, "velocity": 95}, {"start": 162.666748, "end": 163.0000815, "pitch": 60, "velocity": 95}, {"start": 163.0000815, "end": 163.16674825, "pitch": 60, "velocity": 95}, {"start": 163.16674825, "end": 163.6667485, "pitch": 63, "velocity": 95}, {"start": 163.6667485, "end": 164.000082, "pitch": 67, "velocity": 95}, {"start": 164.000082, "end": 164.16674875, "pitch": 65, "velocity": 95}, {"start": 164.16674875, "end": 164.666749, "pitch": 63, "velocity": 95}, {"start": 164.666749, "end": 165.00008250000002, "pitch": 58, "velocity": 95}, {"start": 165.00008250000002, "end": 165.16674925, "pitch": 58, "velocity": 95}, {"start": 165.16674925, "end": 165.6667495, "pitch": 60, "velocity": 95}, {"start": 165.6667495, "end": 166.00008300000002, "pitch": 60, "velocity": 95}, {"start": 166.00008300000002, "end": 166.3334165, "pitch": 63, "velocity": 95}, {"start": 166.3334165, "end": 166.50008325000002, "pitch": 65, "velocity": 95}, {"start": 166.50008325000002, "end": 167.83341725, "pitch": 60, "velocity": 95}, {"start": 167.83341725, "end": 168.00008400000002, "pitch": 58, "velocity": 95}, {"start": 168.00008400000002, "end": 168.3334175, "pitch": 60, "velocity": 95}, {"start": 168.3334175, "end": 168.50008425000001, "pitch": 63, "velocity": 95}, {"start": 168.50008425000001, "end": 169.0000845, "pitch": 63, "velocity": 95}, {"start": 169.0000845, "end": 169.333418, "pitch": 67, "velocity": 95}, {"start": 169.333418, "end": 169.50008475, "pitch": 65, "velocity": 95}, {"start": 169.50008475, "end": 170.000085, "pitch": 63, "velocity": 95}, {"start": 170.000085, "end": 170.3334185, "pitch": 58, "velocity": 95}, {"start": 170.3334185, "end": 170.50008525, "pitch": 63, "velocity": 95}, {"start": 170.50008525, "end": 172.000086, "pitch": 65, "velocity": 95}, {"start": 173.6667535, "end": 174.000087, "pitch": 67, "velocity": 95}, {"start": 174.000087, "end": 174.33342050000002, "pitch": 65, "velocity": 95}, {"start": 174.33342050000002, "end": 174.50008725, "pitch": 63, "velocity": 95}, {"start": 174.50008725, "end": 174.83342075000002, "pitch": 70, "velocity": 95}, {"start": 174.83342075000002, "end": 175.33342100000002, "pitch": 63, "velocity": 95}, {"start": 174.83342075000002, "end": 175.33342100000002, "pitch": 67, "velocity": 95}, {"start": 175.33342100000002, "end": 175.6667545, "pitch": 62, "velocity": 95}, {"start": 175.33342100000002, "end": 175.6667545, "pitch": 65, "velocity": 95}, {"start": 175.6667545, "end": 175.83342125000001, "pitch": 60, "velocity": 95}, {"start": 175.6667545, "end": 175.83342125000001, "pitch": 63, "velocity": 95}, {"start": 175.83342125000001, "end": 177.333422, "pitch": 62, "velocity": 95}, {"start": 175.83342125000001, "end": 177.333422, "pitch": 65, "velocity": 95}, {"start": 177.6667555, "end": 178.000089, "pitch": 58, "velocity": 95}, {"start": 178.000089, "end": 178.3334225, "pitch": 70, "velocity": 95}, {"start": 178.000089, "end": 178.3334225, "pitch": 63, "velocity": 95}, {"start": 178.3334225, "end": 178.50008925, "pitch": 62, "velocity": 95}, {"start": 178.3334225, "end": 178.50008925, "pitch": 70, "velocity": 95}, {"start": 178.50008925, "end": 180.00009, "pitch": 68, "velocity": 95}, {"start": 178.50008925, "end": 180.00009, "pitch": 60, "velocity": 95}, {"start": 180.00009, "end": 181.333424, "pitch": 67, "velocity": 95}, {"start": 180.00009, "end": 181.333424, "pitch": 58, "velocity": 95}, {"start": 181.333424, "end": 182.66675800000002, "pitch": 65, "velocity": 95}, {"start": 181.333424, "end": 182.66675800000002, "pitch": 70, "velocity": 95}, {"start": 181.333424, "end": 182.66675800000002, "pitch": 62, "velocity": 95}, {"start": 182.66675800000002, "end": 184.000092, "pitch": 60, "velocity": 95}, {"start": 182.66675800000002, "end": 184.000092, "pitch": 68, "velocity": 95}, {"start": 182.66675800000002, "end": 184.000092, "pitch": 63, "velocity": 95}, {"start": 184.000092, "end": 184.3334255, "pitch": 60, "velocity": 95}, {"start": 184.3334255, "end": 184.50009225, "pitch": 60, "velocity": 95}, {"start": 184.50009225, "end": 185.0000925, "pitch": 63, "velocity": 95}, {"start": 185.0000925, "end": 185.333426, "pitch": 67, "velocity": 95}, {"start": 185.333426, "end": 185.50009275, "pitch": 65, "velocity": 95}, {"start": 185.50009275, "end": 186.000093, "pitch": 63, "velocity": 95}, {"start": 186.000093, "end": 186.3334265, "pitch": 58, "velocity": 95}, {"start": 186.3334265, "end": 186.50009325000002, "pitch": 58, "velocity": 95}, {"start": 186.50009325000002, "end": 187.00009350000002, "pitch": 60, "velocity": 95}, {"start": 187.00009350000002, "end": 187.333427, "pitch": 60, "velocity": 95}, {"start": 187.333427, "end": 187.6667605, "pitch": 63, "velocity": 95}, {"start": 187.6667605, "end": 187.83342725, "pitch": 65, "velocity": 95}, {"start": 187.83342725, "end": 189.16676125, "pitch": 60, "velocity": 95}, {"start": 189.16676125, "end": 189.333428, "pitch": 58, "velocity": 95}, {"start": 189.333428, "end": 189.6667615, "pitch": 60, "velocity": 95}, {"start": 189.6667615, "end": 189.83342825, "pitch": 63, "velocity": 95}, {"start": 189.83342825, "end": 190.3334285, "pitch": 63, "velocity": 95}, {"start": 190.3334285, "end": 190.666762, "pitch": 67, "velocity": 95}, {"start": 190.666762, "end": 190.83342875, "pitch": 65, "velocity": 95}, {"start": 190.83342875, "end": 191.333429, "pitch": 63, "velocity": 95}, {"start": 191.333429, "end": 191.6667625, "pitch": 58, "velocity": 95}, {"start": 191.6667625, "end": 191.83342925, "pitch": 63, "velocity": 95}, {"start": 191.83342925, "end": 194.000097, "pitch": 65, "velocity": 95}, {"start": 195.0000975, "end": 195.33343100000002, "pitch": 55, "velocity": 95}, {"start": 195.33343100000002, "end": 195.6667645, "pitch": 53, "velocity": 95}, {"start": 195.6667645, "end": 195.83343125000002, "pitch": 51, "velocity": 95}, {"start": 195.83343125000002, "end": 196.16676475, "pitch": 58, "velocity": 95}, {"start": 196.16676475, "end": 196.666765, "pitch": 55, "velocity": 95}, {"start": 196.666765, "end": 197.0000985, "pitch": 53, "velocity": 95}, {"start": 197.0000985, "end": 197.16676525, "pitch": 51, "velocity": 95}, {"start": 197.16676525, "end": 198.666766, "pitch": 53, "velocity": 95}, {"start": 199.0000995, "end": 199.333433, "pitch": 46, "velocity": 95}, {"start": 199.333433, "end": 199.6667665, "pitch": 51, "velocity": 95}, {"start": 199.6667665, "end": 199.83343325, "pitch": 50, "velocity": 95}, {"start": 199.83343325, "end": 201.333434, "pitch": 48, "velocity": 95}, {"start": 201.333434, "end": 202.66676800000002, "pitch": 46, "velocity": 95}, {"start": 202.66676800000002, "end": 204.000102, "pitch": 50, "velocity": 95}, {"start": 204.000102, "end": 205.333436, "pitch": 48, "velocity": 95}, {"start": 205.333436, "end": 205.66676950000002, "pitch": 48, "velocity": 95}, {"start": 205.66676950000002, "end": 205.83343625, "pitch": 48, "velocity": 95}, {"start": 205.83343625, "end": 206.3334365, "pitch": 51, "velocity": 95}, {"start": 206.3334365, "end": 206.66677, "pitch": 55, "velocity": 95}, {"start": 206.66677, "end": 206.83343675, "pitch": 53, "velocity": 95}, {"start": 206.83343675, "end": 207.333437, "pitch": 51, "velocity": 95}, {"start": 207.333437, "end": 207.6667705, "pitch": 46, "velocity": 95}, {"start": 207.6667705, "end": 207.83343725, "pitch": 46, "velocity": 95}, {"start": 207.83343725, "end": 208.000104, "pitch": 48, "velocity": 95}, {"start": 208.3334375, "end": 208.666771, "pitch": 48, "velocity": 95}, {"start": 208.666771, "end": 209.00010450000002, "pitch": 51, "velocity": 95}, {"start": 209.00010450000002, "end": 209.16677125, "pitch": 53, "velocity": 95}, {"start": 209.16677125, "end": 210.50010525000002, "pitch": 48, "velocity": 95}, {"start": 210.50010525000002, "end": 210.666772, "pitch": 46, "velocity": 95}, {"start": 210.666772, "end": 211.00010550000002, "pitch": 48, "velocity": 95}, {"start": 211.00010550000002, "end": 211.16677225, "pitch": 51, "velocity": 95}, {"start": 211.16677225, "end": 211.6667725, "pitch": 51, "velocity": 95}, {"start": 211.6667725, "end": 212.00010600000002, "pitch": 55, "velocity": 95}, {"start": 212.00010600000002, "end": 212.16677275, "pitch": 53, "velocity": 95}, {"start": 212.16677275, "end": 212.666773, "pitch": 51, "velocity": 95}, {"start": 212.666773, "end": 213.00010650000002, "pitch": 46, "velocity": 95}, {"start": 213.00010650000002, "end": 213.16677325, "pitch": 51, "velocity": 95}, {"start": 213.16677325, "end": 218.13344, "pitch": 53, "velocity": 95}]');
